<?xml version="1.0" encoding="UTF-8" standalone="no"?>
<svg
   width="100"
   height="50"
   viewBox="0 0 100 50"
   fill="none"
   version="1.1"
   id="svg8"
   sodipodi:docname="arrow_green_game.svg"
   inkscape:version="1.2.2 (732a01da63, 2022-12-09)"
   xml:space="preserve"
   xmlns:inkscape="http://www.inkscape.org/namespaces/inkscape"
   xmlns:sodipodi="http://sodipodi.sourceforge.net/DTD/sodipodi-0.dtd"
   xmlns="http://www.w3.org/2000/svg"
   xmlns:svg="http://www.w3.org/2000/svg"><defs
     id="defs12" /><sodipodi:namedview
     id="namedview10"
     pagecolor="#ffffff"
     bordercolor="#000000"
     borderopacity="0.25"
     inkscape:showpageshadow="2"
     inkscape:pageopacity="0.0"
     inkscape:pagecheckerboard="0"
     inkscape:deskcolor="#d1d1d1"
     showgrid="false"
     inkscape:zoom="2.360567"
     inkscape:cx="-37.91462"
     inkscape:cy="84.513593"
     inkscape:window-width="1920"
     inkscape:window-height="991"
     inkscape:window-x="-9"
     inkscape:window-y="-9"
     inkscape:window-maximized="1"
     inkscape:current-layer="svg8" /><rect
     width="29.744413"
     height="72.574272"
     rx="6.7214761"
     transform="matrix(-0.02156865,0.99976737,-0.99988822,-0.01495134,0,0)"
     fill="#2ba76c"
     id="rect2"
     x="9.9269266"
     y="-73.296341"
     style="stroke-width:1.06699" /><path
     d="m 96.352225,18.227928 c 4.251155,1.716734 4.277395,11.296071 0.03551,13.028405 L 51.965838,49.39621 c -2.674781,1.092221 -5.288902,-2.115326 -5.300842,-6.504523 L 46.566342,6.7756883 c -0.012,-4.389209 2.584565,-7.60635707 5.265414,-6.52389786 z"
     fill="#2ba76c"
     id="path4"
     style="stroke-width:1.06715" /><g
     style="fill:none"
     id="g397"
     transform="matrix(1.0180518,0,0,1,2.0667682,20.292622)"><path
       d="M 1.19,4.62 C 0.983333,4.62 0.806667,4.55667 0.66,4.43 0.513333,4.30333 0.44,4.11333 0.44,3.86 V 3.47 H 1.15 V 3.6 c 0,0.10667 0.02667,0.17667 0.08,0.21 0.05333,0.03333 0.14,0.05 0.26,0.05 H 4.14 L 1.66,7.43 1.48,7.23 H 4.11 V 8 H 0.28 L 2.81,4.36 2.97,4.62 Z M 7.87891,8.1 C 7.56557,8.1 7.26224,8.02667 6.96891,7.88 6.68224,7.73333 6.45891,7.53667 6.29891,7.29 L 6.35891,7 v 2.99 h -0.92 V 3.8 h 0.8 l 0.13,1.06 -0.1,-0.29 c 0.2,-0.25333 0.45333,-0.46333 0.76,-0.63 0.30666,-0.16667 0.65,-0.25 1.03,-0.25 0.38666,0 0.73333,0.09333 1.04,0.28 0.31333,0.18667 0.56,0.44667 0.74,0.78 0.17999,0.33333 0.26999,0.72333 0.26999,1.17 0,0.44667 -0.0967,0.83333 -0.28999,1.16 -0.19334,0.32667 -0.46,0.58 -0.8,0.76 -0.33334,0.17333 -0.71334,0.26 -1.14,0.26 z m -0.18,-0.74 c 0.26666,0 0.51,-0.06 0.73,-0.18 0.22666,-0.12667 0.40666,-0.29667 0.54,-0.51 0.13333,-0.22 0.2,-0.46667 0.2,-0.74 0,-0.28 -0.06334,-0.52667 -0.19,-0.74 -0.12667,-0.22 -0.29667,-0.39333 -0.51,-0.52 -0.20667,-0.12667 -0.44,-0.19 -0.7,-0.19 -0.24,0 -0.45667,0.04667 -0.65,0.14 -0.19334,0.09333 -0.35334,0.22333 -0.48,0.39 -0.12667,0.16 -0.21667,0.34667 -0.27,0.56 v 0.69 c 0.03333,0.21333 0.11333,0.40333 0.24,0.57 0.12666,0.16667 0.28333,0.29667 0.47,0.39 0.19333,0.09333 0.4,0.14 0.62,0.14 z M 13.2866,8.1 c -0.4733,0 -0.88,-0.09333 -1.22,-0.28 -0.34,-0.19333 -0.6033,-0.45333 -0.79,-0.78 -0.18,-0.33333 -0.27,-0.71333 -0.27,-1.14 0,-0.40667 0.1034,-0.77667 0.31,-1.11 0.2067,-0.33333 0.4834,-0.6 0.83,-0.8 0.3467,-0.2 0.7334,-0.3 1.16,-0.3 0.5467,0 1,0.16 1.36,0.48 0.36,0.32 0.6034,0.76 0.73,1.32 l -3.41,1.2 -0.22,-0.55 2.8,-1.02 -0.2,0.13 c -0.08,-0.22 -0.2133,-0.41 -0.4,-0.57 -0.1866,-0.16667 -0.43,-0.25 -0.73,-0.25 -0.2533,0 -0.48,0.06333 -0.68,0.19 -0.2,0.12 -0.3566,0.28667 -0.47,0.5 -0.1133,0.21333 -0.17,0.45667 -0.17,0.73 0,0.28667 0.06,0.54 0.18,0.76 0.12,0.21333 0.2834,0.38333 0.49,0.51 0.2134,0.12 0.4534,0.18 0.72,0.18 0.18,0 0.3534,-0.03333 0.52,-0.1 C 14,7.13333 14.16,7.04667 14.3066,6.94 l 0.43,0.69 c -0.2066,0.14 -0.44,0.25333 -0.7,0.34 -0.2533,0.08667 -0.5033,0.13 -0.75,0.13 z m -0.79,-6.6 0.95,0.99 -0.28,0.06 0.95,-1.05 h 0.86 l -1.65,1.72 h -0.01 l -1.68,-1.72 z m 4.4654,0.54 h 0.93 v 1.84 h 1.14 v 0.73 h -1.14 V 8 h -0.93 V 4.61 h -0.76 V 3.88 h 0.76 z m 7.1878,1.82 0.08,1.01 -0.04,-0.16 c 0.1333,-0.30667 0.35,-0.55 0.65,-0.73 0.3,-0.18667 0.6466,-0.28 1.04,-0.28 0.3933,0 0.7133,0.11667 0.96,0.35 0.2533,0.22667 0.3833,0.52333 0.39,0.89 V 8 h -0.94 V 5.27 c -0.0067,-0.22667 -0.0734,-0.41 -0.2,-0.55 -0.12,-0.14667 -0.31,-0.22 -0.57,-0.22 -0.24,0 -0.4567,0.06667 -0.65,0.2 -0.1934,0.13333 -0.3467,0.31667 -0.46,0.55 -0.1067,0.23333 -0.16,0.50333 -0.16,0.81 V 8 h -0.93 V 3.86 Z m 6.4173,4.24 c -0.3867,0 -0.74,-0.08333 -1.06,-0.25 -0.3133,-0.16667 -0.5633,-0.41 -0.75,-0.73 -0.18,-0.32667 -0.27,-0.72333 -0.27,-1.19 0,-0.46 0.0967,-0.85667 0.29,-1.19 0.1933,-0.34 0.45,-0.6 0.77,-0.78 0.3267,-0.18 0.6833,-0.27 1.07,-0.27 0.3867,0 0.7133,0.09 0.98,0.27 0.2667,0.17333 0.47,0.38 0.61,0.62 l -0.06,0.16 0.09,-0.88 h 0.86 V 8 h -0.93 V 6.92 l 0.1,0.24 c -0.0267,0.06667 -0.0867,0.15333 -0.18,0.26 -0.0867,0.1 -0.2067,0.20333 -0.36,0.31 -0.1467,0.10667 -0.3167,0.19667 -0.51,0.27 -0.1933,0.06667 -0.41,0.1 -0.65,0.1 z m 0.25,-0.77 c 0.2333,0 0.4433,-0.04333 0.63,-0.13 0.1867,-0.08667 0.34,-0.20667 0.46,-0.36 0.1267,-0.16 0.2133,-0.35 0.26,-0.57 V 5.46 c -0.0533,-0.2 -0.1467,-0.37333 -0.28,-0.52 -0.1333,-0.15333 -0.2933,-0.27 -0.48,-0.35 -0.1867,-0.08667 -0.3933,-0.13 -0.62,-0.13 -0.2467,0 -0.4733,0.06 -0.68,0.18 -0.2067,0.12 -0.3733,0.28667 -0.5,0.5 -0.12,0.21333 -0.18,0.46333 -0.18,0.75 0,0.26667 0.0633,0.51 0.19,0.73 0.1267,0.22 0.2967,0.39333 0.51,0.52 0.2133,0.12667 0.4433,0.19 0.69,0.19 z M 37.8705,8 V 0.26 h 0.91 v 4.56 l -0.02,-0.17 c 0.14,-0.27333 0.3534,-0.5 0.64,-0.68 0.2934,-0.18 0.6367,-0.27 1.03,-0.27 0.3934,0 0.7134,0.11667 0.96,0.35 0.2534,0.22667 0.3834,0.52333 0.39,0.89 V 8 h -0.94 V 5.27 c -0.0066,-0.22667 -0.0733,-0.41 -0.2,-0.55 -0.12,-0.14667 -0.31,-0.22 -0.57,-0.22 -0.24,0 -0.4566,0.07 -0.65,0.21 -0.1933,0.13333 -0.3466,0.31667 -0.46,0.55 -0.1066,0.23333 -0.16,0.5 -0.16,0.8 V 8 Z m 7.4474,0.1 c -0.4733,0 -0.88,-0.09333 -1.22,-0.28 -0.34,-0.19333 -0.6033,-0.45333 -0.79,-0.78 -0.18,-0.33333 -0.27,-0.71333 -0.27,-1.14 0,-0.40667 0.1033,-0.77667 0.31,-1.11 0.2067,-0.33333 0.4833,-0.6 0.83,-0.8 0.3467,-0.2 0.7333,-0.3 1.16,-0.3 0.5467,0 1,0.16 1.36,0.48 0.36,0.32 0.6033,0.76 0.73,1.32 l -3.41,1.2 -0.22,-0.55 2.8,-1.02 -0.2,0.13 c -0.08,-0.22 -0.2133,-0.41 -0.4,-0.57 -0.1867,-0.16667 -0.43,-0.25 -0.73,-0.25 -0.2533,0 -0.48,0.06333 -0.68,0.19 -0.2,0.12 -0.3567,0.28667 -0.47,0.5 -0.1133,0.21333 -0.17,0.45667 -0.17,0.73 0,0.28667 0.06,0.54 0.18,0.76 0.12,0.21333 0.2833,0.38333 0.49,0.51 0.2133,0.12 0.4533,0.18 0.72,0.18 0.18,0 0.3533,-0.03333 0.52,-0.1 0.1733,-0.06667 0.3333,-0.15333 0.48,-0.26 l 0.43,0.69 c -0.2067,0.14 -0.44,0.25333 -0.7,0.34 -0.2533,0.08667 -0.5033,0.13 -0.75,0.13 z m 4.1053,-4.24 0.09,1.2 -0.05,-0.16 c 0.1067,-0.25333 0.26,-0.46667 0.46,-0.64 0.2067,-0.18 0.42,-0.31667 0.64,-0.41 0.2267,-0.1 0.4233,-0.15 0.59,-0.15 l -0.05,0.92 c -0.3133,-0.02 -0.59,0.04 -0.83,0.18 -0.2333,0.14 -0.42,0.32667 -0.56,0.56 -0.1333,0.23333 -0.2,0.48333 -0.2,0.75 V 8 h -0.92 V 3.86 Z m 3.7598,0 0.08,1.01 -0.04,-0.16 c 0.1333,-0.30667 0.35,-0.55 0.65,-0.73 0.3,-0.18667 0.6466,-0.28 1.04,-0.28 0.3933,0 0.7133,0.11667 0.96,0.35 0.2533,0.22667 0.3833,0.52333 0.39,0.89 V 8 h -0.94 V 5.27 C 55.3163,5.04333 55.2496,4.86 55.123,4.72 55.003,4.57333 54.813,4.5 54.553,4.5 c -0.24,0 -0.4567,0.06667 -0.65,0.2 -0.1934,0.13333 -0.3467,0.31667 -0.46,0.55 -0.1067,0.23333 -0.16,0.50333 -0.16,0.81 V 8 h -0.93 V 3.86 Z m 4.6973,0 h 0.93 V 8 h -0.93 z m 1.61,-1.97 -1.27,1.34 h -0.59 l 0.83,-1.34 z m 6.5331,6.21 c -0.3133,0 -0.6166,-0.07333 -0.91,-0.22 -0.2866,-0.14667 -0.51,-0.34333 -0.67,-0.59 L 64.5034,7 v 2.99 h -0.92 V 3.8 h 0.8 l 0.13,1.06 -0.1,-0.29 c 0.2,-0.25333 0.4534,-0.46333 0.76,-0.63 0.3067,-0.16667 0.65,-0.25 1.03,-0.25 0.3867,0 0.7334,0.09333 1.04,0.28 0.3134,0.18667 0.56,0.44667 0.74,0.78 0.18,0.33333 0.27,0.72333 0.27,1.17 0,0.44667 -0.0966,0.83333 -0.29,1.16 -0.1933,0.32667 -0.46,0.58 -0.8,0.76 -0.3333,0.17333 -0.7133,0.26 -1.14,0.26 z m -0.18,-0.74 c 0.2667,0 0.51,-0.06 0.73,-0.18 0.2267,-0.12667 0.4067,-0.29667 0.54,-0.51 0.1334,-0.22 0.2,-0.46667 0.2,-0.74 0,-0.28 -0.0633,-0.52667 -0.19,-0.74 -0.1266,-0.22 -0.2966,-0.39333 -0.51,-0.52 -0.2066,-0.12667 -0.44,-0.19 -0.7,-0.19 -0.24,0 -0.4566,0.04667 -0.65,0.14 -0.1933,0.09333 -0.3533,0.22333 -0.48,0.39 -0.1266,0.16 -0.2166,0.34667 -0.27,0.56 v 0.69 c 0.0334,0.21333 0.1134,0.40333 0.24,0.57 0.1267,0.16667 0.2834,0.29667 0.47,0.39 0.1934,0.09333 0.4,0.14 0.62,0.14 z m 3.6678,-7.1 h 0.93 V 8 h -0.93 z m 2.179,5.63 c 0,-0.41333 0.0967,-0.78667 0.29,-1.12 0.2,-0.33333 0.4734,-0.59667 0.82,-0.79 0.3467,-0.19333 0.74,-0.29 1.18,-0.29 0.4534,0 0.85,0.09667 1.19,0.29 0.34,0.19333 0.6034,0.45667 0.79,0.79 0.1867,0.33333 0.28,0.70667 0.28,1.12 0,0.41333 -0.0933,0.79 -0.28,1.13 -0.1866,0.33333 -0.4533,0.59667 -0.8,0.79 -0.34,0.19333 -0.7366,0.29 -1.19,0.29 -0.44,0 -0.8333,-0.09 -1.18,-0.27 -0.34,-0.18667 -0.61,-0.44333 -0.81,-0.77 -0.1933,-0.33333 -0.29,-0.72333 -0.29,-1.17 z m 0.93,0.01 c 0,0.26667 0.06,0.51 0.18,0.73 0.12,0.21333 0.28,0.38333 0.48,0.51 0.2067,0.12667 0.4334,0.19 0.68,0.19 0.26,0 0.49,-0.06333 0.69,-0.19 0.2067,-0.12667 0.3667,-0.29667 0.48,-0.51 0.1134,-0.22 0.17,-0.46333 0.17,-0.73 0,-0.26667 -0.0566,-0.50667 -0.17,-0.72 -0.1133,-0.22 -0.2733,-0.39333 -0.48,-0.52 -0.2,-0.13333 -0.43,-0.2 -0.69,-0.2 -0.2533,0 -0.4833,0.06667 -0.69,0.2 -0.2,0.13333 -0.36,0.31 -0.48,0.53 -0.1133,0.21333 -0.17,0.45 -0.17,0.71 z m 8.2393,1.72 c -0.1867,0.14667 -0.41,0.26333 -0.67,0.35 -0.26,0.08667 -0.52,0.13 -0.78,0.13 -0.4534,0 -0.85,-0.09 -1.19,-0.27 -0.34,-0.18 -0.6067,-0.43 -0.8,-0.75 -0.1867,-0.32667 -0.28,-0.71 -0.28,-1.15 0,-0.44 0.1,-0.82333 0.3,-1.15 0.2066,-0.32667 0.4733,-0.57667 0.8,-0.75 0.3333,-0.18 0.69,-0.27 1.07,-0.27 0.3333,0 0.63,0.04667 0.89,0.14 0.2666,0.09333 0.4933,0.22 0.68,0.38 l -0.46,0.6 c -0.12,-0.09333 -0.2667,-0.17667 -0.44,-0.25 -0.1734,-0.07333 -0.37,-0.11 -0.59,-0.11 -0.24,0 -0.4634,0.06333 -0.67,0.19 -0.2,0.12 -0.36,0.28667 -0.48,0.5 -0.1134,0.21333 -0.17,0.45333 -0.17,0.72 0,0.25333 0.06,0.49 0.18,0.71 0.12,0.21333 0.2866,0.38333 0.5,0.51 0.2133,0.12 0.4566,0.18 0.73,0.18 0.18,0 0.3433,-0.02667 0.49,-0.08 0.1533,-0.05333 0.29,-0.12667 0.41,-0.22 z M 82.06,8 V 0.26 h 0.91 V 4.82 L 82.95,4.65 c 0.14,-0.27333 0.3533,-0.5 0.64,-0.68 0.2933,-0.18 0.6367,-0.27 1.03,-0.27 0.3933,0 0.7133,0.11667 0.96,0.35 0.2533,0.22667 0.3833,0.52333 0.39,0.89 V 8 H 85.03 V 5.27 C 85.0233,5.04333 84.9567,4.86 84.83,4.72 84.71,4.57333 84.52,4.5 84.26,4.5 c -0.24,0 -0.4567,0.07 -0.65,0.21 -0.1933,0.13333 -0.3467,0.31667 -0.46,0.55 -0.1067,0.23333 -0.16,0.5 -0.16,0.8 V 8 Z m 6.8373,0.16 c -0.3733,0 -0.6833,-0.11333 -0.93,-0.34 -0.24,-0.23333 -0.3666,-0.53333 -0.38,-0.9 V 3.86 h 0.93 v 2.73 c 0.0134,0.22667 0.0767,0.41 0.19,0.55 0.12,0.14 0.3067,0.21333 0.56,0.22 0.2334,0 0.44,-0.06667 0.62,-0.2 0.1867,-0.14 0.3367,-0.32667 0.45,-0.56 0.1134,-0.24 0.17,-0.51 0.17,-0.81 V 3.86 h 0.93 V 8 h -0.85 l -0.08,-1.02 0.05,0.18 c -0.08,0.19333 -0.2033,0.36667 -0.37,0.52 -0.16,0.14667 -0.35,0.26333 -0.57,0.35 -0.22,0.08667 -0.46,0.13 -0.72,0.13 z"
       fill="#ffffff"
       id="path388" /></g></svg>
