<svg width="81" height="52" viewBox="0 0 81 52" fill="none" xmlns="http://www.w3.org/2000/svg">
<rect width="24.5713" height="52.1942" rx="5" transform="matrix(-0.018777 0.999824 -0.999853 -0.0171746 52.6479 14.1752)" fill="#2BA76C"/>
<path d="M71.2135 20.9758C75.0662 22.7628 75.0793 28.2351 71.2352 30.0383L40.779 44.3249C37.4679 45.8781 33.6633 43.4663 33.6545 39.8086L33.5864 11.3634C33.5777 7.70572 37.3707 5.27798 40.6893 6.81726L71.2135 20.9758Z" fill="#2BA76C"/>
<path d="M7.456 29V18.878H10.214C11.2127 18.878 12.062 19.032 12.762 19.34C13.4713 19.648 14.0407 20.054 14.47 20.558C14.8993 21.062 15.212 21.622 15.408 22.238C15.6133 22.8447 15.716 23.4513 15.716 24.058C15.716 24.8233 15.5807 25.5093 15.31 26.116C15.0487 26.7227 14.6847 27.2407 14.218 27.67C13.7513 28.0993 13.2147 28.4307 12.608 28.664C12.0107 28.888 11.376 29 10.704 29H7.456ZM8.814 27.698H10.438C10.998 27.698 11.5113 27.614 11.978 27.446C12.454 27.278 12.8647 27.0353 13.21 26.718C13.5647 26.4007 13.84 26.0133 14.036 25.556C14.232 25.0893 14.33 24.562 14.33 23.974C14.33 23.3487 14.2273 22.8027 14.022 22.336C13.8167 21.86 13.5367 21.4633 13.182 21.146C12.8273 20.8287 12.426 20.5907 11.978 20.432C11.53 20.264 11.0587 20.18 10.564 20.18H8.814V27.698ZM17.171 26.046C17.171 25.4673 17.3063 24.9447 17.577 24.478C17.857 24.0113 18.2397 23.6427 18.725 23.372C19.2103 23.1013 19.761 22.966 20.377 22.966C21.0117 22.966 21.567 23.1013 22.043 23.372C22.519 23.6427 22.8877 24.0113 23.149 24.478C23.4103 24.9447 23.541 25.4673 23.541 26.046C23.541 26.6247 23.4103 27.152 23.149 27.628C22.8877 28.0947 22.5143 28.4633 22.029 28.734C21.553 29.0047 20.9977 29.14 20.363 29.14C19.747 29.14 19.1963 29.014 18.711 28.762C18.235 28.5007 17.857 28.1413 17.577 27.684C17.3063 27.2173 17.171 26.6713 17.171 26.046ZM18.473 26.06C18.473 26.4333 18.557 26.774 18.725 27.082C18.893 27.3807 19.117 27.6187 19.397 27.796C19.6863 27.9733 20.0037 28.062 20.349 28.062C20.713 28.062 21.035 27.9733 21.315 27.796C21.6043 27.6187 21.8283 27.3807 21.987 27.082C22.1457 26.774 22.225 26.4333 22.225 26.06C22.225 25.6867 22.1457 25.3507 21.987 25.052C21.8283 24.744 21.6043 24.5013 21.315 24.324C21.035 24.1373 20.713 24.044 20.349 24.044C19.9943 24.044 19.6723 24.1373 19.383 24.324C19.103 24.5107 18.879 24.758 18.711 25.066C18.5523 25.3647 18.473 25.696 18.473 26.06ZM26.4659 23.204L26.5779 24.506L26.5219 24.394C26.7366 23.9553 27.0399 23.61 27.4319 23.358C27.8333 23.106 28.2906 22.98 28.8039 22.98C29.1306 22.98 29.4199 23.0313 29.6719 23.134C29.9239 23.2367 30.1293 23.386 30.2879 23.582C30.4559 23.7687 30.5633 24.002 30.6099 24.282L30.5399 24.324C30.7639 23.904 31.0719 23.5773 31.4639 23.344C31.8653 23.1013 32.2853 22.98 32.7239 22.98C33.2933 22.98 33.7413 23.1433 34.0679 23.47C34.4039 23.7873 34.5766 24.2027 34.5859 24.716V29H33.2839V25.178C33.2746 24.8793 33.1999 24.632 33.0599 24.436C32.9293 24.2307 32.6959 24.1187 32.3599 24.1C32.0239 24.1 31.7206 24.2027 31.4499 24.408C31.1886 24.6133 30.9833 24.8793 30.8339 25.206C30.6846 25.5233 30.6053 25.8687 30.5959 26.242V29H29.2939V25.178C29.2846 24.8793 29.2053 24.632 29.0559 24.436C28.9159 24.2307 28.6779 24.1187 28.3419 24.1C27.9966 24.1 27.6933 24.2027 27.4319 24.408C27.1706 24.6133 26.9653 24.8793 26.8159 25.206C26.6759 25.5327 26.6059 25.8827 26.6059 26.256V29H25.3039V23.204H26.4659ZM38.6907 29.224C38.168 29.224 37.734 29.0653 37.3887 28.748C37.0527 28.4213 36.8753 28.0013 36.8567 27.488V23.204H38.1587V27.026C38.1773 27.3433 38.266 27.6 38.4247 27.796C38.5927 27.992 38.854 28.0947 39.2087 28.104C39.5353 28.104 39.8247 28.0107 40.0767 27.824C40.338 27.628 40.548 27.3667 40.7067 27.04C40.8653 26.704 40.9447 26.326 40.9447 25.906V23.204H42.2467V29H41.0567L40.9447 27.572L41.0147 27.824C40.9027 28.0947 40.73 28.3373 40.4967 28.552C40.2727 28.7573 40.0067 28.9207 39.6987 29.042C39.3907 29.1633 39.0547 29.224 38.6907 29.224ZM38.1307 21.244C38.1307 20.8707 38.252 20.572 38.4947 20.348C38.7467 20.1147 39.064 19.998 39.4467 19.998C39.8107 19.998 40.1187 20.1147 40.3707 20.348C40.6227 20.572 40.7487 20.8707 40.7487 21.244C40.7487 21.608 40.6227 21.9067 40.3707 22.14C40.1187 22.3733 39.806 22.49 39.4327 22.49C39.0593 22.49 38.7467 22.3733 38.4947 22.14C38.252 21.9067 38.1307 21.608 38.1307 21.244ZM38.8447 21.258C38.8447 21.4353 38.9007 21.5847 39.0127 21.706C39.1247 21.818 39.2693 21.874 39.4467 21.874C39.6147 21.874 39.7547 21.818 39.8667 21.706C39.9787 21.5847 40.0347 21.4353 40.0347 21.258C40.0347 21.0713 39.9787 20.922 39.8667 20.81C39.7547 20.698 39.6147 20.642 39.4467 20.642C39.2693 20.642 39.1247 20.698 39.0127 20.81C38.9007 20.922 38.8447 21.0713 38.8447 21.258Z" fill="white"/>
</svg>
