<svg width="81" height="52" viewBox="0 0 81 52" fill="none" xmlns="http://www.w3.org/2000/svg">
<rect width="24.5713" height="52.1942" rx="5" transform="matrix(-0.018777 0.999824 -0.999853 -0.0171746 52.6479 14.1753)" fill="#2BA76C"/>
<path d="M71.2133 20.9758C75.066 22.7628 75.0791 28.2351 71.2349 30.0383L40.7788 44.3249C37.4676 45.8781 33.663 43.4663 33.6543 39.8086L33.5862 11.3634C33.5774 7.70572 37.3705 5.27798 40.689 6.81726L71.2133 20.9758Z" fill="#2BA76C"/>
<path d="M9.575 28.11C9.23033 28.11 8.89667 28.0293 8.574 27.868C8.25867 27.7067 8.013 27.4903 7.837 27.219L7.903 26.9V30.189H6.891V23.38H7.771L7.914 24.546L7.804 24.227C8.024 23.9483 8.30267 23.7173 8.64 23.534C8.97733 23.3507 9.355 23.259 9.773 23.259C10.1983 23.259 10.5797 23.3617 10.917 23.567C11.2617 23.7723 11.533 24.0583 11.731 24.425C11.929 24.7917 12.028 25.2207 12.028 25.712C12.028 26.2033 11.9217 26.6287 11.709 26.988C11.4963 27.3473 11.203 27.626 10.829 27.824C10.4623 28.0147 10.0443 28.11 9.575 28.11ZM9.377 27.296C9.67033 27.296 9.938 27.23 10.18 27.098C10.4293 26.9587 10.6273 26.7717 10.774 26.537C10.9207 26.295 10.994 26.0237 10.994 25.723C10.994 25.415 10.9243 25.1437 10.785 24.909C10.6457 24.667 10.4587 24.4763 10.224 24.337C9.99667 24.1977 9.74 24.128 9.454 24.128C9.19 24.128 8.95167 24.1793 8.739 24.282C8.52633 24.3847 8.35033 24.5277 8.211 24.711C8.07167 24.887 7.97267 25.0923 7.914 25.327V26.086C7.95067 26.3207 8.03867 26.5297 8.178 26.713C8.31733 26.8963 8.48967 27.0393 8.695 27.142C8.90767 27.2447 9.135 27.296 9.377 27.296ZM13.0155 25.679C13.0155 25.2243 13.1218 24.8137 13.3345 24.447C13.5545 24.0803 13.8552 23.7907 14.2365 23.578C14.6178 23.3653 15.0505 23.259 15.5345 23.259C16.0332 23.259 16.4695 23.3653 16.8435 23.578C17.2175 23.7907 17.5072 24.0803 17.7125 24.447C17.9178 24.8137 18.0205 25.2243 18.0205 25.679C18.0205 26.1337 17.9178 26.548 17.7125 26.922C17.5072 27.2887 17.2138 27.5783 16.8325 27.791C16.4585 28.0037 16.0222 28.11 15.5235 28.11C15.0395 28.11 14.6068 28.011 14.2255 27.813C13.8515 27.6077 13.5545 27.3253 13.3345 26.966C13.1218 26.5993 13.0155 26.1703 13.0155 25.679ZM14.0385 25.69C14.0385 25.9833 14.1045 26.251 14.2365 26.493C14.3685 26.7277 14.5445 26.9147 14.7645 27.054C14.9918 27.1933 15.2412 27.263 15.5125 27.263C15.7985 27.263 16.0515 27.1933 16.2715 27.054C16.4988 26.9147 16.6748 26.7277 16.7995 26.493C16.9242 26.251 16.9865 25.9833 16.9865 25.69C16.9865 25.3967 16.9242 25.1327 16.7995 24.898C16.6748 24.656 16.4988 24.4653 16.2715 24.326C16.0515 24.1793 15.7985 24.106 15.5125 24.106C15.2338 24.106 14.9808 24.1793 14.7535 24.326C14.5335 24.4727 14.3575 24.667 14.2255 24.909C14.1008 25.1437 14.0385 25.404 14.0385 25.69ZM19.4056 28V19.486H20.4286V28H19.4056ZM21.5286 24.975L23.6186 28H22.4196L20.8466 25.547L21.5286 24.975ZM20.1096 26.548L20.0106 25.569L22.7716 23.347L23.3986 23.886L20.1096 26.548ZM25.7972 23.446L25.8962 24.766L25.8412 24.59C25.9585 24.3113 26.1272 24.0767 26.3472 23.886C26.5745 23.688 26.8092 23.5377 27.0512 23.435C27.3005 23.325 27.5168 23.27 27.7002 23.27L27.6452 24.282C27.3005 24.26 26.9962 24.326 26.7322 24.48C26.4755 24.634 26.2702 24.8393 26.1162 25.096C25.9695 25.3527 25.8962 25.6277 25.8962 25.921V28H24.8842V23.446H25.7972ZM30.8045 28.11C30.3792 28.11 29.9905 28.0183 29.6385 27.835C29.2938 27.6517 29.0188 27.384 28.8135 27.032C28.6155 26.6727 28.5165 26.2363 28.5165 25.723C28.5165 25.217 28.6228 24.7807 28.8355 24.414C29.0482 24.04 29.3305 23.754 29.6825 23.556C30.0418 23.358 30.4342 23.259 30.8595 23.259C31.2848 23.259 31.6442 23.358 31.9375 23.556C32.2308 23.7467 32.4545 23.974 32.6085 24.238L32.5425 24.414L32.6415 23.446H33.5875V28H32.5645V26.812L32.6745 27.076C32.6452 27.1493 32.5792 27.2447 32.4765 27.362C32.3812 27.472 32.2492 27.5857 32.0805 27.703C31.9192 27.8203 31.7322 27.9193 31.5195 28C31.3068 28.0733 31.0685 28.11 30.8045 28.11ZM31.0795 27.263C31.3362 27.263 31.5672 27.2153 31.7725 27.12C31.9778 27.0247 32.1465 26.8927 32.2785 26.724C32.4178 26.548 32.5132 26.339 32.5645 26.097V25.206C32.5058 24.986 32.4032 24.7953 32.2565 24.634C32.1098 24.4653 31.9338 24.337 31.7285 24.249C31.5232 24.1537 31.2958 24.106 31.0465 24.106C30.7752 24.106 30.5258 24.172 30.2985 24.304C30.0712 24.436 29.8878 24.6193 29.7485 24.854C29.6165 25.0887 29.5505 25.3637 29.5505 25.679C29.5505 25.9723 29.6202 26.24 29.7595 26.482C29.8988 26.724 30.0858 26.9147 30.3205 27.054C30.5552 27.1933 30.8082 27.263 31.0795 27.263ZM39.0538 27.582C38.8485 27.7433 38.6028 27.8717 38.3168 27.967C38.0308 28.0623 37.7448 28.11 37.4588 28.11C36.9601 28.11 36.5238 28.011 36.1498 27.813C35.7758 27.615 35.4825 27.34 35.2698 26.988C35.0645 26.6287 34.9618 26.207 34.9618 25.723C34.9618 25.239 35.0718 24.8173 35.2918 24.458C35.5191 24.0987 35.8125 23.8237 36.1718 23.633C36.5385 23.435 36.9308 23.336 37.3488 23.336C37.7155 23.336 38.0418 23.3873 38.3278 23.49C38.6211 23.5927 38.8705 23.732 39.0758 23.908L38.5698 24.568C38.4378 24.4653 38.2765 24.3737 38.0858 24.293C37.8951 24.2123 37.6788 24.172 37.4368 24.172C37.1728 24.172 36.9271 24.2417 36.6998 24.381C36.4798 24.513 36.3038 24.6963 36.1718 24.931C36.0471 25.1657 35.9848 25.4297 35.9848 25.723C35.9848 26.0017 36.0508 26.262 36.1828 26.504C36.3148 26.7387 36.4981 26.9257 36.7328 27.065C36.9675 27.197 37.2351 27.263 37.5358 27.263C37.7338 27.263 37.9135 27.2337 38.0748 27.175C38.2435 27.1163 38.3938 27.0357 38.5258 26.933L39.0538 27.582ZM36.4358 20.927L37.4808 22.016L37.1728 22.082L38.2178 20.927H39.1638L37.3488 22.819H37.3378L35.4898 20.927H36.4358ZM39.9784 25.679C39.9784 25.2243 40.0847 24.8137 40.2974 24.447C40.5174 24.0803 40.8181 23.7907 41.1994 23.578C41.5807 23.3653 42.0134 23.259 42.4974 23.259C42.9961 23.259 43.4324 23.3653 43.8064 23.578C44.1804 23.7907 44.4701 24.0803 44.6754 24.447C44.8807 24.8137 44.9834 25.2243 44.9834 25.679C44.9834 26.1337 44.8807 26.548 44.6754 26.922C44.4701 27.2887 44.1767 27.5783 43.7954 27.791C43.4214 28.0037 42.9851 28.11 42.4864 28.11C42.0024 28.11 41.5697 28.011 41.1884 27.813C40.8144 27.6077 40.5174 27.3253 40.2974 26.966C40.0847 26.5993 39.9784 26.1703 39.9784 25.679ZM41.0014 25.69C41.0014 25.9833 41.0674 26.251 41.1994 26.493C41.3314 26.7277 41.5074 26.9147 41.7274 27.054C41.9547 27.1933 42.2041 27.263 42.4754 27.263C42.7614 27.263 43.0144 27.1933 43.2344 27.054C43.4617 26.9147 43.6377 26.7277 43.7624 26.493C43.8871 26.251 43.9494 25.9833 43.9494 25.69C43.9494 25.3967 43.8871 25.1327 43.7624 24.898C43.6377 24.656 43.4617 24.4653 43.2344 24.326C43.0144 24.1793 42.7614 24.106 42.4754 24.106C42.1967 24.106 41.9437 24.1793 41.7164 24.326C41.4964 24.4727 41.3204 24.667 41.1884 24.909C41.0637 25.1437 41.0014 25.404 41.0014 25.69ZM48.0769 28.132L45.5469 23.446H46.7569L48.4729 27.065L47.8459 27.043L49.4189 23.446H50.5629L48.1319 28.132H48.0769ZM53.3846 28.11C52.9592 28.11 52.5706 28.0183 52.2186 27.835C51.8739 27.6517 51.5989 27.384 51.3936 27.032C51.1956 26.6727 51.0966 26.2363 51.0966 25.723C51.0966 25.217 51.2029 24.7807 51.4156 24.414C51.6282 24.04 51.9106 23.754 52.2626 23.556C52.6219 23.358 53.0142 23.259 53.4396 23.259C53.8649 23.259 54.2242 23.358 54.5176 23.556C54.8109 23.7467 55.0346 23.974 55.1886 24.238L55.1226 24.414L55.2216 23.446H56.1676V28H55.1446V26.812L55.2546 27.076C55.2252 27.1493 55.1592 27.2447 55.0566 27.362C54.9612 27.472 54.8292 27.5857 54.6606 27.703C54.4992 27.8203 54.3122 27.9193 54.0996 28C53.8869 28.0733 53.6486 28.11 53.3846 28.11ZM53.6596 27.263C53.9162 27.263 54.1472 27.2153 54.3526 27.12C54.5579 27.0247 54.7266 26.8927 54.8586 26.724C54.9979 26.548 55.0932 26.339 55.1446 26.097V25.206C55.0859 24.986 54.9832 24.7953 54.8366 24.634C54.6899 24.4653 54.5139 24.337 54.3086 24.249C54.1032 24.1537 53.8759 24.106 53.6266 24.106C53.3552 24.106 53.1059 24.172 52.8786 24.304C52.6512 24.436 52.4679 24.6193 52.3286 24.854C52.1966 25.0887 52.1306 25.3637 52.1306 25.679C52.1306 25.9723 52.2002 26.24 52.3396 26.482C52.4789 26.724 52.6659 26.9147 52.9006 27.054C53.1352 27.1933 53.3882 27.263 53.6596 27.263ZM58.3779 21.444H59.4009V23.468H60.6549V24.271H59.4009V28H58.3779V24.271H57.5419V23.468H58.3779V21.444Z" fill="black"/>
</svg>
