<?xml version="1.0" encoding="UTF-8" standalone="no"?>
<!-- Created with Inkscape (http://www.inkscape.org/) -->

<svg
   width="500"
   height="400"
   viewBox="0 0 132.29166 105.83333"
   version="1.1"
   id="svg5"
   xml:space="preserve"
   inkscape:version="1.2.2 (732a01da63, 2022-12-09)"
   sodipodi:docname="astronaut.svg"
   inkscape:export-filename="kosmonaut.jpg"
   inkscape:export-xdpi="96"
   inkscape:export-ydpi="96"
   xmlns:inkscape="http://www.inkscape.org/namespaces/inkscape"
   xmlns:sodipodi="http://sodipodi.sourceforge.net/DTD/sodipodi-0.dtd"
   xmlns="http://www.w3.org/2000/svg"
   xmlns:svg="http://www.w3.org/2000/svg"><sodipodi:namedview
     id="namedview7"
     pagecolor="#ffffff"
     bordercolor="#000000"
     borderopacity="0.25"
     inkscape:showpageshadow="2"
     inkscape:pageopacity="0.0"
     inkscape:pagecheckerboard="0"
     inkscape:deskcolor="#d1d1d1"
     inkscape:document-units="mm"
     showgrid="false"
     showguides="true"
     inkscape:zoom="1"
     inkscape:cx="27.5"
     inkscape:cy="270.5"
     inkscape:window-width="1920"
     inkscape:window-height="991"
     inkscape:window-x="2391"
     inkscape:window-y="594"
     inkscape:window-maximized="1"
     inkscape:current-layer="g344"><sodipodi:guide
       position="176.34479,-0.59530432"
       orientation="1,0"
       id="guide20812"
       inkscape:locked="false" /><sodipodi:guide
       position="178.92447,-8.9296842"
       orientation="1,0"
       id="guide20814"
       inkscape:locked="false" /><sodipodi:guide
       position="144.71308,-30.086574"
       orientation="0,-1"
       id="guide24071"
       inkscape:locked="false" /><sodipodi:guide
       position="129.18281,-41.870304"
       orientation="0,-1"
       id="guide25816"
       inkscape:locked="false" /></sodipodi:namedview><defs
     id="defs2"><inkscape:path-effect
       effect="bspline"
       id="path-effect21451"
       is_visible="true"
       lpeversion="1"
       weight="33.333333"
       steps="2"
       helper_size="0"
       apply_no_weight="true"
       apply_with_weight="true"
       only_selected="false" /><inkscape:path-effect
       effect="bspline"
       id="path-effect2735"
       is_visible="true"
       lpeversion="1"
       weight="33.333333"
       steps="2"
       helper_size="0"
       apply_no_weight="true"
       apply_with_weight="true"
       only_selected="false" /><inkscape:path-effect
       effect="bspline"
       id="path-effect1979"
       is_visible="true"
       lpeversion="1"
       weight="33.333333"
       steps="2"
       helper_size="0"
       apply_no_weight="true"
       apply_with_weight="true"
       only_selected="false" /><inkscape:path-effect
       effect="bspline"
       id="path-effect1820"
       is_visible="true"
       lpeversion="1"
       weight="33.333333"
       steps="2"
       helper_size="0"
       apply_no_weight="true"
       apply_with_weight="true"
       only_selected="false" /><inkscape:path-effect
       effect="bspline"
       id="path-effect1816"
       is_visible="true"
       lpeversion="1"
       weight="33.333333"
       steps="2"
       helper_size="0"
       apply_no_weight="true"
       apply_with_weight="true"
       only_selected="false" /><inkscape:path-effect
       effect="bspline"
       id="path-effect1812"
       is_visible="true"
       lpeversion="1"
       weight="33.333333"
       steps="2"
       helper_size="0"
       apply_no_weight="true"
       apply_with_weight="true"
       only_selected="false" /><inkscape:path-effect
       effect="bspline"
       id="path-effect1808"
       is_visible="true"
       lpeversion="1"
       weight="33.333333"
       steps="2"
       helper_size="0"
       apply_no_weight="true"
       apply_with_weight="true"
       only_selected="false" /><inkscape:path-effect
       effect="bspline"
       id="path-effect1708"
       is_visible="true"
       lpeversion="1"
       weight="33.333333"
       steps="2"
       helper_size="0"
       apply_no_weight="true"
       apply_with_weight="true"
       only_selected="false" /><inkscape:path-effect
       effect="bspline"
       id="path-effect1820-1"
       is_visible="true"
       lpeversion="1"
       weight="33.333333"
       steps="2"
       helper_size="0"
       apply_no_weight="true"
       apply_with_weight="true"
       only_selected="false" /><inkscape:path-effect
       effect="bspline"
       id="path-effect1808-9"
       is_visible="true"
       lpeversion="1"
       weight="33.333333"
       steps="2"
       helper_size="0"
       apply_no_weight="true"
       apply_with_weight="true"
       only_selected="false" /><inkscape:path-effect
       effect="bspline"
       id="path-effect1808-8"
       is_visible="true"
       lpeversion="1"
       weight="33.333333"
       steps="2"
       helper_size="0"
       apply_no_weight="true"
       apply_with_weight="true"
       only_selected="false" /><inkscape:path-effect
       effect="bspline"
       id="path-effect1979-9"
       is_visible="true"
       lpeversion="1"
       weight="33.333333"
       steps="2"
       helper_size="0"
       apply_no_weight="true"
       apply_with_weight="true"
       only_selected="false" /><inkscape:path-effect
       effect="bspline"
       id="path-effect2735-8"
       is_visible="true"
       lpeversion="1"
       weight="33.333333"
       steps="2"
       helper_size="0"
       apply_no_weight="true"
       apply_with_weight="true"
       only_selected="false" /><inkscape:path-effect
       effect="bspline"
       id="path-effect2735-8-1"
       is_visible="true"
       lpeversion="1"
       weight="33.333333"
       steps="2"
       helper_size="0"
       apply_no_weight="true"
       apply_with_weight="true"
       only_selected="false" /><inkscape:path-effect
       effect="bspline"
       id="path-effect1708-9"
       is_visible="true"
       lpeversion="1"
       weight="33.333333"
       steps="2"
       helper_size="0"
       apply_no_weight="true"
       apply_with_weight="true"
       only_selected="false" /><inkscape:path-effect
       effect="bspline"
       id="path-effect1708-9-2"
       is_visible="true"
       lpeversion="1"
       weight="33.333333"
       steps="2"
       helper_size="0"
       apply_no_weight="true"
       apply_with_weight="true"
       only_selected="false" /><inkscape:path-effect
       effect="bspline"
       id="path-effect1816-0"
       is_visible="true"
       lpeversion="1"
       weight="33.333333"
       steps="2"
       helper_size="0"
       apply_no_weight="true"
       apply_with_weight="true"
       only_selected="false" /><inkscape:path-effect
       effect="bspline"
       id="path-effect1816-4"
       is_visible="true"
       lpeversion="1"
       weight="33.333333"
       steps="2"
       helper_size="0"
       apply_no_weight="true"
       apply_with_weight="true"
       only_selected="false" /><inkscape:path-effect
       effect="bspline"
       id="path-effect1816-6"
       is_visible="true"
       lpeversion="1"
       weight="33.333333"
       steps="2"
       helper_size="0"
       apply_no_weight="true"
       apply_with_weight="true"
       only_selected="false" /><inkscape:path-effect
       effect="bspline"
       id="path-effect1816-7"
       is_visible="true"
       lpeversion="1"
       weight="33.333333"
       steps="2"
       helper_size="0"
       apply_no_weight="true"
       apply_with_weight="true"
       only_selected="false" /><inkscape:path-effect
       effect="bspline"
       id="path-effect2735-8-11"
       is_visible="true"
       lpeversion="1"
       weight="33.333333"
       steps="2"
       helper_size="0"
       apply_no_weight="true"
       apply_with_weight="true"
       only_selected="false" /><inkscape:path-effect
       effect="bspline"
       id="path-effect1808-7"
       is_visible="true"
       lpeversion="1"
       weight="33.333333"
       steps="2"
       helper_size="0"
       apply_no_weight="true"
       apply_with_weight="true"
       only_selected="false" /><inkscape:path-effect
       effect="bspline"
       id="path-effect1979-8"
       is_visible="true"
       lpeversion="1"
       weight="33.333333"
       steps="2"
       helper_size="0"
       apply_no_weight="true"
       apply_with_weight="true"
       only_selected="false" /><inkscape:path-effect
       effect="bspline"
       id="path-effect1808-89"
       is_visible="true"
       lpeversion="1"
       weight="33.333333"
       steps="2"
       helper_size="0"
       apply_no_weight="true"
       apply_with_weight="true"
       only_selected="false" /><inkscape:path-effect
       effect="bspline"
       id="path-effect1808-89-7"
       is_visible="true"
       lpeversion="1"
       weight="33.333333"
       steps="2"
       helper_size="0"
       apply_no_weight="true"
       apply_with_weight="true"
       only_selected="false" /><inkscape:path-effect
       effect="bspline"
       id="path-effect1808-89-0"
       is_visible="true"
       lpeversion="1"
       weight="33.333333"
       steps="2"
       helper_size="0"
       apply_no_weight="true"
       apply_with_weight="true"
       only_selected="false" /></defs><g
     inkscape:label="Vrstva 1"
     inkscape:groupmode="layer"
     id="layer1"><g
       id="g344"><g
         id="g26620"
         transform="translate(-2.1166667,-2.1166667)"><path
           style="fill:#e0eff8;fill-opacity:1;stroke:#c72682;stroke-width:0.264054;stroke-opacity:0"
           d="m 40.055584,50.388375 c 0.738047,1.118254 2.214077,3.354664 3.921268,6.82871 1.70719,3.474045 3.645374,8.185324 4.72633,11.376085 1.080955,3.190761 1.304598,4.860611 1.401356,5.69544 0.09676,0.83483 0.06696,0.83483 0.388711,1.580807 0.321751,0.745977 0.994755,2.23771 1.30489,3.336912 0.310135,1.099201 0.257428,1.80552 0.08073,2.351124 -0.176698,0.545604 -0.477156,0.930396 -0.935738,1.022474 -0.458583,0.09208 -1.075302,-0.108224 -1.536452,-0.482428 -0.461149,-0.374204 -0.766877,-0.922405 -0.911878,-1.562794 -0.145001,-0.640389 -0.129195,-1.373368 -0.113395,-2.106085 -0.142327,0.411167 -0.284764,0.822654 -0.435023,1.186379 -0.150259,0.363725 -0.308393,0.679993 -0.503332,0.640339 -0.194939,-0.03965 -0.426871,-0.434992 -0.51389,-0.935678 -0.08702,-0.500685 -0.02904,-1.106867 0.09217,-1.684077 0.121205,-0.57721 0.305702,-1.125421 -0.235292,-2.750026 -0.540994,-1.624606 -1.80757,-4.325248 -2.851318,-6.449651 -1.043749,-2.124402 -1.864568,-3.672343 -3.055161,-5.85908 -1.190592,-2.186737 -2.750884,-5.012132 -3.072948,-7.336264 -0.322063,-2.324131 0.594302,-4.147109 1.052574,-5.058775 0.458272,-0.911667 0.458352,-0.911667 1.196399,0.206588 z"
           id="path1806-1"
           inkscape:path-effect="#path-effect1808-89"
           inkscape:original-d="m 39.317537,49.27012 c 1.47579,2.23671 2.95182,4.47312 4.42816,6.70934 1.93803,4.7118 3.87621,9.42308 5.81476,14.13434 0.22339,1.67017 0.44703,3.34002 0.67094,5.00964 -0.0301,2.6e-4 -0.0599,2.6e-4 -0.0895,0 0.67278,1.4921 1.34579,2.98383 2.01911,4.47542 -0.053,0.70665 -0.10569,1.41297 -0.15813,2.11909 -0.30074,0.38508 -0.6012,0.76987 -0.90141,1.15442 -0.61702,-0.20005 -1.23374,-0.40035 -1.85024,-0.60093 -0.30601,-0.54797 -0.61174,-1.09617 -0.91722,-1.64467 0.0155,-0.73246 0.0474,-2.19815 0.0474,-2.19815 0,0 -0.28492,0.8226 -0.42698,1.2335 -0.15841,0.31655 -0.31654,0.63282 -0.47442,0.94884 -0.23221,-0.39509 -0.46414,-0.79043 -0.69582,-1.18606 0.0577,-0.60595 0.1157,-1.21213 0.17395,-1.81861 0.18424,-0.54797 0.36874,-1.09618 0.5535,-1.64466 -1.26691,-2.70053 -2.53349,-5.40117 -3.79987,-8.10223 -0.82111,-1.54773 -1.64193,-3.09567 -2.4625,-4.6439 -1.56061,-2.82524 -3.12091,-5.65063 -4.68096,-8.47634 0.91614,-1.82278 1.8325,-3.64576 2.74915,-5.46904 z"
           sodipodi:nodetypes="sccccccccccccccccccss" /><path
           id="path1806-8-6"
           style="fill:#195fa7;fill-opacity:1;stroke:#c72682;stroke-width:0.264054;stroke-opacity:0"
           d="m 39.117047,49.15942 c 0.15489,-0.006 0.33862,0.27254 0.73071,0.86661 0.73804,1.11826 2.21402,3.35449 3.92121,6.82852 0.331,0.67357 0.67087,1.39447 1.0113,2.14096 l -4.74958,2.03192 c -1.0513,-1.96399 -2.16534,-4.22601 -2.43189,-6.1495 -0.32206,-2.32413 0.59438,-4.14695 1.05265,-5.05861 0.21481,-0.42734 0.32894,-0.65447 0.4656,-0.6599 z" /><path
           style="fill:#165fa9;fill-opacity:1;stroke:#c72682;stroke-width:0.264054;stroke-opacity:0"
           d="m 49.67337,75.160053 c -0.526568,0.121302 -1.57908,0.363764 -2.631903,0.606297 0.01103,0.09922 0.02209,0.198677 0.04691,0.341975 0.02482,0.143298 0.0634,0.330712 0.06611,0.520929 0.0027,0.190217 -0.03035,0.383143 -0.06894,0.592613 -0.03859,0.20947 -0.08268,0.435471 -0.121252,0.691773 -0.03857,0.256303 -0.07164,0.542937 -0.07712,0.815768 -0.0055,0.27283 0.01654,0.531888 0.07167,0.752307 0.05513,0.220418 0.143327,0.402329 0.23288,0.553867 0.08955,0.151537 0.180255,0.272473 0.260372,0.284881 0.08012,0.01241 0.148872,-0.08396 0.218143,-0.180589 0.06927,-0.09663 0.138514,-0.192765 0.215513,-0.36178 0.077,-0.169014 0.162086,-0.411982 0.245886,-0.639354 0.0838,-0.227372 0.166484,-0.439598 0.209402,-0.533321 0.04292,-0.09372 0.04591,-0.06894 0.04319,0.01244 -0.0027,0.08138 -0.01112,0.219116 -0.01352,0.447994 -0.0024,0.228879 0.0012,0.548913 0.03328,0.874279 0.03212,0.325366 0.09275,0.65608 0.190193,0.948005 0.09744,0.291926 0.231685,0.545155 0.39524,0.7668 0.163555,0.221644 0.356465,0.411794 0.549349,0.546829 0.192884,0.135035 0.385786,0.214951 0.600729,0.285236 0.214944,0.07028 0.451953,0.130918 0.693063,0.1007 0.241109,-0.03022 0.486376,-0.151475 0.662853,-0.325033 0.176478,-0.173559 0.283961,-0.399547 0.372641,-0.655662 0.08868,-0.256115 0.158483,-0.542354 0.161285,-0.91447 0.0028,-0.372115 -0.0615,-0.83002 -0.181142,-1.301552 -0.119645,-0.471533 -0.294649,-0.956581 -0.460015,-1.383793 -0.165367,-0.427211 -0.32108,-0.796519 -0.463945,-1.13325 -0.142864,-0.336732 -0.272874,-0.640872 -0.373705,-0.881129 -0.100831,-0.240257 -0.172488,-0.416646 -0.222106,-0.565447 -0.04962,-0.148801 -0.07723,-0.270261 -0.104795,-0.391528 -0.0078,0.001 -0.0158,0.002 -0.01955,0.0025 -0.0038,4.83e-4 -0.0041,3.93e-4 -0.530709,0.121696 z"
           id="path1977-5"
           inkscape:path-effect="#path-effect1979-8"
           inkscape:original-d="m 50.199937,75.03875 c -1.05309,0.2428 -3.15847,0.7276 -3.15847,0.7276 0,0 0.0218,0.19871 0.0331,0.29766 0.0383,0.18768 0.0769,0.37509 0.11575,0.56224 -0.0333,0.19319 -0.0664,0.38611 -0.0992,0.57878 -0.0444,0.22626 -0.0885,0.45226 -0.13229,0.67799 -0.0333,0.2869 -0.0664,0.57353 -0.0992,0.8599 0.0218,0.25934 0.0438,0.5184 0.0661,0.77721 0.0879,0.18217 0.17612,0.36407 0.26458,0.5457 0.0907,0.12149 0.18137,0.24245 0.27286,0.36381 0.069,-0.0968 0.13775,-0.19317 0.20721,-0.29042 0.0691,-0.096 0.13832,-0.19215 0.2077,-0.28836 0.0845,-0.24184 0.16961,-0.4848 0.25481,-0.72761 0.0824,-0.21194 0.1651,-0.42416 0.24804,-0.63665 0.003,0.0251 0.005,0.05 0.009,0.0746 -0.009,0.13801 -0.0171,0.27576 -0.0252,0.41324 0.003,0.3203 0.007,0.64033 0.0107,0.96011 0.0604,0.331 0.121,0.66172 0.1819,0.99219 0.13398,0.25349 0.26822,0.50672 0.40272,0.75968 0.19266,0.19043 0.38557,0.38058 0.57878,0.5705 0.19269,0.0802 0.38559,0.16012 0.57878,0.23978 0.23675,0.0609 0.47376,0.12153 0.71106,0.18191 0.24505,-0.12102 0.49032,-0.24227 0.73588,-0.36381 0.10723,-0.22574 0.21471,-0.45173 0.32246,-0.67799 0.0695,-0.28597 0.13934,-0.5722 0.2094,-0.85869 -0.0646,-0.45765 -0.12886,-0.91556 -0.1929,-1.37374 -0.17528,-0.48481 -0.35028,-0.96986 -0.52503,-1.4552 -0.15599,-0.36906 -0.3117,-0.73837 -0.46715,-1.10795 -0.13028,-0.30388 -0.26029,-0.60802 -0.39003,-0.91242 -0.0719,-0.17613 -0.14358,-0.35251 -0.21497,-0.52917 -0.0278,-0.12101 -0.0827,-0.3638 -0.0827,-0.3638 0,0 -0.0158,0.002 -0.0233,0.003 z"
           sodipodi:nodetypes="cccccccccccccccccccccccccccccccc" /><g
           id="rect23447-7"
           transform="matrix(-0.91062738,0.41322848,0.41322848,0.91062738,205.70878,-65.074663)"><path
             style="color:#000000;fill:#195fa7;fill-opacity:1;stroke-width:0.264054;-inkscape-stroke:none"
             d="m 198.08542,55.456694 4.38346,-0.09305 -0.0422,2.025941 -4.19568,-0.230749 c 0,0 -0.0472,-0.577575 -0.0719,-0.866264 -0.0239,-0.278692 -0.0739,-0.835881 -0.0739,-0.835881 z"
             id="path23463-6"
             sodipodi:nodetypes="ccccacc" /><path
             style="color:#000000;fill:#c72682;fill-opacity:0;-inkscape-stroke:none"
             d="m 197.24414,55.226562 v 0.132813 2.142578 h 5.31641 v -2.275391 z m 0.26367,0.263672 h 4.78711 v 1.748047 h -4.78711 z"
             id="path23460-6" /></g><path
           style="fill:#0e3b6a;fill-opacity:1;stroke:#c72682;stroke-width:0.271377;stroke-opacity:0"
           d="m 23.040493,100.21363 c 0.0079,0.33115 0.02365,0.99321 0.04734,1.40605 0.02368,0.41284 0.05521,0.57629 0.08678,0.73994 -0.18938,-0.2306 -0.378742,-0.46118 -0.588006,-0.5765 -0.209264,-0.11531 -0.438094,-0.11531 -0.643248,-0.0185 -0.205155,0.0968 -0.386376,0.28998 -0.567866,0.48339 -0.06313,-0.0818 -0.126235,-0.16363 -0.268311,-0.28641 -0.142075,-0.12278 -0.363015,-0.28643 -0.560385,-0.37942 -0.19737,-0.093 -0.370956,-0.11532 -0.560383,-0.10039 -0.189427,0.0149 -0.394587,0.067 -0.576006,0.21961 -0.18142,0.15261 -0.339035,0.40522 -0.496845,0.65814 -0.0868,-0.2306 -0.173546,-0.46106 -0.359119,-0.60249 -0.185574,-0.14143 -0.469648,-0.1935 -0.702473,-0.19716 -0.232825,-0.004 -0.414308,0.041 -0.603625,0.23078 -0.189318,0.18982 -0.386383,0.52424 -0.583643,0.85899 -0.3472,-0.34963 -0.694407,-0.69926 -0.986537,-0.848 -0.292129,-0.14874 -0.528837,-0.0967 -0.74582,0.0187 -0.216983,0.1154 -0.413963,0.29367 -0.611233,0.47221 -0.158377,-0.61955 -0.316618,-1.23857 -0.431073,-1.67762 -0.114455,-0.43905 -0.184918,-0.697301 0.430673,-0.960402 0.61559,-0.263101 1.917549,-0.530897 2.974962,-0.679711 1.057412,-0.148814 1.87013,-0.178579 2.513244,-0.204628 0.643114,-0.02605 1.116512,-0.04838 1.637909,0.02908 0.521398,0.07746 1.090368,0.25472 1.362709,0.452062 0.272341,0.197342 0.247678,0.414273 0.235327,0.522601 -0.01235,0.108327 -0.01233,0.108327 -0.01235,0.108327 0,0 10e-5,1.2e-4 0.008,0.33128 z"
           id="path1818-3"
           inkscape:path-effect="#path-effect1820-1"
           inkscape:original-d="m 23.032607,99.88247 c 0.0155,0.66232 0.0313,1.32438 0.0473,1.9862 0.0313,0.16391 0.0947,0.49095 0.0947,0.49095 0,0 -0.37904,-0.46094 -0.56814,-0.69181 -0.22913,2.6e-4 -0.45796,2.6e-4 -0.68651,0 -0.18178,0.19368 -0.54447,0.58024 -0.54447,0.58024 0,0 -0.12654,-0.1634 -0.18939,-0.2455 -0.22122,-0.16339 -0.44216,-0.32704 -0.66282,-0.49095 -0.17389,-0.0221 -0.34748,-0.0444 -0.5208,-0.067 -0.20546,0.0523 -0.41061,0.10441 -0.61549,0.15622 -0.15809,0.25318 -0.47343,0.75876 -0.47343,0.75876 0,0 -0.17387,-0.46094 -0.2604,-0.69181 -0.28435,-0.0518 -0.56842,-0.10389 -0.85221,-0.15621 -0.18176,0.0449 -0.36325,0.0895 -0.54447,0.13389 -0.19754,0.33503 -0.59178,1.00425 -0.59178,1.00425 0,0 -0.69468,-0.69899 -1.0416,-1.04888 -0.23701,0.0524 -0.47373,0.10441 -0.71018,0.15621 -0.19755,0.17881 -0.59181,0.53561 -0.59181,0.53561 0,0 -0.31643,-1.23862 -0.47513,-1.85865 -0.0702,-0.25807 -0.14068,-0.51632 -0.21138,-0.77473 1.30174,-0.26755 2.6037,-0.53534 3.90598,-0.80341 0.81251,-0.0296 1.62523,-0.0593 2.43828,-0.0893 0.47318,-0.0221 0.94658,-0.0444 1.42036,-0.067 0.5689,0.1776 1.13787,0.35486 1.70736,0.53192 -0.025,0.21726 -0.0495,0.43421 -0.074,0.65088 -3.1e-4,2.6e-4 -7e-5,0 -7e-5,0 z"
           sodipodi:nodetypes="ccccccccccccccccccccccccccc" /><path
           style="fill:#0e3b6a;fill-opacity:1;stroke:#c72682;stroke-width:0.264054;stroke-opacity:0"
           d="m 37.249411,102.11952 c -0.01494,0.0821 -0.04473,0.2459 -0.07456,0.4099 0.178917,-0.2311 0.357806,-0.46216 0.555508,-0.57772 0.197702,-0.11557 0.413892,-0.11557 0.607707,-0.0185 0.193816,0.0971 0.365025,0.2906 0.536485,0.48442 0.05964,-0.082 0.119247,-0.16396 0.253468,-0.287 0.134222,-0.12304 0.342957,-0.28705 0.529424,-0.38023 0.186467,-0.0932 0.350472,-0.11555 0.529428,-0.10059 0.178956,0.015 0.372788,0.0671 0.544179,0.22009 0.171392,0.15294 0.320294,0.40609 0.469381,0.65955 0.082,-0.2311 0.163953,-0.46204 0.33927,-0.60378 0.175317,-0.14173 0.443692,-0.19392 0.663661,-0.19758 0.219969,-0.004 0.391423,0.041 0.570273,0.23128 0.17885,0.19022 0.365026,0.52535 0.551386,0.86082 0.328013,-0.35038 0.656018,-0.70074 0.932012,-0.84981 0.275994,-0.14906 0.499623,-0.0969 0.704614,0.0188 0.204991,0.11564 0.391084,0.29429 0.577454,0.47321 0.126733,-0.49947 0.253419,-0.99876 0.397864,-1.45839 0.144445,-0.45962 0.306663,-0.8795 0.468826,-1.29923 -1.30275,-0.228837 -2.605193,-0.457619 -3.640522,-0.586977 -1.035329,-0.129357 -1.803138,-0.159189 -2.410712,-0.185287 -0.607573,-0.0261 -1.054815,-0.04846 -1.547403,0.02917 -0.492588,0.07764 -1.030118,0.255275 -1.290048,0.471478 -0.259929,0.216202 -0.241918,0.470205 -0.223885,0.724525 -0.0096,0.6266 -0.01927,1.25343 -0.02408,1.56661 -0.0048,0.31318 -0.0048,0.31318 -0.01972,0.39529 z"
           id="path1818"
           inkscape:path-effect="#path-effect1820"
           inkscape:original-d="m 37.264347,102.03741 c -0.0296,0.16427 -0.0895,0.49201 -0.0895,0.49201 0,0 0.3581,-0.46193 0.53675,-0.69329 0.21646,2.6e-4 0.43265,2.6e-4 0.64857,0 0.17173,0.19409 0.51438,0.58147 0.51438,0.58147 0,0 0.11955,-0.16374 0.17892,-0.24601 0.209,-0.16374 0.41773,-0.32775 0.6262,-0.49201 0.16428,-0.0221 0.32828,-0.0445 0.49202,-0.0671 0.1941,0.0524 0.38792,0.10463 0.58148,0.15655 0.14935,0.25373 0.44726,0.76039 0.44726,0.76039 0,0 0.16427,-0.46193 0.24601,-0.69329 0.26864,-0.0519 0.53701,-0.10411 0.80512,-0.15655 0.17172,0.045 0.34318,0.0897 0.51438,0.13418 0.18663,0.33575 0.55908,1.0064 0.55908,1.0064 0,0 0.65629,-0.70049 0.98404,-1.05113 0.22391,0.0525 0.44755,0.10463 0.67093,0.15655 0.18664,0.17919 0.55911,0.53675 0.55911,0.53675 0,0 0.25373,-0.99868 0.3802,-1.49842 0.16243,-0.41947 0.48649,-1.2592 0.48649,-1.2592 0,0 -2.60523,-0.45741 -3.90825,-0.68651 -0.76761,-0.0296 -1.53542,-0.0594 -2.30354,-0.0895 -0.44703,-0.0221 -0.89427,-0.0445 -1.34187,-0.0671 -0.53746,0.17797 -1.07499,0.35561 -1.61301,0.53306 0.0183,0.25462 0.0541,0.76296 0.0541,0.76296 0,0 -0.019,1.25343 -0.0289,1.87979 z"
           sodipodi:nodetypes="cccccccccccccccccccccccccc" /><path
           style="fill:#e0eff8;fill-opacity:1;stroke:#c72682;stroke-width:0.264054;stroke-opacity:0"
           d="m 17.15581,50.441685 c -0.738047,1.118254 -2.214077,3.354664 -3.921268,6.82871 -1.70719,3.474045 -3.6453741,8.185324 -4.7263295,11.376085 -1.0809554,3.190761 -1.304598,4.860611 -1.4013566,5.69544 -0.096758,0.83483 -0.066959,0.83483 -0.3887101,1.580807 -0.3217516,0.745977 -0.994755,2.23771 -1.3048903,3.336912 -0.3101352,1.099201 -0.2574285,1.80552 -0.080731,2.351124 0.1766977,0.545604 0.4771558,0.930396 0.9357381,1.022474 0.4585822,0.09208 1.0753018,-0.108224 1.5364514,-0.482428 0.4611496,-0.374204 0.7668773,-0.922405 0.9118781,-1.562794 0.1450009,-0.640389 0.1291952,-1.373368 0.1133952,-2.106085 0.1423267,0.411167 0.2847643,0.822654 0.4350231,1.186379 0.1502589,0.363725 0.3083929,0.679993 0.503332,0.640339 0.194939,-0.03965 0.4268705,-0.434992 0.5138895,-0.935678 0.08702,-0.500685 0.02904,-1.106867 -0.09217,-1.684077 -0.121205,-0.57721 -0.3057017,-1.125421 0.235292,-2.750026 0.540994,-1.624606 1.80757,-4.325248 2.851319,-6.449651 1.043748,-2.124402 1.864567,-3.672343 3.05516,-5.85908 1.190592,-2.186737 2.750884,-5.012132 3.072948,-7.336264 0.322063,-2.324131 -0.594302,-4.147109 -1.052574,-5.058775 -0.458272,-0.911667 -0.458352,-0.911667 -1.196399,0.206588 z"
           id="path1806"
           inkscape:path-effect="#path-effect1808"
           inkscape:original-d="m 17.893857,49.32343 c -1.47579,2.23671 -2.95182,4.47312 -4.42816,6.70934 -1.93803,4.7118 -3.8762096,9.42308 -5.8147596,14.13434 -0.22339,1.67017 -0.44703,3.34002 -0.67094,5.00964 0.0301,2.6e-4 0.0599,2.6e-4 0.0895,0 -0.67278,1.4921 -1.34579,2.98383 -2.01911,4.47542 0.053,0.70665 0.10569,1.41297 0.15813,2.11909 0.30074,0.38508 0.6012,0.76987 0.90141,1.15442 0.61702,-0.20005 1.23374,-0.40035 1.85024,-0.60093 0.30601,-0.54797 0.61174,-1.09617 0.91722,-1.64467 -0.0155,-0.73246 -0.0474,-2.19815 -0.0474,-2.19815 0,0 0.28492,0.8226 0.42698,1.2335 0.15841,0.31655 0.31654,0.63282 0.47442,0.94884 0.23221,-0.39509 0.4641396,-0.79043 0.6958196,-1.18606 -0.0577,-0.60595 -0.1157,-1.21213 -0.17395,-1.81861 -0.18424,-0.54797 -0.3687396,-1.09618 -0.5534996,-1.64466 1.2669096,-2.70053 2.5334896,-5.40117 3.7998696,-8.10223 0.82111,-1.54773 1.64193,-3.09567 2.4625,-4.6439 1.56061,-2.82524 3.12091,-5.65063 4.68096,-8.47634 -0.91614,-1.82278 -1.8325,-3.64576 -2.74915,-5.46904 z"
           sodipodi:nodetypes="sccccccccccccccccccss" /><path
           id="path1806-8"
           style="fill:#195fa7;fill-opacity:1;stroke:#c72682;stroke-width:0.264054;stroke-opacity:0"
           d="m 18.094347,49.21273 c -0.15489,-0.006 -0.33862,0.27254 -0.73071,0.86661 -0.73804,1.11826 -2.21402,3.35449 -3.92121,6.82852 -0.331,0.67357 -0.67087,1.39447 -1.0113,2.14096 l 4.74958,2.03192 c 1.0513,-1.96399 2.16534,-4.22601 2.43189,-6.1495 0.32206,-2.32413 -0.59438,-4.14695 -1.05265,-5.05861 -0.21481,-0.42734 -0.32894,-0.65447 -0.4656,-0.6599 z" /><path
           style="fill:#e0eff8;fill-opacity:1;stroke:#c72682;stroke-width:0.264054;stroke-opacity:0"
           d="m 17.627658,50.000166 c 3e-4,1.802237 -0.726385,4.734296 -1.529569,8.138616 -0.803184,3.404319 -1.682819,7.280668 -2.100273,10.732355 -0.417454,3.451687 -0.372726,6.478227 -0.141599,9.206758 0.231126,2.728532 0.648586,5.158762 1.036267,6.910661 0.38768,1.751898 0.745505,2.825367 1.043689,3.824324 0.298184,0.998956 0.536732,1.923337 0.700714,2.77318 0.163982,0.849844 0.253438,1.625137 0.298149,2.340788 0.04471,0.715652 0.04471,1.371399 0.04471,2.027422 -1.080727,0.162947 -2.161214,0.325857 -2.772649,0.803096 -0.611435,0.47724 -0.753295,1.26849 -0.734698,1.947469 0.0186,0.678979 0.197511,1.245537 0.301914,1.558635 0.104404,0.3131 0.13423,0.37273 0.909595,0.31293 0.775364,-0.0598 2.296114,-0.23872 3.548528,-0.40273 1.252414,-0.16401 2.236435,-0.313107 2.996853,-0.387638 0.760417,-0.07453 1.29689,-0.07453 1.833637,-0.07453 -0.08946,-1.490963 -0.178903,-2.981645 -0.387633,-5.173384 -0.20873,-2.19174 -0.536733,-5.08415 -0.611312,-7.12682 -0.07458,-2.04267 0.104336,-3.235421 0.506895,-4.338814 0.402559,-1.103394 1.028752,-2.117232 1.968172,-2.832963 0.939421,-0.71573 2.19181,-1.133193 3.533751,-1.297161 1.341941,-0.163969 2.773242,-0.07451 4.11512,0.522 1.341878,0.59651 2.594264,1.699803 3.369453,3.205719 0.775189,1.505917 1.073377,3.414317 1.282101,6.381324 0.208725,2.967007 0.32801,6.992329 0.447303,11.017929 1.401507,-0.0596 2.803258,-0.119284 4.115338,-0.07453 1.31208,0.04475 2.53465,0.19385 3.384505,0.29822 0.849855,0.10436 1.326956,0.164 1.550448,-0.372642 0.223492,-0.536642 0.19366,-1.669751 -0.134215,-2.445091 -0.327874,-0.77534 -0.954063,-1.192801 -1.625021,-1.416533 -0.670957,-0.223733 -1.386882,-0.253544 -2.102545,-0.283344 0.05964,-3.637953 0.119276,-7.275644 0.253456,-10.347064 0.134181,-3.07142 0.34291,-5.57619 0.283289,-8.856328 -0.05962,-3.280138 -0.387628,-7.335478 -0.939265,-10.8989 -0.551636,-3.563421 -1.326921,-6.63475 -1.813449,-9.828256 -0.486528,-3.193507 -0.684211,-6.508927 -1.445091,-8.221044 -0.76088,-1.712117 -2.08513,-1.820492 -3.917774,-1.881511 -1.832645,-0.06102 -4.173434,-0.07465 -6.59064,-0.125457 -2.417206,-0.0508 -4.910567,-0.138786 -6.648401,-0.101227 -1.737834,0.03756 -2.719936,0.200702 -3.50828,0.444468 -0.788345,0.243767 -1.382747,0.568154 -1.316061,1.066751 0.06669,0.498597 0.794286,1.171087 0.794587,2.973324 z"
           id="path1706"
           inkscape:path-effect="#path-effect1708"
           inkscape:original-d="m 18.354687,48.87017 c -0.72642,2.93231 -1.4531,5.86437 -2.18005,8.79615 -0.87943,3.87685 -1.75906,7.7532 -2.63901,11.62952 0.045,3.02698 0.0897,6.05352 0.13419,9.07997 0.41774,2.43058 0.8352,4.86081 1.2524,7.29081 0.35811,1.07378 0.71593,2.14725 1.0735,3.22048 0.23882,0.92469 0.47737,1.84907 0.71566,2.7732 0.0897,0.77558 0.17918,1.55087 0.26837,2.3259 2.7e-4,0.6563 0,1.96807 0,1.96807 0,0 -2.16117,0.32615 -3.24218,0.48884 -0.1416,0.79155 -0.28346,1.5828 -0.42559,2.37381 0.17919,0.56684 0.3581,1.1334 0.53675,1.6997 0.0301,0.0599 0.0599,0.11954 0.0895,0.17892 1.52108,-0.17866 3.04183,-0.35757 4.56235,-0.53675 0.98432,-0.14883 1.96834,-0.29793 2.95211,-0.44729 0.53702,2.7e-4 1.61024,0 1.61024,0 0,0 -0.17865,-2.98166 -0.26838,-4.47289 -0.32775,-2.89226 -0.65576,-5.78467 -0.98403,-8.67741 0.17918,-1.19253 0.3581,-2.38528 0.53675,-3.57831 0.62648,-1.01361 1.25267,-2.02745 1.87861,-3.04157 1.2527,-0.41721 2.50509,-0.83467 3.75723,-1.25241 1.43162,0.0897 2.86292,0.17918 4.29398,0.26838 1.2527,1.10359 2.50508,2.20689 3.75723,3.30994 0.29846,1.90873 0.59665,3.81713 0.89458,5.7253 0.11956,4.02587 0.35788,12.0768 0.35788,12.0768 0,0 2.80327,-0.11901 4.20452,-0.17891 1.22287,0.14936 2.44544,0.29846 3.66777,0.44729 0.47738,0.0599 0.95448,0.11954 1.43132,0.17891 -0.0296,-1.13289 -0.0594,-2.266 -0.0895,-3.3994 -0.62595,-0.41721 -1.25214,-0.83467 -1.87861,-1.25241 -0.71541,-0.0296 -2.14699,-0.0894 -2.14699,-0.0894 0,0 0.11954,-7.27564 0.17892,-10.91386 0.209,-2.5046 0.41773,-5.00937 0.6262,-7.51446 -0.32775,-4.05523 -0.65576,-8.11057 -0.98404,-12.16626 -0.77505,-3.07118 -1.55033,-6.14251 -2.3259,-9.21416 -0.19743,-3.31533 -0.39511,-6.63075 -0.59307,-9.94661 -1.32407,-0.10812 -2.64832,-0.21649 -3.97292,-0.32514 -2.34067,-0.0134 -4.68146,-0.027 -7.02266,-0.0409 -2.49322,-0.0877 -4.98658,-0.1757 -7.48032,-0.26395 -0.98187,0.16341 -1.96397,0.32656 -2.94638,0.48944 -0.59416,0.32466 -1.18856,0.64905 -1.78324,0.97318 0.72787,0.67276 1.45547,1.34525 2.18281,2.01748 z"
           sodipodi:nodetypes="ccccccccccccccccccccccccccccccccccccccccsc" /><path
           id="path1706-6"
           style="fill:#c7e1f2;fill-opacity:1;stroke:#c72682;stroke-width:0.264054;stroke-opacity:0"
           d="m 35.756477,45.69398 c 0.36853,1.93253 1.49579,4.49067 1.84588,6.98407 0.48637,3.464 1.12957,6.46488 1.68103,10.33012 0.55145,3.86523 1.54082,8.99166 1.60042,12.54962 0.0596,3.55796 -0.14904,5.67977 -0.28318,9.01134 -0.13413,3.33156 -0.59101,8.1369 -0.65061,12.08298 0.71542,0.0323 2.68823,0.13094 3.35897,0.37362 0.67073,0.24268 0.91609,0.41421 1.24385,1.25522 0.25306,0.64931 -0.47351,1.29105 -0.55541,1.92666 0.73715,0.0633 0.68341,0.0719 1.20514,0.13603 0.84986,0.10436 0.93508,0.053 1.15857,-0.48368 0.22349,-0.53664 0.17649,-1.6987 -0.15138,-2.47404 -0.32788,-0.77534 -0.95427,-1.19323 -1.62522,-1.41697 -0.67096,-0.22373 -1.38706,-0.25339 -2.10272,-0.28319 0.0596,-3.63794 0.11956,-7.27575 0.25374,-10.34717 0.13418,-3.07142 0.34281,-5.57617 0.28318,-8.85631 -0.0596,-3.28013 -0.38784,-7.33514 -0.93947,-10.89856 -0.55164,-3.56341 -1.3268,-6.63483 -1.81333,-9.82834 -0.48653,-3.1935 -0.68399,-6.50909 -1.44487,-8.2212 -0.63702,-1.4334 -1.67043,-1.74167 -3.06493,-1.8402 z"
           sodipodi:nodetypes="csssscsscsssscssssscc" /><path
           style="fill:#165fa9;fill-opacity:1;stroke:#c72682;stroke-width:0.264054;stroke-opacity:0"
           d="m 16.510079,88.858542 c -0.246028,0.105621 -0.738181,0.316905 -0.969341,0.607815 -0.231161,0.29091 -0.201194,0.661093 -0.185889,1.181233 0.0153,0.52014 0.01597,1.190231 0.09006,1.702087 0.07408,0.511857 0.221446,0.865386 0.77279,0.992366 0.551344,0.12698 1.506521,0.02774 2.468701,-0.04424 0.96218,-0.07198 1.931288,-0.116708 2.678585,-0.148638 0.747297,-0.03193 1.272736,-0.05106 1.631778,-0.397821 0.359042,-0.346757 0.551954,-1.021277 0.629248,-1.814781 0.07729,-0.793504 0.0389,-1.705974 -0.393706,-2.148484 -0.432604,-0.44251 -1.259594,-0.414711 -1.882908,-0.364571 -0.623313,0.05014 -1.042808,0.122639 -1.774338,0.181272 -0.73153,0.05863 -1.775088,0.103368 -2.297018,0.125743 -0.52193,0.02237 -0.52193,0.02239 -0.767958,0.128016 z"
           id="path1810"
           inkscape:path-effect="#path-effect1812"
           inkscape:original-d="m 16.756107,88.75292 c -0.49192,0.21156 -0.98407,0.42285 -1.47652,0.63388 0.0302,0.37045 0.0602,0.74063 0.0899,1.11054 0.001,0.67039 0.002,1.34048 0.002,2.01033 0.14763,0.35381 0.29499,0.70734 0.4421,1.06062 0.95548,-0.099 1.91066,-0.19821 2.86559,-0.29772 0.96941,-0.0445 1.93852,-0.0892 2.90738,-0.13419 0.52573,-0.0189 1.05117,-0.038 1.57637,-0.0574 0.19319,-0.6743 0.3861,-1.34882 0.57876,-2.02365 -0.0381,-0.91228 -0.0765,-1.82475 -0.11519,-2.73755 -0.82679,0.0281 -1.65378,0.0559 -2.48109,0.0834 -0.41927,0.0728 -0.83877,0.14527 -1.25855,0.21751 -1.04332,0.045 -2.08688,0.0897 -3.13075,0.13421 z"
           sodipodi:nodetypes="ccccccccccccc" /><path
           style="fill:#165fa9;fill-opacity:1;stroke:#c72682;stroke-width:0.264054;stroke-opacity:0"
           d="m 37.210387,88.577712 c -0.389399,0.04844 -1.168417,0.145354 -1.533817,0.667357 -0.365401,0.522003 -0.316946,1.468725 -0.216267,2.221697 0.10068,0.752972 0.253501,1.312061 0.782881,1.5579 0.529379,0.245838 1.435122,0.178733 2.499316,0.137737 1.064193,-0.041 2.286765,-0.0559 3.080729,-0.02603 0.793965,0.02986 1.15923,0.104415 1.477766,-0.02979 0.318535,-0.1342 0.590619,-0.477096 0.698738,-1.149782 0.108119,-0.672686 0.05221,-1.675328 -0.13217,-2.325783 -0.18438,-0.650456 -0.497469,-0.948636 -1.078958,-1.110914 -0.581489,-0.162277 -1.431309,-0.188376 -2.340824,-0.164166 -0.909515,0.02421 -1.878626,0.09876 -2.36331,0.136038 -0.484684,0.03728 -0.484684,0.03729 -0.874084,0.08573 z"
           id="path1814"
           inkscape:path-effect="#path-effect1816"
           inkscape:original-d="m 37.599787,88.52927 c -0.77876,0.0972 -1.55778,0.19409 -2.33709,0.29074 0.0487,0.94705 0.0972,1.89377 0.14537,2.84029 0.15309,0.55939 0.30591,1.11848 0.45848,1.67733 0.90604,-0.0668 1.81178,-0.13395 2.71728,-0.20132 1.22287,-0.0146 2.44544,-0.0296 3.66777,-0.0447 0.36556,0.0748 0.73082,0.14938 1.09585,0.22367 0.27238,-0.34266 0.54446,-0.68556 0.8163,-1.02875 -0.0556,-1.00243 -0.11155,-2.00507 -0.16773,-3.00803 -0.31284,-0.29793 -0.62593,-0.59611 -0.93931,-0.89458 -0.8496,-0.0258 -1.69942,-0.0519 -2.54954,-0.0783 -0.96888,0.0748 -1.93799,0.14936 -2.90738,0.22364 z"
           sodipodi:nodetypes="sccccccccccss" /><path
           id="path1814-1"
           style="fill:#135292;fill-opacity:1;stroke:#c72682;stroke-width:0.264054;stroke-opacity:0"
           d="m 41.185087,88.34959 c 0.003,7.5e-4 0.9044,0.4846 1.08856,1.18694 0.1842,0.70234 0.23977,1.78512 0.13177,2.51148 -0.0798,0.53689 -0.278,0.89548 -0.48937,1.09606 0.70829,0.0321 1.05884,0.10984 1.36017,-0.0172 0.31852,-0.1342 0.61685,-0.51219 0.72497,-1.18488 0.10811,-0.67268 0.0521,-1.67499 -0.13229,-2.32544 -0.18438,-0.65046 -0.49752,-0.94877 -1.079,-1.11104 -0.41993,-0.1172 -0.83967,-0.14547 -1.4609,-0.15297 z"
           sodipodi:nodetypes="csscsssscc" /><path
           style="fill:#165fa9;fill-opacity:1;stroke:#c72682;stroke-width:0.264054;stroke-opacity:0"
           d="m 7.5380248,75.213363 c 0.5265675,0.121302 1.579079,0.363764 2.6319022,0.606297 -0.01103,0.09922 -0.02209,0.198677 -0.04691,0.341975 -0.02482,0.143298 -0.0634,0.330712 -0.06611,0.520929 -0.0027,0.190217 0.03035,0.383143 0.06894,0.592613 0.03859,0.20947 0.08268,0.435471 0.121252,0.691773 0.03857,0.256303 0.07163,0.542937 0.07712,0.815768 0.0055,0.27283 -0.01654,0.531888 -0.07167,0.752307 -0.05513,0.220418 -0.143327,0.402329 -0.23288,0.553867 -0.089553,0.151537 -0.180255,0.272473 -0.2603714,0.284881 -0.080116,0.01241 -0.148872,-0.08396 -0.2181431,-0.180589 -0.069271,-0.09663 -0.138514,-0.192765 -0.2155129,-0.36178 C 9.2486458,79.66239 9.1635581,79.419422 9.079758,79.19205 c -0.0838,-0.227372 -0.1664839,-0.439598 -0.2094011,-0.533321 -0.042917,-0.09372 -0.045907,-0.06894 -0.043189,0.01244 0.00272,0.08138 0.011117,0.219116 0.013523,0.447994 0.00241,0.228879 -0.00116,0.548913 -0.033279,0.874279 -0.032119,0.325366 -0.092749,0.65608 -0.1901931,0.948005 -0.097444,0.291926 -0.2316853,0.545155 -0.3952402,0.7668 -0.1635549,0.221644 -0.3564647,0.411794 -0.5493489,0.546829 -0.1928842,0.135035 -0.3857858,0.214951 -0.6007292,0.285236 -0.2149435,0.07028 -0.4519525,0.130918 -0.6930624,0.1007 C 6.1377289,82.610796 5.8924623,82.489539 5.715985,82.315981 5.5395076,82.142422 5.4320248,81.916434 5.3433444,81.660319 c -0.08868,-0.256115 -0.1584826,-0.542354 -0.161285,-0.91447 -0.0028,-0.372115 0.061496,-0.83002 0.1811417,-1.301552 0.1196455,-0.471533 0.294649,-0.956581 0.4600157,-1.383793 0.1653666,-0.427211 0.3210799,-0.796519 0.4639441,-1.13325 0.1428642,-0.336732 0.2728742,-0.640872 0.3737056,-0.881129 0.1008314,-0.240257 0.1724879,-0.416646 0.2221057,-0.565447 0.049618,-0.148801 0.077228,-0.270261 0.1047952,-0.391528 0.00777,10e-4 0.015796,0.002 0.019548,0.0025 0.00375,4.83e-4 0.00414,3.93e-4 0.5307096,0.121696 z"
           id="path1977"
           inkscape:path-effect="#path-effect1979"
           inkscape:original-d="m 7.0114574,75.09206 c 1.05309,0.2428 3.1584696,0.7276 3.1584696,0.7276 0,0 -0.0218,0.19871 -0.0331,0.29766 -0.0383,0.18768 -0.0769,0.37509 -0.11575,0.56224 0.0333,0.19319 0.0664,0.38611 0.0992,0.57878 0.0444,0.22626 0.0885,0.45226 0.13229,0.67799 0.0333,0.2869 0.0664,0.57353 0.0992,0.8599 -0.0218,0.25934 -0.0438,0.5184 -0.0661,0.77721 -0.0879,0.18217 -0.17612,0.36407 -0.26458,0.5457 -0.0907,0.12149 -0.1813696,0.24245 -0.2728596,0.36381 -0.069,-0.0968 -0.13775,-0.19317 -0.20721,-0.29042 -0.0691,-0.096 -0.13832,-0.19215 -0.2077,-0.28836 -0.0845,-0.24184 -0.16961,-0.4848 -0.25481,-0.72761 -0.0824,-0.21194 -0.1651,-0.42416 -0.24804,-0.63665 -0.003,0.0251 -0.005,0.05 -0.009,0.0746 0.009,0.13801 0.0171,0.27576 0.0252,0.41324 -0.003,0.3203 -0.007,0.64033 -0.0107,0.96011 -0.0604,0.331 -0.121,0.66172 -0.1819,0.99219 -0.13398,0.25349 -0.26822,0.50672 -0.40272,0.75968 -0.19266,0.19043 -0.38557,0.38058 -0.57878,0.5705 -0.19269,0.0802 -0.38559,0.16012 -0.57878,0.23978 -0.23675,0.0609 -0.47376,0.12153 -0.71106,0.18191 -0.24505,-0.12102 -0.49032,-0.24227 -0.73588,-0.36381 -0.10723,-0.22574 -0.21471,-0.45173 -0.32246,-0.67799 -0.0695,-0.28597 -0.13934,-0.5722 -0.2094,-0.85869 0.0646,-0.45765 0.12886,-0.91556 0.1929,-1.37374 0.17528,-0.48481 0.35028,-0.96986 0.52503,-1.4552 0.15599,-0.36906 0.3117,-0.73837 0.46715,-1.10795 0.13028,-0.30388 0.26029,-0.60802 0.39003,-0.91242 0.0719,-0.17613 0.14358,-0.35251 0.21497,-0.52917 0.0278,-0.12101 0.0827,-0.3638 0.0827,-0.3638 0,0 0.0158,0.002 0.0233,0.003 z"
           sodipodi:nodetypes="cccccccccccccccccccccccccccccccc" /><g
           id="rect19173"
           transform="translate(-148.69583,-65.0875)"><path
             style="color:#000000;fill:#195fa7;stroke-width:0.264054;-inkscape-stroke:none"
             d="m 175.39564,115.12968 4.63044,-0.11693 -0.20906,29.16751 c 0,0 -1.54369,-0.2364 -2.31957,-0.20969 -0.73267,0.0252 -2.17157,0.34818 -2.17157,0.34818 z"
             id="path19177"
             sodipodi:nodetypes="cccacc" /><path
             style="color:#000000;fill:#c72682;fill-opacity:0;-inkscape-stroke:none"
             d="m 175.35742,113.99219 v 0.13281 30.43945 h 4.56641 v -30.57226 z m 0.26367,0.26367 h 4.03907 v 30.04492 h -4.03907 z"
             id="path19179" /></g><ellipse
           style="fill:#e0eff8;fill-opacity:1;stroke:#c72682;stroke-width:0.32236;stroke-opacity:0"
           id="path1646"
           cx="28.593916"
           cy="28.582758"
           rx="24.496096"
           ry="23.778572" /><path
           id="path1646-1"
           style="fill:#c1e0f1;fill-opacity:1;stroke:#c72682;stroke-width:0.32236;stroke-opacity:0"
           d="m 29.514407,4.8273713 c 10.23635,3.690287 17.06541,13.1467047 17.06563,23.7463447 -0.006,10.594604 -6.7965,20.068994 -17.0279,23.757734 13.29234,-0.30708 23.90538,-10.85109 23.91327,-23.757734 -3.9e-4,-12.912045 -10.65309,-23.4394077 -23.951,-23.7463447 z"
           sodipodi:nodetypes="ccccc" /><path
           style="fill:#195fa7;fill-opacity:1;stroke:#c72682;stroke-width:0.264054;stroke-opacity:0"
           d="m 19.333327,16.81831 c -1.192738,0.428739 -2.362038,1.005596 -3.757463,1.956658 -1.395425,0.951062 -3.016795,2.27622 -4.084825,3.656115 -1.06803,1.379895 -1.5825118,2.81421 -2.0190491,4.420099 -0.4365373,1.60589 -0.7951167,3.383197 -0.6547184,5.191797 0.1403983,1.8086 0.7796044,3.648267 1.2395405,4.934513 0.459936,1.286245 0.740563,2.018992 1.454034,2.992065 0.713471,0.973073 1.859566,2.186418 3.06735,3.132856 1.207784,0.946439 2.477031,1.625944 4.354409,2.291357 1.877379,0.665413 4.36267,1.316738 7.123909,1.522601 2.76124,0.205862 5.798181,-0.03366 8.338858,-0.502355 2.540677,-0.468693 4.584876,-1.166466 6.425872,-2.353636 1.840996,-1.187171 3.478749,-2.863668 4.745606,-4.762087 1.266857,-1.898418 2.162737,-4.018688 2.534519,-6.143165 0.371782,-2.124477 0.219352,-4.253122 -0.449248,-6.393229 -0.668599,-2.140107 -1.853454,-4.291551 -3.62296,-6.045604 -1.769506,-1.754053 -4.123657,-3.110419 -6.727345,-3.983576 -2.603688,-0.873156 -5.456738,-1.262918 -7.888942,-1.333108 -2.432203,-0.07019 -4.443383,0.179258 -6.057051,0.444292 -1.613667,0.265035 -2.829758,0.545667 -4.022496,0.974407 z"
           id="path2733"
           inkscape:path-effect="#path-effect2735"
           inkscape:original-d="m 19.309777,16.670248 c -1.16903,0.577121 -2.33833,1.153978 -3.5079,1.73057 -1.6212,1.325503 -3.24257,2.650661 -4.86431,3.975635 -0.51424,1.434639 -1.0287196,2.868955 -1.5434796,4.303037 -0.35833,1.777643 -0.71691,3.55495 -1.07576,5.332029 0.6395,1.840005 1.27871,3.679671 1.9176596,5.519121 0.28091,0.73304 0.56153,1.46579 0.8419,2.19829 1.14644,1.21369 2.29253,2.42704 3.43844,3.6402 1.2696,0.67982 2.53885,1.35932 3.80792,2.03861 2.48569,0.65162 4.97098,1.30295 7.45615,1.95405 3.03738,-0.23927 6.07432,-0.4788 9.11118,-0.7186 2.04458,-0.69755 4.08878,-1.39532 6.13283,-2.0934 1.6381,-1.67632 3.27585,-3.35282 4.91343,-5.02967 0.89619,-2.12011 1.79207,-4.24038 2.68773,-6.361021 -0.15217,-2.128466 -0.3046,-4.257111 -0.4573,-6.386063 -1.18465,-2.151296 -2.36951,-4.302738 -3.55469,-6.454559 -2.35397,-1.356152 -4.70812,-2.712519 -7.06259,-4.069179 -2.85289,-0.389512 -5.70594,-0.779272 -8.5593,-1.169305 -2.01098,0.249722 -4.02216,0.499169 -6.03363,0.748356 -1.21583,0.280898 -2.43192,0.561531 -3.64828,0.841899 z"
           sodipodi:nodetypes="scccccccccccccccccss" /><ellipse
           style="fill:#c7e1f2;fill-opacity:1;stroke:#c72682;stroke-width:0.330077;stroke-opacity:0"
           id="path20764-0-4"
           cx="28.934675"
           cy="72.033699"
           rx="1.281696"
           ry="1.2610253" /><ellipse
           style="fill:#c7e1f2;fill-opacity:1;stroke:#c72682;stroke-width:0.330077;stroke-opacity:0"
           id="path20764-0-4-1"
           cx="28.937849"
           cy="64.326775"
           rx="1.281696"
           ry="1.2610253" /><ellipse
           style="fill:#c7e1f2;fill-opacity:1;stroke:#c72682;stroke-width:0.330077;stroke-opacity:0"
           id="path20764-0-4-7"
           cx="28.921476"
           cy="57.151566"
           rx="1.281696"
           ry="1.2610253" /><path
           id="path2733-2"
           style="fill:#144d89;fill-opacity:1;stroke:#c72682;stroke-width:0.266849;stroke-opacity:0"
           d="m 28.399687,15.187074 c -2.0499,0.0044 -3.77746,0.227667 -5.19877,0.462947 -1.62435,0.268895 -2.84849,0.553828 -4.04913,0.988812 -1.20065,0.434981 -2.37763,1.020049 -3.78229,1.98496 -1.40467,0.964911 -3.03699,2.309362 -4.11209,3.709351 -1.0751,1.399988 -1.5929396,2.854977 -2.0323696,4.484249 -0.43943,1.629275 -0.8004,3.432604 -0.65908,5.267539 0.14133,1.834937 0.78494,3.701468 1.24792,5.006438 0.4629796,1.30497 0.7456196,2.0484 1.4638196,3.03564 0.7182,0.98725 1.87152,2.21803 3.08731,3.17825 1.21578,0.96022 2.49382,1.64959 4.38364,2.3247 1.88981,0.6751 4.39126,1.33622 7.17078,1.54508 2.77954,0.20886 5.83677,-0.0341 8.39428,-0.50961 2.55751,-0.47552 4.61534,-1.18368 6.46854,-2.38813 1.85318,-1.20447 3.50164,-2.90528 4.77689,-4.83134 1.27524,-1.92605 2.17727,-4.07734 2.55151,-6.232756 0.37425,-2.155414 0.22046,-4.314717 -0.45257,-6.485988 -0.673,-2.171271 -1.8658,-4.354072 -3.64703,-6.133666 -1.78122,-1.779595 -4.15087,-3.155878 -6.7718,-4.041749 -2.62095,-0.885871 -5.49288,-1.281456 -7.94119,-1.352668 -0.30605,-0.0089 -0.60553,-0.01269 -0.89837,-0.01206 z m 0.1935,1.685592 c 0.2294,-5.57e-4 0.46358,0.0031 0.70331,0.01101 1.91782,0.06288 4.16789,0.412098 6.22092,1.194331 2.05304,0.782231 3.90909,1.997452 5.30436,3.568839 1.39527,1.57139 2.32967,3.498665 2.85688,5.415914 0.52719,1.91725 0.6474,3.82408 0.35424,5.727341 -0.29317,1.903259 -0.99962,3.802729 -1.99855,5.503469 -0.99895,1.70073 -2.29059,3.20261 -3.74224,4.26614 -1.45165,1.06354 -3.0633,1.68881 -5.06663,2.1087 -2.00335,0.41989 -4.39792,0.63426 -6.57518,0.44984 -2.17726,-0.18442 -4.13719,-0.76756 -5.61751,-1.36367 -1.48033,-0.59612 -2.4809,-1.20524 -3.43325,-2.05313 -0.95235,-0.84788 -1.85629,-1.93478 -2.41887,-2.80652 -0.56258,-0.87175 -0.78384,-1.5284 -1.1465,-2.6807 -0.36266,-1.15229 -0.86673,-2.800026 -0.97743,-4.420279 -0.11071,-1.620251 0.17233,-3.212841 0.51655,-4.651499 0.34422,-1.438656 0.74964,-2.723238 1.59178,-3.959436 0.84214,-1.236199 2.1207,-2.423733 3.22099,-3.275763 1.10032,-0.852029 2.02251,-1.368603 2.963,-1.7527 0.94048,-0.384098 1.89919,-0.635506 3.17158,-0.872942 1.11335,-0.207757 2.46683,-0.405052 4.07255,-0.408945 z" /><path
           style="fill:#85b9ec;fill-opacity:1;stroke:#c72682;stroke-width:0.264054;stroke-opacity:0"
           d="M 34.409698,18.75949 C 33.34171,18.478775 32.1724,18.463185 31.042049,18.509944 c -1.130351,0.04676 -2.221681,0.155892 -3.05585,0.342968 -0.834169,0.187075 -1.411135,0.452168 -1.987992,0.717211 1.04458,0 2.08942,0 3.39129,0.218319 1.301869,0.218319 2.860909,0.654851 4.225096,1.340925 1.364187,0.686074 2.533468,1.621497 3.585822,2.673909 1.052353,1.052412 1.98778,2.221695 2.587932,3.648268 0.600153,1.426573 0.865187,3.110337 0.748201,4.692739 -0.116987,1.582403 -0.615879,3.063491 -1.044608,3.998868 -0.428728,0.935377 -0.787296,1.325123 -1.145883,1.71489 0.467723,-0.0156 0.9357,-0.03121 1.372147,-0.179343 0.436447,-0.148135 0.841794,-0.428759 1.340657,-1.021167 0.498864,-0.592408 1.091295,-1.496647 1.473278,-2.767225 0.381984,-1.270578 0.553477,-2.907571 0.444387,-4.544575 -0.10909,-1.637004 -0.498848,-3.273997 -1.106815,-4.607024 -0.607967,-1.333027 -1.434259,-2.361992 -2.213762,-3.079228 -0.779503,-0.717236 -1.512253,-1.122587 -2.361947,-1.598099 -0.849695,-0.475511 -1.816316,-1.021175 -2.884304,-1.30189 z"
           id="path21449"
           inkscape:path-effect="#path-effect21451"
           inkscape:original-d="m 34.510747,18.494361 c -1.16904,-0.01533 -2.33835,-0.03092 -3.50792,-0.04677 -1.0911,0.1094 -2.18243,0.218533 -3.27405,0.327404 -0.5766,0.265313 -1.73057,0.795128 -1.73057,0.795128 0,0 2.08942,2.65e-4 3.13374,0 1.55937,0.436814 3.11841,0.873345 4.67721,1.309621 1.1696,0.935726 2.33888,1.87115 3.50792,2.80633 0.93572,1.169591 1.87115,2.338872 2.80633,3.507912 0.26531,1.684097 0.53035,3.36786 0.79512,5.051393 -0.49865,1.481413 -0.99754,2.962502 -1.49671,4.443362 -0.35833,0.39004 -1.07576,1.1693 -1.07576,1.1693 0,0 0.93571,-0.0309 1.40317,-0.0468 0.40563,-0.28038 0.81098,-0.561 1.21608,-0.8419 0.59272,-0.90402 1.18515,-1.80826 1.77734,-2.712788 0.17176,-1.636795 0.34326,-3.273788 0.51449,-4.911077 -0.38951,-1.636794 -0.77927,-3.273787 -1.1693,-4.911079 -0.82606,-1.028743 -1.65235,-2.05771 -2.47893,-3.086963 -0.73251,-0.405103 -1.46526,-0.810453 -2.19829,-1.216076 -0.96636,-0.5454 -1.93298,-1.091067 -2.89987,-1.636997 z"
           sodipodi:nodetypes="sccccccccccccccccss" /><ellipse
           style="fill:#85b9ec;fill-opacity:1;stroke:#c72682;stroke-width:0.264054;stroke-opacity:0"
           id="path23391"
           cx="18.719267"
           cy="35.784897"
           rx="1.7859374"
           ry="1.9182291" /><ellipse
           style="fill:#85b9ec;fill-opacity:1;stroke:#c72682;stroke-width:0.264054;stroke-opacity:0"
           id="path23393"
           cx="19.810667"
           cy="38.596092"
           rx="0.59531248"
           ry="0.66145831" /><g
           id="rect23447"
           transform="rotate(24.407805,76.06957,-375.8113)"><path
             style="color:#000000;fill:#195fa7;fill-opacity:1;stroke-width:0.264054;-inkscape-stroke:none"
             d="m 198.08542,55.456694 4.38346,-0.09305 -0.0422,2.025941 -4.19568,-0.230749 c 0,0 -0.0472,-0.577575 -0.0719,-0.866264 -0.0239,-0.278692 -0.0739,-0.835881 -0.0739,-0.835881 z"
             id="path23463"
             sodipodi:nodetypes="ccccacc" /><path
             style="color:#000000;fill:#c72682;fill-opacity:0;-inkscape-stroke:none"
             d="m 197.24414,55.226562 v 0.132813 2.142578 h 5.31641 v -2.275391 z m 0.26367,0.263672 h 4.78711 v 1.748047 h -4.78711 z"
             id="path23460" /></g><path
           id="path1806-1-6"
           style="fill:#e0eff8;fill-opacity:0.176955;stroke:#c72682;stroke-width:0.264054;stroke-opacity:0"
           d="m 39.390717,49.52156 c -0.13667,0.005 -0.2508,0.23204 -0.46561,0.65939 -0.10056,0.20005 -0.22362,0.44672 -0.35037,0.73019 0.0669,0.099 0.1393,0.20843 0.22376,0.33641 0.73804,1.11826 2.21402,3.35501 3.92121,6.82904 1.7072,3.47405 3.64538,8.18529 4.72633,11.37605 1.08096,3.19076 1.3047,4.86043 1.40146,5.69526 0.0968,0.83483 0.0669,0.8348 0.38861,1.58078 0.32175,0.74597 0.9947,2.23755 1.30483,3.33675 0.31014,1.0992 0.25786,1.80568 0.0811,2.35128 -0.019,0.0585 -0.0402,0.11432 -0.062,0.16898 0.15828,0.0221 0.31091,0.0215 0.44907,-0.006 0.45859,-0.0921 0.75917,-0.47707 0.93586,-1.02268 0.17673,-0.5456 0.22901,-1.25208 -0.0811,-2.35128 -0.31013,-1.09919 -0.98308,-2.59077 -1.30483,-3.33674 -0.32171,-0.74598 -0.29181,-0.74596 -0.38861,-1.58078 -0.0968,-0.83483 -0.32051,-2.50451 -1.40147,-5.69526 -1.08094,-3.19076 -3.01912,-7.90201 -4.72632,-11.37605 -1.70719,-3.47404 -3.18317,-5.71079 -3.92121,-6.82904 -0.39209,-0.59407 -0.57582,-0.87226 -0.7307,-0.8661 z m 7.73389,29.76614 c -0.0276,0.0797 -0.0555,0.15778 -0.0832,0.23719 0.0217,0.081 0.0475,0.15674 0.0755,0.2279 0.002,-0.15452 0.004,-0.30971 0.008,-0.46509 z" /></g><ellipse
         style="fill:#e8e8e8;fill-opacity:1;stroke:#c72682;stroke-width:0.128852;stroke-opacity:0"
         id="path350"
         cx="94.985413"
         cy="21.960417"
         rx="33.072918"
         ry="14.552083" /><ellipse
         style="fill:#e8e8e8;fill-opacity:1;stroke:#c72682;stroke-width:0.0220562;stroke-opacity:0"
         id="path350-8"
         cx="61.251041"
         cy="35.057285"
         rx="3.8898573"
         ry="3.6252725" /><ellipse
         style="fill:#e8e8e8;fill-opacity:1;stroke:#c72682;stroke-width:0.0127495;stroke-opacity:0"
         id="path350-8-8"
         cx="54.504166"
         cy="40.481247"
         rx="2.0424273"
         ry="2.3070092" /><ellipse
         style="fill:#e8e8e8;fill-opacity:1;stroke:#c72682;stroke-width:0.00524113;stroke-opacity:0"
         id="path350-8-8-0"
         cx="50.217415"
         cy="44.243877"
         rx="0.77668506"
         ry="1.0252173" /><text
         xml:space="preserve"
         style="font-size:12.7px;font-family:'Josefin Sans';-inkscape-font-specification:'Josefin Sans';fill:#000000;stroke:#c72682;stroke-width:0.128852;stroke-opacity:0"
         x="75.67083"
         y="25.4"
         id="text874"><tspan
           sodipodi:role="line"
           id="tspan872"
           style="font-size:12.7px;stroke-width:0.128852"
           x="75.67083"
           y="25.4">DOM</tspan></text></g></g></svg>
