<?xml version="1.0" encoding="UTF-8" standalone="no"?>
<svg
   width="1235"
   height="780"
   viewBox="0 0 1235 780"
   fill="none"
   version="1.1"
   id="svg25"
   sodipodi:docname="nuda - úkol.svg"
   xml:space="preserve"
   inkscape:version="1.2.2 (732a01da63, 2022-12-09)"
   xmlns:inkscape="http://www.inkscape.org/namespaces/inkscape"
   xmlns:sodipodi="http://sodipodi.sourceforge.net/DTD/sodipodi-0.dtd"
   xmlns="http://www.w3.org/2000/svg"
   xmlns:svg="http://www.w3.org/2000/svg"><sodipodi:namedview
     id="namedview27"
     pagecolor="#ffffff"
     bordercolor="#000000"
     borderopacity="0.25"
     inkscape:showpageshadow="2"
     inkscape:pageopacity="0.0"
     inkscape:pagecheckerboard="0"
     inkscape:deskcolor="#d1d1d1"
     showgrid="false"
     inkscape:zoom="0.53205128"
     inkscape:cx="1030.9157"
     inkscape:cy="557.27711"
     inkscape:window-width="1920"
     inkscape:window-height="991"
     inkscape:window-x="-9"
     inkscape:window-y="-9"
     inkscape:window-maximized="1"
     inkscape:current-layer="svg25" /><g
     filter="url(#filter0_d_622_670)"
     id="g4"
     transform="matrix(1.0380469,0,0,1.0674699,-20.674733,-11.277108)"
     style="opacity:1"><rect
       x="4"
       width="1227"
       height="772"
       rx="30.1758"
       fill="#bda394"
       id="rect2"
       y="0" /></g><defs
     id="defs23"><filter
       id="filter0_d_622_670"
       x="0"
       y="0"
       width="1235"
       height="780"
       filterUnits="userSpaceOnUse"
       color-interpolation-filters="sRGB"><feFlood
         flood-opacity="0"
         result="BackgroundImageFix"
         id="feFlood6" /><feColorMatrix
         in="SourceAlpha"
         type="matrix"
         values="0 0 0 0 0 0 0 0 0 0 0 0 0 0 0 0 0 0 127 0"
         result="hardAlpha"
         id="feColorMatrix8" /><feOffset
         dy="4"
         id="feOffset10" /><feGaussianBlur
         stdDeviation="2"
         id="feGaussianBlur12" /><feComposite
         in2="hardAlpha"
         operator="out"
         id="feComposite14" /><feColorMatrix
         type="matrix"
         values="0 0 0 0 0 0 0 0 0 0 0 0 0 0 0 0 0 0 0.25 0"
         id="feColorMatrix16" /><feBlend
         mode="normal"
         in2="BackgroundImageFix"
         result="effect1_dropShadow_622_670"
         id="feBlend18" /><feBlend
         mode="normal"
         in="SourceGraphic"
         in2="effect1_dropShadow_622_670"
         result="shape"
         id="feBlend20" /></filter><clipPath
       clipPathUnits="userSpaceOnUse"
       id="clipPath18104"><path
         id="path18106"
         style="fill:#ff0000;fill-opacity:1;fill-rule:nonzero;stroke:none;stroke-width:0.264583"
         d="m 28.958439,20.720182 v 95.431898 h 35.109484 c -7.447526,-10.4254 -1.505778,-27.181553 22.239986,-33.372636 0.704352,-0.183639 1.410322,-0.354626 2.11305,-0.542602 0.174672,-0.05672 0.349329,-0.113813 0.523999,-0.170532 -0.0351,0.03478 -0.154448,0.110585 -0.105418,0.104386 0.13502,-0.01707 0.262199,-0.08074 0.380336,-0.148312 0.226436,-0.129514 0.420111,-0.326007 0.667144,-0.409795 0.02331,-0.0079 0.03557,-0.0099 0.03927,-0.0078 0.02593,0.01542 -0.378664,0.252643 -0.518316,0.353467 -5.407507,3.904113 -7.560421,6.809216 -7.514786,9.038209 17.28879,0.868871 49.015912,9.336745 31.132992,-10.286711 -1.71268,-1.879373 -3.39115,-3.790929 -5.13819,-5.638414 -0.18921,-0.200099 -0.45929,-0.30806 -0.66146,-0.495062 -0.0627,-0.05801 -0.0514,-0.08028 0.005,-0.07958 0.17041,0.0021 0.75338,0.211055 0.99994,0.28112 1.66244,0.472429 2.35442,0.642307 4.18009,1.122412 4.11437,1.043877 8.28036,1.864704 12.42922,2.756422 28.30026,6.082577 32.49498,27.909658 18.61178,37.495378 h 18.79215 V 20.720182 Z" /></clipPath><clipPath
       clipPathUnits="userSpaceOnUse"
       id="clipPath18104-8"><path
         id="path18106-7"
         style="fill:#ff0000;fill-opacity:1;fill-rule:nonzero;stroke:none;stroke-width:0.264583"
         d="m 28.958439,20.720182 v 95.431898 h 35.109484 c -7.447526,-10.4254 -1.505778,-27.181553 22.239986,-33.372636 0.704352,-0.183639 1.410322,-0.354626 2.11305,-0.542602 0.174672,-0.05672 0.349329,-0.113813 0.523999,-0.170532 -0.0351,0.03478 -0.154448,0.110585 -0.105418,0.104386 0.13502,-0.01707 0.262199,-0.08074 0.380336,-0.148312 0.226436,-0.129514 0.420111,-0.326007 0.667144,-0.409795 0.02331,-0.0079 0.03557,-0.0099 0.03927,-0.0078 0.02593,0.01542 -0.378664,0.252643 -0.518316,0.353467 -5.407507,3.904113 -7.560421,6.809216 -7.514786,9.038209 17.28879,0.868871 49.015912,9.336745 31.132992,-10.286711 -1.71268,-1.879373 -3.39115,-3.790929 -5.13819,-5.638414 -0.18921,-0.200099 -0.45929,-0.30806 -0.66146,-0.495062 -0.0627,-0.05801 -0.0514,-0.08028 0.005,-0.07958 0.17041,0.0021 0.75338,0.211055 0.99994,0.28112 1.66244,0.472429 2.35442,0.642307 4.18009,1.122412 4.11437,1.043877 8.28036,1.864704 12.42922,2.756422 28.30026,6.082577 32.49498,27.909658 18.61178,37.495378 h 18.79215 V 20.720182 Z" /></clipPath></defs><g
     inkscape:label="Vrstva 1"
     id="layer1"
     transform="matrix(3.7795276,0,0,3.7795276,1219.0637,41.236979)"><ellipse
       style="fill:#62371a;fill-opacity:0.889706;stroke-width:0.234487;opacity:0.27692308"
       id="path12644-6-7"
       cx="-207.66202"
       cy="66.946739"
       rx="18.53051"
       ry="18.029688" /><ellipse
       style="fill:#d38d5f;fill-opacity:0.908088;stroke-width:0.194402;opacity:0.27692308"
       id="path11238-3-9"
       cx="-207.66199"
       cy="64.912834"
       rx="13.819364"
       ry="14.635046" /><ellipse
       style="fill:#62371a;fill-opacity:0.838235;stroke-width:0.354123;opacity:0.27692308"
       id="path12644-2"
       cx="-289.14874"
       cy="48.230976"
       rx="27.984854"
       ry="27.228506" /><ellipse
       style="fill:#d38d5f;fill-opacity:0.768382;stroke-width:0.293587;opacity:0.27692308"
       id="path11238-0"
       cx="-289.14874"
       cy="45.159382"
       rx="20.87006"
       ry="22.101906" /><ellipse
       style="fill:#62371a;fill-opacity:0.867647;stroke-width:0.196203;opacity:0.27692308"
       id="path12644-9-2"
       cx="-180.34854"
       cy="4.7625008"
       rx="15.505121"
       ry="15.086063" /><ellipse
       style="fill:#d38d5f;fill-opacity:0.911765;stroke-width:0.162663;opacity:0.27692308"
       id="path11238-8-4"
       cx="-180.34854"
       cy="3.0606425"
       rx="11.563141"
       ry="12.24565" /><ellipse
       style="fill:#62371a;fill-opacity:0.889706;stroke-width:0.234487;opacity:0.27692308"
       id="path12644-6-7-6"
       cx="-63.448166"
       cy="214.14432"
       rx="18.53051"
       ry="18.029688" /><ellipse
       style="fill:#d38d5f;fill-opacity:0.908088;stroke-width:0.194402;opacity:0.27692308"
       id="path11238-3-9-3"
       cx="-63.448135"
       cy="212.11041"
       rx="13.819364"
       ry="14.635046" /><ellipse
       style="fill:#62371a;fill-opacity:0.838235;stroke-width:0.354123;opacity:0.27692308"
       id="path12644-2-8"
       cx="-144.93489"
       cy="195.42856"
       rx="27.984854"
       ry="27.228506" /><ellipse
       style="fill:#d38d5f;fill-opacity:0.768382;stroke-width:0.293587;opacity:0.27692308"
       id="path11238-0-8"
       cx="-144.93489"
       cy="192.35696"
       rx="20.87006"
       ry="22.101906" /><ellipse
       style="fill:#62371a;fill-opacity:0.867647;stroke-width:0.196203;opacity:0.27692308"
       id="path12644-9-2-9"
       cx="-36.134689"
       cy="151.96008"
       rx="15.505121"
       ry="15.086063" /><ellipse
       style="fill:#d38d5f;fill-opacity:0.911765;stroke-width:0.162663;opacity:0.27692308"
       id="path11238-8-4-7"
       cx="-36.134689"
       cy="150.25822"
       rx="11.563141"
       ry="12.24565" /><ellipse
       style="fill:#62371a;fill-opacity:0.889706;stroke-width:0.234487;opacity:0.27692308"
       id="path12644-6-7-6-8"
       cx="129.38298"
       cy="-8.5777798"
       rx="18.53051"
       ry="18.029688"
       transform="rotate(159.32664)" /><ellipse
       style="fill:#d38d5f;fill-opacity:0.908088;stroke-width:0.194402;opacity:0.27692308"
       id="path11238-3-9-3-8"
       cx="129.38301"
       cy="-10.611685"
       rx="13.819364"
       ry="14.635046"
       transform="rotate(159.32664)" /><ellipse
       style="fill:#62371a;fill-opacity:0.838235;stroke-width:0.354123;opacity:0.27692308"
       id="path12644-2-8-1"
       cx="47.896267"
       cy="-27.293539"
       rx="27.984854"
       ry="27.228506"
       transform="rotate(159.32664)" /><ellipse
       style="fill:#d38d5f;fill-opacity:0.768382;stroke-width:0.293587;opacity:0.27692308"
       id="path11238-0-8-3"
       cx="47.896267"
       cy="-30.365133"
       rx="20.87006"
       ry="22.101906"
       transform="rotate(159.32664)" /><ellipse
       style="fill:#62371a;fill-opacity:0.867647;stroke-width:0.196203;opacity:0.27692308"
       id="path12644-9-2-9-6"
       cx="156.69646"
       cy="-70.762016"
       rx="15.505121"
       ry="15.086063"
       transform="rotate(159.32664)" /><ellipse
       style="fill:#d38d5f;fill-opacity:0.911765;stroke-width:0.162663;opacity:0.27692308"
       id="path11238-8-4-7-6"
       cx="156.69646"
       cy="-72.463875"
       rx="11.563141"
       ry="12.24565"
       transform="rotate(159.32664)" /><ellipse
       style="fill:#62371a;fill-opacity:0.889706;stroke-width:0.234487;opacity:0.27692308"
       id="path12644-6-7-6-8-5"
       cx="329.85004"
       cy="-44.789356"
       rx="18.53051"
       ry="18.029688"
       transform="rotate(159.32664)" /><ellipse
       style="fill:#d38d5f;fill-opacity:0.908088;stroke-width:0.194402;opacity:0.27692308"
       id="path11238-3-9-3-8-0"
       cx="329.85007"
       cy="-46.823261"
       rx="13.819364"
       ry="14.635046"
       transform="rotate(159.32664)" /><ellipse
       style="fill:#62371a;fill-opacity:0.838235;stroke-width:0.354123;opacity:0.27692308"
       id="path12644-2-8-1-2"
       cx="248.36333"
       cy="-63.505116"
       rx="27.984854"
       ry="27.228506"
       transform="rotate(159.32664)" /><ellipse
       style="fill:#d38d5f;fill-opacity:0.768382;stroke-width:0.293587;opacity:0.27692308"
       id="path11238-0-8-3-7"
       cx="248.36333"
       cy="-66.576706"
       rx="20.87006"
       ry="22.101906"
       transform="rotate(159.32664)" /><ellipse
       style="fill:#62371a;fill-opacity:0.867647;stroke-width:0.196203;opacity:0.27692308"
       id="path12644-9-2-9-6-6"
       cx="357.16351"
       cy="-106.97359"
       rx="15.505121"
       ry="15.086063"
       transform="rotate(159.32664)" /><ellipse
       style="fill:#d38d5f;fill-opacity:0.911765;stroke-width:0.162663;opacity:0.27692308"
       id="path11238-8-4-7-6-7"
       cx="357.16351"
       cy="-108.67545"
       rx="11.563141"
       ry="12.24565"
       transform="rotate(159.32664)" /></g><path
     d="m 886.02237,134.86448 c -1.6352,-1.41455 -1.211,-6.93298 0.6076,-7.9053 2.8935,-1.54695 9.2551,0.63282 9.2551,3.17128 0,4.29351 -6.6705,7.49532 -9.8627,4.73402 z m 6.3589,-11.3336 c -6.1079,-3.07733 -1.6726,-9.34154 13.1655,-18.59422 7.2127,-4.4978 9.0849,-6.470517 9.957,-10.491762 0.9022,-4.159682 0.512,-5.346212 -2.4371,-7.411968 -5.2394,-3.669951 -8.0475,-3.073448 -14.0794,2.990813 -3.946,3.967213 -6.216,5.242033 -8.1756,4.591549 -4.5699,-1.516951 -3.3529,-7.916005 2.532,-13.313656 4.3894,-4.025901 6.3074,-4.810697 11.7568,-4.810697 21.5142,0 29.6347,20.159255 12.5179,31.075931 -2.824,1.80107 -8.8089,6.45711 -13.2999,10.34683 -4.491,3.88967 -8.4009,7.05376 -8.6887,7.0312 -0.2879,-0.024 -1.7497,-0.65883 -3.2485,-1.41402 z"
     style="fill:#6b4f4f;fill-opacity:0.29444444;stroke-width:0.383212"
     id="path3965" /><path
     d="m 601.74116,468.02442 c -1.52391,-1.53379 -0.68492,-7.00454 1.2018,-7.837 3.00189,-1.32443 9.18107,1.3287 8.98971,3.85993 -0.32366,4.2813 -7.21654,6.97115 -10.19151,3.97707 z m 7.19518,-10.822 c -5.85854,-3.529 -0.96365,-9.44104 14.52973,-17.54885 7.53124,-3.94128 9.54682,-5.76725 10.71957,-9.71131 1.21321,-4.07984 0.91356,-5.29241 -1.87142,-7.5746 -4.94784,-4.05447 -7.79292,-3.67135 -14.2648,1.92096 -4.23383,3.65846 -6.59347,4.75853 -8.49846,3.96217 -4.44255,-1.85713 -2.74663,-8.14623 3.52842,-13.0849 4.6804,-3.68356 6.6521,-4.32154 12.086,-3.91074 21.45298,1.62181 28.0307,22.33586 10.13967,31.93115 -2.95174,1.58306 -9.2706,5.77469 -14.04204,9.31479 -4.77144,3.54006 -8.90873,6.4004 -9.19401,6.35621 -0.28527,-0.0456 -1.69506,-0.78885 -3.13266,-1.65488 z"
     style="fill:#6b4f4f;fill-opacity:0.29444444;stroke-width:0.383212"
     id="path3965-7"
     inkscape:transform-center-x="-127.10559"
     inkscape:transform-center-y="-341.65867" /><path
     d="m 698.29822,39.080684 c -1.52391,-1.53379 -0.68492,-7.00454 1.2018,-7.837 3.00189,-1.32443 9.18107,1.3287 8.98971,3.85993 -0.32366,4.2813 -7.21654,6.97115 -10.19151,3.97707 z m 7.19518,-10.822 c -5.85854,-3.529 -0.96365,-9.44104 14.52973,-17.54885 7.53124,-3.94128 9.54682,-5.76725 10.71957,-9.71130998 1.21321,-4.07984002 0.91356,-5.29241002 -1.87142,-7.57460002 -4.94784,-4.05447 -7.79292,-3.67135 -14.2648,1.92096 -4.23383,3.65846002 -6.59347,4.75853002 -8.49846,3.96217002 -4.44255,-1.85713002 -2.74663,-8.14623002 3.52842,-13.08490002 4.6804,-3.68356 6.6521,-4.32154 12.086,-3.91074 21.45298,1.62181 28.0307,22.33586 10.13967,31.93115 -2.95174,1.58306 -9.2706,5.77469 -14.04204,9.31479 -4.77144,3.54006 -8.90873,6.4004 -9.19401,6.35621 -0.28527,-0.0456 -1.69506,-0.78885 -3.13266,-1.65488 z"
     style="fill:#6b4f4f;fill-opacity:0.29444444;stroke-width:0.383212"
     id="path3965-7-5"
     inkscape:transform-center-x="-127.10559"
     inkscape:transform-center-y="-341.65867" /><path
     d="m 207.74401,477.0084 c -1.52391,-1.53379 -0.68493,-7.00454 1.2018,-7.837 3.00189,-1.32443 9.18107,1.3287 8.98971,3.85993 -0.32366,4.2813 -7.21654,6.97115 -10.19151,3.97707 z m 7.19518,-10.822 c -5.85854,-3.529 -0.96365,-9.44104 14.52973,-17.54885 7.53124,-3.94128 9.54682,-5.76725 10.71957,-9.71131 1.21321,-4.07984 0.91355,-5.29241 -1.87142,-7.5746 -4.94784,-4.05447 -7.79292,-3.67135 -14.2648,1.92096 -4.23383,3.65846 -6.59347,4.75853 -8.49846,3.96217 -4.44255,-1.85713 -2.74663,-8.14623 3.52842,-13.0849 4.68039,-3.68356 6.6521,-4.32154 12.086,-3.91074 21.45298,1.62181 28.0307,22.33586 10.13967,31.93115 -2.95174,1.58306 -9.2706,5.77469 -14.04204,9.31479 -4.77144,3.54006 -8.90873,6.4004 -9.19402,6.35621 -0.28527,-0.0456 -1.69506,-0.78885 -3.13265,-1.65488 z"
     style="fill:#6b4f4f;fill-opacity:0.29444444;stroke-width:0.383212"
     id="path3965-7-3"
     inkscape:transform-center-x="-127.10559"
     inkscape:transform-center-y="-341.65867" /><path
     d="m 282.92472,807.80357 c -1.52391,-1.53379 -0.68493,-7.00454 1.2018,-7.837 3.00189,-1.32443 9.18107,1.3287 8.98971,3.85993 -0.32366,4.2813 -7.21654,6.97115 -10.19151,3.97707 z m 7.19518,-10.822 c -5.85854,-3.529 -0.96365,-9.44104 14.52973,-17.54885 7.53124,-3.94128 9.54682,-5.76725 10.71957,-9.71131 1.21321,-4.07984 0.91355,-5.29241 -1.87142,-7.5746 -4.94784,-4.05447 -7.79292,-3.67135 -14.2648,1.92096 -4.23383,3.65846 -6.59347,4.75853 -8.49846,3.96217 -4.44255,-1.85713 -2.74663,-8.14623 3.52842,-13.0849 4.68039,-3.68356 6.6521,-4.32154 12.086,-3.91074 21.45298,1.62181 28.0307,22.33586 10.13967,31.93115 -2.95174,1.58306 -9.2706,5.77469 -14.04204,9.31479 -4.77144,3.54006 -8.90873,6.4004 -9.19402,6.35621 -0.28527,-0.0456 -1.69506,-0.78885 -3.13265,-1.65488 z"
     style="fill:#6b4f4f;fill-opacity:0.29444444;stroke-width:0.383212"
     id="path3965-7-3-5"
     inkscape:transform-center-x="-127.10559"
     inkscape:transform-center-y="-341.65867" /><path
     d="m 856.17774,726.9843 c -1.52391,-1.53379 -0.68493,-7.00454 1.2018,-7.837 3.00189,-1.32443 9.18107,1.3287 8.98971,3.85993 -0.32366,4.2813 -7.21654,6.97115 -10.19151,3.97707 z m 7.19518,-10.822 c -5.85854,-3.529 -0.96365,-9.44104 14.52973,-17.54885 7.53124,-3.94128 9.54682,-5.76725 10.71957,-9.71131 1.21321,-4.07984 0.91355,-5.29241 -1.87142,-7.5746 -4.94784,-4.05447 -7.79292,-3.67135 -14.2648,1.92096 -4.23383,3.65846 -6.59347,4.75853 -8.49846,3.96217 -4.44255,-1.85713 -2.74663,-8.14623 3.52842,-13.0849 4.68039,-3.68356 6.6521,-4.32154 12.086,-3.91074 21.45298,1.62181 28.0307,22.33586 10.13967,31.93115 -2.95174,1.58306 -9.2706,5.77469 -14.04204,9.31479 -4.77144,3.54006 -8.90873,6.4004 -9.19402,6.35621 -0.28527,-0.0456 -1.69506,-0.78885 -3.13265,-1.65488 z"
     style="fill:#6b4f4f;fill-opacity:0.29444444;stroke-width:0.383212"
     id="path3965-7-3-5-4"
     inkscape:transform-center-x="-127.10559"
     inkscape:transform-center-y="-341.65867" /><path
     d="m 1013.7427,468.27307 c -1.7911,1.21105 -7.0093,-0.63368 -7.4753,-2.64257 -0.7412,-3.19625 3.018,-8.77208 5.4691,-8.11193 4.1458,1.11658 5.5027,8.39023 2.0062,10.7545 z m -9.2899,-9.08756 c -4.55987,5.09744 -9.45508,-0.81432 -14.53057,-17.54815 -2.46729,-8.13423 -3.88523,-10.45504 -7.54132,-12.3429 -3.78193,-1.95294 -5.02911,-1.88473 -7.79073,0.42567 -4.90625,4.10471 -5.06055,6.97131 -0.77361,14.37275 2.8045,4.84194 3.44511,7.36537 2.30739,9.08838 -2.65322,4.01816 -8.51559,1.17888 -12.19708,-5.90725 -2.74586,-5.28536 -3.00486,-7.34146 -1.58767,-12.60336 5.59502,-20.77394 27.17248,-23.37237 33.2621,-4.00551 1.00468,3.19523 3.94407,10.18506 6.53199,15.5331 2.5879,5.34803 4.6263,9.94625 4.5297,10.21828 -0.098,0.27176 -1.0912,1.51816 -2.2102,2.76899 z"
     style="fill:#6b4f4f;fill-opacity:0.29444444;stroke-width:0.383212"
     id="path3965-7-0"
     inkscape:transform-center-x="4.469417"
     inkscape:transform-center-y="-3.8251941" /><path
     d="m 331.48636,100.36731 c -1.7911,1.21105 -7.0093,-0.633677 -7.4753,-2.642567 -0.7412,-3.19625 3.018,-8.77208 5.4691,-8.11193 4.1458,1.11658 5.5027,8.39023 2.0062,10.754497 z m -9.2899,-9.087557 c -4.5598,5.09744 -9.4551,-0.81432 -14.5305,-17.54815 -2.4673,-8.13423 -3.8853,-10.45504 -7.5414,-12.3429 -3.7819,-1.95294 -5.0291,-1.88473 -7.7907,0.42567 -4.9063,4.10471 -5.0606,6.97131 -0.7736,14.37275 2.8045,4.84194 3.4451,7.36537 2.3074,9.08838 -2.6532,4.01816 -8.5156,1.17888 -12.1971,-5.90725 -2.7459,-5.28536 -3.0049,-7.34146 -1.5877,-12.60336 5.595,-20.77394 27.1725,-23.37237 33.2621,-4.00551 1.0047,3.19523 3.9441,10.18506 6.532,15.5331 2.5879,5.34803 4.6263,9.94625 4.5297,10.21828 -0.098,0.27176 -1.0912,1.51816 -2.2102,2.76899 z"
     style="fill:#6b4f4f;fill-opacity:0.29444444;stroke-width:0.383212"
     id="path3965-7-0-9"
     inkscape:transform-center-x="4.469417"
     inkscape:transform-center-y="-3.8251941" /><path
     d="m 1186.6671,49.62032 c -1.7911,1.21105 -7.0093,-0.633677 -7.4753,-2.642567 -0.7412,-3.19625 3.018,-8.77208 5.4691,-8.11193 4.1458,1.11658 5.5027,8.39023 2.0062,10.754497 z m -9.2899,-9.087557 c -4.5598,5.09744 -9.4551,-0.81432 -14.5305,-17.54815 -2.4673,-8.13423 -3.8853,-10.45504 -7.5414,-12.3429 -3.7819,-1.9529401 -5.0291,-1.8847301 -7.7907,0.42567 -4.9063,4.10471 -5.0606,6.97131 -0.7736,14.37275 2.8045,4.84194 3.4451,7.36537 2.3074,9.08838 -2.6532,4.01816 -8.5156,1.17888 -12.1971,-5.90725 -2.7459,-5.28536 -3.0049,-7.34146 -1.5877,-12.60336 5.595,-20.7739401 27.1725,-23.3723701 33.2621,-4.00551 1.0047,3.19523 3.9441,10.18506 6.532,15.5331 2.5879,5.34803 4.6263,9.94625 4.5297,10.21828 -0.098,0.27176 -1.0912,1.51816 -2.2102,2.76899 z"
     style="fill:#6b4f4f;fill-opacity:0.29444444;stroke-width:0.383212"
     id="path3965-7-0-9-8"
     inkscape:transform-center-x="4.469417"
     inkscape:transform-center-y="-3.8251941" /></svg>
