<?xml version="1.0" encoding="UTF-8" standalone="no"?>
<svg
   width="1227"
   height="772"
   viewBox="0 0 1227 772"
   fill="none"
   version="1.1"
   id="svg1667"
   sodipodi:docname="strach-úkol.svg"
   xml:space="preserve"
   inkscape:version="1.2.2 (732a01da63, 2022-12-09)"
   xmlns:inkscape="http://www.inkscape.org/namespaces/inkscape"
   xmlns:sodipodi="http://sodipodi.sourceforge.net/DTD/sodipodi-0.dtd"
   xmlns="http://www.w3.org/2000/svg"
   xmlns:svg="http://www.w3.org/2000/svg"><defs
     id="defs1671"><clipPath
       clipPathUnits="userSpaceOnUse"
       id="clipPath34488"><path
         id="path34490"
         style="fill:#ff0000;fill-opacity:1;fill-rule:nonzero;stroke:none;stroke-width:0.264583"
         d="m 175.44614,48.074585 c 0.002,0.0366 0.004,0.0765 0.006,0.112139 0.0438,0.882446 0.0572,1.766096 0.0672,2.64945 -0.002,0.538329 0.0443,1.0752 0.076,1.612305 0.0406,0.675497 0.0478,1.35233 0.0548,2.028817 0.006,0.756068 0.008,1.511985 0.0103,2.268077 0.0157,0.846767 -0.002,1.691174 -0.0729,2.535245 -0.0684,0.657069 -0.1089,1.316313 -0.1385,1.976107 -0.0532,0.741799 -0.15719,1.477931 -0.24133,2.216404 0.0397,0.113329 0.0809,0.225975 0.12144,0.338997 0.0435,0.121068 0.0633,0.175824 0.0977,0.271301 3.74793,-3.654348 3.75549,0.484188 1.84072,4.341855 1.03878,2.154542 2.19496,4.252683 3.41943,6.308141 1.73084,-0.02426 3.46195,-0.03066 5.19296,-0.03514 0.31759,-0.0036 0.63491,-0.0041 0.9524,-0.0052 3.16863,-3.313451 6.33891,-6.626508 9.51156,-9.936345 0.1578,-0.163272 0.16729,-0.173025 0.30024,-0.310576 0.40319,-1.170607 0.91708,-2.136243 1.49913,-2.907832 0.0345,-0.387466 0.0632,-0.775266 0.0909,-1.163238 0.15101,-2.100252 0.70475,-3.739607 1.48312,-4.934582 -0.0146,-0.252582 -0.0225,-0.511921 -0.0232,-0.778246 -0.52943,0.305015 -1.07565,0.988248 -1.63918,2.183845 -0.004,0.0094 -0.0155,0.0386 -0.0134,0.02842 0.0835,-0.43888 0.10628,-0.456004 0.16588,-0.868683 0.0983,-0.680619 0.17367,-1.36621 0.26407,-2.047935 0.16197,-1.166506 0.0821,-0.595646 0.23874,-1.713074 0.069,-0.491879 0.1594,-0.955456 0.26717,-1.393714 -0.10987,-1.025327 -0.0836,-1.953035 0.0527,-2.776575 z m -0.72089,0.497126 c 0.005,-0.02278 -0.009,0.04592 -0.0145,0.06873 -10e-4,0.0062 -0.002,0.01238 -0.003,0.0186 0.006,-0.0291 0.0113,-0.05835 0.0176,-0.08733 z m -1.41025,0.849561 c -2.6e-4,0.07624 -7.9e-4,0.152686 -0.001,0.228928 0.002,0.0033 0.006,0.01363 0.006,0.0098 0.008,-0.07503 0.005,-0.155747 -0.005,-0.238747 z" /></clipPath><clipPath
       clipPathUnits="userSpaceOnUse"
       id="clipPath34649"><path
         id="path34651"
         style="fill:#ff0000;fill-opacity:1;fill-rule:nonzero;stroke:none;stroke-width:0.264583"
         d="m 181.73517,48.074577 c -0.0525,0.0023 -0.10489,0.0043 -0.15732,0.0073 -0.33058,0.02184 -0.65983,0.05754 -0.98632,0.115084 -0.21044,0.03708 -0.42037,0.08953 -0.63113,0.123976 -0.0966,0.06238 -0.19019,0.131614 -0.28444,0.189888 -0.003,0.002 0.005,-0.0054 0.008,-0.0081 -0.21935,0.147656 -0.40948,0.266963 -0.6412,0.42424 -0.35128,0.200158 -0.7113,0.383982 -1.09839,0.506237 -0.0321,0.0093 -0.0645,0.01775 -0.0968,0.02668 -0.15094,0.156653 -0.3125,0.303257 -0.48257,0.439148 -0.26325,0.195338 -0.53206,0.376092 -0.80623,0.552794 -0.44868,0.289151 -0.78723,0.441863 -1.0385,0.486359 0.004,0.504146 0.0455,1.007176 0.0752,1.510342 0.0406,0.675495 0.0478,1.352254 0.0548,2.028741 0.006,0.756066 0.008,1.511972 0.0103,2.268062 0.0157,0.846767 -0.002,1.691171 -0.073,2.53524 -0.0684,0.657067 -0.1089,1.316375 -0.1385,1.976169 -0.0532,0.741797 -0.15714,1.477933 -0.24128,2.216406 0.0397,0.113329 0.081,0.225951 0.12149,0.338973 0.0435,0.121068 0.0633,0.175885 0.0977,0.271362 3.74793,-3.65434 3.75544,0.484132 1.84069,4.341791 1.03878,2.154538 2.19495,4.252697 3.41942,6.308151 1.73084,-0.02426 3.46201,-0.0307 5.19302,-0.03518 0.31759,-0.0036 0.63482,-0.0041 0.95231,-0.0052 3.16863,-3.313443 6.3389,-6.626463 9.51153,-9.936292 0.1578,-0.163274 0.16732,-0.173045 0.30027,-0.310596 0.40319,-1.170603 0.91717,-2.136234 1.49922,-2.907823 0.0345,-0.387464 0.0632,-0.775288 0.0909,-1.16326 0.15101,-2.100244 0.70464,-3.739628 1.48301,-4.934602 -0.0146,-0.252582 -0.0226,-0.511797 -0.0233,-0.778122 -0.52943,0.305016 -1.07562,0.988247 -1.63915,2.183842 -0.004,0.0094 -0.0156,0.03856 -0.0135,0.02838 0.0835,-0.43888 0.10635,-0.456072 0.16595,-0.86875 0.0983,-0.680618 0.17364,-1.36611 0.26404,-2.047835 0.16197,-1.166502 0.0822,-0.595749 0.2388,-1.713177 0.069,-0.491877 0.15941,-0.955432 0.26718,-1.393688 -0.10987,-1.025325 -0.0836,-1.952985 0.0527,-2.776523 h -14.53755 c -0.0884,0.0017 -0.17837,0.0018 -0.27005,0 z m -1.56866,0.132869 c -0.0515,0.02204 -0.10142,0.04937 -0.15053,0.07899 0.0548,-0.02435 0.0514,-0.02214 0.15053,-0.07899 z m -5.44124,0.364213 c 0.005,-0.02278 -0.009,0.04598 -0.0145,0.06879 -0.001,0.0062 -0.002,0.01235 -0.003,0.01857 0.006,-0.0291 0.0114,-0.05838 0.0177,-0.08736 z m -1.41029,0.849658 c -2.7e-4,0.07624 -7.1e-4,0.152617 -9.2e-4,0.228859 0.002,0.0033 0.006,0.01365 0.006,0.0098 0.008,-0.07503 0.005,-0.155669 -0.005,-0.238667 z" /></clipPath></defs><sodipodi:namedview
     id="namedview1669"
     pagecolor="#ffffff"
     bordercolor="#000000"
     borderopacity="0.25"
     inkscape:showpageshadow="2"
     inkscape:pageopacity="0.0"
     inkscape:pagecheckerboard="0"
     inkscape:deskcolor="#d1d1d1"
     showgrid="false"
     inkscape:zoom="0.38011569"
     inkscape:cx="1019.4265"
     inkscape:cy="380.14742"
     inkscape:window-width="1920"
     inkscape:window-height="991"
     inkscape:window-x="-9"
     inkscape:window-y="-9"
     inkscape:window-maximized="1"
     inkscape:current-layer="svg1667" /><rect
     width="1271.7233"
     height="824.61554"
     rx="41.45797"
     fill="#e7e7e7"
     id="rect1665"
     x="-26.307701"
     y="-15.784667"
     style="stroke-width:1.05218" /><g
     inkscape:label="Vrstva 1"
     id="layer1"
     transform="matrix(3.7795276,0,0,3.7795276,-203.40767,-148.71552)"
     style="opacity:0.37435897"><ellipse
       style="opacity:0.992674;fill:#b4b5b0;fill-opacity:1;stroke-width:0.264999"
       id="path33149"
       cx="74.619392"
       cy="159.58208"
       rx="10.712687"
       ry="11.820895" /><circle
       style="opacity:0.992674;fill:#b4b5b0;fill-opacity:1;stroke-width:0.264999"
       id="path33147"
       cx="138.34142"
       cy="160.13618"
       r="10.158582" /><circle
       style="opacity:0.992674;fill:#b4b5b0;fill-opacity:1;stroke-width:0.264999"
       id="path33145"
       cx="91.057838"
       cy="100.29291"
       r="9.0503731" /><circle
       style="opacity:0.992674;fill:#b4b4b1;fill-opacity:0.888889;stroke-width:0.264999"
       id="path33208"
       cx="118.94776"
       cy="49.1306"
       r="3.3246269" /><ellipse
       style="opacity:0.992674;fill:#b4b4b1;fill-opacity:0.888889;stroke-width:0.264999"
       id="path33210"
       cx="36.570892"
       cy="64.460823"
       rx="6.6492538"
       ry="7.2033582" /><ellipse
       style="opacity:0.992674;fill:#b4b4b1;fill-opacity:0.888889;stroke-width:0.264999"
       id="path33212"
       cx="41.742538"
       cy="113.96082"
       rx="9.235075"
       ry="9.0503731" /><ellipse
       style="opacity:0.992674;fill:#b4b4b1;fill-opacity:0.888889;stroke-width:0.264999"
       id="path33214"
       cx="165.67725"
       cy="72.402985"
       rx="15.330223"
       ry="14.406716" /><ellipse
       style="opacity:0.992674;fill:#b4b4b1;fill-opacity:0.888889;stroke-width:0.264999"
       id="path33216"
       cx="76.097015"
       cy="24.934698"
       rx="2.9552238"
       ry="3.1399255" /><ellipse
       style="opacity:0.992674;fill:#b4b4b1;fill-opacity:0.888889;stroke-width:0.264999"
       id="path33218"
       cx="118.94776"
       cy="19.208956"
       rx="2.5858207"
       ry="2.2164178" /><ellipse
       style="opacity:0.992674;fill:#b4b4b1;fill-opacity:0.888889;stroke-width:0.264999"
       id="path33220"
       cx="158.10448"
       cy="119.50186"
       rx="1.1082089"
       ry="1.6623135" /><ellipse
       style="opacity:0.992674;fill:#b4b4b1;fill-opacity:0.888889;stroke-width:0.264999"
       id="path33222"
       cx="71.294777"
       cy="64.276123"
       rx="5.1716413"
       ry="4.4328356" /><ellipse
       style="opacity:0.992674;fill:#b4b4b1;fill-opacity:0.888889;stroke-width:0.264999"
       id="path33224"
       cx="133.90857"
       cy="120.97948"
       rx="1.6623135"
       ry="2.4011195" /><ellipse
       style="opacity:0.992674;fill:#b4b4b1;fill-opacity:0.888889;stroke-width:0.264999"
       id="path33226"
       cx="127.99814"
       cy="81.822754"
       rx="1.6623135"
       ry="1.2929103" /><ellipse
       style="opacity:0.992674;fill:#b4b4b1;fill-opacity:0.888889;stroke-width:0.264999"
       id="path33228"
       cx="151.27052"
       cy="36.755596"
       rx="10.158582"
       ry="10.527985" /><circle
       style="opacity:0.992674;fill:#b4b4b1;fill-opacity:0.888889;stroke-width:0.264999"
       id="path33230"
       cx="176.94403"
       cy="107.12687"
       r="2.5858207" /><ellipse
       style="opacity:0.992674;fill:#b4b4b1;fill-opacity:0.888889;stroke-width:0.264999"
       id="path33232"
       cx="112.11381"
       cy="143.88246"
       rx="2.0317163"
       ry="1.6623135" /><ellipse
       style="opacity:0.992674;fill:#b4b4b1;fill-opacity:0.888889;stroke-width:0.264999"
       id="path33234"
       cx="158.84328"
       cy="140.74254"
       rx="4.0634327"
       ry="4.4328356" /><ellipse
       style="opacity:0.992674;fill:#b4b4b1;fill-opacity:0.888889;stroke-width:0.264999"
       id="path33236"
       cx="78.498131"
       cy="129.47575"
       rx="2.7705224"
       ry="3.1399255" /><ellipse
       style="opacity:0.992674;fill:#b4b4b1;fill-opacity:0.888889;stroke-width:0.264999"
       id="path33238"
       cx="59.473881"
       cy="85.8862"
       rx="2.5858207"
       ry="2.7705224" /><ellipse
       style="opacity:0.992674;fill:#b4b4b1;fill-opacity:0.888889;stroke-width:0.264999"
       id="path33240"
       cx="25.488804"
       cy="88.102615"
       rx="1.8470149"
       ry="2.0317163" /><ellipse
       style="opacity:0.992674;fill:#b4b4b1;fill-opacity:0.888889;stroke-width:0.264999"
       id="path33242"
       cx="52.085815"
       cy="39.156719"
       rx="1.8470149"
       ry="2.2164178" /><ellipse
       style="opacity:0.992674;fill:#b4b4b1;fill-opacity:0.888889;stroke-width:0.264999"
       id="path33244"
       cx="93.089554"
       cy="45.067162"
       rx="2.5858207"
       ry="1.8470149" /></g><g
     inkscape:label="Vrstva 1"
     id="layer1-7"
     transform="matrix(3.7795276,0,0,3.7795276,602.43377,246.42514)"
     style="opacity:0.37435897"><ellipse
       style="opacity:0.992674;fill:#b4b5b0;fill-opacity:1;stroke-width:0.264999"
       id="path33149-0"
       cx="54.433651"
       cy="140.09239"
       rx="10.712687"
       ry="11.820895" /><circle
       style="opacity:0.992674;fill:#b4b5b0;fill-opacity:1;stroke-width:0.264999"
       id="path33147-4"
       cx="138.34142"
       cy="160.13618"
       r="10.158582" /><circle
       style="opacity:0.992674;fill:#b4b5b0;fill-opacity:1;stroke-width:0.264999"
       id="path33145-7"
       cx="91.057838"
       cy="100.29291"
       r="9.0503731" /><circle
       style="opacity:0.992674;fill:#b4b4b1;fill-opacity:0.888889;stroke-width:0.264999"
       id="path33208-9"
       cx="118.94776"
       cy="49.1306"
       r="3.3246269" /><ellipse
       style="opacity:0.992674;fill:#b4b4b1;fill-opacity:0.888889;stroke-width:0.264999"
       id="path33210-4"
       cx="36.570892"
       cy="64.460823"
       rx="6.6492538"
       ry="7.2033582" /><ellipse
       style="opacity:0.992674;fill:#b4b4b1;fill-opacity:0.888889;stroke-width:0.264999"
       id="path33212-6"
       cx="41.742538"
       cy="113.96082"
       rx="9.235075"
       ry="9.0503731" /><ellipse
       style="opacity:0.992674;fill:#b4b4b1;fill-opacity:0.888889;stroke-width:0.264999"
       id="path33214-9"
       cx="165.67725"
       cy="72.402985"
       rx="15.330223"
       ry="14.406716" /><ellipse
       style="opacity:0.992674;fill:#b4b4b1;fill-opacity:0.888889;stroke-width:0.264999"
       id="path33216-3"
       cx="76.097015"
       cy="24.934698"
       rx="2.9552238"
       ry="3.1399255" /><ellipse
       style="opacity:0.992674;fill:#b4b4b1;fill-opacity:0.888889;stroke-width:0.264999"
       id="path33218-9"
       cx="118.94776"
       cy="19.208956"
       rx="2.5858207"
       ry="2.2164178" /><ellipse
       style="opacity:0.992674;fill:#b4b4b1;fill-opacity:0.888889;stroke-width:0.264999"
       id="path33220-6"
       cx="158.10448"
       cy="119.50186"
       rx="1.1082089"
       ry="1.6623135" /><ellipse
       style="opacity:0.992674;fill:#b4b4b1;fill-opacity:0.888889;stroke-width:0.264999"
       id="path33222-7"
       cx="71.294777"
       cy="64.276123"
       rx="5.1716413"
       ry="4.4328356" /><ellipse
       style="opacity:0.992674;fill:#b4b4b1;fill-opacity:0.888889;stroke-width:0.264999"
       id="path33224-8"
       cx="133.90857"
       cy="120.97948"
       rx="1.6623135"
       ry="2.4011195" /><ellipse
       style="opacity:0.992674;fill:#b4b4b1;fill-opacity:0.888889;stroke-width:0.264999"
       id="path33226-5"
       cx="127.99814"
       cy="81.822754"
       rx="1.6623135"
       ry="1.2929103" /><ellipse
       style="opacity:0.992674;fill:#b4b4b1;fill-opacity:0.888889;stroke-width:0.264999"
       id="path33228-8"
       cx="151.27052"
       cy="36.755596"
       rx="10.158582"
       ry="10.527985" /><circle
       style="opacity:0.992674;fill:#b4b4b1;fill-opacity:0.888889;stroke-width:0.264999"
       id="path33230-6"
       cx="176.94403"
       cy="107.12687"
       r="2.5858207" /><ellipse
       style="opacity:0.992674;fill:#b4b4b1;fill-opacity:0.888889;stroke-width:0.264999"
       id="path33232-6"
       cx="112.11381"
       cy="143.88246"
       rx="2.0317163"
       ry="1.6623135" /><ellipse
       style="opacity:0.992674;fill:#b4b4b1;fill-opacity:0.888889;stroke-width:0.264999"
       id="path33234-4"
       cx="158.84328"
       cy="140.74254"
       rx="4.0634327"
       ry="4.4328356" /><ellipse
       style="opacity:0.992674;fill:#b4b4b1;fill-opacity:0.888889;stroke-width:0.264999"
       id="path33236-5"
       cx="78.498131"
       cy="129.47575"
       rx="2.7705224"
       ry="3.1399255" /><ellipse
       style="opacity:0.992674;fill:#b4b4b1;fill-opacity:0.888889;stroke-width:0.264999"
       id="path33238-1"
       cx="59.473881"
       cy="85.8862"
       rx="2.5858207"
       ry="2.7705224" /><ellipse
       style="opacity:0.992674;fill:#b4b4b1;fill-opacity:0.888889;stroke-width:0.264999"
       id="path33240-8"
       cx="25.488804"
       cy="88.102615"
       rx="1.8470149"
       ry="2.0317163" /><ellipse
       style="opacity:0.992674;fill:#b4b4b1;fill-opacity:0.888889;stroke-width:0.264999"
       id="path33242-0"
       cx="52.085815"
       cy="39.156719"
       rx="1.8470149"
       ry="2.2164178" /><ellipse
       style="opacity:0.992674;fill:#b4b4b1;fill-opacity:0.888889;stroke-width:0.264999"
       id="path33244-4"
       cx="93.089554"
       cy="45.067162"
       rx="2.5858207"
       ry="1.8470149" /></g><g
     inkscape:label="Vrstva 1"
     id="layer1-7-8"
     transform="matrix(3.7795276,0,0,3.7795276,-94.722403,456.88739)"
     style="opacity:0.37435897"><ellipse
       style="opacity:0.992674;fill:#b4b5b0;fill-opacity:1;stroke-width:0.264999"
       id="path33149-0-0"
       cx="334.24979"
       cy="-111.18526"
       rx="10.712687"
       ry="11.820895" /><circle
       style="opacity:0.992674;fill:#b4b5b0;fill-opacity:1;stroke-width:0.264999"
       id="path33147-4-1"
       cx="203.075"
       cy="86.353821"
       r="10.158582" /><circle
       style="opacity:0.992674;fill:#b4b5b0;fill-opacity:1;stroke-width:0.264999"
       id="path33145-7-9"
       cx="91.057838"
       cy="100.29291"
       r="9.0503731" /><circle
       style="opacity:0.992674;fill:#b4b4b1;fill-opacity:0.888889;stroke-width:0.264999"
       id="path33208-9-5"
       cx="118.94776"
       cy="49.1306"
       r="3.3246269" /><ellipse
       style="opacity:0.992674;fill:#b4b4b1;fill-opacity:0.888889;stroke-width:0.264999"
       id="path33210-4-3"
       cx="36.570892"
       cy="64.460823"
       rx="6.6492538"
       ry="7.2033582" /><ellipse
       style="opacity:0.992674;fill:#b4b4b1;fill-opacity:0.888889;stroke-width:0.264999"
       id="path33212-6-9"
       cx="21.556799"
       cy="22.776962"
       rx="9.235075"
       ry="9.0503731" /><ellipse
       style="opacity:0.992674;fill:#b4b4b1;fill-opacity:0.888889;stroke-width:0.264999"
       id="path33214-9-8"
       cx="165.67725"
       cy="72.402985"
       rx="15.330223"
       ry="14.406716" /><ellipse
       style="opacity:0.992674;fill:#b4b4b1;fill-opacity:0.888889;stroke-width:0.264999"
       id="path33216-3-9"
       cx="76.097015"
       cy="24.934698"
       rx="2.9552238"
       ry="3.1399255" /><ellipse
       style="opacity:0.992674;fill:#b4b4b1;fill-opacity:0.888889;stroke-width:0.264999"
       id="path33218-9-8"
       cx="118.94776"
       cy="19.208956"
       rx="2.5858207"
       ry="2.2164178" /><ellipse
       style="opacity:0.992674;fill:#b4b4b1;fill-opacity:0.888889;stroke-width:0.264999"
       id="path33220-6-2"
       cx="158.10448"
       cy="119.50186"
       rx="1.1082089"
       ry="1.6623135" /><ellipse
       style="opacity:0.992674;fill:#b4b4b1;fill-opacity:0.888889;stroke-width:0.264999"
       id="path33222-7-4"
       cx="71.294777"
       cy="64.276123"
       rx="5.1716413"
       ry="4.4328356" /><ellipse
       style="opacity:0.992674;fill:#b4b4b1;fill-opacity:0.888889;stroke-width:0.264999"
       id="path33224-8-3"
       cx="188.89731"
       cy="50.677418"
       rx="1.6623135"
       ry="2.4011195" /><ellipse
       style="opacity:0.992674;fill:#b4b4b1;fill-opacity:0.888889;stroke-width:0.264999"
       id="path33226-5-5"
       cx="127.99814"
       cy="81.822754"
       rx="1.6623135"
       ry="1.2929103" /><ellipse
       style="opacity:0.992674;fill:#b4b4b1;fill-opacity:0.888889;stroke-width:0.264999"
       id="path33228-8-3"
       cx="151.27052"
       cy="36.755596"
       rx="10.158582"
       ry="10.527985" /><circle
       style="opacity:0.992674;fill:#b4b4b1;fill-opacity:0.888889;stroke-width:0.264999"
       id="path33230-6-4"
       cx="288.31363"
       cy="20.11937"
       r="2.5858207" /><ellipse
       style="opacity:0.992674;fill:#b4b4b1;fill-opacity:0.888889;stroke-width:0.264999"
       id="path33232-6-5"
       cx="96.800491"
       cy="-50.318279"
       rx="2.0317163"
       ry="1.6623135" /><ellipse
       style="opacity:0.992674;fill:#b4b4b1;fill-opacity:0.888889;stroke-width:0.264999"
       id="path33234-4-1"
       cx="197.82263"
       cy="-11.694603"
       rx="4.0634327"
       ry="4.4328356" /><ellipse
       style="opacity:0.992674;fill:#b4b4b1;fill-opacity:0.888889;stroke-width:0.264999"
       id="path33236-5-7"
       cx="100.77205"
       cy="69.614594"
       rx="2.7705224"
       ry="3.1399255" /><ellipse
       style="opacity:0.992674;fill:#b4b4b1;fill-opacity:0.888889;stroke-width:0.264999"
       id="path33238-1-7"
       cx="59.473881"
       cy="85.8862"
       rx="2.5858207"
       ry="2.7705224" /><ellipse
       style="opacity:0.992674;fill:#b4b4b1;fill-opacity:0.888889;stroke-width:0.264999"
       id="path33240-8-1"
       cx="25.488804"
       cy="88.102615"
       rx="1.8470149"
       ry="2.0317163" /><ellipse
       style="opacity:0.992674;fill:#b4b4b1;fill-opacity:0.888889;stroke-width:0.264999"
       id="path33242-0-1"
       cx="52.085815"
       cy="39.156719"
       rx="1.8470149"
       ry="2.2164178" /><ellipse
       style="opacity:0.992674;fill:#b4b4b1;fill-opacity:0.888889;stroke-width:0.264999"
       id="path33244-4-6"
       cx="93.089554"
       cy="45.067162"
       rx="2.5858207"
       ry="1.8470149" /></g><g
     inkscape:label="Vrstva 1"
     id="layer1-7-8-4"
     transform="matrix(3.7795276,0,0,3.7795276,418.27931,-311.29979)"
     style="opacity:0.37435897"><ellipse
       style="opacity:0.992674;fill:#b4b5b0;fill-opacity:1;stroke-width:0.264999"
       id="path33149-0-0-0"
       cx="74.619392"
       cy="159.58208"
       rx="10.712687"
       ry="11.820895" /><circle
       style="opacity:0.992674;fill:#b4b5b0;fill-opacity:1;stroke-width:0.264999"
       id="path33147-4-1-1"
       cx="40.893013"
       cy="215.12492"
       r="10.158582" /><ellipse
       style="opacity:0.992674;fill:#b4b4b1;fill-opacity:0.888889;stroke-width:0.264999"
       id="path33234-4-1-4-4"
       cx="130.86308"
       cy="153.36285"
       rx="4.0634327"
       ry="4.4328356" /><ellipse
       style="opacity:0.992674;fill:#b4b4b1;fill-opacity:0.888889;stroke-width:0.264999"
       id="path33234-4-1-4-4-3"
       cx="27.846203"
       cy="176.33284"
       rx="4.0634327"
       ry="4.4328356" /><circle
       style="opacity:0.992674;fill:#b4b5b0;fill-opacity:1;stroke-width:0.264999"
       id="path33145-7-9-4"
       cx="91.057838"
       cy="100.29291"
       r="9.0503731" /><circle
       style="opacity:0.992674;fill:#b4b4b1;fill-opacity:0.888889;stroke-width:0.264999"
       id="path33208-9-5-3"
       cx="118.94776"
       cy="49.1306"
       r="3.3246269" /><ellipse
       style="opacity:0.992674;fill:#b4b4b1;fill-opacity:0.888889;stroke-width:0.264999"
       id="path33210-4-3-4"
       cx="36.570892"
       cy="64.460823"
       rx="6.6492538"
       ry="7.2033582" /><ellipse
       style="opacity:0.992674;fill:#b4b4b1;fill-opacity:0.888889;stroke-width:0.264999"
       id="path33212-6-9-7"
       cx="41.742538"
       cy="113.96082"
       rx="9.235075"
       ry="9.0503731" /><ellipse
       style="opacity:0.992674;fill:#b4b4b1;fill-opacity:0.888889;stroke-width:0.264999"
       id="path33214-9-8-2"
       cx="165.67725"
       cy="72.402985"
       rx="15.330223"
       ry="14.406716" /><ellipse
       style="opacity:0.992674;fill:#b4b4b1;fill-opacity:0.888889;stroke-width:0.264999"
       id="path33214-9-8-2-8"
       cx="207.42969"
       cy="141.52983"
       rx="15.330223"
       ry="14.406716" /><ellipse
       style="opacity:0.992674;fill:#b4b4b1;fill-opacity:0.888889;stroke-width:0.264999"
       id="path33216-3-9-4"
       cx="76.097015"
       cy="24.934698"
       rx="2.9552238"
       ry="3.1399255" /><ellipse
       style="opacity:0.992674;fill:#b4b4b1;fill-opacity:0.888889;stroke-width:0.264999"
       id="path33218-9-8-5"
       cx="118.94776"
       cy="19.208956"
       rx="2.5858207"
       ry="2.2164178" /><ellipse
       style="opacity:0.992674;fill:#b4b4b1;fill-opacity:0.888889;stroke-width:0.264999"
       id="path33220-6-2-4"
       cx="158.10448"
       cy="119.50186"
       rx="1.1082089"
       ry="1.6623135" /><ellipse
       style="opacity:0.992674;fill:#b4b4b1;fill-opacity:0.888889;stroke-width:0.264999"
       id="path33222-7-4-3"
       cx="71.294777"
       cy="64.276123"
       rx="5.1716413"
       ry="4.4328356" /><ellipse
       style="opacity:0.992674;fill:#b4b4b1;fill-opacity:0.888889;stroke-width:0.264999"
       id="path33224-8-3-8"
       cx="133.90857"
       cy="120.97948"
       rx="1.6623135"
       ry="2.4011195" /><ellipse
       style="opacity:0.992674;fill:#b4b4b1;fill-opacity:0.888889;stroke-width:0.264999"
       id="path33226-5-5-3"
       cx="127.99814"
       cy="81.822754"
       rx="1.6623135"
       ry="1.2929103" /><ellipse
       style="opacity:0.992674;fill:#b4b4b1;fill-opacity:0.888889;stroke-width:0.264999"
       id="path33228-8-3-1"
       cx="151.27052"
       cy="36.755596"
       rx="10.158582"
       ry="10.527985" /><circle
       style="opacity:0.992674;fill:#b4b4b1;fill-opacity:0.888889;stroke-width:0.264999"
       id="path33230-6-4-1"
       cx="176.94403"
       cy="107.12687"
       r="2.5858207" /><ellipse
       style="opacity:0.992674;fill:#b4b4b1;fill-opacity:0.888889;stroke-width:0.264999"
       id="path33232-6-5-3"
       cx="112.11381"
       cy="143.88246"
       rx="2.0317163"
       ry="1.6623135" /><ellipse
       style="opacity:0.992674;fill:#b4b4b1;fill-opacity:0.888889;stroke-width:0.264999"
       id="path33234-4-1-4"
       cx="158.84328"
       cy="140.74254"
       rx="4.0634327"
       ry="4.4328356" /><ellipse
       style="opacity:0.992674;fill:#b4b4b1;fill-opacity:0.888889;stroke-width:0.264999"
       id="path33234-4-1-4-8"
       cx="158.70549"
       cy="141.52983"
       rx="4.0634327"
       ry="4.4328356" /><ellipse
       style="opacity:0.992674;fill:#b4b4b1;fill-opacity:0.888889;stroke-width:0.264999"
       id="path33236-5-7-8"
       cx="78.498131"
       cy="129.47575"
       rx="2.7705224"
       ry="3.1399255" /><ellipse
       style="opacity:0.992674;fill:#b4b4b1;fill-opacity:0.888889;stroke-width:0.264999"
       id="path33238-1-7-9"
       cx="59.473881"
       cy="85.8862"
       rx="2.5858207"
       ry="2.7705224" /><ellipse
       style="opacity:0.992674;fill:#b4b4b1;fill-opacity:0.888889;stroke-width:0.264999"
       id="path33240-8-1-8"
       cx="25.488804"
       cy="88.102615"
       rx="1.8470149"
       ry="2.0317163" /><ellipse
       style="opacity:0.992674;fill:#b4b4b1;fill-opacity:0.888889;stroke-width:0.264999"
       id="path33242-0-1-0"
       cx="52.085815"
       cy="39.156719"
       rx="1.8470149"
       ry="2.2164178" /><ellipse
       style="opacity:0.992674;fill:#b4b4b1;fill-opacity:0.888889;stroke-width:0.264999"
       id="path33244-4-6-1"
       cx="93.089554"
       cy="45.067162"
       rx="2.5858207"
       ry="1.8470149" /></g></svg>
