<?xml version="1.0" encoding="UTF-8" standalone="no"?>
<svg
   width="1122.52"
   height="793.70099"
   viewBox="0 0 1122.52 793.70099"
   fill="none"
   version="1.1"
   id="svg11"
   sodipodi:docname="vztek - úkol.svg"
   xml:space="preserve"
   inkscape:version="1.2.2 (732a01da63, 2022-12-09)"
   inkscape:export-filename="vztek - úkol.jpg"
   inkscape:export-xdpi="96"
   inkscape:export-ydpi="96"
   xmlns:inkscape="http://www.inkscape.org/namespaces/inkscape"
   xmlns:sodipodi="http://sodipodi.sourceforge.net/DTD/sodipodi-0.dtd"
   xmlns="http://www.w3.org/2000/svg"
   xmlns:svg="http://www.w3.org/2000/svg"><sodipodi:namedview
     id="namedview13"
     pagecolor="#ffffff"
     bordercolor="#000000"
     borderopacity="0.25"
     inkscape:showpageshadow="2"
     inkscape:pageopacity="0.0"
     inkscape:pagecheckerboard="0"
     inkscape:deskcolor="#d1d1d1"
     showgrid="false"
     inkscape:zoom="0.52072539"
     inkscape:cx="747.99502"
     inkscape:cy="688.46269"
     inkscape:window-width="1920"
     inkscape:window-height="991"
     inkscape:window-x="-9"
     inkscape:window-y="-9"
     inkscape:window-maximized="1"
     inkscape:current-layer="layer1" /><rect
     width="1169.3881"
     height="810.40796"
     rx="38.121861"
     fill="url(#paint0_linear_622_84)"
     id="rect2"
     x="-19.203979"
     y="-11.522388"
     style="fill:url(#paint0_linear_622_84);stroke-width:1.00023" /><defs
     id="defs9"><linearGradient
       id="paint0_linear_622_84"
       x1="613.5"
       y1="0"
       x2="613.5"
       y2="1498.34"
       gradientUnits="userSpaceOnUse"
       gradientTransform="translate(1.4299428e-6)"><stop
         stop-color="#E95D5D"
         id="stop4" /><stop
         offset="1"
         stop-color="#E95D5D"
         stop-opacity="0"
         id="stop6" /></linearGradient><clipPath
       clipPathUnits="userSpaceOnUse"
       id="clipPath2072"><path
         id="path2074"
         style="fill:#ff0000;fill-opacity:1;fill-rule:nonzero;stroke:none;stroke-width:0.264583"
         d="m -277.83626,318.11547 c -1.59795,0.4344 -3.1977,0.86249 -4.80023,1.28003 -0.90736,0.20455 -1.79623,0.41119 -2.67943,0.61235 1.96995,7.39754 3.28853,14.97132 4.06074,22.59449 0.52541,0.37256 1.04516,0.75367 1.56684,1.12861 0.80923,0.57764 1.59938,1.18491 2.41742,1.7508 3.65019,0.36674 7.29115,0.81693 10.9275,1.30122 0.086,-0.70953 0.16767,-1.41973 0.25889,-2.12857 0.16553,-1.28606 0.68517,-5.19692 0.84593,-6.40993 0.14118,-1.07103 0.2826,-2.1417 0.42376,-3.21273 0.35147,-2.66665 1.15028,-4.75591 2.19883,-6.29676 -2.64603,-1.62209 -5.26199,-3.29211 -7.81504,-5.05913 -0.8686,-0.60119 -1.72254,-1.22341 -2.58381,-1.83504 -1.64984,-1.1865 -3.24242,-2.44758 -4.8214,-3.72534 z" /></clipPath><clipPath
       clipPathUnits="userSpaceOnUse"
       id="clipPath8329"><path
         id="path8331"
         style="fill:#ff0000;fill-opacity:1;fill-rule:nonzero;stroke:none;stroke-width:0.264583"
         d="M 16.134416,33.647041 V 201.29934 H 176.79748 c 0.19399,-0.50931 0.39248,-1.01657 0.60875,-1.5167 0.0696,-0.16099 0.14398,-0.31989 0.21549,-0.48008 V 33.647041 Z" /></clipPath><clipPath
       clipPathUnits="userSpaceOnUse"
       id="clipPath8421"><path
         id="path8423"
         style="fill:#ff0000;fill-opacity:1;fill-rule:nonzero;stroke:none;stroke-width:0.264583"
         d="M 17.556034,23.607345 V 200.05239 H 177.2946 c 0.0376,-0.0898 0.073,-0.18041 0.11163,-0.26975 1.26775,-2.93186 2.84304,-5.73762 4.93148,-8.16746 1.22556,-1.42592 2.1049,-2.04766 3.54035,-3.22771 0.50809,-0.34731 1.00853,-0.70628 1.52445,-1.0418 1.16282,-0.75616 2.38021,-1.41834 3.60754,-2.06189 V 23.607345 Z" /></clipPath><clipPath
       clipPathUnits="userSpaceOnUse"
       id="clipPath8635"><path
         id="path8637"
         style="fill:#ff0000;fill-opacity:1;fill-rule:nonzero;stroke:none;stroke-width:0.264583"
         d="m 208.87562,195.05683 c 0.0406,1.38765 0.0727,2.7337 0.10904,4.29948 0.007,0.43012 0.0156,0.86024 0.0227,1.29036 0.13007,-0.43813 0.26185,-0.87576 0.40927,-1.30845 0.0469,-0.12881 0.0906,-0.2589 0.14056,-0.38654 0.21735,-0.55458 0.49469,-1.08667 0.82321,-1.58388 -0.59872,-0.54743 -0.69833,-1.50999 -0.0625,-2.31097 z m 17.33435,5.3e-4 c 0.3783,0.17479 0.7523,0.35912 1.12034,0.55553 0.78269,0.42604 1.4588,1.00948 2.12442,1.59473 0.38408,0.33897 0.38379,0.33957 0.58549,0.51987 0.10979,-0.0336 0.21982,-0.0514 0.32866,-0.0537 0.6265,-0.0138 1.21177,0.48088 1.46658,1.38338 0.0302,-0.003 0.0603,-0.008 0.0904,-0.008 0.9198,-0.0191 1.83077,0.90029 1.75596,2.7187 -0.0349,0.84836 -0.0177,0.41781 -0.0522,1.29191 -0.0361,1.06041 -0.0668,2.12093 -0.0889,3.18171 0.0776,0.35159 0.081,0.76579 -0.0217,1.23611 -0.009,0.59584 -0.0102,1.19153 0.005,1.78748 0.0393,1.41704 -0.49849,2.31552 -1.16686,2.65617 -0.0899,0.80246 -0.35299,1.57515 -0.67541,2.31459 -0.0753,0.17277 -0.15819,0.34205 -0.23719,0.51315 -0.2472,0.49654 -0.51279,0.98732 -0.83251,1.44177 -0.10843,0.15413 -0.21736,0.30891 -0.34158,0.45062 -0.15608,0.17802 -0.31565,0.35559 -0.49764,0.50694 -0.23225,0.19309 -0.4932,0.34783 -0.74001,0.52193 -0.22756,0.12301 -0.45509,0.24648 -0.68265,0.36949 -2.01393,1.08864 -3.44013,0.10854 -3.33468,-1.14928 -0.53991,0.10383 -1.08326,0.18771 -1.63194,0.23771 -0.25466,0.0205 -0.50926,0.0462 -0.76429,0.0615 -0.2279,0.0136 -0.45681,0.0233 -0.68575,0.0274 -0.63367,0.0973 -1.16616,0.0476 -1.58802,-0.10025 -0.19351,-0.0313 -0.38602,-0.0685 -0.57671,-0.11834 -0.12375,-0.0359 -0.24828,-0.0683 -0.37103,-0.10749 -0.40739,-0.13006 -0.79931,-0.30329 -1.17667,-0.50332 -0.6082,0.23351 -1.43026,0.19348 -2.35593,-0.33383 -0.33206,-0.18916 -0.6476,-0.40395 -0.9524,-0.63459 -0.56334,-0.41387 -1.12016,-0.83983 -1.61489,-1.33584 -0.0912,-0.0978 -0.18638,-0.19196 -0.27388,-0.293 -0.28378,-0.32759 -0.50132,-0.70396 -0.6997,-1.08727 -0.10656,-0.2149 -0.21235,-0.43022 -0.31833,-0.64544 -0.48906,-0.58332 -0.94515,-1.19249 -1.39578,-1.80558 -0.42113,-0.5694 -0.76243,-1.19428 -1.03508,-1.84743 -0.0644,-0.15425 -0.12088,-0.31133 -0.18138,-0.46715 -0.10963,-0.3017 -0.19943,-0.60939 -0.27337,-0.92088 0.0782,4.35953 0.15789,8.71924 0.22582,13.07879 0.006,0.41462 0.0103,0.82924 0.016,1.24385 5.75356,-0.69343 11.53692,-1.12482 17.32143,-1.46244 2.99859,-0.18246 6.00122,-0.25653 9.00358,-0.33228 -0.0718,-3.22256 -0.21721,-6.44403 -0.32711,-9.66556 -0.16232,-4.9392 -0.26755,-9.88032 -0.36277,-14.82132 z m -8.32456,2.61328 c -0.22764,0.30691 -0.54674,0.61121 -0.96997,0.89555 -0.29226,0.19636 -0.5692,0.41384 -0.85008,0.62581 -0.25436,0.18891 -0.48846,0.40183 -0.69608,0.64078 -0.27369,0.37076 -0.44099,0.80948 -0.62683,1.22784 -0.0355,0.0829 -0.0697,0.1664 -0.10439,0.24959 -0.0134,0.51689 -0.0247,1.03383 -0.0233,1.55081 2e-4,0.21154 0.007,0.42308 0.0103,0.63459 0.0258,0.86621 0.0945,1.73284 0.23513,2.58847 0.0233,0.14199 0.052,0.28275 0.078,0.42427 0.15767,0.82608 0.39212,1.63456 0.64751,2.43499 0.14973,0.47649 0.33446,0.94014 0.55397,1.38854 0.0622,0.12505 0.13014,0.24757 0.20774,0.36381 0.0315,0.0471 0.0648,0.10072 0.11472,0.13022 0.24764,0.23644 0.50791,0.45873 0.77205,0.67645 0.3702,0.28724 0.75465,0.55613 1.14308,0.81803 0.4367,0.27139 0.87006,0.54828 1.31465,0.80667 0.32453,0.19888 0.67381,0.34314 1.04128,0.43874 0.063,0.0132 0.12512,0.0294 0.18862,0.0398 0.0305,0.005 0.0692,0.008 0.10335,0.0119 0.33444,-0.25699 0.77846,-0.47501 1.34255,-0.62115 0.30537,-0.0791 0.59063,-0.21295 0.8692,-0.35812 0.49571,-0.27538 0.98121,-0.56762 1.47588,-0.84491 0.42528,-0.24714 0.8596,-0.4772 1.30069,-0.69453 0.3391,-0.1748 0.69901,-0.30157 1.05162,-0.44493 0.1917,-0.0793 0.38783,-0.14606 0.58136,-0.22066 0.14487,-0.0559 0.0903,-0.0289 0.1757,-0.0744 0.23561,-0.12592 0.45327,-0.28121 0.66042,-0.44907 0.0952,-0.0721 0.17285,-0.15232 0.24133,-0.2403 -0.0164,-0.1937 -0.0322,-0.38755 -0.0455,-0.58136 -0.10396,-1.27574 -0.19008,-2.55278 -0.26148,-3.83077 -0.0767,-1.05309 -0.15713,-2.10709 -0.15813,-3.16363 0.0102,-0.39399 0.0226,-0.7909 0.0594,-1.18494 -0.16517,-0.11076 -0.33162,-0.23541 -0.50022,-0.38603 -0.48371,-0.43207 -0.24383,-0.2191 -0.71986,-0.63923 -0.42094,-0.37121 -0.84166,-0.75091 -1.31981,-1.04748 -0.20082,-0.0452 -0.41074,-0.1073 -0.62942,-0.18966 -0.52771,-0.19874 -1.07855,-0.3273 -1.62419,-0.46612 -0.90475,-0.21482 -1.83248,-0.30881 -2.75694,-0.39171 -0.6772,-0.0597 -1.35662,-0.089 -2.03605,-0.10593 -0.28219,-0.006 -0.56423,-0.009 -0.84646,-0.0119 z" /></clipPath><clipPath
       clipPathUnits="userSpaceOnUse"
       id="clipPath8329-0"><path
         id="path8331-2"
         style="fill:#ff0000;fill-opacity:1;fill-rule:nonzero;stroke:none;stroke-width:0.264583"
         d="M 16.134416,33.647041 V 201.29934 H 176.79748 c 0.19399,-0.50931 0.39248,-1.01657 0.60875,-1.5167 0.0696,-0.16099 0.14398,-0.31989 0.21549,-0.48008 V 33.647041 Z" /></clipPath></defs><g
     inkscape:label="Vrstva 1"
     id="layer1"
     transform="matrix(3.7795276,0,0,3.7795276,-331.35817,-620.64181)"><path
       id="path7867"
       clip-path="url(#clipPath8329)"
       style="fill:#f9594d;fill-opacity:0.29444444;stroke-width:0.807446"
       d="m 142.24093,33.654277 c -0.0651,0.01195 -0.1227,0.04002 -0.16743,0.09353 -2.35471,2.816869 1.78721,7.172499 1.95337,10.840165 0.001,4.441635 -1.52127,12.955235 -3.90622,15.863114 -8.18872,2.216962 -7.63641,6.953831 -15.30869,6.672846 -1.95251,-0.09845 -16.13744,-6.741594 -17.89239,-5.880129 -5.0224,3.077821 -6.14081,7.77103 -7.253819,9.782349 -2.430709,7.06916 -5.111508,11.29603 -10.044348,16.391764 -11.058654,6.745556 -21.84168,-4.634664 -31.805811,-4.229716 -14.405571,1.429668 -19.44989,20.59486 -29.18997,23.80623 -2.302588,0.39473 -8.318923,-3.209 -10.125004,-1.72718 -0.771018,0.63259 -0.850779,1.87731 -0.897531,3.25612 -0.08358,2.46497 0.04451,4.5471 -0.0153,6.32905 -0.02578,0.76815 0.0962,1.9733 0.135093,2.76172 0.12906,2.61634 0.391771,5.12771 0.85141,7.63645 0.54665,2.98365 0.752088,5.03412 1.542792,7.96255 0.630518,2.99898 2.190297,7.98051 2.729851,9.43777 0.7335,1.98109 2.490581,5.72157 3.41149,7.62279 0.737159,1.52187 0.998112,2.77333 2.345013,3.79575 1.875794,1.42389 3.860441,1.65721 6.169636,2.11947 22.106384,7.69082 -0.386734,-26.71353 3.943157,-31.17463 5.600967,-3.88802 6.065428,-18.72734 11.244492,-16.79821 3.314499,1.23461 10.941648,19.31038 15.281293,18.85472 35.642406,-9.35317 13.696893,30.99739 27.137361,40.14793 2.76195,0.7478 2.159556,-12.69712 4.274692,-10.77002 1.61859,1.47471 8.688673,6.44603 11.542243,8.34074 3.51838,2.33615 5.49803,8.03701 6.34997,10.64803 0.2399,0.73524 5.23621,8.11124 5.56358,8.98681 1.61728,4.32547 -1.19728,10.18293 1.21954,13.93274 0.59034,-0.192 1.73887,-0.37296 3.2229,-0.71703 1.64248,-0.3808 4.43297,-1.19581 6.51415,-1.80571 1.99267,-0.58396 3.31271,-1.24722 4.93326,-1.86398 1.79711,-0.68395 3.15183,-1.27396 3.56054,-1.62383 0.12995,-0.11125 0.12177,-0.14157 0.0568,-0.21636 -2.18262,-2.53772 -9.63313,0.39431 -11.78631,-2.16843 -2.19788,-2.61596 -3.06034,-10.23208 -4.24405,-11.16682 -1.18372,-0.93475 -6.5696,-9.68062 -10.09805,-14.56717 -3.45885,-4.79017 -14.252591,-11.91877 -12.6261,-17.76015 0.36944,-1.14298 1.85848,-1.57597 2.95951,-2.05621 2.40633,-1.04959 5.11999,-1.16422 7.69358,-1.68258 2.35986,-0.47531 4.7602,-0.75324 7.10241,-1.30897 1.73287,-0.41115 3.47823,-0.82806 5.12941,-1.49551 7.56717,-4.58973 20.72187,-4.1413 25.34406,1.71675 1.98959,2.52157 -1.80506,13.7425 0.89464,15.48271 5.67099,3.65549 13.05707,13.19313 19.15749,13.16716 0.2145,0.003 0.69222,-0.92104 2.27635,-2.52491 0.53241,-0.53905 0.51754,-1.35291 1.56063,-1.96887 1.28983,-0.76167 3.00541,-3.51806 2.6634,-4.87464 -3.48772,-0.70491 -8.57237,0.4147 -10.31915,-1.93184 -1.93293,-2.59662 -0.39896,-8.79718 -1.72611,-12.33603 -1.16742,-2.83935 -7.42933,4.03015 -8.65107,1.21373 -0.94213,-2.17186 3.73871,-14.42302 2.14036,-16.1694 -1.25657,-1.37294 -3.16863,-2.02205 -4.932,-2.61741 -5.80944,-1.96141 -12.2539,-1.3073 -18.1498,-2.99104 -3.28568,-0.93831 -6.34651,-2.53957 -9.46971,-3.92585 -2.3944,-1.0628 -5.082,-1.69762 -7.1024,-3.36517 -2.74255,-2.26357 -5.91822,-7.85223 -6.3128,-8.59999 -0.39457,-0.74781 -4.73459,-5.23412 -4.73459,-6.54276 -1.01538,-5.366828 -2.02442,-10.718708 5.32629,-11.591026 0.78914,0 6.116,-0.37362 7.10241,-0.37362 0.9864,0 5.32661,1.495516 6.7076,1.495516 1.38098,0 5.82085,-0.241614 8.6806,-0.747758 1.40879,-0.24934 2.80942,-0.603554 4.1429,-1.121896 1.51794,-0.590038 3.55116,-1.869368 4.34031,-2.243274 0.78911,-0.373875 2.95905,-1.121972 3.94549,-2.056722 1.72343,-1.286522 3.70509,-9.230553 6.04988,-9.532409 3.31429,-0.426668 9.62362,4.59789 12.25376,4.581446 11.64139,0.543448 2.6473,-11.313973 -2.71854,-15.05195 -3.02023,-1.754644 -6.9318,-4.285883 -6.19394,-7.885824 0.34217,-1.438109 1.98936,-2.326093 3.34812,-2.908349 1.71729,-0.735897 0.56236,-0.881623 2.4286,-0.969849 1.67213,-0.07905 3.27571,4.335075 4.70677,3.466563 l 2.28476,-1.386625 c 0.79504,-0.482509 3.27614,2.506981 3.60938,1.638739 0.89676,-2.336473 -3.50544,-6.40318 -5.39094,-8.04883 -1.49514,-1.304953 -1.74646,-2.106405 -2.67839,-2.963355 -0.66987,-0.615978 -1.17456,-0.980155 -1.91909,-2.196925 -0.94105,-1.537944 -6.20945,-5.251252 -9.22091,-6.931648 -2.63378,-1.469651 -4.68588,-3.540973 -7.58218,-4.382427 -1.45129,-0.421639 -1.31961,-0.565983 -2.82507,-0.69869 -0.20844,-0.01837 -0.34824,-0.129379 -0.54367,-0.09353 z"
       sodipodi:nodetypes="scccccccccssssscsssccsccsssscsssscssscssscsscsscscsssssscccssssscscccsssssssssssss"
       transform="matrix(1.4338265,0,0,1.3177397,59.954027,115.82717)" /><path
       id="path7867-2"
       clip-path="url(#clipPath8329-0)"
       style="fill:#f9594d;fill-opacity:0.294444;stroke-width:0.807446"
       d="M 121.3295 198.35695 C 121.91984 198.16495 123.06822 197.98391 124.55225 197.63984 C 126.19473 197.25904 128.98514 196.44427 131.06632 195.83437 C 133.05899 195.25041 134.37923 194.58715 135.99978 193.97039 C 137.79689 193.28646 139.15138 192.69633 139.56009 192.34646 C 139.69004 192.23521 139.6821 192.20495 139.61715 192.13016 C 137.43453 189.59244 129.98387 192.52459 127.83071 189.96185 C 125.63283 187.34591 124.7703 179.72972 123.58661 178.79498 C 122.40289 177.86025 117.01724 169.11423 113.48879 164.22768 C 110.02996 159.43753 99.236259 152.30883 100.86274 146.46747 C 101.23218 145.32449 102.72086 144.89168 103.82189 144.41144 C 106.22822 143.36185 108.94199 143.2469 111.51558 142.72854 C 113.87544 142.25323 116.2758 141.97569 118.61801 141.41996 C 120.35088 141.00881 122.09621 140.59186 123.74739 139.92441 C 131.31454 135.3347 144.46936 135.78308 149.09153 141.64113 C 151.08112 144.16268 147.2866 155.38358 149.9863 157.12379 C 155.65727 160.77928 163.0433 170.317 169.1437 170.29103 C 169.3582 170.29403 169.83603 169.36986 171.42016 167.76599 C 171.95257 167.22696 171.93773 166.41306 172.98082 165.7971 C 174.27063 165.03543 175.98588 162.27898 175.64387 160.9224 C 172.15615 160.21749 167.07152 161.3372 165.32474 158.99066 C 163.39181 156.39404 164.92587 150.19326 163.59872 146.65443 C 162.4313 143.81508 156.16937 150.68457 154.94763 147.86815 C 154.0055 145.69629 158.6866 133.4453 157.08825 131.69892 C 155.83168 130.32598 153.91954 129.67703 152.15617 129.08167 C 146.34675 127.12026 139.90204 127.77437 134.00614 126.09063 C 130.72048 125.15232 127.65987 123.55083 124.53669 122.16455 C 122.14229 121.10175 119.4547 120.46694 117.4343 118.79939 C 116.16352 117.75055 114.80939 115.99103 113.67238 114.32678 L 87.71959 157.9245 C 88.271769 161.91207 89.522381 165.2736 92.379377 167.21869 C 95.141321 167.96649 94.538974 154.5218 96.654104 156.4489 C 98.272692 157.92359 105.34274 162.89497 108.19631 164.78968 C 111.71469 167.12581 113.69439 172.82671 114.54633 175.43771 C 114.78623 176.17295 119.78252 183.54856 120.10989 184.42411 C 121.72717 188.74958 118.91268 194.60716 121.3295 198.35695 z M 126.26936 93.165307 C 128.07517 93.113463 131.69129 92.884547 134.20381 92.439856 C 135.6126 92.190518 137.01297 91.836254 138.34645 91.317912 C 139.86439 90.727876 141.89765 89.448602 142.68678 89.074696 C 143.47589 88.700823 145.64577 87.952808 146.63221 87.01806 C 148.35564 85.73154 150.33734 77.787216 152.68213 77.485362 C 155.9964 77.058694 162.30584 82.083408 164.93598 82.066964 C 167.2549 82.175216 168.75284 81.790253 169.62594 81.076588 L 144.15262 63.123472 L 126.26936 93.165307 z "
       transform="matrix(-1.2034349,0.77948883,-0.71637912,-1.1060013,610.72554,332.01898)" /><ellipse
       style="fill:#d0130f;fill-opacity:0.50833333;stroke-width:0.264999"
       id="path9030"
       cx="255.66258"
       cy="198.0121"
       rx="5.8829532"
       ry="2.7632051" /><ellipse
       style="fill:#d0130f;fill-opacity:0.56666666;stroke-width:0.264999"
       id="path9030-1"
       cx="319.87598"
       cy="305.97284"
       rx="5.8829532"
       ry="2.7632051" /><ellipse
       style="fill:#d0130f;fill-opacity:0.28055555;stroke-width:0.264999"
       id="path9030-8"
       cx="121.20679"
       cy="191.14107"
       rx="5.8829532"
       ry="2.7632051" /><ellipse
       style="fill:#d0130f;fill-opacity:0.43333331;stroke-width:0.264999"
       id="path9032"
       cx="232.4696"
       cy="227.16879"
       rx="2.5849338"
       ry="3.7436974" /><ellipse
       style="fill:#d0130f;fill-opacity:1;stroke-width:0.264999"
       id="path9034"
       cx="300.83664"
       cy="196.32785"
       rx="0.89135659"
       ry="1.2478992" /><ellipse
       style="fill:#d0130f;fill-opacity:0.50833333;stroke-width:0.264999"
       id="path9036"
       cx="353.1593"
       cy="175.2027"
       rx="2.0501199"
       ry="1.8718487" /><ellipse
       style="fill:#d0130f;fill-opacity:0.52499998;stroke-width:0.264999"
       id="path9038"
       cx="304.13467"
       cy="244.81766"
       rx="4.3676472"
       ry="1.0696279" /><ellipse
       style="fill:#d0130f;fill-opacity:0.53888887;stroke-width:0.264999"
       id="path9040"
       cx="187.99318"
       cy="184.56615"
       rx="1.4261705"
       ry="2.1392558" /><ellipse
       style="fill:#d0130f;fill-opacity:1;stroke-width:0.264999"
       id="path9042"
       cx="351.91138"
       cy="240.00433"
       rx="1.5153061"
       ry="1.4261705" /><ellipse
       style="fill:#d0130f;fill-opacity:0.60000002;stroke-width:0.264999"
       id="path9044"
       cx="311.71121"
       cy="173.06345"
       rx="1.7827132"
       ry="1.3370348" /><ellipse
       style="fill:#d0130f;fill-opacity:0.56111109;stroke-width:0.264999"
       id="path9030-5"
       cx="135.13287"
       cy="328.71307"
       rx="5.8829532"
       ry="2.7632051" /><ellipse
       style="fill:#d0130f;fill-opacity:0.57222223;stroke-width:0.264999"
       id="path9032-0"
       cx="95.680519"
       cy="346.18335"
       rx="2.5849338"
       ry="3.7436974" /><ellipse
       style="fill:#d0130f;fill-opacity:0.60833335;stroke-width:0.264999"
       id="path9034-7"
       cx="164.04753"
       cy="315.34241"
       rx="0.89135659"
       ry="1.2478992" /><ellipse
       style="fill:#d0130f;fill-opacity:0.57222223;stroke-width:0.264999"
       id="path9036-7"
       cx="216.37019"
       cy="294.21725"
       rx="2.0501199"
       ry="1.8718487" /><ellipse
       style="fill:#d0130f;fill-opacity:0.60000002;stroke-width:0.264999"
       id="path9038-2"
       cx="167.34557"
       cy="363.83221"
       rx="4.3676472"
       ry="1.0696279" /><ellipse
       style="fill:#d0130f;fill-opacity:0.6111111;stroke-width:0.264999"
       id="path9042-0"
       cx="215.12227"
       cy="359.01889"
       rx="1.5153061"
       ry="1.4261705" /><ellipse
       style="fill:#d0130f;fill-opacity:0.55833334;stroke-width:0.264999"
       id="path9044-9"
       cx="174.9221"
       cy="292.078"
       rx="1.7827132"
       ry="1.3370348" /></g></svg>
