<?xml version="1.0" encoding="UTF-8" standalone="no"?>
<svg
   width="1227"
   height="772"
   viewBox="0 0 1227 772"
   fill="none"
   version="1.1"
   id="svg16"
   sodipodi:docname="láska - úkol.svg"
   xml:space="preserve"
   inkscape:version="1.2.2 (732a01da63, 2022-12-09)"
   xmlns:inkscape="http://www.inkscape.org/namespaces/inkscape"
   xmlns:sodipodi="http://sodipodi.sourceforge.net/DTD/sodipodi-0.dtd"
   xmlns="http://www.w3.org/2000/svg"
   xmlns:svg="http://www.w3.org/2000/svg"><defs
     id="defs20"><clipPath
       clipPathUnits="userSpaceOnUse"
       id="clipPath4659"><path
         id="path4661"
         style="fill:#ff0000;fill-opacity:1;fill-rule:nonzero;stroke:none;stroke-width:0.264583"
         d="m 729.6671,67.870276 c -0.0476,0.389634 -0.1007,0.778532 -0.14314,1.168922 0.0544,0.06527 0.10959,0.129865 0.1638,0.195336 0.0659,-0.420854 0.0903,-0.895712 0.11938,-1.364258 z m -157.02608,6.762896 c -1.94361,0.146053 -3.96487,0.06657 -5.88958,0.46147 v 1.761133 c 1.46942,0.902335 2.81313,2.697922 3.56569,5.49837 0.0564,0.209957 0.12827,0.414647 0.19481,0.621152 3.6685,-0.561743 7.776,-1.044771 3.63855,-4.250386 -0.57457,-0.44517 -1.24587,-0.729877 -1.96424,-0.834057 -0.14285,-0.02072 -0.23085,-0.02885 -0.29559,-0.03256 -0.0236,0.01521 -0.057,0.0185 -0.0832,0.01654 -0.0763,0.108357 -0.0583,0.07543 -0.003,0 -0.0401,-0.0033 -0.0548,-0.0177 0.0151,-0.01913 0.0381,-0.05441 0.0737,-0.105373 0.16952,-0.247528 0.90125,-1.337199 1.87534,-2.310641 2.85149,-2.968813 -0.73255,-7.94e-4 -1.46526,-0.0054 -2.19779,-0.0062 z m -0.75036,3.225125 c 0.0145,-0.0094 0.0257,-0.02278 0.0279,-0.04289 0.0675,-0.04467 0.13843,-0.07767 0.19172,-0.137978 0.0143,-0.01609 0.0651,-0.05427 0.0455,-0.04547 -0.0814,0.0365 -0.15298,0.09185 -0.22995,0.136943 -0.003,-0.03754 -0.0555,0.02347 -0.10438,0.08682 0.0164,-2.62e-4 0.0421,0.0011 0.0692,0.0026 z m 8.99895,-3.201871 c 0.29718,0.289653 0.55036,0.632672 0.75396,1.019575 0.0833,-0.0099 0.16761,-0.01704 0.25321,-0.02016 0.15282,0.0072 0.182,0.008 0.2377,0.01035 -0.11973,-0.004 -0.25416,-0.0057 -0.0801,0.01447 4.33096,0.500785 2.5491,2.040599 -0.018,3.786333 -0.0512,0.245333 -0.11782,0.496404 -0.19638,0.751891 3.74801,-1.371606 8.55057,-3.731091 6.227,1.444357 -0.10417,0.232024 -0.20847,0.464056 -0.31263,0.696082 -0.57153,0.908548 -0.66392,1.194808 -1.55806,1.937348 -1.04232,0.865643 -2.32224,1.269709 -3.64368,1.422654 -0.27863,0.008 -0.55742,0.02577 -0.83614,0.02376 -0.70945,-0.005 -1.41623,-0.134467 -2.10788,-0.279054 -0.33657,-0.07036 -0.63468,-0.146105 -0.89815,-0.226859 -0.0416,0.03969 -0.0799,0.08284 -0.12298,0.120923 -1.0682,0.944036 -2.32823,1.626536 -3.67366,2.086178 -0.30734,0.0878 -0.611,0.189479 -0.92191,0.263549 -0.42196,0.100508 -0.89541,0.180269 -1.35756,0.224277 0.65752,1.406123 1.3067,2.816109 1.90014,4.250902 0.68982,1.605166 1.03227,3.251967 1.26092,4.973857 0.22717,2.336218 0.21556,4.689621 0.24286,7.034701 0.003,1.67258 0.0466,3.34389 0.14161,5.01366 -0.003,0.57373 0.16343,1.11725 0.29043,1.67277 0.12994,0.63918 0.37407,1.2347 0.63304,1.82933 0.0494,0.11342 0.0901,0.22359 0.13539,0.33539 0.25794,0.16547 0.51821,0.34451 0.78081,0.53949 0.78433,0.58234 1.54197,1.19951 2.32545,1.78285 0.42236,0.29459 0.84648,0.59273 1.30379,0.83198 0.21476,0.11236 0.44101,0.20158 0.66146,0.30231 0.70043,0.28698 1.38866,0.60832 2.1141,0.8289 0.2404,0.0629 0.48966,0.0858 0.73636,0.10954 4.56033,0.43869 6.80381,2.81192 6.93862,5.14853 3.79968,0.89195 7.55414,1.96029 11.11612,3.59669 3.2466,1.35372 6.42207,2.87897 9.7286,4.08552 0.0757,0.023 0.15301,0.0438 0.22892,0.0661 -4.10462,-2.33802 -2.99781,-8.28346 4.4483,-9.17877 0.0781,-0.009 0.15611,-0.0189 0.23411,-0.0279 0.16785,-0.0239 0.25064,-0.0331 0.4165,-0.0667 0.0945,-0.0191 0.42289,-0.14244 0.49869,-0.0837 0.0894,-0.0473 0.18484,-0.0835 0.27078,-0.13694 0.4913,-0.30565 0.86463,-0.77279 1.30741,-1.13792 0.81071,-0.76944 1.53069,-1.6201 2.24017,-2.48253 0.70165,-0.84332 1.38943,-1.69803 2.10013,-2.5337 0.50512,-0.63028 0.94861,-1.30609 1.30069,-2.03451 0.56126,-1.06836 1.12734,-2.13471 1.72136,-3.18534 0.75657,-1.30544 1.52968,-2.60378 2.4076,-3.83232 0.5135,-0.76141 1.03489,-1.51875 1.4986,-2.312 0.12525,-0.26546 0.26125,-0.50052 0.26924,-0.80771 0.0427,-0.3161 0.0276,-0.63511 0.0265,-0.95342 -0.003,-0.49648 -0.008,-0.99292 -0.0151,-1.48931 -0.0135,-0.8249 -0.0251,-1.651032 -0.0987,-2.473238 -0.10274,-0.989717 -0.25937,-1.97381 -0.47956,-2.944522 -0.25498,-1.080976 -0.57785,-2.147168 -1.00922,-3.171901 -2.29984,-5.463107 0.0708,-9.004906 3.18481,-9.053711 1.15523,-0.0181 2.4125,0.445722 3.57188,1.469162 0.3629,-1.066392 0.80377,-1.815468 1.4211,-1.827795 0.53956,-0.01077 1.21359,0.539907 2.08619,1.925982 0.58018,0.92157 0.92601,1.939144 1.17874,2.991546 0.16701,0.682863 0.3215,1.368652 0.45268,2.059307 0.0127,0.0634 0.0236,0.12709 0.0346,0.190686 0.6858,-3.053453 1.48973,-6.081263 2.50891,-9.039757 -3.16529,0.07557 -6.30161,-0.240337 -9.41909,-0.777732 -2.82893,-0.50786 -5.55839,-1.431031 -8.34004,-2.124419 -1.07447,2.69503 -4.85592,4.373433 -9.48005,1.666565 -0.34192,-0.200147 -0.67923,-0.406077 -1.01028,-0.623734 -0.0909,-0.05923 -0.18267,-0.117554 -0.2744,-0.175699 -0.64016,1.699271 -2.80911,1.578396 -3.33208,-0.815454 -0.10719,-0.155114 -0.19323,-0.314724 -0.2372,-0.45217 -0.0685,-0.213945 -0.0765,-0.44319 -0.11472,-0.664559 0.074,-0.104958 0.14364,-0.213874 0.21134,-0.324528 -0.32935,-0.204954 -0.64902,-0.42532 -0.95289,-0.666625 -2.56342,-0.161409 -5.13194,-0.250214 -7.6993,-0.325562 -5.36503,-0.13411 -10.73234,-0.193024 -16.09873,-0.237194 -2.37069,-0.01582 -4.74144,-0.01423 -7.11224,-0.02016 z m 58.44501,35.339964 c -0.005,0.008 -0.01,0.0156 -0.0151,0.0233 0.005,-0.002 0.01,-0.004 0.0151,-0.006 z m -16.68013,20.25199 c -1.02537,0.40261 -2.10542,0.65296 -3.1941,0.83561 -0.17897,0.0241 -0.35796,0.0479 -0.53692,0.0724 -0.92107,0.12398 -1.76755,0.14837 -2.53783,0.0899 1.38123,0.38868 2.75611,0.79906 4.07984,1.32447 0.44972,0.17849 0.91059,0.34047 1.36737,0.51005 0.25318,-0.9793 0.53131,-1.9164 0.82164,-2.83239 z m 43.22683,2.51974 c -1.57784,0.0881 0.53181,0.10888 0.50538,0.16227 -0.0498,0.10041 -1.58501,0.46406 0.3602,0.001 0.0188,-0.005 0.0371,-0.011 0.0558,-0.016 -0.30781,-0.0468 -0.61753,-0.0865 -0.92138,-0.14728 z m 63.97024,64.22967 c -0.61552,0.32396 -1.23237,0.64667 -1.84949,0.9679 0.86419,8.24146 1.53517,14.87106 1.84949,19.98328 z m 0,31.14591 c -0.63105,5.50376 -2.7219,7.72422 -7.02333,8.87181 3.03863,2.88689 5.69335,5.98919 7.02386,9.83351 z m 0,24.49566 c -1.17549,3.73335 -4.11101,7.42571 -5.84718,10.94145 -0.7515,1.52177 -2.44097,2.36169 -3.73208,3.46336 -1.06741,0.91104 -2.21255,1.72834 -3.33518,2.5709 h 12.91497 z m -83.62846,15.59131 c -0.005,0.0804 -0.0164,0.16031 -0.0201,0.24079 -0.0175,0.3796 -0.0254,0.7624 -0.0103,1.14361 h 0.48009 c -0.0244,-0.18568 -0.0531,-0.37166 -0.0636,-0.55655 -0.21775,-0.45331 -0.23389,-0.50326 -0.38602,-0.82785 z m -52.65312,0.83817 c -0.7453,0.15158 -1.49931,0.29866 -2.25827,0.44133 1.3e-4,0.0348 0,0.0701 0,0.1049 h 3.58428 c -0.44722,-0.17523 -0.88918,-0.35742 -1.32601,-0.54623 z" /></clipPath></defs><sodipodi:namedview
     id="namedview18"
     pagecolor="#ffffff"
     bordercolor="#000000"
     borderopacity="0.25"
     inkscape:showpageshadow="2"
     inkscape:pageopacity="0.0"
     inkscape:pagecheckerboard="0"
     inkscape:deskcolor="#d1d1d1"
     showgrid="false"
     inkscape:zoom="0.52072539"
     inkscape:cx="1051.4179"
     inkscape:cy="289.0199"
     inkscape:window-width="1920"
     inkscape:window-height="991"
     inkscape:window-x="-9"
     inkscape:window-y="-9"
     inkscape:window-maximized="1"
     inkscape:current-layer="g54503" /><rect
     width="1227"
     height="772"
     rx="40"
     fill="#FCD1EB"
     id="rect2" /><g
     id="g54503"
     transform="matrix(3.7795276,0,0,3.7795276,1176.4021,-355.86393)"><path
       id="path4303"
       clip-path="url(#clipPath4659)"
       style="fill:#ff55a5;fill-opacity:0.272222;stroke-width:0.264583"
       transform="matrix(9.1835105,0,0,7.2818873,-5692.6587,-536.89452)"
       d="m 604.87902,77.13087 c -0.14441,-6.4e-4 -0.29353,1.49e-4 -0.44653,0.003 -1.83603,0.03196 -4.22619,0.296455 -5.61588,0.661532 -0.5457,0.14333 -1.37927,0.361315 -1.85222,0.484515 -1.18604,0.30898 -3.48123,1.553441 -4.72447,2.434992 0,0 10.9353,-1.015865 14.71781,1.655257 1.34202,0.947691 5.79372,-1.486094 8.00197,0.944332 3.17673,3.496307 6.0531,1.414714 6.0531,1.414714 -0.1045,-0.204821 -0.60986,-0.650253 -1.3843,-1.438554 -0.55469,-0.564741 -1.08188,-0.982703 -1.49425,-1.311215 -0.38148,-0.303951 -0.68,-0.54049 -0.91912,-0.670954 -0.28719,-0.156754 -0.35868,-0.215838 -0.57609,-0.138759 -0.22738,0.08063 -0.30766,-0.03471 -0.19153,-0.2227 0.11517,-0.186336 -0.25816,-0.270449 -0.75912,-0.481088 -0.44926,-0.188852 -0.58761,-0.234079 -0.48821,-0.333479 0.0994,-0.09939 -0.51588,-0.402286 -0.70264,-0.402286 -0.20917,0 0.23387,0.41847 0.31917,0.744616 0.11588,0.443072 0.0257,0.227553 -0.64533,0.227553 -0.6527,0 -0.74494,-0.06802 -0.49726,-0.366455 0.24296,-0.292756 0.16515,-0.401324 -0.38703,-0.539904 -0.89702,-0.22523 -1.93594,0.06918 -1.40857,0.399289 0.21513,0.134696 -0.23344,0.161838 -1.08953,0.06624 -1.77797,-0.198666 -2.0428,-0.353036 -0.60571,-0.353036 0.62836,0 1.20597,-0.163802 1.39938,-0.396862 0.2752,-0.331566 0.23707,-0.396862 -0.23211,-0.396862 -0.32848,0 -0.56156,-0.168601 -0.56156,-0.406141 0,-0.327812 0.10479,-0.350027 0.54374,-0.115205 0.29911,0.16004 0.76887,0.347944 0.9427,0.281944 0.38312,-0.145356 -1.79092,-0.972741 -2.49508,-0.972741 -0.39174,0 -0.21328,0.390649 -0.11448,0.907787 0.0935,0.48906 0.0128,0.304356 -0.30957,0.304356 -0.23982,0 -0.5045,0.178586 -0.5883,0.396862 -0.18968,0.494242 -0.92106,0.499832 -3.05582,0.02513 -0.91856,-0.204476 -2.62267,-0.452353 -3.78684,-0.550753 -3.20316,-0.270876 -4.79463,-0.681665 -1.98438,-0.512495 1.23692,0.07446 2.51686,0.202699 2.84428,0.284799 0.83286,0.209042 0.7437,-0.277825 -0.13231,-0.717635 -0.72089,-0.361942 -0.71406,-0.366679 0.72773,-0.511639 0.80037,-0.0805 1.6338,-0.06729 1.85208,0.02941 0.21829,0.09628 0.8731,0.09385 1.45518,-0.008 1.03413,-0.179206 1.0308,-0.05214 -0.73239,-0.304642 -0.32226,-0.04615 -0.64329,-0.112998 -1.07651,-0.114918 z m 3.50949,0.5045 c -0.11989,0 -0.23987,0.0184 -0.33082,0.0551 -0.1819,0.07336 -0.033,0.133477 0.33082,0.133477 0.36383,0 0.51258,-0.06008 0.33068,-0.133477 -0.091,-0.0367 -0.21079,-0.0551 -0.33068,-0.0551 z m -7.8221,0.186011 c 0.4843,8.7e-4 1.00969,0.09251 1.20113,0.213706 0.43328,0.274316 -0.60945,0.26281 -1.61024,-0.01842 -0.49988,-0.140382 -0.44299,-0.176091 0.31287,-0.194291 0.0318,-7.67e-4 0.0639,-0.0011 0.0962,-9.99e-4 z m 12.25933,1.241408 c -0.1695,0.0019 -0.25,0.0415 0.0111,0.189009 0.50793,0.328392 0.92443,0.392362 0.72142,0.06395 -0.0899,-0.145517 -0.0684,-0.178018 -0.29435,-0.2217 -0.12068,-0.01132 -0.30634,-0.03271 -0.43818,-0.03126 z m -19.48326,4.36691 c -2.7971,-4.03e-4 -4.7993,0.423439 -5.10286,0.737336 -0.49342,0.510216 -1.30109,1.363879 -1.91336,2.315362 0,0 7.87151,-3.997519 13.62718,1.903796 1.33122,1.364906 6.90541,1.725272 9.46208,1.278809 2.60884,-0.455565 4.08667,-1.761951 6.36815,0.06453 3.80855,3.048942 9.50884,2.196589 9.50884,2.196589 -0.0593,-0.166787 -0.0945,-0.231766 -0.16932,-0.451823 -0.0122,-0.03594 -0.0795,-0.207585 -0.0882,-0.23569 -0.0614,-0.199135 -0.19426,-0.412589 -0.27557,-0.655537 -0.20611,-0.615776 -0.52421,-1.11365 -0.69483,-1.409003 -0.13142,-0.2275 -2.48131,2.700414 -7.73682,-2.821433 -2.53985,-2.668587 -7.10599,2.128825 -10.17569,0.317918 -4.30307,-2.538515 -9.21338,-3.240332 -12.80965,-3.24085 z m -9.23587,6.914823 c -0.1741,0.374252 -0.28873,0.659279 -0.41555,0.973168 -0.17585,0.435272 -0.35862,0.894802 -0.5122,1.441552 0,0 9.358,2.673225 14.0866,3.363763 4.86554,0.710543 11.31518,-2.410801 17.40195,-1.521923 6.11089,0.892405 11.94866,4.50153 11.94866,4.50153 l -0.0259,-1.06439 c -0.0803,-0.885248 -0.149,-1.787202 -0.25816,-1.9589 -5.97067,-0.823879 -11.50363,-6.341754 -15.50037,-4.361772 -4.20412,2.082701 -12.31239,3.04025 -16.08552,1.124491 -3.15552,-1.602178 -7.16076,-2.025997 -10.6395,-2.497519 z m 5.56159,5.700538 c -3.2588,-0.0054 -7.38063,0.854253 -7.38063,0.854253 -0.0934,0.495049 -0.10476,0.995099 -0.12764,1.512216 l -4.1e-4,0.0057 c -0.0291,0.389863 -0.0273,0.606617 -0.0255,0.971742 0.001,0.304136 -0.008,0.699509 0.0247,1.014139 0,0 5.21482,-0.22927 11.48088,0.67338 6.30216,0.90786 15.20453,4.47016 20.26212,3.82301 6.52662,-0.8351 11.50748,1.73406 11.50748,1.73406 0.16212,-0.31548 0.28959,-0.68802 0.46422,-1.33634 0.19131,-0.71027 0.32329,-1.4469 0.40267,-1.90851 0.0275,-0.15985 0.0553,-0.27827 0.0651,-0.36503 0,0 -7.58842,-4.333298 -14.35148,-3.617579 -16.78584,1.776409 -14.94271,-2.467248 -20.63161,-3.258123 -0.51265,-0.07127 -1.08641,-0.101935 -1.6899,-0.102928 z m 4.25819,9.10699 c -1.02818,-0.004 -1.9437,0.15371 -2.66426,0.53776 -3.53381,2.0964 -8.7316,-1.53599 -8.10754,0.47109 0.0517,0.1558 0.11487,0.38695 0.15547,0.50979 0.0248,0.0751 0.0516,0.13363 0.0724,0.18815 0.0186,0.0489 0.0285,0.0818 0.0516,0.14518 0.0892,0.27631 0.17687,0.54788 0.27297,0.66682 0.40169,0.49725 0.67945,0.61813 2.24843,0.96132 3.55755,0.77898 10.14408,-0.18455 15.94417,0.64868 1.96887,0.75045 2.22918,1.97594 4.3462,2.16004 1.19338,0.10378 2.77233,-0.24794 4.22501,-0.28936 3.74748,-0.10683 6.55908,1.31951 10.36393,2.10551 0.60993,0.12607 0.73887,0.47492 1.69126,-0.92164 0.3377,-0.49519 0.8411,-1.28883 1.03524,-1.5873 0,0 -2.747,1.32612 -5.24557,-0.36103 -5.82455,-3.93296 -10.68289,-1.01184 -12.80527,-1.92921 -2.80222,-1.21122 -7.9119,-3.29103 -11.58398,-3.3058 z m -7.79975,6.68655 c -0.14509,-0.002 -0.22407,0.0283 -0.19317,0.12006 0.0215,0.0498 0.1041,0.15838 0.18316,0.2621 0.0443,0.0581 0.11492,0.15436 0.16864,0.23198 0.23896,0.34537 0.55523,0.83587 1.0447,1.34034 0.91784,1.12816 1.83311,2.06018 2.19688,2.28695 0.3638,0.22677 4.27401,-1.23729 4.19649,0.58216 -0.0943,2.21441 4.6523,-0.86392 10.52653,0.79144 1.46979,0.41418 3.62136,2.02777 5.13247,0.81728 1.01433,-0.81253 2.64685,0.89849 2.70745,0.95589 1.64502,0.32756 2.09947,0.27004 2.73665,-0.0143 1.01444,-0.44874 3.58904,-2.36585 4.11821,-2.81501 0.0905,-0.0768 -0.70128,-0.29429 -0.92666,-0.37445 -4.14791,-1.0531 -6.80206,0.12853 -8.66389,0.84169 0,0 -2.44297,0.64343 -10.2611,-1.29023 -3.70768,-0.91702 -5.26864,-2.03707 -7.87899,-2.58403 -1.28982,-0.7951 -1.96525,-1.10594 -3.40502,-0.97445 -0.50838,0.0464 -1.31155,-0.172 -1.68235,-0.17745 z" /><path
       id="path35112"
       style="fill:#ef0051;fill-opacity:0.42500001;stroke-width:0.238563"
       d="m -7.6911826,93.175602 c -1.616278,0 -2.031738,0.09605 -3.3465664,0.776697 -2.702266,1.398872 -3.92158,3.777656 -3.88245,7.572661 0.02671,2.59145 0.595822,4.28683 3.251481,9.68365 1.6771044,3.40817 2.3597334,5.10624 3.1765504,7.90081 0.05804,0.1986 0.573578,0.0661 1.65623,-0.42478 0.864587,-0.39202 3.795202,-1.28933 6.51226395,-1.99419 6.96364705,-1.80653 8.52629105,-2.4662 10.48773165,-4.42764 3.112007,-3.11202 3.075247,-8.21089 -0.08217,-11.3683 -1.2204146,-1.220415 -2.1032816,-1.695111 -3.7212186,-2.001944 -1.552965,-0.294517 -3.643986,0.189808 -5.202784,1.205614 l -1.07435305,0.70021 -0.168982,-1.294492 c -0.22796,-1.747784 -1.13169695,-3.443813 -2.45720995,-4.610571 -1.413542,-1.244256 -2.833219,-1.717725 -5.148523,-1.717725 z M -27.753007,104.3744 c -1.116361,-0.0166 -2.198591,0.13913 -3.092318,0.47594 -2.727296,1.02783 -4.495473,3.31176 -5.014681,6.47764 -0.159431,0.97212 -0.322492,1.81169 -0.362252,1.86552 -0.03974,0.0539 -0.263665,-0.0756 -0.497644,-0.28732 -0.23398,-0.21174 -1.066325,-0.68518 -1.850016,-1.05213 -1.210642,-0.56687 -1.730543,-0.66714 -3.45767,-0.66714 -1.811307,0 -2.204768,0.0843 -3.608049,0.77514 -1.924463,0.94741 -3.335669,2.42369 -4.311881,4.5098 -0.609943,1.30342 -0.728873,1.85344 -0.738973,3.41995 -0.01058,1.64416 0.08205,2.058 0.776696,3.46904 0.928858,1.88677 2.936707,3.99942 4.804358,5.0555 1.962224,1.10956 4.407675,1.90401 9.523967,3.09336 4.486134,1.04284 7.452431,1.96131 8.948808,2.77089 0.906532,0.49047 1.070735,0.49412 1.070735,0.0227 0,-0.89294 1.531767,-4.8194 3.527434,-9.04131 2.528563,-5.34927 3.234208,-7.23361 3.631819,-9.69967 0.724253,-4.49193 -1.277604,-8.45136 -5.202783,-10.28929 -1.220449,-0.57146 -2.71223,-0.87733 -4.14755,-0.89866 z m 29.9067014,17.9772 c -1.83794305,0.0211 -3.342391,1.24017 -3.959448,3.32744 -0.11001,0.37213 -0.244786,0.34001 -1.251086,-0.29817 -1.939468,-1.22997 -4.240719,-0.91039 -5.739702,0.79685 -1.7529054,1.99645 -1.4494684,4.48833 0.80822,6.63371 1.015218,0.96471 1.731748,1.35409 5.191414,2.82308 1.302241,0.55293 2.75139895,1.25708 3.22047495,1.56476 0.469086,0.30769 0.92002305,0.56561 1.00252305,0.57361 0.08248,0.008 0.292986,-0.33528 0.467672,-0.76171 0.174696,-0.42643 1.113291,-1.94465 2.085661,-3.37396 0.972371,-1.42929 2.046605,-3.20054 2.386934,-3.93619 1.466893,-3.17089 0.202941,-6.3015 -2.89388,-7.16855 -0.452868,-0.1268 -0.894642,-0.18574 -1.318783,-0.18087 z" /><path
       id="path35112-1"
       style="fill:#ef0051;fill-opacity:0.45833337;stroke-width:0.228879"
       d="m -271.23177,255.03789 c -1.45515,0 -1.82919,0.0982 -3.01294,0.79408 -2.43289,1.43019 -3.53065,3.86222 -3.49542,7.74217 0.024,2.64946 0.53642,4.38278 2.92734,9.90041 1.50993,3.48445 2.1245,5.22053 2.85989,8.07765 0.0523,0.20305 0.5164,0.0676 1.49113,-0.43428 0.77839,-0.4008 3.41686,-1.3182 5.86306,-2.03883 6.26945,-1.84697 7.67632,-2.52141 9.44223,-4.52675 2.80178,-3.18168 2.76868,-8.39468 -0.074,-11.62276 -1.09875,-1.24774 -1.89361,-1.73305 -3.35026,-2.04676 -1.39815,-0.30111 -3.28072,0.19406 -4.68412,1.2326 l -0.96725,0.71589 -0.15214,-1.32348 c -0.20523,-1.7869 -1.01888,-3.52089 -2.21226,-4.71377 -1.27262,-1.27211 -2.55078,-1.75617 -4.63528,-1.75617 z m -18.06189,11.44947 c -1.00507,-0.017 -1.97941,0.14225 -2.78405,0.48659 -2.45541,1.05084 -4.04733,3.38589 -4.51478,6.62264 -0.14353,0.99388 -0.29034,1.85224 -0.32614,1.90727 -0.0358,0.0551 -0.23738,-0.0773 -0.44803,-0.29375 -0.21066,-0.21648 -0.96002,-0.70051 -1.66559,-1.07568 -1.08996,-0.57956 -1.55803,-0.68207 -3.11298,-0.68207 -1.63074,0 -1.98498,0.0862 -3.24837,0.79249 -1.73262,0.96862 -3.00314,2.47794 -3.88204,4.61074 -0.54914,1.3326 -0.65621,1.89493 -0.6653,3.49651 -0.01,1.68096 0.0739,2.10406 0.69926,3.54669 0.83627,1.929 2.64396,4.08894 4.32542,5.16866 1.76662,1.13439 3.96829,1.94663 8.57454,3.1626 4.03892,1.06618 6.70951,2.00521 8.05672,2.83291 0.81616,0.50145 0.964,0.50518 0.964,0.0232 0,-0.91293 1.37907,-4.92728 3.17579,-9.24369 2.27649,-5.46901 2.91179,-7.39552 3.26976,-9.91678 0.65206,-4.59248 -1.15023,-8.64054 -4.68412,-10.51961 -1.09879,-0.58425 -2.44185,-0.89696 -3.73409,-0.91878 z m 26.92535,18.3796 c -1.65471,0.0216 -3.00919,1.26792 -3.56473,3.40191 -0.099,0.38047 -0.22039,0.34763 -1.12636,-0.30484 -1.74614,-1.2575 -3.81798,-0.93077 -5.16753,0.81469 -1.57816,2.04114 -1.30497,4.58879 0.72765,6.7822 0.91401,0.9863 1.55911,1.3844 4.67389,2.88627 1.17242,0.56531 2.47712,1.28522 2.89943,1.59979 0.42232,0.31457 0.82831,0.57827 0.90258,0.58644 0.0743,0.008 0.26379,-0.34278 0.42106,-0.77876 0.15728,-0.43598 1.0023,-1.98817 1.87774,-3.44948 0.87544,-1.46128 1.84259,-3.27218 2.14899,-4.02429 1.32066,-3.24187 0.1827,-6.44256 -2.6054,-7.32902 -0.40772,-0.12964 -0.80546,-0.18989 -1.18732,-0.18491 z" /><path
       id="path35112-9"
       style="fill:#ef0051;fill-opacity:0.43333331;stroke-width:0.163132"
       d="m -277.55222,95.481253 c -0.0971,0.0014 -0.19641,0.0041 -0.29817,0.0083 -1.13658,0.04632 -1.42598,0.122324 -2.33216,0.611849 -1.86241,1.006072 -2.65558,2.620014 -2.52543,5.138188 0.0889,1.71955 0.53519,2.82899 2.54868,6.33553 1.27155,2.21443 1.7974,3.32194 2.4474,5.15369 0.0462,0.13018 0.40485,0.0277 1.1529,-0.32918 0.59738,-0.28501 2.63423,-0.96471 4.52582,-1.5105 4.84803,-1.39881 5.92913,-1.88181 7.25537,-3.24011 2.10424,-2.15508 1.94039,-5.5387 -0.36535,-7.54424 -0.89122,-0.775197 -1.52511,-1.065345 -2.67115,-1.222669 -1.10002,-0.15101 -2.55746,0.230807 -3.62614,0.949813 l -0.73639,0.495576 -0.15348,-0.854728 c -0.20759,-1.153722 -0.88943,-2.253438 -1.85311,-2.989998 -0.96344,-0.73639 -1.91237,-1.023197 -3.36879,-1.001489 z m -13.76454,8.015527 c -0.90452,-0.013 -1.79226,0.12189 -2.5001,0.4067 -1.89006,0.76048 -3.07123,2.32712 -3.3507,4.44365 -0.0858,0.64991 -0.17762,1.21215 -0.20412,1.24902 -0.0265,0.0369 -0.18785,-0.0423 -0.35812,-0.17621 -0.17027,-0.13386 -0.76862,-0.4243 -1.32964,-0.64544 -0.86666,-0.34163 -1.23493,-0.39366 -2.44946,-0.34417 -1.27373,0.0519 -1.54751,0.11924 -2.51561,0.61805 -1.32767,0.68409 -2.28038,1.7043 -2.91042,3.11713 -0.39359,0.88274 -0.46224,1.25165 -0.42684,2.29185 0.037,1.09176 0.11311,1.36368 0.63975,2.28048 0.70422,1.2259 2.17311,2.57085 3.51503,3.21841 1.40987,0.68034 3.151,1.13784 6.78099,1.78076 3.1829,0.56373 5.29393,1.0883 6.36808,1.58285 0.65076,0.2996 0.76614,0.29691 0.75344,-0.016 -0.0242,-0.59276 0.9469,-3.24258 2.23604,-6.10247 1.63339,-3.62354 2.07846,-4.89479 2.29134,-6.54327 0.38778,-3.00269 -1.12678,-5.57362 -3.93671,-6.68124 -0.77662,-0.30612 -1.69842,-0.46709 -2.60295,-0.48008 z m 21.32894,11.07478 c -1.36232,0.006 -2.4523,0.86971 -2.84428,2.32699 -0.0673,0.25018 -0.16289,0.23255 -0.8878,-0.16226 -1.39712,-0.76093 -3.00683,-0.48281 -4.01474,0.69349 -1.17865,1.37557 -0.8979,3.0206 0.74776,4.3801 0.74002,0.61133 1.2543,0.84945 3.7269,1.72547 0.93071,0.32974 1.96866,0.75591 2.30684,0.94672 0.33819,0.19081 0.66259,0.34901 0.72089,0.35191 0.0582,0.003 0.19721,-0.23074 0.3085,-0.51883 0.11132,-0.28809 0.73001,-1.3229 1.37511,-2.2996 0.64512,-0.97669 1.35258,-2.18338 1.572,-2.68149 0.94575,-2.14701 -0.0276,-4.18884 -2.2288,-4.67568 -0.26825,-0.0593 -0.5301,-0.0879 -0.78238,-0.0868 z" /><path
       id="path35112-9-8"
       style="fill:#ef0051;fill-opacity:0.5138889;stroke-width:0.312059"
       d="m -13.606648,238.4956 c -0.8452,-0.0105 -1.49993,0.14964 -2.65927,0.53278 -3.81234,1.25988 -5.86991,4.05944 -6.5505,8.9116 -0.46472,3.31334 -0.0456,5.5884 2.3952,12.99456 1.54139,4.67705 2.10879,6.97739 2.64067,10.70374 0.0378,0.26482 0.7391,0.19636 2.25309,-0.21962 1.20904,-0.33219 5.22409,-0.90794 8.9219299,-1.279 9.47746,-0.95101 11.65361,-1.48895 14.60325,-3.61115 4.6798701,-3.36705 5.6144501,-9.88272 2.0841101,-14.52779 -1.3645701,-1.79538 -2.4303301,-2.57387 -4.4922301,-3.28042 -1.97903,-0.67818 -4.81389003,-0.46629 -7.05332,0.5271 l -1.54306,0.68471 0.0284,-1.68569 c 0.0382,-2.27551 -0.81943,-4.61604 -2.33215,-6.36343 -1.61311,-1.86339 -3.38342,-2.74459 -6.4187299,-3.19516 -0.79453,-0.11794 -1.37029,-0.18591 -1.87741,-0.19223 z m 8.6046399,39.3051 c -2.19424,-0.0806 -4.16099,1.17662 -5.2792599,3.52536 -0.21597,0.45358 -0.38667,0.38626 -1.58285,-0.62425 -2.30538,-1.9475 -5.38379,-1.98758 -7.67808,-0.0997 -2.683,2.20746 -2.76567,5.44725 -0.21963,8.62531 1.1449,1.42909 2.00887,2.06568 6.26112,4.61419 1.60058,0.95927 3.36456,2.14008 3.9201699,2.62413 0.55562,0.48408 1.09737,0.90099 1.20406,0.92759 0.10666,0.0259 0.44844,-0.37072 0.75965,-0.88108 0.31128,-0.51037 1.83445,-2.26569 3.3848,-3.90106 1.55039,-1.6353 3.30011997,-3.68757 3.88813997,-4.56044 2.53447003,-3.76239 1.48141003,-8.00516 -2.41121997,-9.71466 -0.75899,-0.33332 -1.51547,-0.50851 -2.2469,-0.53536 z" /></g></svg>
