<?xml version="1.0" encoding="UTF-8" standalone="no"?>
<svg
   width="375"
   height="229"
   viewBox="0 0 375 229"
   fill="none"
   version="1.1"
   id="svg6"
   sodipodi:docname="button_game_main.svg"
   xml:space="preserve"
   inkscape:version="1.2.2 (732a01da63, 2022-12-09)"
   xmlns:inkscape="http://www.inkscape.org/namespaces/inkscape"
   xmlns:sodipodi="http://sodipodi.sourceforge.net/DTD/sodipodi-0.dtd"
   xmlns="http://www.w3.org/2000/svg"
   xmlns:svg="http://www.w3.org/2000/svg"><defs
     id="defs10" /><sodipodi:namedview
     id="namedview8"
     pagecolor="#ffffff"
     bordercolor="#000000"
     borderopacity="0.25"
     inkscape:showpageshadow="2"
     inkscape:pageopacity="0.0"
     inkscape:pagecheckerboard="0"
     inkscape:deskcolor="#d1d1d1"
     showgrid="false"
     inkscape:zoom="1.2814381"
     inkscape:cx="211.87134"
     inkscape:cy="197.04425"
     inkscape:window-width="1920"
     inkscape:window-height="991"
     inkscape:window-x="-9"
     inkscape:window-y="-9"
     inkscape:window-maximized="1"
     inkscape:current-layer="svg6" /><ellipse
     cx="192.443"
     cy="32.6294"
     rx="192.443"
     ry="32.6294"
     transform="matrix(0.896145 0.443762 0.457595 -0.88916 0 58.0255)"
     fill="#E6A84D"
     id="ellipse2" /><ellipse
     cx="192.146"
     cy="115"
     rx="114.688"
     ry="101"
     fill="#E6A84D"
     id="ellipse4" /><path
     style="fill:#ae792d;fill-opacity:1;stroke-width:0.427568"
     d="m 182.41568,216.73399 c -22.04434,-1.65965 -43.64246,-9.1568 -61.83125,-21.46291 -5.06094,-3.42411 -15.89691,-12.92146 -19.80365,-17.35721 C 76.341738,150.1656 69.472215,115.02224 82.011059,81.891032 84.2435,75.992288 88.955177,67.072271 92.743998,61.571724 98.770731,52.822227 109.11421,42.41633 118.57812,35.581685 c 13.71811,-9.90692 31.29208,-17.455505 48.29606,-20.744707 34.65407,-6.7033614 69.73569,0.220093 97.92449,19.325681 4.80153,3.254347 15.37379,12.416031 19.04741,16.506024 25.03444,27.872123 32.19477,63.394757 19.52597,96.869337 -2.23243,5.89874 -6.94411,14.81875 -10.73293,20.3193 -6.02675,8.7495 -16.37022,19.15539 -25.83415,25.99005 -23.50844,16.9773 -53.79168,25.19021 -84.38929,22.88662 z m 20.22723,-21.585 c 17.3654,-1.6579 33.87417,-7.62375 47.59357,-17.19907 4.40074,-3.07146 12.47081,-10.21287 15.59456,-13.80001 10.09926,-11.59747 16.33302,-24.91814 18.45152,-39.4282 0.92757,-6.35325 0.70058,-17.10237 -0.48604,-23.0165 C 280.29203,84.238997 271.90075,70.027671 257.78882,57.65906 243.67584,45.289535 227.41717,37.915859 207.5345,34.867599 c -5.81885,-0.892091 -18.097,-1.218191 -24.20541,-0.642866 -17.90445,1.686352 -34.2777,7.549714 -48.18246,17.254399 -4.40074,3.071453 -12.47082,10.212859 -15.59456,13.8 -13.22069,15.181963 -19.709993,32.919785 -18.9644,51.837108 0.72175,18.31249 7.10104,33.59299 20.00946,47.92942 7.88648,8.75896 19.67277,17.17929 30.96854,22.12451 9.27515,4.0606 23.18993,7.49813 32.90519,8.12893 4.88041,0.31688 14.07644,0.2409 18.17205,-0.15011 z"
     id="path251"
     sodipodi:nodetypes="ssssssssssssssssssssssssssss" /><path
     d="m 170.49699,165.26284 c -3.05695,-0.54374 -4.84349,-1.80247 -6.45062,-4.54488 l -1.33846,-2.28389 V 111.36971 64.305357 l 1.55951,-2.459109 c 0.92934,-1.465426 2.36384,-2.840768 3.55007,-3.403675 2.7652,-1.312178 6.95306,-1.258903 9.28697,0.118123 3.16329,1.866387 61.41684,43.694264 63.34989,45.487214 2.52501,2.34199 3.35547,4.17327 3.35547,7.39909 0,3.22582 -0.83046,5.05711 -3.35547,7.39909 -1.52728,1.41661 -58.15083,42.18123 -62.62961,45.08855 -2.06183,1.33841 -4.6415,1.80597 -7.32775,1.32817 z"
     style="fill:#b86e03;stroke-width:0.544309;fill-opacity:1"
     id="path1338" /><path
     id="path1338-2"
     style="fill:#ac6600;fill-opacity:1;stroke-width:0.547764"
     d="m 171.38685,57.389861 c -1.25565,0.114914 -2.48341,0.409539 -3.51409,0.893789 -1.19971,0.563671 -2.64926,1.941503 -3.58916,3.408917 l -1.57828,2.462321 v 47.128322 47.12833 l 1.3531,2.2863 c 1.62538,2.74613 3.43279,4.00661 6.52448,4.55108 0.26944,0.0475 0.53703,0.0787 0.80395,0.10757 V 109.1123 Z" /></svg>
