<svg width="207" height="160" viewBox="0 0 207 160" fill="none" xmlns="http://www.w3.org/2000/svg">
<ellipse cx="103.5" cy="80" rx="103.5" ry="80" fill="#7581F1"/>
<path d="M51.7229 80.384C50.8909 80.384 50.0696 80.2347 49.2589 79.936C48.4696 79.616 47.8082 79.168 47.2749 78.592L47.4029 77.28V86.72H42.9549V65.696H46.7949L47.4349 68.416L47.0829 67.456C47.8082 66.8373 48.6189 66.3253 49.5149 65.92C50.4109 65.5147 51.4456 65.312 52.6189 65.312C53.9202 65.312 55.0829 65.6213 56.1069 66.24C57.1309 66.8373 57.9309 67.712 58.5069 68.864C59.1042 69.9947 59.4029 71.36 59.4029 72.96C59.4029 74.5387 59.0722 75.8827 58.4109 76.992C57.7496 78.1013 56.8429 78.944 55.6909 79.52C54.5389 80.096 53.2162 80.384 51.7229 80.384ZM50.8269 76.864C51.5522 76.864 52.2136 76.704 52.8109 76.384C53.4296 76.064 53.9202 75.616 54.2829 75.04C54.6669 74.4427 54.8589 73.7707 54.8589 73.024C54.8589 72.2347 54.6882 71.552 54.3469 70.976C54.0269 70.3787 53.5789 69.92 53.0029 69.6C52.4482 69.2587 51.8296 69.088 51.1469 69.088C50.5496 69.088 50.0162 69.1733 49.5469 69.344C49.0989 69.4933 48.6936 69.728 48.3309 70.048C47.9896 70.3467 47.6909 70.7307 47.4349 71.2V74.624C47.6056 75.072 47.8509 75.4667 48.1709 75.808C48.4909 76.1493 48.8749 76.416 49.3229 76.608C49.7922 76.7787 50.2936 76.864 50.8269 76.864ZM66.9556 66.016L67.3716 69.856L67.2756 69.28C67.681 68.448 68.2356 67.744 68.9396 67.168C69.6436 66.5707 70.337 66.112 71.0196 65.792C71.7236 65.472 72.257 65.312 72.6196 65.312L72.3956 69.792C71.3503 69.664 70.4543 69.8347 69.7076 70.304C68.961 70.7733 68.385 71.392 67.9796 72.16C67.5743 72.928 67.3716 73.7173 67.3716 74.528V80H62.9236V66.016H66.9556ZM81.4679 80.384C80.1666 80.384 78.9826 80.128 77.9159 79.616C76.8706 79.0827 76.0386 78.272 75.4199 77.184C74.8012 76.096 74.4919 74.7093 74.4919 73.024C74.4919 71.4453 74.8119 70.08 75.4519 68.928C76.0919 67.776 76.9346 66.8907 77.9799 66.272C79.0252 65.632 80.1346 65.312 81.3079 65.312C82.6946 65.312 83.7399 65.5467 84.4439 66.016C85.1692 66.464 85.7666 66.9653 86.2359 67.52L86.0439 68.064L86.4599 66.016H90.6199V80H86.1399V76.96L86.4919 77.92C86.4492 77.92 86.3212 78.048 86.1079 78.304C85.8946 78.5387 85.5746 78.8267 85.1479 79.168C84.7426 79.488 84.2306 79.7653 83.6119 80C83.0146 80.256 82.2999 80.384 81.4679 80.384ZM82.7479 76.736C83.2812 76.736 83.7612 76.6613 84.1879 76.512C84.6146 76.3413 84.9879 76.1067 85.3079 75.808C85.6279 75.488 85.9052 75.0933 86.1399 74.624V71.2C85.9692 70.7307 85.7132 70.336 85.3719 70.016C85.0306 69.6747 84.6252 69.4187 84.1559 69.248C83.6866 69.056 83.1639 68.96 82.5879 68.96C81.9479 68.96 81.3506 69.1307 80.7959 69.472C80.2626 69.792 79.8359 70.24 79.5159 70.816C79.1959 71.392 79.0359 72.0533 79.0359 72.8C79.0359 73.5467 79.2066 74.2187 79.5479 74.816C79.8892 75.4133 80.3372 75.8827 80.8919 76.224C81.4679 76.5653 82.0866 76.736 82.7479 76.736ZM101.636 80.288L93.2521 66.016H98.5641L103.332 75.68L100.58 75.584L104.708 66.016H109.7L101.764 80.288H101.636ZM112.33 66.016H116.81V80H112.33V66.016ZM112.234 61.056C112.234 60.3947 112.49 59.8507 113.002 59.424C113.535 58.9973 114.101 58.784 114.698 58.784C115.295 58.784 115.839 58.9973 116.33 59.424C116.842 59.8507 117.098 60.3947 117.098 61.056C117.098 61.7173 116.842 62.2613 116.33 62.688C115.839 63.0933 115.295 63.296 114.698 63.296C114.101 63.296 113.535 63.0933 113.002 62.688C112.49 62.2613 112.234 61.7173 112.234 61.056ZM127.12 80.384C125.818 80.384 124.656 80.0853 123.632 79.488C122.608 78.8693 121.797 77.984 121.2 76.832C120.624 75.68 120.336 74.3147 120.336 72.736C120.336 71.1573 120.656 69.8133 121.296 68.704C121.936 67.5947 122.81 66.752 123.92 66.176C125.029 65.6 126.288 65.312 127.696 65.312C128.592 65.312 129.445 65.4507 130.256 65.728C131.088 66.0053 131.781 66.432 132.336 67.008V68.416V54.752H136.784V80H132.304V77.28L132.656 78.24C131.93 78.8373 131.12 79.3493 130.224 79.776C129.328 80.1813 128.293 80.384 127.12 80.384ZM128.592 76.608C129.189 76.608 129.712 76.5333 130.16 76.384C130.629 76.2133 131.034 75.9787 131.376 75.68C131.738 75.36 132.048 74.9653 132.304 74.496V71.072C132.133 70.6027 131.866 70.208 131.504 69.888C131.162 69.5467 130.736 69.2907 130.224 69.12C129.733 68.928 129.189 68.832 128.592 68.832C127.93 68.832 127.312 69.0027 126.736 69.344C126.181 69.664 125.733 70.112 125.392 70.688C125.05 71.264 124.88 71.9253 124.88 72.672C124.88 73.4187 125.05 74.0907 125.392 74.688C125.733 75.2853 126.181 75.7547 126.736 76.096C127.312 76.4373 127.93 76.608 128.592 76.608ZM141.392 54.752H145.872V80H141.392V54.752ZM156.374 80.384C155.073 80.384 153.889 80.128 152.822 79.616C151.777 79.0827 150.945 78.272 150.326 77.184C149.707 76.096 149.398 74.7093 149.398 73.024C149.398 71.4453 149.718 70.08 150.358 68.928C150.998 67.776 151.841 66.8907 152.886 66.272C153.931 65.632 155.041 65.312 156.214 65.312C157.601 65.312 158.646 65.5467 159.35 66.016C160.075 66.464 160.673 66.9653 161.142 67.52L160.95 68.064L161.366 66.016H165.526V80H161.046V76.96L161.398 77.92C161.355 77.92 161.227 78.048 161.014 78.304C160.801 78.5387 160.481 78.8267 160.054 79.168C159.649 79.488 159.137 79.7653 158.518 80C157.921 80.256 157.206 80.384 156.374 80.384ZM157.654 76.736C158.187 76.736 158.667 76.6613 159.094 76.512C159.521 76.3413 159.894 76.1067 160.214 75.808C160.534 75.488 160.811 75.0933 161.046 74.624V71.2C160.875 70.7307 160.619 70.336 160.278 70.016C159.937 69.6747 159.531 69.4187 159.062 69.248C158.593 69.056 158.07 68.96 157.494 68.96C156.854 68.96 156.257 69.1307 155.702 69.472C155.169 69.792 154.742 70.24 154.422 70.816C154.102 71.392 153.942 72.0533 153.942 72.8C153.942 73.5467 154.113 74.2187 154.454 74.816C154.795 75.4133 155.243 75.8827 155.798 76.224C156.374 76.5653 156.993 76.736 157.654 76.736Z" fill="white"/>
</svg>
