<?xml version="1.0" encoding="UTF-8" standalone="no"?>
<!-- Created with Inkscape (http://www.inkscape.org/) -->

<svg
   width="16"
   height="16"
   viewBox="0 0 16 16"
   version="1.1"
   id="svg5"
   xml:space="preserve"
   inkscape:version="1.2.2 (732a01da63, 2022-12-09)"
   sodipodi:docname="krizek.svg"
   xmlns:inkscape="http://www.inkscape.org/namespaces/inkscape"
   xmlns:sodipodi="http://sodipodi.sourceforge.net/DTD/sodipodi-0.dtd"
   xmlns="http://www.w3.org/2000/svg"
   xmlns:svg="http://www.w3.org/2000/svg"><sodipodi:namedview
     id="namedview7"
     pagecolor="#ffffff"
     bordercolor="#000000"
     borderopacity="0.25"
     inkscape:showpageshadow="2"
     inkscape:pageopacity="0.0"
     inkscape:pagecheckerboard="0"
     inkscape:deskcolor="#d1d1d1"
     inkscape:document-units="px"
     showgrid="false"
     inkscape:zoom="25.125"
     inkscape:cx="4.8358209"
     inkscape:cy="8.6965174"
     inkscape:window-width="1920"
     inkscape:window-height="991"
     inkscape:window-x="-9"
     inkscape:window-y="-9"
     inkscape:window-maximized="1"
     inkscape:current-layer="layer1" /><defs
     id="defs2" /><g
     inkscape:label="Vrstva 1"
     inkscape:groupmode="layer"
     id="layer1"><path
       style="fill:#ff0000;stroke-width:0.0691284"
       d="M 2.2960035,15.800974 C 1.5604905,15.611567 0.91978846,15.066039 0.57639446,14.336805 l -0.213634,-0.453672 v -0.628162 -0.628162 l 0.223649,-0.482161 0.223648,-0.482161 L 2.5842025,9.8413869 4.3583465,8.0202872 2.5793085,6.1885267 0.80027046,4.3567662 l -0.218755,-0.4715003 -0.218755,-0.4715003 7.36e-4,-0.628162 C 0.36519646,1.2949628 1.4312795,0.20850684 2.8953715,0.20523272 l 0.616207,-0.001378 0.472984,0.2279876 0.472983,0.22798759 1.808109,1.83064049 1.808109,1.8306404 L 9.8584275,2.48098 11.643093,0.6408491 12.096182,0.42235191 12.549271,0.20385473 h 0.616207 0.616206 l 0.445038,0.21563891 c 0.565415,0.27396653 0.990799,0.70748646 1.260173,1.28427526 l 0.211876,0.4536726 v 0.6281621 0.628162 l -0.226074,0.4867022 -0.226075,0.4867022 -1.77301,1.8165586 -1.77301,1.8165586 1.776921,1.8250781 1.776921,1.8250777 0.221822,0.478183 0.221823,0.478183 v 0.628162 0.628162 l -0.211731,0.453672 c -0.275002,0.589242 -0.682248,1.006809 -1.248775,1.280425 l -0.455899,0.220185 h -0.616206 -0.616207 l -0.477438,-0.23046 -0.477439,-0.230461 -1.7822595,-1.808488 -1.782258,-1.808489 -1.781204,1.808247 -1.781205,1.808248 -0.457836,0.218404 c -0.504624,0.240723 -1.237781,0.329097 -1.713628,0.206558 z"
       id="path858" /></g></svg>
