<?xml version="1.0" encoding="UTF-8" standalone="no"?>
<!-- Created with Inkscape (http://www.inkscape.org/) -->

<svg
   width="461"
   height="470"
   viewBox="0 0 121.97291 124.35418"
   version="1.1"
   id="svg31481"
   inkscape:version="1.2.2 (732a01da63, 2022-12-09)"
   sodipodi:docname="družice.svg"
   xmlns:inkscape="http://www.inkscape.org/namespaces/inkscape"
   xmlns:sodipodi="http://sodipodi.sourceforge.net/DTD/sodipodi-0.dtd"
   xmlns="http://www.w3.org/2000/svg"
   xmlns:svg="http://www.w3.org/2000/svg">
  <sodipodi:namedview
     id="namedview31483"
     pagecolor="#ffffff"
     bordercolor="#000000"
     borderopacity="0.25"
     inkscape:showpageshadow="2"
     inkscape:pageopacity="0.0"
     inkscape:pagecheckerboard="0"
     inkscape:deskcolor="#d1d1d1"
     inkscape:document-units="mm"
     showgrid="false"
     inkscape:zoom="0.54110831"
     inkscape:cx="-158.93306"
     inkscape:cy="433.3698"
     inkscape:window-width="1920"
     inkscape:window-height="991"
     inkscape:window-x="2391"
     inkscape:window-y="594"
     inkscape:window-maximized="1"
     inkscape:current-layer="layer1" />
  <defs
     id="defs31478">
    <inkscape:path-effect
       effect="bspline"
       id="path-effect6786"
       is_visible="true"
       lpeversion="1"
       weight="33.333333"
       steps="2"
       helper_size="0"
       apply_no_weight="true"
       apply_with_weight="true"
       only_selected="false" />
    <inkscape:path-effect
       effect="bspline"
       id="path-effect6682"
       is_visible="true"
       lpeversion="1"
       weight="33.333333"
       steps="2"
       helper_size="0"
       apply_no_weight="true"
       apply_with_weight="true"
       only_selected="false" />
    <inkscape:path-effect
       effect="bspline"
       id="path-effect6682-8"
       is_visible="true"
       lpeversion="1"
       weight="33.333333"
       steps="2"
       helper_size="0"
       apply_no_weight="true"
       apply_with_weight="true"
       only_selected="false" />
    <inkscape:path-effect
       effect="bspline"
       id="path-effect6682-8-0"
       is_visible="true"
       lpeversion="1"
       weight="33.333333"
       steps="2"
       helper_size="0"
       apply_no_weight="true"
       apply_with_weight="true"
       only_selected="false" />
  </defs>
  <g
     inkscape:label="Vrstva 1"
     inkscape:groupmode="layer"
     id="layer1">
    <g
       id="g10405"
       transform="matrix(1.8266782,0,0,2.0915251,-90.508929,-57.429968)">
      <path
         d="m 108.49731,80.747661 c 0,-0.28382 0.2425,-0.66855 0.53889,-0.85496 1.03791,-0.65279 0.52295,-1.83995 -1.29375,-2.98255 -2.41419,-1.51836 -2.58089,-2.15021 -1.32215,-5.0113 0.81572,-1.8541 0.9307,-2.6909 0.50148,-3.64955 -0.70383,-1.57198 -1.8343,-1.56553 -4.92046,0.0281 -2.949626,1.52308 -5.359556,1.10103 -5.359556,-0.93863 0,-0.67126 -0.33815,-1.69108 -0.75145,-2.26627 -0.7273,-1.01219 -0.84648,-1.01532 -3.70862,-0.0972 -3.07245,0.98558 -4.70103,0.81366 -4.70103,-0.4963 0,-0.42015 0.30751,-1.13031 0.42494,-0.57273 0.17844,0.84728 0.53722,0.95428 2.18458,0.65153 1.08409,-0.19924 2.93922,-0.40866 4.1225,-0.46539 2.00017,-0.0959 2.19299,0.0268 2.74261,1.74515 0.87292,2.72914 1.73368,2.95164 5.472826,1.41469 1.8026,-0.74095 3.66521,-1.19576 4.13911,-1.0107 1.40507,0.54869 1.63095,2.88162 0.56978,5.8847 -0.94423,2.67212 -0.94424,2.78705 -5.4e-4,3.34741 0.53746,0.31916 1.56875,1.07879 2.29175,1.68807 1.18465,0.99832 1.24832,1.25572 0.64426,2.60487 -0.65023,1.45218 -1.57512,2.02826 -1.57512,0.98107 z"
         style="fill:#c80127;fill-opacity:1;stroke-width:0.54362"
         id="path7661" />
      <path
         d="m 113.73637,70.248436 c -0.13493,-0.249692 -0.10451,-0.703451 0.0676,-1.008359 0.60274,-1.06775 -0.41471,-1.867328 -2.55618,-2.008815 -2.84577,-0.187997 -3.29283,-0.664614 -3.5457,-3.78011 -0.16387,-2.018968 -0.46056,-2.80981 -1.29394,-3.44912 -1.36656,-1.048329 -2.35803,-0.505193 -4.31542,2.364067 -1.87082,2.74228 -4.191618,3.51674 -5.161339,1.722344 -0.319138,-0.590543 -1.101482,-1.326964 -1.738547,-1.636493 -1.121072,-0.544694 -1.227409,-0.490786 -3.308879,1.677686 -2.234419,2.327808 -3.748902,2.950841 -4.3717,1.7984 -0.199752,-0.369628 -0.266853,-1.140593 0.101548,-0.70589 0.559807,0.66056 0.926316,0.584118 2.231648,-0.465435 0.859005,-0.690693 2.391495,-1.75692 3.405517,-2.369398 1.714061,-1.035313 1.94203,-1.019041 3.242518,0.231375 2.065475,1.985953 2.928514,1.772464 5.487324,-1.357382 1.23357,-1.508866 2.65597,-2.794532 3.16087,-2.857032 1.49698,-0.185304 2.80485,1.759706 3.29904,4.906187 0.43972,2.799721 0.49436,2.900836 1.59099,2.945148 0.62457,0.02526 1.893,0.203234 2.81874,0.395512 1.51683,0.315053 1.69522,0.511231 1.80523,1.985338 0.11837,1.586699 -0.42142,2.533229 -0.91929,1.611962 z"
         style="fill:#4001c8;fill-opacity:1;stroke-width:0.54362"
         id="path7661-7" />
      <path
         d="m 86.469594,66.460804 c -0.61541,0 -2.6922,0.54839 -3.64711,0.54839 -0.71525,0 -1.67135,0.92118 -2.77862,2.67715 -2.28897,3.62998 -6.79511,7.86476 -10.28209,9.66292 -4.10209,2.11535 -12.89784,4.274035 -13.91492,3.415045 -1.65725,-1.399665 0.11764,-12.379885 3.85611,-23.855545 1.32354,-4.06276 2.66812,-7.61846 3.41897,-9.53208 3.52525,-8.98449 9.4956,-19.25574 11.8189,-20.33298 1.18472,-0.54931 1.48813,-0.4166 2.89089,1.2644 4.99554,5.98643 7.98661,18.00185 6.54241,26.28162 -0.44219,2.53514 -0.39147,3.10362 0.31801,3.56455 0.46426,0.30162 1.548,1.13318 2.4083,1.84791 1.41021,1.17159 1.49308,1.41453 0.84183,2.46777 -0.3973,0.64255 -1.17629,1.99085 -1.47268,1.99085 z"
         style="fill:#b8b7b5;fill-opacity:1;stroke-width:0.54362"
         id="path1071"
         sodipodi:nodetypes="ssssssssssssss"
         inkscape:transform-center-x="78.831199"
         inkscape:transform-center-y="-230.96158" />
      <path
         d="m 86.411532,66.656786 c -0.61541,0 -2.72335,0.306479 -3.64711,0.54839 -7.760801,2.03237 1.16018,-7.31585 1.86966,-6.85492 0.464261,0.301618 1.548,1.13318 2.4083,1.84791 1.41021,1.17159 1.49308,1.41453 0.84183,2.46777 -0.3973,0.64255 -1.17629,1.99085 -1.47268,1.99085 z m 0.0173,-0.30046 c -0.61541,0 -3.534099,0.54839 -4.489009,0.54839 -0.71525,0 2.002079,-7.31585 2.711559,-6.85492 0.46426,0.30162 1.548,1.13318 2.4083,1.84791 1.41021,1.17159 1.49308,1.41453 0.84183,2.46777 -0.3973,0.64255 -1.17629,1.99085 -1.47268,1.99085 z"
         style="fill:#73736f;fill-opacity:1;stroke-width:0.54362"
         id="path6912"
         sodipodi:nodetypes="ssssssssssss" />
      <path
         id="path1071-0"
         style="fill:#a7a6a4;fill-opacity:1;stroke-width:0.543992"
         inkscape:transform-center-x="79.15667"
         inkscape:transform-center-y="-230.32682"
         d="m 77.12266,29.497044 c 2.754958,7.400835 3.973577,16.589067 2.848632,23.578843 -0.496883,3.087356 -3.621481,13.81092 -4.865707,15.949384 -2.572075,4.42068 -7.635525,9.577524 -11.553786,11.767366 -1.070331,0.598189 -2.439317,1.252352 -3.902935,1.809558 3.191452,-0.614508 7.582275,-1.912861 10.133244,-3.219325 3.501367,-1.793217 8.000265,-6.093927 10.298674,-9.713935 0.370258,-0.583158 1.871315,-2.061336 2.784774,-3.517466 0.667651,-1.064289 1.013371,-1.845488 1.429686,-3.170124 0.724494,-2.305202 1.004982,-5.740377 1.193059,-6.811264 1.450157,-8.257007 -2.573943,-19.810045 -7.590098,-25.780016 -0.310175,-0.369156 -0.55119,-0.664387 -0.775543,-0.893021 z"
         sodipodi:nodetypes="cssscssssssc" />
      <g
         id="path6104"
         transform="matrix(0.89437822,0.44731152,-0.34963074,0.93688759,0,0)"
         style="display:inline">
        <path
           style="color:#000000;fill:#ffffff;stroke-width:0.200104;-inkscape-stroke:none"
           d="m 88.24886,19.515114 c 0,14.770053 -3.322011,28.518602 -6.058362,28.518602 -2.736351,0 -4.313055,-13.748498 -4.313055,-28.518551 0,-14.770053 1.647012,-27.0223877 4.383363,-27.0223871 2.736351,-6e-7 5.988054,12.2522832 5.988054,27.0223361 z"
           id="path6368"
           sodipodi:nodetypes="sssss" />
        <path
           style="color:#000000;fill:#c72682;fill-opacity:0;-inkscape-stroke:none"
           d="m 83.294922,-7.328125 c -0.378527,0 -0.740322,0.2073716 -1.074219,0.5761719 -0.333897,0.3688003 -0.648198,0.9031546 -0.947266,1.5859375 -0.598134,1.3655658 -1.130945,3.3276591 -1.580078,5.7519531 -0.898266,4.8485879 -1.453125,11.5396595 -1.453125,18.9296875 0,7.390028 0.554859,14.079146 1.453125,18.927734 0.449133,2.424294 0.981944,4.388341 1.580078,5.753907 0.299068,0.682783 0.613369,1.217137 0.947266,1.585937 0.333897,0.3688 0.695692,0.576172 1.074219,0.576172 0.378527,0 0.738368,-0.207372 1.072265,-0.576172 0.333898,-0.3688 0.648199,-0.903154 0.947266,-1.585937 0.598134,-1.365566 1.132898,-3.329613 1.582031,-5.753907 0.898267,-4.848588 1.453125,-11.537706 1.453125,-18.927734 0,-7.390028 -0.554858,-14.0810996 -1.453125,-18.9296875 -0.449133,-2.424294 -0.983897,-4.3863873 -1.582031,-5.7519531 C 85.015386,-5.8487985 84.701085,-6.3831528 84.367187,-6.7519531 84.03329,-7.1207534 83.673449,-7.328125 83.294922,-7.328125 Z m 0,0.1992188 c 0.30556,0 0.61266,0.1680238 0.923828,0.5117187 0.311168,0.3436949 0.618417,0.8607372 0.912109,1.53125 0.587386,1.3410256 1.120887,3.2936533 1.56836,5.70898437 0.894945,4.83066213 1.449218,11.51256813 1.449218,18.89257813 0,7.38001 -0.554273,14.061916 -1.449218,18.892578 -0.447473,2.415331 -0.980974,4.367959 -1.56836,5.708984 -0.293692,0.670513 -0.600941,1.187556 -0.912109,1.53125 -0.311168,0.343695 -0.618268,0.509766 -0.923828,0.509766 -0.30556,0 -0.614614,-0.166071 -0.925781,-0.509766 -0.311168,-0.343694 -0.618417,-0.860737 -0.91211,-1.53125 -0.587385,-1.341025 -1.120887,-3.293653 -1.568359,-5.708984 -0.894945,-4.830662 -1.449219,-11.512568 -1.449219,-18.892578 0,-7.38001 0.554274,-14.061916 1.449219,-18.89257813 0.447472,-2.41533107 0.980974,-4.36795877 1.568359,-5.70898437 0.293693,-0.6705128 0.600942,-1.1875551 0.91211,-1.53125 0.311167,-0.3436949 0.620221,-0.5117188 0.925781,-0.5117187 z"
           id="path6370" />
      </g>
      <g
         id="path6104-1"
         transform="matrix(0.5476098,0.49177683,-0.33505729,0.87928572,28.20258,-2.8115254)"
         style="display:inline;fill:#cbcac8;fill-opacity:1">
        <path
           style="color:#000000;fill:#cbcac8;fill-opacity:1;stroke-width:0.200104;-inkscape-stroke:none"
           d="m 88.24886,19.515114 c 0,14.770053 -3.322011,28.518602 -6.058362,28.518602 -2.736351,0 -4.313055,-13.748498 -4.313055,-28.518551 0,-14.770053 1.647012,-27.0223877 4.383363,-27.0223871 2.736351,-6e-7 5.988054,12.2522832 5.988054,27.0223361 z"
           id="path6368-6"
           sodipodi:nodetypes="sssss" />
      </g>
      <g
         id="path6104-1-1"
         transform="matrix(0.54760979,0.49177683,-0.3350573,0.87928572,123.62888,-3.5818067)"
         style="display:inline;fill:#c0c0bb;fill-opacity:1">
        <path
           style="color:#000000;fill:#c0c0bb;fill-opacity:1;stroke-width:0.200104;-inkscape-stroke:none"
           d="m -41.064103,92.840273 c 0,8.181107 -0.987234,16.320437 -2.635955,21.695607 -0.578841,1.88714 -0.993574,3.9096 -1.619234,5.03192 -0.8096,1.45227 -1.767957,1.73142 -1.767957,1.73142 0,0 3.236976,-17.47984 3.236976,-32.249898 0,-14.770053 -3.048136,-23.251551 -3.048136,-23.251551 0,0 0.251783,0.055 0.513005,0.275246 0.517969,0.436725 1.306256,1.392752 1.874872,2.944991 1.728621,4.718885 3.446429,13.941533 3.446429,23.822265 z"
           id="path6368-6-4"
           sodipodi:nodetypes="ssscscsss" />
      </g>
      <path
         style="opacity:1;fill:#a6a6a3;fill-opacity:1;stroke:#c72682;stroke-width:0.299236;stroke-opacity:0"
         d="m 56.899734,47.307851 c 0,0 -1.725291,3.047392 -1.725291,3.047392 0,0 4.265129,1.498958 4.265129,1.498958 3.025778,1.518017 6.051907,3.036211 7.841024,3.968442 1.789118,0.932231 2.341219,1.278408 2.893674,1.624807 0,0 0.786025,-2.092626 0.786025,-2.092626 0,0 0.33326,-0.929254 0.33326,-0.929254 -0.863416,-0.296089 -1.726481,-0.592058 -4.103015,-1.879955 -2.376535,-1.287897 -6.266166,-3.567673 -10.155633,-5.847353 0,0 -0.135173,0.609589 -0.135173,0.609589 z"
         id="path6784"
         inkscape:path-effect="#path-effect6786"
         inkscape:original-d="m 56.899734,47.307851 -1.725291,3.047392 4.265129,1.498958 c 0,0 6.051854,3.036316 9.077333,4.554052 0.552764,0.346692 1.657365,1.039197 1.657365,1.039197 l 0.786025,-2.092626 0.33326,-0.929254 c 0,0 -1.726534,-0.591903 -2.590247,-0.888268 -3.889351,-2.279502 -11.668401,-6.83904 -11.668401,-6.83904 z"
         sodipodi:nodetypes="cccccccccc" />
      <path
         style="opacity:1;fill:#cbcac8;fill-opacity:1;stroke:#c72682;stroke-width:0.264054;stroke-opacity:0"
         d="m 52.765652,43.117605 c -0.661173,0.639451 -1.186229,1.599098 -1.490549,2.640438 -0.30432,1.04134 -0.387934,2.164139 -0.336953,3.081644 0.05098,0.917504 0.236438,1.629603 0.60249,2.298852 0.366052,0.66925 0.912512,1.295656 1.677536,1.2676 0.765023,-0.02806 1.748781,-0.710296 2.435581,-1.604709 0.6868,-0.894413 1.076674,-2.001135 1.336202,-2.926521 0.259529,-0.925385 0.388663,-1.669414 0.03888,-2.644954 -0.349782,-0.975539 -1.178685,-2.182514 -1.991802,-2.626683 -0.813117,-0.444169 -1.610215,-0.125118 -2.271387,0.514333 z"
         id="path6680"
         inkscape:path-effect="#path-effect6682"
         inkscape:original-d="m 52.629626,42.797244 c -0.52485,0.959974 -1.049908,1.919621 -1.575204,2.879004 -0.0834,1.123153 -0.167017,2.245952 -0.250847,3.368469 0.185685,0.71244 0.371134,1.424542 0.556389,2.136357 0.546697,0.626742 1.093159,1.253146 1.639433,1.879281 0.984014,-0.681966 1.96777,-1.364209 2.951339,-2.046768 0.390107,-1.106469 0.779984,-2.21319 1.169657,-3.320263 0.129361,-0.743754 0.258485,-1.487785 0.387415,-2.232157 -0.828748,-1.206751 -1.657649,-2.413728 -2.486827,-3.621098 -0.796923,0.319373 -1.594022,0.638422 -2.391355,0.957175 z"
         sodipodi:nodetypes="cccccccccc" />
      <path
         style="fill:#e6e6e5;fill-opacity:1;stroke:#c72682;stroke-width:0.22348;stroke-opacity:0"
         d="m 53.095317,43.797553 c -0.551657,0.557702 -0.992765,1.391542 -1.251668,2.294582 -0.258903,0.903041 -0.335631,1.8751 -0.299557,2.668624 0.03607,0.793524 0.184855,1.408428 0.483439,1.985048 0.298585,0.57662 0.746817,1.114964 1.380364,1.08558 0.633548,-0.02938 1.452562,-0.626264 2.027147,-1.404742 0.574586,-0.778478 0.904761,-1.738668 1.125811,-2.541089 0.221049,-0.802422 0.332932,-1.447052 0.04986,-2.288796 -0.283066,-0.841745 -0.96125,-1.880535 -1.631472,-2.259412 -0.670221,-0.378878 -1.332272,-0.0975 -1.883929,0.460205 z"
         id="path6680-9"
         inkscape:path-effect="#path-effect6682-8"
         inkscape:original-d="m 52.984848,43.521265 c -0.440943,0.83412 -0.882051,1.667959 -1.323352,2.501571 -0.07661,0.972351 -0.153281,1.944415 -0.230188,2.916227 0.148964,0.615194 0.297744,1.230099 0.446354,1.844754 0.448427,0.538632 0.89666,1.076975 1.344741,1.615085 0.819226,-0.596644 1.638239,-1.193525 2.457096,-1.790679 0.330366,-0.959974 0.660546,-1.920163 0.990555,-2.880657 0.112065,-0.644394 0.223938,-1.289026 0.335658,-1.933951 -0.678063,-1.038598 -1.356244,-2.07739 -2.034651,-3.11652 -0.661915,0.281661 -1.323965,0.563043 -1.986213,0.84417 z"
         sodipodi:nodetypes="cccccccccc"
         inkscape:transform-center-x="0.39725998"
         inkscape:transform-center-y="0.072062811" />
      <path
         style="fill:#ffffff;fill-opacity:0.716667;stroke:#c72682;stroke-width:0.0702961;stroke-opacity:0"
         d="m 52.54719,44.965767 c -0.07588,0.119929 -0.227628,0.359756 -0.316697,0.619491 -0.08907,0.259736 -0.115465,0.539317 -0.103055,0.767552 0.01241,0.228235 0.06359,0.405091 0.166306,0.570935 0.102715,0.165844 0.256911,0.320681 0.474864,0.312226 0.217954,-0.0085 0.499701,-0.180128 0.697358,-0.404032 0.197658,-0.223904 0.311241,-0.500073 0.387283,-0.730861 0.07604,-0.230788 0.11453,-0.416196 0.01715,-0.658295 -0.09738,-0.242098 -0.330679,-0.540872 -0.561235,-0.649846 -0.230556,-0.108974 -0.458308,-0.02804 -0.572202,0.01243 -0.113894,0.04047 -0.113891,0.04047 -0.189774,0.160402 z"
         id="path6680-9-4"
         inkscape:path-effect="#path-effect6682-8-0"
         inkscape:original-d="m 52.623073,44.845837 c -0.151688,0.239908 -0.303433,0.479735 -0.455245,0.719496 -0.02635,0.279666 -0.05273,0.559249 -0.07919,0.838759 0.05125,0.176941 0.102427,0.353799 0.15355,0.530584 0.154263,0.154921 0.308459,0.309758 0.462603,0.464528 0.281821,-0.171606 0.563568,-0.343279 0.845262,-0.515032 0.113649,-0.276105 0.227234,-0.552273 0.34076,-0.828528 0.03855,-0.185339 0.07704,-0.370747 0.115469,-0.556239 -0.23326,-0.298719 -0.46656,-0.597494 -0.699938,-0.896366 -0.227704,0.08101 -0.455455,0.161941 -0.683274,0.242798 z"
         sodipodi:nodetypes="cccccccccc"
         inkscape:transform-center-x="0.13666325"
         inkscape:transform-center-y="0.018356255" />
      <path
         id="path6912-5"
         style="fill:#515150;fill-opacity:1;stroke-width:0.54362"
         d="m 87.047092,61.885073 c 0.0478,0.202052 0.0776,0.397008 0.0415,0.61435 0.043,0.421635 -0.1014,0.858001 -0.38447,1.513602 -0.35107,0.813103 -1.039299,2.379062 -1.390099,2.740918 0.218654,-0.04123 0.222736,-0.02946 0.411052,-0.04046 0.207411,-0.01211 0.593385,-0.04481 0.705679,-0.04481 0.29639,0 1.064628,-1.3811 1.461928,-2.023649 0.28329,-0.458148 0.405251,-0.749726 0.434165,-1.046124 0.05142,-0.527115 -0.0751,-0.723506 -1.074155,-1.54483 z"
         sodipodi:nodetypes="ccscsssssc" />
      <g
         id="rect9438"
         transform="matrix(0.8461452,0.53295243,-0.54898809,0.83583018,0,0)"
         style="display:inline">
        <path
           style="color:#000000;fill:#c0c0bb;fill-opacity:0.302778;stroke-width:0.134186;-inkscape-stroke:none"
           d="m 104.41286,6.5419194 4.24201,0.020418 c 0,0 0.047,0.061058 0.0894,0.1378971 0.0457,0.082824 0.0848,0.1840421 0.0902,0.1992742 0.023,0.064473 0.0337,0.1056061 0.0337,0.1056061 l -4.31285,-0.1013709 -0.0735,-0.1886925 z"
           id="path9454"
           sodipodi:nodetypes="ccsscccc" />
        <path
           style="color:#000000;fill:#c72682;fill-opacity:0;-inkscape-stroke:none"
           d="M 103.11523,6.4960937 V 6.5625 7.0742187 h 5.57813 v -0.578125 z m 0.13282,0.1328125 h 5.3125 v 0.3125 h -5.3125 z"
           id="path9451" />
      </g>
      <g
         id="rect9438-0"
         transform="matrix(0.8461452,0.53295243,-0.54898809,0.83583018,-0.28068189,1.1986215)"
         style="display:inline"
         inkscape:transform-center-x="-1.7188771"
         inkscape:transform-center-y="4.6421376">
        <path
           style="color:#000000;fill:#c0c0bb;fill-opacity:0.302778;stroke-width:0.134186;-inkscape-stroke:none"
           d="m 104.41948,6.5389376 4.12249,0.054586 c 0,0 0.01,0.032958 0.007,0.068161 -0.002,0.025467 0.0121,0.3500906 0.0121,0.3500906 l -4.02066,-0.1009654 -0.0631,-0.1953036 z"
           id="path9454-6"
           sodipodi:nodetypes="ccscccc" />
        <path
           style="color:#000000;fill:#c72682;fill-opacity:0;-inkscape-stroke:none"
           d="M 103.11523,6.4960937 V 6.5625 7.0742187 h 5.57813 v -0.578125 z m 0.13282,0.1328125 h 5.3125 v 0.3125 h -5.3125 z"
           id="path9451-6" />
      </g>
      <g
         id="rect9438-0-5"
         transform="matrix(0.8461452,0.53295243,-0.54898809,0.83583018,-0.68993836,2.3328466)"
         style="display:inline"
         inkscape:transform-center-x="-1.7188771"
         inkscape:transform-center-y="4.6421376">
        <path
           style="color:#000000;fill:#c0c0bb;fill-opacity:0.302778;stroke-width:0.134186;-inkscape-stroke:none"
           d="m 104.41286,6.5419194 3.89467,0.076201 0.005,0.1977073 5e-5,0.1920998 -3.75769,-0.1041837 -0.0735,-0.1886925 z"
           id="path9454-6-4"
           sodipodi:nodetypes="ccccccc" />
        <path
           style="color:#000000;fill:#c72682;fill-opacity:0;-inkscape-stroke:none"
           d="M 103.11523,6.4960937 V 6.5625 7.0742187 h 5.57813 v -0.578125 z m 0.13282,0.1328125 h 5.3125 v 0.3125 h -5.3125 z"
           id="path9451-6-1" />
      </g>
      <g
         id="rect9438-0-5-1"
         transform="matrix(0.87427069,0.48543872,-0.50201925,0.86485645,-5.0676299,8.0714875)"
         style="display:inline"
         inkscape:transform-center-x="-1.9714934"
         inkscape:transform-center-y="4.5350629">
        <path
           style="color:#000000;fill:#c0c0bb;fill-opacity:0.302778;stroke-width:0.134186;-inkscape-stroke:none"
           d="m 105.19035,6.5059343 3.50463,0.054203 c 0,0 -0.0195,0.091698 -0.0401,0.1352319 -0.0155,0.032743 -0.0336,0.071072 -0.0594,0.096379 -0.0283,0.027713 -0.10131,0.068397 -0.10131,0.068397 l -3.27475,0.06292 -0.0171,-0.2239325 z"
           id="path9454-6-4-9"
           sodipodi:nodetypes="ccsscccc" />
        <path
           style="color:#000000;fill:#c72682;fill-opacity:0;-inkscape-stroke:none"
           d="M 103.11523,6.4960937 V 6.5625 7.0742187 h 5.57813 v -0.578125 z m 0.13282,0.1328125 h 5.3125 v 0.3125 h -5.3125 z"
           id="path9451-6-1-9" />
      </g>
    </g>
  </g>
</svg>
