<svg width="85" height="87" viewBox="0 0 85 87" fill="none" xmlns="http://www.w3.org/2000/svg">
<rect x="0.441406" y="0.225098" width="84.5588" height="86.4775" rx="20" fill="#18AEFF"/>
<path d="M52.6681 28.8964C53.078 28.0829 53.8977 26.4557 54.4183 24.897C54.9388 23.3384 55.1601 21.8482 55.2347 20.3555C55.3093 18.8627 55.2371 17.3675 55.0071 15.8987C54.7772 14.43 54.3895 12.9881 54.0816 12.3311C53.7736 11.6742 53.5456 11.8032 53.3976 11.9281C53.2496 12.0529 53.1819 12.1734 53.1226 12.0117C53.0632 11.85 53.0123 11.4063 52.9364 11.0147C52.8605 10.6231 52.7597 10.2845 52.5081 10.0062C52.2565 9.72791 51.8532 9.50951 51.5373 9.52162C51.2215 9.53373 50.9931 9.77647 50.8819 9.91569C50.7708 10.0549 50.7768 10.0902 50.732 9.96152C50.6872 9.83283 50.5894 9.53365 50.4873 9.32862C50.3852 9.1236 50.2617 8.98561 49.947 8.90482C49.6324 8.82403 48.8615 8.75894 48.6509 8.87772C48.4403 8.9965 48.3992 9.49375 48.2514 9.44364C48.1036 9.39353 47.8396 8.90905 47.2955 8.59974C46.7513 8.29043 45.9269 8.15661 45.3121 8.29737C44.6973 8.43813 44.2927 8.85358 44.0517 9.33716C43.8107 9.82074 43.7336 10.3721 43.8954 10.9648C44.0572 11.5575 44.4577 12.1912 44.4236 12.4668C44.3894 12.7424 43.9205 12.6601 43.6183 12.7597C43.3161 12.8593 43.1813 13.1408 43.2011 13.4509C43.221 13.761 43.3953 14.0995 43.5919 14.4138C43.7884 14.7281 44.0071 15.0182 44.3304 15.2782C44.6538 15.5381 45.0816 15.7681 45.4019 15.8969C45.7223 16.0257 45.935 16.0535 45.9036 16.1177C45.8722 16.1819 45.5968 16.2827 45.4252 16.457C45.2536 16.6313 45.1861 16.8787 45.2018 17.1849C45.2175 17.4912 45.3163 17.856 45.5751 18.1393C45.8339 18.4226 46.2524 18.6246 46.7271 18.7386C47.2017 18.8525 47.7324 18.8785 47.8514 18.9906C47.9705 19.1027 47.6783 19.3008 47.5229 19.4512C47.3674 19.6015 47.3494 19.7034 47.3779 19.9205C47.4064 20.1376 47.4814 20.4703 47.6929 20.7162C47.9045 20.9621 48.2522 21.1217 48.6323 21.1836C49.0125 21.2456 49.425 21.2102 49.7206 21.2429C50.0162 21.2755 50.1947 21.3759 50.3685 21.468C50.5423 21.5601 50.7114 21.6438 50.9682 22.0905C51.2249 22.5372 51.5697 23.3466 51.592 24.2124C51.6143 25.0782 51.3144 26.0004 51.054 26.7252C50.7935 27.4501 50.5726 27.9777 50.2673 28.5466C49.962 29.1156 49.5724 29.726 49.5917 30.2133C49.6109 30.7006 50.0388 31.0645 50.4757 30.9999C50.9127 30.9353 51.359 30.4424 51.6577 30.156C51.9564 29.8696 52.1074 29.7898 52.1828 29.7499C52.2582 29.71 52.2582 29.71 52.6681 28.8964Z" fill="#BCDE4B"/>
<path d="M51.8702 28.6902C52.504 28.0333 53.7715 26.7195 55.0747 25.7086C56.3778 24.6978 57.7167 23.9897 59.1072 23.4181C60.4978 22.8465 61.9401 22.4112 63.4104 22.1324C64.8806 21.8537 66.3784 21.7314 67.105 21.7985C67.8315 21.8657 67.7858 22.1223 67.7172 22.3027C67.6485 22.4831 67.557 22.5869 67.7303 22.588C67.9036 22.5891 68.3415 22.4876 68.7384 22.427C69.1353 22.3663 69.4903 22.3467 69.8389 22.4884C70.1874 22.6301 70.5301 22.9339 70.6248 23.2334C70.7196 23.5328 70.5661 23.828 70.4715 23.9788C70.3768 24.1296 70.3413 24.1358 70.478 24.1344C70.6151 24.133 70.9318 24.1239 71.1605 24.1504C71.3893 24.177 71.5617 24.246 71.7441 24.5132C71.9265 24.7803 72.2474 25.4793 72.2056 25.7162C72.1637 25.9531 71.706 26.1588 71.8032 26.2802C71.9004 26.4015 72.4486 26.4855 72.9249 26.8905C73.4012 27.2954 73.8054 28.0215 73.8786 28.6437C73.9517 29.266 73.6938 29.7842 73.3162 30.1721C72.9386 30.5601 72.4417 30.8176 71.8252 30.8656C71.2087 30.9135 70.4731 30.752 70.2232 30.8766C69.9733 31.0012 70.209 31.4121 70.2159 31.7282C70.2232 32.0443 70.0014 32.265 69.7006 32.3507C69.3998 32.4364 69.0202 32.3872 68.6561 32.309C68.2919 32.2308 67.9433 32.1239 67.588 31.9089C67.2327 31.6939 66.8708 31.3711 66.6409 31.1148C66.4111 30.8585 66.3132 30.6689 66.2629 30.7199C66.2126 30.7709 66.2097 31.0623 66.1021 31.2814C65.9946 31.5005 65.7826 31.6468 65.4869 31.7351C65.1912 31.8234 64.8121 31.8536 64.4563 31.7068C64.1006 31.56 63.7683 31.2365 63.5007 30.8309C63.233 30.4253 63.03 29.9378 62.8836 29.8641C62.7373 29.7905 62.6476 30.1304 62.5573 30.3263C62.467 30.5222 62.3765 30.5733 62.1609 30.6197C61.9454 30.666 61.6047 30.7077 61.3004 30.5926C60.996 30.4774 60.7278 30.2059 60.5412 29.8712C60.3546 29.5365 60.2495 29.1388 60.1191 28.8733C59.9888 28.6078 59.8335 28.4747 59.6878 28.3431C59.5421 28.2115 59.4058 28.0815 58.8958 27.9916C58.3858 27.9016 57.5023 27.8514 56.6737 28.1216C55.8452 28.3918 55.0714 28.9824 54.4715 29.4696C53.8716 29.9569 53.4456 30.3409 53.0087 30.8177C52.5718 31.2945 52.1239 31.8642 51.6553 32.01C51.1866 32.1558 50.6977 31.878 50.612 31.4476C50.5264 31.0173 50.8437 30.4342 51.0149 30.0585C51.186 29.6828 51.211 29.5148 51.2235 29.4309C51.236 29.3469 51.2365 29.347 51.8702 28.6902Z" fill="#98B630"/>
<path d="M51.2362 29.2679C52.0026 28.1886 53.5354 26.0301 54.5008 24.4871C55.4661 22.9442 55.864 22.0168 56.2281 21.0052C56.5922 19.9937 56.9226 18.8978 57.087 18.0419C57.2513 17.186 57.2497 16.5698 57.1259 16.0706C57.002 15.5714 56.7558 15.189 56.591 14.7544C56.4262 14.3197 56.3432 13.8328 56.3966 13.4256C56.45 13.0183 56.6398 12.691 56.8764 12.5228C57.113 12.3546 57.396 12.3455 57.6519 12.4053C57.9078 12.4651 58.1367 12.5936 58.2879 12.6935C58.4391 12.7935 58.5125 12.8646 58.5862 12.936C58.3973 12.3778 58.2085 11.82 58.2172 11.2178C58.2259 10.6157 58.4324 9.96981 58.6916 9.42145C58.9508 8.8731 59.2627 8.42239 59.6586 8.24027C60.0545 8.05815 60.534 8.14457 60.8513 8.31983C61.1686 8.49509 61.3236 8.75853 61.4789 9.02234C61.4914 8.46358 61.504 7.90511 61.5811 7.40559C61.6583 6.90607 61.8 6.46596 62.1031 6.07189C62.4062 5.67782 62.8704 5.33003 63.2738 5.10281C63.6772 4.8756 64.0195 4.76897 64.3545 4.80385C64.6895 4.83873 65.017 5.0148 65.2503 5.28383C65.4835 5.55286 65.6227 5.91433 65.762 6.27617L65.6112 6.30156C66.2095 5.86699 66.808 5.43233 67.3222 5.17734C67.8365 4.92235 68.2665 4.84691 68.6756 4.95086C69.0848 5.0548 69.4731 5.33777 69.6863 5.6502C69.8995 5.96263 69.9379 6.30447 69.9242 6.69921C69.9104 7.09395 69.8445 7.54167 69.7235 7.90447C69.6025 8.26728 69.4263 8.54531 69.2501 8.82337C69.541 8.76768 69.8323 8.71193 70.135 8.78246C70.4377 8.85299 70.752 9.04941 70.9839 9.34554C71.2157 9.64166 71.3652 10.0373 71.3472 10.4497C71.3292 10.862 71.1437 11.2913 70.8996 11.7176C70.6556 12.1439 70.3527 12.5673 69.9118 12.8915C69.4709 13.2157 68.8915 13.4409 68.3123 13.6659C68.6165 13.7817 68.9212 13.8976 69.1426 14.1887C69.364 14.4798 69.5028 14.946 69.4124 15.4109C69.322 15.8759 69.0025 16.3398 68.3905 16.7249C67.7784 17.11 66.8737 17.4163 66.3093 17.5947C65.7449 17.7731 65.5204 17.8238 65.2962 17.8743C65.6961 17.9876 66.0964 18.1011 66.284 18.4171C66.4716 18.7332 66.4473 19.2519 66.3295 19.5794C66.2116 19.907 66 20.0438 65.7225 20.174C65.445 20.3041 65.1016 20.4277 64.6382 20.4222C64.1748 20.4167 63.5911 20.2821 62.9619 20.2842C62.3328 20.2864 61.6582 20.4256 60.9358 20.7782C60.2135 21.1309 59.4436 21.697 58.6959 22.3558C57.9483 23.0146 57.2229 23.7659 56.1019 25.1168C54.9809 26.4676 53.4643 28.4179 52.6099 29.5506C51.7556 30.6832 51.5636 30.998 51.3174 30.9947C51.0713 30.9914 50.7707 30.6694 50.6202 30.5084C50.4697 30.3473 50.4698 30.3472 51.2362 29.2679Z" fill="#A4C33A"/>
<path d="M50.4104 28.782C49.7207 28.7888 48.3411 28.8025 46.8054 29.0728C45.2697 29.3432 43.5781 29.8702 42.1517 30.6937C40.7253 31.5172 39.5643 32.6372 38.2873 34.1195C37.0102 35.6018 35.6171 37.4464 33.8092 40.8064C32.0014 44.1663 29.7791 49.0414 27.7059 54.2954C25.6327 59.5493 23.7089 65.182 22.6309 69.1183C21.5529 73.0547 21.3207 75.2946 21.2046 76.8099C21.0885 78.3251 21.0885 79.1156 21.4701 79.5273C21.8517 79.9389 22.6146 79.9719 25.0525 78.226C27.4905 76.4802 31.6034 72.9557 35.501 68.937C39.3985 64.9183 43.0804 60.4056 45.6179 57.0127C48.1554 53.6199 49.5486 51.3471 51.064 48.4422C52.5795 45.5373 54.2172 42.0005 54.9968 39.3653C55.7763 36.7302 55.6976 34.9967 55.3588 33.57C55.02 32.1433 54.4211 31.0234 53.668 30.2753C52.915 29.5273 52.0077 29.1513 51.5539 28.9633C51.1001 28.7752 51.1001 28.7752 50.4104 28.782Z" fill="#F97B26"/>
<path d="M52.8807 29.644C53.0667 31.1369 53.1193 32.9328 52.4248 35.4298C51.5537 38.5617 49.7236 42.7653 48.0301 46.2178C46.3366 49.6703 44.7802 52.3714 41.9446 56.4038C39.109 60.4362 34.9944 65.7997 30.639 70.576C27.4658 74.0559 24.121 77.3042 21.5093 79.5701C21.6346 79.6895 21.81 79.7709 22.0694 79.7616C22.6248 79.7417 23.5592 79.3328 25.1697 78.1795C27.1749 76.7435 30.2815 74.0905 33.4863 70.9569C33.5447 70.8997 33.6032 70.8425 33.6617 70.785C33.9932 70.4594 34.3256 70.1289 34.6579 69.7941C34.9609 69.4888 35.2622 69.1804 35.5642 68.869C38.3702 65.9757 41.0669 62.8204 43.3027 60.0173C44.1724 58.9268 44.956 57.8854 45.6667 56.9352C45.8205 56.7295 45.9773 56.5327 46.123 56.3349C48.3807 53.2692 49.6891 51.0934 51.1128 48.3646C52.6282 45.4597 54.2661 41.9229 55.0456 39.2877C55.8252 36.6525 55.7466 34.9193 55.4078 33.4926C55.069 32.0659 54.3081 30.8965 53.555 30.1484C53.3301 29.925 53.117 29.806 52.8807 29.644Z" fill="#C25206"/>
<path d="M57.503 21.7C58.6583 19.8986 59.8137 18.0971 60.9057 16.4871C61.9978 14.8772 63.0265 13.4588 63.8147 12.3885C64.6028 11.3182 65.1504 10.5961 65.4848 10.141C65.8191 9.68596 65.9403 9.49785 66.0251 9.45507C66.1098 9.41229 66.158 9.51446 66.1321 9.67828C66.1062 9.8421 66.0066 10.0679 65.0928 11.4517C64.1789 12.8356 62.4509 15.3775 61.0502 17.2786C59.6496 19.1797 58.5763 20.4399 57.503 21.7Z" fill="#8FAA33"/>
<path d="M52.9199 25.3578C53.0586 24.8641 53.1973 24.3706 53.3014 23.808C53.4054 23.2454 53.4748 22.6139 53.4691 21.9193C53.4634 21.2246 53.3824 20.4668 53.2841 19.7665C53.1859 19.0661 53.0702 18.4231 52.8159 17.7571C52.5616 17.0912 52.1685 16.4023 51.7697 15.7765C51.3708 15.1507 50.9661 14.5881 50.7233 14.3067C50.4805 14.0252 50.3996 14.0252 50.2955 14.0481C50.1914 14.0711 50.0642 14.117 50.0526 14.2377C50.0411 14.3585 50.1451 14.5537 50.3937 14.9843C50.6423 15.4149 51.0354 16.0808 51.4112 16.8099C51.7869 17.539 52.1454 18.3312 52.3708 19.0489C52.5962 19.7665 52.6887 20.4094 52.7812 20.9778C52.8737 21.5462 52.9662 22.0399 52.9893 22.7575C53.0124 23.4751 52.9662 24.4163 52.9199 25.3578Z" fill="#92B421"/>
<path d="M55.8169 27.1639C56.7392 26.8559 57.6618 26.5478 58.5392 26.3313C59.4167 26.1148 60.2492 25.9898 61.0164 25.9183C61.7837 25.8468 62.4856 25.8288 63.3317 25.9231C64.1779 26.0175 65.1681 26.2241 65.9611 26.42C66.754 26.6159 67.3496 26.8011 67.8663 27.0145C68.383 27.2278 68.8207 27.4694 69.1405 27.7081C69.4603 27.9468 69.6623 28.1825 69.6829 28.3511C69.7034 28.5196 69.5427 28.6215 69.2996 28.5988C69.0565 28.576 68.7308 28.4284 68.0299 28.162C67.3291 27.8956 66.2531 27.5105 65.2239 27.2411C64.1948 26.9718 63.2125 26.8183 62.1333 26.7358C61.0541 26.6534 59.8781 26.6421 58.8092 26.7252C57.7403 26.8084 56.7785 26.9862 55.8169 27.1639Z" fill="#7B9427"/>
<path d="M36.4993 52.4562C35.9788 51.6006 35.2071 50.6203 34.4532 50.0944C33.6994 49.5685 32.9635 49.4972 32.6224 49.6934C32.2813 49.8895 32.3351 50.353 32.748 50.8253C33.161 51.2976 33.9328 51.7788 34.5251 52.0461C35.1174 52.3134 35.5302 52.3669 35.9071 52.6522C36.284 52.9375 36.625 53.4544 36.8942 53.8465C37.1635 54.2386 37.3609 54.506 37.3249 54.2743C37.289 54.0426 37.0198 53.3118 36.4993 52.4562Z" fill="#C15205"/>
<path d="M41.0776 40.0074C41.203 40.3065 41.3553 40.6722 41.557 40.979C41.7588 41.2857 42.0098 41.5336 42.3756 41.7238C42.7414 41.9141 43.2218 42.0469 43.5406 42.1296C43.8594 42.2124 44.0165 42.2452 44.3535 42.397C44.6905 42.5488 45.2074 42.8195 45.6077 43.1759C46.008 43.5323 46.2918 43.9743 46.332 43.8809C46.3722 43.7874 46.1689 43.1586 45.8163 42.5963C45.4637 42.034 44.9616 41.5384 44.4585 41.1442C43.9554 40.7501 43.4513 40.4577 42.9194 40.2001C42.3874 39.9425 41.8276 39.7198 41.4622 39.5662C41.0969 39.4127 40.9261 39.3282 40.8899 39.4022C40.8537 39.4761 40.9522 39.7084 41.0776 40.0074Z" fill="#C15205"/>
<path d="M52.2937 46.0106L51.806 47.0107L51.5398 47.5337C51.2452 47.0742 50.9507 46.615 50.6804 46.2467C50.4102 45.8785 50.1642 45.6015 50.0065 45.364C49.8487 45.1266 49.7792 44.9286 49.762 44.801C49.7448 44.6734 49.7799 44.6165 49.8755 44.6076C49.9711 44.5988 50.1268 44.6381 50.3961 44.7501C50.6653 44.8621 51.0482 45.0467 51.3834 45.269C51.7186 45.4912 52.006 45.7508 52.2937 46.0106Z" fill="#75370E"/>
<path d="M53.6233 34.9859C53.5536 34.9859 53.414 34.9859 53.3314 35.0584C53.2487 35.131 53.2234 35.2759 53.2837 35.4965C53.3441 35.7171 53.49 36.0133 53.6614 36.2527C53.8328 36.4922 54.0295 36.6749 54.2739 36.938C54.5182 37.2011 54.81 37.5446 54.9929 37.7754C55.1757 38.0062 55.2493 38.1241 55.3231 38.2423C55.3676 38.0439 55.4079 37.8646 55.4435 37.6805C55.4792 37.4963 55.5015 37.3465 55.5222 37.207C55.543 37.0675 55.5785 36.8285 55.5987 36.6351C55.6189 36.4417 55.6292 36.2571 55.6395 36.0727C54.9906 35.7104 54.342 35.3483 54.0175 35.1671C53.693 34.9858 53.693 34.9859 53.6233 34.9859Z" fill="#75370E"/>
<path d="M46.4946 55.8228C46.1859 55.2971 45.8772 54.7716 45.5008 54.3102C45.1243 53.8488 44.6801 53.4518 44.2486 53.1083C43.8171 52.7649 43.3983 52.475 42.935 52.2166C42.4718 51.9582 41.9641 51.7313 41.8943 51.7471C41.8245 51.7629 42.1926 52.0213 42.5384 52.3269C42.8842 52.6326 43.2079 52.9855 43.5505 53.3825C43.8932 53.7795 44.2549 54.2206 44.604 54.6177C44.953 55.0147 45.2891 55.3673 45.6254 55.7202L45.9333 56.0523L46.1403 56.3088L46.4946 55.8228Z" fill="#75370E"/>
<path d="M35.1895 38.3982C34.9962 38.7107 34.8029 39.0233 34.6554 39.276C34.508 39.5288 34.4061 39.7222 34.3042 39.9154C34.7472 40.2017 35.1904 40.488 35.608 40.801C36.0255 41.114 36.4177 41.4537 36.7702 41.7658C37.1228 42.0778 37.4357 42.3622 37.6926 42.6778C37.9495 42.9935 38.1505 43.3405 38.1316 43.2351C38.1127 43.1298 37.8739 42.5722 37.5857 41.9926C37.2975 41.413 36.9598 40.8114 36.6237 40.2857C36.2876 39.76 35.953 39.31 35.6186 38.8601L35.1895 38.3982Z" fill="#C15205"/>
<path d="M26.9648 59.4825C27.2821 59.6973 27.5756 59.9402 27.819 60.1731C28.0624 60.4061 28.2556 60.6289 28.4333 60.8886C28.6111 61.1482 28.7733 61.4446 28.7767 61.3564C28.7801 61.2682 28.6248 60.7954 28.4703 60.3542C28.3157 59.913 28.162 59.5035 27.984 59.1206C27.806 58.7377 27.6037 58.3815 27.4059 58.0919C27.2082 57.8023 27.015 57.5795 26.8751 57.4544C26.7352 57.3292 26.6484 57.3019 26.5619 57.2747C26.4591 57.5429 26.3563 57.8111 26.2568 58.0812C26.1574 58.3513 26.0614 58.623 25.9653 58.8948C26.3063 59.0812 26.6476 59.2678 26.9648 59.4825Z" fill="#C15205"/>
<path d="M41.7926 30.9152C41.6756 30.9888 41.441 31.1365 41.2351 31.2828C41.0291 31.4291 40.8501 31.5752 40.6714 31.7211C40.9717 32.058 41.2721 32.3951 41.5845 32.7173C41.8969 33.0395 42.2214 33.347 42.4898 33.5936C42.7583 33.8402 42.9707 34.026 43.1663 34.2011C43.362 34.3762 43.541 34.5406 43.6884 34.7438C43.8359 34.9471 43.952 35.1892 43.9316 35.0977C43.9111 35.0062 43.7542 34.5812 43.5488 34.08C43.3433 33.5788 43.0893 33.0015 42.9089 32.5938C42.7285 32.186 42.6217 31.9477 42.4923 31.7142C42.3629 31.4807 42.2109 31.2518 42.1099 31.1069C42.0089 30.962 41.9587 30.9008 41.9087 30.8398C41.909 30.8404 41.9095 30.8415 41.9095 30.8415C41.9095 30.8415 41.9096 30.8415 41.7926 30.9152Z" fill="#C15205"/>
<path d="M39.0273 62.642C38.6054 62.3192 38.211 61.9892 37.8169 61.6594C38.1676 62.1733 38.5186 62.6874 38.7983 63.1744C39.0781 63.6615 39.2868 64.1215 39.4957 64.5817L40.2523 63.7102L40.3483 63.5967C39.8987 63.2807 39.4492 62.9649 39.0273 62.642Z" fill="#75370E"/>
<path d="M33.6323 70.8136C33.3301 70.5256 33.0282 70.2378 32.7676 70.0087C32.5071 69.7795 32.2881 69.6094 31.9931 69.4439C31.698 69.2785 31.3268 69.1178 31.2712 69.1194C31.2157 69.121 31.4759 69.2848 31.7107 69.4519C31.9455 69.6189 32.1549 69.789 32.369 70.008C32.5832 70.227 32.8019 70.4946 33.0208 70.7624L33.2667 71.1711L33.6323 70.8136Z" fill="#75370E"/>
<path d="M23.0065 67.7952L22.8128 68.4588L22.5093 69.5674C22.7556 69.6362 23.0023 69.705 23.2713 69.8352C23.5403 69.9654 23.832 70.157 24.1281 70.3553C24.4243 70.5536 24.7249 70.7586 24.9784 70.9614C25.2319 71.1641 25.4383 71.3647 25.4316 71.2577C25.4248 71.1508 25.2049 70.7364 24.9424 70.2752C24.6799 69.814 24.3748 69.306 24.0989 68.9139C23.8229 68.5217 23.5762 68.2455 23.399 68.0783C23.2218 67.9112 23.114 67.8531 23.0065 67.7952Z" fill="#C15205"/>
</svg>
