<svg width="85" height="87" viewBox="0 0 85 87" fill="none" xmlns="http://www.w3.org/2000/svg">
<rect x="0.441406" y="0.522461" width="84.5588" height="86.4775" rx="20" fill="#18AEFF"/>
<path d="M38.6986 53.8597C37.8983 54.4865 37.7499 55.5969 37.6128 56.6206C37.4756 57.6443 37.3498 58.5813 37.2344 59.7814C37.1189 60.9816 37.014 62.4447 37.0484 63.8821C37.0829 65.3194 37.2567 66.7309 37.4709 67.8471C37.6852 68.9633 37.9398 69.7842 38.1945 70.6051L38.4837 70.8165C38.6082 70.0463 38.7327 69.2761 38.9119 68.7721C39.0911 68.2681 39.325 68.0303 39.5286 67.9017C39.7321 67.773 39.9052 67.7535 40.0303 68.6806C40.1554 69.6078 40.2326 71.4813 40.5159 73.4253C40.7992 75.3692 41.2884 77.3832 41.7778 79.3973L42.8387 82.6684L43.7118 79.6062C44.2331 77.7831 44.7543 75.96 45.1685 74.3359C45.5826 72.7118 45.8897 71.2868 46.0308 70.2953C46.1719 69.3036 46.147 68.7454 46.392 69.7019C46.637 70.6584 47.1518 73.1293 47.6666 75.6004C48.0041 73.3687 48.3103 71.3436 48.6146 69.2405C48.9189 67.1374 49.1578 65.3765 49.3514 64.0273C49.5451 62.6782 49.8512 60.6542 49.8522 59.1055C49.8532 57.5568 49.5947 56.0022 49.4204 55.0293C49.2461 54.0563 49.1342 53.5561 48.7123 53.2914C48.2904 53.0267 47.2691 52.8161 46.1611 52.7765C45.053 52.7369 43.7279 52.8415 42.3393 52.9655C40.9508 53.0895 39.4988 53.2328 38.6986 53.8597Z" fill="#F18B16"/>
<path d="M39.5949 53.5174C38.9139 53.9449 38.7903 54.7055 38.676 55.4068C38.5617 56.1081 38.4568 56.75 38.3615 57.5723C38.2663 58.3946 38.1806 59.3972 38.2138 60.3824C38.247 61.3677 38.399 62.3356 38.5847 63.1012C38.7704 63.8668 38.9898 64.4301 39.2092 64.9935L39.4564 65.1391C39.5606 64.6115 39.6647 64.084 39.8163 63.739C39.9679 63.394 40.1668 63.2317 40.3401 63.144C40.5133 63.0564 40.6609 63.0435 40.7701 63.6793C40.8792 64.3151 40.95 65.5995 41.1968 66.9326C41.4436 68.2657 41.8663 69.6474 42.289 71.0292L43.2026 73.274L43.9393 71.1775C44.3792 69.9293 44.819 68.6811 45.168 67.569C45.5169 66.457 45.7751 65.4811 45.8928 64.8018C46.0106 64.1226 45.9879 63.7399 46.1994 64.3961C46.4109 65.0523 46.8566 66.7473 47.3022 68.4423C47.5842 66.9136 47.8401 65.5264 48.0941 64.0858C48.3481 62.6451 48.5472 61.4387 48.7088 60.5145C48.8705 59.5904 49.1262 58.2039 49.123 57.1424C49.1197 56.0809 48.8951 55.0147 48.7439 54.3474C48.5926 53.6801 48.4958 53.3369 48.1352 53.1544C47.7746 52.9719 46.9029 52.8248 45.9576 52.7947C45.0123 52.7646 43.8823 52.8328 42.6982 52.9141C41.514 52.9954 40.2759 53.0898 39.5949 53.5174Z" fill="#FCEF34"/>
<path d="M40.5535 53.3057C39.9915 53.6375 39.89 54.2286 39.7962 54.7736C39.7024 55.3186 39.6162 55.8174 39.5382 56.4565C39.4601 57.0955 39.3902 57.8747 39.4183 58.6406C39.4465 59.4064 39.5727 60.1588 39.7267 60.754C39.8806 61.3493 40.0621 61.7873 40.2437 62.2253L40.448 62.3387C40.5336 61.9287 40.6192 61.5188 40.7441 61.2507C40.8689 60.9827 41.0331 60.8567 41.1761 60.7887C41.3191 60.7207 41.4409 60.7108 41.5315 61.205C41.6222 61.6993 41.6816 62.6976 41.8864 63.734C42.0912 64.7704 42.4412 65.8446 42.7913 66.919L43.5474 68.6645L44.1541 67.0355C44.5163 66.0657 44.8785 65.0958 45.1658 64.2317C45.4531 63.3676 45.6655 62.6093 45.7622 62.0815C45.8589 61.5536 45.8399 61.2561 46.015 61.7663C46.1901 62.2766 46.5594 63.5943 46.9287 64.9121C47.1604 63.7242 47.3706 62.6462 47.5203 61.5256C47.67 60.4051 47.7161 59.4658 47.659 58.3259C47.602 57.1861 47.3549 54.5746 47.11 53.743C46.8652 52.9114 46.3747 52.7822 45.7003 52.7535C45.026 52.7248 44.093 52.7769 43.1153 52.8392C42.1376 52.9015 41.1154 52.9739 40.5535 53.3057Z" fill="#F3F4F0"/>
<path d="M28.5484 52.2173C29.3122 50.9502 30.0854 49.9563 31.0963 48.9421C31.9125 48.1232 33.3492 46.9925 34.3138 46.41C35.3058 45.8108 36.936 45.0867 37.8513 44.8387C38.0577 44.7828 38.2293 44.7171 38.2327 44.6926C38.2362 44.6682 38.1311 44.1979 37.9992 43.6475C37.6195 42.0629 37.1963 39.5668 37.065 38.1369C37.0411 37.8766 37.0033 37.4664 36.981 37.2254C36.942 36.8041 36.8401 34.9746 36.8256 34.4351C36.8217 34.2919 36.8006 34.1721 36.7786 34.169C36.6524 34.1512 35.4695 34.9047 34.598 35.558C32.313 37.2707 30.7532 39.1794 29.5503 41.7345C28.0482 44.9254 27.6053 48.6317 28.314 52.0805L28.3945 52.4725L28.5484 52.2173Z" fill="#E72A50"/>
<path d="M58.2505 51.8032C57.53 50.5109 56.7908 49.4914 55.8149 48.4436C55.0268 47.5975 53.6292 46.4188 52.685 45.8039C51.7138 45.1715 50.109 44.3926 49.2026 44.1138C48.9983 44.0509 48.829 43.9794 48.8264 43.9548C48.8236 43.9302 48.9447 43.4638 49.0951 42.9182C49.5282 41.3474 50.0356 38.867 50.2153 37.4424C50.248 37.1831 50.2996 36.7744 50.3301 36.5343C50.3833 36.1145 50.547 34.2895 50.5798 33.7509C50.5886 33.6078 50.6137 33.4888 50.6358 33.4865C50.7625 33.473 51.9192 34.2661 52.7682 34.9485C54.9938 36.7376 56.4882 38.698 57.6039 41.2924C58.9972 44.5323 59.3144 48.2515 58.4894 51.6744L58.3956 52.0634L58.2505 51.8032Z" fill="#C12D3E"/>
<path d="M37.7456 12.2712C36.813 13.2239 35.8393 14.37 35.0077 15.648C33.8988 17.352 33.0423 19.2902 32.5387 21.725C32.0351 24.1598 31.8845 27.0912 32.317 30.1867C32.7495 33.2822 33.7652 36.5418 34.6219 38.8687C35.4787 41.1956 36.1766 42.5896 36.8378 43.8387C37.4991 45.0878 38.1236 46.192 38.7075 47.3514C39.2913 48.5109 39.8345 49.7257 40.1215 50.4437C40.4085 51.1617 40.4394 51.3828 40.4703 51.6039C41.858 51.6745 43.2336 51.7439 44.4663 51.7978L42.6143 9.2205C42.3478 9.22409 42.0852 9.26016 41.8217 9.32941C40.8368 9.58817 39.8379 10.2963 38.6578 11.3853C38.3628 11.6575 38.0565 11.9536 37.7456 12.2712Z" fill="#FBFBFB"/>
<path d="M47.5077 12.0359C48.5066 12.9419 49.5604 14.0389 50.4817 15.2745C51.7102 16.922 52.7035 18.8154 53.3799 21.2217C54.0563 23.628 54.4157 26.5471 54.2048 29.6582C53.9938 32.7692 53.2124 36.0723 52.5231 38.4365C51.8337 40.8008 51.2365 42.2262 50.6655 43.5051C50.0945 44.784 49.5498 45.9164 49.0496 47.1021C48.5495 48.2878 48.0939 49.5267 47.8586 50.2573C47.6233 50.9879 47.2553 51.6543 47.2402 51.8766C46.4829 51.952 45.1596 51.8389 45.1596 51.8389C45.1596 51.8389 44.0962 51.7598 43.5425 51.8109L42.4297 9.22574C42.6961 9.21644 42.9608 9.23976 43.2288 9.29615C44.2304 9.50687 45.2781 10.1655 46.5338 11.1956C46.8478 11.4531 47.1747 11.7339 47.5077 12.0359Z" fill="#E7E7E7"/>
<path d="M42.6648 17.2963C42.0564 17.3207 41.4589 17.4667 40.9063 17.7261C40.3537 17.9855 39.8569 18.3531 39.4442 18.8081C39.0316 19.263 38.7111 19.7963 38.5012 20.3775C38.2912 20.9588 38.1959 21.5765 38.2206 22.1956C38.2454 22.8146 38.3897 23.4228 38.6453 23.9854C38.901 24.548 39.263 25.054 39.7107 25.4745C40.1584 25.8951 40.6829 26.2218 41.2544 26.4363C41.826 26.6507 42.4332 26.7485 43.0416 26.7242C43.0452 26.7238 43.0488 26.7235 43.0525 26.7232L42.6757 17.2961C42.6721 17.2961 42.6684 17.2962 42.6648 17.2963Z" fill="#0A0A0A"/>
<path d="M42.6593 17.2963C43.888 17.2471 45.0861 17.6966 45.9902 18.5459C46.8944 19.3952 47.4303 20.5746 47.4803 21.8248C47.505 22.4439 47.4097 23.0617 47.1998 23.6429C46.9898 24.2241 46.6693 24.7574 46.2567 25.2124C45.844 25.6673 45.3472 26.035 44.7946 26.2944C44.242 26.5537 43.6445 26.6998 43.0361 26.7241C43.0325 26.7241 43.0288 26.7241 43.0252 26.7241L42.6484 17.2969C42.6521 17.2967 42.6557 17.2965 42.6593 17.2963Z" fill="black"/>
<path d="M42.7157 18.3123C41.8137 18.3943 40.9776 18.8256 40.38 19.5171C39.7824 20.2087 39.469 21.1077 39.5044 22.0286C39.5425 22.9493 39.9267 23.8204 40.5776 24.4621C41.2285 25.1037 42.0964 25.4669 43.002 25.4765L42.7157 18.3123Z" fill="#B1DBE9"/>
<path d="M42.687 18.3118C43.5926 18.3214 44.4604 18.6846 45.1113 19.3262C45.7622 19.9678 46.1464 20.8389 46.1846 21.7596C46.22 22.6805 45.9066 23.5795 45.309 24.2711C44.7114 24.9627 43.8753 25.394 42.9733 25.476L42.687 18.3118Z" fill="#86B9CA"/>
<path d="M45.4827 23.6958C45.6343 23.2994 45.523 22.9271 45.2341 22.8641C44.9452 22.8011 44.5881 23.0713 44.4366 23.4677C44.285 23.864 44.3963 24.2364 44.6852 24.2993C44.9741 24.3623 45.3311 24.0921 45.4827 23.6958Z" fill="white" fill-opacity="0.646091"/>
<path d="M37.6966 12.0074C37.563 12.1425 37.4341 12.2798 37.3117 12.4192C36.8224 12.9766 36.0957 14.1225 36.0961 14.1238C36.0965 14.1253 37.3432 14.6666 37.9615 14.8697C38.5797 15.0727 39.1915 15.2077 39.8764 15.2688C40.5613 15.3299 41.2765 15.3529 42.0313 15.2982C42.2028 15.2857 42.374 15.2706 42.545 15.2534L42.2244 9.20972C41.8455 9.27106 41.1721 9.43841 40.8123 9.5957C40.1419 9.88868 39.5648 10.3521 38.9796 10.8454C38.5407 11.2153 38.0973 11.602 37.6966 12.0074Z" fill="#E72A50"/>
<path d="M46.7405 11.2248C46.8898 11.3359 47.0349 11.4497 47.1738 11.5666C47.7297 12.0342 48.5979 13.0942 48.5977 13.0956C48.5975 13.0972 47.5125 13.7865 46.9405 14.0787C46.3685 14.3709 45.8397 14.6303 45.1825 14.7946C44.5253 14.9589 43.7871 15.1207 43.0452 15.1828C42.8767 15.197 42.68 15.2464 42.5113 15.2558L42.2236 9.20947C42.6009 9.21117 43.0166 9.21957 43.3891 9.31756C44.083 9.50008 44.684 9.86504 45.3239 10.2555C45.8037 10.5483 46.2927 10.8917 46.7405 11.2248Z" fill="#C12D3E"/>
<path d="M40.2352 50.7423C39.8685 51.1169 39.2932 51.703 38.9751 52.1358C38.6572 52.5688 38.388 53.06 38.1895 53.4706C37.991 53.8811 37.8631 54.2111 37.8059 54.4604C37.7487 54.7097 37.7621 54.8783 37.8645 55.0007C37.9668 55.123 38.158 55.1991 39.937 55.2432C40.8129 55.2649 42.074 55.2789 43.3362 55.2859L43.5192 50.8776L40.2352 50.7423Z" fill="#E72A50"/>
<path d="M47.6584 50.8038C47.9898 51.2099 48.1883 51.7512 48.4661 52.2109C48.7437 52.6708 48.9675 53.1842 49.1282 53.6111C49.289 54.0379 49.3352 54.398 49.3697 54.6515C49.4042 54.9049 49.3706 55.0769 49.2576 55.1895C49.201 55.2457 49.1589 55.2841 48.8735 55.2982C48.5881 55.3124 47.5963 55.4069 46.7084 55.3487C46.2713 55.3201 45.6695 55.3744 45.0887 55.3289C44.5079 55.2835 43.9149 55.3361 43.2861 55.2827L43.3702 53.0896L43.5187 50.8774L47.6584 50.8038Z" fill="#C12D3E"/>
<path d="M44.2436 33.5002C44.797 32.937 44.762 32.0054 44.1657 31.4196C43.5693 30.8337 42.6372 30.8153 42.0839 31.3786C41.5306 31.9418 41.5655 32.8734 42.1619 33.4593C42.7583 34.0451 43.6903 34.0635 44.2436 33.5002Z" fill="black"/>
<path d="M44.5171 40.5566C45.0704 39.9934 45.0355 39.0618 44.4391 38.476C43.8427 37.8901 42.9107 37.8717 42.3574 38.435C41.804 38.9982 41.8389 39.9298 42.4353 40.5157C43.0317 41.1015 43.9638 41.1199 44.5171 40.5566Z" fill="black"/>
</svg>
