<svg width="85" height="87" viewBox="0 0 85 87" fill="none" xmlns="http://www.w3.org/2000/svg">
<rect y="0.522461" width="84.5588" height="86.4775" rx="20" fill="#18AEFF"/>
<path d="M39.4788 75.987C48.5402 76.4983 56.5053 66.2154 57.2694 53.0197C58.0335 39.8239 51.3072 28.7122 42.2459 28.2009C33.1845 27.6896 25.2194 37.9724 24.4553 51.1682C23.6912 64.364 30.4175 75.4757 39.4788 75.987Z" fill="#8CED7B"/>
<path d="M49.5809 31.1931C51.3817 36.6471 52.1945 43.1179 51.9027 49.6769C51.6646 55.0179 50.7028 60.2151 49.1104 64.7657C47.5179 69.3163 45.3487 73.0664 42.8125 75.6534C46.5834 74.7643 50.0858 72.0221 52.7267 67.891C55.3677 63.76 56.9848 58.4939 57.3044 52.9846C57.5594 48.579 56.973 44.212 55.61 40.3663C54.2469 36.5206 52.1604 33.3459 49.5809 31.1931Z" fill="#78DA65"/>
<path d="M35.6437 50.9978L35.3081 51.5425L55.1321 63.0718L55.2526 62.7523L55.3434 62.5018L35.6437 50.9978Z" fill="#1ECA00"/>
<path d="M47.0465 57.6184L29.1108 69.6012L29.2821 69.8398L29.4904 70.1145L47.4151 58.1431L47.0465 57.6184Z" fill="#1ECA00"/>
<path d="M53.8141 41.877L24.3604 56.3956L24.4619 57.0581L54.1076 42.4444L53.8141 41.877Z" fill="#1ECA00"/>
<path d="M36.8127 37.9133L36.6025 38.5435L56.3719 43.05L56.2449 42.5517L56.1396 42.1821L36.8127 37.9133Z" fill="#1ECA00"/>
<path d="M26.617 41.0533L51.6662 33.3584C51.6662 33.3584 51.7858 33.503 51.8446 33.5759C51.917 33.6656 52.0594 33.8468 52.0594 33.8468L26.269 41.9901L26.4255 41.5689L26.617 41.0533Z" fill="#1ECA00"/>
<path d="M41.6988 12.7347C40.9339 12.7943 39.3123 12.8242 37.7901 13.2125C36.2679 13.6008 34.8452 14.3476 33.4913 15.3708C32.1373 16.3939 30.8523 17.6933 29.9497 19.2094C29.0471 20.7255 28.527 22.458 28.2134 23.765C27.8998 25.0719 27.7927 25.9531 27.9151 27.3198C28.0376 28.6865 28.3894 30.5385 29.3227 32.5101C30.2559 34.4817 31.7704 36.5727 33.5181 38.1775C35.2658 39.7822 37.2465 40.9008 39.2646 41.5181C41.2826 42.1354 43.3378 42.2516 45.4742 41.9559C47.6106 41.6601 49.8281 40.9525 51.6453 39.8964C53.4626 38.8403 54.8796 37.4356 55.8802 36.1102C56.8808 34.7848 57.4649 33.5386 58.0166 31.8329C58.5683 30.1273 59.0875 27.9623 59.1363 26.1352C59.185 24.3081 58.7631 22.819 57.8978 21.3404C57.0325 19.8618 55.7236 18.3938 54.5383 17.2575C53.353 16.1212 52.2912 15.3167 50.8654 14.638C49.4396 13.9594 47.6498 13.4068 46.1582 13.0707C44.6666 12.7346 43.4734 12.6151 42.9227 12.6003C42.3719 12.5854 42.4637 12.675 41.6988 12.7347Z" fill="#FDDAC6"/>
<path d="M52.0471 15.2832C52.5002 16.0035 52.9525 16.6909 53.2994 17.4418C54.164 19.3127 54.5854 21.197 54.5367 23.5088C54.488 25.8206 53.9695 28.5598 53.4183 30.718C52.8671 32.8761 52.2834 34.4528 51.2838 36.1299C50.2841 37.8069 48.8684 39.5845 47.0528 40.9207C46.5349 41.3019 45.9839 41.646 45.4121 41.9536C45.4622 41.9471 45.512 41.9412 45.5622 41.9343C47.6986 41.6385 49.9163 40.931 51.7335 39.8749C53.5508 38.8188 54.9676 37.4141 55.9682 36.0886C56.9687 34.7632 57.5528 33.5169 58.1045 31.8113C58.6562 30.1056 59.1756 27.9406 59.2243 26.1135C59.2731 24.2864 58.8514 22.7972 57.9861 21.3186C57.1208 19.84 55.8764 18.5146 54.6911 17.3783C53.839 16.5614 52.9527 15.8336 52.0471 15.2832Z" fill="#FCC4A4"/>
<path d="M42.9856 36.9272C43.7357 36.9272 44.3438 35.4909 44.3438 33.7192C44.3438 31.9475 43.7357 30.5112 42.9856 30.5112C42.2355 30.5112 41.6274 31.9475 41.6274 33.7192C41.6274 35.4909 42.2355 36.9272 42.9856 36.9272Z" fill="#D97480"/>
<path d="M48.9516 33.0022C49.5599 33.0022 50.053 32.4204 50.053 31.7028C50.053 30.9851 49.5599 30.4033 48.9516 30.4033C48.3432 30.4033 47.8501 30.9851 47.8501 31.7028C47.8501 32.4204 48.3432 33.0022 48.9516 33.0022Z" fill="#F4A5B4"/>
<path d="M36.5604 32.5989C37.1688 32.5989 37.6619 32.0171 37.6619 31.2994C37.6619 30.5818 37.1688 30 36.5604 30C35.9521 30 35.459 30.5818 35.459 31.2994C35.459 32.0171 35.9521 32.5989 36.5604 32.5989Z" fill="#F8A3B7"/>
<path d="M48.5373 24.8268C48.613 25.059 49.5274 25.1322 50.0715 25.2427C50.6156 25.3532 50.7887 25.5011 50.7995 25.6808C50.8102 25.8605 50.6587 26.0717 50.3991 26.23C50.1394 26.3883 49.7716 26.4939 49.5014 26.4306C49.2311 26.3672 49.058 26.1348 48.7333 26.0398C48.4087 25.9447 47.9327 25.9869 47.6082 26.008C47.2837 26.0292 47.1106 26.0292 46.9376 25.9658C46.7647 25.9024 46.5916 25.7757 46.4835 25.554C46.3753 25.3323 46.332 25.0155 46.6889 24.6036C47.0457 24.1917 47.8029 23.6847 48.2897 23.4101C48.7765 23.1354 48.9928 23.0932 49.2416 23.072C49.4904 23.0509 49.7717 23.0509 49.9016 23.1777C50.0315 23.3046 50.0099 23.5581 49.6173 23.8805C49.2246 24.203 48.4615 24.5946 48.5373 24.8268Z" fill="#1A1A1A"/>
<path d="M36.8848 24.8534C36.809 25.0856 35.8947 25.1588 35.3505 25.2693C34.8064 25.3798 34.6333 25.5277 34.6226 25.7074C34.6119 25.8871 34.7633 26.0983 35.023 26.2566C35.2826 26.4149 35.6504 26.5206 35.9207 26.4572C36.191 26.3938 36.3641 26.1614 36.6887 26.0664C37.0134 25.9713 37.4893 26.0136 37.8139 26.0347C38.1384 26.0558 38.3114 26.0558 38.4844 25.9924C38.6574 25.929 38.8305 25.8023 38.9386 25.5806C39.0467 25.3589 39.09 25.0421 38.7332 24.6302C38.3764 24.2183 37.6192 23.7113 37.1324 23.4367C36.6456 23.162 36.4293 23.1198 36.1804 23.0986C35.9316 23.0775 35.6504 23.0775 35.5205 23.2043C35.3906 23.3312 35.4122 23.5847 35.8048 23.9072C36.1974 24.2297 36.9605 24.6212 36.8848 24.8534Z" fill="#1A1A1A"/>
<path d="M26.3436 21.651C25.8243 21.0807 25.3053 20.5106 24.8943 20.1409C24.4833 19.7712 24.1804 19.6023 23.7801 19.5599C23.3798 19.5176 22.8822 19.6021 22.5684 19.8662C22.2546 20.1303 22.1248 20.5739 22.298 20.9119C22.4713 21.2498 22.9472 21.4822 23.672 21.5877C24.3967 21.6933 25.37 21.6721 26.3436 21.651Z" fill="#9ECEEC"/>
<path d="M60.6152 25.7787C61.3 26.1464 61.9845 26.514 62.4986 26.7281C63.0126 26.9422 63.356 27.0024 63.7477 26.9115C64.1394 26.8206 64.5793 26.5784 64.7845 26.227C64.9897 25.8755 64.96 25.4151 64.6809 25.1533C64.4018 24.8914 63.8736 24.828 63.1545 24.9654C62.4353 25.1027 61.5254 25.4407 60.6152 25.7787Z" fill="#9ECEEC"/>
<path d="M26.7278 27.96C25.9476 28.0052 25.1678 28.0505 24.616 28.1369C24.0642 28.2233 23.7408 28.351 23.459 28.6318C23.1772 28.9126 22.9373 29.3465 22.9556 29.7507C22.9739 30.1548 23.2504 30.5288 23.6295 30.6051C24.0086 30.6814 24.4901 30.4602 25.0235 29.9697C25.557 29.4792 26.1423 28.7197 26.7278 27.96Z" fill="#9ECEEC"/>
<path d="M59.9009 30.1011C60.1044 30.8378 60.3078 31.5742 60.5063 32.0843C60.7048 32.5943 60.8984 32.8776 61.2372 33.0901C61.5759 33.3027 62.0597 33.4442 62.4613 33.3448C62.863 33.2454 63.1821 32.9052 63.1818 32.5273C63.1815 32.1493 62.862 31.7338 62.262 31.3232C61.6619 30.9126 60.7815 30.5069 59.9009 30.1011Z" fill="#9ECEEC"/>
<path d="M41.3008 13.1738C41.2414 13.1079 41.1224 12.9759 41.0169 12.7964C40.9114 12.6169 40.8195 12.3898 40.814 12.1626C40.8085 11.9355 40.8896 11.7084 41.0086 11.5315C41.1277 11.3545 41.2845 11.2277 41.4631 11.1432C41.6416 11.0587 41.8418 11.0165 41.9336 10.8741C42.0255 10.7316 42.0093 10.4887 41.8363 10.3803C41.6633 10.2719 41.3334 10.2983 41.0601 10.4066C40.7869 10.5149 40.5706 10.705 40.3975 10.9664C40.2243 11.2279 40.0945 11.5606 40.0757 11.9303C40.0568 12.3 40.1487 12.7066 40.3354 13.0366C40.5221 13.3667 40.8034 13.6201 41.0819 13.8075C41.3605 13.995 41.6363 14.1164 42.0636 14.2061C42.4909 14.2959 43.0696 14.3539 43.5185 14.3381C43.9673 14.3222 44.2864 14.2324 44.4973 14.045C44.7081 13.8577 44.8109 13.5725 44.8055 13.2769C44.8002 12.9812 44.6866 12.6749 44.5218 12.461C44.3569 12.2471 44.1405 12.1256 43.8484 12.0648C43.5564 12.004 43.1886 12.004 42.8612 12.1202C42.5339 12.2364 42.2473 12.4687 41.993 12.7486C41.7388 13.0285 41.517 13.3559 41.3683 13.6596C41.2195 13.9633 41.1438 14.2432 41.133 14.5733C41.1223 14.9034 41.1764 15.2836 41.4036 15.6426C41.6309 16.0017 42.0311 16.3397 42.3935 16.5429C42.7559 16.7461 43.0804 16.8148 43.3238 16.8253C43.5671 16.8358 43.7293 16.7883 43.8158 16.6643C43.9023 16.5403 43.9131 16.3397 43.7158 16.2076C43.5185 16.0755 43.1129 16.0121 42.7856 15.859C42.4584 15.706 42.2096 15.4631 42.0527 15.1806C41.8957 14.8981 41.8308 14.576 41.8497 14.2987C41.8686 14.0213 41.9713 13.789 42.139 13.5592C42.3067 13.3295 42.5393 13.1024 42.7909 12.9704C43.0425 12.8383 43.3129 12.8014 43.5104 12.8279C43.7078 12.8544 43.8322 12.9442 43.8753 13.0683C43.9185 13.1923 43.8806 13.3508 43.7644 13.4563C43.6482 13.5618 43.4535 13.6146 43.2156 13.641C42.9776 13.6674 42.6964 13.6674 42.38 13.5962C42.0636 13.525 41.7121 13.3824 41.5361 13.311C41.3602 13.2397 41.3602 13.2397 41.3008 13.1738Z" fill="#BD9370"/>
</svg>
