<?xml version="1.0" encoding="UTF-8" standalone="no"?>
<!-- Created with Inkscape (http://www.inkscape.org/) -->

<svg
   width="48"
   height="48"
   viewBox="0 0 48 48"
   version="1.1"
   id="svg5"
   xml:space="preserve"
   inkscape:version="1.2.2 (732a01da63, 2022-12-09)"
   sodipodi:docname="game_icon.svg"
   xmlns:inkscape="http://www.inkscape.org/namespaces/inkscape"
   xmlns:sodipodi="http://sodipodi.sourceforge.net/DTD/sodipodi-0.dtd"
   xmlns="http://www.w3.org/2000/svg"
   xmlns:svg="http://www.w3.org/2000/svg"><sodipodi:namedview
     id="namedview7"
     pagecolor="#ffffff"
     bordercolor="#000000"
     borderopacity="0.25"
     inkscape:showpageshadow="2"
     inkscape:pageopacity="0.0"
     inkscape:pagecheckerboard="0"
     inkscape:deskcolor="#d1d1d1"
     inkscape:document-units="px"
     showgrid="false"
     inkscape:zoom="2.9610098"
     inkscape:cx="54.204482"
     inkscape:cy="106.88921"
     inkscape:window-width="1920"
     inkscape:window-height="991"
     inkscape:window-x="2391"
     inkscape:window-y="594"
     inkscape:window-maximized="1"
     inkscape:current-layer="layer1" /><defs
     id="defs2" /><g
     inkscape:label="Vrstva 1"
     inkscape:groupmode="layer"
     id="layer1"><g
       id="g2368"><path
         id="path856"
         style="fill:#cccccc;stroke-width:0.206533"
         d="M 23.898438,0.42578125 C 12.9738,0.4935111 2.4847738,8.5393976 1.109375,21.429688 -0.20880739,33.783749 8.8164044,45.433303 20.908203,46.988281 42.709752,49.791911 55.682663,23.096484 40.177734,7.3359375 35.463773,2.5442615 29.620866,0.39030371 23.898438,0.42578125 Z M 23.664062,3.7265625 c 0.320679,-0.00786 0.641363,-0.00827 0.962891,0 4.676774,0.1202601 9.412257,1.9596069 13.292969,5.9042969 C 48.713859,20.602748 43.558835,39.565479 28.773438,43.275391 16.252544,46.417096 4.3320313,36.920227 4.3320312,23.800781 4.3320313,11.904622 13.723015,3.9703351 23.664062,3.7265625 Z" /></g><path
       style="fill:#cccccc;fill-opacity:1;stroke-width:0.145549"
       d="M 11.046626,31.633216 C 8.9382102,29.728386 9.1497328,22.81415 11.46524,17.949557 c 1.448776,-3.043695 3.62907,-4.733895 6.099755,-4.728629 1.337855,0.0029 2.157083,0.281201 4.434519,1.50672 0.618003,0.332556 0.885998,0.383695 2.010755,0.383695 1.276497,0 1.319578,-0.01172 2.6346,-0.716569 1.810093,-0.97021 2.756645,-1.226144 4.234573,-1.144969 2.814111,0.154564 4.962286,2.288804 6.358448,6.317208 0.767207,2.213651 1.046256,3.957623 1.057024,6.606083 0.01073,2.63733 -0.185092,3.75028 -0.863501,4.9079 -0.480923,0.82063 -1.055631,1.10982 -2.04288,1.02795 -1.140626,-0.0946 -1.872438,-0.65965 -4.54865,-3.5122 -0.589437,-0.62827 -1.29143,-1.23412 -1.559983,-1.34633 -0.384186,-0.16053 -1.478308,-0.20402 -5.132341,-0.20402 -2.554236,0 -4.865117,0.0422 -5.135294,0.0937 -0.384458,0.0733 -0.94995,0.55775 -2.601696,2.22882 -2.292692,2.3195 -2.965053,2.77173 -4.120918,2.77173 -0.573765,0 -0.770077,-0.0801 -1.243025,-0.50741 z m 7.088818,-7.948695 c 0.449753,-0.156785 0.458367,-0.177297 0.458367,-1.091621 v -0.931832 h 0.940951 c 1.073066,0 1.242291,-0.153346 1.242291,-1.125718 0,-0.770729 -0.196121,-0.911975 -1.266281,-0.911975 h -0.916961 v -1.003273 c 0,-1.080056 -0.07342,-1.181949 -0.848814,-1.177982 -0.967844,0.0049 -1.043329,0.09028 -1.043329,1.179385 v 1.00187 h -1.003274 c -0.780587,0 -1.022883,0.0511 -1.091621,0.230229 -0.121887,0.317634 -0.106999,1.262503 0.02304,1.462474 0.05881,0.09044 0.513324,0.211144 1.010023,0.268237 l 0.90309,0.103804 0.04298,0.892501 c 0.03779,0.784749 0.08691,0.91465 0.406856,1.075949 0.448521,0.226125 0.565959,0.228998 1.142677,0.02795 z m 12.249401,-0.08259 c 0.806795,-0.476586 0.97791,-1.619411 0.353571,-2.361394 -0.936477,-1.11294 -2.683891,-0.429525 -2.683891,1.04967 0,0.447763 0.102244,0.666611 0.494868,1.059235 0.565262,0.565262 1.166058,0.647909 1.835452,0.252489 z m 3.460104,-2.168021 c 0.857132,-0.60036 0.941413,-1.733251 0.182998,-2.459859 -1.084631,-1.039143 -2.844368,-0.05204 -2.564713,1.438647 0.19218,1.024412 1.547486,1.605529 2.381715,1.021212 z m -3.159338,-2.381537 c 0.842002,-0.842 0.453092,-2.303468 -0.697515,-2.621166 -1.486299,-0.410387 -2.601467,1.527818 -1.508118,2.621166 0.348343,0.348345 0.548216,0.425453 1.102816,0.425453 0.554601,0 0.754473,-0.07711 1.102817,-0.425453 z"
       id="path302" /></g></svg>
