<svg width="85" height="87" viewBox="0 0 85 87" fill="none" xmlns="http://www.w3.org/2000/svg">
<rect width="84.5588" height="86.4775" rx="20" fill="#18AEFF"/>
<path d="M53.1654 64.75C52.9357 65.0543 52.4761 65.6629 52.2759 66.178C52.0756 66.6931 52.1345 67.1144 52.4587 67.4772C52.7828 67.8399 53.3719 68.1442 54.0082 68.3665C54.6444 68.5889 55.3278 68.7293 56.0465 68.8581C56.7653 68.9868 57.5194 69.1038 58.35 69.0277C59.1806 68.9516 60.0878 68.6824 60.8183 68.2611C61.5488 67.8398 62.1025 67.2663 62.4854 66.6285C62.8684 65.9907 63.0804 65.2885 63.0393 64.5805C62.9981 63.8725 62.7035 63.1585 62.3148 62.6435C61.926 62.1285 61.4429 61.8125 60.789 61.6427C60.135 61.4729 59.3103 61.4495 58.4265 61.666C57.5427 61.8825 56.6002 62.339 55.7518 62.8422C54.9034 63.3455 54.1493 63.8956 53.7723 64.1706C53.3952 64.4457 53.3952 64.4457 53.1654 64.75Z" fill="#E2B06E"/>
<path d="M60.118 61.5522C60.3744 61.7549 60.5963 62.0118 60.7938 62.3319C61.1818 62.9607 61.476 63.8324 61.5171 64.6968C61.5582 65.5613 61.3463 66.4189 60.9641 67.1977C60.6913 67.7536 60.3311 68.269 59.8823 68.7059C60.2073 68.59 60.5205 68.4489 60.8065 68.284C61.5369 67.8627 62.0906 67.2891 62.4735 66.6513C62.8564 66.0135 63.0684 65.3112 63.0273 64.6031C62.9861 63.8951 62.6916 63.1812 62.3028 62.6662C61.914 62.1512 61.431 61.8352 60.7771 61.6654C60.5728 61.6124 60.3521 61.5739 60.118 61.5522Z" fill="#DDA255"/>
<path d="M33.1068 34.0174C34.0733 34.0173 35.7896 33.5869 36.881 32.8339C37.9723 32.0808 38.4388 31.005 38.6305 29.6892C38.8222 28.3734 38.7388 26.8176 38.6139 24.7734C38.4889 22.7293 38.3223 20.1969 37.939 17.7887C37.5558 15.3804 36.9559 13.0963 36.2645 11.2591C35.573 9.42185 34.7898 8.03154 33.965 7.12941C33.1403 6.22728 32.2738 5.8135 31.4239 5.66447C30.5741 5.51543 29.7409 5.63129 28.9827 6.0451C28.2244 6.45891 27.5412 7.17062 27.0747 8.27967C26.6081 9.38873 26.3581 10.8949 26.4082 12.8315C26.4582 14.7681 26.8081 17.1349 27.333 19.6425C27.8579 22.1501 28.5578 24.7983 29.316 27.0742C30.0742 29.35 30.8906 31.2534 31.4072 32.4203C31.9238 33.5872 32.1404 34.0176 33.1068 34.0174Z" fill="#DEBB8C"/>
<path d="M31.7161 33.421L33.9203 31.1381L35.7905 30.2877C35.7169 28.4648 35.6434 26.6421 35.5367 24.8102C35.4301 22.9782 35.2903 21.1372 35.0155 19.3676C34.7407 17.5979 34.3308 15.8997 33.8417 14.3816C33.3526 12.8636 32.7843 11.5259 32.2139 10.6267C31.6435 9.72763 31.071 9.26726 30.4018 9.01977C29.7326 8.77227 28.9668 8.73784 28.3628 8.89757C27.7589 9.05731 27.3172 9.41123 26.9848 9.7368C26.6525 10.0624 26.4295 10.3595 26.4063 11.6538C26.3831 12.9481 26.5596 15.2392 26.9006 17.558C27.2415 19.8769 27.7468 22.2231 28.565 24.8512C29.3833 27.4792 30.5143 30.3885 31.6454 33.2981L31.7161 33.421Z" fill="#F97F80"/>
<path d="M50.5271 34.4163C49.5606 34.4162 47.8443 33.9859 46.753 33.2328C45.6616 32.4798 45.1951 31.4039 45.0034 30.0881C44.8118 28.7723 44.8951 27.2165 45.02 25.1724C45.145 23.1282 45.3116 20.5959 45.6949 18.1876C46.0781 15.7793 46.678 13.4953 47.3694 11.658C48.0609 9.82077 48.8441 8.43047 49.6689 7.52834C50.4936 6.62621 51.3601 6.21243 52.21 6.06339C53.0598 5.91436 53.893 6.03021 54.6512 6.44403C55.4095 6.85784 56.0927 7.56954 56.5592 8.6786C57.0258 9.78765 57.2758 11.2938 57.2257 13.2304C57.1757 15.167 56.8258 17.5338 56.3009 20.0414C55.776 22.549 55.0761 25.1972 54.3179 27.4731C53.5597 29.749 52.7433 31.6524 52.2267 32.8193C51.7101 33.9862 51.4935 34.4165 50.5271 34.4163Z" fill="#DEBB8C"/>
<path d="M51.9181 33.82L49.714 31.537L47.8438 30.6866C47.9173 28.8637 47.9908 27.041 48.0975 25.2091C48.2042 23.3771 48.344 21.5362 48.6188 19.7665C48.8936 17.9969 49.3034 16.2986 49.7925 14.7806C50.2816 13.2625 50.85 11.9248 51.4204 11.0257C51.9907 10.1266 52.5632 9.66619 53.2324 9.41869C53.9016 9.1712 54.6675 9.13676 55.2714 9.2965C55.8753 9.45623 56.317 9.81015 56.6494 10.1357C56.9818 10.4613 57.2047 10.7585 57.2279 12.0528C57.2511 13.3471 57.0746 15.6381 56.7337 17.957C56.3928 20.2758 55.8875 22.6221 55.0692 25.2501C54.251 27.8781 53.12 30.7875 51.9888 33.6971L51.9181 33.82Z" fill="#F97F80"/>
<path d="M53.4451 9.41431C53.3701 9.43626 53.296 9.46032 53.223 9.48732C52.5538 9.73482 51.9814 10.195 51.411 11.0941C50.8406 11.9932 50.2719 13.3312 49.7828 14.8492C49.2937 16.3672 48.8839 18.0654 48.6091 19.835C48.3343 21.6047 48.1947 23.4457 48.088 25.2776C47.9813 27.1096 47.9076 28.9322 47.834 30.7551L49.6823 31.5956C49.7436 29.8451 49.809 28.0934 49.8967 26.3343C50.0032 24.2004 50.1423 22.0562 50.4166 19.9949C50.6908 17.9335 51.1001 15.955 51.5882 14.1868C52.0763 12.4185 52.6435 10.8604 53.2128 9.81306C53.2901 9.67063 53.3674 9.53849 53.4451 9.41431Z" fill="#FB5F61"/>
<path d="M30.188 9.01538C30.263 9.03734 30.3371 9.0614 30.4101 9.0884C31.0794 9.3359 31.6518 9.79607 32.2221 10.6952C32.7925 11.5943 33.3613 12.9322 33.8504 14.4503C34.3394 15.9683 34.7492 17.6664 35.024 19.4361C35.2988 21.2058 35.4385 23.0467 35.5451 24.8787C35.6518 26.7107 35.7256 28.5333 35.7991 30.3562L33.9508 31.1967C33.8895 29.4462 33.8242 27.6944 33.7364 25.9354C33.63 23.8015 33.4908 21.6573 33.2165 19.5959C32.9423 17.5346 32.533 15.5561 32.0449 13.7878C31.5568 12.0196 30.9896 10.4614 30.4204 9.41414C30.343 9.27171 30.2657 9.13957 30.188 9.01538Z" fill="#FB5F61"/>
<path d="M38.0766 28.5067C37.3226 28.7993 35.8144 29.3845 34.4711 30.3325C33.1278 31.2805 31.9496 32.5913 31.0659 33.7852C30.1822 34.979 29.5931 36.0557 29.1453 37.1442C28.6976 38.2327 28.3912 39.3328 28.0849 40.2808C27.7785 41.2288 27.4722 42.0247 27.0009 42.8088C26.5296 43.5929 25.8934 44.3653 25.5045 45.4656C25.1157 46.5658 24.9743 47.9937 25.21 49.246C25.4458 50.4983 26.0585 51.5751 26.8833 52.4177C27.7082 53.2603 28.745 53.8689 29.6169 54.2785C30.4888 54.6881 31.1958 54.8988 31.5609 55.051C31.9261 55.2032 31.9497 55.2968 31.7847 55.5659C31.6197 55.835 31.2662 56.2797 30.9717 57.0289C30.6771 57.778 30.4414 58.8313 30.3118 59.9783C30.1822 61.1253 30.1587 62.3659 30.1646 63.0798C30.1705 63.7938 30.2058 63.981 29.8793 64.3723C29.5527 64.7635 28.8644 65.359 28.3754 66.0788C27.8864 66.7987 27.5968 67.6428 27.3872 68.4101C27.1776 69.1774 27.048 69.8679 27.1247 70.699C27.2013 71.53 27.4841 72.5014 27.9024 73.2621C28.3208 74.0228 28.8746 74.5729 29.3518 74.9532C29.829 75.3336 30.2296 75.5442 31.3313 75.948C32.433 76.3517 34.2357 76.9486 35.9206 77.4577C37.6055 77.9668 39.1726 78.3882 40.669 78.6632C42.1653 78.9382 43.591 79.0669 45.3584 78.8211C47.1257 78.5753 49.2348 77.955 50.9404 77.0479C52.646 76.1408 53.9483 74.947 54.6786 74.0894C55.4088 73.2318 55.5671 72.7104 55.7379 72.1849C55.9087 71.6594 56.092 71.1297 56.1608 70.4863C56.2296 69.8429 56.1837 69.0857 55.9172 68.3368C55.6506 67.5878 55.1633 66.8471 54.7779 66.0713C54.3925 65.2954 54.1093 64.4844 53.8302 63.8058C53.5511 63.1271 53.2761 62.581 53.1303 61.9602C52.9844 61.3395 52.9677 60.6444 52.8594 59.8665C52.7511 59.0885 52.5512 58.2279 52.3013 57.4872C52.0514 56.7465 51.7514 56.1258 51.5806 55.741C51.4098 55.3562 51.3681 55.2072 51.4598 55.116C51.5515 55.0249 51.7765 54.9918 52.1847 54.8966C52.5929 54.8014 53.1845 54.6442 53.7801 54.3752C54.3758 54.1062 54.9757 53.7256 55.3774 53.4051C55.7791 53.0846 55.9827 52.8242 56.3319 52.4014C56.6812 51.9786 57.176 51.3934 57.5059 50.7322C57.8358 50.071 58.0008 49.3337 58.0656 48.6373C58.1304 47.941 58.0951 47.2856 58.0185 46.6214C57.942 45.9572 57.8241 45.2843 57.4825 44.5148C57.1408 43.7452 56.5753 42.8792 56.21 42.2706C55.8447 41.662 55.6798 41.3109 55.4559 40.7257C55.232 40.1405 54.9492 39.3212 54.6998 38.4386C54.4503 37.5559 54.2342 36.61 53.7481 35.6561C53.262 34.7022 52.506 33.7406 51.7339 32.8569C50.9618 31.9732 50.1739 31.1677 49.1449 30.4368C48.116 29.7058 46.8461 29.0496 45.5641 28.6389C44.2821 28.2282 42.9881 28.0632 41.8638 28.0333C40.7395 28.0034 39.7852 28.1088 39.3079 28.1614C38.8306 28.2141 38.8306 28.2141 38.0766 28.5067Z" fill="#DEBB8C"/>
<path d="M50.9009 31.8589C51.2222 32.7701 51.4052 33.6671 51.6079 34.5147C51.8572 35.5577 52.1396 36.526 52.3634 37.2175C52.5871 37.909 52.7521 38.3238 53.1172 39.0429C53.4823 39.7621 54.0475 40.7857 54.3889 41.6951C54.7304 42.6044 54.8481 43.3993 54.9247 44.1841C55.0013 44.969 55.0369 45.7436 54.9721 46.5665C54.9073 47.3894 54.7423 48.2604 54.4126 49.0418C54.0828 49.8231 53.5879 50.5148 53.2389 51.0144C52.8898 51.5141 52.6864 51.8214 52.2849 52.2002C51.8834 52.5789 51.2839 53.0291 50.6886 53.3469C50.0932 53.6648 49.5022 53.8502 49.0942 53.9627C48.6862 54.0752 48.4614 54.1146 48.3698 54.2223C48.2781 54.33 48.3195 54.5059 48.4902 54.9606C48.661 55.4153 48.9608 56.1489 49.2106 57.0241C49.4604 57.8994 49.6602 58.9164 49.7685 59.8357C49.8767 60.7549 49.8934 61.5763 50.0392 62.3097C50.185 63.0432 50.4599 63.6886 50.7388 64.4905C51.0177 65.2924 51.3007 66.251 51.6858 67.1678C52.071 68.0846 52.5584 68.9596 52.8248 69.8447C53.0912 70.7297 53.1369 71.6245 53.0682 72.3848C52.9994 73.1452 52.8162 73.771 52.6455 74.392C52.4762 75.0081 52.3174 75.6205 51.6021 76.6198C52.9963 75.7739 54.068 74.7712 54.7046 74.0237C55.4349 73.1661 55.5931 72.6447 55.7639 72.1191C55.9347 71.5936 56.1178 71.0641 56.1866 70.4207C56.2553 69.7773 56.2097 69.0201 55.9432 68.2712C55.6767 67.5222 55.1892 66.7815 54.8038 66.0056C54.4184 65.2297 54.135 64.4187 53.856 63.7401C53.5769 63.0614 53.3019 62.5151 53.156 61.8944C53.0101 61.2737 52.9935 60.5787 52.8852 59.8008C52.7769 59.0229 52.5773 58.162 52.3274 57.4213C52.0775 56.6806 51.7774 56.0602 51.6066 55.6753C51.4358 55.2905 51.394 55.1414 51.4857 55.0502C51.5774 54.9591 51.8024 54.926 52.2106 54.8308C52.6188 54.7356 53.2105 54.5785 53.8061 54.3095C54.4018 54.0406 55.0016 53.6597 55.4033 53.3392C55.805 53.0187 56.0084 52.7584 56.3577 52.3356C56.7069 51.9128 57.2019 51.3276 57.5318 50.6664C57.8617 50.0052 58.0269 49.268 58.0917 48.5716C58.1565 47.8753 58.1209 47.2197 58.0443 46.5556C57.9678 45.8914 57.8502 45.2185 57.5085 44.449C57.1669 43.6795 56.6013 42.8136 56.236 42.205C55.8707 41.5964 55.7056 41.2451 55.4817 40.6598C55.2579 40.0747 54.9753 39.2554 54.7258 38.3728C54.4764 37.4902 54.26 36.5443 53.7739 35.5904C53.2878 34.6366 52.5318 33.6747 51.7598 32.7911C51.4793 32.47 51.1965 32.1595 50.9009 31.8589Z" fill="#D8AE76"/>
<path d="M36.8513 42.3992C37.6712 42.3992 38.3359 41.2045 38.3359 39.7307C38.3359 38.257 37.6712 37.0623 36.8513 37.0623C36.0314 37.0623 35.3667 38.257 35.3667 39.7307C35.3667 41.2045 36.0314 42.3992 36.8513 42.3992Z" fill="black"/>
<path d="M45.9709 42.2588C46.7909 42.2588 47.4555 41.0641 47.4555 39.5903C47.4555 38.1166 46.7909 36.9219 45.9709 36.9219C45.151 36.9219 44.4863 38.1166 44.4863 39.5903C44.4863 41.0641 45.151 42.2588 45.9709 42.2588Z" fill="black"/>
<path d="M45.8937 42.1331C46.2718 42.1331 46.5783 41.4275 46.5783 40.5571C46.5783 39.6868 46.2718 38.9812 45.8937 38.9812C45.5155 38.9812 45.209 39.6868 45.209 40.5571C45.209 41.4275 45.5155 42.1331 45.8937 42.1331Z" fill="white"/>
<path d="M36.8292 42.305C37.2073 42.305 37.5139 41.5994 37.5139 40.729C37.5139 39.8587 37.2073 39.1531 36.8292 39.1531C36.4511 39.1531 36.1445 39.8587 36.1445 40.729C36.1445 41.5994 36.4511 42.305 36.8292 42.305Z" fill="white"/>
<path d="M36.8292 42.0697C37.1329 42.0697 37.3791 41.7696 37.3791 41.3993C37.3791 41.0291 37.1329 40.729 36.8292 40.729C36.5255 40.729 36.2793 41.0291 36.2793 41.3993C36.2793 41.7696 36.5255 42.0697 36.8292 42.0697Z" fill="black"/>
<path d="M45.8775 41.8959C46.1812 41.8959 46.4274 41.5957 46.4274 41.2255C46.4274 40.8553 46.1812 40.5552 45.8775 40.5552C45.5738 40.5552 45.3276 40.8553 45.3276 41.2255C45.3276 41.5957 45.5738 41.8959 45.8775 41.8959Z" fill="black"/>
<path d="M42.3115 47.544C42.6199 47.4571 43.2364 47.2833 43.7571 47.0392C44.2778 46.795 44.7027 46.4806 44.9401 46.1165C45.1775 45.7525 45.2275 45.3387 45.1193 45.0201C45.0111 44.7015 44.7445 44.478 44.2071 44.3C43.6697 44.122 42.8616 43.9896 42.0909 43.9523C41.3202 43.9151 40.587 43.973 39.9913 44.0433C39.3956 44.1137 38.9374 44.1964 38.5999 44.3454C38.2623 44.4944 38.0457 44.7096 38.0333 45.0366C38.0208 45.3636 38.2125 45.8022 38.4958 46.158C38.7791 46.5139 39.1541 46.787 39.6623 47.0559C40.1705 47.3248 40.812 47.5896 41.2286 47.7054C41.6451 47.8212 41.8367 47.7881 41.9283 47.751C42.0199 47.7139 42.0116 47.6725 42.0074 47.6517C42.0032 47.6309 42.0032 47.6309 42.3115 47.544Z" fill="#F97F80"/>
<path d="M41.0208 50.404C40.8459 50.5861 40.496 50.9502 40.271 51.2234C40.046 51.4965 39.946 51.6786 39.9878 51.9104C40.0296 52.1422 40.2128 52.4235 40.6045 52.5724C40.9961 52.7212 41.5959 52.7378 42.0542 52.7212C42.5124 52.7047 42.829 52.655 43.0621 52.4978C43.2953 52.3406 43.4453 52.0758 43.5369 51.8028C43.6286 51.5297 43.6619 51.2484 43.4787 50.9752C43.2956 50.7021 42.8957 50.4373 42.4791 50.3131C42.0625 50.1889 41.6292 50.2054 41.4125 50.2137C41.1958 50.2219 41.1958 50.2219 41.0208 50.404Z" fill="white" fill-opacity="0.563786"/>
<path d="M41.5792 47.3254C41.4626 47.3584 41.2293 47.4247 41.0959 47.5986C40.9625 47.7725 40.9292 48.0538 40.9167 48.3352C40.9042 48.6166 40.9125 48.898 40.8667 49.1504C40.8209 49.4027 40.7209 49.6261 40.5834 49.804C40.446 49.9819 40.2711 50.1143 40.017 50.2095C39.763 50.3046 39.4297 50.3626 39.1215 50.2716C38.8132 50.1807 38.53 49.9407 38.3383 49.6842C38.1466 49.4277 38.0466 49.1546 37.9799 48.9353C37.9132 48.7159 37.8799 48.5504 37.7467 48.4221C37.6135 48.2937 37.3802 48.2027 37.1385 48.2399C36.8968 48.2771 36.6469 48.4426 36.5635 48.7282C36.4802 49.0139 36.5635 49.4194 36.7011 49.7877C36.8386 50.156 37.0302 50.487 37.2885 50.7849C37.5469 51.0828 37.8718 51.3476 38.2175 51.5338C38.5633 51.7199 38.9299 51.8275 39.2756 51.8523C39.6213 51.877 39.9463 51.8191 40.267 51.7032C40.5877 51.5874 40.9043 51.4136 41.1542 51.2564C41.4042 51.0991 41.5874 50.9584 41.7708 50.9792C41.9542 51.0001 42.1375 51.1821 42.4083 51.3559C42.6791 51.5296 43.0373 51.6951 43.4122 51.7902C43.7872 51.8854 44.1787 51.9102 44.5619 51.8067C44.9451 51.7033 45.32 51.4715 45.6324 51.2191C45.9448 50.9668 46.1947 50.6937 46.3697 50.3834C46.5446 50.0731 46.6446 49.7255 46.6696 49.3656C46.6947 49.0056 46.6447 48.6332 46.5073 48.4097C46.37 48.1862 46.145 48.1117 45.9199 48.1737C45.6949 48.2357 45.4699 48.4343 45.3491 48.6248C45.2283 48.8152 45.2116 48.9973 45.1824 49.1876C45.1532 49.378 45.1116 49.5766 45.0033 49.7586C44.895 49.9405 44.72 50.1061 44.4785 50.2136C44.237 50.3212 43.9287 50.3709 43.6455 50.3172C43.3622 50.2635 43.104 50.1062 42.9248 49.9532C42.7456 49.8001 42.6456 49.6511 42.5789 49.3739C42.5122 49.0966 42.4789 48.6911 42.4414 48.3642C42.4039 48.0374 42.3622 47.7891 42.2374 47.6235C42.1125 47.4579 41.9042 47.3752 41.8 47.3337C41.6957 47.2923 41.6957 47.2923 41.5792 47.3254Z" fill="#241A0A"/>
<path d="M43.673 44.1538C43.7629 44.2639 43.8251 44.3861 43.8657 44.5234C43.9766 44.8979 43.9254 45.3846 43.682 45.8125C43.4386 46.2405 43.0028 46.6098 42.4691 46.8968C41.9353 47.1838 41.3035 47.3881 40.9875 47.4903C40.897 47.5196 40.8345 47.5401 40.7886 47.5556C40.9526 47.6169 41.1054 47.6681 41.2362 47.7045C41.6527 47.8203 41.8445 47.7871 41.9361 47.7499C42.0277 47.7128 42.0195 47.6714 42.0154 47.6505C42.0114 47.6297 42.0114 47.63 42.3192 47.543C42.6275 47.4561 43.2442 47.2821 43.7649 47.038C44.2855 46.7939 44.7105 46.4796 44.9479 46.1156C45.1854 45.7515 45.2354 45.3377 45.1272 45.0191C45.019 44.7005 44.7523 44.4771 44.2149 44.2991C44.0555 44.2462 43.872 44.1973 43.673 44.1538Z" fill="#FF6263"/>
<path d="M34.9807 47.0522C34.4974 47.0604 33.8475 47.3252 32.981 47.7224C32.1145 48.1197 31.0315 48.6493 29.9983 49.2369C28.9652 49.8245 27.9821 50.47 27.1822 51.0741C26.3824 51.6783 25.7658 52.241 25.2743 52.6383C24.7828 53.0355 24.4162 53.2672 24.3162 53.6067C24.2163 53.9461 24.3829 54.393 24.6745 54.5418C24.9661 54.6907 25.3827 54.5417 25.9159 54.161C26.449 53.7803 27.0989 53.1679 28.082 52.4314C29.0652 51.6948 30.3816 50.8341 31.423 50.2052C32.4645 49.5762 33.231 49.179 33.8725 48.881C34.5141 48.5831 35.0306 48.3845 35.3805 48.1776C35.7303 47.9708 35.9136 47.7556 35.8471 47.5239C35.7806 47.2923 35.464 47.044 34.9807 47.0522Z" fill="#241A0A"/>
<path d="M34.2602 44.7382C33.9096 44.7586 33.2084 44.7995 32.259 44.8958C31.3096 44.992 30.1121 45.1437 28.9429 45.3662C27.7736 45.5888 26.6328 45.8822 25.6788 46.1957C24.7248 46.5091 23.9577 46.8425 23.363 47.0597C22.7682 47.2769 22.3457 47.3778 22.1402 47.6666C21.9347 47.9555 21.9462 48.4319 22.1734 48.6667C22.4006 48.9015 22.8433 48.8949 23.472 48.7068C24.1007 48.5188 24.9155 48.1491 26.0862 47.7696C27.2568 47.39 28.7832 47.0005 29.9738 46.7415C31.1645 46.4825 32.0193 46.354 32.7235 46.2791C33.4276 46.2043 33.9811 46.183 34.3796 46.1002C34.7782 46.0174 35.0219 45.873 35.0347 45.6324C35.0474 45.3919 34.8292 45.055 34.7199 44.8864C34.6107 44.7178 34.6107 44.7178 34.2602 44.7382Z" fill="#241A0A"/>
<path d="M48.5475 45.0453C48.898 45.0658 49.5992 45.1067 50.5486 45.2029C51.498 45.2992 52.6956 45.4508 53.8648 45.6733C55.034 45.8959 56.1749 46.1893 57.1289 46.5028C58.0829 46.8162 58.8499 47.1497 59.4447 47.3668C60.0394 47.584 60.4619 47.6849 60.6674 47.9738C60.8729 48.2626 60.8614 48.739 60.6342 48.9738C60.4071 49.2086 59.9644 49.2021 59.3357 49.014C58.7069 48.8259 57.8921 48.4563 56.7215 48.0767C55.5508 47.6971 54.0244 47.3076 52.8338 47.0486C51.6432 46.7896 50.7884 46.6611 50.0842 46.5863C49.38 46.5114 48.8265 46.4901 48.428 46.4073C48.0295 46.3245 47.7858 46.1801 47.773 45.9396C47.7602 45.699 47.9785 45.3621 48.0877 45.1935C48.1969 45.0249 48.1969 45.0249 48.5475 45.0453Z" fill="#241A0A"/>
<path d="M48.8984 47.9299C49.2425 47.9996 49.9307 48.139 50.8567 48.3683C51.7828 48.5975 52.9465 48.9166 54.072 49.3018C55.1976 49.6871 56.2849 50.1385 57.1844 50.5834C58.0839 51.0282 58.7955 51.4665 59.3532 51.7654C59.9108 52.0643 60.3146 52.2238 60.4767 52.5387C60.6388 52.8536 60.5593 53.3235 60.3009 53.5239C60.0424 53.7243 59.6052 53.6553 59.0097 53.3805C58.4143 53.1056 57.6606 52.6247 56.5561 52.0838C55.4515 51.5429 53.9963 50.9421 52.8548 50.5177C51.7133 50.0933 50.8855 49.8455 50.1992 49.6721C49.5129 49.4986 48.968 49.3995 48.5854 49.2613C48.2027 49.1231 47.9822 48.9458 48.0039 48.7059C48.0256 48.4659 48.2899 48.1632 48.4221 48.0118C48.5543 47.8603 48.5543 47.8603 48.8984 47.9299Z" fill="#241A0A"/>
<path d="M50.1998 76.1626C49.4084 76.295 47.8254 76.5598 46.7089 76.7915C45.5925 77.0233 44.9426 77.2219 44.6176 77.5613C44.2926 77.9007 44.2926 78.3807 44.4927 78.7945C44.6928 79.2083 45.0927 79.5559 45.6176 79.7461C46.1425 79.9364 46.7923 79.9695 47.8171 79.986C48.8419 80.0026 50.2416 80.0026 52.2328 80.0191C54.2241 80.0357 56.8068 80.0688 58.1897 79.9612C59.5727 79.8536 59.7559 79.6054 59.8393 79.3241C59.9226 79.0428 59.9059 78.7283 59.706 78.1987C59.5061 77.669 59.1229 76.9242 58.6814 76.4193C58.2398 75.9145 57.74 75.6496 56.6901 75.5834C55.6403 75.5171 54.0407 75.6495 52.9243 75.7736C51.8078 75.8978 51.1746 76.0136 50.933 76.055C50.6914 76.0964 50.8414 76.0633 50.9163 76.0467C50.9912 76.0302 50.9912 76.0302 50.1998 76.1626Z" fill="#CAA673"/>
<path d="M48.7798 75.7665C48.0022 75.3802 47.0125 75.2164 46.2818 75.3568C45.5512 75.4972 45.0799 75.942 44.7382 76.574C44.3965 77.2061 44.1844 78.0254 44.1963 78.5989C44.2082 79.1724 44.4438 79.5001 45.0565 79.7224C45.6693 79.9447 46.659 80.0617 47.5073 80.0851C48.3557 80.1085 49.0626 80.0383 49.5928 79.9212C50.1229 79.8041 50.4764 79.6403 50.6295 79.2074C50.7827 78.7745 50.7355 78.0723 50.4293 77.4168C50.123 76.7614 49.5575 76.1528 48.7798 75.7665Z" fill="#EBDBBD"/>
<path d="M34.8381 76.0461C35.6295 76.1785 37.2125 76.4434 38.3289 76.6751C39.4454 76.9068 40.0952 77.1054 40.4202 77.4449C40.7452 77.7843 40.7452 78.2643 40.5452 78.6781C40.3451 79.0918 39.9452 79.4394 39.4203 79.6297C38.8954 79.8199 38.2455 79.853 37.2208 79.8696C36.196 79.8861 34.7963 79.8861 32.805 79.9027C30.8138 79.9192 28.2311 79.9523 26.8481 79.8448C25.4652 79.7372 25.2819 79.4889 25.1986 79.2076C25.1153 78.9263 25.1319 78.6119 25.3319 78.0822C25.5318 77.5526 25.915 76.8078 26.3565 76.3029C26.798 75.798 27.2979 75.5332 28.3477 75.4669C29.3976 75.4006 30.9972 75.533 32.1136 75.6572C33.2301 75.7813 33.8632 75.8972 34.1049 75.9385C34.3465 75.9799 34.1965 75.9468 34.1216 75.9303C34.0467 75.9137 34.0467 75.9137 34.8381 76.0461Z" fill="#CAA673"/>
<path d="M36.2587 75.6501C37.0363 75.2638 38.0261 75.0999 38.7567 75.2403C39.4873 75.3808 39.9586 75.8255 40.3004 76.4576C40.6421 77.0897 40.8542 77.9089 40.8423 78.4824C40.8304 79.056 40.5947 79.3837 39.982 79.6059C39.3693 79.8282 38.3795 79.9453 37.5312 79.9686C36.6829 79.992 35.9759 79.9218 35.4458 79.8047C34.9156 79.6877 34.5621 79.5238 34.409 79.0909C34.2559 78.658 34.303 77.9558 34.6093 77.3004C34.9155 76.645 35.4811 76.0364 36.2587 75.6501Z" fill="#EBDBBD"/>
<path d="M40.7236 78.7996C41.5757 78.8572 42.429 78.9148 43.0272 78.9372C43.6255 78.9596 43.972 78.9468 44.3181 78.9341C44.3145 78.3505 44.3109 77.7671 44.4621 77.2882C44.6132 76.8093 44.9192 76.4354 44.927 75.3261C44.9347 74.2167 44.6442 72.3718 44.9588 70.8865C45.2735 69.4013 46.1933 68.2761 46.6279 67.0676C47.0624 65.8591 47.0116 64.5673 46.8688 63.4584C46.726 62.3494 46.4912 61.4234 45.8289 60.9278C45.1667 60.4322 44.0769 60.3674 43.1919 60.3477C42.307 60.328 41.627 60.3533 41.0572 60.6281C40.4875 60.9028 40.0282 61.4268 39.7152 62.0281C39.4022 62.6295 39.2355 63.3081 38.95 64.1768C38.6645 65.0455 38.26 66.1045 38.5773 67.1928C38.8946 68.2811 39.9329 69.3981 40.3276 70.9296C40.7223 72.4611 40.473 74.4057 40.3809 75.6762C40.2887 76.9467 40.3537 77.5425 40.4371 77.9507C40.5204 78.3589 40.622 78.5792 40.7236 78.7996Z" fill="#E9DAC5"/>
</svg>
