<svg width="85" height="87" viewBox="0 0 85 87" fill="none" xmlns="http://www.w3.org/2000/svg">
<rect x="0.441406" width="84.5588" height="86.4775" rx="20" fill="#18AEFF"/>
<g clip-path="url(#clip0_720_3)">
<path d="M60.9002 48.2507C60.5647 48.6606 60.2287 49.0716 59.89 49.4909C60.2039 49.8688 60.5225 50.2626 60.913 50.9119C61.3317 51.608 61.8329 52.5962 62.1207 53.6293C62.4084 54.6623 62.4828 55.7402 62.3752 56.7455C62.2677 57.7509 61.9782 58.6837 61.6037 59.5256C61.2291 60.3675 60.7694 61.1184 60.1081 61.8046C59.4468 62.4907 58.5838 63.1122 57.6359 63.5519C56.688 63.9916 55.6553 64.2496 54.7582 64.3023C53.8612 64.355 53.1 64.2022 52.4293 63.9999C51.7587 63.7977 51.1787 63.5459 50.489 63.0792C49.7992 62.6125 48.9996 61.9306 48.2001 61.249C48.7338 60.87 47.412 61.7842 46.7642 62.2303C47.7252 63.0473 48.6863 63.8644 49.5163 64.4249C50.3463 64.9854 51.0452 65.2893 51.8541 65.5353C52.663 65.7812 53.5818 65.9692 54.6663 65.914C55.7507 65.8588 57.0009 65.5606 58.1498 65.0457C59.2987 64.5308 60.3465 63.7992 61.151 62.989C61.9555 62.1788 62.5166 61.2899 62.9757 60.2921C63.4348 59.2944 63.7917 58.188 63.9294 56.9938C64.0671 55.7996 63.9855 54.5177 63.6456 53.2873C63.3058 52.0568 62.7077 50.8778 62.2071 50.0469C61.7065 49.2161 61.3033 48.7334 60.9002 48.2507Z" fill="#1FB13A"/>
<path d="M52.6888 59.2308C62.1203 49.8906 66.1842 37.995 61.7656 32.6611C57.3471 27.3272 46.1193 30.5749 36.6877 39.9151C27.2562 49.2552 23.1923 61.1509 27.6109 66.4848C32.0294 71.8187 43.2572 68.5709 52.6888 59.2308Z" fill="#8DEB9E"/>
<path d="M44.0675 52.6973C48.1411 49.7508 51.5369 45.0385 51.652 42.1722C51.7672 39.3058 48.5581 39.3708 44.4844 42.3173C40.4108 45.2637 37.0151 49.976 36.8999 52.8424C36.7848 55.7087 39.9938 55.6438 44.0675 52.6973Z" fill="#60E779"/>
<path d="M61.5239 32.3877C62.3194 39.3203 57.7557 49.2219 49.861 57.1277C43.285 63.7115 35.5761 67.8427 29.5474 68.0138C34.8049 71.2121 44.684 67.5608 52.9753 59.3549C62.407 50.0147 66.3897 38.2172 61.971 32.8833C61.8554 32.7507 61.6495 32.5101 61.5239 32.3877Z" fill="#60E779"/>
<path d="M54.7321 38.9222C56.3655 38.9222 57.6897 37.5146 57.6897 35.7782C57.6897 34.0419 56.3655 32.6343 54.7321 32.6343C53.0986 32.6343 51.7744 34.0419 51.7744 35.7782C51.7744 37.5146 53.0986 38.9222 54.7321 38.9222Z" fill="#60E779"/>
<path d="M33.2101 62.2913C34.8436 62.2913 36.1677 60.8837 36.1677 59.1474C36.1677 57.411 34.8436 56.0034 33.2101 56.0034C31.5766 56.0034 30.2524 57.411 30.2524 59.1474C30.2524 60.8837 31.5766 62.2913 33.2101 62.2913Z" fill="#60E779"/>
<path d="M47.3522 39.1995C46.9077 38.7273 46.0186 37.7829 45.2482 36.795C44.4779 35.807 43.8263 34.7754 43.2928 33.7958C42.7594 32.8162 42.3441 31.8885 42.0322 30.9728C41.7202 30.0571 41.5117 29.1534 41.2973 28.1574C41.083 27.1614 40.8629 26.0731 40.4255 24.9792C39.9882 23.8852 39.3337 22.7858 38.4666 21.7499C37.5994 20.7141 36.5198 19.742 35.3231 19.0555C34.1263 18.3689 32.8126 17.968 31.4372 17.7392C30.0618 17.5104 28.625 17.4539 27.1176 17.6889C25.6101 17.924 24.0325 18.4508 22.6895 19.2286C21.3465 20.0065 20.2383 21.0354 19.3729 22.1542C18.5074 23.2731 17.8846 24.4819 17.4366 25.7886C16.9886 27.0954 16.7153 28.4999 16.6755 29.9946C16.6356 31.4893 16.829 33.0739 17.3687 34.5593C17.9084 36.0447 18.7943 37.4308 19.825 38.5604C20.8558 39.69 22.0312 40.5631 23.2935 41.1497C24.5558 41.7363 25.9048 42.0365 26.8178 42.1867C27.7308 42.3369 28.2077 42.3372 29.1031 42.7477C29.9985 43.1582 31.3123 43.9787 32.5545 44.9056C33.7968 45.8325 34.9674 46.8655 35.939 47.802C36.9106 48.7385 37.6832 49.5784 38.5074 50.1069C39.3315 50.6355 40.2072 50.8527 41.0792 50.8559C41.9511 50.8591 42.8193 50.6483 43.7553 50.19C44.6913 49.7317 45.695 49.026 46.527 48.2505C47.3591 47.4749 48.0194 46.6295 48.4792 45.7758C48.9391 44.9222 49.1984 44.0602 49.1658 43.2173C49.1332 42.3743 48.8086 41.5505 48.5317 40.9627C48.2549 40.375 48.0258 40.0234 47.9113 39.8475C47.7967 39.6716 47.7967 39.6716 47.3522 39.1995Z" fill="#FCE057"/>
<path d="M32.4223 19.6211C31.7733 19.4544 30.8168 19.2638 29.94 19.2043C29.0632 19.1447 28.2661 19.2161 27.4463 19.371C26.6264 19.5258 25.7838 19.764 25.0095 20.1451C24.2351 20.5262 23.5292 21.0502 22.9371 21.5266C22.3449 22.003 21.8667 22.4317 21.6959 22.7891C21.5252 23.1464 21.6618 23.4322 21.9009 23.6585C22.1401 23.8847 22.4817 24.0515 22.9029 23.8966C23.3242 23.7418 23.8252 23.2654 24.5882 22.8247C25.3511 22.3841 26.3759 21.9791 27.321 21.7171C28.2662 21.4551 29.1315 21.336 29.9514 21.4075C30.7713 21.479 31.5456 21.741 32.2288 22.0388C32.912 22.3365 33.5041 22.67 33.9823 22.9915C34.4606 23.3131 34.8249 23.6228 35.2007 23.8371C35.5765 24.0514 35.9636 24.1705 36.3393 24.1348C36.7151 24.099 37.0794 23.9085 37.1705 23.5632C37.2616 23.2179 37.0794 22.7177 36.4646 22.1103C35.8497 21.5028 34.8022 20.7883 34.1076 20.3595C33.413 19.9308 33.0714 19.7879 32.4223 19.6211Z" fill="#FEFFA3"/>
</g>
<defs>
<clipPath id="clip0_720_3">
<rect width="49" height="55" fill="white" transform="translate(16 16)"/>
</clipPath>
</defs>
</svg>
