<svg width="85" height="87" viewBox="0 0 85 87" fill="none" xmlns="http://www.w3.org/2000/svg">
<rect y="0.225098" width="84.5588" height="86.4775" rx="20" fill="#18AEFF"/>
<path d="M51.1476 39.4152C51.7048 40.2594 52.8191 41.9479 54.108 44.5707C55.3969 47.1935 56.8602 50.7504 57.6763 53.1594C58.4924 55.5684 58.6613 56.8291 58.7343 57.4593C58.8074 58.0896 58.7849 58.0896 59.0278 58.6528C59.2707 59.216 59.7788 60.3422 60.0129 61.1721C60.2471 62.002 60.2073 62.5352 60.0739 62.9472C59.9405 63.3591 59.7136 63.6496 59.3674 63.7191C59.0212 63.7886 58.5556 63.6374 58.2074 63.3549C57.8593 63.0724 57.6285 62.6585 57.519 62.175C57.4095 61.6915 57.4214 61.1381 57.4334 60.585C57.3259 60.8954 57.2184 61.206 57.1049 61.4806C56.9915 61.7553 56.8721 61.994 56.7249 61.9641C56.5778 61.9342 56.4027 61.6357 56.337 61.2577C56.2713 60.8797 56.315 60.422 56.4065 59.9862C56.4981 59.5504 56.6373 59.1366 56.2289 57.91C55.8205 56.6835 54.8642 54.6445 54.0762 53.0407C53.2882 51.4368 52.6685 50.2681 51.7696 48.6172C50.8708 46.9662 49.6928 44.8331 49.4496 43.0785C49.2065 41.3238 49.8983 39.9475 50.2443 39.2592C50.5903 38.5709 50.5903 38.5709 51.1476 39.4152Z" fill="#E0EFF8"/>
<path d="M50.4386 38.4874C50.5556 38.4828 50.6943 38.6931 50.9903 39.1416C51.5475 39.9859 52.6619 41.6742 53.9507 44.297C54.2006 44.8056 54.4572 45.3498 54.7143 45.9134L51.1284 47.4475C50.3347 45.9647 49.4936 44.2569 49.2924 42.8047C49.0492 41.0501 49.7411 39.6739 50.0871 38.9856C50.2493 38.663 50.3355 38.4915 50.4386 38.4874Z" fill="#195FA7"/>
<path d="M58.4088 58.1172C58.0113 58.2088 57.2166 58.3919 56.4218 58.575C56.4301 58.6499 56.4385 58.725 56.4572 58.8331C56.4759 58.9413 56.5051 59.0828 56.5071 59.2264C56.5092 59.37 56.4842 59.5157 56.4551 59.6738C56.4259 59.832 56.3926 60.0026 56.3635 60.1961C56.3344 60.3896 56.3094 60.606 56.3053 60.812C56.3012 61.018 56.3178 61.2136 56.3594 61.38C56.401 61.5464 56.4676 61.6837 56.5352 61.7981C56.6028 61.9125 56.6713 62.0039 56.7318 62.0132C56.7923 62.0226 56.8442 61.9498 56.8965 61.8769C56.9488 61.8039 57.0011 61.7313 57.0592 61.6037C57.1173 61.4761 57.1816 61.2927 57.2448 61.121C57.3081 60.9494 57.3705 60.7892 57.4029 60.7184C57.4353 60.6476 57.4376 60.6663 57.4356 60.7278C57.4335 60.7892 57.4272 60.8932 57.4253 61.066C57.4235 61.2388 57.4262 61.4804 57.4505 61.7261C57.4747 61.9717 57.5205 62.2214 57.5941 62.4418C57.6676 62.6622 57.769 62.8534 57.8925 63.0207C58.0159 63.1881 58.1616 63.3316 58.3072 63.4336C58.4528 63.5355 58.5985 63.5958 58.7607 63.6489C58.923 63.702 59.102 63.7477 59.284 63.7249C59.466 63.7021 59.6512 63.6106 59.7844 63.4795C59.9177 63.3485 59.9988 63.1779 60.0658 62.9845C60.1327 62.7912 60.1854 62.5751 60.1875 62.2941C60.1896 62.0132 60.1411 61.6675 60.0508 61.3115C59.9604 60.9555 59.8283 60.5893 59.7035 60.2668C59.5786 59.9442 59.4611 59.6654 59.3532 59.4112C59.2453 59.1569 59.1472 58.9273 59.0711 58.7459C58.9949 58.5645 58.9408 58.4314 58.9034 58.319C58.8659 58.2067 58.8451 58.115 58.8243 58.0234C58.8184 58.0242 58.8123 58.0249 58.8095 58.0253C58.8066 58.0257 58.8064 58.0256 58.4088 58.1172Z" fill="#165FA9"/>
<path d="M57.3287 52.168L54.286 53.4716L54.9471 54.8513L57.7596 53.3837C57.7596 53.3837 57.6119 52.9719 57.5388 52.7657C57.4683 52.5666 57.3287 52.168 57.3287 52.168Z" fill="#195FA7"/>
<path d="M38.3012 77.0322C38.3071 77.2822 38.319 77.782 38.3369 78.0937C38.3548 78.4054 38.3786 78.5288 38.4024 78.6524C38.2594 78.4783 38.1165 78.3042 37.9585 78.2171C37.8005 78.1301 37.6277 78.1301 37.4728 78.2031C37.318 78.2762 37.1811 78.4221 37.0441 78.5681C36.9965 78.5063 36.9488 78.4446 36.8415 78.3519C36.7343 78.2592 36.5675 78.1356 36.4185 78.0654C36.2695 77.9952 36.1384 77.9783 35.9954 77.9896C35.8524 78.0009 35.6975 78.0402 35.5605 78.1554C35.4235 78.2706 35.3046 78.4614 35.1854 78.6523C35.1199 78.4782 35.0544 78.3042 34.9143 78.1974C34.7742 78.0907 34.5597 78.0513 34.3839 78.0486C34.2082 78.0456 34.0711 78.0795 33.9282 78.2228C33.7853 78.3661 33.6365 78.6186 33.4876 78.8713C33.2254 78.6074 32.9633 78.3434 32.7428 78.2311C32.5222 78.1188 32.3435 78.1581 32.1797 78.2452C32.0159 78.3324 31.8671 78.4669 31.7182 78.6017C31.5986 78.134 31.4792 77.6666 31.3928 77.3352C31.3063 77.0037 31.2531 76.8087 31.7179 76.6101C32.1827 76.4115 33.1656 76.2093 33.9639 76.0969C34.7623 75.9846 35.3758 75.9621 35.8614 75.9424C36.3469 75.9228 36.7043 75.9059 37.098 75.9644C37.4916 76.0229 37.9212 76.1567 38.1268 76.3057C38.3324 76.4547 38.3138 76.6184 38.3045 76.7002C38.2951 76.782 38.2951 76.782 38.2951 76.782C38.2951 76.782 38.2952 76.7822 38.3012 77.0322Z" fill="#0E3B6A"/>
<path d="M49.0289 78.4709C49.0177 78.5329 48.9952 78.6566 48.9727 78.7804C49.1077 78.6059 49.2428 78.4315 49.3921 78.3442C49.5413 78.257 49.7045 78.257 49.8509 78.3302C49.9972 78.4036 50.1264 78.5496 50.2559 78.696C50.3009 78.6341 50.3459 78.5722 50.4473 78.4793C50.5486 78.3864 50.7062 78.2626 50.847 78.1922C50.9877 78.1219 51.1116 78.105 51.2467 78.1163C51.3818 78.1276 51.5281 78.1669 51.6575 78.2824C51.7869 78.3979 51.8993 78.589 52.0119 78.7804C52.0738 78.6059 52.1357 78.4316 52.268 78.3246C52.4004 78.2175 52.603 78.1781 52.7691 78.1754C52.9351 78.1724 53.0646 78.2063 53.1996 78.35C53.3346 78.4936 53.4752 78.7466 53.6159 78.9999C53.8635 78.7354 54.1112 78.4709 54.3196 78.3583C54.5279 78.2458 54.6968 78.2851 54.8515 78.3725C55.0063 78.4598 55.1468 78.5947 55.2875 78.7298C55.3832 78.3527 55.4788 77.9757 55.5879 77.6287C55.6969 77.2817 55.8194 76.9647 55.9418 76.6478C54.9583 76.4751 53.975 76.3023 53.1933 76.2047C52.4117 76.107 51.832 76.0845 51.3733 76.0648C50.9146 76.0451 50.5769 76.0282 50.205 76.0868C49.8331 76.1454 49.4273 76.2795 49.2311 76.4428C49.0348 76.606 49.0484 76.7978 49.062 76.9898C49.0548 77.4628 49.0475 77.9361 49.0438 78.1725C49.0402 78.409 49.0402 78.4089 49.0289 78.4709Z" fill="#0E3B6A"/>
<path d="M33.8585 39.4555C33.3013 40.2997 32.1869 41.9882 30.898 44.611C29.6091 47.2338 28.1459 50.7907 27.3298 53.1997C26.5137 55.6086 26.3448 56.8693 26.2718 57.4996C26.1987 58.1299 26.2212 58.1299 25.9783 58.6931C25.7354 59.2563 25.2273 60.3825 24.9931 61.2124C24.759 62.0423 24.7988 62.5755 24.9322 62.9874C25.0656 63.3994 25.2924 63.6899 25.6386 63.7594C25.9849 63.8289 26.4505 63.6777 26.7986 63.3952C27.1468 63.1127 27.3776 62.6988 27.4871 62.2153C27.5965 61.7318 27.5846 61.1784 27.5727 60.6252C27.6801 60.9357 27.7877 61.2463 27.9011 61.5209C28.0146 61.7955 28.134 62.0343 28.2811 62.0044C28.4283 61.9744 28.6034 61.676 28.6691 61.298C28.7348 60.92 28.691 60.4623 28.5995 60.0265C28.508 59.5907 28.3687 59.1768 28.7772 57.9503C29.1856 56.7238 30.1418 54.6848 30.9298 53.081C31.7178 51.4771 32.3375 50.3084 33.2364 48.6575C34.1353 47.0065 35.3133 44.8734 35.5564 43.1188C35.7996 41.3641 35.1077 39.9878 34.7618 39.2995C34.4158 38.6112 34.4157 38.6112 33.8585 39.4555Z" fill="#E0EFF8"/>
<path d="M34.5671 38.5274C34.4502 38.5229 34.3115 38.7332 34.0154 39.1817C33.4582 40.026 32.3439 41.7143 31.055 44.3371C30.8051 44.8456 30.5485 45.3899 30.2915 45.9535L33.8773 47.4875C34.671 46.0047 35.5121 44.297 35.7134 42.8448C35.9565 41.0901 35.2646 39.7139 34.9186 39.0256C34.7565 38.703 34.6703 38.5315 34.5671 38.5274Z" fill="#195FA7"/>
<path d="M34.215 39.1221C34.2152 40.4827 33.6666 42.6964 33.0602 45.2666C32.4538 47.8367 31.7897 50.7633 31.4745 53.3693C31.1593 55.9752 31.1931 58.2602 31.3676 60.3202C31.5421 62.3802 31.8573 64.2149 32.15 65.5376C32.4427 66.8602 32.7128 67.6707 32.9379 68.4249C33.1631 69.179 33.3432 69.8769 33.467 70.5185C33.5908 71.1602 33.6583 71.7455 33.6921 72.2858C33.7258 72.8261 33.7258 73.3212 33.7258 73.8165C32.9099 73.9395 32.0941 74.0625 31.6325 74.4228C31.1709 74.7831 31.0638 75.3805 31.0778 75.8931C31.0919 76.4057 31.227 76.8334 31.3058 77.0698C31.3846 77.3062 31.4071 77.3512 31.9925 77.3061C32.5779 77.2609 33.726 77.1258 34.6716 77.002C35.6171 76.8782 36.36 76.7656 36.9341 76.7094C37.5082 76.6531 37.9133 76.6531 38.3185 76.6531C38.2509 75.5274 38.1834 74.402 38.0258 72.7473C37.8682 71.0926 37.6206 68.9089 37.5643 67.3667C37.508 65.8245 37.6431 64.924 37.947 64.091C38.2509 63.2579 38.7237 62.4925 39.4329 61.9521C40.1422 61.4118 41.0877 61.0966 42.1008 60.9728C43.114 60.849 44.1946 60.9166 45.2077 61.3669C46.2207 61.8173 47.1663 62.6502 47.7515 63.7872C48.3368 64.9241 48.5619 66.3649 48.7195 68.6049C48.8771 70.845 48.9671 73.884 49.0572 76.9232C50.1153 76.8782 51.1736 76.8332 52.1642 76.867C53.1548 76.9008 54.0778 77.0133 54.7194 77.0921C55.361 77.1709 55.7212 77.2159 55.89 76.8108C56.0587 76.4056 56.0362 75.5502 55.7886 74.9648C55.5411 74.3794 55.0683 74.0643 54.5618 73.8953C54.0552 73.7264 53.5147 73.7039 52.9744 73.6814C53.0194 70.9348 53.0645 68.1885 53.1658 65.8696C53.2671 63.5507 53.4246 61.6597 53.3796 59.1833C53.3346 56.7068 53.087 53.6451 52.6705 50.9548C52.254 48.2645 51.6687 45.9457 51.3014 43.5347C50.9341 41.1237 50.7848 38.6206 50.2104 37.328C49.6359 36.0354 48.6362 35.9536 47.2525 35.9075C45.8689 35.8614 44.1017 35.8511 42.2768 35.8128C40.4518 35.7744 38.5694 35.708 37.2574 35.7363C35.9453 35.7647 35.2039 35.8879 34.6087 36.0719C34.0135 36.2559 33.5647 36.5008 33.6151 36.8773C33.6654 37.2537 34.2147 37.7614 34.215 39.1221Z" fill="#E0EFF8"/>
<path d="M47.9016 35.8708C48.1799 37.3299 49.0309 39.2612 49.2952 41.1437C49.6624 43.7589 50.148 46.0245 50.5644 48.9427C50.9807 51.8609 51.7277 55.7312 51.7726 58.4174C51.8176 61.1036 51.6601 62.7055 51.5589 65.2208C51.4576 67.736 51.1127 71.3639 51.0677 74.3432C51.6078 74.3675 53.0972 74.442 53.6036 74.6252C54.11 74.8084 54.2952 74.938 54.5427 75.5729C54.7337 76.0631 54.1852 76.5476 54.1234 77.0275C54.6799 77.0753 54.6393 77.0818 55.0332 77.1302C55.6748 77.209 55.7392 77.1702 55.9079 76.765C56.0766 76.3599 56.0412 75.4825 55.7936 74.8972C55.5461 74.3118 55.0732 73.9963 54.5666 73.8274C54.0601 73.6585 53.5194 73.6361 52.9791 73.6136C53.0241 70.867 53.0694 68.1205 53.1707 65.8017C53.272 63.4828 53.4295 61.5918 53.3845 59.1154C53.3395 56.6389 53.0917 53.5775 52.6752 50.8872C52.2587 48.1969 51.6735 45.878 51.3062 43.467C50.9389 41.056 50.7898 38.5528 50.2153 37.2602C49.7344 36.178 48.9544 35.9452 47.9016 35.8708Z" fill="#C7E1F2"/>
<path d="M33.3712 68.4592C33.1854 68.539 32.8138 68.6985 32.6393 68.9181C32.4648 69.1377 32.4874 69.4172 32.499 69.8099C32.5105 70.2026 32.511 70.7085 32.567 71.095C32.6229 71.4814 32.7342 71.7483 33.1504 71.8442C33.5667 71.94 34.2878 71.8651 35.0142 71.8108C35.7407 71.7564 36.4723 71.7227 37.0365 71.6986C37.6007 71.6744 37.9974 71.66 38.2685 71.3982C38.5395 71.1364 38.6852 70.6272 38.7435 70.0281C38.8019 69.429 38.7729 68.7401 38.4463 68.406C38.1197 68.0719 37.4953 68.0929 37.0247 68.1308C36.5542 68.1686 36.2374 68.2234 35.6852 68.2676C35.1329 68.3119 34.345 68.3457 33.951 68.3626C33.5569 68.3795 33.5569 68.3795 33.3712 68.4592Z" fill="#165FA9"/>
<path d="M48.9991 68.2473C48.7052 68.2839 48.117 68.357 47.8411 68.7511C47.5653 69.1452 47.6019 69.86 47.6779 70.4285C47.7539 70.997 47.8692 71.4191 48.2689 71.6047C48.6686 71.7903 49.3524 71.7396 50.1559 71.7086C50.9593 71.6777 51.8823 71.6664 52.4817 71.689C53.0812 71.7115 53.3569 71.7678 53.5974 71.6665C53.8379 71.5652 54.0433 71.3063 54.125 70.7984C54.2066 70.2906 54.1644 69.5336 54.0252 69.0425C53.886 68.5514 53.6496 68.3263 53.2106 68.2038C52.7716 68.0813 52.13 68.0616 51.4433 68.0799C50.7566 68.0981 50.025 68.1544 49.6591 68.1826C49.2931 68.2107 49.2931 68.2107 48.9991 68.2473Z" fill="#165FA9"/>
<path d="M52 68.075C52.0023 68.0755 52.6828 68.4408 52.8218 68.9711C52.9609 69.5013 53.0029 70.3188 52.9213 70.8672C52.8611 71.2725 52.7114 71.5433 52.5519 71.6947C53.0866 71.7189 53.3513 71.7776 53.5788 71.6817C53.8192 71.5804 54.0445 71.295 54.1261 70.7871C54.2077 70.2793 54.1654 69.5226 54.0262 69.0315C53.887 68.5404 53.6506 68.3152 53.2116 68.1927C52.8946 68.1042 52.5777 68.0828 52.1087 68.0772L52 68.075Z" fill="#135292"/>
<path d="M26.5971 58.1575C26.9947 58.2491 27.7893 58.4321 28.5842 58.6152C28.5758 58.6901 28.5675 58.7652 28.5487 58.8734C28.53 58.9816 28.5009 59.1231 28.4988 59.2667C28.4968 59.4103 28.5217 59.556 28.5509 59.7141C28.58 59.8723 28.6133 60.0429 28.6424 60.2364C28.6715 60.4299 28.6965 60.6463 28.7006 60.8523C28.7048 61.0583 28.6882 61.2539 28.6465 61.4203C28.6049 61.5867 28.5383 61.724 28.4707 61.8384C28.4031 61.9528 28.3346 62.0441 28.2741 62.0535C28.2137 62.0629 28.1617 61.9901 28.1095 61.9172C28.0572 61.8442 28.0049 61.7716 27.9467 61.644C27.8886 61.5164 27.8244 61.333 27.7611 61.1613C27.6978 60.9897 27.6354 60.8294 27.603 60.7587C27.5706 60.6879 27.5684 60.7066 27.5704 60.7681C27.5725 60.8295 27.5788 60.9335 27.5806 61.1063C27.5824 61.2791 27.5797 61.5207 27.5555 61.7664C27.5312 62.012 27.4855 62.2617 27.4119 62.4821C27.3383 62.7025 27.237 62.8937 27.1135 63.061C26.99 63.2283 26.8444 63.3719 26.6988 63.4738C26.5531 63.5758 26.4075 63.6361 26.2452 63.6892C26.0829 63.7423 25.904 63.788 25.722 63.7652C25.5399 63.7424 25.3548 63.6509 25.2215 63.5198C25.0883 63.3888 25.0071 63.2182 24.9402 63.0248C24.8732 62.8315 24.8205 62.6153 24.8184 62.3344C24.8163 62.0535 24.8649 61.7078 24.9552 61.3518C25.0455 60.9958 25.1776 60.6296 25.3025 60.307C25.4273 59.9845 25.5449 59.7057 25.6528 59.4515C25.7606 59.1972 25.8588 58.9676 25.9349 58.7862C26.011 58.6048 26.0651 58.4717 26.1026 58.3593C26.14 58.247 26.1609 58.1553 26.1817 58.0637C26.1876 58.0645 26.1936 58.0652 26.1965 58.0656C26.1993 58.066 26.1996 58.0659 26.5971 58.1575Z" fill="#165FA9"/>
<path d="M41.0639 39.1537L44.5598 39.0654L44.4019 61.0863C44.4019 61.0863 43.2365 60.9078 42.6507 60.928C42.0976 60.947 41.0112 61.1908 41.0112 61.1908L41.0639 39.1537Z" fill="#195FA7"/>
<path d="M42.494 40.9046C52.708 40.9046 60.9881 32.8671 60.9881 22.9523C60.9881 13.0375 52.708 5 42.494 5C32.2801 5 24 13.0375 24 22.9523C24 32.8671 32.2801 40.9046 42.494 40.9046Z" fill="#E0EFF8"/>
<path d="M43.189 5.01758C50.9172 7.80367 56.073 14.9431 56.0732 22.9456C56.0686 30.9443 50.9419 38.0972 43.2175 40.8822C53.2529 40.6503 61.2655 32.6898 61.2715 22.9456C61.2712 13.1972 53.2286 5.24931 43.189 5.01758Z" fill="#C1E0F1"/>
<path d="M35.5023 14.0704C34.6018 14.3941 33.719 14.8296 32.6655 15.5476C31.612 16.2656 30.3879 17.2661 29.5815 18.3079C28.7752 19.3497 28.3868 20.4326 28.0572 21.645C27.7276 22.8574 27.4569 24.1992 27.5629 25.5647C27.6689 26.9301 28.1515 28.319 28.4987 29.2901C28.846 30.2612 29.0578 30.8144 29.5965 31.5491C30.1351 32.2837 31.0004 33.1998 31.9123 33.9143C32.8241 34.6289 33.7824 35.1419 35.1998 35.6442C36.6171 36.1466 38.4935 36.6384 40.5782 36.7938C42.6628 36.9492 44.9557 36.7684 46.8738 36.4145C48.792 36.0607 50.3353 35.5339 51.7252 34.6376C53.1151 33.7413 54.3516 32.4756 55.3081 31.0423C56.2645 29.609 56.9409 28.0083 57.2216 26.4043C57.5022 24.8004 57.3872 23.1933 56.8824 21.5776C56.3776 19.9618 55.4831 18.3375 54.1471 17.0133C52.8112 15.689 51.0339 14.665 49.0681 14.0058C47.1024 13.3465 44.9484 13.0523 43.1121 12.9993C41.2759 12.9463 39.7575 13.1346 38.5392 13.3347C37.3209 13.5348 36.4028 13.7467 35.5023 14.0704Z" fill="#195FA7"/>
<path d="M42.7513 56.7088C43.2858 56.7088 43.719 56.2825 43.719 55.7567C43.719 55.2309 43.2858 54.8047 42.7513 54.8047C42.2169 54.8047 41.7837 55.2309 41.7837 55.7567C41.7837 56.2825 42.2169 56.7088 42.7513 56.7088Z" fill="#C7E1F2"/>
<path d="M42.7538 50.8904C43.2882 50.8904 43.7214 50.4642 43.7214 49.9384C43.7214 49.4126 43.2882 48.9863 42.7538 48.9863C42.2194 48.9863 41.7861 49.4126 41.7861 49.9384C41.7861 50.4642 42.2194 50.8904 42.7538 50.8904Z" fill="#C7E1F2"/>
<path d="M42.7416 45.4732C43.276 45.4732 43.7092 45.0469 43.7092 44.5211C43.7092 43.9953 43.276 43.5691 42.7416 43.5691C42.2072 43.5691 41.7739 43.9953 41.7739 44.5211C41.7739 45.0469 42.2072 45.4732 42.7416 45.4732Z" fill="#C7E1F2"/>
<path d="M42.3476 12.8389C40.8 12.8422 39.4957 13.0108 38.4227 13.1884C37.1963 13.3914 36.2721 13.6066 35.3657 13.935C34.4592 14.2634 33.5706 14.7051 32.5101 15.4336C31.4496 16.1621 30.2173 17.1771 29.4056 18.234C28.5939 19.291 28.2029 20.3895 27.8712 21.6196C27.5394 22.8496 27.2669 24.2111 27.3736 25.5964C27.4803 26.9818 27.9662 28.391 28.3157 29.3762C28.6653 30.3614 28.8787 30.9227 29.4209 31.668C29.9631 32.4134 30.8339 33.3426 31.7518 34.0676C32.6696 34.7925 33.6345 35.313 35.0613 35.8227C36.4881 36.3323 38.3766 36.8315 40.4751 36.9892C42.5736 37.1468 44.8817 36.9634 46.8126 36.6044C48.7435 36.2454 50.2971 35.7108 51.6962 34.8014C53.0953 33.8921 54.3399 32.608 55.3027 31.1539C56.2654 29.6997 56.9465 28.0756 57.229 26.4483C57.5115 24.821 57.3954 23.1907 56.8873 21.5515C56.3792 19.9122 55.4787 18.2642 54.1339 16.9207C52.7891 15.5771 51.0001 14.5381 49.0213 13.8693C47.0426 13.2004 44.8743 12.9018 43.0259 12.848C42.7948 12.8413 42.5687 12.8384 42.3476 12.8389ZM42.4937 14.1115C42.6669 14.1111 42.8437 14.1138 43.0247 14.1198C44.4726 14.1673 46.1714 14.4309 47.7214 15.0215C49.2714 15.6121 50.6727 16.5295 51.7261 17.7159C52.7795 18.9023 53.4849 20.3573 53.8829 21.8048C54.281 23.2523 54.3717 24.6919 54.1504 26.1288C53.929 27.5658 53.3957 28.9998 52.6415 30.2838C51.8873 31.5679 50.9122 32.7017 49.8162 33.5047C48.7202 34.3076 47.5035 34.7797 45.991 35.0967C44.4785 35.4137 42.6707 35.5756 41.0269 35.4363C39.3831 35.2971 37.9034 34.8568 36.7858 34.4068C35.6682 33.9567 34.9128 33.4969 34.1938 32.8567C33.4748 32.2166 32.7923 31.396 32.3676 30.7379C31.9428 30.0797 31.7758 29.5839 31.502 28.714C31.2282 27.844 30.8476 26.6 30.764 25.3768C30.6805 24.1535 30.8941 22.9511 31.154 21.865C31.4139 20.7788 31.72 19.809 32.3558 18.8757C32.9916 17.9424 33.9569 17.0458 34.7876 16.4026C35.6183 15.7593 36.3145 15.3693 37.0246 15.0793C37.7346 14.7893 38.4584 14.5995 39.419 14.4202C40.2596 14.2634 41.2814 14.1144 42.4937 14.1115Z" fill="#144D89"/>
<path d="M46.8847 15.536C46.0784 15.324 45.1956 15.3123 44.3422 15.3476C43.4888 15.3829 42.6649 15.4653 42.0351 15.6065C41.4053 15.7477 40.9697 15.9479 40.5342 16.148C41.3228 16.148 42.1116 16.148 43.0945 16.3128C44.0774 16.4776 45.2545 16.8072 46.2844 17.3252C47.3143 17.8432 48.1971 18.5494 48.9916 19.3439C49.7861 20.1385 50.4923 21.0213 50.9454 22.0983C51.3985 23.1753 51.5986 24.4465 51.5103 25.6412C51.422 26.8359 51.0453 27.9541 50.7217 28.6603C50.398 29.3665 50.1273 29.6607 49.8565 29.955C50.2097 29.9432 50.563 29.9314 50.8925 29.8196C51.222 29.7077 51.528 29.4959 51.9047 29.0486C52.2813 28.6014 52.7286 27.9187 53.0169 26.9594C53.3053 26.0002 53.4348 24.7643 53.3524 23.5284C53.2701 22.2925 52.9758 21.0566 52.5168 20.0502C52.0578 19.0438 51.434 18.2669 50.8455 17.7254C50.257 17.1839 49.7038 16.8779 49.0623 16.5189C48.4208 16.1599 47.691 15.7479 46.8847 15.536Z" fill="#85B9EC"/>
<path d="M35.0388 29.8381C35.7834 29.8381 36.3871 29.1897 36.3871 28.3899C36.3871 27.59 35.7834 26.9417 35.0388 26.9417C34.2941 26.9417 33.6904 27.59 33.6904 28.3899C33.6904 29.1897 34.2941 29.8381 35.0388 29.8381Z" fill="#85B9EC"/>
<path d="M35.863 31.0115C36.1112 31.0115 36.3125 30.7879 36.3125 30.5121C36.3125 30.2363 36.1112 30.0127 35.863 30.0127C35.6148 30.0127 35.4136 30.2363 35.4136 30.5121C35.4136 30.7879 35.6148 31.0115 35.863 31.0115Z" fill="#85B9EC"/>
<path d="M27.6772 52.2083L30.7199 53.5119L30.0588 54.8916L27.2462 53.424C27.2462 53.424 27.394 53.0122 27.4671 52.806C27.5376 52.6069 27.6772 52.2083 27.6772 52.2083Z" fill="#195FA7"/>
<path d="M50.6453 38.7607C50.5422 38.7645 50.456 38.9359 50.2938 39.2586C50.2179 39.4096 50.125 39.5958 50.0293 39.8098C50.0798 39.8846 50.1345 39.9672 50.1982 40.0638C50.7554 40.9081 51.8698 42.5968 53.1587 45.2196C54.4476 47.8424 55.9108 51.3993 56.7269 53.8083C57.543 56.2172 57.712 57.4778 57.785 58.1081C57.8581 58.7384 57.8355 58.7383 58.0784 59.3015C58.3213 59.8647 58.8294 60.9908 59.0635 61.8207C59.2977 62.6506 59.2582 63.184 59.1248 63.5959C59.1104 63.64 59.0944 63.6822 59.0779 63.7235C59.1974 63.7401 59.3127 63.7397 59.417 63.7189C59.7632 63.6494 59.9901 63.3587 60.1235 62.9468C60.257 62.5349 60.2964 62.0015 60.0623 61.1717C59.8282 60.3418 59.3201 59.2157 59.0772 58.6525C58.8343 58.0893 58.8569 58.0893 58.7838 57.459C58.7107 56.8288 58.5418 55.5682 57.7257 53.1592C56.9096 50.7503 55.4463 47.1934 54.1574 44.5706C52.8686 41.9477 51.7542 40.259 51.197 39.4148C50.901 38.9663 50.7623 38.7561 50.6453 38.7607ZM56.4843 61.2335C56.4634 61.2937 56.4424 61.3527 56.4215 61.4126C56.4378 61.4738 56.4573 61.531 56.4785 61.5847C56.48 61.468 56.4812 61.3509 56.4843 61.2335Z" fill="#E0EFF8" fill-opacity="0.176955"/>
</svg>
