<?xml version="1.0" encoding="UTF-8" standalone="no"?>
<!-- Created with Inkscape (http://www.inkscape.org/) -->

<svg
   width="48"
   height="48"
   viewBox="0 0 48 48"
   version="1.1"
   id="svg5"
   xml:space="preserve"
   inkscape:version="1.2.2 (732a01da63, 2022-12-09)"
   sodipodi:docname="home_icon.svg"
   xmlns:inkscape="http://www.inkscape.org/namespaces/inkscape"
   xmlns:sodipodi="http://sodipodi.sourceforge.net/DTD/sodipodi-0.dtd"
   xmlns="http://www.w3.org/2000/svg"
   xmlns:svg="http://www.w3.org/2000/svg"><sodipodi:namedview
     id="namedview7"
     pagecolor="#ffffff"
     bordercolor="#000000"
     borderopacity="0.25"
     inkscape:showpageshadow="2"
     inkscape:pageopacity="0.0"
     inkscape:pagecheckerboard="0"
     inkscape:deskcolor="#d1d1d1"
     inkscape:document-units="px"
     showgrid="false"
     inkscape:zoom="11.844039"
     inkscape:cx="-4.0948869"
     inkscape:cy="26.131288"
     inkscape:window-width="1920"
     inkscape:window-height="991"
     inkscape:window-x="2391"
     inkscape:window-y="594"
     inkscape:window-maximized="1"
     inkscape:current-layer="layer1" /><defs
     id="defs2" /><g
     inkscape:label="Vrstva 1"
     inkscape:groupmode="layer"
     id="layer1"><g
       id="g2368"><path
         id="path2308"
         style="fill:#cccccc;stroke-width:0.0889737"
         d="m 23.545258,11.97735 c -1.317892,0 -2.635704,1.317345 -5.271484,3.953124 -5.271564,5.271566 -5.270795,5.271485 -3.513672,5.271485 1.757124,0 1.755859,1.25e-4 1.755859,4.404297 0,4.404166 -3.34e-4,4.404297 2.623047,4.404297 2.623384,0 2.624868,4.69e-4 2.648438,-2.646485 0.02357,-2.646949 0.02283,-2.646484 1.757812,-2.646484 1.734971,0 1.734243,-4.65e-4 1.757813,2.646484 0.02357,2.646954 0.02504,2.646485 2.648437,2.646485 2.623387,0 2.623047,-1.31e-4 2.623047,-4.404297 0,-4.404172 6.88e-4,-4.404297 1.757812,-4.404297 1.757129,0 1.755935,8.1e-5 -3.515624,-5.271485 -2.635785,-2.635779 -3.953592,-3.953125 -5.271485,-3.953124 z" /><path
         id="path856"
         style="fill:#cccccc;stroke-width:0.206533"
         d="M 23.898438,0.42578125 C 12.9738,0.4935111 2.4847738,8.5393976 1.109375,21.429688 -0.20880739,33.783749 8.8164044,45.433303 20.908203,46.988281 42.709752,49.791911 55.682663,23.096484 40.177734,7.3359375 35.463773,2.5442615 29.620866,0.39030371 23.898438,0.42578125 Z M 23.664062,3.7265625 c 0.320679,-0.00786 0.641363,-0.00827 0.962891,0 4.676774,0.1202601 9.412257,1.9596069 13.292969,5.9042969 C 48.713859,20.602748 43.558835,39.565479 28.773438,43.275391 16.252544,46.417096 4.3320313,36.920227 4.3320312,23.800781 4.3320313,11.904622 13.723015,3.9703351 23.664062,3.7265625 Z" /></g></g></svg>
