<svg width="79" height="82" viewBox="0 0 79 82" fill="none" xmlns="http://www.w3.org/2000/svg">
<path d="M5.13423 0.000254537C5.13718 0.0309027 5.13979 0.0615966 5.14206 0.0922952C5.13417 1.23955 4.64881 2.3395 3.78756 3.16189C2.92631 3.98427 1.75595 4.46531 0.521484 4.50434V9.49365C1.76412 9.52733 2.94382 10.009 3.81067 10.8367C4.67751 11.6644 5.1634 12.773 5.16538 13.9277C5.15844 15.0793 4.67036 16.1834 3.80403 17.0073C2.9377 17.8311 1.76082 18.3103 0.521484 18.3439V22.8606C1.76071 22.8983 2.93576 23.3814 3.79889 24.2082C4.66202 25.035 5.14579 26.1408 5.14822 27.2925C5.14085 28.441 4.6549 29.5423 3.79228 30.3653C2.92966 31.1883 1.75742 31.669 0.521484 31.7066V35.8248C1.76402 35.8599 2.94302 36.343 3.80872 37.1717C4.67442 38.0003 5.15882 39.1094 5.15929 40.2641C5.15736 41.4178 4.67231 42.5256 3.80676 43.3531C2.94122 44.1806 1.76305 44.663 0.521484 44.6981V49.5295C1.76305 49.5646 2.94122 50.0469 3.80676 50.8744C4.67231 51.702 5.15736 52.8097 5.15929 53.9635C5.15241 55.1141 4.66517 56.2175 3.80014 57.0412C2.93511 57.8649 1.75975 58.3447 0.521484 58.3797V62.6998C1.75734 62.7436 2.9269 63.2303 3.78473 64.0578C4.64257 64.8853 5.122 65.9892 5.12243 67.138C5.12025 68.2856 4.64006 69.388 3.7824 70.2141C2.92474 71.0403 1.75618 71.5261 0.521484 71.5699V76.5215C1.76402 76.5567 2.94302 77.0398 3.80872 77.8684C4.67442 78.697 5.15882 79.8061 5.15929 80.9608C5.15664 81.0016 5.15336 81.0424 5.14949 81.0832H11.6186C11.6147 81.0424 11.6114 81.0016 11.6087 80.9608C11.6086 80.3772 11.7323 79.7994 11.9727 79.2603C12.2131 78.7211 12.5655 78.2313 13.0098 77.8186C13.454 77.406 13.9814 77.0787 14.5619 76.8554C15.1423 76.6322 15.7644 76.5173 16.3927 76.5174C17.6613 76.5175 18.8779 76.9858 19.7748 77.8191C20.6717 78.6524 21.1755 79.7825 21.1754 80.9608C21.1727 81.0016 21.1694 81.0424 21.1655 81.0832H26.8031C26.7992 81.0424 26.7959 81.0016 26.7932 80.9608C26.793 79.7825 27.2969 78.6523 28.1938 77.819C29.0908 76.9857 30.3073 76.5175 31.5759 76.5174C32.2042 76.5173 32.8263 76.6322 33.4067 76.8555C33.9872 77.0787 34.5146 77.406 34.9588 77.8187C35.4031 78.2313 35.7555 78.7211 35.9958 79.2603C36.2362 79.7994 36.3599 80.3773 36.3599 80.9608C36.3572 81.0016 36.354 81.0424 36.3501 81.0832H42.5527C42.5497 81.0515 42.5471 81.0197 42.5448 80.988C42.5447 79.8096 43.0485 78.6795 43.9455 77.8462C44.8424 77.0129 46.059 76.5447 47.3276 76.5445C47.9559 76.5445 48.578 76.6594 49.1584 76.8826C49.7389 77.1059 50.2663 77.4332 50.7105 77.8458C51.1547 78.2585 51.5071 78.7483 51.7475 79.2875C51.9879 79.8266 52.1116 80.4044 52.1115 80.988C52.1093 81.0197 52.1067 81.0515 52.1037 81.0832H58.3591C58.3561 81.0501 58.3535 81.0169 58.3513 80.9838C58.3512 80.4003 58.4749 79.8224 58.7153 79.2833C58.9557 78.7442 59.3081 78.2543 59.7523 77.8417C60.1966 77.429 60.724 77.1018 61.3044 76.8785C61.8849 76.6552 62.507 76.5403 63.1352 76.5404C64.4038 76.5405 65.6204 77.0088 66.5174 77.8421C67.4143 78.6754 67.9181 79.8055 67.918 80.9838C67.9158 81.0169 67.9132 81.0501 67.9101 81.0832H73.7357C73.7317 81.0389 73.7284 80.9946 73.7258 80.9503C73.7259 79.7722 74.2299 78.6423 75.1268 77.8093C76.0237 76.9762 77.2401 76.5081 78.5085 76.508C78.6512 76.508 78.7938 76.5139 78.9359 76.5257V72.0541C78.7773 72.0719 78.6179 72.0824 78.4582 72.0854C77.8299 72.0855 77.2078 71.9706 76.6274 71.7473C76.0469 71.5241 75.5195 71.1968 75.0753 70.7841C74.631 70.3715 74.2786 69.8817 74.0382 69.3425C73.7978 68.8034 73.6741 68.2255 73.6742 67.642C73.6744 66.4637 74.1785 65.3336 75.0757 64.5005C75.9728 63.6674 77.1895 63.1995 78.4582 63.1996C78.6177 63.1995 78.7772 63.2068 78.9359 63.2215V58.1099C78.7928 58.1429 78.6481 58.1698 78.5024 58.1904C77.8741 58.1904 77.252 58.0756 76.6716 57.8523C76.0911 57.629 75.5637 57.3017 75.1195 56.8891C74.6752 56.4765 74.3228 55.9866 74.0825 55.4475C73.8421 54.9083 73.7184 54.3305 73.7184 53.7469C73.7186 52.5686 74.2227 51.4386 75.1199 50.6055C76.017 49.7724 77.2337 49.3044 78.5024 49.3046C78.6473 49.3078 78.7919 49.3173 78.9359 49.3328V45.2532C78.794 45.2858 78.6505 45.3123 78.506 45.3327C77.8778 45.3328 77.2557 45.2179 76.6752 44.9946C76.0948 44.7714 75.5674 44.4441 75.1231 44.0314C74.6789 43.6188 74.3265 43.1289 74.0861 42.5898C73.8457 42.0507 73.722 41.4728 73.7221 40.8893C73.7222 39.711 74.2264 38.581 75.1235 37.7479C76.0207 36.9147 77.2374 36.4468 78.506 36.4469C78.6497 36.4503 78.7931 36.4597 78.9359 36.4751V31.9459C78.7928 31.9789 78.6481 32.0058 78.5024 32.0264C77.8741 32.0265 77.252 31.9116 76.6716 31.6883C76.0911 31.465 75.5637 31.1377 75.1195 30.7251C74.6752 30.3125 74.3228 29.8226 74.0825 29.2835C73.8421 28.7444 73.7184 28.1665 73.7184 27.583C73.7184 26.9994 73.8421 26.4216 74.0825 25.8825C74.3228 25.3433 74.6752 24.8535 75.1195 24.4409C75.5637 24.0282 76.0911 23.701 76.6716 23.4777C77.252 23.2544 77.8741 23.1395 78.5024 23.1396C78.6473 23.1432 78.7919 23.153 78.9359 23.1688V18.5759C78.7848 18.611 78.6319 18.6393 78.4778 18.6606C77.2094 18.6604 75.993 18.1923 75.0961 17.3592C74.1992 16.5262 73.6953 15.3963 73.6951 14.2182C73.695 13.0399 74.1988 11.9098 75.0957 11.0765C75.9926 10.2432 77.2092 9.77494 78.4778 9.77477C78.6309 9.77804 78.7838 9.78816 78.9359 9.80506V4.47586C78.8032 4.50592 78.6693 4.53067 78.5343 4.55008C77.9061 4.55016 77.2839 4.43528 76.7035 4.21201C76.123 3.98873 75.5956 3.66144 75.1514 3.24881C74.7071 2.83619 74.3547 2.34633 74.1143 1.80719C73.8739 1.26805 73.7502 0.690223 73.7503 0.106677C73.7576 0.0710328 73.7654 0.0354662 73.7737 0H68.0686C68.0698 0.0282267 68.0708 0.056466 68.0715 0.08471C68.0716 1.26304 67.5678 2.39314 66.6709 3.22644C65.7739 4.05974 64.5573 4.52798 63.2887 4.52814C62.6605 4.52821 62.0384 4.41332 61.4579 4.19004C60.8775 3.96676 60.3501 3.63947 59.9058 3.22685C59.4616 2.81422 59.1092 2.32436 58.8688 1.78522C58.6284 1.24609 58.5047 0.668252 58.5048 0.08471C58.5065 0.0564573 58.5084 0.0282179 58.5107 0H52.4862C52.4884 0.0282179 52.4904 0.0564573 52.4921 0.08471C52.4921 0.668258 52.3684 1.24609 52.128 1.78522C51.8876 2.32436 51.5352 2.81425 51.091 3.22687C50.6467 3.63949 50.1193 3.96679 49.5389 4.19007C48.9584 4.41334 48.3363 4.52822 47.708 4.52814C46.4394 4.52797 45.2229 4.05971 44.326 3.22641C43.429 2.39311 42.9252 1.26303 42.9253 0.08471C42.9312 0.0564192 42.9373 0.0281799 42.9438 0H37.0163C37.0198 0.0383078 37.0227 0.0766467 37.0251 0.115025C37.0252 0.698572 36.9015 1.27643 36.6611 1.81556C36.4207 2.3547 36.0683 2.84456 35.624 3.25719C35.1798 3.66981 34.6524 3.99711 34.0719 4.22038C33.4915 4.44366 32.8694 4.55853 32.2411 4.55846C30.9725 4.55828 29.756 4.09005 28.859 3.25675C27.9621 2.42346 27.4583 1.29334 27.4584 0.115025C27.466 0.0765821 27.4742 0.0382431 27.4829 0H20.9512C20.953 0.0202016 20.9546 0.0404084 20.9561 0.0606308C20.9562 1.23895 20.4524 2.36906 19.5555 3.20236C18.6586 4.03566 17.442 4.50389 16.1734 4.50406C15.5451 4.50414 14.923 4.38926 14.3426 4.16599C13.7621 3.94271 13.2347 3.61542 12.7905 3.20279C12.3462 2.79017 11.9938 2.30031 11.7534 1.76117C11.513 1.22203 11.3893 0.644178 11.3894 0.0606308C11.3937 0.0403896 11.3982 0.0201828 11.4029 0L5.13423 0.000254537Z" fill="#CACACA"/>
<path d="M69.6124 7.60892H10.4253V74.5383H69.6124V7.60892Z" fill="#262A45"/>
<path d="M51.0428 12.9903C49.024 12.9955 47.0329 13.3866 45.2192 14.1343C48.4685 14.5091 51.4669 16.0683 53.6438 18.5153C55.8207 20.9622 57.0241 24.1261 57.025 27.4047C57.0165 30.1541 56.1621 32.8339 54.5784 35.0786C57.3934 34.4267 59.8775 33.0148 61.6504 31.0591C63.4233 29.1034 64.3873 26.7116 64.3948 24.2499C64.3948 21.2637 62.988 18.3998 60.4841 16.2882C57.9801 14.1766 54.5839 12.9903 51.0428 12.9903Z" fill="white"/>
<g opacity="0.864458">
<path d="M10.4282 52.5903C10.4282 52.5903 19.6025 55.342 24.3807 55.3918C29.7141 55.4473 34.128 53.668 39.4332 53.1985C44.342 52.7642 51.7448 52.7642 57.9205 52.8728C64.0962 52.9814 69.6267 53.2507 69.6267 53.2507L69.6079 74.5747L10.4283 74.5194L10.4282 52.5903Z" fill="#ACB2CD"/>
</g>
<g opacity="0.692771">
<path d="M10.4256 62.6645C10.4256 62.6645 25.3058 57.4648 35.1884 57.4648C37.6591 57.4648 42.6635 56.6309 50.6519 57.9925C58.6403 59.3541 69.6128 62.9112 69.6128 62.9112L69.6345 74.5282H10.3389L10.4256 62.6645Z" fill="#C5C7D5"/>
</g>
<g opacity="0.740964">
<path d="M10.55 65.6468C10.55 65.6468 25.3955 61.7619 35.2551 61.7619C37.72 61.7619 42.7128 61.1389 50.6826 62.1562C58.6525 63.1735 69.5994 65.8311 69.5994 65.8311L69.621 74.5106H10.4634L10.55 65.6468Z" fill="#DEE3E9"/>
</g>
<path d="M20.4354 18.0366C20.4476 18.0333 20.4671 18.0263 20.4783 18.021C20.4897 18.016 20.5086 18.0039 20.5204 17.9952C20.5323 17.9864 20.5499 17.9681 20.5596 17.9544C20.5694 17.9408 20.5811 17.9179 20.5859 17.9036C20.5917 17.8868 20.5947 17.8663 20.5947 17.846C20.5947 17.8189 20.5859 17.7792 20.5286 17.5614C20.4832 17.3878 20.4624 17.3013 20.4624 17.2859C20.4624 17.2706 20.4654 17.2579 20.4722 17.2457C20.4781 17.2351 20.4956 17.2167 20.516 17.1998C20.5348 17.1843 20.635 17.1046 20.7385 17.0226C20.8848 16.9068 20.9302 16.8686 20.9426 16.8512C20.9514 16.8389 20.9623 16.8185 20.967 16.806C20.9719 16.7935 20.9768 16.7697 20.9778 16.7532C20.9797 16.7325 20.9778 16.7151 20.9729 16.6971C20.9689 16.6828 20.9598 16.6598 20.9524 16.6459C20.9436 16.6296 20.9295 16.6124 20.9118 16.597C20.8969 16.5839 20.8787 16.5703 20.8714 16.5667C20.8645 16.5634 20.8473 16.5567 20.8341 16.5524C20.8148 16.5458 20.7565 16.5409 20.5255 16.5248C20.341 16.512 20.2343 16.503 20.2225 16.4992C20.211 16.4959 20.1975 16.4864 20.1857 16.4742C20.1689 16.4569 20.1566 16.431 20.0611 16.2113C20.0028 16.0774 19.9493 15.9593 19.9423 15.9491C19.9355 15.9388 19.9222 15.9238 19.9133 15.9156C19.9045 15.9073 19.8859 15.8945 19.8722 15.8869C19.8585 15.8794 19.8341 15.87 19.818 15.8666C19.8019 15.8633 19.7776 15.8607 19.7638 15.8607C19.7501 15.8607 19.7279 15.8633 19.7145 15.8666C19.701 15.8699 19.6802 15.8773 19.668 15.883C19.656 15.8889 19.6359 15.9026 19.6235 15.9136C19.611 15.9246 19.5952 15.942 19.5883 15.9522C19.5814 15.9624 19.5284 16.0797 19.4705 16.213C19.4121 16.3472 19.36 16.4615 19.3536 16.4692C19.3477 16.4767 19.3316 16.4882 19.3187 16.4942L19.2954 16.5051L19.0095 16.5251C18.8522 16.5361 18.7159 16.5472 18.7065 16.5497C18.6967 16.5522 18.6817 16.5581 18.6724 16.5623C18.6626 16.5665 18.6462 16.5767 18.635 16.5842C18.6238 16.5918 18.6058 16.6097 18.595 16.6239C18.5832 16.6395 18.5714 16.6616 18.5653 16.6797C18.5584 16.7007 18.5551 16.719 18.5552 16.7406C18.5552 16.7576 18.5581 16.7805 18.5611 16.7915C18.564 16.8025 18.5711 16.8196 18.5765 16.8295C18.5814 16.8395 18.5919 16.8542 18.5988 16.8625C18.6056 16.8708 18.6356 16.8969 18.6654 16.9208C18.6952 16.9446 18.7942 17.0234 18.8854 17.0957C19.0336 17.2132 19.0523 17.2295 19.0614 17.2477C19.0673 17.2588 19.0715 17.2756 19.0716 17.2849C19.0716 17.2942 19.0637 17.3312 19.0547 17.367C19.0449 17.4029 19.0154 17.5169 18.988 17.6204C18.9421 17.7938 18.9381 17.8116 18.9381 17.8466C18.9381 17.8756 18.9401 17.8903 18.947 17.9083C18.9519 17.9214 18.9621 17.9408 18.9694 17.9515C18.9762 17.9623 18.9935 17.98 19.0067 17.9911C19.0199 18.0022 19.0423 18.0164 19.0563 18.0226C19.0704 18.0285 19.092 18.036 19.1045 18.0384C19.1169 18.0409 19.1372 18.0426 19.1494 18.0426C19.1618 18.0426 19.1831 18.04 19.1971 18.0367C19.211 18.0334 19.2339 18.0246 19.2481 18.0175C19.2623 18.01 19.3172 17.9792 19.3699 17.9484C19.4227 17.9176 19.5335 17.8532 19.616 17.8053L19.7661 17.7182L20.0292 17.8709C20.1757 17.956 20.303 18.0273 20.3165 18.0318C20.331 18.0368 20.3554 18.0405 20.377 18.0414C20.4007 18.0422 20.4209 18.0402 20.4354 18.0366Z" fill="#FFF375"/>
<path d="M31.4362 24.1498C31.4382 24.139 31.4401 24.1212 31.4401 24.1102C31.4403 24.0992 31.4372 24.0794 31.4333 24.0664C31.4303 24.0533 31.4192 24.0314 31.4096 24.0177C31.3999 24.0039 31.382 23.9843 31.3696 23.9739C31.3551 23.9615 31.3352 23.9496 31.3142 23.94C31.2862 23.9272 31.2409 23.9149 30.9886 23.8546C30.7875 23.8063 30.6882 23.7808 30.6723 23.7736C30.6564 23.7661 30.6447 23.758 30.6353 23.7471C30.6275 23.7377 30.6164 23.7159 30.6087 23.6926C30.6019 23.6711 30.5666 23.5583 30.5309 23.4418C30.4805 23.2772 30.4626 23.225 30.4504 23.2075C30.4416 23.1951 30.4259 23.1772 30.4152 23.1678C30.4047 23.1582 30.3823 23.1433 30.3658 23.1347C30.3453 23.1234 30.3264 23.1166 30.3055 23.1118C30.2888 23.1077 30.2607 23.1035 30.2428 23.1029C30.2218 23.1021 30.1973 23.1046 30.173 23.1104C30.1524 23.1154 30.1297 23.1226 30.1225 23.1264C30.1157 23.1298 30.1008 23.1398 30.0901 23.1476C30.074 23.1589 30.0414 23.2004 29.9152 23.3659C29.8144 23.4981 29.7546 23.5738 29.7451 23.5809C29.7363 23.5876 29.7199 23.5935 29.7018 23.5966C29.6758 23.6008 29.6433 23.5983 29.3709 23.5655C29.2047 23.5456 29.0573 23.5298 29.0434 23.5302C29.0295 23.5305 29.0077 23.5335 28.9951 23.536C28.9823 23.5385 28.9602 23.5466 28.9458 23.5532C28.9315 23.5599 28.9104 23.5738 28.8992 23.5842C28.8881 23.5946 28.874 23.6118 28.8675 23.6221C28.8606 23.6323 28.853 23.6502 28.8501 23.6619C28.8472 23.6735 28.8452 23.6926 28.8452 23.7045C28.8455 23.7163 28.8501 23.7378 28.8556 23.7524C28.8615 23.7669 28.8716 23.787 28.8789 23.7971C28.8858 23.807 28.9824 23.9024 29.0927 24.009C29.2039 24.1164 29.2973 24.2096 29.3023 24.2181C29.3072 24.2265 29.3111 24.2437 29.3111 24.2561L29.3114 24.2788L29.1965 24.5026C29.1333 24.6257 29.0802 24.7332 29.0783 24.7414C29.0763 24.7499 29.0754 24.7639 29.0754 24.7729C29.075 24.7823 29.0773 24.7994 29.0803 24.8114C29.0832 24.8233 29.0928 24.8454 29.1024 24.8602C29.1129 24.8764 29.1302 24.8957 29.146 24.909C29.1644 24.9241 29.1817 24.9353 29.2042 24.9454C29.2218 24.9538 29.2468 24.9621 29.2596 24.9651C29.2724 24.9684 29.2934 24.9709 29.3063 24.9718C29.3188 24.9726 29.3391 24.9719 29.3508 24.9709C29.3627 24.9701 29.4039 24.9597 29.4427 24.9487C29.4815 24.9377 29.6099 24.9008 29.7279 24.8667C29.9197 24.8113 29.9454 24.805 29.9685 24.8068C29.9828 24.8076 30.0022 24.8126 30.0119 24.8168C30.0217 24.821 30.056 24.8446 30.0888 24.8684C30.1212 24.8927 30.2252 24.9689 30.3192 25.0385C30.4767 25.1552 30.4932 25.1665 30.5295 25.1831C30.5594 25.1969 30.5756 25.2024 30.5975 25.2058C30.6132 25.2083 30.6382 25.21 30.6527 25.2092C30.6671 25.2091 30.6937 25.205 30.7114 25.2C30.7291 25.195 30.7544 25.1853 30.7675 25.1778C30.7803 25.1703 30.7983 25.1574 30.8067 25.1491C30.8155 25.1408 30.8265 25.1266 30.8324 25.1174C30.8383 25.1082 30.8458 25.091 30.8489 25.079C30.8519 25.067 30.8538 25.0456 30.8529 25.0316C30.8519 25.0174 30.846 24.9617 30.8392 24.9075C30.8324 24.8533 30.8184 24.7398 30.8079 24.6552L30.789 24.5014L31.0717 24.3766C31.2291 24.3071 31.3632 24.2454 31.3743 24.2375C31.3863 24.229 31.4017 24.2124 31.4128 24.1966C31.4249 24.1793 31.4331 24.1632 31.4364 24.1507L31.4362 24.1498Z" fill="#FFF375"/>
<path d="M18.5563 26.6325C18.5583 26.6217 18.5602 26.6038 18.5602 26.5928C18.5604 26.5819 18.5573 26.5621 18.5534 26.549C18.5504 26.536 18.5394 26.5141 18.5298 26.5003C18.52 26.4866 18.5021 26.467 18.4897 26.4565C18.4752 26.4442 18.4553 26.4323 18.4343 26.4227C18.4063 26.4098 18.361 26.3976 18.1087 26.3373C17.9076 26.289 17.8083 26.2635 17.7924 26.2562C17.7765 26.2487 17.7648 26.2407 17.7555 26.2298C17.7476 26.2204 17.7365 26.1986 17.7288 26.1753C17.722 26.1538 17.6867 26.0409 17.651 25.9245C17.6006 25.7598 17.5827 25.7077 17.5705 25.6902C17.5617 25.6778 17.546 25.6599 17.5353 25.6505C17.5248 25.6409 17.5024 25.6259 17.4859 25.6174C17.4654 25.6061 17.4465 25.5993 17.4256 25.5945C17.4089 25.5903 17.3808 25.5862 17.3629 25.5856C17.3419 25.5848 17.3174 25.5872 17.2931 25.5931C17.2725 25.5981 17.2498 25.6053 17.2426 25.6091C17.2358 25.6124 17.2209 25.6224 17.2102 25.6303C17.1942 25.6416 17.1615 25.6831 17.0354 25.8486C16.9346 25.9808 16.8747 26.0565 16.8652 26.0636C16.8564 26.0702 16.84 26.0762 16.8219 26.0793C16.796 26.0835 16.7634 26.081 16.491 26.0481C16.3248 26.0283 16.1774 26.0124 16.1635 26.0128C16.1496 26.0131 16.1278 26.0162 16.1152 26.0187C16.1024 26.0212 16.0803 26.0293 16.0659 26.0359C16.0516 26.0425 16.0305 26.0565 16.0193 26.0669C16.0082 26.0773 15.9941 26.0945 15.9876 26.1047C15.9807 26.115 15.9731 26.1329 15.9702 26.1445C15.9673 26.1562 15.9653 26.1753 15.9653 26.1872C15.9657 26.199 15.9702 26.2205 15.9757 26.235C15.9816 26.2496 15.9917 26.2697 15.999 26.2797C16.0059 26.2897 16.1026 26.3851 16.2129 26.4917C16.324 26.5991 16.4175 26.6923 16.4224 26.7008C16.4273 26.7092 16.4312 26.7263 16.4312 26.7388L16.4315 26.7615L16.3166 26.9853C16.2534 27.1084 16.2003 27.2159 16.1984 27.2241C16.1965 27.2326 16.1955 27.2466 16.1955 27.2556C16.1951 27.265 16.1974 27.282 16.2004 27.294C16.2033 27.306 16.2129 27.3281 16.2225 27.3428C16.233 27.3591 16.2503 27.3784 16.2661 27.3916C16.2845 27.4067 16.3019 27.4179 16.3243 27.4281C16.3419 27.4364 16.3669 27.4448 16.3797 27.4478C16.3925 27.4511 16.4135 27.4536 16.4264 27.4545C16.4389 27.4553 16.4592 27.4546 16.4709 27.4536C16.4828 27.4528 16.524 27.4424 16.5628 27.4313C16.6016 27.4203 16.73 27.3835 16.848 27.3494C17.0398 27.294 17.0655 27.2876 17.0886 27.2895C17.1029 27.2903 17.1223 27.2953 17.132 27.2995C17.1418 27.3036 17.1761 27.3273 17.2089 27.351C17.2413 27.3754 17.3453 27.4515 17.4393 27.5212C17.5968 27.6378 17.6134 27.6492 17.6496 27.6658C17.6795 27.6796 17.6957 27.6851 17.7176 27.6885C17.7333 27.691 17.7583 27.6927 17.7728 27.6918C17.7872 27.6918 17.8138 27.6877 17.8315 27.6827C17.8492 27.6777 17.8745 27.668 17.8876 27.6605C17.9004 27.653 17.9184 27.64 17.9268 27.6318C17.9356 27.6235 17.9466 27.6093 17.9525 27.6001C17.9584 27.5908 17.9659 27.5737 17.969 27.5616C17.972 27.5496 17.9739 27.5283 17.973 27.5143C17.972 27.5001 17.9661 27.4444 17.9594 27.3902C17.9525 27.336 17.9385 27.2225 17.928 27.1379L17.9091 26.984L18.1918 26.8593C18.3492 26.7898 18.4833 26.7281 18.4944 26.7201C18.5064 26.7116 18.5218 26.6951 18.533 26.6793C18.545 26.662 18.5532 26.6459 18.5565 26.6334L18.5563 26.6325Z" fill="#FFF375"/>
<path d="M25.7615 36.3545C25.7729 36.3595 25.7924 36.3664 25.8047 36.3696C25.8169 36.3729 25.8402 36.3762 25.8559 36.3771C25.8715 36.3779 25.8992 36.3763 25.9175 36.3721C25.9357 36.3688 25.9631 36.3595 25.9784 36.3524C25.9965 36.344 26.0158 36.3316 26.0328 36.3174C26.0555 36.2984 26.0826 36.2652 26.2248 36.0778C26.3384 35.9285 26.3963 35.8552 26.4092 35.8445C26.422 35.8337 26.4347 35.8266 26.4497 35.8222C26.4628 35.818 26.4904 35.8164 26.5188 35.8164C26.545 35.8169 26.6819 35.8222 26.8232 35.8272C27.0228 35.8347 27.0866 35.8356 27.1098 35.8305C27.1264 35.8272 27.151 35.8196 27.1648 35.8137C27.1787 35.8078 27.202 35.7942 27.2166 35.7832C27.2353 35.7699 27.2486 35.7565 27.2601 35.7409C27.2689 35.7285 27.2823 35.7068 27.2886 35.6926C27.2965 35.6757 27.3007 35.6551 27.3012 35.6336C27.3017 35.6154 27.3003 35.5948 27.2982 35.5878C27.2963 35.5811 27.2894 35.5662 27.2841 35.5552C27.2763 35.5388 27.2393 35.5 27.0909 35.3485C26.9722 35.2274 26.905 35.1563 26.8999 35.1465C26.895 35.1372 26.893 35.1223 26.895 35.1066C26.8979 35.0843 26.9108 35.0586 27.0278 34.8467C27.0991 34.7173 27.1605 34.6021 27.1642 34.5907C27.1681 34.5793 27.171 34.5607 27.172 34.5497C27.1728 34.5385 27.1701 34.5182 27.1671 34.5045C27.1642 34.491 27.1545 34.4696 27.1462 34.4574C27.1373 34.4453 27.1226 34.4287 27.113 34.4205C27.1032 34.4121 27.0857 34.4004 27.0736 34.3946C27.0613 34.3888 27.0406 34.3813 27.0272 34.3779C27.0139 34.3746 26.9883 34.3721 26.9704 34.3721C26.9525 34.3723 26.9267 34.3746 26.9134 34.3779C26.9001 34.3813 26.7646 34.431 26.6124 34.4892C26.459 34.5479 26.3269 34.5964 26.3158 34.5979C26.3054 34.5996 26.2845 34.5978 26.2705 34.5946L26.245 34.5879L26.0278 34.4284C25.9083 34.3406 25.8034 34.2656 25.7948 34.2616C25.786 34.2575 25.7704 34.2525 25.7603 34.2498C25.7499 34.2465 25.7299 34.244 25.7157 34.2423C25.7016 34.2406 25.6739 34.2425 25.6544 34.2456C25.633 34.249 25.6063 34.2577 25.5868 34.2666C25.5645 34.2771 25.5467 34.288 25.5287 34.3032C25.5145 34.3151 25.4974 34.3329 25.4902 34.3425C25.4834 34.352 25.4738 34.3683 25.4692 34.3785C25.4643 34.3884 25.4594 34.4051 25.4572 34.4151C25.4552 34.4251 25.4543 34.4616 25.4552 34.4964C25.4561 34.5312 25.4592 34.6465 25.4631 34.7526C25.469 34.925 25.468 34.9478 25.4592 34.966C25.4543 34.9775 25.4428 34.9917 25.4351 34.9984C25.4272 35.005 25.3909 35.026 25.3545 35.0457C25.3176 35.0649 25.2015 35.1269 25.0955 35.1828C24.9181 35.2765 24.9005 35.2866 24.8711 35.3112C24.8468 35.3314 24.8358 35.343 24.8256 35.3598C24.8177 35.3719 24.809 35.3917 24.8052 35.4036C24.8013 35.4153 24.7983 35.4383 24.7983 35.4541C24.7983 35.47 24.8022 35.4934 24.8071 35.5063C24.812 35.519 24.8211 35.5374 24.8277 35.5466C24.8346 35.556 24.8472 35.5694 24.8557 35.5768C24.8646 35.5843 24.8815 35.5955 24.894 35.6016C24.9066 35.6074 24.93 35.6155 24.946 35.6191C24.9622 35.6224 25.0265 35.6342 25.0892 35.6446C25.152 35.6551 25.2836 35.6771 25.3816 35.6937L25.5598 35.7238L25.6163 35.9906C25.6478 36.1392 25.6773 36.2665 25.683 36.2778C25.6889 36.2902 25.703 36.3075 25.7174 36.3213C25.7333 36.3362 25.7484 36.3482 25.7615 36.3545Z" fill="#FFF375"/>
<path d="M46.7364 43.5894C46.7286 43.5978 46.7163 43.6126 46.71 43.6222C46.7031 43.6316 46.6948 43.6503 46.6906 43.6631C46.6867 43.676 46.6828 43.6994 46.6837 43.7154C46.6837 43.7313 46.6886 43.756 46.6935 43.7703C46.6994 43.7871 46.7095 43.8058 46.7221 43.8229C46.7392 43.8459 46.7715 43.8755 46.9568 44.0333C47.1041 44.1594 47.176 44.2231 47.1857 44.236C47.1955 44.249 47.2008 44.2611 47.2027 44.2745C47.2047 44.2862 47.2008 44.3096 47.1949 44.3332C47.189 44.3549 47.1538 44.4677 47.1182 44.5842C47.0675 44.7488 47.053 44.8017 47.0538 44.8221C47.0542 44.8366 47.0578 44.8586 47.0617 44.8714C47.0656 44.8842 47.0762 44.9065 47.0857 44.921C47.097 44.9393 47.1096 44.9531 47.1251 44.9661C47.1375 44.976 47.1595 44.9917 47.1746 45C47.1924 45.0101 47.2151 45.018 47.2397 45.0229C47.2604 45.027 47.2843 45.0304 47.2929 45.0304C47.3007 45.0302 47.3195 45.0279 47.3333 45.0254C47.3538 45.022 47.4062 44.9998 47.6115 44.9082C47.7755 44.8351 47.8712 44.7941 47.8836 44.7919C47.8953 44.7894 47.9129 44.7913 47.9305 44.7961C47.9556 44.8036 47.9822 44.8193 48.2009 44.9614C48.3343 45.0481 48.4536 45.1235 48.4659 45.129C48.4782 45.1348 48.4989 45.141 48.5114 45.1442C48.524 45.1475 48.5479 45.1492 48.5642 45.15C48.5804 45.1504 48.607 45.1467 48.6227 45.1425C48.6384 45.1375 48.6606 45.129 48.672 45.1227C48.6837 45.1161 48.7009 45.1042 48.7101 45.0954C48.7189 45.0864 48.7323 45.0707 48.739 45.0603C48.7458 45.05 48.7538 45.0292 48.7577 45.0143C48.7616 44.9994 48.7635 44.9774 48.7626 44.9656C48.7616 44.9538 48.7331 44.8306 48.6983 44.6916C48.6633 44.5516 48.6356 44.4313 48.6361 44.4218C48.6364 44.4128 48.643 44.3958 48.6495 44.3848L48.6625 44.365L48.8916 44.2179C49.0175 44.137 49.1258 44.0656 49.1321 44.0592C49.139 44.0525 49.1478 44.0408 49.153 44.033C49.1589 44.0246 49.1661 44.009 49.171 43.9975C49.1759 43.9861 49.1799 43.9626 49.1799 43.9457C49.1805 43.9272 49.1759 43.9032 49.17 43.885C49.1631 43.8642 49.1539 43.8471 49.1403 43.829C49.1296 43.8146 49.1128 43.7966 49.1033 43.7886C49.0935 43.7811 49.0771 43.7694 49.0664 43.7636C49.056 43.7577 49.038 43.7497 49.0269 43.7458C49.0159 43.7425 48.9741 43.7336 48.934 43.7271C48.8938 43.7204 48.7608 43.6986 48.6382 43.6795C48.439 43.648 48.4131 43.6424 48.394 43.6312C48.382 43.6245 48.368 43.6122 48.362 43.6044C48.3561 43.596 48.3397 43.5618 48.3247 43.5274C48.3105 43.4926 48.2637 43.3828 48.2219 43.2829C48.1519 43.1155 48.1439 43.0986 48.1219 43.069C48.1038 43.0445 48.0929 43.0329 48.0757 43.0208C48.0635 43.0117 48.0425 43.0003 48.0297 42.9946C48.0171 42.9888 47.9914 42.9816 47.9731 42.9783C47.9549 42.9749 47.9272 42.9733 47.9113 42.9749C47.8958 42.9766 47.8727 42.9799 47.8608 42.9835C47.8486 42.9869 47.8305 42.9949 47.8202 43.0004C47.8097 43.0063 47.7933 43.018 47.7837 43.0271C47.7739 43.0362 47.7601 43.0541 47.7526 43.0666C47.7458 43.0794 47.7184 43.1304 47.6931 43.1804C47.6678 43.2305 47.6147 43.3353 47.575 43.4134L47.5029 43.5554L47.1846 43.5461C47.0074 43.5411 46.855 43.5386 46.8408 43.5411C46.8254 43.5436 46.8025 43.5514 46.7837 43.5605C46.7632 43.5706 46.7467 43.5811 46.7368 43.5907L46.7364 43.5894Z" fill="#FFF375"/>
<path d="M38.4454 45.7644C38.4376 45.7728 38.4252 45.7876 38.419 45.7972C38.4121 45.8066 38.4038 45.8253 38.3996 45.8381C38.3957 45.851 38.3918 45.8744 38.3927 45.8904C38.3927 45.9063 38.3976 45.9311 38.4025 45.9453C38.4084 45.9622 38.4185 45.9808 38.4311 45.9979C38.4482 46.0209 38.4805 46.0505 38.6657 46.2083C38.8131 46.3344 38.885 46.3981 38.8947 46.4111C38.9045 46.424 38.9098 46.4361 38.9117 46.4495C38.9137 46.4613 38.9098 46.4846 38.9039 46.5082C38.898 46.5299 38.8627 46.6428 38.8272 46.7593C38.7764 46.9238 38.7619 46.9767 38.7628 46.9971C38.7632 47.0116 38.7667 47.0337 38.7707 47.0464C38.7746 47.0593 38.7852 47.0815 38.7947 47.096C38.806 47.1143 38.8186 47.1282 38.834 47.1411C38.8465 47.151 38.8685 47.1667 38.8836 47.175C38.9013 47.1851 38.9241 47.193 38.9487 47.1979C38.9694 47.2021 38.9933 47.2054 39.0018 47.2054C39.0097 47.2052 39.0285 47.2029 39.0423 47.2004C39.0628 47.1971 39.1152 47.1748 39.3204 47.0832C39.4845 47.0101 39.5802 46.9691 39.5925 46.9669C39.6043 46.9644 39.6218 46.9663 39.6395 46.9711C39.6646 46.9786 39.6912 46.9943 39.9099 47.1364C40.0433 47.2231 40.1626 47.2985 40.1749 47.304C40.1872 47.3098 40.2078 47.316 40.2204 47.3192C40.233 47.3225 40.2569 47.3242 40.2732 47.325C40.2894 47.3254 40.316 47.3217 40.3317 47.3175C40.3474 47.3125 40.3696 47.304 40.381 47.2977C40.3927 47.2911 40.4099 47.2792 40.419 47.2704C40.4279 47.2614 40.4413 47.2457 40.4479 47.2353C40.4548 47.225 40.4628 47.2042 40.4666 47.1893C40.4706 47.1744 40.4725 47.1525 40.4715 47.1406C40.4706 47.1288 40.4421 47.0056 40.4073 46.8666C40.3723 46.7266 40.3446 46.6063 40.3451 46.5968C40.3454 46.5878 40.3519 46.5708 40.3585 46.5598L40.3715 46.54L40.6006 46.3929C40.7265 46.312 40.8348 46.2406 40.8411 46.2342C40.848 46.2275 40.8568 46.2158 40.862 46.208C40.8679 46.1997 40.8751 46.184 40.88 46.1725C40.8849 46.1611 40.8888 46.1376 40.8888 46.1208C40.8895 46.1023 40.8849 46.0782 40.8789 46.06C40.8721 46.0392 40.8629 46.0222 40.8493 46.004C40.8386 45.9896 40.8218 45.9716 40.8123 45.9636C40.8025 45.9561 40.7861 45.9444 40.7754 45.9386C40.765 45.9328 40.747 45.9248 40.7359 45.9208C40.7249 45.9175 40.6831 45.9086 40.643 45.9021C40.6028 45.8954 40.4698 45.8736 40.3472 45.8545C40.148 45.823 40.1221 45.8174 40.103 45.8062C40.091 45.7996 40.077 45.7872 40.071 45.7794C40.0651 45.7711 40.0486 45.7368 40.0337 45.7024C40.0195 45.6676 39.9727 45.5579 39.9309 45.4579C39.8609 45.2905 39.8529 45.2737 39.8309 45.244C39.8128 45.2195 39.8018 45.2079 39.7847 45.1958C39.7724 45.1867 39.7515 45.1753 39.7387 45.1696C39.7261 45.1638 39.7004 45.1566 39.6821 45.1533C39.6639 45.1499 39.6362 45.1483 39.6203 45.1499C39.6047 45.1516 39.5817 45.155 39.5698 45.1586C39.5576 45.1619 39.5395 45.17 39.5292 45.1755C39.5187 45.1813 39.5023 45.193 39.4927 45.2021C39.4829 45.2113 39.4691 45.2291 39.4616 45.2416C39.4548 45.2545 39.4273 45.3054 39.4021 45.3555C39.3768 45.4055 39.3237 45.5104 39.2839 45.5884L39.2118 45.7304L38.8936 45.7211C38.7163 45.7161 38.564 45.7136 38.5498 45.7161C38.5344 45.7186 38.5115 45.7265 38.4927 45.7356C38.4722 45.7457 38.4557 45.7562 38.4458 45.7657L38.4454 45.7644Z" fill="#FFF375"/>
<path d="M61.1327 40.6593C61.1213 40.6543 61.1017 40.6476 61.0893 40.6445C61.077 40.6412 61.0538 40.6378 61.0381 40.6378C61.0225 40.6374 60.9948 40.6395 60.9767 40.6437C60.9585 40.647 60.9312 40.6567 60.9159 40.664C60.8979 40.6725 60.8787 40.685 60.8619 40.6993C60.8394 40.7185 60.8127 40.752 60.6727 40.9406C60.5608 41.0908 60.5037 41.1645 60.491 41.1754C60.4783 41.1864 60.4656 41.1934 60.4507 41.198C60.4377 41.2022 60.41 41.2039 60.3817 41.2047C60.3556 41.2046 60.2185 41.2005 60.0773 41.1963C59.8775 41.1905 59.8138 41.1905 59.7905 41.1955C59.774 41.1988 59.7496 41.2069 59.7358 41.2129C59.722 41.2187 59.6988 41.2326 59.6844 41.2437C59.6658 41.2572 59.6527 41.2706 59.6414 41.2863C59.6325 41.2988 59.6196 41.3206 59.6134 41.335C59.6056 41.3519 59.6018 41.3725 59.6016 41.394C59.6014 41.4122 59.6026 41.4328 59.6045 41.4399C59.6065 41.4466 59.6133 41.4615 59.6192 41.4724C59.628 41.4887 59.6647 41.5273 59.8148 41.6775C59.9348 41.7976 60.0028 41.8681 60.0081 41.8779C60.014 41.8871 60.0149 41.902 60.014 41.9177C60.011 41.9402 59.9987 41.9658 59.8841 42.1788C59.8143 42.3087 59.7542 42.4244 59.7507 42.4358C59.7468 42.4473 59.7438 42.4659 59.7428 42.4769C59.7419 42.4882 59.7448 42.5084 59.7477 42.5221C59.7507 42.5357 59.761 42.5569 59.7692 42.569C59.778 42.581 59.793 42.5975 59.8027 42.6056C59.8129 42.6139 59.8303 42.6255 59.8424 42.6311C59.8545 42.6361 59.8756 42.6441 59.8889 42.6474C59.9022 42.6507 59.9278 42.6532 59.9458 42.6524C59.9637 42.6523 59.9893 42.649 60.0027 42.6457C60.016 42.6423 60.1509 42.5914 60.3024 42.5319C60.4551 42.472 60.5868 42.4224 60.5978 42.4207C60.6081 42.4191 60.6291 42.4207 60.6431 42.4241L60.6686 42.4307L60.8876 42.5885C61.0081 42.6752 61.1138 42.7494 61.1225 42.7532C61.1313 42.7574 61.147 42.7623 61.1571 42.7649C61.168 42.7682 61.1875 42.7707 61.2017 42.7724C61.2159 42.774 61.2437 42.772 61.263 42.7682C61.2843 42.7649 61.3109 42.7555 61.3304 42.7466C61.3527 42.7363 61.3702 42.7249 61.3881 42.7095C61.4022 42.6975 61.4191 42.6796 61.4262 42.67C61.433 42.6603 61.4423 42.644 61.4467 42.6338C61.4506 42.6239 61.4564 42.6072 61.4583 42.5971C61.4593 42.5872 61.4603 42.5506 61.4593 42.5158C61.4583 42.4809 61.4534 42.3657 61.4485 42.2596C61.4407 42.0873 61.4417 42.0646 61.4495 42.0462C61.4544 42.0347 61.4656 42.0204 61.4732 42.0137C61.481 42.007 61.5171 41.9858 61.5531 41.9658C61.5899 41.9463 61.7053 41.8833 61.8106 41.8265C61.9869 41.7314 62.0044 41.7211 62.0335 41.6963C62.0576 41.6759 62.0685 41.6642 62.0786 41.6473C62.0864 41.6351 62.0947 41.6151 62.0985 41.6032C62.1024 41.5915 62.1053 41.5685 62.1043 41.5527C62.1041 41.5368 62.1004 41.5134 62.0945 41.5006C62.0896 41.488 62.0803 41.4697 62.0736 41.4606C62.0667 41.4513 62.0538 41.438 62.0453 41.4306C62.0364 41.4231 62.0192 41.4121 62.0068 41.4062C61.9941 41.4004 61.9706 41.3925 61.9546 41.3891C61.9384 41.3866 61.874 41.3747 61.8111 41.3648C61.7482 41.3548 61.6163 41.3338 61.5182 41.3181L61.3396 41.2895L61.2801 41.0232C61.2467 40.8749 61.216 40.7478 61.2099 40.7365C61.2041 40.7243 61.1897 40.707 61.1751 40.6934C61.159 40.6787 61.1433 40.6673 61.1301 40.6612L61.1327 40.6593Z" fill="#FFF375"/>
<path d="M43.1285 25.4362C43.1207 25.4446 43.1084 25.4594 43.1021 25.4689C43.0952 25.4784 43.0869 25.4971 43.0827 25.5099C43.0788 25.5227 43.0749 25.5462 43.0758 25.5622C43.0758 25.5781 43.0807 25.6028 43.0856 25.6171C43.0915 25.6339 43.1016 25.6526 43.1142 25.6697C43.1313 25.6926 43.1636 25.7222 43.3489 25.8801C43.4962 26.0062 43.5681 26.0698 43.5778 26.0828C43.5876 26.0957 43.5929 26.1078 43.5948 26.1213C43.5968 26.133 43.5929 26.1564 43.587 26.18C43.5811 26.2017 43.5458 26.3145 43.5103 26.431C43.4595 26.5956 43.4451 26.6485 43.4459 26.6689C43.4463 26.6834 43.4499 26.7054 43.4538 26.7182C43.4577 26.731 43.4683 26.7533 43.4778 26.7677C43.4891 26.7861 43.5017 26.7999 43.5171 26.8128C43.5296 26.8228 43.5516 26.8385 43.5667 26.8468C43.5844 26.8569 43.6072 26.8647 43.6318 26.8697C43.6525 26.8738 43.6764 26.8772 43.6849 26.8772C43.6928 26.877 43.7116 26.8747 43.7254 26.8722C43.7459 26.8688 43.7983 26.8466 44.0036 26.755C44.1676 26.6818 44.2633 26.6409 44.2757 26.6387C44.2874 26.6362 44.3049 26.6381 44.3226 26.6428C44.3477 26.6503 44.3743 26.6661 44.593 26.8082C44.7264 26.8948 44.8457 26.9703 44.858 26.9758C44.8703 26.9816 44.891 26.9878 44.9035 26.9909C44.9161 26.9943 44.94 26.9959 44.9563 26.9968C44.9725 26.9972 44.9991 26.9934 45.0148 26.9893C45.0305 26.9843 45.0527 26.9757 45.0641 26.9695C45.0758 26.9628 45.093 26.951 45.1021 26.9422C45.111 26.9332 45.1244 26.9174 45.1311 26.9071C45.1379 26.8968 45.1459 26.876 45.1498 26.8611C45.1537 26.8462 45.1556 26.8242 45.1547 26.8124C45.1537 26.8006 45.1252 26.6773 45.0904 26.5384C45.0554 26.3983 45.0277 26.2781 45.0282 26.2686C45.0285 26.2596 45.035 26.2426 45.0416 26.2316L45.0546 26.2118L45.2837 26.0647C45.4096 25.9838 45.5179 25.9123 45.5242 25.906C45.5311 25.8993 45.5399 25.8876 45.5451 25.8798C45.551 25.8714 45.5582 25.8558 45.5631 25.8443C45.568 25.8329 45.5719 25.8094 45.5719 25.7925C45.5726 25.774 45.568 25.75 45.562 25.7318C45.5552 25.711 45.546 25.6939 45.5324 25.6758C45.5217 25.6614 45.5049 25.6434 45.4954 25.6354C45.4856 25.6279 45.4692 25.6162 45.4585 25.6104C45.4481 25.6045 45.4301 25.5965 45.419 25.5926C45.408 25.5893 45.3662 25.5803 45.3261 25.5738C45.2859 25.5672 45.1529 25.5454 45.0303 25.5263C44.8311 25.4948 44.8052 25.4892 44.7861 25.478C44.7741 25.4713 44.7601 25.459 44.7541 25.4511C44.7482 25.4428 44.7318 25.4085 44.7168 25.3742C44.7026 25.3394 44.6558 25.2296 44.614 25.1297C44.544 24.9622 44.536 24.9454 44.514 24.9158C44.4959 24.8913 44.485 24.8797 44.4678 24.8676C44.4556 24.8585 44.4346 24.8471 44.4218 24.8414C44.4092 24.8356 44.3835 24.8284 44.3652 24.8251C44.347 24.8217 44.3193 24.8201 44.3034 24.8217C44.2879 24.8234 44.2648 24.8267 44.2529 24.8303C44.2407 24.8336 44.2226 24.8417 44.2123 24.8472C44.2018 24.8531 44.1854 24.8648 44.1758 24.8739C44.166 24.883 44.1522 24.9009 44.1447 24.9134C44.1379 24.9262 44.1104 24.9772 44.0852 25.0272C44.0599 25.0773 44.0068 25.1821 43.9671 25.2602L43.8949 25.4022L43.5767 25.3929C43.3994 25.3879 43.2471 25.3854 43.2329 25.3879C43.2175 25.3904 43.1946 25.3982 43.1758 25.4073C43.1553 25.4174 43.1388 25.4279 43.1289 25.4375L43.1285 25.4362Z" fill="#FFF375"/>
<path d="M37.1285 36.3833C37.1207 36.3917 37.1084 36.4065 37.1021 36.4161C37.0952 36.4255 37.0869 36.4442 37.0827 36.457C37.0788 36.4699 37.0749 36.4933 37.0758 36.5093C37.0758 36.5252 37.0807 36.55 37.0856 36.5642C37.0915 36.5811 37.1016 36.5997 37.1142 36.6168C37.1313 36.6398 37.1636 36.6694 37.3489 36.8272C37.4962 36.9533 37.5681 37.017 37.5778 37.03C37.5876 37.0429 37.5929 37.055 37.5948 37.0684C37.5968 37.0802 37.5929 37.1035 37.587 37.1271C37.5811 37.1488 37.5458 37.2617 37.5103 37.3782C37.4595 37.5427 37.4451 37.5956 37.4459 37.6161C37.4463 37.6306 37.4499 37.6526 37.4538 37.6653C37.4577 37.6782 37.4683 37.7005 37.4778 37.7149C37.4891 37.7332 37.5017 37.7471 37.5171 37.76C37.5296 37.7699 37.5516 37.7856 37.5667 37.7939C37.5844 37.804 37.6072 37.8119 37.6318 37.8168C37.6525 37.821 37.6764 37.8243 37.6849 37.8243C37.6928 37.8241 37.7116 37.8218 37.7254 37.8193C37.7459 37.816 37.7983 37.7937 38.0036 37.7021C38.1676 37.629 38.2633 37.588 38.2757 37.5858C38.2874 37.5833 38.3049 37.5852 38.3226 37.59C38.3477 37.5975 38.3743 37.6132 38.593 37.7553C38.7264 37.842 38.8457 37.9174 38.858 37.9229C38.8703 37.9287 38.891 37.9349 38.9035 37.9381C38.9161 37.9414 38.94 37.9431 38.9563 37.9439C38.9725 37.9443 38.9991 37.9406 39.0148 37.9364C39.0305 37.9314 39.0527 37.9229 39.0641 37.9166C39.0758 37.91 39.093 37.8981 39.1021 37.8893C39.111 37.8804 39.1244 37.8646 39.1311 37.8542C39.1379 37.8439 39.1459 37.8232 39.1498 37.8082C39.1537 37.7933 39.1556 37.7714 39.1547 37.7595C39.1537 37.7477 39.1252 37.6245 39.0904 37.4855C39.0554 37.3455 39.0277 37.2252 39.0282 37.2157C39.0285 37.2067 39.035 37.1897 39.0416 37.1787L39.0546 37.1589L39.2837 37.0118C39.4096 36.9309 39.5179 36.8595 39.5242 36.8531C39.5311 36.8464 39.5399 36.8347 39.5451 36.8269C39.551 36.8186 39.5582 36.8029 39.5631 36.7914C39.568 36.7801 39.5719 36.7565 39.5719 36.7397C39.5726 36.7212 39.568 36.6971 39.562 36.6789C39.5552 36.6581 39.546 36.6411 39.5324 36.6229C39.5217 36.6086 39.5049 36.5905 39.4954 36.5825C39.4856 36.575 39.4692 36.5633 39.4585 36.5575C39.4481 36.5517 39.4301 36.5437 39.419 36.5397C39.408 36.5364 39.3662 36.5275 39.3261 36.521C39.2859 36.5143 39.1529 36.4925 39.0303 36.4734C38.8311 36.4419 38.8052 36.4363 38.7861 36.4251C38.7741 36.4185 38.7601 36.4061 38.7541 36.3983C38.7482 36.39 38.7318 36.3557 38.7168 36.3213C38.7026 36.2865 38.6558 36.1768 38.614 36.0768C38.544 35.9094 38.536 35.8926 38.514 35.863C38.4959 35.8384 38.485 35.8268 38.4678 35.8147C38.4556 35.8057 38.4346 35.7942 38.4218 35.7885C38.4092 35.7827 38.3835 35.7755 38.3652 35.7722C38.347 35.7689 38.3193 35.7672 38.3034 35.7689C38.2879 35.7705 38.2648 35.7739 38.2529 35.7775C38.2407 35.7808 38.2226 35.7889 38.2123 35.7944C38.2018 35.8002 38.1854 35.8119 38.1758 35.821C38.166 35.8302 38.1522 35.848 38.1447 35.8605C38.1379 35.8734 38.1104 35.9243 38.0852 35.9744C38.0599 36.0244 38.0068 36.1293 37.9671 36.2073L37.8949 36.3493L37.5767 36.34C37.3994 36.335 37.2471 36.3325 37.2329 36.335C37.2175 36.3375 37.1946 36.3454 37.1758 36.3545C37.1553 36.3646 37.1388 36.3751 37.1289 36.3847L37.1285 36.3833Z" fill="#FFF375"/>
<path d="M14.108 41.3877C14.1002 41.3961 14.0879 41.4109 14.0816 41.4205C14.0747 41.4299 14.0664 41.4486 14.0622 41.4615C14.0583 41.4743 14.0543 41.4977 14.0553 41.5138C14.0553 41.5296 14.0602 41.5544 14.0651 41.5686C14.071 41.5855 14.0811 41.6042 14.0937 41.6212C14.1108 41.6442 14.1431 41.6738 14.3284 41.8316C14.4757 41.9577 14.5476 42.0214 14.5573 42.0344C14.5671 42.0473 14.5724 42.0594 14.5743 42.0728C14.5763 42.0846 14.5724 42.1079 14.5665 42.1315C14.5606 42.1532 14.5253 42.2661 14.4898 42.3826C14.439 42.5471 14.4245 42.6 14.4254 42.6205C14.4258 42.635 14.4293 42.657 14.4333 42.6697C14.4372 42.6826 14.4478 42.7049 14.4573 42.7193C14.4686 42.7376 14.4812 42.7515 14.4966 42.7644C14.5091 42.7743 14.5311 42.79 14.5462 42.7984C14.5639 42.8084 14.5867 42.8163 14.6113 42.8212C14.632 42.8254 14.6559 42.8287 14.6644 42.8287C14.6723 42.8285 14.6911 42.8262 14.7049 42.8237C14.7254 42.8204 14.7778 42.7981 14.983 42.7065C15.1471 42.6334 15.2428 42.5924 15.2552 42.5902C15.2669 42.5877 15.2844 42.5896 15.3021 42.5944C15.3272 42.6019 15.3538 42.6176 15.5725 42.7597C15.7059 42.8464 15.8252 42.9218 15.8375 42.9273C15.8498 42.9331 15.8704 42.9393 15.883 42.9425C15.8956 42.9458 15.9195 42.9475 15.9358 42.9483C15.952 42.9488 15.9786 42.945 15.9943 42.9408C16.01 42.9358 16.0322 42.9273 16.0436 42.921C16.0553 42.9144 16.0725 42.9025 16.0816 42.8937C16.0905 42.8848 16.1039 42.869 16.1105 42.8587C16.1174 42.8483 16.1254 42.8276 16.1292 42.8126C16.1332 42.7977 16.1351 42.7758 16.1341 42.7639C16.1332 42.7522 16.1047 42.6289 16.0699 42.4899C16.0349 42.3499 16.0072 42.2296 16.0077 42.2201C16.0079 42.2111 16.0145 42.1941 16.0211 42.1831L16.0341 42.1633L16.2632 42.0162C16.3891 41.9353 16.4974 41.8639 16.5037 41.8575C16.5106 41.8508 16.5194 41.8392 16.5246 41.8313C16.5305 41.823 16.5377 41.8073 16.5426 41.7958C16.5475 41.7845 16.5514 41.7609 16.5514 41.7441C16.5521 41.7256 16.5475 41.7015 16.5415 41.6834C16.5347 41.6625 16.5255 41.6455 16.5119 41.6273C16.5012 41.613 16.4844 41.5949 16.4749 41.5869C16.4651 41.5794 16.4487 41.5678 16.438 41.5619C16.4276 41.5561 16.4096 41.5481 16.3985 41.5441C16.3875 41.5408 16.3457 41.5319 16.3056 41.5254C16.2654 41.5187 16.1324 41.4969 16.0098 41.4778C15.8106 41.4463 15.7847 41.4407 15.7656 41.4296C15.7536 41.4229 15.7396 41.4105 15.7336 41.4027C15.7277 41.3944 15.7112 41.3601 15.6963 41.3257C15.6821 41.2909 15.6353 41.1812 15.5935 41.0812C15.5235 40.9138 15.5155 40.897 15.4935 40.8674C15.4754 40.8428 15.4644 40.8312 15.4473 40.8192C15.4351 40.8101 15.4141 40.7986 15.4013 40.793C15.3887 40.7871 15.363 40.78 15.3447 40.7766C15.3265 40.7733 15.2988 40.7716 15.2829 40.7733C15.2674 40.775 15.2443 40.7783 15.2324 40.7819C15.2202 40.7852 15.2021 40.7933 15.1918 40.7988C15.1813 40.8046 15.1649 40.8163 15.1553 40.8254C15.1455 40.8346 15.1317 40.8524 15.1242 40.8649C15.1174 40.8778 15.0899 40.9287 15.0647 40.9788C15.0394 41.0288 14.9863 41.1337 14.9465 41.2117L14.8744 41.3537L14.5562 41.3444C14.3789 41.3394 14.2266 41.3369 14.2124 41.3395C14.197 41.342 14.1741 41.3498 14.1553 41.3589C14.1348 41.369 14.1183 41.3795 14.1084 41.3891L14.108 41.3877Z" fill="#FFF375"/>
<path d="M26.2306 47.5389C26.2228 47.5474 26.2104 47.5621 26.2041 47.5717C26.1973 47.5812 26.189 47.5998 26.1847 47.6127C26.1808 47.6255 26.1769 47.649 26.1779 47.665C26.1779 47.6808 26.1828 47.7056 26.1877 47.7199C26.1936 47.7367 26.2036 47.7554 26.2163 47.7725C26.2333 47.7954 26.2657 47.825 26.4509 47.9829C26.5983 48.109 26.6702 48.1726 26.6798 48.1856C26.6896 48.1985 26.6949 48.2106 26.6969 48.2241C26.6988 48.2358 26.6949 48.2592 26.689 48.2828C26.6832 48.3045 26.6479 48.4173 26.6123 48.5338C26.5616 48.6984 26.5471 48.7513 26.548 48.7717C26.5483 48.7862 26.5519 48.8082 26.5558 48.821C26.5597 48.8338 26.5703 48.8561 26.5798 48.8705C26.5912 48.8889 26.6037 48.9027 26.6192 48.9156C26.6316 48.9256 26.6537 48.9412 26.6688 48.9496C26.6865 48.9597 26.7092 48.9675 26.7338 48.9724C26.7546 48.9766 26.7785 48.98 26.787 48.98C26.7948 48.9797 26.8137 48.9774 26.8275 48.9749C26.8479 48.9716 26.9004 48.9493 27.1056 48.8578C27.2696 48.7846 27.3654 48.7437 27.3777 48.7415C27.3895 48.7389 27.407 48.7409 27.4246 48.7456C27.4497 48.7531 27.4764 48.7689 27.695 48.911C27.8284 48.9976 27.9477 49.0731 27.9601 49.0785C27.9723 49.0844 27.993 49.0906 28.0055 49.0937C28.0182 49.0971 28.0421 49.0987 28.0583 49.0996C28.0746 49.1 28.1012 49.0962 28.1168 49.0921C28.1326 49.087 28.1547 49.0785 28.1662 49.0723C28.1779 49.0656 28.1951 49.0538 28.2042 49.0449C28.213 49.036 28.2264 49.0202 28.2331 49.0099C28.24 48.9995 28.248 48.9788 28.2518 48.9639C28.2557 48.9489 28.2577 48.927 28.2567 48.9151C28.2557 48.9034 28.2272 48.7801 28.1924 48.6412C28.1575 48.5011 28.1297 48.3809 28.1302 48.3714C28.1305 48.3624 28.1371 48.3454 28.1437 48.3343L28.1567 48.3146L28.3857 48.1675C28.5117 48.0866 28.6199 48.0151 28.6263 48.0087C28.6332 48.0021 28.642 47.9904 28.6471 47.9825C28.653 47.9742 28.6603 47.9586 28.6652 47.947C28.6701 47.9357 28.674 47.9122 28.674 47.8953C28.6747 47.8768 28.6701 47.8528 28.6641 47.8346C28.6572 47.8137 28.648 47.7967 28.6344 47.7785C28.6237 47.7642 28.607 47.7462 28.5975 47.7382C28.5877 47.7307 28.5712 47.719 28.5606 47.7131C28.5502 47.7073 28.5322 47.6993 28.5211 47.6954C28.51 47.692 28.4683 47.6831 28.4281 47.6766C28.388 47.6699 28.255 47.6482 28.1323 47.6291C27.9332 47.5975 27.9073 47.592 27.8882 47.5808C27.8761 47.5741 27.8621 47.5618 27.8561 47.5539C27.8503 47.5456 27.8338 47.5113 27.8188 47.4769C27.8046 47.4422 27.7579 47.3324 27.7161 47.2325C27.646 47.065 27.6381 47.0482 27.6161 47.0186C27.598 46.9941 27.587 46.9825 27.5699 46.9704C27.5576 46.9613 27.5366 46.9499 27.5238 46.9442C27.5113 46.9384 27.4855 46.9312 27.4673 46.9278C27.4491 46.9245 27.4214 46.9228 27.4055 46.9245C27.3899 46.9262 27.3669 46.9295 27.3549 46.9331C27.3428 46.9364 27.3247 46.9445 27.3144 46.95C27.3039 46.9559 27.2874 46.9676 27.2778 46.9766C27.268 46.9858 27.2542 47.0037 27.2468 47.0162C27.2399 47.029 27.2125 47.08 27.1872 47.13C27.1619 47.18 27.1089 47.2849 27.0691 47.363L26.997 47.5049L26.6787 47.4957C26.5015 47.4907 26.3492 47.4882 26.3349 47.4907C26.3195 47.4932 26.2966 47.501 26.2778 47.5101C26.2573 47.5202 26.2409 47.5307 26.231 47.5403L26.2306 47.5389Z" fill="#FFF375"/>
<path d="M37.5668 13.9829C37.5557 13.9779 37.5365 13.9699 37.5244 13.9663C37.5123 13.9622 37.4893 13.958 37.4737 13.957C37.4581 13.9562 37.4304 13.9566 37.412 13.9603C37.3937 13.9628 37.3658 13.9714 37.3501 13.9779C37.3316 13.9854 37.3117 13.9973 37.294 14.0108C37.2704 14.029 37.2415 14.0611 37.0903 14.2433C36.9693 14.3884 36.9078 14.4595 36.8944 14.4698C36.8811 14.4802 36.868 14.4867 36.8528 14.4906C36.8396 14.494 36.8118 14.4948 36.7835 14.494C36.7575 14.4923 36.6208 14.4822 36.48 14.4721C36.2809 14.4575 36.2172 14.4542 36.1937 14.4584C36.177 14.4609 36.1521 14.468 36.138 14.4734C36.1238 14.4792 36.0998 14.4915 36.0847 14.5019C36.0654 14.5146 36.0515 14.5274 36.0391 14.5426C36.0293 14.5547 36.0153 14.5759 36.0083 14.59C35.9994 14.6066 35.9944 14.627 35.9929 14.6484C35.9919 14.6665 35.9919 14.6872 35.9932 14.6943C35.9952 14.701 36.001 14.7163 36.0058 14.7274C36.0127 14.744 36.0479 14.7842 36.1886 14.941C36.3011 15.0662 36.3647 15.1396 36.3694 15.1496C36.3743 15.159 36.3752 15.1741 36.3723 15.1897C36.3674 15.212 36.3541 15.2371 36.2267 15.4446C36.149 15.5713 36.0819 15.6841 36.0777 15.6954C36.0728 15.7067 36.0698 15.7251 36.0678 15.7361C36.0658 15.7473 36.0682 15.7677 36.0697 15.7814C36.0717 15.7951 36.0808 15.8168 36.0884 15.8292C36.0972 15.8416 36.1104 15.8587 36.1196 15.8673C36.1294 15.876 36.146 15.8884 36.1577 15.8946C36.1696 15.9004 36.19 15.9091 36.2032 15.9129C36.2163 15.9171 36.2417 15.9204 36.2596 15.9204C36.2775 15.9212 36.3033 15.9188 36.3168 15.9163C36.3302 15.9138 36.4681 15.8687 36.623 15.8159C36.7792 15.7629 36.9137 15.7192 36.9248 15.718C36.9353 15.7163 36.956 15.7197 36.9699 15.723L36.995 15.7305L37.2041 15.8978C37.3191 15.9898 37.4201 16.0685 37.4286 16.0728C37.4374 16.0778 37.4525 16.0828 37.4625 16.0858C37.4732 16.0892 37.4925 16.0925 37.5067 16.095C37.5207 16.0975 37.5485 16.0966 37.568 16.0933C37.5895 16.0908 37.6166 16.0828 37.6365 16.0747C37.6595 16.0654 37.6777 16.0548 37.6964 16.0403C37.7112 16.0289 37.7292 16.0118 37.7369 16.0025C37.7437 15.993 37.7546 15.9772 37.7596 15.9673C37.7645 15.9576 37.7708 15.9411 37.7735 15.9311C37.7755 15.9213 37.7784 15.8848 37.7794 15.85C37.7803 15.8151 37.7833 15.6999 37.7843 15.5937C37.7872 15.4213 37.7892 15.3986 37.7988 15.3807C37.8047 15.3694 37.8164 15.3556 37.8244 15.3492C37.8333 15.3425 37.87 15.3233 37.9072 15.3048C37.945 15.287 38.0642 15.2292 38.1728 15.1772C38.3548 15.09 38.3729 15.0805 38.4034 15.0571C38.4287 15.0377 38.4403 15.0266 38.4514 15.0101C38.4602 14.9983 38.4695 14.9788 38.474 14.9671C38.4789 14.9556 38.4828 14.9327 38.4837 14.9169C38.4845 14.901 38.4818 14.8775 38.4769 14.8644C38.472 14.8516 38.4646 14.8329 38.4584 14.8234C38.4525 14.8139 38.4401 14.8 38.4319 14.7923C38.4231 14.7848 38.407 14.7726 38.3949 14.7661C38.3827 14.7594 38.3596 14.7508 38.3439 14.7467C38.3278 14.7434 38.2642 14.7288 38.202 14.716C38.1398 14.7033 38.0094 14.6765 37.9123 14.6564L37.7358 14.6199L37.6926 14.3513C37.6683 14.2017 37.6455 14.0735 37.6401 14.0619C37.6342 14.0494 37.6216 14.0316 37.608 14.0173C37.5928 14.0019 37.5779 13.9898 37.5651 13.9831L37.5668 13.9829Z" fill="#FFF375"/>
</svg>
