<?xml version="1.0" encoding="UTF-8" standalone="no"?>
<!-- Created with Inkscape (http://www.inkscape.org/) -->

<svg
   width="461"
   height="470"
   viewBox="0 0 121.97292 124.35418"
   version="1.1"
   id="svg5"
   xml:space="preserve"
   inkscape:version="1.2.2 (732a01da63, 2022-12-09)"
   sodipodi:docname="odpad_jablko.svg"
   xmlns:inkscape="http://www.inkscape.org/namespaces/inkscape"
   xmlns:sodipodi="http://sodipodi.sourceforge.net/DTD/sodipodi-0.dtd"
   xmlns="http://www.w3.org/2000/svg"
   xmlns:svg="http://www.w3.org/2000/svg"><sodipodi:namedview
     id="namedview7"
     pagecolor="#ffffff"
     bordercolor="#000000"
     borderopacity="0.25"
     inkscape:showpageshadow="2"
     inkscape:pageopacity="0.0"
     inkscape:pagecheckerboard="0"
     inkscape:deskcolor="#d1d1d1"
     inkscape:document-units="mm"
     showgrid="false"
     inkscape:zoom="0.5"
     inkscape:cx="-461"
     inkscape:cy="629"
     inkscape:window-width="1920"
     inkscape:window-height="991"
     inkscape:window-x="2391"
     inkscape:window-y="594"
     inkscape:window-maximized="1"
     inkscape:current-layer="layer1" /><defs
     id="defs2"><inkscape:path-effect
       effect="bspline"
       id="path-effect2851"
       is_visible="true"
       lpeversion="1"
       weight="33.333333"
       steps="2"
       helper_size="0"
       apply_no_weight="true"
       apply_with_weight="true"
       only_selected="false" /><inkscape:path-effect
       effect="bspline"
       id="path-effect516"
       is_visible="true"
       lpeversion="1"
       weight="33.333333"
       steps="2"
       helper_size="0"
       apply_no_weight="true"
       apply_with_weight="true"
       only_selected="false" /><inkscape:path-effect
       effect="bspline"
       id="path-effect362"
       is_visible="true"
       lpeversion="1"
       weight="33.333333"
       steps="2"
       helper_size="0"
       apply_no_weight="true"
       apply_with_weight="true"
       only_selected="false" /><inkscape:path-effect
       effect="bspline"
       id="path-effect358"
       is_visible="true"
       lpeversion="1"
       weight="33.333333"
       steps="2"
       helper_size="0"
       apply_no_weight="true"
       apply_with_weight="true"
       only_selected="false" /><inkscape:path-effect
       effect="bspline"
       id="path-effect2851-7"
       is_visible="true"
       lpeversion="1"
       weight="33.333333"
       steps="2"
       helper_size="0"
       apply_no_weight="true"
       apply_with_weight="true"
       only_selected="false" /><inkscape:path-effect
       effect="bspline"
       id="path-effect2851-9"
       is_visible="true"
       lpeversion="1"
       weight="33.333333"
       steps="2"
       helper_size="0"
       apply_no_weight="true"
       apply_with_weight="true"
       only_selected="false" /><inkscape:path-effect
       effect="bspline"
       id="path-effect2851-6"
       is_visible="true"
       lpeversion="1"
       weight="33.333333"
       steps="2"
       helper_size="0"
       apply_no_weight="true"
       apply_with_weight="true"
       only_selected="false" /><inkscape:path-effect
       effect="bspline"
       id="path-effect2851-1"
       is_visible="true"
       lpeversion="1"
       weight="33.333333"
       steps="2"
       helper_size="0"
       apply_no_weight="true"
       apply_with_weight="true"
       only_selected="false" /><filter
       inkscape:collect="always"
       style="color-interpolation-filters:sRGB"
       id="filter15747"
       x="-0.18960744"
       y="-0.38574208"
       width="1.3793748"
       height="1.7435644"><feGaussianBlur
         inkscape:collect="always"
         stdDeviation="0.340542"
         id="feGaussianBlur15749" /></filter><inkscape:path-effect
       effect="bspline"
       id="path-effect516-1"
       is_visible="true"
       lpeversion="1"
       weight="33.333333"
       steps="2"
       helper_size="0"
       apply_no_weight="true"
       apply_with_weight="true"
       only_selected="false" /><inkscape:path-effect
       effect="bspline"
       id="path-effect516-1-3"
       is_visible="true"
       lpeversion="1"
       weight="33.333333"
       steps="2"
       helper_size="0"
       apply_no_weight="true"
       apply_with_weight="true"
       only_selected="false" /><inkscape:path-effect
       effect="bspline"
       id="path-effect362-2"
       is_visible="true"
       lpeversion="1"
       weight="33.333333"
       steps="2"
       helper_size="0"
       apply_no_weight="true"
       apply_with_weight="true"
       only_selected="false" /><inkscape:path-effect
       effect="bspline"
       id="path-effect362-5"
       is_visible="true"
       lpeversion="1"
       weight="33.333333"
       steps="2"
       helper_size="0"
       apply_no_weight="true"
       apply_with_weight="true"
       only_selected="false" /></defs><g
     inkscape:label="Vrstva 1"
     inkscape:groupmode="layer"
     id="layer1"><g
       id="g22085"
       transform="matrix(3.1957866,0,0,2.8642669,325.73296,-792.17075)"><path
         style="fill:#4b2c0b;fill-opacity:1;stroke:#c72682;stroke-width:0.264054;stroke-opacity:0"
         d="m -84.379502,284.87675 c 0.01257,-0.68563 -0.0078,-1.98952 0.216285,-3.17127 0.224084,-1.18175 0.692671,-2.24117 1.151097,-3.03579 0.458425,-0.79462 0.906633,-1.32432 1.314279,-1.48723 0.407645,-0.16291 0.774362,0.0408 1.028948,0.29557 0.254586,0.25474 0.397199,0.56034 0.21375,0.99822 -0.183448,0.43788 -0.692773,1.00833 -1.181754,1.62975 -0.488981,0.62141 -0.957575,1.29375 -1.273365,2.12915 -0.31579,0.83541 -0.478775,1.83369 -0.548518,2.42388 -0.06974,0.59019 -0.04632,0.77216 -0.05539,0.91658 -0.0091,0.14442 -0.05054,0.25143 -0.133467,0.33351 -0.08293,0.0821 -0.207513,0.13944 -0.35357,0.10016 -0.146057,-0.0393 -0.313778,-0.17549 -0.375053,-0.27746 -0.06127,-0.10196 -0.01582,-0.16945 -0.0032,-0.85507 z"
         id="path360"
         inkscape:path-effect="#path-effect362"
         inkscape:original-d="m -84.346559,285.49478 c -0.02011,-1.30366 -0.04048,-2.60755 -0.06112,-3.91173 0.468866,-1.05918 0.937448,-2.1186 1.405776,-3.17828 0.448493,-0.52946 0.896702,-1.05916 1.344655,-1.58914 0.366996,0.20402 0.733714,0.40775 1.100172,0.61121 0.142883,0.30588 0.285496,0.61148 0.427845,0.91681 -0.509085,0.57073 -1.018413,1.14117 -1.528017,1.71138 -0.468336,0.67259 -0.936919,1.34493 -1.405776,2.01699 -0.162727,0.99859 -0.325713,1.99687 -0.488966,2.9949 0.02369,0.18227 0.04712,0.36424 0.07028,0.54597 -0.0412,0.10726 -0.08267,0.21427 -0.124405,0.32101 -0.124309,0.0576 -0.248883,0.11498 -0.373719,0.17207 -0.16745,-0.13594 -0.335171,-0.27215 -0.503149,-0.40862 0.04574,-0.0673 0.09121,-0.13478 0.136424,-0.20257 z"
         sodipodi:nodetypes="scccccccccccss" /><path
         id="path360-4"
         style="fill:#432608;fill-opacity:1;stroke:#c72682;stroke-width:0.264054;stroke-opacity:0"
         d="m -81.395548,277.13398 c -0.09568,-1.7e-4 -0.194712,0.0177 -0.296623,0.0584 -0.407646,0.16291 -0.856224,0.69263 -1.314649,1.48725 -0.458425,0.79461 -0.92675,1.85372 -1.150834,3.03547 -0.224085,1.18175 -0.203954,2.48575 -0.216524,3.17138 h 5.17e-4 c -0.01262,0.68562 -0.05817,0.75329 0.0031,0.85525 0.05838,0.0971 0.213148,0.2249 0.353984,0.27078 -0.01084,-0.0726 0.02198,-0.12074 0.04082,-0.14831 0.02469,-0.0361 0.02487,-0.0365 0.04651,-0.75241 0.02164,-0.71594 0.0647,-2.14792 0.349333,-3.43493 0.284637,-1.28702 0.810845,-2.42892 1.313615,-3.28042 0.326189,-0.55245 0.64266,-0.98148 0.939477,-1.25936 -0.02262,-0.002 -0.04567,-0.003 -0.06873,-0.003 z" /><path
         style="fill:#fed196;fill-opacity:1;stroke:#c72682;stroke-width:0.267565;stroke-opacity:0"
         d="m -93.302126,288.51628 c 0.488312,0.63396 1.464671,1.90154 2.25608,3.39246 0.791409,1.49091 1.397932,3.20503 1.760327,4.984 0.362396,1.77897 0.480742,3.62272 0.377156,5.40887 -0.103587,1.78616 -0.429039,3.51467 -0.791494,4.82546 -0.362455,1.31078 -0.761879,2.20386 -1.505814,3.11576 -0.743934,0.91189 -1.832446,1.84273 -2.920951,2.77356 0,0 0.116606,0.0515 0.116606,0.0515 1.360303,0.89579 2.720912,1.79179 5.065367,2.35484 2.344456,0.56304 5.672951,0.79352 8.328385,0.71426 2.655435,-0.0793 4.637734,-0.46818 6.211131,-0.96053 1.573397,-0.49235 2.737801,-1.08802 3.902335,-1.68376 0,0 0.443808,-0.56178 0.443808,-0.56178 -0.691138,-0.57103 -1.381986,-1.14183 -2.149204,-1.92429 -0.767218,-0.78246 -1.610433,-1.77635 -2.150506,-3.1016 -0.540073,-1.32525 -0.776765,-2.98174 -0.82195,-4.62391 -0.04519,-1.64218 0.101194,-3.26984 0.403681,-4.87603 0.302487,-1.60619 0.761063,-3.19061 1.345426,-4.73918 0.584363,-1.54857 1.410627,-3.30849 1.973489,-4.38724 0.562863,-1.07875 1.302759,-2.3204 1.656321,-2.9265 0.353561,-0.6061 0.424876,-0.75136 0.496138,-0.89652 -2.378798,0.33353 -4.757331,0.66702 -7.52968,0.89862 -2.772349,0.2316 -5.938072,0.36124 -8.755503,0.25323 -2.817432,-0.10801 -5.286365,-0.45371 -6.883313,-0.66258 -1.596949,-0.20888 -2.321815,-0.2809 -2.923988,-0.20691 -0.602172,0.074 -1.081556,0.29412 -1.560828,0.5142 1.056223,0.54338 2.11274,1.08691 2.640704,1.35853 0.527965,0.27161 0.527965,0.27158 1.016277,0.90554 z"
         id="path2849"
         inkscape:path-effect="#path-effect2851"
         inkscape:original-d="m -93.790438,287.88232 c 0.976668,1.26789 1.953026,2.53547 2.929132,3.80281 0.606822,1.71447 1.213348,3.42858 1.819613,5.14246 0.118623,1.8441 0.236971,3.68785 0.355048,5.53139 -0.325194,1.72885 -0.650646,3.45736 -0.976378,5.18565 -0.399163,0.89337 -0.798584,1.78645 -1.198283,2.67926 -1.088258,0.93111 -3.265516,2.7925 -3.265516,2.7925 l 0.116606,0.0515 c 0,0 2.720871,1.79185 4.080908,2.68738 3.328899,0.23074 6.657393,0.46122 9.98568,0.69144 1.982656,-0.38869 3.964957,-0.7776 5.947028,-1.16679 1.164826,-0.59549 3.493602,-1.78722 3.493602,-1.78722 l 0.443808,-0.56178 c 0,0 -1.382008,-1.1418 -2.073415,-1.7131 -0.84298,-0.99367 -1.686199,-1.98756 -2.529706,-2.98175 -0.23643,-1.65632 -0.473124,-3.31281 -0.710093,-4.9696 0.146654,-1.6275 0.293035,-3.25516 0.43916,-4.8832 0.458878,-1.58428 0.917454,-3.1687 1.375804,-4.75352 0.710379,-1.51226 1.536643,-3.27218 2.130279,-4.53744 0.532082,-0.8922 1.271977,-2.13385 1.907581,-3.20119 0.07153,-0.14489 0.213785,-0.43547 0.213785,-0.43547 0,0 -4.757289,0.66732 -7.136395,1.00059 -3.165623,0.12991 -6.331345,0.25955 -9.497493,0.38892 -2.468758,-0.34545 -4.937691,-0.69115 -7.406947,-1.03712 -0.724629,-0.0718 -1.449502,-0.14376 -2.17466,-0.21607 -0.479014,0.22035 -1.437817,0.66024 -1.437817,0.66024 0,0 2.112689,1.08701 3.168669,1.63014 z"
         sodipodi:nodetypes="cccccccccccccccccccccccccccc" /><path
         id="path2849-7"
         style="fill:#eac18a;fill-opacity:1;stroke:#c72682;stroke-width:0.264054;stroke-opacity:0"
         d="m -95.075026,285.65156 c -0.171088,0.002 -0.323066,0.0135 -0.467155,0.0351 -0.576356,0.0864 -1.023093,0.33123 -1.246436,0.45371 -0.223341,0.12248 -0.223259,0.12249 0.28112,0.38189 0.504381,0.25939 1.512764,0.77795 2.492355,1.67122 0.979591,0.89327 1.930439,2.16088 2.701127,3.65197 0.770687,1.49108 1.361199,3.20553 1.714107,4.98471 0.352909,1.77918 0.468293,3.62313 0.367419,5.40949 -0.100875,1.78636 -0.41753,3.51512 -0.770495,4.82606 -0.352966,1.31094 -0.742062,2.20391 -1.440739,3.11144 -0.698679,0.90754 -2.204,2.29185 -2.204,2.29185 l -0.422249,0.45946 -0.04727,0.0782 0.02433,0.0124 0.675668,0.3998 c 0,0 1.585715,1.12513 3.298507,1.6831 0.504832,-0.56566 1.438569,-1.5737 2.103747,-2.5802 0.698145,-1.05639 1.08701,-2.09604 1.439705,-3.622 0.352695,-1.52595 0.669182,-3.53839 0.769979,-5.61775 0.100798,-2.07935 -0.01427,-4.22579 -0.366902,-6.29677 -0.352633,-2.07097 -0.942989,-4.06607 -1.713074,-5.80171 -0.770084,-1.73563 -1.720244,-3.21165 -2.69906,-4.25142 -0.303441,-0.32234 -0.608121,-0.59774 -0.901237,-0.84026 -0.457742,-0.0682 -0.878975,-0.13351 -1.247469,-0.18914 -1.14531,-0.17288 -1.828712,-0.25653 -2.341976,-0.25114 z"
         sodipodi:nodetypes="ssssssssssccccccsssssscsss" /><path
         id="path2849-3"
         style="fill:#eac18a;fill-opacity:1;stroke:#c72682;stroke-width:0.267625;stroke-opacity:0"
         d="m -71.875627,285.74614 c -0.62881,0.008 -1.391174,0.0637 -2.221312,0.13485 -0.227173,0.61404 -0.673384,1.36676 -1.092075,2.16342 -0.820887,1.56196 -1.530903,3.28845 -2.115131,5.05589 -0.58423,1.76747 -1.042509,3.57598 -1.316117,5.38452 -0.273606,1.80858 -0.362263,3.61703 -0.288283,5.46667 0.07399,1.84965 0.310556,3.74017 0.850513,5.25277 0.539956,1.51258 1.383169,2.64694 2.263254,3.53472 0.871415,0.87903 1.777307,1.51594 2.168221,1.94331 1.521654,-0.47362 2.881704,-0.8383 2.881704,-0.8383 l 0.70214,-0.8945 c 0,0 0.01148,0.0111 -0.102673,-0.11162 -0.358602,-0.38547 -1.328589,-1.33141 -1.996618,-1.9214 -0.880676,-0.7778 -1.724521,-1.77135 -2.264846,-3.09657 -0.540326,-1.32523 -0.426223,-3.27404 -0.500252,-4.89457 -0.07404,-1.62052 0.01502,-3.20526 0.288813,-4.7898 0.273797,-1.58455 0.732549,-3.16892 1.317178,-4.71745 0.58463,-1.54852 1.294741,-3.06119 2.116194,-4.42966 0.821451,-1.36848 1.878996,-3.52885 1.878996,-3.52885 0,0 -1.837146,0.27763 -2.569706,0.28657 z"
         sodipodi:nodetypes="ccsssssscccssssssscc" /><path
         style="fill:#30ea59;fill-opacity:1;stroke:#c72682;stroke-width:0.264054;stroke-opacity:0"
         d="m -96.026099,285.708 c 0.483481,-0.33685 1.450384,-1.01051 2.614217,-1.38027 1.163833,-0.36975 2.524291,-0.43559 3.720524,-0.33002 1.196232,0.10558 2.228055,0.38247 3.020204,0.72173 0.792149,0.33927 1.3446,0.74077 2.089382,0.8599 0.744781,0.11913 1.681946,-0.0439 2.421302,-0.2884 0.739357,-0.24454 1.280974,-0.5706 2.11165,-0.81751 0.830677,-0.2469 1.950152,-0.41461 3.142157,-0.49547 1.192005,-0.0809 2.456355,-0.0749 3.744673,0.19245 1.288317,0.26734 2.600423,0.79591 3.246277,1.05009 0.645855,0.25418 0.625456,0.23379 0.603586,0.23696 -0.02187,0.003 -0.04502,0.0302 -0.09765,0.0915 -0.05263,0.0614 -0.134796,0.15714 -0.547263,0.63772 -0.412466,0.48058 -1.155211,1.34594 -2.002758,1.9314 -0.847547,0.58547 -1.799967,0.89106 -2.526984,0.96754 -0.727016,0.0765 -1.22871,-0.0763 -1.764886,-0.0306 -0.536175,0.0458 -1.106619,0.29025 -1.702611,0.70538 -0.595991,0.41514 -1.217367,1.00086 -1.968509,1.05952 -0.751141,0.0587 -1.632257,-0.40991 -2.442127,-0.88614 -0.809871,-0.47622 -1.548393,-0.96008 -2.154577,-1.13847 -0.606183,-0.1784 -1.079857,-0.0511 -1.619842,0.28003 -0.539985,0.3311 -1.14608,0.86589 -2.090775,0.8736 -0.944695,0.008 -2.2282,-0.51181 -3.033036,-1.08727 -0.804836,-0.57547 -1.130812,-1.20704 -1.711387,-1.64773 -0.580576,-0.44069 -1.415854,-0.69027 -2.202831,-0.80746 -0.786977,-0.11719 -1.525504,-0.1019 -1.739473,-0.14011 -0.213968,-0.0382 0.09674,-0.1299 0.252002,-0.17572 0.155261,-0.0458 0.155257,-0.0459 0.638737,-0.38273 z"
         id="path356"
         inkscape:path-effect="#path-effect358"
         inkscape:original-d="m -96.509579,286.04485 c 0.967171,-0.6734 1.934076,-1.34706 2.900744,-2.02101 1.360799,-0.0656 2.721257,-0.13143 4.081527,-0.19754 1.032133,0.27717 2.063955,0.55406 3.095548,0.83069 0.552719,0.40177 1.105171,0.80327 1.657353,1.2045 0.937469,-0.16272 1.874634,-0.3257 2.811553,-0.48895 0.541927,-0.32583 1.083547,-0.65189 1.624942,-0.97825 1.119813,-0.16746 2.239289,-0.33517 3.358568,-0.50316 1.264686,0.006 2.529035,0.0122 3.793192,0.0179 1.312424,0.52886 2.62453,1.05743 3.936402,1.58575 -0.02011,-0.0201 -0.0405,-0.0405 -0.06112,-0.0611 -0.02285,0.0272 -0.046,0.0542 -0.06939,0.0809 -0.08187,0.096 -0.164312,0.19155 -0.246471,0.28732 -0.742558,0.86558 -1.485237,1.73099 -2.228285,2.59612 -0.952228,0.30588 -1.904648,0.61147 -2.857394,0.91681 -0.501443,-0.15253 -1.003135,-0.30533 -1.505097,-0.45839 -0.570206,0.24474 -1.140653,0.48921 -1.711378,0.73345 -0.621132,0.586 -1.242508,1.17172 -1.864183,1.75721 -0.880915,-0.46834 -1.762031,-0.93691 -2.64347,-1.40578 -0.738291,-0.48362 -1.476814,-0.96748 -2.215624,-1.45162 -0.47343,0.12761 -0.947103,0.25495 -1.421056,0.38202 -0.605854,0.53508 -1.211949,1.06987 -1.818341,1.60442 -1.2833,-0.51928 -2.566807,-1.03879 -3.850603,-1.55858 -0.32572,-0.63133 -0.65169,-1.26291 -0.977931,-1.89474 -0.835069,-0.24932 -1.670348,-0.49889 -2.505948,-0.74875 -0.738295,0.0156 -1.476824,0.0308 -2.215627,0.0459 0.310961,-0.0914 0.621663,-0.18311 0.932093,-0.27506 z"
         sodipodi:nodetypes="sccccccccccccccccccccccccsss" /><path
         style="fill:#30ea59;fill-opacity:1;stroke:#c72682;stroke-width:0.264054;stroke-opacity:0"
         d="m -93.714078,313.07882 c 0.38309,0.11391 0.933176,0.27689 1.56473,0.33286 0.631554,0.056 1.344612,0.005 1.991487,-0.0255 0.646874,-0.0306 1.227507,-0.0408 1.772527,0.13762 0.54502,0.17838 1.054345,0.54509 1.543316,0.88125 0.488971,0.33616 0.957555,0.64176 1.503623,0.7096 0.546067,0.0678 1.169697,-0.10185 1.732878,-0.3039 0.56318,-0.20204 1.065918,-0.43643 1.762697,-0.35658 0.696779,0.0798 1.587338,0.47373 2.363689,0.70119 0.77635,0.22745 1.438474,0.28857 2.016578,0.22107 0.578104,-0.0675 1.072308,-0.26352 1.490721,-0.52362 0.418412,-0.2601 0.761154,-0.58432 1.329119,-0.79193 0.567966,-0.2076 1.36087,-0.29855 2.057826,-0.42554 0.696956,-0.12698 1.297966,-0.28997 1.797076,-0.47843 0.499111,-0.18845 0.896384,-0.40237 0.69259,-0.0509 -0.203794,0.35148 -1.008524,1.26826 -1.930412,2.10866 -0.921888,0.84039 -1.960905,1.60437 -3.443049,2.28179 -1.482144,0.67743 -3.407365,1.26824 -5.58732,1.39053 -2.179955,0.12229 -4.614483,-0.22404 -6.41759,-0.85554 -1.803108,-0.6315 -2.974562,-1.54829 -4.045282,-2.46186 -1.07072,-0.91357 -2.04061,-1.82388 -2.4175,-2.2467 -0.376889,-0.42283 -0.160794,-0.35799 0.222296,-0.24407 z"
         id="path514"
         inkscape:path-effect="#path-effect516"
         inkscape:original-d="m -93.881389,313.02965 c 0.55035,0.16325 1.100437,0.32623 1.65026,0.48895 0.713353,-0.0507 1.426413,-0.1016 2.139222,-0.1528 0.580924,-0.01 1.161558,-0.0201 1.74194,-0.0306 0.509614,0.36701 1.018945,0.73372 1.528019,1.10019 0.468865,0.30586 0.937448,0.61146 1.405776,0.91681 0.623931,-0.16942 1.247561,-0.3391 1.870959,-0.50906 0.503027,-0.23413 1.005765,-0.46852 1.508262,-0.70319 0.890854,0.39417 1.781413,0.78806 2.671728,1.18169 0.662419,0.0614 1.324544,0.1225 1.986421,0.18336 0.494481,-0.19576 0.988684,-0.39179 1.482626,-0.58808 0.343013,-0.32396 0.685755,-0.64818 1.028249,-0.97268 0.793212,-0.0907 1.586118,-0.18164 2.378781,-0.27286 0.601297,-0.16274 1.202306,-0.32573 1.803061,-0.48897 0.397554,-0.21366 0.794829,-0.42757 1.191855,-0.64176 -0.804503,0.91709 -1.609234,1.83387 -2.414268,2.75043 -1.038804,0.76428 -2.077819,1.52826 -3.117157,2.29201 -1.925075,0.59111 -3.850297,1.18192 -5.775904,1.77251 -2.43443,-0.34609 -4.868957,-0.69243 -7.303924,-1.03905 -1.171244,-0.91657 -2.342697,-1.83336 -3.51444,-2.75043 -0.969681,-0.91009 -1.939566,-1.8204 -2.909749,-2.73099 0.216359,0.0651 0.432454,0.12994 0.648283,0.19452 z"
         sodipodi:nodetypes="scccccccccccccccccccss" /><path
         id="path514-3"
         style="fill:#2eda53;fill-opacity:1;stroke:#c72682;stroke-width:0.264054;stroke-opacity:0"
         d="m -71.994713,315.15069 c -0.677678,0.38658 -1.440623,0.75225 -2.340943,1.09554 -1.769599,0.67473 -4.068159,1.26312 -6.67091,1.38493 -2.602752,0.1218 -5.509269,-0.22316 -7.662065,-0.85214 -1.169295,-0.34164 -2.09747,-0.80862 -2.923366,-1.27187 0.0074,0.006 0.673706,0.62497 1.611047,1.25886 0.738684,0.49954 1.661221,0.99971 2.455915,1.27803 1.803108,0.63149 4.237743,0.97806 6.417696,0.85577 2.179953,-0.12229 4.105113,-0.71319 5.587256,-1.39062 1.482142,-0.67742 2.538853,-1.41773 3.46074,-2.25812 0.0279,-0.0254 0.03695,-0.0748 0.06463,-0.10039 z"
         sodipodi:nodetypes="sssscsssssss" /><ellipse
         style="fill:#775029;fill-opacity:1;stroke:#c72682;stroke-width:0.264054;stroke-opacity:0"
         id="path6250"
         cx="-81.313416"
         cy="302.38202"
         rx="0.95882946"
         ry="1.4499372" /><ellipse
         style="fill:#775029;fill-opacity:1;stroke:#c72682;stroke-width:0.264054;stroke-opacity:0"
         id="path6250-0"
         cx="-83.722176"
         cy="302.38208"
         rx="0.95882946"
         ry="1.4499372" /><path
         id="path6250-0-6"
         style="fill:#4b2c0b;fill-opacity:1;stroke:#c72682;stroke-width:0.268911;stroke-opacity:0"
         d="m -81.535949,300.97788 a 0.99328469,1.4515985 0 0 0 -0.74251,1.4041 0.99328469,1.4515985 0 0 0 0.793367,1.42169 0.97632958,1.8656534 0 0 1 -0.365634,-1.4548 0.97632958,1.8656534 0 0 1 0.314777,-1.37099 z" /><path
         id="path6250-0-6-1"
         style="fill:#4b2c0b;fill-opacity:1;stroke:#c72682;stroke-width:0.264054;stroke-opacity:0"
         d="m -83.958918,300.98315 a 0.95882946,1.4499372 0 0 0 -0.716752,1.40249 0.95882946,1.4499372 0 0 0 0.765845,1.42007 0.9424625,1.8635182 0 0 1 -0.35295,-1.45314 0.9424625,1.8635182 0 0 1 0.303857,-1.36942 z" /><path
         id="path13096"
         style="opacity:1;fill:#14c03a;fill-opacity:0.651341;stroke:#c72682;stroke-width:0.264054;stroke-opacity:0;filter:url(#filter15747)"
         d="m -86.254104,284.9129 c 0.110813,1.37837 1.120239,2.63052 2.497005,2.63085 1.372748,-1.3e-4 2.48374,-1.27919 2.599841,-2.65307 -0.755684,0.31715 -1.684028,0.69853 -2.629813,0.69867 -0.955984,-4.4e-4 -1.707466,-0.35275 -2.467033,-0.67645 z"
         sodipodi:nodetypes="ccccc" /></g></g></svg>
