<?xml version="1.0" encoding="UTF-8" standalone="no"?>
<!-- Created with Inkscape (http://www.inkscape.org/) -->

<svg
   width="180"
   height="190"
   viewBox="0 0 47.624999 50.270833"
   version="1.1"
   id="svg35093"
   inkscape:version="1.2.2 (732a01da63, 2022-12-09)"
   sodipodi:docname="vesmirny_odpad.svg"
   xmlns:inkscape="http://www.inkscape.org/namespaces/inkscape"
   xmlns:sodipodi="http://sodipodi.sourceforge.net/DTD/sodipodi-0.dtd"
   xmlns="http://www.w3.org/2000/svg"
   xmlns:svg="http://www.w3.org/2000/svg">
  <sodipodi:namedview
     id="namedview35095"
     pagecolor="#ffffff"
     bordercolor="#000000"
     borderopacity="0.25"
     inkscape:showpageshadow="2"
     inkscape:pageopacity="0.0"
     inkscape:pagecheckerboard="0"
     inkscape:deskcolor="#d1d1d1"
     inkscape:document-units="mm"
     showgrid="false"
     inkscape:zoom="2.1644332"
     inkscape:cx="151.07881"
     inkscape:cy="180.87876"
     inkscape:window-width="1920"
     inkscape:window-height="991"
     inkscape:window-x="2391"
     inkscape:window-y="594"
     inkscape:window-maximized="1"
     inkscape:current-layer="layer1" />
  <defs
     id="defs35090">
    <inkscape:path-effect
       effect="bspline"
       id="path-effect23107"
       is_visible="true"
       lpeversion="1"
       weight="33.333333"
       steps="2"
       helper_size="0"
       apply_no_weight="true"
       apply_with_weight="true"
       only_selected="false" />
  </defs>
  <g
     inkscape:label="Vrstva 1"
     inkscape:groupmode="layer"
     id="layer1">
    <g
       id="g31476"
       transform="matrix(1.1429215,0,0,1.1429215,-99.804293,-94.261352)">
      <path
         d="m 123.85251,84.56943 c 0.0593,0.931304 0.57571,1.544377 1.81465,2.154381 1.99053,0.980048 2.5634,2.233639 1.75015,3.829708 -0.66892,1.312791 -2.00897,1.434992 -5.36166,0.488927 -3.23102,-0.91173 -4.2808,-0.515728 -3.26885,1.233101 2.39536,4.139618 2.49597,4.479853 1.5999,5.410095 -0.57259,0.594435 -1.75323,1.011431 -3.42137,1.208391 -1.40088,0.165405 -2.58546,0.476737 -2.63239,0.691838 -0.17195,0.788239 0.73919,2.316389 -0.0128,1.469959 -1.44746,-1.6293 -0.80025,-2.41418 2.29178,-2.779271 3.88077,-0.458224 4.35191,-1.392778 2.34473,-4.651026 -2.27417,-3.691643 -1.72105,-4.250185 3.16716,-3.198168 3.41015,0.733914 4.04667,0.714408 4.66614,-0.142978 0.49991,-0.691928 0.49809,-1.307983 -0.006,-2.032745 -0.11169,-0.160577 -0.33173,-0.545086 -0.75313,-0.835389 -0.33664,-0.231911 -0.84904,-0.35053 -1.19019,-0.63742 -0.75286,-0.633126 -1.30072,-1.377795 -1.41907,-1.340485 -0.5964,0.18803 -1.52525,-0.816602 -1.26845,-1.320604 0.54322,-1.066106 1.62129,-0.779666 1.69971,0.451604 z"
         style="fill:#c80127;fill-opacity:1;stroke-width:0.551456"
         id="path23117"
         sodipodi:nodetypes="cssssssscsssscsssccc" />
      <path
         style="opacity:1;fill:#dfdedc;fill-opacity:1;stroke:#c72682;stroke-width:0.281018;stroke-opacity:0"
         d="m 112.77319,100.75649 c 0.20514,-0.0588 0.61518,-0.17645 1.08523,-0.20689 0.47005,-0.0304 0.99997,0.0262 1.47891,0.19794 0.47893,0.17174 0.90683,0.45839 1.10367,0.72692 0.19684,0.26853 0.16296,0.51896 -0.26438,2.04426 -0.42734,1.52531 -1.24809,4.32545 -1.71139,5.93998 -0.46331,1.61453 -0.56914,2.04336 -0.9135,2.3345 -0.34436,0.29113 -0.92746,0.44479 -1.59716,0.42211 -0.66969,-0.0227 -1.42605,-0.22182 -1.91965,-0.55375 -0.49359,-0.33193 -0.72423,-0.79685 -0.81333,-1.13867 -0.0891,-0.34181 -0.0364,-0.56034 0.54491,-2.15771 0.58136,-1.59737 1.69144,-4.57357 2.2465,-6.06171 0.55506,-1.48814 0.55506,-1.48814 0.76019,-1.54698 z"
         id="path23105"
         inkscape:path-effect="#path-effect23107"
         inkscape:original-d="m 112.56806,100.81533 c 0.41036,-0.11735 0.8204,-0.23497 1.23014,-0.35284 0.53025,0.0569 1.06017,0.11354 1.58982,0.16992 0.42821,0.28692 0.8561,0.57357 1.28373,0.85996 -0.0335,0.25068 -0.0675,0.50109 -0.10164,0.75125 -0.82048,2.80051 -1.64125,5.60065 -2.4623,8.40059 -0.10554,0.42911 -0.21138,0.85794 -0.31752,1.28651 -0.58284,0.15393 -1.16594,0.30759 -1.74937,0.46099 -0.75609,-0.1989 -1.51244,-0.39806 -2.26911,-0.59747 -0.23034,-0.46468 -0.46098,-0.9296 -0.69193,-1.39479 0.053,-0.21828 0.10561,-0.43682 0.15796,-0.65561 1.11037,-2.9759 2.22046,-5.9521 3.33022,-8.92852 3.1e-4,2.7e-4 0,1e-5 0,1e-5 z"
         sodipodi:nodetypes="sccccccccccss" />
      <g
         id="path28005"
         transform="matrix(0.95742764,0.28867335,-0.36913571,0.9293755,0,0)">
        <path
           style="color:#000000;fill:#9d9a93;stroke-width:0.234755;-inkscape-stroke:none"
           d="m 147.46208,74.018692 c 0,0.341283 -0.17768,0.68877 -0.54291,0.957825 -0.466,0.343286 -1.20734,0.566339 -1.95068,0.56634 -0.41182,0 -0.79978,-0.05663 -1.12614,-0.179314 -0.72444,-0.272326 -1.18194,-0.809364 -1.18194,-1.344851 0,-0.776727 1.07489,-1.406388 2.40084,-1.406386 1.32594,2e-6 2.40083,0.629662 2.40083,1.406386 z"
           id="path28489"
           sodipodi:nodetypes="sssssss" />
        <path
           style="color:#000000;fill:#c72682;fill-opacity:0;-inkscape-stroke:none"
           d="m 145.06055,72.494141 c -0.68155,0 -1.29893,0.16202 -1.75586,0.429687 -0.45694,0.267667 -0.76172,0.653196 -0.76172,1.095703 0,0.442508 0.30478,0.828036 0.76172,1.095703 0.45693,0.267667 1.07431,0.427735 1.75586,0.427735 0.68155,0 1.30088,-0.160068 1.75781,-0.427735 0.45693,-0.267667 0.76172,-0.653195 0.76172,-1.095703 0,-0.442507 -0.30479,-0.828036 -0.76172,-1.095703 -0.45693,-0.267667 -1.07626,-0.429687 -1.75781,-0.429687 z m 0,0.236328 c 0.64439,0 1.22667,0.153187 1.63867,0.394531 0.412,0.241344 0.64453,0.560314 0.64453,0.894531 0,0.334218 -0.23253,0.651234 -0.64453,0.892578 -0.412,0.241345 -0.99428,0.396485 -1.63867,0.396485 -0.64439,0 -1.22472,-0.15514 -1.63672,-0.396485 -0.412,-0.241344 -0.64649,-0.55836 -0.64649,-0.892578 0,-0.334217 0.23449,-0.653187 0.64649,-0.894531 0.412,-0.241344 0.99233,-0.394531 1.63672,-0.394531 z"
           id="path28486" />
      </g>
      <g
         id="path28005-1"
         transform="matrix(0.63985983,0.0617222,-0.02162918,0.78091952,20.370047,43.922011)"
         style="fill:#65625d;fill-opacity:1">
        <path
           style="color:#000000;fill:#65625d;fill-opacity:1;stroke-width:0.234755;-inkscape-stroke:none"
           d="m 147.46208,74.018692 c 0,0.341283 -0.17768,0.68877 -0.54291,0.957825 -0.466,0.343286 -1.20734,0.566339 -1.95068,0.56634 -0.41182,0 -0.79978,-0.05663 -1.12614,-0.179314 -0.72444,-0.272326 -1.18194,-0.809364 -1.18194,-1.344851 0,-0.776727 1.07489,-1.406388 2.40084,-1.406386 1.32594,2e-6 2.40083,0.629662 2.40083,1.406386 z"
           id="path28489-2"
           sodipodi:nodetypes="sssssss" />
        <path
           style="color:#000000;fill:#65625d;fill-opacity:1;-inkscape-stroke:none"
           d="m 145.06055,72.494141 c -0.68155,0 -1.29893,0.16202 -1.75586,0.429687 -0.45694,0.267667 -0.76172,0.653196 -0.76172,1.095703 0,0.442508 0.30478,0.828036 0.76172,1.095703 0.45693,0.267667 1.07431,0.427735 1.75586,0.427735 0.68155,0 1.30088,-0.160068 1.75781,-0.427735 0.45693,-0.267667 0.76172,-0.653195 0.76172,-1.095703 0,-0.442507 -0.30479,-0.828036 -0.76172,-1.095703 -0.45693,-0.267667 -1.07626,-0.429687 -1.75781,-0.429687 z m 0,0.236328 c 0.64439,0 1.22667,0.153187 1.63867,0.394531 0.412,0.241344 0.64453,0.560314 0.64453,0.894531 0,0.334218 -0.23253,0.651234 -0.64453,0.892578 -0.412,0.241345 -0.99428,0.396485 -1.63867,0.396485 -0.64439,0 -1.22472,-0.15514 -1.63672,-0.396485 -0.412,-0.241344 -0.64649,-0.55836 -0.64649,-0.892578 0,-0.334217 0.23449,-0.653187 0.64649,-0.894531 0.412,-0.241344 0.99233,-0.394531 1.63672,-0.394531 z"
           id="path28486-9" />
      </g>
      <g
         id="path28005-1-8"
         transform="matrix(0.32476768,0.03707338,-0.01097812,0.46905861,65.107421,70.383115)"
         style="fill:#110133;fill-opacity:1">
        <path
           style="color:#000000;fill:#110133;fill-opacity:1;stroke-width:0.234755;-inkscape-stroke:none"
           d="m 147.46208,74.018692 c 0,0.341283 -0.17768,0.68877 -0.54291,0.957825 -0.466,0.343286 -1.20734,0.566339 -1.95068,0.56634 -0.41182,0 -0.79978,-0.05663 -1.12614,-0.179314 -0.72444,-0.272326 -1.18194,-0.809364 -1.18194,-1.344851 0,-0.776727 1.07489,-1.406388 2.40084,-1.406386 1.32594,2e-6 2.40083,0.629662 2.40083,1.406386 z"
           id="path28489-2-0"
           sodipodi:nodetypes="sssssss" />
        <path
           style="color:#000000;fill:#110133;fill-opacity:1;-inkscape-stroke:none"
           d="m 145.06055,72.494141 c -0.68155,0 -1.29893,0.16202 -1.75586,0.429687 -0.45694,0.267667 -0.76172,0.653196 -0.76172,1.095703 0,0.442508 0.30478,0.828036 0.76172,1.095703 0.45693,0.267667 1.07431,0.427735 1.75586,0.427735 0.68155,0 1.30088,-0.160068 1.75781,-0.427735 0.45693,-0.267667 0.76172,-0.653195 0.76172,-1.095703 0,-0.442507 -0.30479,-0.828036 -0.76172,-1.095703 -0.45693,-0.267667 -1.07626,-0.429687 -1.75781,-0.429687 z m 0,0.236328 c 0.64439,0 1.22667,0.153187 1.63867,0.394531 0.412,0.241344 0.64453,0.560314 0.64453,0.894531 0,0.334218 -0.23253,0.651234 -0.64453,0.892578 -0.412,0.241345 -0.99428,0.396485 -1.63867,0.396485 -0.64439,0 -1.22472,-0.15514 -1.63672,-0.396485 -0.412,-0.241344 -0.64649,-0.55836 -0.64649,-0.892578 0,-0.334217 0.23449,-0.653187 0.64649,-0.894531 0.412,-0.241344 0.99233,-0.394531 1.63672,-0.394531 z"
           id="path28486-9-5" />
      </g>
      <path
         d="m 88.430378,122.25043 c 3.65109,0.1054 3.93872,-0.11054 3.34661,-2.51136 -0.64018,-2.5934 1.62257,-6.16988 3.90296,-6.16988 0.58821,0 3.24857,2.28171 5.911952,5.07045 2.66338,2.78876 5.59874,5.07047 6.52303,5.07047 4.39303,0 6.55669,-6.4953 3.8719,-11.62344 -1.16479,-2.22482 -1.11162,-2.31266 0.55361,-0.91474 2.54111,2.13322 2.42866,9.39519 -0.18266,11.80014 -3.06941,2.82677 -6.69947,2.24865 -10.26415,-1.63467 -1.76678,-1.92469 -3.212322,-3.98655 -3.212322,-4.58191 0,-0.59534 -1.3702,-0.92199 -3.0449,-0.72592 -2.74166,0.32105 -3.00817,0.73712 -2.67626,4.17807 0.35905,3.72219 0.27993,3.80347 -3.0449,3.12679"
         style="fill:#4001c8;fill-opacity:1;stroke-width:1.11696"
         id="path22344" />
      <g
         id="rect28734"
         transform="rotate(19.270038)">
        <path
           style="color:#000000;fill:#c9c7c4;stroke-width:0.264054;-inkscape-stroke:none"
           d="m 139.89114,57.766689 c 0,0 0.12056,-0.08221 0.17425,-0.116558 0.0681,-0.04359 0.16404,-0.09785 0.19773,-0.113183 l 0.0831,9.099105 c 0,0 -0.0542,0.02622 -0.1035,0.05449 -0.048,0.02751 -0.0907,0.05676 -0.12759,0.0801 -0.0798,0.05053 -0.22509,0.170581 -0.22509,0.170581 z"
           id="path31447"
           sodipodi:nodetypes="csccsscc" />
        <path
           style="color:#000000;fill:#c72682;fill-opacity:0;-inkscape-stroke:none"
           d="m 139.75,57.115234 v 0.13086 9.767578 h 0.66211 v -9.898438 z m 0.26367,0.263672 h 0.13477 V 66.75 h -0.13477 z"
           id="path31444" />
      </g>
      <g
         id="rect28734-4"
         transform="rotate(17.79477)">
        <path
           style="color:#000000;fill:#c9c7c4;fill-opacity:1;stroke-width:0.264054;-inkscape-stroke:none"
           d="m 139.08905,60.964847 c 0,0 0.0959,-0.04026 0.15551,-0.06141 0.0516,-0.01831 0.19017,-0.06304 0.19017,-0.06304 l 0.0259,9.106838 -0.22624,0.04405 -0.18747,0.05448 z"
           id="path31147"
           sodipodi:nodetypes="csccccc" />
        <path
           style="color:#000000;fill:#c72682;fill-opacity:0;-inkscape-stroke:none"
           d="m 138.9043,60.394531 v 0.132813 9.767578 h 0.66211 v -9.900391 z m 0.26367,0.263672 h 0.13476 v 9.371094 h -0.13476 z"
           id="path31144" />
      </g>
      <g
         id="rect28734-4-5"
         transform="rotate(15.95898)">
        <path
           style="color:#000000;fill:#c9c7c4;fill-opacity:1;stroke-width:0.264054;-inkscape-stroke:none"
           d="m 137.68265,65.215989 0.16354,-0.03051 0.20135,-0.02357 0.0134,9.176221 c 0,0 -0.15562,-0.0069 -0.21385,-0.0084 -0.0717,-0.0018 -0.17588,-0.0014 -0.17588,-0.0014 z"
           id="path30870"
           sodipodi:nodetypes="ccccscc" />
        <path
           style="color:#000000;fill:#c72682;fill-opacity:0;-inkscape-stroke:none"
           d="m 137.53906,64.8125 v 0.130859 9.767578 h 0.66211 V 64.8125 Z m 0.26367,0.263672 h 0.13477 v 9.371094 h -0.13477 z"
           id="path30872" />
      </g>
      <g
         id="rect28734-4-5-5"
         transform="rotate(15.356411)">
        <path
           style="color:#000000;fill:#c9c7c4;fill-opacity:1;stroke-width:0.264054;-inkscape-stroke:none"
           d="m 137.79273,66.598362 c 0,0 0.0909,0.005 0.15854,0.0054 0.0703,4.05e-4 0.29227,0.04697 0.29227,0.04697 l -0.0519,9.329155 c 0,0 -0.14818,-0.04999 -0.21796,-0.06991 -0.0559,-0.01596 -0.16513,-0.04197 -0.16513,-0.04197 z"
           id="path29649"
           sodipodi:nodetypes="csccscc" />
        <path
           style="color:#000000;fill:#c72682;fill-opacity:0;-inkscape-stroke:none"
           d="m 137.66406,66.408203 v 0.132813 9.765625 h 0.66211 v -9.898438 z m 0.26367,0.263672 h 0.13477 v 9.371094 h -0.13477 z"
           id="path29646" />
      </g>
      <g
         id="rect28734-4-5-5-1"
         transform="matrix(0.966462,0.25680966,-0.27212842,0.96226094,0,0)">
        <path
           style="color:#000000;fill:#c9c7c4;fill-opacity:1;stroke-width:0.285851;-inkscape-stroke:none"
           d="m 139.21444,67.932101 c 0,0 0.17383,0.06394 0.25518,0.106522 0.0728,0.03812 0.20735,0.135597 0.20735,0.135597 l -0.0649,9.486902 c 0,0 -0.15409,-0.161738 -0.21578,-0.199448 -0.0502,-0.03066 -0.12324,-0.08637 -0.12324,-0.08637 z"
           id="path28907"
           sodipodi:nodetypes="csccscc" />
        <path
           style="color:#000000;fill:#c72682;fill-opacity:0;-inkscape-stroke:none"
           d="m 139.10937,67.654297 v 0.142578 10.4375 h 0.72266 V 67.654297 Z m 0.28516,0.285156 h 0.15039 v 10.009766 h -0.15039 z"
           id="path28904" />
      </g>
    </g>
  </g>
</svg>
