<?xml version="1.0" encoding="UTF-8" standalone="no"?>
<!-- Created with Inkscape (http://www.inkscape.org/) -->

<svg
   width="440"
   height="400"
   viewBox="0 0 116.41665 105.83333"
   version="1.1"
   id="svg5"
   xml:space="preserve"
   inkscape:version="1.2.2 (732a01da63, 2022-12-09)"
   sodipodi:docname="papír.svg"
   xmlns:inkscape="http://www.inkscape.org/namespaces/inkscape"
   xmlns:sodipodi="http://sodipodi.sourceforge.net/DTD/sodipodi-0.dtd"
   xmlns="http://www.w3.org/2000/svg"
   xmlns:svg="http://www.w3.org/2000/svg"><sodipodi:namedview
     id="namedview7"
     pagecolor="#ffffff"
     bordercolor="#000000"
     borderopacity="0.25"
     inkscape:showpageshadow="2"
     inkscape:pageopacity="0.0"
     inkscape:pagecheckerboard="0"
     inkscape:deskcolor="#d1d1d1"
     inkscape:document-units="mm"
     showgrid="false"
     showguides="true"
     inkscape:zoom="0.5"
     inkscape:cx="400"
     inkscape:cy="429"
     inkscape:window-width="1920"
     inkscape:window-height="991"
     inkscape:window-x="2391"
     inkscape:window-y="594"
     inkscape:window-maximized="1"
     inkscape:current-layer="layer1" /><defs
     id="defs2"><inkscape:path-effect
       effect="bspline"
       id="path-effect7622"
       is_visible="true"
       lpeversion="1"
       weight="33.333333"
       steps="2"
       helper_size="0"
       apply_no_weight="true"
       apply_with_weight="true"
       only_selected="false" /><inkscape:path-effect
       effect="bspline"
       id="path-effect7564"
       is_visible="true"
       lpeversion="1"
       weight="33.333333"
       steps="2"
       helper_size="0"
       apply_no_weight="true"
       apply_with_weight="true"
       only_selected="false" /><inkscape:path-effect
       effect="bspline"
       id="path-effect7506"
       is_visible="true"
       lpeversion="1"
       weight="33.333333"
       steps="2"
       helper_size="0"
       apply_no_weight="true"
       apply_with_weight="true"
       only_selected="false" /><inkscape:path-effect
       effect="bspline"
       id="path-effect6668"
       is_visible="true"
       lpeversion="1"
       weight="33.333333"
       steps="2"
       helper_size="0"
       apply_no_weight="true"
       apply_with_weight="true"
       only_selected="false" /><inkscape:path-effect
       effect="bspline"
       id="path-effect4828"
       is_visible="true"
       lpeversion="1"
       weight="33.333333"
       steps="2"
       helper_size="0"
       apply_no_weight="true"
       apply_with_weight="true"
       only_selected="false" /><inkscape:path-effect
       effect="bspline"
       id="path-effect4044"
       is_visible="true"
       lpeversion="1"
       weight="33.333333"
       steps="2"
       helper_size="0"
       apply_no_weight="true"
       apply_with_weight="true"
       only_selected="false" /><inkscape:path-effect
       effect="bspline"
       id="path-effect4040"
       is_visible="true"
       lpeversion="1"
       weight="33.333333"
       steps="2"
       helper_size="0"
       apply_no_weight="true"
       apply_with_weight="true"
       only_selected="false" /><inkscape:path-effect
       effect="bspline"
       id="path-effect3928"
       is_visible="true"
       lpeversion="1"
       weight="33.333333"
       steps="2"
       helper_size="0"
       apply_no_weight="true"
       apply_with_weight="true"
       only_selected="false" /><inkscape:path-effect
       effect="bspline"
       id="path-effect3870"
       is_visible="true"
       lpeversion="1"
       weight="33.333333"
       steps="2"
       helper_size="0"
       apply_no_weight="true"
       apply_with_weight="true"
       only_selected="false" /><inkscape:path-effect
       effect="bspline"
       id="path-effect3866"
       is_visible="true"
       lpeversion="1"
       weight="33.333333"
       steps="2"
       helper_size="0"
       apply_no_weight="true"
       apply_with_weight="true"
       only_selected="false" /><inkscape:path-effect
       effect="bspline"
       id="path-effect3808"
       is_visible="true"
       lpeversion="1"
       weight="33.333333"
       steps="2"
       helper_size="0"
       apply_no_weight="true"
       apply_with_weight="true"
       only_selected="false" /><inkscape:path-effect
       effect="bspline"
       id="path-effect3696"
       is_visible="true"
       lpeversion="1"
       weight="33.333333"
       steps="2"
       helper_size="0"
       apply_no_weight="true"
       apply_with_weight="true"
       only_selected="false" /><inkscape:path-effect
       effect="bspline"
       id="path-effect2912"
       is_visible="true"
       lpeversion="1"
       weight="33.333333"
       steps="2"
       helper_size="0"
       apply_no_weight="true"
       apply_with_weight="true"
       only_selected="false" /><inkscape:path-effect
       effect="bspline"
       id="path-effect2854"
       is_visible="true"
       lpeversion="1"
       weight="33.333333"
       steps="2"
       helper_size="0"
       apply_no_weight="true"
       apply_with_weight="true"
       only_selected="false" /><inkscape:path-effect
       effect="bspline"
       id="path-effect2796"
       is_visible="true"
       lpeversion="1"
       weight="33.333333"
       steps="2"
       helper_size="0"
       apply_no_weight="true"
       apply_with_weight="true"
       only_selected="false" /><inkscape:path-effect
       effect="bspline"
       id="path-effect2738"
       is_visible="true"
       lpeversion="1"
       weight="33.333333"
       steps="2"
       helper_size="0"
       apply_no_weight="true"
       apply_with_weight="true"
       only_selected="false" /><inkscape:path-effect
       effect="bspline"
       id="path-effect2628"
       is_visible="true"
       lpeversion="1"
       weight="33.333333"
       steps="2"
       helper_size="0"
       apply_no_weight="true"
       apply_with_weight="true"
       only_selected="false" /><inkscape:path-effect
       effect="bspline"
       id="path-effect2518"
       is_visible="true"
       lpeversion="1"
       weight="33.333333"
       steps="2"
       helper_size="0"
       apply_no_weight="true"
       apply_with_weight="true"
       only_selected="false" /><inkscape:path-effect
       effect="bspline"
       id="path-effect1734"
       is_visible="true"
       lpeversion="1"
       weight="33.333333"
       steps="2"
       helper_size="0"
       apply_no_weight="true"
       apply_with_weight="true"
       only_selected="false" /><inkscape:path-effect
       effect="bspline"
       id="path-effect1622"
       is_visible="true"
       lpeversion="1"
       weight="33.333333"
       steps="2"
       helper_size="0"
       apply_no_weight="true"
       apply_with_weight="true"
       only_selected="false" /><inkscape:path-effect
       effect="bspline"
       id="path-effect1618"
       is_visible="true"
       lpeversion="1"
       weight="33.333333"
       steps="2"
       helper_size="0"
       apply_no_weight="true"
       apply_with_weight="true"
       only_selected="false" /><inkscape:path-effect
       effect="bspline"
       id="path-effect1614"
       is_visible="true"
       lpeversion="1"
       weight="33.333333"
       steps="2"
       helper_size="0"
       apply_no_weight="true"
       apply_with_weight="true"
       only_selected="false" /><inkscape:path-effect
       effect="bspline"
       id="path-effect384"
       is_visible="true"
       lpeversion="1"
       weight="33.333333"
       steps="2"
       helper_size="0"
       apply_no_weight="true"
       apply_with_weight="true"
       only_selected="false" /><inkscape:path-effect
       effect="bspline"
       id="path-effect372"
       is_visible="true"
       lpeversion="1"
       weight="33.333333"
       steps="2"
       helper_size="0"
       apply_no_weight="true"
       apply_with_weight="true"
       only_selected="false" /></defs><g
     inkscape:label="Vrstva 1"
     inkscape:groupmode="layer"
     id="layer1"><path
       style="fill:#000000;stroke-width:0.264583"
       id="path302"
       d="" /><g
       id="g18694"
       transform="matrix(1.4341759,1.2267026,-1.2267026,1.4341759,93.194288,-257.90126)"><path
         style="fill:#dfdfdf;fill-opacity:1;stroke:#c72682;stroke-width:0.264054;stroke-opacity:0"
         d="m 67.460409,142.70213 c 0,0 4.092845,2.15724 4.092845,2.15724 0,0 0.181901,0.0496 0.181901,0.0496 0,0 4.01836,0.0165 4.01836,0.0165 0,0 0.198437,0.0661 0.198437,0.0661 0,0 -5.291666,4.29948 -5.291666,4.29948 0,0 -0.06615,-0.0496 -0.06615,-0.0496 0,0 -6.89044,-0.32478 -6.89044,-0.32478 0,0 -0.08185,-0.0643 -0.08185,-0.0643 0,0 -0.163703,-0.3391 -0.163703,-0.3391 0,0 0.0058,-0.0175 0.0058,-0.0175 0,0 3.690572,-5.97218 3.690572,-5.97218 0,0 0.305894,0.17854 0.305894,0.17854 z"
         id="path2736"
         inkscape:path-effect="#path-effect2738"
         inkscape:original-d="m 67.460409,142.70213 4.092845,2.15724 0.181901,0.0496 4.01836,0.0165 0.198437,0.0661 -5.291666,4.29948 -0.06615,-0.0496 -6.89044,-0.32478 -0.08185,-0.0643 -0.163703,-0.3391 0.0058,-0.0175 3.690572,-5.97218 z"
         sodipodi:nodetypes="ccccccccccccc" /><path
         style="fill:#b1b1b1;fill-opacity:1;stroke:#c72682;stroke-width:0.264054;stroke-opacity:0"
         d="m 63.619389,148.8435 c 0,0 6.934962,0.16385 6.934962,0.16385 0,0 0.118388,0.009 0.118388,0.009 0,0 4.957849,-3.88209 4.957849,-3.88209 0,0 0.58465,-0.0702 0.58465,-0.0702 0,0 5.729592,0.0468 5.729592,0.0468 0,0 0.748355,-0.0935 0.748355,-0.0935 0,0 3.437753,-1.40316 3.437753,-1.40316 0,0 0.07016,0.18709 0.07016,0.18709 0,0 3.858705,5.09816 3.858705,5.09816 0,0 -0.25725,0.21048 -0.25725,0.21048 0,0 -7.740792,4.84092 -7.740792,4.84092 0,0 -0.561266,1.80072 -0.561266,1.80072 0,0 -0.841899,1.07577 -0.841899,1.07577 0,0 -3.437755,1.70718 -3.437755,1.70718 0,0 -1.145918,0.3274 -1.145918,0.3274 0,0 -2.8531,-1.21607 -2.8531,-1.21607 0,0 -9.179039,-8.4073 -9.179039,-8.4073 0,0 -0.423395,-0.39505 -0.423395,-0.39505 z"
         id="path2626"
         inkscape:path-effect="#path-effect2628"
         inkscape:original-d="m 63.619389,148.8435 6.934962,0.16385 0.118388,0.009 4.957849,-3.88209 0.58465,-0.0702 5.729592,0.0468 0.748355,-0.0935 3.437753,-1.40316 0.07016,0.18709 3.858705,5.09816 -0.25725,0.21048 -7.740792,4.84092 -0.561266,1.80072 -0.841899,1.07577 -3.437755,1.70718 -1.145918,0.3274 -2.8531,-1.21607 -9.179039,-8.4073 z"
         sodipodi:nodetypes="ccccccccccccccccccc" /><path
         style="fill:#c4c4c4;fill-opacity:1;stroke:#c72682;stroke-width:0.264054;stroke-opacity:0"
         d="m 88.271613,138.8401 c 0,0 -2.513541,4.86172 -2.513541,4.86172 0,0 -0.08268,0.0992 -0.08268,0.0992 0,0 9.128125,11.60859 9.128125,11.60859 0,0 0.08268,0.13232 0.08268,0.13232 0,0 5.490103,-4.72943 5.490103,-4.72943 0,0 -0.23151,-0.13229 -0.23151,-0.13229 0,0 -9.028906,-13.82448 -9.028906,-13.82448 0,0 -0.297656,0.13229 -0.297656,0.13229 0,0 -2.546615,1.85208 -2.546615,1.85208 z"
         id="path2516"
         inkscape:path-effect="#path-effect2518"
         inkscape:original-d="m 88.271613,138.8401 -2.513541,4.86172 -0.08268,0.0992 9.128125,11.60859 0.08268,0.13232 5.490103,-4.72943 -0.23151,-0.13229 -9.028906,-13.82448 -0.297656,0.13229 z"
         sodipodi:nodetypes="ccccccccccc" /><path
         style="fill:#9d9d9d;fill-opacity:1;stroke:#c72682;stroke-width:0.264054;stroke-opacity:0"
         d="m 111.78211,135.49694 c 0,0 -1.67317,2.39135 -1.67317,2.39135 0,0 -3.20884,4.70629 -3.20884,4.70629 0,0 2.44482,5.19526 2.44482,5.19526 0,0 0.48897,0.42785 0.48897,0.42785 0,0 1.52802,-7.45673 1.52802,-7.45673 0,0 0.61121,-3.11715 0.61121,-3.11715 0,0 -0.19101,-2.14687 -0.19101,-2.14687 z"
         id="path1620"
         inkscape:path-effect="#path-effect1622"
         inkscape:original-d="m 111.78211,135.49694 -1.67317,2.39135 -3.20884,4.70629 2.44482,5.19526 0.48897,0.42785 1.52802,-7.45673 0.61121,-3.11715 z"
         sodipodi:nodetypes="cccccccc" /><path
         style="fill:#dfdfdf;fill-opacity:1;stroke:#c72682;stroke-width:0.264054;stroke-opacity:0"
         d="m 104.45879,122.32563 c 0,0 6.38509,-1.28289 6.38509,-1.28289 0,0 0.64493,0.0248 0.64493,0.0248 0,0 -1.29762,3.55584 -1.29762,3.55584 0,0 -0.63715,1.14878 -0.63715,1.14878 0,0 -4.0349,-2.57969 -4.0349,-2.57969 0,0 -1.06035,-0.86685 -1.06035,-0.86685 0,0 0,1e-5 0,1e-5 z"
         id="path3864"
         inkscape:path-effect="#path-effect3866"
         inkscape:original-d="m 104.45879,122.32563 6.38509,-1.28289 0.64493,0.0248 -1.29762,3.55584 -0.63715,1.14878 -4.0349,-2.57969 -1.06035,-0.86685 z"
         sodipodi:nodetypes="cccccccc" /><path
         style="fill:#c4c4c4;fill-opacity:1;stroke:#c72682;stroke-width:0.264054;stroke-opacity:0"
         d="m 99.484398,120.25124 c 0,0 -2.338607,7.10937 -2.338607,7.10937 0,0 -5.332029,6.5481 -5.332029,6.5481 0,0 12.862348,11.08501 12.862348,11.08501 0,0 0.56126,0.23386 0.56126,0.23386 0,0 2.38538,-3.18051 2.38538,-3.18051 0,0 4.63045,-7.20291 4.63045,-7.20291 0,0 4.77076,-8.60608 4.77076,-8.60608 0,0 -3.60146,-5.14494 -3.60146,-5.14494 0,0 -2.57246,-0.0468 -2.57246,-0.0468 0,0 -1.12254,3.64823 -1.12254,3.64823 0,0 -10.102785,-4.63045 -10.102785,-4.63045 0,0 -0.140317,0.18709 -0.140317,0.18709 0,0 0,3e-5 0,3e-5 z"
         id="path3694"
         inkscape:path-effect="#path-effect3696"
         inkscape:original-d="m 99.484398,120.25124 -2.338607,7.10937 -5.332029,6.5481 12.862348,11.08501 0.56126,0.23386 2.38538,-3.18051 4.63045,-7.20291 4.77076,-8.60608 -3.60146,-5.14494 -2.57246,-0.0468 -1.12254,3.64823 -10.102785,-4.63045 -0.140317,0.18709 z"
         sodipodi:nodetypes="cccccccccccccc" /><path
         style="fill:#b1b1b1;fill-opacity:1;stroke:#c72682;stroke-width:0.264054;stroke-opacity:0"
         d="m 110.6835,141.06635 c 0,0 -1.51266,6.00743 -1.51266,6.00743 0,0 0.12965,0.77794 0.12965,0.77794 0,0 -4.79729,7.08145 -4.79729,7.08145 0,0 0.2151,0.004 0.2151,0.004 0,0 0.63877,0.001 0.63877,0.001 0,0 3.96501,-1.33858 3.96501,-1.33858 0,0 5.153,-1.23355 5.153,-1.23355 0,0 1.22499,-1.82152 1.22499,-1.82152 0,0 0.0627,-0.26754 0.0627,-0.26754 0,0 -1.27604,-9.64304 -1.27604,-9.64304 0,0 -2.62276,-5.08979 -2.62276,-5.08979 0,0 -1.18047,5.5222 -1.18047,5.5222 z"
         id="path1616"
         inkscape:path-effect="#path-effect1618"
         inkscape:original-d="m 110.6835,141.06635 -1.51266,6.00743 0.12965,0.77794 -4.79729,7.08145 0.2151,0.004 0.63877,0.001 3.96501,-1.33858 5.153,-1.23355 1.22499,-1.82152 0.0627,-0.26754 -1.27604,-9.64304 -2.62276,-5.08979 z"
         sodipodi:nodetypes="ccccccccccccc" /><path
         style="fill:#919191;fill-opacity:1;stroke:#c72682;stroke-width:0.264054;stroke-opacity:0"
         d="m 104.36885,145.61073 c 0,0 -3.81116,3.9532 -3.81116,3.9532 0,0 -0.4754,0.99403 -0.4754,0.99403 0,0 -5.432991,4.46809 -5.432991,4.46809 0,0 -0.172873,-0.17288 -0.172873,-0.17288 0,0 -4.883732,-6.09386 -4.883732,-6.09386 0,0 -0.734722,0.30253 -0.734722,0.30253 0,0 -6.828578,4.71086 -6.828578,4.71086 0,0 -0.216096,0.17287 -0.216096,0.17287 0,0 -0.821158,2.07451 -0.821158,2.07451 0,0 -4.970168,2.76601 -4.970168,2.76601 0,0 -0.04322,0.12965 -0.04322,0.12965 0,0 3.500726,0.95082 3.500726,0.95082 0,0 0.172876,0.12965 0.172876,0.12965 0,0 9.528562,-1.24165 9.528562,-1.24165 0,0 6.635292,2.45182 6.635292,2.45182 0,0 0.08644,-0.0864 0.08644,-0.0864 0,0 1.479574,-3.43104 1.479574,-3.43104 0,0 0.804635,-2.27985 0.804635,-2.27985 0,0 0.07254,-0.28567 0.07254,-0.28567 0,0 6.459903,-0.18376 6.459903,-0.18376 0,0 0.0864,-0.2161 0.0864,-0.2161 0,0 4.56861,-6.88833 4.56861,-6.88833 0,0 -0.35534,-0.7529 -0.35534,-0.7529 0,0 -1.96689,-4.25349 -1.96689,-4.25349 0,0 -2.68323,2.78189 -2.68323,2.78189 z"
         id="path1732"
         inkscape:path-effect="#path-effect1734"
         inkscape:original-d="m 104.36885,145.61073 -3.81116,3.9532 -0.4754,0.99403 -5.432991,4.46809 -0.172873,-0.17288 -4.883732,-6.09386 -0.734722,0.30253 -6.828578,4.71086 -0.216096,0.17287 -0.821158,2.07451 -4.970168,2.76601 -0.04322,0.12965 3.500726,0.95082 0.172876,0.12965 9.528562,-1.24165 6.635292,2.45182 0.08644,-0.0864 1.479574,-3.43104 0.804635,-2.27985 0.07254,-0.28567 6.459903,-0.18376 0.0864,-0.2161 4.56861,-6.88833 -0.35534,-0.7529 -1.96689,-4.25349 z"
         sodipodi:nodetypes="cccccccccccccccccccccccccc" /><path
         style="fill:#c4c4c4;fill-opacity:1;stroke:#c72682;stroke-width:0.264054;stroke-opacity:0"
         d="m 67.150215,142.52648 c 0,0 0.114006,-0.18708 0.114006,-0.18708 0,0 4.768591,-1.01883 4.768591,-1.01883 0,0 0.115755,-0.0165 0.115755,-0.0165 0,0 -0.115755,3.65456 -0.115755,3.65456 0,0 0,0.0331 0,0.0331 0,0 -0.347266,-0.0165 -0.347266,-0.0165 0,0 -4.535331,-2.44865 -4.535331,-2.44865 0,0 0,-1e-4 0,-1e-4 z"
         id="path2794"
         inkscape:path-effect="#path-effect2796"
         inkscape:original-d="m 67.150215,142.52648 0.114006,-0.18708 4.768591,-1.01883 0.115755,-0.0165 -0.115755,3.65456 v 0.0331 l -0.347266,-0.0165 -4.535331,-2.44865 z"
         sodipodi:nodetypes="ccccccccc" /><path
         style="fill:#ededed;fill-opacity:1;stroke:#c72682;stroke-width:0.264054;stroke-opacity:0"
         d="m 75.653978,145.15742 c 0,0 0.748356,-0.6782 0.748356,-0.6782 0,0 6.533917,-4.36919 6.533917,-4.36919 0,0 1.277035,-2.45954 1.277035,-2.45954 0,0 2.57247,-1.40317 2.57247,-1.40317 0,0 4.045791,-0.25725 4.045791,-0.25725 0,0 0.257247,0.21048 0.257247,0.21048 0,0 0.03536,0.7544 0.03536,0.7544 0,0 -0.620117,0.41341 -0.620117,0.41341 0,0 -2.174544,1.49655 -2.174544,1.49655 0,0 -2.268704,4.9595 -2.268704,4.9595 0,0 -1.309621,1.07576 -1.309621,1.07576 0,0 -2.57247,0.51449 -2.57247,0.51449 0,0 -6.173925,0.14032 -6.173925,0.14032 0,0 -0.350793,-0.39756 -0.350793,-0.39756 0,0 -2e-6,0 -2e-6,0 z"
         id="path2852"
         inkscape:path-effect="#path-effect2854"
         inkscape:original-d="m 75.653978,145.15742 0.748356,-0.6782 6.533917,-4.36919 1.277035,-2.45954 2.57247,-1.40317 4.045791,-0.25725 0.257247,0.21048 0.03536,0.7544 -0.620117,0.41341 -2.174544,1.49655 -2.268704,4.9595 -1.309621,1.07576 -2.57247,0.51449 -6.173925,0.14032 -0.350793,-0.39756 z"
         sodipodi:nodetypes="cccccccccccccccc" /><path
         style="fill:#ededed;fill-opacity:1;stroke:#c72682;stroke-width:0.264054;stroke-opacity:0"
         d="m 85.857291,124.85026 c 0,0 -2.678907,2.61276 -2.678907,2.61276 0,0 -2.447395,1.12448 -2.447395,1.12448 0,0 11.211718,5.19245 11.211718,5.19245 0,0 0.429948,0.19843 0.429948,0.19843 0,0 4.99401,-6.41614 4.99401,-6.41614 0,0 2.254759,-7.49607 2.254759,-7.49607 0,0 -8.703977,3.59346 -8.703977,3.59346 0,0 -5.060156,1.19063 -5.060156,1.19063 z"
         id="path3926"
         inkscape:path-effect="#path-effect3928"
         inkscape:original-d="m 85.857291,124.85026 -2.678907,2.61276 -2.447395,1.12448 11.211718,5.19245 0.429948,0.19843 4.99401,-6.41614 2.254759,-7.49607 -8.703977,3.59346 z"
         sodipodi:nodetypes="ccccccccc" /><path
         style="fill:#c4c4c4;fill-opacity:1;stroke:#c72682;stroke-width:0.264054;stroke-opacity:0"
         d="m 80.728761,128.48314 c 0,0 -0.04677,4.51352 -0.04677,4.51352 0,0 11.389021,0.77174 11.389021,0.77174 0,0 -11.342248,-5.28526 -11.342248,-5.28526 0,0 -3e-6,0 -3e-6,0 z"
         id="path3868"
         inkscape:path-effect="#path-effect3870"
         inkscape:original-d="m 80.728761,128.48314 -0.04677,4.51352 11.389021,0.77174 -11.342248,-5.28526 z"
         sodipodi:nodetypes="ccccc" /><path
         style="fill:#b1b1b1;fill-opacity:1;stroke:#c72682;stroke-width:0.264054;stroke-opacity:0"
         d="m 69.690529,137.60372 c 0,0 2.338608,3.64822 2.338608,3.64822 0,0 0,0.28064 0,0.28064 0,0 -0.140317,3.78854 -0.140317,3.78854 0,0 0.327406,0.0935 0.327406,0.0935 0,0 3.601455,-0.18708 3.601455,-0.18708 0,0 2.198294,-1.12253 2.198294,-1.12253 0,0 5.659432,-4.02241 5.659432,-4.02241 0,0 0.748353,-2.01121 0.748353,-2.01121 0,0 2.759559,-1.59025 2.759559,-1.59025 0,0 3.601455,-0.37418 3.601455,-0.37418 0,0 0.140317,0.60804 0.140317,0.60804 0,0 8.980257,14.31229 8.980257,14.31229 0,0 0.726872,-1.49964 0.726872,-1.49964 0,0 0.44551,-0.49341 0.44551,-0.49341 0,0 3.83224,-4.04056 3.83224,-4.04056 0,0 -0.14032,-0.32741 -0.14032,-0.32741 0,0 -12.862341,-10.99146 -12.862341,-10.99146 0,0 -0.420953,-0.0935 -0.420953,-0.0935 0,0 -10.617279,-1.12253 -10.617279,-1.12253 0,0 -0.374179,0 -0.374179,0 0,0 -5.940065,1.1693 -5.940065,1.1693 0,0 -0.374176,0.23386 -0.374176,0.23386 0,0 -4.490128,3.74178 -4.490128,3.74178 z"
         id="path2910"
         inkscape:path-effect="#path-effect2912"
         inkscape:original-d="m 69.690529,137.60372 2.338608,3.64822 v 0.28064 l -0.140317,3.78854 0.327406,0.0935 3.601455,-0.18708 2.198294,-1.12253 5.659432,-4.02241 0.748353,-2.01121 2.759559,-1.59025 3.601455,-0.37418 0.140317,0.60804 8.980257,14.31229 0.726872,-1.49964 0.44551,-0.49341 3.83224,-4.04056 -0.14032,-0.32741 -12.862341,-10.99146 -0.420953,-0.0935 -10.617279,-1.12253 h -0.374179 l -5.940065,1.1693 -0.374176,0.23386 z"
         sodipodi:nodetypes="cccccccccccccccccccccccc" /><path
         style="fill:#b1b1b1;fill-opacity:1;stroke:#c72682;stroke-width:0.264054;stroke-opacity:0"
         d="m 113.2582,121.07995 c 0,0 5.10977,1.48828 5.10977,1.48828 0,0 -1.43867,3.85299 -1.43867,3.85299 0,0 -0.56224,0.81029 -0.56224,0.81029 0,0 -3.10886,-6.15156 -3.10886,-6.15156 z"
         id="path3806"
         inkscape:path-effect="#path-effect3808"
         inkscape:original-d="m 113.2582,121.07995 5.10977,1.48828 -1.43867,3.85299 -0.56224,0.81029 z"
         sodipodi:nodetypes="ccccc" /><path
         style="fill:#dfdfdf;fill-opacity:1;stroke:#c72682;stroke-width:0.264054;stroke-opacity:0"
         d="m 85.704826,125.00133 c 0,0 0.262417,5.82042 0.262417,5.82042 0,0 8.535919,-1.94105 8.535919,-1.94105 0,0 2.456574,-1.30754 2.456574,-1.30754 0,0 -11.25491,-2.57183 -11.25491,-2.57183 z"
         id="path4038"
         inkscape:path-effect="#path-effect4040"
         inkscape:original-d="m 85.704826,125.00133 0.262417,5.82042 8.535919,-1.94105 2.456574,-1.30754 z"
         sodipodi:nodetypes="ccccc" /><path
         style="fill:#dfdfdf;fill-opacity:1;stroke:#c72682;stroke-width:0.264054;stroke-opacity:0"
         d="m 80.697916,128.52135 c 0,0 0.01654,4.16719 0.01654,4.16719 0,0 -1.488281,0.33073 -1.488281,0.33073 0,0 -4.630208,0.89297 -4.630208,0.89297 0,0 -4.200261,3.38997 -4.200261,3.38997 0,0 -0.661458,0.42995 -0.661458,0.42995 0,0 -0.198438,-0.26458 -0.198438,-0.26458 0,0 0.214974,-0.51263 0.214974,-0.51263 0,0 3.274219,-4.59714 3.274219,-4.59714 0,0 3.307292,-0.97565 3.307292,-0.97565 0,0 4.365625,-2.86081 4.365625,-2.86081 0,0 -4e-6,0 -4e-6,0 z"
         id="path4042"
         inkscape:path-effect="#path-effect4044"
         inkscape:original-d="m 80.697916,128.52135 0.01654,4.16719 -1.488281,0.33073 -4.630208,0.89297 -4.200261,3.38997 -0.661458,0.42995 -0.198438,-0.26458 0.214974,-0.51263 3.274219,-4.59714 3.307292,-0.97565 4.365625,-2.86081 z"
         sodipodi:nodetypes="cccccccccccc" /><path
         style="fill:#ededed;fill-opacity:1;stroke:#c72682;stroke-width:0.264054;stroke-opacity:0"
         d="m 76.782357,115.88973 c 0,0 -2.41665,2.63333 -2.41665,2.63333 0,0 5.451674,0.12623 5.451674,0.12623 0,0 2.250232,-2.59585 2.250232,-2.59585 0,0 -5.285256,-0.16371 -5.285256,-0.16371 z"
         id="path7504"
         inkscape:path-effect="#path-effect7506"
         inkscape:original-d="m 76.782357,115.88973 -2.41665,2.63333 5.451674,0.12623 2.250232,-2.59585 z"
         sodipodi:nodetypes="ccccc" /><path
         style="fill:#c4c4c4;fill-opacity:1;stroke:#c72682;stroke-width:0.264054;stroke-opacity:0"
         d="m 82.02961,115.90727 c 0,0 -2.525696,2.73617 -2.525696,2.73617 0,0 9.120574,1.37978 9.120574,1.37978 0,0 -6.594878,-4.11595 -6.594878,-4.11595 z"
         id="path7562"
         inkscape:path-effect="#path-effect7564"
         inkscape:original-d="m 82.02961,115.90727 -2.525696,2.73617 9.120574,1.37978 z"
         sodipodi:nodetypes="cccc" /><path
         style="fill:#9d9d9d;fill-opacity:1;stroke:#c72682;stroke-width:0.264054;stroke-opacity:0"
         d="m 74.367744,118.52067 c 0,0 -4.911077,8.98026 -4.911077,8.98026 0,0 0.07158,9.95491 0.07158,9.95491 0,0 3.670196,-4.95029 3.670196,-4.95029 0,0 3.414369,-0.8419 3.414369,-0.8419 0,0 4.162721,-2.99342 4.162721,-2.99342 0,0 2.899876,-1.12253 2.899876,-1.12253 0,0 2.032907,-2.54837 2.032907,-2.54837 0,0 5.450639,-1.09986 5.450639,-1.09986 0,0 8.463341,-3.83086 8.463341,-3.83086 0,0 0.0024,-3.98009 0.0024,-3.98009 0,0 -3.461142,2.61924 -3.461142,2.61924 0,0 -7.577089,1.30962 -7.577089,1.30962 0,0 -9.027028,-1.40317 -9.027028,-1.40317 0,0 -5.191712,-0.0935 -5.191712,-0.0935 0,0 1.9e-5,-4e-5 1.9e-5,-4e-5 z"
         id="path4826"
         inkscape:path-effect="#path-effect4828"
         inkscape:original-d="m 74.367744,118.52067 -4.911077,8.98026 0.07158,9.95491 3.670196,-4.95029 3.414369,-0.8419 4.162721,-2.99342 2.899876,-1.12253 2.032907,-2.54837 5.450639,-1.09986 8.463341,-3.83086 0.0024,-3.98009 -3.461142,2.61924 -7.577089,1.30962 -9.027028,-1.40317 -5.191712,-0.0935 z"
         sodipodi:nodetypes="cccccccccccccccc" /><path
         style="fill:#919191;fill-opacity:1;stroke:#c72682;stroke-width:0.264054;stroke-opacity:0"
         d="m 74.380989,118.5664 c 0,0 5.291666,6.26732 5.291666,6.26732 0,0 0.975651,3.80339 0.975651,3.80339 0,0 2.794662,-1.15755 2.794662,-1.15755 0,0 2.38125,-2.57969 2.38125,-2.57969 0,0 -2.38125,-2.43086 -2.38125,-2.43086 0,0 -9.061979,-3.90261 -9.061979,-3.90261 z"
         id="path6666"
         inkscape:path-effect="#path-effect6668"
         inkscape:original-d="m 74.380989,118.5664 5.291666,6.26732 0.975651,3.80339 2.794662,-1.15755 2.38125,-2.57969 -2.38125,-2.43086 z"
         sodipodi:nodetypes="ccccccc" /><path
         style="fill:#dfdfdf;fill-opacity:1;stroke:#c72682;stroke-width:0.264054;stroke-opacity:0"
         d="m 89.528384,108.61146 c 0,0 -7.500317,7.29671 -7.500317,7.29671 0,0 6.564761,4.10559 6.564761,4.10559 0,0 7.586709,-1.2942 7.586709,-1.2942 0,0 3.445338,-2.63075 3.445338,-2.63075 0,0 -5.697793,-5.42683 -5.697793,-5.42683 0,0 -4.398698,-2.05052 -4.398698,-2.05052 z"
         id="path7620"
         inkscape:path-effect="#path-effect7622"
         inkscape:original-d="m 89.528384,108.61146 -7.500317,7.29671 6.564761,4.10559 7.586709,-1.2942 3.445338,-2.63075 -5.697793,-5.42683 z"
         sodipodi:nodetypes="ccccccc" /></g></g></svg>
