<?xml version="1.0" encoding="UTF-8" standalone="no"?>
<!-- Created with Inkscape (http://www.inkscape.org/) -->

<svg
   width="461"
   height="470"
   viewBox="0 0 121.97291 124.35417"
   version="1.1"
   id="svg5"
   xml:space="preserve"
   inkscape:version="1.2.2 (732a01da63, 2022-12-09)"
   sodipodi:docname="odpad_kelimek.svg"
   xmlns:inkscape="http://www.inkscape.org/namespaces/inkscape"
   xmlns:sodipodi="http://sodipodi.sourceforge.net/DTD/sodipodi-0.dtd"
   xmlns="http://www.w3.org/2000/svg"
   xmlns:svg="http://www.w3.org/2000/svg"><sodipodi:namedview
     id="namedview7"
     pagecolor="#ffffff"
     bordercolor="#000000"
     borderopacity="0.25"
     inkscape:showpageshadow="2"
     inkscape:pageopacity="0.0"
     inkscape:pagecheckerboard="0"
     inkscape:deskcolor="#d1d1d1"
     inkscape:document-units="mm"
     showgrid="false"
     inkscape:zoom="1"
     inkscape:cx="-77.5"
     inkscape:cy="184.5"
     inkscape:window-width="1920"
     inkscape:window-height="991"
     inkscape:window-x="2391"
     inkscape:window-y="594"
     inkscape:window-maximized="1"
     inkscape:current-layer="layer1" /><defs
     id="defs2"><inkscape:path-effect
       effect="bspline"
       id="path-effect22386"
       is_visible="true"
       lpeversion="1"
       weight="33.333333"
       steps="2"
       helper_size="0"
       apply_no_weight="true"
       apply_with_weight="true"
       only_selected="false" /><inkscape:path-effect
       effect="bspline"
       id="path-effect19905"
       is_visible="true"
       lpeversion="1"
       weight="33.333333"
       steps="2"
       helper_size="0"
       apply_no_weight="true"
       apply_with_weight="true"
       only_selected="false" /><inkscape:path-effect
       effect="bspline"
       id="path-effect19901"
       is_visible="true"
       lpeversion="1"
       weight="33.333333"
       steps="2"
       helper_size="0"
       apply_no_weight="true"
       apply_with_weight="true"
       only_selected="false" /><inkscape:path-effect
       effect="bspline"
       id="path-effect19897"
       is_visible="true"
       lpeversion="1"
       weight="33.333333"
       steps="2"
       helper_size="0"
       apply_no_weight="true"
       apply_with_weight="true"
       only_selected="false" /><inkscape:path-effect
       effect="bspline"
       id="path-effect13069"
       is_visible="true"
       lpeversion="1"
       weight="33.333333"
       steps="2"
       helper_size="0"
       apply_no_weight="true"
       apply_with_weight="true"
       only_selected="false" /><inkscape:path-effect
       effect="bspline"
       id="path-effect12471"
       is_visible="true"
       lpeversion="1"
       weight="33.333333"
       steps="2"
       helper_size="0"
       apply_no_weight="true"
       apply_with_weight="true"
       only_selected="false" /><inkscape:path-effect
       effect="bspline"
       id="path-effect11378"
       is_visible="true"
       lpeversion="1"
       weight="33.333333"
       steps="2"
       helper_size="0"
       apply_no_weight="true"
       apply_with_weight="true"
       only_selected="false" /><inkscape:path-effect
       effect="bspline"
       id="path-effect11374"
       is_visible="true"
       lpeversion="1"
       weight="33.333333"
       steps="2"
       helper_size="0"
       apply_no_weight="true"
       apply_with_weight="true"
       only_selected="false" /><inkscape:path-effect
       effect="bspline"
       id="path-effect5998"
       is_visible="true"
       lpeversion="1"
       weight="33.333333"
       steps="2"
       helper_size="0"
       apply_no_weight="true"
       apply_with_weight="true"
       only_selected="false" /><inkscape:path-effect
       effect="bspline"
       id="path-effect5994"
       is_visible="true"
       lpeversion="1"
       weight="33.333333"
       steps="2"
       helper_size="0"
       apply_no_weight="true"
       apply_with_weight="true"
       only_selected="false" /><inkscape:path-effect
       effect="bspline"
       id="path-effect5990"
       is_visible="true"
       lpeversion="1"
       weight="33.333333"
       steps="2"
       helper_size="0"
       apply_no_weight="true"
       apply_with_weight="true"
       only_selected="false" /><inkscape:path-effect
       effect="bspline"
       id="path-effect2800"
       is_visible="true"
       lpeversion="1"
       weight="33.333333"
       steps="2"
       helper_size="0"
       apply_no_weight="true"
       apply_with_weight="true"
       only_selected="false" /><inkscape:path-effect
       effect="bspline"
       id="path-effect2770"
       is_visible="true"
       lpeversion="1"
       weight="33.333333"
       steps="2"
       helper_size="0"
       apply_no_weight="true"
       apply_with_weight="true"
       only_selected="false" /><inkscape:path-effect
       effect="bspline"
       id="path-effect2040"
       is_visible="true"
       lpeversion="1"
       weight="33.333333"
       steps="2"
       helper_size="0"
       apply_no_weight="true"
       apply_with_weight="true"
       only_selected="false" /><inkscape:path-effect
       effect="bspline"
       id="path-effect382"
       is_visible="true"
       lpeversion="1"
       weight="33.333333"
       steps="2"
       helper_size="0"
       apply_no_weight="true"
       apply_with_weight="true"
       only_selected="false" /><inkscape:path-effect
       effect="bspline"
       id="path-effect382-0"
       is_visible="true"
       lpeversion="1"
       weight="33.333333"
       steps="2"
       helper_size="0"
       apply_no_weight="true"
       apply_with_weight="true"
       only_selected="false" /><inkscape:path-effect
       effect="bspline"
       id="path-effect382-0-6"
       is_visible="true"
       lpeversion="1"
       weight="33.333333"
       steps="2"
       helper_size="0"
       apply_no_weight="true"
       apply_with_weight="true"
       only_selected="false" /></defs><g
     inkscape:label="Vrstva 1"
     inkscape:groupmode="layer"
     id="layer1"><g
       id="g22602"
       transform="matrix(3.035553,0,0,3.035553,-221.61392,-199.05384)"><path
         style="fill:#c7a160;fill-opacity:1;stroke:#c72682;stroke-width:0.264054;stroke-opacity:0"
         d="m 79.724269,79.922391 c 1.874784,2.552981 3.749786,5.106259 4.079026,6.928281 0.329241,1.822021 -0.886826,2.913363 -2.102902,4.004714 1.714979,0.685991 3.430277,1.372111 3.491086,2.107467 0.06081,0.735356 -1.532278,1.520227 -2.07795,2.627354 -0.545673,1.107127 -0.0439,2.536125 0.143438,3.847608 0.187343,1.311485 0.06041,2.505465 0.481516,3.533695 0.421109,1.02822 1.389914,1.89057 3.121636,2.50954 1.731722,0.61898 4.226186,0.99471 6.639262,0.92473 2.413076,-0.07 4.744676,-0.58555 6.103987,-1.07073 1.359312,-0.48518 1.746392,-0.93997 2.150952,-1.63049 0.40457,-0.69053 0.82661,-1.6168 1.18978,-3.27318 0.36317,-1.656378 0.66741,-4.042771 0.42237,-5.417496 -0.24504,-1.374725 -1.0397,-1.73755 -1.92035,-2.074896 -0.88066,-0.337346 -1.847261,-0.649153 -1.582301,-1.132551 0.264961,-0.483397 1.761511,-1.13814 3.258221,-1.79295 -0.74835,-0.530085 -1.49639,-1.059947 -1.20034,-3.460989 0.29606,-2.401043 1.63689,-6.67298 2.97769,-10.944838 -1.3408,-0.43654 -2.68129,-0.872977 -4.66138,-0.919812 -1.980098,-0.04684 -4.599286,0.296153 -6.750835,0.639147 -2.151548,0.342993 -3.835311,0.685981 -6.002469,1.294022 -2.167159,0.608041 -4.817689,1.481158 -7.468111,2.354239 0,0 -0.292326,0.947135 -0.292326,0.947135 z"
         id="path11372"
         inkscape:path-effect="#path-effect11374"
         inkscape:original-d="m 79.724269,79.922391 c 0,0 3.749832,5.106226 5.624352,7.658943 -1.215837,1.091636 -3.648228,3.274052 -3.648228,3.274052 0,0 3.430222,1.372248 5.144936,2.057974 -1.592885,0.785167 -3.185971,1.570038 -4.779353,2.35466 0.502032,1.42926 1.003801,2.858258 1.505304,4.286987 -0.12668,1.194323 -0.253617,2.388303 -0.380825,3.582083 0.969123,0.86266 1.937926,1.72501 2.906522,2.58714 2.49483,0.37602 4.989295,0.75175 7.483546,1.12723 2.332001,-0.51535 4.663603,-1.03092 6.995077,-1.5468 0.38736,-0.45455 0.77444,-0.90934 1.16128,-1.36442 0.42233,-0.92606 0.84437,-1.85233 1.26617,-2.77893 0.30452,-2.38627 0.60875,-4.772664 0.91274,-7.159464 -0.79441,-0.362572 -1.58907,-0.725393 -2.384,-1.088486 -0.96638,-0.311555 -1.932983,-0.623364 -2.899874,-0.935442 1.497004,-0.654558 4.490124,-1.964431 4.490124,-1.964431 0,0 -1.49643,-1.059894 -2.24506,-1.590254 1.34109,-4.27168 4.02241,-12.815573 4.02241,-12.815573 0,0 -2.68134,-0.872818 -4.02241,-1.309621 -2.619029,0.343268 -5.238218,0.686255 -7.857723,1.028988 -1.683568,0.343265 -3.367331,0.686255 -5.051396,1.028986 -2.650209,0.873363 -7.951266,2.619243 -7.951266,2.619243 z"
         sodipodi:nodetypes="ccccscccccccccccccccccc" /><path
         style="fill:#b59454;fill-opacity:1;stroke:#c72682;stroke-width:0.264054;stroke-opacity:0"
         d="m 80.046099,78.87624 c -0.177802,0.295016 -0.246664,0.653099 -0.315566,1.011389 0.675239,0.43546 1.350785,0.871118 2.779826,1.248627 1.429042,0.377508 3.611812,0.697206 6.174963,0.730245 2.563152,0.03304 5.506583,-0.220516 8.098385,-0.788293 2.591801,-0.567778 4.831863,-1.449682 6.038963,-2.133103 1.20709,-0.683422 1.38124,-1.16848 1.56559,-1.711289 0.18435,-0.542808 0.37895,-1.143506 0.57349,-1.744053 -0.31581,-0.182178 -0.63131,-0.364178 -1.84757,-0.648258 -1.21626,-0.28408 -3.332889,-0.669923 -5.466171,-0.598311 -2.133282,0.07161 -4.282979,0.600769 -6.383131,1.124429 -2.100153,0.523659 -4.150631,1.041791 -5.886978,1.499302 -1.736347,0.457512 -3.158454,0.854379 -4.012914,1.168586 -0.85446,0.314208 -1.141086,0.545714 -1.318887,0.840729 z"
         id="path19899"
         inkscape:path-effect="#path-effect19901"
         inkscape:original-d="m 79.937239,78.812759 c -0.06864,0.358555 -0.206706,1.07487 -0.206706,1.07487 0,0 1.350742,0.871185 2.025716,1.30638 2.183119,0.319977 4.365889,0.639676 6.548437,0.959115 2.943813,-0.253299 5.887244,-0.506854 8.830469,-0.760677 2.240479,-0.881698 4.480545,-1.763602 6.720505,-2.645833 0.17442,-0.484817 0.34857,-0.969875 0.52246,-1.455209 0.19481,-0.600295 0.58363,-1.801642 0.58363,-1.801642 0,0 -0.63136,-0.364093 -0.94743,-0.546535 -2.11644,-0.385593 -4.233067,-0.771437 -6.349998,-1.157552 -2.149518,0.529442 -4.299215,1.058598 -6.449219,1.5875 -2.050299,0.518417 -4.100777,1.03655 -6.151562,1.554427 -1.4219,0.397148 -2.844007,0.794015 -4.266407,1.190625 -0.286374,0.23178 -0.573,0.463286 -0.859895,0.694531 z"
         sodipodi:nodetypes="cccccccccccccc" /><path
         style="fill:#e0e0e0;fill-opacity:1;stroke:#c72682;stroke-width:0.264054;stroke-opacity:0"
         d="m 79.186329,72.560825 c 0.132324,0.628538 0.396843,1.885002 0.661426,3.141773 -0.859896,1.168577 -1.719824,2.337198 -2.171643,2.91052 -0.451819,0.573321 -0.495919,0.55127 -0.23133,0.661502 0.264588,0.110232 0.83784,0.352762 2.083594,0.617303 1.245755,0.264541 3.163948,0.551168 5.688509,0.48498 2.524561,-0.06619 5.655402,-0.485103 8.830404,-1.201703 3.175002,-0.7166 6.394051,-1.730819 8.676051,-2.645841 2.282,-0.915022 3.62686,-1.730757 4.97183,-2.546556 0,0 -3.90261,-2.778125 -3.90261,-2.778125 -0.46302,-1.675694 -0.92595,-3.351074 -1.24554,-4.233098 -0.3196,-0.882023 -0.49598,-0.970214 -1.67564,-0.992345 -1.17966,-0.02213 -3.362425,0.02196 -5.842942,0.242442 -2.480516,0.220477 -5.258585,0.617344 -7.783226,1.333923 -2.524641,0.716579 -4.795602,1.752843 -6.1186,2.535627 -1.322999,0.782784 -1.697817,1.311939 -1.885212,1.576497 -0.187395,0.264558 -0.187395,0.264562 -0.05507,0.893101 z"
         id="path11376"
         inkscape:path-effect="#path-effect11378"
         inkscape:original-d="m 79.054005,71.932286 c 0.264848,1.257035 0.79375,3.770312 0.79375,3.770312 0,0 -1.719527,2.337417 -2.579687,3.50573 -0.04383,-0.02178 -0.08793,-0.04383 -0.132292,-0.06615 0.57354,0.242803 1.146791,0.485333 1.719792,0.727604 1.91853,0.286901 3.836723,0.573529 5.754687,0.859896 3.13123,-0.418669 6.262071,-0.837584 9.392708,-1.256771 3.219427,-1.013992 6.438477,-2.028209 9.657307,-3.042708 1.34526,-0.815552 4.0349,-2.447396 4.0349,-2.447396 l -3.90261,-2.778125 c 0,0 -0.92577,-3.351125 -1.38906,-5.027083 -0.17613,-0.08793 -0.35251,-0.176126 -0.52917,-0.264584 -2.182605,0.04436 -4.36537,0.08846 -6.54845,0.132292 -2.777916,0.397147 -5.555985,0.794014 -8.334375,1.190625 -2.270789,1.036569 -4.54175,2.072833 -6.813021,3.108854 -0.37457,0.529442 -0.749387,1.058598 -1.124479,1.5875 z"
         sodipodi:nodetypes="sccccccccccccccss" /><path
         style="fill:#f3f3f3;fill-opacity:1;stroke:#c72682;stroke-width:0.264054;stroke-opacity:0"
         d="m 88.854774,67.776071 c 0.011,0.07717 -1.025285,0.496089 -1.8852,0.87092 -0.859916,0.37483 -1.54341,0.705553 -1.951385,1.212807 -0.407975,0.507253 -0.540264,1.190749 -0.132196,1.565482 0.408069,0.374734 1.356143,0.440879 2.745191,0.330606 1.389048,-0.110273 3.219045,-0.396899 5.016008,-0.782763 1.796962,-0.385863 3.560812,-0.870922 5.038038,-1.455217 1.477225,-0.584296 2.66783,-1.26779 3.36234,-1.686703 0.6945,-0.418913 0.89294,-0.573254 1.14719,0.09284 0.25424,0.666093 0.56419,2.151917 0.87421,3.638077 -0.70689,0.939187 -1.41382,1.878415 -2.17516,2.733844 -0.76133,0.855429 -1.577119,1.627115 -2.756673,2.321628 -1.179554,0.694513 -2.722925,1.311861 -4.134025,1.785912 -1.4111,0.474052 -2.689896,0.804775 -4.365574,1.003232 -1.675679,0.198458 -3.748208,0.264603 -5.401847,0.215015 -1.65364,-0.04959 -2.888299,-0.214943 -3.822632,-0.355499 -0.934333,-0.140556 -1.568212,-0.256308 -1.391957,-0.702833 0.176255,-0.446526 1.162896,-1.223712 2.149571,-2.000926 -0.440972,-1.411111 -0.881737,-2.821557 -1.10494,-3.678146 -0.223204,-0.856589 -0.228432,-1.158098 0.03618,-1.511038 0.26461,-0.35294 0.798995,-0.756891 1.948176,-1.289606 1.149181,-0.532715 2.913091,-1.194181 4.324234,-1.657201 1.411142,-0.463019 2.469454,-0.727597 2.480453,-0.650431 z"
         id="path12469"
         inkscape:path-effect="#path-effect12471"
         inkscape:original-d="m 89.901923,67.434368 c -1.036021,0.419187 -2.072304,0.838113 -3.108855,1.256771 -0.683257,0.330999 -1.36675,0.661723 -2.05052,0.992187 -0.13203,0.683784 -0.264319,1.36728 -0.396875,2.050521 0.948372,0.06641 1.896446,0.132556 2.84427,0.198438 1.830335,-0.286375 3.660333,-0.573001 5.490104,-0.859896 1.764193,-0.484815 3.528043,-0.969875 5.291668,-1.455208 1.19092,-0.683258 2.381525,-1.366751 3.571885,-2.050521 0.1987,-0.15408 0.39714,-0.308417 0.59531,-0.463021 0.31029,1.486455 0.93006,4.458481 0.93006,4.458481 0,0 -1.41352,1.878639 -2.12068,2.81756 -0.81556,0.771981 -1.631345,1.543667 -2.447405,2.315105 -1.543175,0.617638 -3.086545,1.234987 -4.630213,1.852083 -1.27858,0.330999 -2.557375,0.661723 -3.836458,0.992187 -2.072346,0.06641 -4.144875,0.132557 -6.217708,0.198438 -1.234485,-0.165104 -2.469144,-0.33046 -3.704166,-0.496094 -0.633652,-0.115494 -1.267531,-0.231246 -1.901693,-0.347265 0.98694,-0.776949 2.960026,-2.331641 2.960026,-2.331641 0,0 -0.881571,-2.821609 -1.322917,-4.233334 -0.005,-0.301405 -0.01019,-0.602915 -0.01569,-0.904785 0.534679,-0.403709 1.069064,-0.80766 1.603189,-1.211881 1.764133,-0.661186 3.528043,-1.322652 5.291667,-1.984375 1.058619,-0.264324 2.116931,-0.528902 3.175001,-0.79375 z"
         sodipodi:nodetypes="ccccccccccccccccscccccc" /><path
         style="fill:#e0e0e0;fill-opacity:1;stroke:#c72682;stroke-width:0.264054;stroke-opacity:0"
         d="m 82.245374,76.321632 c 1.917658,0.06236 3.835588,0.124735 5.527167,0.03117 1.691578,-0.09357 3.157076,-0.343015 4.677175,-0.662635 1.520099,-0.319619 3.094727,-0.709379 4.842944,-1.416188 1.748216,-0.706809 3.66997,-1.730599 3.52964,-1.559097 -0.14032,0.171503 -2.342737,1.538297 -4.054128,2.526287 -1.71139,0.987991 -2.931658,1.597111 -4.340864,2.0443 -1.409206,0.44719 -3.007284,0.732378 -4.671243,0.772337 -1.66396,0.03996 -3.393672,-0.165386 -4.323171,-0.495495 -0.929499,-0.33011 -1.058552,-0.785545 -1.18752,-1.240675 z"
         id="path13067"
         inkscape:path-effect="#path-effect13069"
         inkscape:original-d="m 82.245374,76.321632 c 0,0 3.83558,0.12499 5.752975,0.18709 1.465821,-0.249193 2.931319,-0.498639 4.396584,-0.748355 1.574959,-0.389512 3.149587,-0.779272 4.723987,-1.169305 1.922125,-1.02358 3.84388,-2.047372 5.76548,-3.071482 -2.20223,1.367112 -4.404645,2.733905 -6.60738,4.10047 -1.22008,0.609422 -2.440347,1.218544 -3.660954,1.827437 -1.59791,0.28547 -3.195988,0.570658 -4.794429,0.855599 -1.729559,-0.205094 -3.459271,-0.41044 -5.18936,-0.616063 -0.128706,-0.454876 -0.386903,-1.365391 -0.386903,-1.365391 z"
         sodipodi:nodetypes="cccccccccc" /><path
         style="fill:#d6b576;fill-opacity:1;stroke:#c72682;stroke-width:0.264054;stroke-opacity:0"
         d="m 100.31066,84.720171 c 0,-0.218282 -0.436543,1.309609 -0.904224,2.260543 -0.46768,0.950933 -0.966574,1.325104 -2.291722,1.699282 -1.325147,0.374179 -3.476626,0.748349 -3.788403,0.904269 -0.311777,0.15592 1.216083,0.09356 2.525707,0.0156 1.309623,-0.07796 2.400954,-0.171502 2.977736,-0.10897 0.576782,0.06253 0.639143,0.280797 -0.20271,0.530077 -0.841853,0.24928 -2.587979,0.529907 -4.147099,0.919671 -1.55912,0.389764 -2.931075,0.888657 -3.83542,1.372006 -0.904345,0.483349 -1.340876,0.951061 -0.795029,1.340859 0.545847,0.389798 2.073707,0.701605 3.601611,0.982234 1.527904,0.280629 3.055764,0.530076 4.115948,0.763973 1.060184,0.233897 1.652621,0.452163 1.948685,0.951148 0.296064,0.498984 0.296064,1.278505 0.155723,2.276287 -0.140342,0.997782 -0.420968,2.21383 -0.966606,3.11799 -0.545638,0.90415 -1.356341,1.49659 -2.884153,1.85519 -1.527811,0.3586 -3.77283,0.48332 -5.596928,0.37423 -1.824098,-0.1091 -3.227236,-0.45209 -3.41431,-0.35849 -0.187075,0.0936 0.841891,0.62366 2.104748,1.02897 1.262857,0.40531 2.759536,0.68593 4.037966,0.82622 1.27843,0.14029 2.338578,0.14029 3.61698,-0.10919 1.278401,-0.24949 2.775079,-0.74838 3.7416,-1.5746 0.96652,-0.82622 1.40306,-1.97991 1.76165,-3.3207 0.3586,-1.340778 0.63923,-2.868639 0.56138,-3.991127 -0.0778,-1.122488 -0.51437,-1.83965 -1.403,-2.338679 -0.88863,-0.49903 -2.229397,-0.779656 -2.993387,-1.044585 -0.76399,-0.264928 -0.951075,-0.514375 -0.53018,-0.919912 0.420896,-0.405538 1.449863,-0.966793 2.104707,-1.2942 0.65484,-0.327407 0.93547,-0.42095 1.23169,-0.530088 0.29622,-0.109139 0.60802,-0.233859 0.51456,-0.420844 -0.0935,-0.186985 -0.59235,-0.436431 -1.0133,-0.623541 -0.42095,-0.187111 -0.763938,-0.311835 -0.717343,-1.356393 0.04659,-1.044558 0.483123,-3.008949 0.483123,-3.22723 z"
         id="path19903"
         inkscape:path-effect="#path-effect19905"
         inkscape:original-d="m 100.74725,82.973824 c -0.43628,1.528154 -0.872819,3.056046 -1.309625,4.583671 -0.498647,0.374449 -0.99754,0.74862 -1.496708,1.122532 -2.151298,0.374449 -4.302776,0.74862 -6.454561,1.122532 1.528189,-0.0621 3.056049,-0.12446 4.583674,-0.187087 1.091636,-0.09328 2.182966,-0.186825 3.274052,-0.280633 0.06263,0.218538 0.124989,0.436803 0.187089,0.654809 -1.745932,0.280903 -3.492058,0.561531 -5.238482,0.841899 -1.371748,0.499179 -2.743703,0.998072 -4.115951,1.496711 -0.436285,0.467995 -0.872816,0.935707 -1.309622,1.403165 1.528186,0.312084 3.056046,0.623893 4.583674,0.935442 1.528186,0.249722 3.056046,0.499168 4.583671,0.748356 0.592724,0.218537 1.185161,0.436803 1.777343,0.654809 2.65e-4,0.779817 2.65e-4,1.559338 0,2.33861 -0.280373,1.216363 -0.561001,2.43241 -0.841899,3.64823 -0.810469,0.59272 -1.62117,1.18516 -2.432153,1.77734 -2.244844,0.12499 -4.489862,0.24972 -6.735193,0.37418 -1.402927,-0.34274 -2.806065,-0.68573 -4.209495,-1.02899 1.029275,0.53036 2.058242,1.06043 3.086963,1.59025 1.497004,0.28091 2.993684,0.56153 4.49013,0.8419 1.060453,2.7e-4 2.120601,2.7e-4 3.180506,0 1.497004,-0.49865 2.993683,-0.99754 4.490127,-1.49671 0.43681,-1.15347 0.87335,-2.30716 1.30962,-3.46114 0.2809,-1.527653 0.56153,-3.055514 0.8419,-4.58367 -0.43628,-0.716923 -0.87282,-1.434081 -1.30962,-2.15152 -1.34057,-0.280374 -2.681339,-0.561002 -4.022406,-0.841899 -0.186827,-0.249193 -0.373914,-0.498639 -0.561266,-0.748353 1.029272,-0.561015 2.058239,-1.12227 3.086962,-1.6838 0.2809,-0.09328 0.56153,-0.186823 0.8419,-0.280633 0.31209,-0.124463 0.62389,-0.249185 0.93544,-0.374177 -0.49865,-0.249192 -0.99754,-0.498639 -1.49671,-0.748355 -0.34273,-0.124463 -0.685722,-0.249187 -1.028985,-0.374177 0.436814,-1.964205 0.873345,-3.928596 1.309625,-5.893292 z" /><path
         style="fill:#b59454;fill-opacity:1;stroke:#c72682;stroke-width:0.264054;stroke-opacity:0"
         d="m 83.806898,85.482783 c 0.330711,0.815798 0.595293,1.587498 0.617262,2.160648 0.02197,0.573149 -0.198514,0.947968 -0.474115,1.344824 -0.2756,0.396856 -0.606323,0.815771 -0.837837,1.113434 -0.231514,0.297662 -0.363803,0.474046 -0.132112,0.694584 0.231691,0.220539 0.826993,0.485117 1.378208,0.771776 0.551216,0.286658 1.058324,0.595333 1.422086,0.893045 0.363763,0.297711 0.584245,0.584339 0.407835,0.275655 -0.176411,-0.308683 -0.749662,-1.212656 -0.992312,-1.918266 -0.242651,-0.705609 -0.154458,-1.212716 0.121169,-1.708917 0.275628,-0.496202 0.738641,-0.981263 0.804865,-1.554378 0.06622,-0.573115 -0.264498,-1.234559 -0.78259,-1.896055 -0.518093,-0.661496 -1.223633,-1.32294 -1.697686,-1.774936 -0.474052,-0.451996 -0.71658,-0.694523 -0.639465,-0.385808 0.07711,0.308715 0.473982,1.168595 0.804692,1.984394 z"
         id="path22384"
         inkscape:path-effect="#path-effect22386"
         inkscape:original-d="m 83.872916,85.526561 c 0.264848,0.771967 0.529431,1.543667 0.79375,2.315105 -0.220226,0.375097 -0.440709,0.749916 -0.661459,1.124479 -0.330472,0.419195 -0.661193,0.838112 -0.992187,1.256771 -0.13203,0.176657 -0.264319,0.353041 -0.396875,0.529166 0.595587,0.264853 1.190889,0.529431 1.785937,0.79375 0.507392,0.308951 1.0145,0.617625 1.521354,0.926042 0.220756,0.286901 0.441238,0.573529 0.661459,0.859896 -0.573011,-0.903748 -1.146263,-1.807721 -1.719792,-2.711979 0.08846,-0.506865 0.176654,-1.013971 0.264583,-1.521355 0.463294,-0.484814 0.926307,-0.969875 1.389063,-1.455208 -0.330473,-0.661207 -0.661194,-1.322652 -0.992188,-1.984375 -0.705305,-0.661207 -1.410845,-1.322652 -2.116666,-1.984375 -0.242277,-0.242276 -0.484804,-0.484804 -0.727604,-0.727604 0.397147,0.860176 0.794014,1.720056 1.190625,2.579687 z" /></g></g></svg>
