<?xml version="1.0" encoding="UTF-8" standalone="no"?>
<!-- Created with Inkscape (http://www.inkscape.org/) -->

<svg
   width="300"
   height="250"
   viewBox="0 0 79.375001 66.145831"
   version="1.1"
   id="svg9577"
   inkscape:version="1.2.2 (732a01da63, 2022-12-09)"
   sodipodi:docname="pet_lahev.svg"
   xmlns:inkscape="http://www.inkscape.org/namespaces/inkscape"
   xmlns:sodipodi="http://sodipodi.sourceforge.net/DTD/sodipodi-0.dtd"
   xmlns="http://www.w3.org/2000/svg"
   xmlns:svg="http://www.w3.org/2000/svg">
  <sodipodi:namedview
     id="namedview9579"
     pagecolor="#ffffff"
     bordercolor="#000000"
     borderopacity="0.25"
     inkscape:showpageshadow="2"
     inkscape:pageopacity="0.0"
     inkscape:pagecheckerboard="0"
     inkscape:deskcolor="#d1d1d1"
     inkscape:document-units="mm"
     showgrid="false"
     inkscape:zoom="1.0822166"
     inkscape:cx="-55.903781"
     inkscape:cy="210.2167"
     inkscape:window-width="1920"
     inkscape:window-height="991"
     inkscape:window-x="2391"
     inkscape:window-y="594"
     inkscape:window-maximized="1"
     inkscape:current-layer="layer1" />
  <defs
     id="defs9574">
    <inkscape:path-effect
       effect="bspline"
       id="path-effect382"
       is_visible="true"
       lpeversion="1"
       weight="33.333333"
       steps="2"
       helper_size="0"
       apply_no_weight="true"
       apply_with_weight="true"
       only_selected="false" />
    <inkscape:path-effect
       effect="bspline"
       id="path-effect2800"
       is_visible="true"
       lpeversion="1"
       weight="33.333333"
       steps="2"
       helper_size="0"
       apply_no_weight="true"
       apply_with_weight="true"
       only_selected="false" />
    <inkscape:path-effect
       effect="bspline"
       id="path-effect5994"
       is_visible="true"
       lpeversion="1"
       weight="33.333333"
       steps="2"
       helper_size="0"
       apply_no_weight="true"
       apply_with_weight="true"
       only_selected="false" />
  </defs>
  <g
     inkscape:label="Vrstva 1"
     inkscape:groupmode="layer"
     id="layer1">
    <g
       id="g9572"
       transform="translate(-362.08601,-104.68653)">
      <path
         style="fill:#30d064;fill-opacity:1;stroke:#c72682;stroke-width:0.264054;stroke-opacity:0"
         d="m 369.91788,114.82435 c 1.07978,-0.16299 2.66892,-0.40747 3.66232,-0.6532 0.99341,-0.24572 1.39119,-0.49267 2.09094,-1.5006 0.69975,-1.00794 1.7015,-2.77686 2.6232,-4.05574 0.9217,-1.27889 1.76317,-2.06746 2.75453,-2.36336 0.99137,-0.2959 2.13228,-0.0992 3.32002,0.50742 1.18775,0.60658 2.42224,1.62274 3.80766,3.02857 1.38541,1.40584 2.92162,3.20114 4.6881,4.73036 1.76648,1.52922 3.76305,2.79236 5.22986,3.1997 1.4668,0.40734 2.40398,-0.0409 3.60091,-0.76414 1.19693,-0.72326 2.65357,-1.72151 3.69267,-2.39387 1.0391,-0.67235 1.66048,-1.01869 2.53147,-1.4822 0.87099,-0.46351 1.99146,-1.04412 3.15289,-0.9625 1.16144,0.0816 2.36344,0.82523 3.99841,2.37369 1.63497,1.54846 3.70281,3.90151 6.1069,7.5281 2.40409,3.62658 5.14428,8.52634 6.65697,11.60784 1.51268,3.08151 1.79791,4.34465 1.79785,5.36325 -7e-5,1.0186 -0.28529,1.79278 -0.24447,2.73006 0.0408,0.93729 0.40755,2.03744 2.05794,3.40241 1.6504,1.36498 4.58406,2.99479 6.54501,4.50762 1.96095,1.51284 2.94903,2.90837 2.74773,5.82178 -0.20129,2.91341 -1.59166,7.34447 -2.61541,9.82738 -1.02376,2.48292 -1.68085,3.01756 -2.70199,3.20095 -1.02113,0.18339 -2.40651,0.0155 -3.28267,-0.55734 -0.87615,-0.5728 -1.24287,-1.55071 -1.67075,-1.87686 -0.42788,-0.32615 -0.91682,-1.8e-4 -1.29421,0.49732 -0.37738,0.4975 -0.64304,1.16631 -1.51067,1.69379 -0.86762,0.52747 -2.33736,0.91374 -3.3815,0.40221 -1.04414,-0.51154 -1.66253,-1.92119 -1.81357,-3.1008 -0.15105,-1.17961 0.16546,-2.12891 -0.55224,-2.44069 -0.7177,-0.31177 -2.46977,0.0142 -3.53691,0.29178 -1.06714,0.27759 -1.44913,0.50679 -2.21048,0.48138 -0.76136,-0.0254 -1.90224,-0.30553 -2.4525,-1.22227 -0.55026,-0.91674 -0.50951,-2.47016 -0.0129,-4.31916 0.49659,-1.849 1.44904,-3.99328 2.12902,-6.18597 0.67999,-2.19268 1.08745,-4.43374 0.94495,-6.04321 -0.1425,-1.60946 -0.8352,-2.58738 -2.0321,-3.44316 -1.1969,-0.85577 -2.89805,-1.5892 -3.77428,-2.54671 -0.87623,-0.9575 -0.92716,-2.13914 -0.74892,-3.19865 0.17824,-1.05952 0.58571,-1.99668 -0.59581,-3.46355 -1.18152,-1.46688 -3.95226,-3.46345 -6.43545,-4.16872 -2.48318,-0.70527 -4.67852,-0.11898 -6.77706,0.61447 -2.09853,0.73346 -4.10005,1.61403 -5.98709,2.43124 -1.88705,0.81721 -3.65947,1.571 -5.24856,1.83592 -1.58909,0.26491 -2.99482,0.0408 -4.24786,-0.90645 -1.25304,-0.94726 -2.35319,-2.61787 -3.37188,-4.16627 -1.01868,-1.54841 -1.95584,-2.97452 -2.99488,-3.70812 -1.03903,-0.7336 -2.17992,-0.77434 -3.48384,-0.79472 -1.30393,-0.0204 -2.7708,-0.0204 -3.54512,-0.73333 -0.77433,-0.71294 -0.85582,-2.13908 -0.89658,-2.85229 -0.0408,-0.71321 -0.0408,-4.13597 0.14259,-4.42117 0.18335,-0.28521 0.55006,-0.85565 1.01879,-1.18168 0.46872,-0.32603 1.0392,-0.40752 2.11899,-0.57051 z"
         id="path380"
         inkscape:path-effect="#path-effect382"
         inkscape:original-d="m 369.40831,114.90588 c 1.5894,-0.24422 3.17854,-0.4887 4.76742,-0.73345 0.39807,-0.24669 0.79585,-0.49364 1.19339,-0.74086 1.00208,-1.76878 2.00383,-3.5377 3.00539,-5.30702 0.84178,-0.78836 1.68325,-1.57693 2.52449,-2.3658 1.1412,0.19701 2.28211,0.39375 3.42276,0.59023 1.23486,1.0165 2.46935,2.03265 3.70367,3.04862 1.53655,1.79566 3.07276,3.59096 4.60874,5.38604 1.99692,1.26345 3.99349,2.52658 5.98982,3.78948 0.93748,-0.44796 1.87466,-0.89617 2.81157,-1.34466 1.457,-0.99805 2.91364,-1.99631 4.37013,-2.99491 0.62168,-0.3461 1.24305,-0.69244 1.86417,-1.03905 1.12085,-0.5804 2.24133,-1.16101 3.36164,-1.74194 1.20234,0.74392 2.40435,1.48753 3.60614,2.23091 2.06821,2.35345 4.13604,4.70651 6.20373,7.05943 2.74057,4.90021 5.48076,9.79997 8.22074,14.69954 0.28551,1.26344 0.57073,2.52658 0.85569,3.78948 -0.28496,0.77447 -0.5702,1.54865 -0.85569,2.32258 0.367,1.10046 0.73372,2.20061 1.10016,3.30052 2.93413,1.63019 5.86779,3.26 8.80139,4.88966 0.9884,1.39588 1.97648,2.79141 2.96435,4.18676 -1.39019,4.43161 -2.78056,8.86267 -4.17129,13.29376 -0.65686,0.53493 -1.31395,1.06957 -1.97134,1.60396 -1.38515,-0.16767 -2.77053,-0.33559 -4.1562,-0.50379 -0.36648,-0.97769 -0.73319,-1.9556 -1.10017,-2.93379 -0.48871,0.32625 -0.97766,0.65221 -1.4669,0.97793 -0.26541,0.66911 -0.53107,1.33792 -0.79701,2.0065 -1.46955,0.38655 -2.93929,0.77282 -4.40937,1.15885 -0.61816,-1.40946 -1.23655,-2.81911 -1.85522,-4.22909 0.31678,-0.94908 0.63329,-1.89838 0.94954,-2.84799 -1.75191,0.32625 -3.50398,0.65222 -5.2564,0.97793 -0.38173,0.22947 -0.76372,0.45867 -1.14598,0.68761 -1.14069,-0.27987 -2.28157,-0.56 -3.42278,-0.84041 0.041,-1.55325 0.0818,-3.10667 0.12224,-4.66045 0.95275,-2.14409 1.9052,-4.28837 2.85741,-6.43296 0.40772,-2.24087 0.81521,-4.48192 1.2224,-6.72327 -0.69244,-0.97769 -1.38515,-1.9556 -2.07812,-2.93379 -1.70094,-0.73319 -3.40209,-1.46662 -5.10357,-2.20035 -0.0507,-1.18142 -0.1016,-2.36306 -0.1528,-3.545 0.40775,-0.93694 0.81521,-1.8741 1.22243,-2.81155 -2.77061,-1.99639 -5.54135,-3.99296 -8.31241,-5.98983 -2.19519,0.58659 -4.39053,1.17288 -6.58623,1.75894 -2.00131,0.88086 -4.00283,1.76143 -6.00466,2.64175 -1.77226,0.7541 -3.54469,1.50789 -5.31749,2.26147 -1.40554,-0.22385 -2.81128,-0.44795 -4.21733,-0.67233 -1.09992,-1.6704 -2.20009,-3.341 -3.30051,-5.0119 -0.93695,-1.42591 -1.8741,-2.85203 -2.81155,-4.27845 -1.14069,-0.0405 -2.28158,-0.0812 -3.42275,-0.12224 -1.46667,2.7e-4 -2.93354,2.7e-4 -4.40071,0 -0.0812,-1.42591 -0.16272,-2.85204 -0.24448,-4.27845 v -3.42276 c 0.36701,-0.5702 0.73372,-1.14065 1.10017,-1.71138 0.57073,-0.0812 1.1412,-0.16272 1.71138,-0.24448 z"
         sodipodi:nodetypes="ccccccccccccccccccccccccccccccccccccccccccccccccccccc" />
      <g
         id="path2038">
        <path
           style="color:#000000;fill:#09a13a;stroke-width:0.264054;-inkscape-stroke:none"
           d="m 379.77212,106.78367 c 0.72516,-0.54696 2.00966,-0.94181 3.16868,-0.69803 1.15902,0.24378 2.37315,1.07031 3.90585,2.45967 1.5327,1.38937 3.38389,3.34138 4.82814,4.79282 1.44425,1.45143 2.48147,2.40223 3.60519,3.07925 1.12372,0.67703 2.33384,1.0804 3.44609,1.13572 1.11224,0.0553 2.12668,-0.23724 3.21792,-0.81709 1.09123,-0.57986 2.25925,-1.44696 3.30793,-2.13626 1.04868,-0.6893 1.97787,-1.20072 2.97012,-1.69774 0.99226,-0.49702 2.04748,-0.97961 3.32976,-0.74899 1.28228,0.23063 2.79131,1.17423 4.49302,2.98049 1.70171,1.80627 3.59606,4.47492 5.54094,7.51472 1.94487,3.03979 3.9401,6.45042 5.39693,9.14801 1.45682,2.6976 2.37518,4.68198 2.61999,6.16577 0.24481,1.48378 -0.18376,2.46699 -0.13864,3.54937 0.0451,1.08237 0.56374,2.26367 1.53271,3.21864 0.96897,0.95496 2.38802,1.68369 3.99907,2.72521 1.61105,1.04151 3.41393,2.39565 4.42636,3.46019 1.01244,1.06454 1.23448,1.83925 1.38201,2.94606 0.14753,1.10681 0.22059,2.54564 -0.2828,4.72519 -0.50338,2.17955 -1.58309,5.0997 -2.47308,6.96914 -0.89,1.86943 -1.59021,2.68809 -2.60376,2.9678 -1.01354,0.27971 -2.34061,0.0204 -3.17626,-0.45488 -0.83565,-0.47529 -1.17965,-1.16678 -1.47104,-1.56515 -0.29139,-0.39837 -0.53033,-0.50343 -0.7994,-0.4605 -0.26907,0.0429 -0.56798,0.23401 -0.88138,0.62676 -0.3134,0.39275 -0.64113,0.98699 -1.17226,1.3957 -0.53114,0.40872 -1.33067,0.66442 -1.9537,0.7725 -0.62303,0.10807 -1.14178,-0.007 -1.14178,-0.007 0,0 0.94348,-1.25694 1.37565,-2.17884 0.43217,-0.92191 0.60504,-2.10319 0.89317,-2.92446 0.28814,-0.82126 0.69152,-1.28226 1.36874,-1.58482 0.67721,-0.30255 1.62801,-0.44661 2.34832,-0.12949 0.7203,0.31711 1.21011,1.09505 1.69982,1.16693 0.4897,0.0719 0.97952,-0.56199 1.52695,-1.44075 0.54743,-0.87876 1.15248,-2.00243 1.41183,-3.15485 0.25935,-1.15242 0.17291,-2.33371 -0.0143,-3.18367 -0.1872,-0.84996 -0.47532,-1.36857 -0.76339,-1.74318 -0.28807,-0.37461 -0.5762,-0.60511 -1.51264,-0.73487 -0.93643,-0.12977 -2.52108,-0.15856 -4.16342,-0.15857 -1.64234,0 -3.34226,0.0288 -4.12035,-0.14402 -0.7781,-0.17281 -0.63404,-0.54736 -0.31706,-0.96523 0.31698,-0.41786 0.80678,-0.87885 1.42641,-0.92198 0.61963,-0.0431 1.36875,0.33143 1.90162,0.36016 0.53288,0.0287 0.84982,-0.28821 0.7347,-0.69147 -0.11511,-0.40325 -0.66254,-0.89305 -2.7947,-2.54982 -2.13216,-1.65677 -5.84892,-4.48035 -7.89462,-6.06502 -2.0457,-1.58468 -2.42025,-1.93042 -1.38298,-2.11783 1.03727,-0.1874 3.48628,-0.2162 5.01321,-0.63396 1.52693,-0.41776 2.13198,-1.2245 2.23287,-2.46332 0.10089,-1.23882 -0.30248,-2.90992 -1.00834,-4.53785 -0.70585,-1.62792 -1.71427,-3.21258 -2.89558,-4.84052 -1.18132,-1.62794 -2.53548,-3.29903 -3.54388,-4.29314 -1.00841,-0.9941 -1.67109,-1.31103 -2.11786,-1.2102 -0.44678,0.10083 -0.67728,0.61945 -0.38903,1.58478 0.28825,0.96533 1.09498,2.37712 1.75767,3.58726 0.66268,1.21014 1.1813,2.21856 1.3973,3.03968 0.216,0.82111 0.12957,1.45498 -0.0865,1.85822 -0.21603,0.40324 -0.56177,0.57611 -1.23879,0.2449 -0.67702,-0.3312 -1.68543,-1.16675 -2.8812,-2.47772 -1.19577,-1.31096 -2.57875,-3.0973 -3.97612,-4.2355 -1.39738,-1.13819 -2.80917,-1.628 -4.27866,-1.84415 -1.46949,-0.21615 -2.99651,-0.15853 -4.22111,0.0287 -1.22459,0.18726 -2.14658,0.50419 -2.96766,0.48989 -0.82108,-0.0143 -1.54138,-0.36005 -2.17536,-1.15233 -0.63397,-0.79228 -1.18139,-2.03119 -2.00247,-2.99648 -0.82109,-0.96529 -1.91596,-1.65678 -2.57865,-2.04579 -0.66268,-0.389 -0.89318,-0.47543 -0.97977,0.47548 -0.0866,0.95091 -0.029,2.93893 -0.44678,4.63878 -0.41782,1.69985 -1.31099,3.11164 -1.91606,4.1201 -0.60508,1.00846 -0.922,1.61351 -1.31094,2.10327 -0.38893,0.48976 -0.84992,0.86431 -1.23876,1.03722 -0.38885,0.17291 -0.70579,0.1441 -0.72036,-0.30242 -0.0146,-0.44653 0.27355,-1.31088 0.73456,-2.4058 0.46101,-1.09492 1.09488,-2.42027 1.44065,-3.97609 0.34578,-1.55583 0.40341,-3.34217 0.35458,-4.96198 -0.0488,-1.61981 -0.20415,-3.07298 -0.52665,-4.23179 -0.3225,-1.15882 -0.81229,-2.02316 -1.53255,-2.59954 -0.72027,-0.57637 -1.67105,-0.86448 -2.4059,-0.85015 -0.73486,0.0143 -1.25345,0.33126 -1.65689,0.66265 -0.40344,0.33139 -0.69155,0.67713 -0.90766,1.02294 -0.21611,0.34581 -0.36017,0.69155 -0.91824,0.61953 -0.55807,-0.072 -1.53079,-0.56198 -2.50322,-1.05179 0.36059,-0.57499 0.7201,-1.14825 0.98822,-1.59035 0.26812,-0.4421 0.4236,-0.71596 0.86786,-1.42014 0.44426,-0.70419 1.11251,-1.73088 1.83768,-2.27783 z"
           id="path2796"
           sodipodi:nodetypes="sssssssssssssssssssssssssssscssssssssssssssssssssssssssssssssssssssssssssssssssssscssss" />
        <path
           style="color:#000000;fill:#c72682;fill-opacity:0;-inkscape-stroke:none"
           d="m 382.96875,105.95703 c -1.15579,-0.2431 -2.38071,0.12902 -3.15234,0.66406 l -0.0176,-0.0234 -0.10547,0.0801 c -0.75745,0.5713 -1.42586,1.60676 -1.87109,2.3125 -0.44509,0.70549 -0.60183,0.98305 -0.86915,1.42383 -0.26722,0.44063 -0.62573,1.0129 -0.98632,1.58789 l -0.0781,0.12305 0.13086,0.0644 c 0.97243,0.48981 1.93077,0.98522 2.54492,1.06446 0.30707,0.0396 0.5361,-0.0427 0.69336,-0.18555 0.15726,-0.1429 0.24896,-0.32682 0.35352,-0.49414 0.20912,-0.33463 0.4884,-0.66787 0.88086,-0.99024 0.39246,-0.32237 0.87609,-0.61922 1.57422,-0.63281 0.69814,-0.0136 1.62949,0.26595 2.32226,0.82031 0.69278,0.5544 1.16854,1.38936 1.48633,2.53125 0.31779,1.1419 0.47482,2.58742 0.52344,4.20118 0.0487,1.61376 -0.01,3.39172 -0.35157,4.92968 -0.3418,1.53796 -0.97057,2.85344 -1.43359,3.95313 -0.46302,1.09969 -0.76273,1.95214 -0.74609,2.46094 0.004,0.12717 0.0308,0.23589 0.084,0.32421 0.0532,0.0883 0.13658,0.15229 0.22852,0.18165 0.18386,0.0587 0.38467,0.007 0.59375,-0.0859 0.41812,-0.18593 0.88892,-0.5723 1.28906,-1.07617 0.40015,-0.50388 0.71676,-1.11127 1.32031,-2.11719 0.60355,-1.00592 1.50746,-2.43051 1.93164,-4.15625 0.42415,-1.72575 0.36461,-3.72911 0.44922,-4.6582 0.0212,-0.23228 0.0532,-0.39869 0.0899,-0.49805 0.0367,-0.0994 0.066,-0.11997 0.0937,-0.12891 0.0278,-0.009 0.0898,-0.006 0.19335,0.0371 0.10353,0.0427 0.23967,0.11821 0.4043,0.21485 0.65854,0.38657 1.7412,1.0727 2.54492,2.01757 0.80372,0.94489 1.34725,2.17839 2,2.99414 0.65276,0.81574 1.42057,1.18625 2.27735,1.20118 0.85676,0.0149 1.7759,-0.30485 2.98828,-0.49024 1.21239,-0.18536 2.73047,-0.24304 4.18359,-0.0293 1.45313,0.21374 2.8349,0.694 4.21289,1.8164 1.378,1.12242 2.76104,2.90307 3.96289,4.2207 1.20186,1.31764 2.21066,2.16084 2.91993,2.50782 0.35462,0.17348 0.64371,0.22566 0.88476,0.16211 0.24106,-0.0636 0.41115,-0.24235 0.5293,-0.46289 0.23635,-0.44109 0.32011,-1.10747 0.0976,-1.95313 -0.22246,-0.84568 -0.74462,-1.85852 -1.4082,-3.07031 -0.66359,-1.21179 -1.46902,-2.62807 -1.74805,-3.5625 -0.13951,-0.46721 -0.14675,-0.81465 -0.0801,-1.04102 0.0667,-0.22637 0.19036,-0.33616 0.37109,-0.37695 0.18073,-0.0408 0.42506,-4e-5 0.75586,0.18164 0.3308,0.18168 0.74133,0.50232 1.24023,0.99414 0.99781,0.98366 2.35288,2.65346 3.53125,4.27734 1.17837,1.62389 2.18083,3.19996 2.88086,4.81446 0.70005,1.61451 1.09585,3.27374 0.99805,4.47461 -0.0489,0.60043 -0.21756,1.08088 -0.55078,1.46484 -0.33322,0.38396 -0.83906,0.67847 -1.58594,0.88281 -0.74688,0.20435 -1.73737,0.31579 -2.66797,0.39844 -0.9306,0.0827 -1.79862,0.1357 -2.33398,0.23242 -0.26768,0.0484 -0.45827,0.0953 -0.58203,0.22656 -0.0619,0.0656 -0.0936,0.16294 -0.082,0.25391 0.0115,0.091 0.0531,0.17468 0.11523,0.26172 0.24838,0.34816 0.85156,0.81658 1.875,1.60937 2.04688,1.58559 5.76368,4.41066 7.89453,6.06641 1.06543,0.82788 1.73296,1.36396 2.14453,1.73828 0.41157,0.37432 0.55725,0.58012 0.60352,0.74219 0.0463,0.1621 0.0104,0.28269 -0.0879,0.37695 -0.0983,0.0943 -0.27274,0.15936 -0.51172,0.14649 -0.23896,-0.0129 -0.55644,-0.10855 -0.89063,-0.20117 -0.33419,-0.0926 -0.68744,-0.18185 -1.02734,-0.15821 -0.67983,0.0473 -1.19514,0.54183 -1.52344,0.97461 -0.16415,0.2164 -0.30829,0.43024 -0.27734,0.66992 0.0155,0.11984 0.0859,0.2343 0.19922,0.31641 0.11326,0.0821 0.26743,0.14192 0.47265,0.1875 0.82086,0.18232 2.50765,0.14648 4.14844,0.14648 1.6408,1e-5 3.22553,0.0289 4.14453,0.15625 0.45952,0.0637 0.74981,0.15168 0.95508,0.26172 0.20527,0.11005 0.33361,0.24302 0.47266,0.42383 0.2781,0.36166 0.55477,0.85822 0.73828,1.69141 0.18352,0.8332 0.2674,1.99756 0.0137,3.125 -0.25373,1.12744 -0.85072,2.24229 -1.39453,3.11523 -0.2719,0.43647 -0.52866,0.80891 -0.76758,1.05469 -0.23892,0.24578 -0.44549,0.35115 -0.62891,0.32422 -0.1834,-0.0269 -0.42033,-0.21648 -0.69336,-0.45899 -0.27302,-0.2425 -0.58421,-0.52711 -0.9707,-0.69726 -0.77302,-0.34033 -1.75205,-0.18605 -2.45703,0.1289 -0.70499,0.31497 -1.14368,0.8191 -1.43945,1.66211 -0.29576,0.84302 -0.46721,2.0172 -0.88672,2.91211 -0.20976,0.44746 -0.48571,0.83704 -0.72266,1.15821 -0.23694,0.32116 -0.43873,0.55492 -0.5,0.7832 -0.0306,0.11412 -0.007,0.24159 0.0703,0.32031 0.0769,0.0787 0.18062,0.10953 0.29297,0.12695 0.22472,0.0348 0.51404,0.006 0.83203,-0.0488 0.63598,-0.11033 1.38791,-0.3352 1.94727,-0.76563 0.55935,-0.43042 0.89247,-1.04089 1.19336,-1.41797 0.3009,-0.37708 0.5769,-0.54243 0.80078,-0.57812 0.11198,-0.0179 0.20149,-0.007 0.30664,0.0508 0.10516,0.0573 0.22643,0.16765 0.36524,0.35742 0.27764,0.37957 0.64177,1.10677 1.51171,1.60156 0.86993,0.49478 2.21515,0.75994 3.27735,0.4668 0.5311,-0.14657 0.986,-0.4394 1.41211,-0.92773 0.4261,-0.48833 0.82783,-1.16928 1.27539,-2.10938 0.89511,-1.8802 1.97554,-4.80141 2.48242,-6.99609 0.50689,-2.19469 0.43391,-3.65744 0.28516,-4.77344 -0.14876,-1.11601 -0.39013,-1.9388 -1.41797,-3.01953 -1.02784,-1.08074 -2.83207,-2.43502 -4.44922,-3.48047 -1.61715,-1.04547 -3.03153,-1.77374 -3.97852,-2.70703 -0.94697,-0.93329 -1.45062,-2.08657 -1.49414,-3.13086 -0.0435,-1.0443 0.38709,-2.04701 0.13672,-3.56445 -0.25036,-1.51746 -1.17415,-3.50603 -2.63281,-6.20704 -1.45867,-2.70099 -3.45541,-6.11518 -5.40234,-9.1582 -1.94695,-3.04303 -3.84396,-5.71529 -5.55665,-7.5332 -1.71268,-1.81791 -3.24013,-2.78099 -4.5664,-3.01953 -1.32628,-0.23854 -2.41694,0.26128 -3.41211,0.75976 -0.99517,0.49848 -1.92888,1.01454 -2.98242,1.70703 -1.05355,0.6925 -2.21934,1.55632 -3.29688,2.12891 -1.07754,0.57257 -2.06519,0.85669 -3.15039,0.80274 -1.08519,-0.054 -2.27708,-0.44982 -3.38476,-1.11719 -1.10768,-0.66736 -2.13779,-1.61109 -3.58008,-3.06055 -1.44229,-1.44947 -3.29294,-3.40171 -4.83203,-4.79687 -1.5391,-1.39517 -2.76713,-2.23791 -3.9668,-2.49024 z m -0.0547,0.25781 c 1.11837,0.23523 2.31745,1.04418 3.84375,2.42774 1.5263,1.38357 3.37801,3.33565 4.82422,4.78906 1.44621,1.4534 2.48915,2.41293 3.62891,3.09961 1.13975,0.68669 2.3685,1.09763 3.50781,1.1543 1.13928,0.0566 2.18218,-0.24491 3.28711,-0.83203 1.10492,-0.58714 2.27455,-1.45648 3.31836,-2.14258 1.04381,-0.6861 1.9677,-1.19585 2.95703,-1.69141 0.98934,-0.49556 2.00977,-0.95903 3.24805,-0.73633 1.23829,0.22272 2.72919,1.1468 4.41992,2.94141 1.69073,1.79462 3.58258,4.45758 5.52539,7.49414 1.9428,3.03655 3.93759,6.44645 5.39258,9.14062 1.45498,2.6942 2.36621,4.67489 2.60547,6.125 0.23925,1.45012 -0.18734,2.41274 -0.14063,3.53321 0.0467,1.12044 0.5813,2.32999 1.57227,3.30664 0.99095,0.97662 2.41458,1.70461 4.01953,2.74219 1.60494,1.03756 3.40532,2.39111 4.40234,3.43945 0.99704,1.04835 1.20135,1.77544 1.34766,2.87305 0.1463,1.09761 0.21864,2.51333 -0.28125,4.67773 -0.49988,2.16441 -1.57803,5.08468 -2.46289,6.94336 -0.44244,0.92933 -0.83644,1.59054 -1.23633,2.04883 -0.39989,0.45828 -0.80075,0.71451 -1.2832,0.84765 -0.96488,0.26629 -2.2748,0.0124 -3.07618,-0.44336 -0.80134,-0.45578 -1.12454,-1.11017 -1.42968,-1.52734 -0.15259,-0.2086 -0.29675,-0.34948 -0.45118,-0.43359 -0.15442,-0.0841 -0.31947,-0.10514 -0.47656,-0.0801 -0.31426,0.0501 -0.63698,0.26736 -0.96289,0.67578 -0.32591,0.40842 -0.64747,0.98605 -1.15039,1.37305 -0.50292,0.387 -1.22,0.60901 -1.83008,0.71484 -0.30503,0.0529 -0.58377,0.0743 -0.74804,0.0488 -0.0821,-0.0127 -0.12943,-0.0393 -0.14258,-0.0527 -0.0131,-0.0135 -0.0182,-0.013 -0.004,-0.0664 0.0286,-0.10667 0.21771,-0.37093 0.45703,-0.69531 0.23933,-0.32439 0.52564,-0.72673 0.74805,-1.20118 0.44482,-0.9489 0.61794,-2.13798 0.89844,-2.9375 0.2805,-0.7995 0.64938,-1.21766 1.29883,-1.50781 0.64944,-0.29014 1.57263,-0.42282 2.24023,-0.1289 0.33381,0.14696 0.62796,0.40863 0.90234,0.65234 0.27439,0.24371 0.52573,0.47848 0.83203,0.52344 0.30629,0.045 0.5902,-0.12947 0.85547,-0.40235 0.26527,-0.27288 0.52721,-0.65732 0.80274,-1.09961 0.55105,-0.88457 1.16276,-2.01791 1.42773,-3.19531 0.26497,-1.1774 0.17723,-2.37352 -0.0137,-3.24023 -0.19089,-0.86674 -0.48908,-1.40736 -0.78711,-1.79493 -0.14902,-0.19379 -0.31172,-0.36479 -0.55664,-0.49609 -0.24492,-0.1313 -0.56604,-0.22298 -1.04297,-0.28906 -0.95386,-0.13219 -2.53776,-0.16015 -4.18164,-0.16016 -1.64388,0 -3.35647,0.0227 -4.0918,-0.14062 -0.18382,-0.0408 -0.30438,-0.0948 -0.37304,-0.14453 -0.0687,-0.0498 -0.0876,-0.0871 -0.0937,-0.13477 -0.0123,-0.0953 0.0737,-0.27704 0.22656,-0.47852 0.30566,-0.40293 0.77065,-0.8302 1.33008,-0.86914 0.27973,-0.0195 0.61096,0.0574 0.93945,0.14844 0.32849,0.091 0.6514,0.19509 0.94531,0.21094 0.29391,0.0158 0.54438,-0.0629 0.70899,-0.2207 0.1646,-0.15784 0.229,-0.39751 0.16015,-0.63868 -0.0688,-0.24117 -0.25572,-0.47964 -0.67968,-0.86523 -0.42396,-0.38559 -1.09343,-0.92306 -2.16016,-1.75195 -2.13347,-1.65779 -5.85001,-4.48266 -7.89453,-6.06641 -1.02226,-0.79188 -1.63126,-1.28695 -1.82227,-1.55469 -0.0478,-0.0669 -0.0654,-0.11707 -0.0684,-0.14062 -0.003,-0.0236 -0.003,-0.0211 0.0137,-0.0391 0.0338,-0.0359 0.18458,-0.1031 0.43554,-0.14844 0.50191,-0.0907 1.3756,-0.14548 2.31055,-0.22852 0.93495,-0.083 1.93479,-0.19478 2.71484,-0.4082 0.78005,-0.21342 1.33859,-0.53129 1.71485,-0.96484 0.37626,-0.43356 0.56129,-0.97686 0.61328,-1.61524 0.10398,-1.27677 -0.3059,-2.96022 -1.01758,-4.60156 -0.71167,-1.64134 -1.7259,-3.23324 -2.91016,-4.86524 -1.18426,-1.63199 -2.53959,-3.30404 -3.55859,-4.30859 -0.50951,-0.50228 -0.9345,-0.83701 -1.29883,-1.03711 -0.36433,-0.2001 -0.67341,-0.26902 -0.93945,-0.20898 -0.26605,0.06 -0.48015,0.26106 -0.56836,0.56054 -0.0882,0.29948 -0.0667,0.69329 0.082,1.19141 0.29748,0.99623 1.10579,2.40479 1.76758,3.61328 0.66178,1.20849 1.17523,2.21321 1.38476,3.00977 0.20955,0.79656 0.12157,1.39633 -0.0742,1.76172 -0.0979,0.18269 -0.20821,0.29114 -0.36329,0.33203 -0.15507,0.0409 -0.37877,0.0151 -0.70117,-0.14258 -0.64477,-0.31542 -1.65211,-1.14492 -2.84179,-2.44922 -1.18969,-1.30429 -2.5735,-3.09407 -3.99024,-4.24805 -1.41676,-1.15397 -2.85789,-1.65449 -4.34375,-1.87304 -1.48586,-0.21856 -3.02296,-0.1598 -4.25976,0.0293 -1.23681,0.18913 -2.15992,0.50196 -2.94532,0.48828 -0.78537,-0.0137 -1.45901,-0.33469 -2.07422,-1.10351 -0.61518,-0.7688 -1.16742,-2.01235 -2.00585,-2.99805 -0.83846,-0.98571 -1.94449,-1.68277 -2.61133,-2.07422 -0.16671,-0.0979 -0.30872,-0.17926 -0.4375,-0.23242 -0.12878,-0.0532 -0.25346,-0.0846 -0.37696,-0.0449 -0.12349,0.0397 -0.20817,0.15129 -0.25976,0.29102 -0.0516,0.13972 -0.0814,0.31932 -0.10352,0.5625 -0.0886,0.97272 -0.0339,2.94519 -0.44531,4.61914 -0.41145,1.67395 -1.2938,3.07298 -1.90039,4.08398 -0.6066,1.011 -0.92305,1.6142 -1.30078,2.08984 -0.37772,0.47565 -0.82989,0.83816 -1.18945,0.99805 -0.17977,0.0799 -0.3308,0.10027 -0.40625,0.0762 -0.0377,-0.0121 -0.0615,-0.0292 -0.084,-0.0664 -0.0224,-0.0373 -0.0418,-0.0992 -0.0449,-0.19532 -0.0126,-0.38426 0.26561,-1.25946 0.72461,-2.34961 0.459,-1.09014 1.09948,-2.42632 1.44922,-4 0.34975,-1.57368 0.40643,-3.36828 0.35742,-4.99414 -0.049,-1.62586 -0.20404,-3.08794 -0.53125,-4.26367 -0.32721,-1.17574 -0.83039,-2.06765 -1.57813,-2.66601 -0.74776,-0.59838 -1.71867,-0.89396 -2.49023,-0.87891 -0.77159,0.015 -1.32387,0.351 -1.73828,0.69141 -0.41442,0.34041 -0.71245,0.69769 -0.93555,1.05468 -0.11155,0.1785 -0.20028,0.34103 -0.30859,0.43946 -0.10832,0.0984 -0.23142,0.15153 -0.48242,0.11914 -0.47484,-0.0613 -1.4063,-0.52083 -2.32618,-0.98242 0.32985,-0.52607 0.66159,-1.05235 0.90821,-1.45899 0.26892,-0.44342 0.42375,-0.7151 0.86718,-1.41797 0.44329,-0.70263 1.11181,-1.72154 1.80469,-2.24414 0.68971,-0.52022 1.95081,-0.90765 3.0625,-0.67383 z"
           id="path2793" />
      </g>
      <path
         style="fill:#7af9a3;fill-opacity:1;stroke:#c72682;stroke-width:0.264054;stroke-opacity:0"
         d="m 420.44941,150.45898 c 0.18319,0.83533 -0.0613,2.13923 0.28524,3.11717 0.34653,0.97794 1.28369,1.62988 2.15973,1.91499 0.87604,0.28511 1.69095,0.20362 2.83191,0.16288 1.14095,-0.0407 2.60782,-0.0407 3.78951,0.24461 1.18169,0.28533 2.07812,0.85578 2.26141,1.22238 0.18329,0.3666 -0.34643,0.52959 -1.24282,0.57037 -0.89639,0.0408 -2.15951,-0.0407 -3.17821,-0.0815 -1.01869,-0.0408 -1.79289,-0.0408 -2.8116,0.0611 -1.01871,0.10185 -2.28186,0.30559 -3.48401,0.99832 -1.20216,0.69273 -2.34306,1.87438 -3.42277,2.58743 -1.0797,0.71305 -2.09837,0.95753 -2.60781,0.48909 -0.50943,-0.46845 -0.50943,-1.6501 -0.20382,-2.54668 0.30561,-0.89657 0.9168,-1.50776 1.42612,-2.58749 0.50932,-1.07972 0.91679,-2.62808 1.36501,-3.99315 0.44822,-1.36506 0.93716,-2.5467 1.48744,-2.95414 0.55028,-0.40744 1.16148,-0.0407 1.34467,0.7946 z"
         id="path2798"
         inkscape:path-effect="#path-effect2800"
         inkscape:original-d="m 420.87712,149.99019 c -0.24424,1.30417 -0.48871,2.60808 -0.73345,3.91172 0.93747,0.65224 1.87463,1.30417 2.81154,1.95586 0.81524,-0.0812 1.63015,-0.16272 2.44483,-0.24448 1.4672,2.7e-4 2.93407,2.7e-4 4.40068,0 0.89673,0.57074 1.79316,1.14119 2.68933,1.71138 -0.52945,0.16326 -1.05918,0.32624 -1.58914,0.48897 -1.26293,-0.0812 -2.52605,-0.16273 -3.78949,-0.24449 -0.77393,2.7e-4 -1.54813,2.7e-4 -2.32259,0 -1.26291,0.20401 -2.52606,0.40774 -3.78947,0.61121 -1.14067,1.18196 -2.28158,2.3636 -3.42276,3.545 -1.01843,0.24475 -2.0371,0.48923 -3.05604,0.73345 2.6e-4,-1.18142 2.6e-4,-2.36307 0,-3.545 0.61148,-0.61096 1.22267,-1.22215 1.83362,-1.83362 0.40774,-1.54816 0.8152,-3.09652 1.22242,-4.64517 0.48924,-1.18143 0.97819,-2.36307 1.46688,-3.54501 0.6115,0.367 1.22269,0.73372 1.83364,1.10018 z" />
      <path
         style="fill:#7af9a3;fill-opacity:1;stroke:#c72682;stroke-width:0.264054;stroke-opacity:0"
         d="m 382.39144,116.8222 c -0.14258,0.85581 -0.0203,1.91523 0,2.73014 0.0203,0.81491 -0.0611,1.38537 -0.40746,1.8742 -0.34631,0.48884 -0.9575,0.8963 -1.56875,1.44643 -0.61125,0.55012 -1.22245,1.24281 -1.54842,2.15975 -0.32597,0.91694 -0.36671,2.05784 -0.20363,2.93393 0.16309,0.87609 0.5298,1.48729 1.18176,1.62972 0.65195,0.14243 1.5891,-0.18354 2.38358,-0.95767 0.79447,-0.77413 1.44642,-1.99652 1.95576,-3.25965 0.50935,-1.26313 0.87606,-2.56702 1.05944,-3.85053 0.18339,-1.2835 0.18339,-2.54663 -0.16286,-3.68754 -0.34626,-1.14091 -1.03895,-2.15957 -1.58917,-2.34305 -0.55022,-0.18347 -0.95767,0.46847 -1.10025,1.32427 z"
         id="path5992"
         inkscape:path-effect="#path-effect5994"
         inkscape:original-d="m 382.12659,116.61829 c 0.1225,1.05969 0.24474,2.11911 0.36671,3.17827 -0.0812,0.57074 -0.16272,1.14119 -0.24447,1.71138 -0.61095,0.40775 -1.22214,0.81521 -1.83362,1.22242 -0.61095,0.69298 -1.22216,1.38566 -1.83361,2.0781 -0.0405,1.14121 -0.0812,2.28211 -0.12224,3.42276 0.36698,0.61148 0.73369,1.22268 1.10016,1.83362 0.93748,-0.32572 1.87463,-0.65169 2.81155,-0.97793 0.65225,-1.22217 1.30418,-2.44456 1.95588,-3.66724 0.36697,-1.30367 0.73371,-2.60755 1.10016,-3.91173 2.6e-4,-1.26292 2.6e-4,-2.52605 0,-3.78948 -0.69244,-1.01843 -1.38515,-2.03709 -2.07812,-3.05604 -0.40719,0.65224 -0.81465,1.30418 -1.2224,1.95587 z" />
      <rect
         style="fill:#078530;fill-opacity:1;stroke:#c72682;stroke-width:0.288638;stroke-opacity:0"
         id="rect6052"
         width="7.8819747"
         height="12.724183"
         x="362.94754"
         y="114.72576"
         ry="1.1999999"
         rx="0.99999988"
         transform="matrix(0.9999909,-0.00426531,0.00445902,0.99999006,0,0)" />
      <rect
         style="fill:#07ac3b;fill-opacity:1;stroke:#c72682;stroke-width:0.120105;stroke-opacity:0"
         id="rect6052-0"
         width="1.3469386"
         height="12.89228"
         x="368.61295"
         y="132.8607"
         ry="0.5"
         rx="0.98955429"
         transform="matrix(0.99856288,-0.05359262,0.02907375,0.99957727,0,0)" />
      <rect
         style="fill:#055a20;fill-opacity:1;stroke:#c72682;stroke-width:0.150808;stroke-opacity:0"
         id="rect7937"
         width="7.660841"
         height="0.90347087"
         x="363.681"
         y="114.19144" />
      <rect
         style="fill:#055a20;fill-opacity:1;stroke:#c72682;stroke-width:0.150882;stroke-opacity:0"
         id="rect7937-3"
         width="7.669035"
         height="0.90339649"
         x="363.68204"
         y="115.76389" />
      <rect
         style="fill:#055a20;fill-opacity:1;stroke:#c72682;stroke-width:0.150652;stroke-opacity:0"
         id="rect7937-3-7"
         width="7.6436353"
         height="0.90362728"
         x="363.71509"
         y="117.17126"
         inkscape:transform-center-x="-0.73178778"
         inkscape:transform-center-y="0.076408375" />
      <rect
         style="fill:#055a20;fill-opacity:1;stroke:#c72682;stroke-width:0.15105;stroke-opacity:0"
         id="rect7937-3-7-2"
         width="7.6874709"
         height="0.90322918"
         x="363.67316"
         y="118.5899"
         inkscape:transform-center-x="-0.73599908"
         inkscape:transform-center-y="0.076374026" />
      <rect
         style="fill:#055a20;fill-opacity:1;stroke:#c72682;stroke-width:0.150492;stroke-opacity:0"
         id="rect7937-3-7-2-3"
         width="7.6260781"
         height="0.90378708"
         x="363.74585"
         y="120.02068"
         inkscape:transform-center-x="-0.73012571"
         inkscape:transform-center-y="0.076425496" />
      <rect
         style="fill:#055a20;fill-opacity:1;stroke:#c72682;stroke-width:0.150729;stroke-opacity:0"
         id="rect7937-3-7-2-3-6"
         width="7.6521502"
         height="0.90354985"
         x="363.72433"
         y="121.46864"
         inkscape:transform-center-x="-0.73262526"
         inkscape:transform-center-y="0.07641652" />
      <rect
         style="fill:#055a20;fill-opacity:1;stroke:#c72682;stroke-width:0.150188;stroke-opacity:0"
         id="rect7937-3-7-2-3-6-5"
         width="7.5926614"
         height="0.90409184"
         x="363.78888"
         y="122.98101"
         inkscape:transform-center-x="-0.72689562"
         inkscape:transform-center-y="0.076443429" />
      <g
         id="rect7937-3-7-2-3-6-5-7"
         inkscape:transform-center-x="-0.73344836"
         inkscape:transform-center-y="0.076400871">
        <path
           style="color:#000000;fill:#055a20;stroke-width:0.150808;-inkscape-stroke:none"
           d="m 363.76761,124.32111 7.61743,-0.006 0.006,0.44217 c 8.9e-4,0.0634 -0.013,0.25025 -0.0561,0.3466 -0.0478,0.10689 -0.0634,0.13089 -0.0634,0.13089 l -7.50405,-0.01 z"
           id="path9549"
           sodipodi:nodetypes="ccssccc" />
        <path
           style="color:#000000;fill:#c72682;fill-opacity:0;-inkscape-stroke:none"
           d="m 363.69141,124.24609 v 0.0742 0.98047 h 7.8125 v -1.05469 z m 0.15234,0.15039 h 7.50977 v 0.75196 h -7.50977 z"
           id="path9546" />
      </g>
      <g
         id="rect6052-0-2"
         transform="matrix(0.98239472,-0.18681705,0.00806546,0.99996747,0,0)">
        <path
           style="color:#000000;fill:#7af9a3;stroke-width:0.0609759;-inkscape-stroke:none"
           d="m 369.09077,182.31822 c 0.10116,0 0.1826,0.22294 0.1826,0.49987 v 11.25598 c 0,0.27692 -0.0814,0.49986 -0.1826,0.49986 -0.10116,0 -0.43108,-0.26936 -0.43108,-0.54628 0,-2.15614 -0.0614,-4.3538 -0.0614,-6.47912 0,-1.62667 0.0611,-3.14783 0.0611,-4.74635 0,-0.27693 0.33013,-0.48396 0.43133,-0.48396 z"
           id="path7883"
           sodipodi:nodetypes="ssssssss" />
        <path
           style="color:#000000;fill:#c72682;fill-opacity:0;-inkscape-stroke:none"
           d="m 369.08984,182.28711 c -0.0365,0 -0.0683,0.0214 -0.0937,0.0508 -0.0255,0.0294 -0.0451,0.0677 -0.0625,0.11523 -0.0347,0.0951 -0.0566,0.22379 -0.0566,0.36524 v 11.25586 c 0,0.14145 0.0219,0.26822 0.0566,0.36328 0.0174,0.0475 0.037,0.0878 0.0625,0.11719 0.0255,0.0294 0.0573,0.0488 0.0937,0.0488 0.0365,0 0.0702,-0.0194 0.0957,-0.0488 0.0255,-0.0294 0.0451,-0.0697 0.0625,-0.11719 0.0347,-0.0951 0.0566,-0.22183 0.0566,-0.36328 v -11.25586 c 0,-0.14145 -0.0219,-0.27017 -0.0566,-0.36524 -0.0174,-0.0475 -0.037,-0.0858 -0.0625,-0.11523 -0.0255,-0.0294 -0.0592,-0.0508 -0.0957,-0.0508 z m 0,0.0625 c 0.0141,0 0.0306,0.006 0.0488,0.0273 0.0183,0.0211 0.0371,0.0548 0.0527,0.0977 0.0313,0.0856 0.0508,0.20828 0.0508,0.34375 v 11.25586 c 0,0.13547 -0.0195,0.25811 -0.0508,0.34375 -0.0156,0.0428 -0.0345,0.0766 -0.0527,0.0977 -0.0182,0.0211 -0.0347,0.0273 -0.0488,0.0273 -0.0141,0 -0.0286,-0.006 -0.0469,-0.0273 -0.0183,-0.0211 -0.0371,-0.0548 -0.0527,-0.0977 -0.0313,-0.0856 -0.0508,-0.20828 -0.0508,-0.34375 v -11.25586 c 0,-0.13547 0.0195,-0.25812 0.0508,-0.34375 0.0156,-0.0428 0.0345,-0.0766 0.0527,-0.0977 0.0182,-0.0211 0.0328,-0.0273 0.0469,-0.0273 z"
           id="path7880" />
      </g>
    </g>
  </g>
</svg>
