<?xml version="1.0" encoding="UTF-8" standalone="no"?>
<!-- Created with Inkscape (http://www.inkscape.org/) -->

<svg
   width="790"
   height="870"
   viewBox="0 0 209.02083 230.1875"
   version="1.1"
   id="svg5"
   xml:space="preserve"
   inkscape:version="1.2.2 (732a01da63, 2022-12-09)"
   sodipodi:docname="planetka_červená_v5.svg"
   xmlns:inkscape="http://www.inkscape.org/namespaces/inkscape"
   xmlns:sodipodi="http://sodipodi.sourceforge.net/DTD/sodipodi-0.dtd"
   xmlns="http://www.w3.org/2000/svg"
   xmlns:svg="http://www.w3.org/2000/svg"><sodipodi:namedview
     id="namedview7"
     pagecolor="#ffffff"
     bordercolor="#000000"
     borderopacity="0.25"
     inkscape:showpageshadow="2"
     inkscape:pageopacity="0.0"
     inkscape:pagecheckerboard="0"
     inkscape:deskcolor="#d1d1d1"
     inkscape:document-units="mm"
     showgrid="false"
     inkscape:zoom="0.45254834"
     inkscape:cx="99.436891"
     inkscape:cy="473.98251"
     inkscape:window-width="1920"
     inkscape:window-height="991"
     inkscape:window-x="2391"
     inkscape:window-y="594"
     inkscape:window-maximized="1"
     inkscape:current-layer="g85545" /><defs
     id="defs2"><clipPath
       clipPathUnits="userSpaceOnUse"
       id="clipPath4659"><path
         id="path4661"
         style="fill:#ff0000;fill-opacity:1;fill-rule:nonzero;stroke:none;stroke-width:0.264583"
         d="m 729.6671,67.870276 c -0.0476,0.389634 -0.1007,0.778532 -0.14314,1.168922 0.0544,0.06527 0.10959,0.129865 0.1638,0.195336 0.0659,-0.420854 0.0903,-0.895712 0.11938,-1.364258 z m -157.02608,6.762896 c -1.94361,0.146053 -3.96487,0.06657 -5.88958,0.46147 v 1.761133 c 1.46942,0.902335 2.81313,2.697922 3.56569,5.49837 0.0564,0.209957 0.12827,0.414647 0.19481,0.621152 3.6685,-0.561743 7.776,-1.044771 3.63855,-4.250386 -0.57457,-0.44517 -1.24587,-0.729877 -1.96424,-0.834057 -0.14285,-0.02072 -0.23085,-0.02885 -0.29559,-0.03256 -0.0236,0.01521 -0.057,0.0185 -0.0832,0.01654 -0.0763,0.108357 -0.0583,0.07543 -0.003,0 -0.0401,-0.0033 -0.0548,-0.0177 0.0151,-0.01913 0.0381,-0.05441 0.0737,-0.105373 0.16952,-0.247528 0.90125,-1.337199 1.87534,-2.310641 2.85149,-2.968813 -0.73255,-7.94e-4 -1.46526,-0.0054 -2.19779,-0.0062 z m -0.75036,3.225125 c 0.0145,-0.0094 0.0257,-0.02278 0.0279,-0.04289 0.0675,-0.04467 0.13843,-0.07767 0.19172,-0.137978 0.0143,-0.01609 0.0651,-0.05427 0.0455,-0.04547 -0.0814,0.0365 -0.15298,0.09185 -0.22995,0.136943 -0.003,-0.03754 -0.0555,0.02347 -0.10438,0.08682 0.0164,-2.62e-4 0.0421,0.0011 0.0692,0.0026 z m 8.99895,-3.201871 c 0.29718,0.289653 0.55036,0.632672 0.75396,1.019575 0.0833,-0.0099 0.16761,-0.01704 0.25321,-0.02016 0.15282,0.0072 0.182,0.008 0.2377,0.01035 -0.11973,-0.004 -0.25416,-0.0057 -0.0801,0.01447 4.33096,0.500785 2.5491,2.040599 -0.018,3.786333 -0.0512,0.245333 -0.11782,0.496404 -0.19638,0.751891 3.74801,-1.371606 8.55057,-3.731091 6.227,1.444357 -0.10417,0.232024 -0.20847,0.464056 -0.31263,0.696082 -0.57153,0.908548 -0.66392,1.194808 -1.55806,1.937348 -1.04232,0.865643 -2.32224,1.269709 -3.64368,1.422654 -0.27863,0.008 -0.55742,0.02577 -0.83614,0.02376 -0.70945,-0.005 -1.41623,-0.134467 -2.10788,-0.279054 -0.33657,-0.07036 -0.63468,-0.146105 -0.89815,-0.226859 -0.0416,0.03969 -0.0799,0.08284 -0.12298,0.120923 -1.0682,0.944036 -2.32823,1.626536 -3.67366,2.086178 -0.30734,0.0878 -0.611,0.189479 -0.92191,0.263549 -0.42196,0.100508 -0.89541,0.180269 -1.35756,0.224277 0.65752,1.406123 1.3067,2.816109 1.90014,4.250902 0.68982,1.605166 1.03227,3.251967 1.26092,4.973857 0.22717,2.336218 0.21556,4.689621 0.24286,7.034701 0.003,1.67258 0.0466,3.34389 0.14161,5.01366 -0.003,0.57373 0.16343,1.11725 0.29043,1.67277 0.12994,0.63918 0.37407,1.2347 0.63304,1.82933 0.0494,0.11342 0.0901,0.22359 0.13539,0.33539 0.25794,0.16547 0.51821,0.34451 0.78081,0.53949 0.78433,0.58234 1.54197,1.19951 2.32545,1.78285 0.42236,0.29459 0.84648,0.59273 1.30379,0.83198 0.21476,0.11236 0.44101,0.20158 0.66146,0.30231 0.70043,0.28698 1.38866,0.60832 2.1141,0.8289 0.2404,0.0629 0.48966,0.0858 0.73636,0.10954 4.56033,0.43869 6.80381,2.81192 6.93862,5.14853 3.79968,0.89195 7.55414,1.96029 11.11612,3.59669 3.2466,1.35372 6.42207,2.87897 9.7286,4.08552 0.0757,0.023 0.15301,0.0438 0.22892,0.0661 -4.10462,-2.33802 -2.99781,-8.28346 4.4483,-9.17877 0.0781,-0.009 0.15611,-0.0189 0.23411,-0.0279 0.16785,-0.0239 0.25064,-0.0331 0.4165,-0.0667 0.0945,-0.0191 0.42289,-0.14244 0.49869,-0.0837 0.0894,-0.0473 0.18484,-0.0835 0.27078,-0.13694 0.4913,-0.30565 0.86463,-0.77279 1.30741,-1.13792 0.81071,-0.76944 1.53069,-1.6201 2.24017,-2.48253 0.70165,-0.84332 1.38943,-1.69803 2.10013,-2.5337 0.50512,-0.63028 0.94861,-1.30609 1.30069,-2.03451 0.56126,-1.06836 1.12734,-2.13471 1.72136,-3.18534 0.75657,-1.30544 1.52968,-2.60378 2.4076,-3.83232 0.5135,-0.76141 1.03489,-1.51875 1.4986,-2.312 0.12525,-0.26546 0.26125,-0.50052 0.26924,-0.80771 0.0427,-0.3161 0.0276,-0.63511 0.0265,-0.95342 -0.003,-0.49648 -0.008,-0.99292 -0.0151,-1.48931 -0.0135,-0.8249 -0.0251,-1.651032 -0.0987,-2.473238 -0.10274,-0.989717 -0.25937,-1.97381 -0.47956,-2.944522 -0.25498,-1.080976 -0.57785,-2.147168 -1.00922,-3.171901 -2.29984,-5.463107 0.0708,-9.004906 3.18481,-9.053711 1.15523,-0.0181 2.4125,0.445722 3.57188,1.469162 0.3629,-1.066392 0.80377,-1.815468 1.4211,-1.827795 0.53956,-0.01077 1.21359,0.539907 2.08619,1.925982 0.58018,0.92157 0.92601,1.939144 1.17874,2.991546 0.16701,0.682863 0.3215,1.368652 0.45268,2.059307 0.0127,0.0634 0.0236,0.12709 0.0346,0.190686 0.6858,-3.053453 1.48973,-6.081263 2.50891,-9.039757 -3.16529,0.07557 -6.30161,-0.240337 -9.41909,-0.777732 -2.82893,-0.50786 -5.55839,-1.431031 -8.34004,-2.124419 -1.07447,2.69503 -4.85592,4.373433 -9.48005,1.666565 -0.34192,-0.200147 -0.67923,-0.406077 -1.01028,-0.623734 -0.0909,-0.05923 -0.18267,-0.117554 -0.2744,-0.175699 -0.64016,1.699271 -2.80911,1.578396 -3.33208,-0.815454 -0.10719,-0.155114 -0.19323,-0.314724 -0.2372,-0.45217 -0.0685,-0.213945 -0.0765,-0.44319 -0.11472,-0.664559 0.074,-0.104958 0.14364,-0.213874 0.21134,-0.324528 -0.32935,-0.204954 -0.64902,-0.42532 -0.95289,-0.666625 -2.56342,-0.161409 -5.13194,-0.250214 -7.6993,-0.325562 -5.36503,-0.13411 -10.73234,-0.193024 -16.09873,-0.237194 -2.37069,-0.01582 -4.74144,-0.01423 -7.11224,-0.02016 z m 58.44501,35.339964 c -0.005,0.008 -0.01,0.0156 -0.0151,0.0233 0.005,-0.002 0.01,-0.004 0.0151,-0.006 z m -16.68013,20.25199 c -1.02537,0.40261 -2.10542,0.65296 -3.1941,0.83561 -0.17897,0.0241 -0.35796,0.0479 -0.53692,0.0724 -0.92107,0.12398 -1.76755,0.14837 -2.53783,0.0899 1.38123,0.38868 2.75611,0.79906 4.07984,1.32447 0.44972,0.17849 0.91059,0.34047 1.36737,0.51005 0.25318,-0.9793 0.53131,-1.9164 0.82164,-2.83239 z m 43.22683,2.51974 c -1.57784,0.0881 0.53181,0.10888 0.50538,0.16227 -0.0498,0.10041 -1.58501,0.46406 0.3602,0.001 0.0188,-0.005 0.0371,-0.011 0.0558,-0.016 -0.30781,-0.0468 -0.61753,-0.0865 -0.92138,-0.14728 z m 63.97024,64.22967 c -0.61552,0.32396 -1.23237,0.64667 -1.84949,0.9679 0.86419,8.24146 1.53517,14.87106 1.84949,19.98328 z m 0,31.14591 c -0.63105,5.50376 -2.7219,7.72422 -7.02333,8.87181 3.03863,2.88689 5.69335,5.98919 7.02386,9.83351 z m 0,24.49566 c -1.17549,3.73335 -4.11101,7.42571 -5.84718,10.94145 -0.7515,1.52177 -2.44097,2.36169 -3.73208,3.46336 -1.06741,0.91104 -2.21255,1.72834 -3.33518,2.5709 h 12.91497 z m -83.62846,15.59131 c -0.005,0.0804 -0.0164,0.16031 -0.0201,0.24079 -0.0175,0.3796 -0.0254,0.7624 -0.0103,1.14361 h 0.48009 c -0.0244,-0.18568 -0.0531,-0.37166 -0.0636,-0.55655 -0.21775,-0.45331 -0.23389,-0.50326 -0.38602,-0.82785 z m -52.65312,0.83817 c -0.7453,0.15158 -1.49931,0.29866 -2.25827,0.44133 1.3e-4,0.0348 0,0.0701 0,0.1049 h 3.58428 c -0.44722,-0.17523 -0.88918,-0.35742 -1.32601,-0.54623 z" /></clipPath><clipPath
       clipPathUnits="userSpaceOnUse"
       id="clipPath3544"><path
         id="path3546"
         style="fill:#ff0000;fill-opacity:1;fill-rule:nonzero;stroke:none"
         d="m 373.12109,156.46875 c 0.11438,0.28628 0.2222,0.55999 0.33008,0.83203 v -0.80859 c -0.10999,-0.008 -0.22007,-0.0154 -0.33008,-0.0234 z m -183.92968,13.41602 c -0.34345,0.38321 -0.69067,0.762 -1.0293,1.15039 -0.13752,0.1577 -0.27606,0.29712 -0.41406,0.44531 0.97736,0.0495 1.95586,0.07 2.93359,0.11328 -0.51123,-0.52712 -1.0103,-1.09129 -1.49023,-1.70898 z m 3.53711,32.56445 c -2.84449,1.53736 -6.49198,2.35465 -10.85352,2.04297 -4.48576,10.62419 -18.54967,11.9207 -26.20508,0.0957 v 107.2793 h 217.78125 v -86.01172 c -5.12827,-1.95518 -10.14982,-7.17007 -13.19336,-16.27344 -0.9963,-0.055 -1.87466,-0.0873 -2.95312,-0.15625 -9.10199,-0.58212 -18.17338,-1.53812 -27.23438,-2.5625 -4.3763,-0.49674 -11.28705,-1.28117 -16.22851,-1.76953 -0.50638,0.92649 -1.1823,1.80727 -1.9375,2.66016 17.84418,7.25214 13.23816,29.3917 -12.61133,28.49609 -14.15828,-0.49054 -6.97201,-0.045 -21.55664,-1.375 -8.35965,-1.43114 -12.33362,-1.80345 -20.37695,-4.37109 -8.0187,-2.55981 -15.74443,-6.48287 -22.26172,-11.84571 -0.37846,-0.31141 -0.74142,-0.64115 -1.10547,-0.96875 -4.95409,-1.90894 -4.80031,-1.84714 -14.8125,-5.9082 -6.65561,-2.93562 -11.98023,-5.03703 -18.22852,-8.71484 -0.16291,-0.0959 -0.31263,-0.21305 -0.47461,-0.31055 -2.58265,-0.0885 -5.16519,-0.20505 -7.74804,-0.30664 z" /></clipPath><clipPath
       clipPathUnits="userSpaceOnUse"
       id="clipPath2072"><path
         id="path2074"
         style="fill:#ff0000;fill-opacity:1;fill-rule:nonzero;stroke:none;stroke-width:0.264583"
         d="m -277.83626,318.11547 c -1.59795,0.4344 -3.1977,0.86249 -4.80023,1.28003 -0.90736,0.20455 -1.79623,0.41119 -2.67943,0.61235 1.96995,7.39754 3.28853,14.97132 4.06074,22.59449 0.52541,0.37256 1.04516,0.75367 1.56684,1.12861 0.80923,0.57764 1.59938,1.18491 2.41742,1.7508 3.65019,0.36674 7.29115,0.81693 10.9275,1.30122 0.086,-0.70953 0.16767,-1.41973 0.25889,-2.12857 0.16553,-1.28606 0.68517,-5.19692 0.84593,-6.40993 0.14118,-1.07103 0.2826,-2.1417 0.42376,-3.21273 0.35147,-2.66665 1.15028,-4.75591 2.19883,-6.29676 -2.64603,-1.62209 -5.26199,-3.29211 -7.81504,-5.05913 -0.8686,-0.60119 -1.72254,-1.22341 -2.58381,-1.83504 -1.64984,-1.1865 -3.24242,-2.44758 -4.8214,-3.72534 z" /></clipPath><clipPath
       clipPathUnits="userSpaceOnUse"
       id="clipPath3032"><path
         id="path3034"
         style="fill:#ff0000;fill-opacity:1;fill-rule:nonzero;stroke:none"
         d="m 952.88867,72.212891 c 0.87434,3.614404 1.77007,7.225216 2.64649,10.835937 3.56599,13.852479 5.40905,27.989922 6.48437,42.224612 0.88213,13.16708 0.78144,26.37221 1.79297,39.52929 1.88036,15.60263 2.87169,31.28397 4.01953,46.95118 1.67671,0.20561 3.35638,0.38854 5.03125,0.60937 34.54862,-17.44993 65.48552,-31.47225 52.89062,8.33594 9.1164,1.23395 18.2717,2.15801 27.4512,2.87109 17.6677,1.09326 35.3654,1.59663 53.0586,2.06446 0.4358,0.0198 0.8709,0.0536 1.3066,0.0742 0.1122,-0.12151 0.2494,-0.21832 0.3594,-0.34179 0.5931,-0.66574 0.9947,-1.49886 1.6426,-2.11133 0.1319,-0.1247 0.362,0.0284 0.5429,0.043 0.2865,-0.50375 0.5231,-1.03786 0.8594,-1.50977 0.1117,-0.15668 0.3789,-0.17243 0.4629,-0.3457 1.4259,-2.95253 0.3337,-6.3926 0.6445,-9.51758 1.7169,-17.26099 5.4277,-31.98875 10.4492,-44.35156 v -22.75781 c -10.6453,-2.05094 -22.1427,-5.82341 -34.3496,-11.64844 -3.8884,-1.85557 -7.9167,-3.39289 -11.7773,-5.31055 -16.9867,-8.43746 -24.8692,-15.30315 -26.4668,-21.13281 -9.4008,-2.4351 -18.4698,-5.91308 -26.6758,-11.306641 -2.8943,-1.886338 -5.7142,-3.868943 -8.4687,-5.9375 -6.3219,1.976251 -12.6698,4.30789 -17.61917,8.789062 -4.78705,4.596769 -9.64055,9.164539 -13.94922,14.222659 -2.12124,2.74279 -4.44297,5.33654 -6.57617,8.07031 -0.0229,0.2085 -0.0422,0.38489 -0.0664,0.60742 0.0607,-0.008 0.13641,-0.0183 0.1543,-0.0195 -0.0741,0.18484 -0.16368,0.65588 -0.25977,1.01172 -0.0181,0.17147 -0.0263,0.24028 -0.0449,0.41992 -1.00659,4.16354 -0.42917,1.33735 0.0449,-0.41992 0.0427,-0.40513 0.0659,-0.62881 0.10547,-0.99219 -0.18754,0.0236 -0.4792,0.0621 -0.47656,0.0586 0.17301,-0.22796 0.36689,-0.44037 0.54297,-0.66602 0.66482,-6.04404 0.79013,-6.75497 -0.96094,-16.53516 -0.38691,-2.16084 -1.35172,-4.176765 -2.02734,-6.265621 -3.25215,-10.054803 -6.44295,-17.089234 -9.58985,-21.669922 -3.70666,-1.118962 -7.13993,-2.443251 -10.44531,-3.855469 -0.2483,-0.005 -0.48869,-0.01777 -0.73633,-0.02344 z m 48.65043,0.02344 c -0.3939,0.01318 -0.9118,0.06129 -1.1817,0.05664 -0.3228,-0.0055 -0.64588,0.0011 -0.96873,0 0.25976,0.03 0.52493,0.09137 0.78323,0.115234 0.6001,-0.0067 1.2921,0.298949 1.8008,-0.01953 0.2287,-0.14321 -0.04,-0.165526 -0.4336,-0.152344 z M 860.20508,81.9375 c -0.79008,0.05403 -1.53135,0.158216 -2.33399,0.199219 -7.60109,3.483463 -15.75727,5.958433 -24.53125,7.919922 -9.96154,1.996842 -20.10486,2.705022 -30.23437,3.179687 -1.63174,2.62203 -4.41421,5.185329 -8.57031,7.294922 -3.92255,1.99102 -5.36464,2.78011 -9.40821,4.59961 -4.55799,2.05103 -9.23367,3.82636 -13.95507,5.46094 -2.75227,0.96051 -5.49555,1.9493 -8.24415,2.91992 -3.37337,1.15458 -6.73045,2.35925 -10.13867,3.41016 -3.67935,1.10675 -7.36102,2.22739 -11.12109,3.03124 -2.46893,0.48872 -4.96156,0.94582 -7.48438,1.00782 -1.49177,0.0332 -2.98293,0.0177 -4.47461,-0.0254 -1.53803,-0.0486 -3.07577,-0.14387 -4.60351,-0.33594 -1.34278,3.40015 -2.65444,6.81249 -3.87305,10.26172 -3.64195,10.56788 -6.03897,21.51361 -8.20703,32.46289 -2.7438,14.19055 -4.21048,28.56317 -4.80469,42.99219 0.029,1.04263 0.12388,2.07754 0.17969,3.11718 17.9312,9.49137 30.6982,21.02564 38.48828,33.11329 13.12746,-18.96269 40.4428,-33.0058 82.10156,-31.82032 5.22173,0.1486 10.42944,0.56415 15.625,1.12305 6.9947,-1.75988 14.06024,-3.20577 21.26563,-3.91016 5.50889,-0.53854 10.25357,-0.75793 14.36133,-0.71289 -0.79283,-10.86561 -1.64025,-21.7263 -2.83985,-32.55664 -4.9236,-3.64588 -10.02225,-11.54424 -15.33398,-25.05469 -1.62198,-4.12528 -3.76837,-8.08188 -4.86524,-12.37695 -4.18041,-16.36993 -3.29542,-17.09065 -2.66015,-31.52539 0.452,-2.71877 0.83022,-5.45068 1.35547,-8.156249 1.03006,-5.30574 2.52326,-10.511077 4.30664,-15.619141 z" /></clipPath></defs><g
     inkscape:label="Vrstva 1"
     inkscape:groupmode="layer"
     id="layer1"><g
       id="g54503"
       transform="translate(3.5139974)"><g
         id="g85545"><g
           id="g1543"
           transform="matrix(1.1476372,0,0,1.1476372,-12.526517,-4.6978027)"><path
             id="path4413"
             style="display:inline;fill:#ff9fd0;fill-opacity:1;stroke-width:0.308771"
             inkscape:transform-center-x="100.35799"
             inkscape:transform-center-y="-31.587757"
             d="M 99.936562,31.501417 A 83.83564,80.661545 0 0 0 16.100849,112.16316 83.83564,80.661545 0 0 0 99.936562,192.8249 83.83564,80.661545 0 0 0 183.77175,112.16316 83.83564,80.661545 0 0 0 99.936562,31.501417 Z" /><path
             id="path32520"
             style="display:inline;fill:#ff72ba;fill-opacity:1;stroke:#000000;stroke-width:0.35114;stroke-opacity:0"
             d="m 101.09304,31.753579 c -28.419731,-9.5e-5 -52.332422,11.716604 -68.35986,32.210913 -6.354741,8.125816 -10.775673,17.316086 -13.436215,26.182583 -2.387837,7.957687 -3.339899,15.652795 -3.296345,22.113195 -8.3e-5,31.68586 18.981478,59.18988 46.986408,72.35033 11.310397,5.31514 25.010031,8.22949 38.106012,8.22945 0.76354,-0.0175 1.52679,-0.0454 2.28954,-0.0836 -36.530837,-4.00587 -64.3895,-38.35286 -64.41148,-79.41304 -1.3e-5,-44.095331 31.955545,-79.841687 71.37477,-79.841758 4.81975,1.02e-4 9.62709,0.546308 14.34843,1.630257 -4.07144,-1.190095 -8.30463,-2.210607 -12.50389,-2.773244 -3.699,-0.495609 -7.35395,-0.604241 -11.09737,-0.605147 z m 58.60659,23.916209 c 14.06538,15.059986 22.02039,35.893915 22.02152,57.673682 -0.01,13.6758 -3.15969,27.11954 -9.14777,39.04258 2.38925,-4.06634 4.50468,-8.33869 6.12567,-12.71444 3.24233,-8.7524 4.9717,-17.99601 4.97346,-27.3748 -5.2e-4,-5.53043 -0.57708,-11.13182 -1.6717,-16.467432 -1.52508,-7.433873 -4.23515,-14.473436 -7.85481,-21.165193 -3.74289,-6.919582 -8.71299,-13.329135 -14.44637,-18.994397 z"
             sodipodi:nodetypes="csscscccccscccccscssc" /><path
             id="path4303"
             clip-path="url(#clipPath4659)"
             style="fill:#ff1684;fill-opacity:1;stroke-width:0.264583"
             transform="matrix(3.7692545,0,0,3.6199093,-2177.7252,-247.43953)"
             d="m 604.87902,77.13087 c -0.14441,-6.4e-4 -0.34837,-0.142434 -0.50137,-0.139756 -1.83603,0.03213 -4.1782,0.389265 -5.56789,0.754323 -0.5457,0.143349 -1.37242,0.411273 -1.84537,0.53448 -1.18604,0.308973 -3.60726,1.492875 -4.8505,2.374426 -1.4524,1.029861 10.9353,-1.015859 14.71781,1.655257 1.34202,0.947697 5.91974,-1.42552 8.128,1.004898 3.17672,3.496315 6.35895,2.014186 6.0531,1.414714 -0.1045,-0.204821 -0.51295,-0.66031 -1.28736,-1.448648 -0.55472,-0.564704 -1.17883,-0.972593 -1.59119,-1.301121 -0.38149,-0.303935 -0.68001,-0.540468 -0.91912,-0.670954 -0.2872,-0.156732 -0.35868,-0.215845 -0.57609,-0.138759 -0.22738,0.08062 -0.30768,-0.03472 -0.19153,-0.2227 0.11515,-0.186351 -0.25815,-0.270471 -0.75912,-0.481088 -0.44925,-0.188874 -0.58761,-0.234079 -0.48821,-0.333479 0.0994,-0.09939 -0.51588,-0.402286 -0.70264,-0.402286 -0.20917,0 0.23387,0.41847 0.31917,0.744616 0.11588,0.443072 0.0257,0.227553 -0.64533,0.227553 -0.6527,0 -0.74494,-0.06802 -0.49726,-0.366455 0.24296,-0.292756 0.16514,-0.401286 -0.38703,-0.539904 -0.89703,-0.225192 -1.93593,0.06916 -1.40857,0.399289 0.21514,0.134678 -0.23344,0.161878 -1.08953,0.06624 -1.77797,-0.198626 -2.0428,-0.353036 -0.60571,-0.353036 0.62836,0 1.20596,-0.163811 1.39938,-0.396862 0.27519,-0.331575 0.23707,-0.396862 -0.23211,-0.396862 -0.32848,0 -0.56156,-0.168601 -0.56156,-0.406141 0,-0.327812 0.1048,-0.35004 0.54374,-0.115205 0.29912,0.160027 0.76886,0.347914 0.9427,0.281944 0.38311,-0.145386 -1.79092,-0.972741 -2.49508,-0.972741 -0.39174,0 -0.21331,0.390656 -0.11448,0.907787 0.0935,0.489067 0.0128,0.304356 -0.30957,0.304356 -0.23982,0 -0.50452,0.178579 -0.5883,0.396862 -0.1897,0.494235 -0.92109,0.499978 -3.05582,0.02513 -0.91859,-0.20433 -2.62267,-0.452318 -3.78684,-0.550753 -3.20316,-0.270841 -4.79463,-0.681665 -1.98438,-0.512495 1.23692,0.07446 2.51687,0.202645 2.84428,0.284799 0.83287,0.208988 0.7437,-0.27782 -0.13231,-0.717635 -0.72089,-0.361937 -0.71406,-0.36666 0.72773,-0.511639 0.80037,-0.08048 1.63373,-0.06711 1.85208,0.02941 0.21822,0.09646 0.873,0.09324 1.45518,-0.008 1.03403,-0.179816 1.0308,-0.05214 -0.73239,-0.304642 -0.32226,-0.04615 -0.64329,-0.112998 -1.07651,-0.114918 z m 3.50949,0.5045 c -0.11989,0 -0.23987,0.01841 -0.33082,0.0551 -0.1819,0.07337 -0.033,0.133477 0.33082,0.133477 0.36383,0 0.51258,-0.06009 0.33068,-0.133477 -0.091,-0.03671 -0.21079,-0.0551 -0.33068,-0.0551 z m -7.8221,0.186011 c 0.4843,8.7e-4 1.00969,0.09251 1.20113,0.213706 0.43328,0.274312 -0.60944,0.262755 -1.61024,-0.01842 -0.49987,-0.140437 -0.44299,-0.176091 0.31287,-0.194291 0.0318,-7.67e-4 0.0639,-0.0011 0.0962,-9.99e-4 z m 12.25933,1.241408 c 0.16873,0.01687 -0.24426,0.03098 0.0111,0.189009 0.51396,0.318056 0.9244,0.392379 0.72142,0.06395 -0.0899,-0.1455 -0.0672,-0.185651 -0.29435,-0.2217 -0.11979,-0.01901 -0.56942,-0.04438 -0.43818,-0.03126 z m -19.48326,4.36691 c 2.78888,-0.22311 -4.99319,0.393157 -5.29675,0.707053 -0.49342,0.510217 -1.31078,1.363879 -1.92305,2.315362 -0.5443,0.845856 8.07509,-3.967236 13.83076,1.934079 1.33122,1.364906 6.90541,1.725268 9.46208,1.278809 2.60884,-0.455569 4.08666,-1.761936 6.36815,0.06453 3.80854,3.048957 9.51437,2.330355 9.46047,2.178744 -0.31258,-0.952377 -0.73775,-1.968718 -1.19326,-2.75919 -0.13142,-0.2275 -2.46761,2.725404 -7.72311,-2.796451 -2.53986,-2.668579 -7.10599,2.128825 -10.17569,0.317918 -4.30307,-2.538515 -16.39535,-2.953994 -12.80965,-3.24085 z m -9.39782,6.873781 c -0.1741,0.374252 -0.28444,0.678906 -0.41126,0.992797 -0.17585,0.43527 -0.34491,0.873388 -0.49849,1.420138 -0.13813,0.491747 9.50195,2.716052 14.23055,3.40659 4.86554,0.710543 11.31518,-2.410801 17.40195,-1.521923 6.11089,0.892405 8.19716,7.023048 11.63333,4.444428 0.27652,-0.207509 0.13502,-1.559423 0.13502,-1.559423 -0.0216,-0.888903 -0.0866,-1.439016 -0.28198,-1.471005 -5.94975,-0.974276 -11.3254,-6.277507 -15.32214,-4.297532 -4.20412,2.082708 -12.31239,3.04025 -16.08552,1.124491 -1.68857,-0.763318 -10.51482,-3.176042 -10.80146,-2.538561 z m 5.72354,5.74158 c -2.57546,-2.079071 -7.40837,0.347634 -7.50205,0.844159 -0.0934,0.495049 -0.14135,1.555042 -0.14135,1.555042 0,0 -0.014,0.562032 -0.0263,0.872317 10e-4,0.304135 0.006,0.739962 0.0384,1.054592 0.0349,0.33619 5.33662,-0.19733 11.60268,0.70532 6.30216,0.90786 15.20453,4.47015 20.26212,3.82301 6.52662,-0.83511 11.17652,2.10125 11.39115,1.68359 0.16212,-0.31548 0.25081,-0.71831 0.42544,-1.36663 0.19131,-0.71027 0.35237,-1.38633 0.43175,-1.84794 0.0275,-0.15985 0.0456,-0.29846 0.0554,-0.38522 0.0139,-0.12291 -7.4527,-4.292918 -14.21576,-3.577199 -16.78584,1.776409 -12.57727,-1.054034 -18.26617,-1.844909 -0.51265,-0.07127 -1.85279,0.261902 -2.32973,-0.123117 z m 4.25819,9.10699 c -1.02818,-0.004 -1.95797,0.12597 -2.66426,0.53776 -3.54867,2.069 -8.73433,-1.53507 -8.10754,0.47109 0.049,0.15675 0.11488,0.38695 0.15547,0.50979 0.0248,0.0751 0.0516,0.13362 0.0724,0.18815 0.0186,0.0489 0.0304,0.0811 0.0516,0.14518 0.0911,0.27563 0.17688,0.54787 0.27297,0.66682 0.4017,0.49724 0.67945,0.61813 2.24843,0.96132 3.55755,0.77898 10.19821,-0.52262 15.94417,0.64868 2.05758,0.41943 2.22918,1.97594 4.3462,2.16004 1.19338,0.10378 2.77233,-0.24794 4.22501,-0.28936 3.74748,-0.10683 6.55909,1.31945 10.36393,2.10551 0.60994,0.12601 0.51951,0.5463 1.4719,-0.85026 0.3377,-0.49519 0.95078,-1.40304 1.14492,-1.70151 0.34445,-0.52955 -2.63731,1.36894 -5.13589,-0.3182 -5.82454,-3.93297 -10.68289,-1.01184 -12.80527,-1.92921 -2.80222,-1.21122 -7.9119,-3.29103 -11.58398,-3.3058 z m -7.79975,6.68655 c -0.14509,-0.002 -0.22407,0.0283 -0.19317,0.12006 0.0215,0.0498 0.1041,0.15838 0.18316,0.2621 0.0443,0.0581 0.11492,0.15436 0.16864,0.23198 0.23896,0.34537 0.58468,0.80667 1.0447,1.34034 0.94848,1.10034 1.83311,2.06019 2.19688,2.28695 0.3638,0.22678 4.27399,-1.23729 4.19649,0.58216 -0.0943,2.21441 4.6523,-0.86392 10.52653,0.79144 1.46979,0.41418 3.62136,2.02777 5.13247,0.81728 1.01433,-0.81253 2.62739,0.93782 2.70745,0.95589 1.63682,0.36943 1.84689,0.10724 2.48459,-0.17581 0.48227,-0.21406 1.42785,-0.73955 2.24217,-1.30129 0.8977,-0.61925 1.65674,-1.2782 1.93421,-1.51372 0.0905,-0.0768 -0.50165,-0.15305 -0.73277,-0.21294 -4.14306,-1.0736 -6.80206,0.12853 -8.66389,0.84169 -2.72216,1.0427 -2.44297,0.64343 -10.2611,-1.29023 -3.70768,-0.91702 -5.35079,-1.71407 -7.87899,-2.58403 -1.4232,-0.48973 -1.29633,-0.70216 -2.7361,-0.57067 -0.50838,0.0464 -1.98047,-0.57578 -2.35127,-0.58123 z"
             sodipodi:nodetypes="ssssssssssssssssssssssssssssssssssssssssssssssssssssssssssssssssssccsssscsssscccsccscccsssssssssssssssssscsscsssssssccccsssssssssssssccc" /><path
             id="path35112"
             style="fill:#ef0051;fill-opacity:1;stroke-width:0.238563"
             d="m 63.645478,9.311748 c -1.616278,0 -2.031738,0.09605 -3.346566,0.776697 -2.702266,1.398872 -3.92158,3.777656 -3.88245,7.572664 0.02671,2.591445 0.595822,4.286832 3.251481,9.683647 1.677104,3.408172 2.359733,5.106241 3.17655,7.90081 0.05804,0.198599 0.573578,0.06612 1.65623,-0.424781 0.864587,-0.392021 3.795202,-1.289325 6.512264,-1.994193 6.963647,-1.806527 8.526291,-2.466197 10.487732,-4.427637 3.112007,-3.112014 3.075247,-8.210885 -0.08217,-11.368298 -1.220415,-1.220416 -2.103282,-1.695112 -3.721219,-2.001945 -1.552965,-0.294517 -3.643986,0.189808 -5.202784,1.205611 l -1.074353,0.700216 -0.168982,-1.294495 C 71.023251,13.89226 70.119514,12.196231 68.794001,11.029473 67.380459,9.785217 65.960782,9.311748 63.645478,9.311748 Z m -20.061824,11.1988 c -1.116361,-0.01658 -2.198591,0.139126 -3.092318,0.47594 -2.727296,1.027832 -4.495473,3.311762 -5.014681,6.477641 -0.159431,0.972118 -0.322492,1.811689 -0.362252,1.865519 -0.03974,0.05387 -0.263665,-0.07557 -0.497644,-0.287321 -0.23398,-0.211745 -1.066325,-0.685178 -1.850016,-1.052132 -1.210642,-0.566871 -1.730543,-0.667143 -3.45767,-0.667143 -1.811307,0 -2.204768,0.08432 -3.608049,0.775146 -1.924463,0.947413 -3.335669,2.423691 -4.311881,4.509803 -0.609943,1.303413 -0.728873,1.853439 -0.738973,3.419946 -0.01058,1.644157 0.08205,2.058004 0.776696,3.469039 0.928858,1.886774 2.936707,3.999424 4.804358,5.055505 1.962224,1.109558 4.407675,1.904007 9.523967,3.093351 4.486134,1.042845 7.452431,1.961314 8.948808,2.770891 0.906532,0.490471 1.070735,0.494122 1.070735,0.02274 0,-0.892935 1.531767,-4.819394 3.527434,-9.041308 2.528563,-5.349271 3.234208,-7.233606 3.631819,-9.699667 0.724253,-4.491932 -1.277604,-8.451362 -5.202783,-10.289294 -1.220449,-0.571461 -2.71223,-0.877331 -4.14755,-0.898653 z m 29.906701,17.977197 c -1.837943,0.02112 -3.342391,1.240168 -3.959448,3.327446 -0.11001,0.372121 -0.244786,0.340008 -1.251086,-0.298173 -1.939468,-1.229974 -4.240719,-0.910395 -5.739702,0.79685 -1.752905,1.996452 -1.449468,4.488326 0.80822,6.633704 1.015218,0.964715 1.731748,1.354099 5.191414,2.823083 1.302241,0.552931 2.751399,1.25708 3.220475,1.564758 0.469086,0.30769 0.920023,0.56561 1.002523,0.57361 0.08248,0.008 0.292986,-0.33528 0.467672,-0.761708 0.174696,-0.426428 1.113291,-1.944652 2.085661,-3.373954 0.972371,-1.429293 2.046605,-3.200543 2.386934,-3.936194 1.466893,-3.170893 0.202941,-6.301496 -2.89388,-7.168554 -0.452868,-0.126794 -0.894642,-0.185741 -1.318783,-0.180868 z" /><path
             id="path35112-9"
             style="fill:#ef0051;fill-opacity:1;stroke-width:0.163132"
             d="m 121.00425,8.060662 c -0.0971,0.0014 -0.19641,0.0041 -0.29817,0.0083 -1.13658,0.04632 -1.42598,0.122324 -2.33216,0.611849 -1.86241,1.006072 -2.65558,2.620014 -2.52543,5.138188 0.0889,1.719549 0.53519,2.828991 2.54868,6.33553 1.27155,2.214433 1.7974,3.32194 2.4474,5.153691 0.0462,0.130175 0.40485,0.02773 1.1529,-0.329179 0.59738,-0.285017 2.63423,-0.964716 4.52582,-1.510502 4.84803,-1.398811 5.92913,-1.881812 7.25537,-3.240112 2.10424,-2.155074 1.94039,-5.538696 -0.36535,-7.544243 -0.89122,-0.775192 -1.52511,-1.06534 -2.67115,-1.222664 -1.10002,-0.15101 -2.55746,0.230807 -3.62614,0.949813 l -0.73639,0.495577 -0.15348,-0.854729 c -0.20759,-1.153722 -0.88943,-2.253438 -1.85311,-2.989998 -0.96344,-0.73639 -1.91237,-1.023197 -3.36879,-1.001489 z m -13.76454,8.015531 c -0.90452,-0.01299 -1.79226,0.12189 -2.5001,0.406694 -1.89006,0.760477 -3.07123,2.327126 -3.3507,4.443656 -0.0858,0.649903 -0.17762,1.21215 -0.20412,1.249019 -0.0265,0.0369 -0.18785,-0.04235 -0.35812,-0.176216 -0.17027,-0.133861 -0.76862,-0.424296 -1.329638,-0.645439 -0.86666,-0.341627 -1.23493,-0.393655 -2.449458,-0.344165 -1.273729,0.05191 -1.547505,0.119234 -2.515609,0.61805 -1.327669,0.684085 -2.280377,1.704295 -2.910417,3.117123 -0.393589,0.882742 -0.462247,1.251649 -0.426847,2.291849 0.03703,1.091767 0.113115,1.363681 0.639754,2.280481 0.704219,1.225906 2.173112,2.570857 3.515031,3.218409 1.409864,0.680342 3.150996,1.137848 6.780984,1.780769 3.1829,0.56373 5.29393,1.088297 6.36808,1.58285 0.65076,0.299594 0.76614,0.296909 0.75344,-0.01602 -0.0242,-0.592766 0.9469,-3.242588 2.23604,-6.10247 1.63339,-3.623543 2.07846,-4.894795 2.29134,-6.54327 0.38778,-3.002697 -1.12678,-5.573629 -3.93671,-6.681246 -0.77662,-0.306119 -1.69842,-0.467085 -2.60295,-0.480074 z m 21.32894,11.074776 c -1.36232,0.0061 -2.4523,0.869707 -2.84428,2.32699 -0.0673,0.250183 -0.16289,0.232552 -0.8878,-0.162264 -1.39712,-0.76093 -3.00683,-0.482803 -4.01474,0.693498 -1.17865,1.375565 -0.8979,3.020599 0.74776,4.380094 0.74002,0.61133 1.2543,0.849448 3.7269,1.725476 0.93071,0.32974 1.96866,0.755904 2.30684,0.946713 0.33819,0.190815 0.66259,0.349016 0.72089,0.351916 0.0582,0.0028 0.19721,-0.230744 0.3085,-0.518831 0.11132,-0.28809 0.73001,-1.322905 1.37511,-2.299602 0.64512,-0.97669 1.35258,-2.183379 1.572,-2.68149 0.94575,-2.147014 -0.0276,-4.188838 -2.2288,-4.675683 -0.26825,-0.05933 -0.5301,-0.08795 -0.78238,-0.08682 z" /><path
             id="path35112-9-8"
             style="fill:#ef0051;fill-opacity:1;stroke-width:0.312059"
             d="m 149.69707,20.491944 c -0.8452,-0.0105 -1.49993,0.149645 -2.65927,0.532784 -3.81234,1.259879 -5.86991,4.059436 -6.5505,8.911601 -0.46472,3.313337 -0.0456,5.588393 2.3952,12.994556 1.54139,4.677055 2.10879,6.97739 2.64067,10.703738 0.0378,0.26482 0.7391,0.19636 2.25309,-0.21962 1.20904,-0.332186 5.22409,-0.907936 8.92193,-1.278995 9.47746,-0.951009 11.65361,-1.488952 14.60325,-3.611149 4.67987,-3.367057 5.61445,-9.882721 2.08411,-14.527796 -1.36457,-1.795378 -2.43033,-2.57387 -4.49223,-3.28042 -1.97903,-0.678179 -4.81389,-0.466289 -7.05332,0.5271 l -1.54306,0.684713 0.0284,-1.685686 c 0.0382,-2.275517 -0.81943,-4.616047 -2.33215,-6.363436 -1.61311,-1.863388 -3.38342,-2.744584 -6.41873,-3.195153 -0.79453,-0.11794 -1.37029,-0.185917 -1.87741,-0.192237 z m 8.60464,39.305099 c -2.19424,-0.0806 -4.16099,1.17662 -5.27926,3.52536 -0.21597,0.45358 -0.38667,0.38626 -1.58285,-0.62425 -2.30538,-1.9475 -5.38379,-1.98758 -7.67808,-0.0997 -2.683,2.20746 -2.76567,5.44725 -0.21963,8.62531 1.1449,1.42909 2.00887,2.06568 6.26112,4.61419 1.60058,0.95927 3.36456,2.14008 3.92017,2.62413 0.55562,0.48408 1.09737,0.90099 1.20406,0.92759 0.10666,0.0259 0.44844,-0.37072 0.75965,-0.88108 0.31128,-0.51037 1.83445,-2.26569 3.3848,-3.90106 1.55039,-1.6353 3.30012,-3.68757 3.88814,-4.56044 2.53447,-3.76239 1.48141,-8.00516 -2.41122,-9.71466 -0.75899,-0.33332 -1.51547,-0.50851 -2.2469,-0.53536 z" /><path
             style="fill:#000000;stroke-width:1.06691"
             d="m -279.25149,337.85445 c 0.9293,-1.11977 2.02487,-1.20035 4.01307,-0.80271 3.5141,0.70281 5.3413,-1.28009 2.1214,-2.30206 -1.4358,-0.45569 -2.1495,-1.51363 -2.0312,-3.0108 0.2996,-3.79191 -0.29346,-7.52322 -2.02826,-6.08304 -1.365,1.13291 -1.85225,3.0513 -3.29025,1.61334 -1.6117,-1.61171 -1.37719,-0.60564 0.48041,-2.65821 1.376,-1.52048 3.0325,-2.11854 5.2632,-1.90029 1.0269,0.10047 1.62945,2.70324 1.78977,3.60595 0.48658,2.73987 -0.52891,3.77588 -0.051,5.22251 1.0381,3.14222 3.02052,1.49333 3.80384,3.51425 0.19471,0.50232 0.89539,2.29063 0.75729,2.62396 -1.24685,3.01008 -2.68125,1.76382 -5.77335,1.76382 -4.20509,0.90276 -6.66274,0.87944 -5.05494,-1.58672 z"
             id="path1598"
             clip-path="url(#clipPath2072)"
             sodipodi:nodetypes="cssscssssssscc"
             transform="matrix(1.2947935,0.49143373,-0.43766517,1.153128,602.23065,-129.62958)" /><path
             id="path15691"
             style="display:inline;fill:#000000;stroke-width:8.1298"
             d="m 718.46925,-48.739727 c -0.005,0.0064 -0.0102,0.01285 -0.0155,0.01965 0.006,-0.0045 0.0102,-0.0091 0.0155,-0.01361 z m -0.0155,0.01965 c -0.146,0.118413 -0.26702,0.23675 -0.41211,0.367181 0.002,0.06161 -0.002,0.09112 0,0.152353 0.14805,-0.177751 0.26888,-0.345222 0.41211,-0.519534 z m 75.9159,83.109257 c -4.7599,0.06161 -9.85266,7.443315 -16.5293,23.421873 -8.50705,20.360553 -20.3146,32.593206 -37.14063,38.458987 -13.56744,4.72946 -24.66016,11.89194 -24.66016,15.92578 0,11.53334 35.26155,8.58055 53.97266,-4.52539 22.94897,-16.073851 40.66952,-59.349975 29.05664,-70.962891 -1.56094,-1.560945 -3.1128,-2.336803 -4.69921,-2.318359 z m 249.83405,0.0155 c -1.5917,-0.03024 -3.1403,0.741789 -4.7013,2.302734 -11.6128,11.612878 6.1044,54.887124 29.0411,70.960936 17.9288,12.5581 53.9883,16.24851 53.9883,5.52539 0,-3.49118 -11.0411,-10.51639 -24.5332,-15.609373 C 1081.6184,91.40183 1069.279,78.292085 1060.8599,58.142959 1054.1104,41.978788 1048.9665,34.50238 1044.2037,34.40468 Z M 662.06886,57.254418 c -0.24582,0.639111 -0.46682,1.280803 -0.69727,1.919921 0.33184,-0.626835 0.63188,-1.264936 0.9668,-1.888672 -0.0902,-0.0021 -0.1793,-0.03024 -0.26952,-0.03137 z m -43.20508,52.398442 c -0.0272,0.12283 -0.0611,0.24748 -0.0918,0.38281 0.0306,-0.0922 0.0611,-0.21638 0.0918,-0.3086 5e-4,-4.9e-4 2.2e-4,-0.0427 0,-0.0742 z m 431.46482,7.43946 c -0.8688,-0.004 -1.732,0.0265 -2.5859,0.09 v -0.002 c -25.613,1.78526 -44.5215,31.55028 -25.7695,58.32226 13.231,18.9075 43.0071,22.71364 58.2734,7.44726 15.2663,-15.26627 11.4761,-45.03213 -7.4316,-58.27537 -6.59,-4.61578 -13.3726,-6.95005 -19.8633,-7.4629 -0.8788,-0.0767 -1.7542,-0.11527 -2.6231,-0.11905 z m -262.10153,0.0113 c -0.86877,0.008 -1.74411,0.0442 -2.62305,0.10544 -6.49073,0.51315 -13.25767,2.84833 -19.84766,7.46291 -18.90776,13.24327 -22.71359,43.00902 -7.44726,58.2754 15.26633,15.26627 45.03015,11.46017 58.27344,-7.44726 18.75167,-26.77206 -0.15209,-56.53795 -25.76954,-58.32226 v 0.002 c -0.85421,-0.0612 -1.71717,-0.0835 -2.58593,-0.0763 z m 130.23241,124.41992 v 0.002 c -41.14539,-0.0922 -121.12108,37.8243 -121.12108,57.41602 0,12.48309 15.47093,8.64498 40.95117,-10.19335 38.3551,-28.36551 107.44582,-29.57791 157.22851,-2.89259 45.55592,24.48227 60.23022,20.15445 27.40622,-8.09764 -23.64212,-20.3489 -69.21007,-36.17291 -104.46482,-36.23437 z m 3.22851,48.71876 c -1.76413,6e-4 -3.53193,0.034 -5.29296,0.0937 -23.48017,0.82042 -45.88866,6.96809 -45.88866,15.70314 0,3.24715 21.95076,5.9082 48.77928,5.9082 47.49263,0 61.96569,-6.75557 35.91602,-16.75196 -8.96187,-3.43896 -21.16468,-4.9575 -33.51368,-4.95311 z"
             clip-path="url(#clipPath3032)"
             transform="matrix(0.23298358,0,0,0.26034217,-114.31577,49.145794)" /><ellipse
             style="display:inline;fill:#ffffff;fill-opacity:1;stroke-width:0.24667"
             id="path16098"
             cx="67.357208"
             cy="92.629646"
             rx="2.9122946"
             ry="2.8637638" /><ellipse
             style="display:inline;fill:#ffffff;fill-opacity:1;stroke-width:0.24667"
             id="path16098-0"
             cx="131.48334"
             cy="93.601463"
             rx="2.9122946"
             ry="2.8637638" /></g></g></g></g></svg>
