<?xml version="1.0" encoding="UTF-8" standalone="no"?>
<!-- Created with Inkscape (http://www.inkscape.org/) -->

<svg
   width="790"
   height="870"
   viewBox="0 0 209.02083 230.1875"
   version="1.1"
   id="svg5"
   xml:space="preserve"
   inkscape:version="1.2.2 (732a01da63, 2022-12-09)"
   sodipodi:docname="planetla_modra_v2.svg"
   xmlns:inkscape="http://www.inkscape.org/namespaces/inkscape"
   xmlns:sodipodi="http://sodipodi.sourceforge.net/DTD/sodipodi-0.dtd"
   xmlns="http://www.w3.org/2000/svg"
   xmlns:svg="http://www.w3.org/2000/svg"><sodipodi:namedview
     id="namedview7"
     pagecolor="#ffffff"
     bordercolor="#000000"
     borderopacity="0.25"
     inkscape:showpageshadow="2"
     inkscape:pageopacity="0.0"
     inkscape:pagecheckerboard="0"
     inkscape:deskcolor="#d1d1d1"
     inkscape:document-units="mm"
     showgrid="false"
     inkscape:zoom="0.70710678"
     inkscape:cx="842.87128"
     inkscape:cy="506.99556"
     inkscape:window-width="1920"
     inkscape:window-height="991"
     inkscape:window-x="2391"
     inkscape:window-y="594"
     inkscape:window-maximized="1"
     inkscape:current-layer="layer1" /><defs
     id="defs2"><inkscape:path-effect
       effect="bspline"
       id="path-effect12119"
       is_visible="true"
       lpeversion="1"
       weight="33.333333"
       steps="2"
       helper_size="0"
       apply_no_weight="true"
       apply_with_weight="true"
       only_selected="false" /></defs><g
     inkscape:label="Vrstva 1"
     inkscape:groupmode="layer"
     id="layer1"
     style="display:inline"><g
       id="g1530"
       transform="matrix(1.3716703,0,0,1.3438787,-42.246067,-64.542932)"><path
         id="path241"
         style="display:inline;fill:#b7e2f9;fill-opacity:1;stroke-width:1.40018"
         d="M 106.30669,50.615515 A 72.046509,72.880371 0 0 0 34.260441,123.49582 72.046509,72.880371 0 0 0 106.30669,196.37613 72.046509,72.880371 0 0 0 178.35345,123.49582 72.046509,72.880371 0 0 0 106.30669,50.615515 Z" /><g
         id="g125"
         transform="matrix(6.1032775,0,0,6.6512667,-329.17891,-746.3451)"
         style="display:inline"><path
           id="path133"
           style="display:inline;fill:#5eb1df;stroke-width:0.264583"
           d="m 80.642395,124.16188 c -0.285406,-0.002 -0.797728,0.31567 -1.049315,0.41823 -1.367287,0.55228 -2.741633,0.97794 -4.135451,1.27729 -1.393817,0.29936 -2.80709,0.47236 -4.252126,0.51946 -1.445035,0.0471 -2.921861,-0.0317 -4.442802,-0.23619 -1.520942,-0.2045 -3.015112,-0.70564 -4.666586,-1.05905 -0.435597,-0.11188 -0.726506,0.0111 -0.94788,0.24505 -0.221375,0.23395 -0.373191,0.57889 -0.530542,0.91104 -0.146737,0.31038 -0.245437,0.52452 -0.369839,0.79116 -0.124401,0.26663 -0.346281,0.78006 -0.336309,1.1404 4.568296,3.72267 13.854189,4.07832 18.342056,3.50447 1.694807,-0.23524 1.841303,0.14735 0.293043,0.76684 -3.651476,1.46104 -9.864113,2.67389 -15.416116,1.06184 -2.946489,-0.85552 -3.439877,-1.48373 -3.364954,-0.63553 0.0025,0.0242 0.0472,0.24125 0.06376,0.27581 0.733863,1.53163 2.028798,3.29323 4.309363,3.64316 3.104813,0.47641 8.808867,0.19738 11.618667,-0.40945 2.381688,-0.61124 5.214977,-2.19875 5.657393,-2.63873 0.986805,-0.8463 1.685774,-1.21315 1.709148,-2.47751 -0.0026,-1.25277 0.0796,-1.93279 -0.127343,-1.85339 -0.01354,-0.007 -4.597456,1.10213 -9.022686,1.12159 -4.420381,0.0194 -9.360433,-0.60567 -9.521392,-1.84764 -0.07185,-0.5544 0.285753,-0.87838 0.902666,-0.73025 3.81556,0.91617 13.020149,0.43654 15.615175,-0.9523 0.553327,-0.19472 0.740759,-0.22519 0.962274,-0.26486 0.425719,-0.0762 0.438669,-0.005 0.08103,-0.67127 -0.05424,-0.10107 -0.126848,-0.20996 -0.19745,-0.34854 -0.07635,-0.14987 -0.305421,-0.54641 -0.463653,-0.7433 -0.212867,-0.33235 -0.329287,-0.55769 -0.590404,-0.77919 -0.03241,-0.0198 -0.07302,-0.0288 -0.119723,-0.0291 z" /></g><path
         style="fill:#5eb1df;fill-opacity:1;stroke-width:1.40018"
         d="m 73.296754,59.913575 c -3.793405,-0.635033 7.848692,-5.345474 13.645995,-6.632283 0,0 2.231014,-0.622863 4.394458,-1.120059 1.920108,-0.441305 4.619576,-0.858523 6.578156,-1.071782 2.564467,-0.279213 4.615017,-0.458661 6.902597,-0.487504 1.81761,-0.02271 3.63697,-0.02123 5.45295,0.05896 3.68633,0.162499 7.42746,0.08736 11.03662,0.854971 4.88879,1.039784 9.65483,2.824285 14.12698,5.026111 1.88128,0.926231 4.23957,2.198677 6.47907,3.48773 2.66154,1.53198 4.4689,2.974663 7.65138,5.631569 2.55622,2.134106 5.08727,3.370798 1.3324,4.651233 -5.86288,1.999272 -18.58271,6.552998 -18.58271,6.552998 0,0 -16.28311,5.22698 -24.68265,6.67098 -8.171236,1.404757 -16.512206,1.685891 -24.800502,1.901878 -7.743171,0.201794 -23.230479,-0.567648 -23.230479,-0.567648 l -7.546561,-1.313357 c -7.879648,-1.2385 -2.121181,-4.982687 -0.190126,-8.006758 l 2.254621,-2.411738 2.254614,-2.411736 c 0,0 0.609311,-0.573436 1.451809,-1.337683 0.842496,-0.764252 1.605483,-1.656784 2.37145,-1.836363 0.953166,-0.223499 2.100583,-0.136374 3.285563,0.119965 1.184969,0.256343 2.407506,0.681942 3.510886,1.135468 1.103394,0.453531 2.08763,0.934988 2.796022,1.303064 0.708398,0.368062 2.18328,0.852093 2.18328,0.852093 l 1.022211,0.04976 1.02221,0.04976 1.022206,0.04972 1.022208,0.04976 1.02221,0.04976 1.022204,0.04972 1.022208,0.04976 1.022211,0.04976 1.022201,0.04972 1.022213,0.04976 1.02221,0.04976 1.022204,0.04972 1.022208,0.04976 1.02221,0.04976 1.022204,0.04972 1.022208,0.04976 17.969927,-0.2293 19.34584,-5.670309 -22.01424,-1.33423 -19.809989,-2.850637 z"
         id="path1073"
         sodipodi:nodetypes="scssssasssscsscccccssssscccccccccccccccccccccs" /><path
         style="fill:#5eb1df;fill-opacity:1;stroke-width:2.29155"
         d="m 49.48571,168.31443 c 8.003103,0 21.304354,6.27324 31.276808,9.75232 8.491347,2.96237 11.695694,5.20074 26.583942,3.71305 2.27526,-0.22755 17.2745,-5.56023 22.51047,-5.40867 22.95771,0.66437 28.35676,-9.99337 28.35676,-9.99337 l 15.16528,-16.44913 c 0,0 -1.79416,5.67995 -5.49541,11.66888 -3.32906,5.38662 -8.16797,11.02321 -10.21789,13.00168 -1.20721,1.16516 -2.53013,2.53965 -4.03049,3.87649 -3.42766,3.05413 -7.45502,6.17293 -10.81864,8.01097 -7.8033,4.2641 -14.33455,7.39197 -23.12412,8.74027 -5.16984,0.79302 -10.37195,1.33163 -15.59816,1.1243 -6.987979,-0.27732 -10.995843,-0.89304 -17.801766,-2.99688 -3.015258,-0.9321 -6.197601,-1.82121 -9.065139,-3.06202 -2.464908,-1.06656 -4.628659,-2.45016 -7.043736,-3.68602 -4.116148,-2.10629 -9.39569,-6.35229 -12.612643,-9.46581 -1.186269,-1.14811 -3.236598,-3.17094 -4.889857,-5.00853 -1.821304,-2.02448 -3.195409,-3.81753 -3.195409,-3.81753 z"
         id="path12179"
         sodipodi:nodetypes="csssccsssssssssssc" /><path
         id="path15691"
         style="fill:#000000;stroke-width:2.15101"
         d="m 51.45009,56.320076 c -0.0014,0.0017 -0.0027,0.0034 -0.0041,0.0052 0.0015,-0.0012 0.0027,-0.0024 0.0041,-0.0036 z m -0.0041,0.0052 c -0.03863,0.03133 -0.07065,0.06264 -0.109037,0.09715 4.88e-4,0.0163 -4.88e-4,0.02411 0,0.04031 0.03917,-0.04703 0.07114,-0.09134 0.109037,-0.13746 z M 71.532068,78.3146 c -1.259388,0.0163 -2.606849,1.969377 -4.373377,6.197037 -2.250822,5.387063 -5.374904,8.623619 -9.82679,10.175607 -3.589718,1.251336 -6.524666,3.146408 -6.524666,4.213696 0,3.05153 9.329616,2.27027 14.280265,-1.197343 6.071915,-4.252873 10.760477,-15.703014 7.687903,-18.775598 -0.413,-0.413 -0.823597,-0.618279 -1.243335,-0.613399 z m 66.101912,0.0041 c -0.42113,-0.008 -0.83087,0.196265 -1.24386,0.609265 -3.07257,3.072574 1.61511,14.522218 7.68377,18.775081 4.74367,3.322664 14.2844,4.299084 14.2844,1.461927 0,-0.92371 -2.92128,-2.782463 -6.49107,-4.129981 -4.33393,-1.635796 -7.59871,-5.104416 -9.82628,-10.435539 -1.7858,-4.27677 -3.14678,-6.254903 -4.40696,-6.280753 z M 36.527486,84.36436 c -0.06504,0.169098 -0.123512,0.338879 -0.184485,0.507979 0.0878,-0.16585 0.167184,-0.334681 0.255799,-0.499711 -0.02388,-5.58e-4 -0.04744,-0.008 -0.07131,-0.0083 z M 25.096143,98.228113 c -0.0072,0.0325 -0.01616,0.06548 -0.02429,0.101286 0.0081,-0.0244 0.01616,-0.05725 0.02429,-0.08165 1.31e-4,-1.3e-4 5.8e-5,-0.01131 0,-0.01964 z m 114.158407,1.968357 c -0.22989,-0.001 -0.45827,0.007 -0.6842,0.0238 v -5.2e-4 c -6.77676,0.47235 -11.77964,8.34768 -6.81819,15.4311 3.50071,5.00261 11.37897,6.00965 15.41819,1.97042 4.03921,-4.0392 3.03638,-11.91475 -1.96629,-15.41869 -1.7436,-1.22126 -3.53815,-1.83887 -5.2555,-1.97456 -0.23251,-0.0203 -0.46412,-0.0305 -0.69401,-0.0315 z m -69.347706,0.003 c -0.229861,0.002 -0.461462,0.0117 -0.694014,0.0279 -1.717338,0.13577 -3.507759,0.75362 -5.251359,1.97456 -5.002679,3.50395 -6.009639,11.37947 -1.970423,15.4187 4.039216,4.0392 11.914227,3.03217 15.418181,-1.97042 4.96138,-7.08344 -0.04024,-14.959 -6.818189,-15.4311 v 5.1e-4 c -0.22601,-0.0162 -0.454335,-0.0221 -0.684196,-0.0202 z m 34.457326,32.91944 v 5.1e-4 c -10.886385,-0.0244 -32.04662,10.00768 -32.04662,15.19132 0,3.30282 4.093351,2.28732 10.834997,-2.69699 10.14812,-7.50504 28.428373,-7.82582 41.600043,-0.76533 12.05334,6.4776 15.93591,5.33253 7.25124,-2.1425 -6.25532,-5.38398 -18.31184,-9.57075 -27.63966,-9.58701 z m 0.85421,12.89017 c -0.46676,1.6e-4 -0.93449,0.009 -1.40043,0.0248 -6.212462,0.21707 -12.141375,1.84364 -12.141375,4.15479 0,0.85914 5.807807,1.56321 12.906185,1.56321 12.56576,0 16.39509,-1.78741 9.50278,-4.43229 -2.37116,-0.90989 -5.59982,-1.31167 -8.86716,-1.31051 z" /><ellipse
         style="fill:#ffffff;fill-opacity:1;stroke-width:0.264999"
         id="path16098"
         cx="69.982292"
         cy="115.09375"
         rx="3.3072915"
         ry="2.9104166" /><ellipse
         style="display:inline;fill:#ffffff;fill-opacity:1;stroke-width:0.264999"
         id="path16098-9"
         cx="139.7"
         cy="115.62292"
         rx="3.3072915"
         ry="2.9104166" /></g></g></svg>
