<?xml version="1.0" encoding="UTF-8" standalone="no"?>
<!-- Created with Inkscape (http://www.inkscape.org/) -->

<svg
   width="16"
   height="16"
   viewBox="0 0 16 16"
   version="1.1"
   id="svg5"
   xml:space="preserve"
   inkscape:version="1.2.2 (732a01da63, 2022-12-09)"
   sodipodi:docname="star.svg"
   xmlns:inkscape="http://www.inkscape.org/namespaces/inkscape"
   xmlns:sodipodi="http://sodipodi.sourceforge.net/DTD/sodipodi-0.dtd"
   xmlns="http://www.w3.org/2000/svg"
   xmlns:svg="http://www.w3.org/2000/svg"><sodipodi:namedview
     id="namedview7"
     pagecolor="#ffffff"
     bordercolor="#000000"
     borderopacity="0.25"
     inkscape:showpageshadow="2"
     inkscape:pageopacity="0.0"
     inkscape:pagecheckerboard="0"
     inkscape:deskcolor="#d1d1d1"
     inkscape:document-units="px"
     showgrid="false"
     inkscape:zoom="20.48"
     inkscape:cx="17.407227"
     inkscape:cy="7.397461"
     inkscape:window-width="1920"
     inkscape:window-height="991"
     inkscape:window-x="-9"
     inkscape:window-y="-9"
     inkscape:window-maximized="1"
     inkscape:current-layer="layer1" /><defs
     id="defs2" /><g
     inkscape:label="Vrstva 1"
     inkscape:groupmode="layer"
     id="layer1"><path
       style="stroke-width:0.0251394"
       d="m 11.621001,15.151976 c 0.06896,-0.02139 0.17736,-0.06793 0.240894,-0.103406 0.06354,-0.03548 0.169922,-0.111899 0.236416,-0.169821 0.06649,-0.05792 0.165438,-0.178815 0.219876,-0.268652 0.05444,-0.08984 0.12063,-0.240593 0.147095,-0.335015 0.03092,-0.11031 0.04812,-0.245912 0.04812,-0.379354 0,-0.178629 -0.05192,-0.441015 -0.371188,-1.875844 -0.254642,-1.144392 -0.371189,-1.714587 -0.371189,-1.81601 0,-0.101084 0.01704,-0.184824 0.05388,-0.2647635 0.03225,-0.06999 0.130996,-0.191404 0.245995,-0.302483 0.105663,-0.10206 0.667457,-0.6275568 1.248433,-1.16777 0.82129,-0.763668 1.076134,-1.0151045 1.145379,-1.1300676 0.04898,-0.081324 0.110655,-0.2153014 0.137049,-0.2977278 0.02639,-0.082426 0.05358,-0.2389335 0.06042,-0.3477938 0.0086,-0.1364584 2.61e-4,-0.2512016 -0.02676,-0.3694654 -0.02156,-0.094346 -0.07327,-0.2463325 -0.1149,-0.3377486 C 14.471331,5.8780572 14.391593,5.76497 14.292842,5.6631709 14.209252,5.5770009 14.106998,5.4872009 14.065608,5.4636145 14.024218,5.4400285 13.930145,5.3978055 13.856556,5.3697855 13.748031,5.3284655 13.420863,5.2941195 12.124636,5.1879699 11.088912,5.103153 10.490565,5.0436739 10.424353,5.0189514 10.359605,4.9947749 10.28388,4.9343641 10.217581,4.8539949 10.123276,4.739677 10.054379,4.5690112 9.5181916,3.1215378 9.1910635,2.2384317 8.8911675,1.4605753 8.8517565,1.3929677 8.8123455,1.3253602 8.7391185,1.2262548 8.6890295,1.1727336 8.6389405,1.1192124 8.5349885,1.0338136 8.4580255,0.9829586 8.3810625,0.9321035 8.2442295,0.8719814 8.1539525,0.849354 8.0636725,0.826726 7.9268515,0.808213 7.8498985,0.808213 c -0.07695,0 -0.201629,0.017715 -0.277059,0.039366 -0.07543,0.021651 -0.19265,0.070361 -0.260489,0.1082437 -0.06784,0.037883 -0.180504,0.1284532 -0.250368,0.2012672 -0.06986,0.072814 -0.158613,0.1873948 -0.19722,0.254624 -0.03861,0.067229 -0.336059,0.840713 -0.661005,1.718853 -0.327416,0.8848172 -0.619846,1.6377965 -0.655941,1.6889844 -0.03582,0.050802 -0.123934,0.1247333 -0.195804,0.1642928 l -0.130671,0.071926 -1.604493,0.131972 c -0.88247,0.072585 -1.647597,0.1454596 -1.700282,0.1619443 -0.05269,0.016485 -0.138897,0.053885 -0.191581,0.083112 -0.05269,0.029227 -0.147211,0.094412 -0.210058,0.1448568 -0.06285,0.050445 -0.163832,0.1682625 -0.224413,0.2618182 -0.06655,0.1027708 -0.132697,0.2483578 -0.167118,0.3678062 -0.03976,0.1379876 -0.05689,0.2591786 -0.05669,0.4012251 1.68e-4,0.1119359 0.01468,0.2628983 0.03227,0.3354719 0.01759,0.072573 0.05662,0.1853924 0.08672,0.2507086 0.0301,0.065316 0.08629,0.1629488 0.124857,0.2169614 0.03857,0.054013 0.206863,0.2268219 0.373989,0.3840204 0.167126,0.1571986 0.722742,0.6760195 1.234702,1.1529351 0.831593,0.7746695 0.936889,0.8814445 0.987606,1.0014745 0.03122,0.0739 0.05687,0.1844134 0.057,0.2455944 1.2e-4,0.06118 -0.04235,0.304633 -0.0944,0.541003 -0.05205,0.23637 -0.220471,0.987921 -0.374274,1.670112 -0.257649,1.142794 -0.279666,1.260067 -0.279943,1.491057 -2.4e-4,0.190886 0.01196,0.287982 0.05109,0.40692 0.02826,0.08592 0.085,0.213939 0.126085,0.284494 0.04108,0.07055 0.135331,0.187999 0.209437,0.260987 0.07411,0.07299 0.199398,0.166387 0.278425,0.207553 0.07903,0.04117 0.200792,0.08797 0.270589,0.104011 0.0698,0.01604 0.18338,0.02916 0.252406,0.02916 0.06903,0 0.189195,-0.01828 0.267042,-0.04063 0.07785,-0.02235 0.206734,-0.07947 0.286416,-0.126947 0.07968,-0.04747 0.387346,-0.252375 0.683699,-0.455332 0.296352,-0.202957 0.917799,-0.627425 1.380995,-0.943262 l 0.842173,-0.574249 1.476307,1.006829 c 0.8222435,0.560762 1.5366295,1.030458 1.6124605,1.060165 0.08135,0.03187 0.218088,0.05736 0.339708,0.06333 0.132719,0.0065 0.247186,-0.0035 0.328932,-0.0289 z"
       id="path856" /></g></svg>
