<svg width="156" height="156" viewBox="0 0 156 156" fill="none" xmlns="http://www.w3.org/2000/svg">
<circle cx="78" cy="78" r="78" fill="#F175C0"/>
<path d="M39.3871 83.384C37.6805 83.384 36.2298 83.064 35.0351 82.424C33.8618 81.784 32.9658 80.8987 32.3471 79.768C31.7285 78.6373 31.4191 77.336 31.4191 75.864C31.4191 74.456 31.7818 73.1867 32.5071 72.056C33.2325 70.9253 34.2031 70.0293 35.4191 69.368C36.6351 68.6853 37.9898 68.344 39.4831 68.344C41.4885 68.344 43.1311 68.9307 44.4111 70.104C45.7125 71.256 46.5551 72.9307 46.9391 75.128L36.0591 78.584L35.0671 76.152L42.9391 73.496L42.0111 73.912C41.8405 73.3573 41.5311 72.8773 41.0831 72.472C40.6565 72.0453 40.0058 71.832 39.1311 71.832C38.4698 71.832 37.8831 71.992 37.3711 72.312C36.8805 72.6107 36.4965 73.048 36.2191 73.624C35.9631 74.1787 35.8351 74.84 35.8351 75.608C35.8351 76.4827 35.9951 77.2187 36.3151 77.816C36.6351 78.392 37.0725 78.8293 37.6271 79.128C38.1818 79.4267 38.8005 79.576 39.4831 79.576C39.9738 79.576 40.4431 79.4907 40.8911 79.32C41.3605 79.1493 41.8191 78.9253 42.2671 78.648L44.2511 81.976C43.5045 82.4027 42.6938 82.744 41.8191 83C40.9658 83.256 40.1551 83.384 39.3871 83.384ZM54.2586 69.016L54.6106 71.48L54.5466 71.288C55.1013 70.3493 55.7946 69.624 56.6266 69.112C57.4586 68.5787 58.4613 68.312 59.6346 68.312C60.4026 68.312 61.0746 68.4187 61.6506 68.632C62.248 68.8453 62.7493 69.1653 63.1546 69.592C63.56 69.9973 63.8373 70.5307 63.9866 71.192L63.8266 71.224C64.424 70.3493 65.1386 69.6453 65.9706 69.112C66.824 68.5787 67.7093 68.312 68.6266 68.312C70.0133 68.312 71.112 68.7067 71.9226 69.496C72.7546 70.264 73.1813 71.2667 73.2026 72.504V83H68.7546V74.36C68.7333 73.7413 68.6373 73.24 68.4666 72.856C68.296 72.4507 67.9013 72.2267 67.2826 72.184C66.5573 72.184 65.9386 72.44 65.4266 72.952C64.936 73.4427 64.5626 74.0827 64.3066 74.872C64.072 75.64 63.9546 76.44 63.9546 77.272V83H59.4746V74.36C59.4533 73.7413 59.336 73.24 59.1226 72.856C58.9306 72.4507 58.5253 72.2267 57.9066 72.184C57.2026 72.184 56.6053 72.44 56.1146 72.952C55.6453 73.4427 55.2826 74.072 55.0266 74.84C54.792 75.608 54.6746 76.3973 54.6746 77.208V83H50.1946V69.016H54.2586ZM76.7316 75.832C76.7316 74.4027 77.0623 73.1227 77.7236 71.992C78.4063 70.8613 79.3556 69.976 80.5716 69.336C81.7876 68.6747 83.185 68.344 84.7636 68.344C86.3636 68.344 87.7503 68.6747 88.9236 69.336C90.097 69.976 90.993 70.8613 91.6116 71.992C92.2516 73.1227 92.5716 74.4027 92.5716 75.832C92.5716 77.2613 92.2516 78.552 91.6116 79.704C90.993 80.8347 90.097 81.7307 88.9236 82.392C87.7503 83.0533 86.3423 83.384 84.6996 83.384C83.1636 83.384 81.7876 83.0853 80.5716 82.488C79.377 81.8907 78.4383 81.0267 77.7556 79.896C77.073 78.7653 76.7316 77.4107 76.7316 75.832ZM81.2436 75.864C81.2436 76.5893 81.393 77.2507 81.6916 77.848C81.9903 78.424 82.3956 78.8827 82.9076 79.224C83.4196 79.5653 83.9956 79.736 84.6356 79.736C85.3396 79.736 85.9476 79.5653 86.4596 79.224C86.9716 78.8827 87.3663 78.424 87.6436 77.848C87.921 77.2507 88.0596 76.5893 88.0596 75.864C88.0596 75.1173 87.921 74.456 87.6436 73.88C87.3663 73.304 86.9716 72.8453 86.4596 72.504C85.9476 72.1627 85.3396 71.992 84.6356 71.992C83.9956 71.992 83.4196 72.1627 82.9076 72.504C82.3956 72.8453 81.9903 73.304 81.6916 73.88C81.393 74.456 81.2436 75.1173 81.2436 75.864ZM107.973 81.752C107.354 82.2427 106.576 82.6373 105.637 82.936C104.72 83.2347 103.813 83.384 102.917 83.384C101.317 83.384 99.9195 83.096 98.7249 82.52C97.5515 81.9227 96.6342 81.08 95.9729 79.992C95.3329 78.8827 95.0129 77.5493 95.0129 75.992C95.0129 74.4347 95.3649 73.112 96.0689 72.024C96.7729 70.9147 97.6902 70.072 98.8209 69.496C99.9729 68.92 101.178 68.632 102.437 68.632C103.696 68.632 104.784 68.8027 105.701 69.144C106.64 69.4853 107.44 69.9333 108.101 70.488L105.925 73.368C105.626 73.1333 105.21 72.8987 104.677 72.664C104.165 72.408 103.557 72.28 102.853 72.28C102.234 72.28 101.669 72.44 101.157 72.76C100.645 73.08 100.24 73.5173 99.9409 74.072C99.6422 74.6267 99.4929 75.2667 99.4929 75.992C99.4929 76.6747 99.6529 77.304 99.9729 77.88C100.293 78.456 100.73 78.9147 101.285 79.256C101.861 79.576 102.533 79.736 103.301 79.736C103.792 79.736 104.24 79.672 104.645 79.544C105.072 79.3947 105.434 79.192 105.733 78.936L107.973 81.752ZM118.293 83.384C116.587 83.384 115.136 83.064 113.941 82.424C112.768 81.784 111.872 80.8987 111.253 79.768C110.635 78.6373 110.325 77.336 110.325 75.864C110.325 74.456 110.688 73.1867 111.413 72.056C112.139 70.9253 113.109 70.0293 114.325 69.368C115.541 68.6853 116.896 68.344 118.389 68.344C120.395 68.344 122.037 68.9307 123.317 70.104C124.619 71.256 125.461 72.9307 125.845 75.128L114.965 78.584L113.973 76.152L121.845 73.496L120.917 73.912C120.747 73.3573 120.437 72.8773 119.989 72.472C119.563 72.0453 118.912 71.832 118.037 71.832C117.376 71.832 116.789 71.992 116.277 72.312C115.787 72.6107 115.403 73.048 115.125 73.624C114.869 74.1787 114.741 74.84 114.741 75.608C114.741 76.4827 114.901 77.2187 115.221 77.816C115.541 78.392 115.979 78.8293 116.533 79.128C117.088 79.4267 117.707 79.576 118.389 79.576C118.88 79.576 119.349 79.4907 119.797 79.32C120.267 79.1493 120.725 78.9253 121.173 78.648L123.157 81.976C122.411 82.4027 121.6 82.744 120.725 83C119.872 83.256 119.061 83.384 118.293 83.384Z" fill="white"/>
</svg>
