<?xml version="1.0" encoding="UTF-8" standalone="no"?>
<!-- Created with Inkscape (http://www.inkscape.org/) -->

<svg
   width="1100"
   height="600"
   viewBox="0 0 291.04167 158.74999"
   version="1.1"
   id="svg5"
   xml:space="preserve"
   inkscape:version="1.2.2 (732a01da63, 2022-12-09)"
   sodipodi:docname="planetla_oranžová_v3.svg"
   xmlns:inkscape="http://www.inkscape.org/namespaces/inkscape"
   xmlns:sodipodi="http://sodipodi.sourceforge.net/DTD/sodipodi-0.dtd"
   xmlns="http://www.w3.org/2000/svg"
   xmlns:svg="http://www.w3.org/2000/svg"><sodipodi:namedview
     id="namedview7"
     pagecolor="#ffffff"
     bordercolor="#000000"
     borderopacity="0.25"
     inkscape:showpageshadow="2"
     inkscape:pageopacity="0.0"
     inkscape:pagecheckerboard="0"
     inkscape:deskcolor="#d1d1d1"
     inkscape:document-units="mm"
     showgrid="false"
     inkscape:zoom="0.64"
     inkscape:cx="317.1875"
     inkscape:cy="358.59375"
     inkscape:window-width="1920"
     inkscape:window-height="991"
     inkscape:window-x="2391"
     inkscape:window-y="594"
     inkscape:window-maximized="1"
     inkscape:current-layer="layer1"
     inkscape:lockguides="false"
     showguides="true" /><defs
     id="defs2"><clipPath
       clipPathUnits="userSpaceOnUse"
       id="clipPath10073"><path
         id="path10075"
         style="fill:#ff0000;fill-opacity:1;fill-rule:nonzero;stroke:none;stroke-width:0.264583"
         d="M 3.9866264,91.350214 V 182.41494 H 290.61409 V 91.350214 Z M 213.59399,100.0365 h 5.3e-4 v 10e-4 h 5.3e-4 l 5.3e-4,5.3e-4 v 5.3e-4 c 0.12952,0 0.25279,0.0849 0.33744,0.23616 0.0188,-0.003 0.0381,-0.005 0.0579,-0.007 0.0299,-0.003 0.0589,-0.005 0.0873,-0.005 0.12342,7.9e-4 0.23493,0.0324 0.34779,0.1018 0.0354,0.0218 0.0657,0.0506 0.0987,0.076 0.0447,0.0404 0.0745,0.0932 0.1111,0.14056 0.0185,-0.0202 0.0411,-0.0309 0.0641,-0.0326 0.0422,-0.003 0.078,0.0371 0.0971,0.0982 0.002,-8e-4 0.003,-0.001 0.005,-0.002 0.01,-10e-4 0.0258,0.005 0.0506,0.0207 0.0133,0.009 0.0272,0.0158 0.0398,0.0258 0.006,0.004 0.01,0.0105 0.015,0.0165 0.001,0.001 0.002,0.003 0.003,0.005 0.007,-0.0132 0.0191,-0.0204 0.0305,-0.0212 0.002,-1.1e-4 0.003,0.004 0.004,0.007 0.006,-0.005 0.0129,-0.008 0.0202,-0.009 0.0212,-0.001 0.0429,0.0193 0.0429,0.0615 v 5.3e-4 0.005 h 10e-4 c 4e-5,5.3e-4 -5e-5,7.9e-4 0,10e-4 l -5.3e-4,-5.3e-4 v 0.001 h 5.3e-4 v 5.3e-4 c 2.6e-4,0.002 -1.3e-4,0.004 5.3e-4,0.006 1.1e-4,8e-4 -7e-5,0.002 0,0.003 v 5.3e-4 c 1.6e-4,2.6e-4 5e-5,7.9e-4 5.3e-4,0.001 v 5.3e-4 5.2e-4 c 2.6e-4,0.001 10e-4,0.002 0.002,0.003 l 0.003,0.0119 c 0.001,0.004 8e-4,0.008 0.002,0.0139 7e-5,5.3e-4 5.3e-4,0.001 5.3e-4,0.002 v 5.3e-4 c 2.4e-4,5.3e-4 1e-4,0.001 5.3e-4,0.002 0.002,0.004 0.003,0.008 0.005,0.0119 0.002,0.004 0.002,0.008 0.004,0.0119 l 0.003,0.009 c 0.003,0.009 -0.005,0.01 -0.009,0.006 -0.002,2e-5 -0.003,0.006 -0.004,0.002 -0.002,0.002 -0.004,0.002 -0.006,10e-4 -0.001,-10e-4 -0.003,-0.004 -0.003,-0.006 -9e-5,-0.002 -8e-4,-0.004 -0.001,-0.006 -0.003,0.0171 -0.006,0.0353 -0.016,0.0393 -0.006,0.005 -0.006,0.0208 -0.0134,0.0212 0.007,0.083 -0.0302,0.14204 -0.0951,0.12505 0.12907,0.49093 -0.31675,0.7665 -0.70332,0.40928 -0.0106,0.55356 -0.64888,0.66659 -0.89607,-0.0393 -0.0328,-0.0936 -0.0648,-0.18752 -0.0879,-0.28422 -0.0161,-0.0713 -0.0288,-0.11792 -0.0393,-0.19122 -0.0106,-0.0708 -0.0134,-0.14204 -0.0124,-0.21341 h -5.3e-4 c 0.006,-0.44082 0.22798,-0.66164 0.44907,-0.66198 z M 67.095435,139.44754 c 0.0064,-2e-4 0.0127,-2.6e-4 0.01913,0 0.12323,0.006 0.255744,0.1105 0.335897,0.34261 0.272978,0.79048 0.521459,1.58925 0.760677,2.39107 0.105074,-0.0768 0.201549,-0.0945 0.289388,-0.0899 0.01111,-0.005 0.0058,-0.003 0.01757,-0.008 0.07882,-0.0362 0.158414,-0.0716 0.238231,-0.10749 0.174225,-0.1684 0.346421,-0.33996 0.497125,-0.52761 0.140944,-0.1755 0.298286,-0.25379 0.428398,-0.2589 0.114284,-0.005 0.201906,0.0519 0.24443,0.14263 0.138671,-0.1016 0.271391,-0.14386 0.381373,-0.14212 0.294492,0.005 0.425029,0.31985 0.06615,0.62426 -0.363813,0.30853 -0.800214,0.51737 -1.235586,0.71468 -0.160531,0.14858 -0.323265,0.29572 -0.496091,0.42737 -0.05591,0.0346 -0.114964,0.0693 -0.175183,0.0992 0.144465,0.49534 0.28916,0.99085 0.43408,1.4857 l 0.300242,1.04025 c 0.181554,0.62913 -0.454033,0.81258 -0.635622,0.18345 -0.09987,-0.34601 -0.199853,-0.69217 -0.299723,-1.03818 -0.155241,-0.53011 -0.310568,-1.06044 -0.466121,-1.5906 -0.04534,0.0179 -0.08872,0.0311 -0.129707,0.0393 0.0049,0.0145 0.01003,0.0289 0.01498,0.0434 0.116181,0.0785 0.157914,0.20785 0.113686,0.33125 v 5.3e-4 c 0.0603,0.17461 0.121016,0.34906 0.180354,0.524 0.210283,0.62012 -0.416036,0.83251 -0.626319,0.21239 -0.02862,-0.0844 -0.08967,-0.26362 -0.134877,-0.39635 -0.07955,0.0218 -0.158713,0.0453 -0.238228,0.0672 -0.204089,0.0581 -0.409509,0.1081 -0.619083,0.1416 -0.204605,0.0296 -0.411168,0.0382 -0.617535,0.046 0.0013,0.11904 0.0024,0.23804 0.0036,0.35708 5.29e-4,0.0571 0.0011,0.11447 0.0016,0.17157 0.0042,0.51313 -0.37663,0.64726 -0.578776,0.4041 -0.04716,0.0879 -0.119452,0.12997 -0.197403,0.14935 0.0136,0.4841 -0.528268,0.57457 -0.707967,-0.0103 -0.03336,-0.10861 -0.03963,-0.13525 -0.04961,-0.16795 -0.02463,0.0121 -0.05185,0.0133 -0.07958,0.009 -0.0048,0.0653 -0.02848,0.11423 -0.06253,0.14417 0.04603,0.19095 -0.0743,0.28802 -0.192236,0.23513 -0.06125,0.1018 -0.223932,0.10073 -0.331763,-0.0909 -0.0056,-0.01 -0.01093,-0.02 -0.01654,-0.03 -0.02072,-0.0387 -0.04066,-0.0777 -0.06046,-0.11679 -0.03826,-0.032 -0.07325,-0.0823 -0.09767,-0.15348 -0.0021,-0.006 -0.0038,-0.0105 -0.0057,-0.0165 -0.0108,-0.0307 -0.02082,-0.0617 -0.03514,-0.0909 -0.01709,-0.0335 -0.03423,-0.0672 -0.05013,-0.10128 -0.01881,-0.0362 -0.04053,-0.0709 -0.0553,-0.10904 -0.0087,-0.0187 -0.01754,-0.0371 -0.02635,-0.0558 -0.0042,-0.009 -0.0099,-0.0179 -0.01241,-0.0269 5.3e-4,5.2e-4 0.0016,0.002 0.0021,0.002 v 5.3e-4 c 0.04614,0.047 0.07917,0.0585 0.103354,0.0481 -5.29e-4,-0.003 -0.0019,-0.007 -0.0026,-0.0103 -0.01254,-0.0826 -0.02016,-0.1654 -0.01757,-0.24908 0.0021,-0.0702 0.01812,-0.12613 0.04238,-0.16795 -0.0098,-0.0234 -0.02106,-0.0462 -0.03049,-0.0698 -0.07461,-0.18638 0.0035,-0.30136 0.108522,-0.30334 0.07667,-10e-4 0.167716,0.0576 0.224276,0.19276 5.3e-4,0.002 0.0013,0.003 0.0021,0.005 0.02514,-0.027 0.05774,-0.0426 0.09353,-0.0434 0.02867,-8e-4 0.05913,0.008 0.08888,0.0269 -2.65e-4,-0.14726 0.07404,-0.22849 0.157615,-0.22738 0.0021,2e-5 0.0041,2.2e-4 0.0062,5.3e-4 -0.0026,-0.0532 -0.01669,-0.10511 -0.01497,-0.15866 0.01111,-0.34707 0.180776,-0.52038 0.350366,-0.52038 0.06692,0 0.133938,0.0271 0.191204,0.0811 0.06278,-0.16174 0.177123,-0.24908 0.296622,-0.24908 0.109992,0 0.220647,0.0686 0.288353,0.20567 0.06043,-0.15888 0.170673,-0.24991 0.287841,-0.25581 0.155506,-0.008 0.31455,0.12183 0.355015,0.39431 0.228626,-0.0494 0.458552,-0.0923 0.690914,-0.12041 0.0086,-0.001 0.0172,-0.002 0.02585,-0.003 0.02695,-0.0134 0.05408,-0.0281 0.07907,-0.0403 0.06239,-0.0193 0.07284,-0.0251 0.140041,-0.0331 0.0585,-0.007 0.11866,0.002 0.177249,-0.005 0.04241,-0.002 0.08478,-0.005 0.127125,-0.008 -0.07198,-0.21147 -0.151744,-0.44858 -0.192752,-0.56741 -0.153358,-0.44434 -0.323482,-0.88274 -0.467672,-1.33015 -0.03478,-0.10791 -0.0589,-0.2192 -0.08837,-0.32866 -0.08781,-0.32602 0.03296,-0.49613 0.199986,-0.49971 0.156906,-0.003 0.354253,0.14016 0.458369,0.43976 0.19916,0.57303 0.394499,1.14754 0.591696,1.72135 0.03156,-0.0201 0.06663,-0.0394 0.10542,-0.0568 0.02938,-0.0134 0.01844,-0.009 0.04393,-0.0202 -0.240022,-0.80677 -0.487114,-1.61128 -0.753444,-2.40967 -0.12546,-0.3761 0.03952,-0.63212 0.236678,-0.63821 z" /></clipPath><clipPath
       clipPathUnits="userSpaceOnUse"
       id="clipPath10361"><path
         id="path10363"
         style="fill:#ff0000;fill-opacity:1;fill-rule:nonzero;stroke:none;stroke-width:0.264583"
         d="M 23.390609,95.214578 V 172.20161 H 264.69888 V 95.214578 Z m 190.755281,5.219832 h 5.3e-4 c 0.002,-6e-5 0.003,1e-5 0.005,0 0.0592,-2e-4 0.13068,0.0394 0.18758,0.13178 0.0108,0.0175 0.0225,0.0343 0.0336,0.0517 0.0205,-0.044 0.0597,-0.0694 0.10439,-0.0698 0.0132,-1.2e-4 0.027,0.0107 0.0408,0.015 0.0191,-0.0526 0.0633,-0.083 0.11369,-0.0817 0.0404,10e-4 0.0827,0.0319 0.12196,0.078 0.0187,-0.0135 0.0404,-0.0209 0.063,-0.0217 0.0652,-0.002 0.13816,0.0512 0.17053,0.17363 0.007,0.0276 0.0135,0.0553 0.0191,0.0832 0.0118,0.002 0.022,0.0148 0.0207,0.0382 -1.3e-4,0.002 2.1e-4,0.005 5.3e-4,0.007 0.001,0.002 5.3e-4,0.005 0.002,0.007 l 0.006,0.0155 c 0.002,0.004 0.004,0.009 0.005,0.0145 0.001,0.004 0.003,0.009 0.004,0.0129 0.003,0.007 0.005,0.0131 0.006,0.0202 0.001,0.007 0.003,0.0126 0.004,0.0196 0.002,0.0118 0.004,0.0234 0.006,0.0351 2.6e-4,0.002 10e-4,0.005 0.002,0.007 5.3e-4,0.002 0.001,0.004 0.002,0.006 2.7e-4,0.001 5.3e-4,0.002 0.001,0.003 v 5.3e-4 c 1.6e-4,5.3e-4 6e-5,0.001 5.3e-4,0.002 1.2e-4,2.5e-4 5.3e-4,7.9e-4 5.3e-4,10e-4 v 5.3e-4 c 1.5e-4,8e-4 -1.5e-4,5.3e-4 5.3e-4,0.002 5.3e-4,10e-4 0.001,0.002 0.002,0.004 1.3e-4,5.3e-4 2.2e-4,0.001 5.2e-4,0.002 0.002,0.004 0.003,0.008 0.005,0.0124 9e-5,2.6e-4 5.3e-4,5.3e-4 5.3e-4,10e-4 2.7e-4,7.9e-4 8e-4,0.002 0.001,0.003 l 0.006,0.0155 c 0.002,0.004 0.004,0.009 0.005,0.0129 0.001,0.003 0.002,0.007 0.004,0.01 1.3e-4,5.3e-4 5e-5,10e-4 5.3e-4,0.002 l 5.3e-4,5.3e-4 c 0.003,0.005 -2.7e-4,0.009 -0.003,0.009 0.003,0.008 0.005,0.0167 0.008,0.0243 0.0153,0.0475 -0.0328,0.0632 -0.0496,0.0186 0.004,0.0371 0.01,0.0774 0.002,0.10387 0.006,0.0159 0.0129,0.0305 0.0191,0.0465 0.0773,0.19657 -0.0464,0.30613 -0.1602,0.24649 -0.0649,0.0431 -0.16677,0.0205 -0.23513,-0.1173 -0.0156,-0.0314 -0.0314,-0.0629 -0.047,-0.0941 -0.0415,-0.0834 -0.0528,-0.10665 -0.0879,-0.17414 -0.0116,0.01 -0.0229,0.0204 -0.0377,0.0248 0.002,0.003 0.004,0.007 0.006,0.0103 0.0664,0.11311 0.034,0.0579 0.0961,0.16537 0.14482,0.25045 -0.10791,0.39681 -0.25269,0.14624 -10e-4,-0.002 -5.3e-4,0.001 -0.002,-0.003 -0.0477,0.085 -0.17095,0.0979 -0.26821,-0.0553 -0.0114,-0.0179 -0.0228,-0.0348 -0.0341,-0.0527 -0.0243,0.0305 -0.0566,0.0491 -0.0951,0.0465 0.0941,0.18937 -0.0927,0.32215 -0.25838,0.12248 -0.0626,-0.0754 -0.0699,-0.0838 -0.0879,-0.10646 -0.0872,0.0348 -0.18999,-0.0263 -0.17983,-0.20308 10e-4,-0.0194 5.3e-4,-0.0186 0.002,-0.0289 -0.0391,-0.0553 -0.0771,-0.11345 -0.11162,-0.17105 -0.0303,-0.0506 -0.0496,-0.084 -0.0708,-0.13694 -0.004,-0.009 -0.005,-0.0183 -0.008,-0.0269 -0.0436,-0.14744 0.001,-0.22858 0.0734,-0.23357 0.0513,-0.004 0.11684,0.0314 0.17363,0.108 0.0263,-0.0666 0.0651,-0.11271 0.11215,-0.11679 0.002,-1.7e-4 0.004,-0.001 0.006,-0.001 h 5.3e-4 5.3e-4 c 0.002,-1e-5 0.003,0.002 0.005,0.003 0.005,-0.009 0.0151,-0.007 0.0212,-0.0145 v -5.3e-4 c 0.0154,-0.0479 0.0524,-0.0788 0.0992,-0.0822 0.002,-1.3e-4 0.003,-0.001 0.005,-0.001 l 5.3e-4,5.3e-4 c 0.0516,-0.002 0.11391,0.03 0.17052,0.10801 0.0939,0.12934 0.18101,0.26332 0.26873,0.39687 0.0175,-0.0321 5.3e-4,-0.10946 -0.0114,-0.17776 -0.0184,-0.0279 -0.0376,-0.056 -0.0553,-0.0842 -0.01,-0.0158 -0.0189,-0.032 -0.0279,-0.0481 -0.0905,-0.15335 -0.028,-0.26241 0.0682,-0.26613 z M 70.710201,141.76936 v 5.3e-4 5.3e-4 5.3e-4 5.3e-4 5.3e-4 5.2e-4 5.3e-4 c 0.313735,-0.007 0.358151,0.35079 -0.03256,0.51057 -0.0676,0.0277 -0.133715,0.0623 -0.189134,0.11059 -0.01006,0.009 -0.02117,0.0206 -0.03204,0.0315 0.09075,0.0451 0.09655,0.0702 -0.04961,0.14883 -0.01585,0.0886 -0.02829,0.17808 -0.05788,0.26355 -0.01537,0.0444 -0.03482,0.0871 -0.05219,0.13074 -0.06006,0.12754 -0.140579,0.23999 -0.251148,0.32866 -0.0343,0.0275 -0.07046,0.0537 -0.109553,0.0739 -0.112766,0.0582 -0.157872,0.0609 -0.275953,0.0873 -0.130744,0.0292 -0.230576,0.0106 -0.301273,-0.031 -0.142108,0.0132 -0.22933,-0.0794 -0.23151,-0.20153 -0.051,0.0292 -0.102391,0.0578 -0.153996,0.0858 -0.05265,0.0263 -0.105169,0.0529 -0.158131,0.0785 -0.10509,0.0508 -0.205086,0.097 -0.313674,0.14004 -0.02911,0.0115 -0.05958,0.0186 -0.08888,0.0295 -0.114345,0.0768 -0.233471,0.14656 -0.352433,0.21497 -0.06768,0.0325 -0.133712,0.068 -0.202573,0.0971 -0.146055,0.0633 -0.330075,0.12753 -0.480589,0.17674 -0.01897,0.006 -0.03836,0.0111 -0.05736,0.017 0.02669,0.12687 0.05431,0.25361 0.08113,0.38034 0.08498,0.37238 0.04298,0.19036 0.127125,0.54673 0.07741,0.32793 -0.125037,0.47852 -0.296625,0.39016 0.01561,0.0295 0.03138,0.0589 0.04703,0.0884 0.230098,0.43386 -0.208147,0.66645 -0.438216,0.23254 -0.02805,-0.0529 -0.05531,-0.10619 -0.0832,-0.15916 0.07553,0.3521 -0.295611,0.47977 -0.482658,0.10025 0.0066,0.0183 0.01304,0.0365 0.01963,0.0548 0.08838,0.24502 -0.0026,0.40303 -0.13126,0.43253 0.07095,0.35136 -0.310367,0.47675 -0.494543,0.077 -0.07865,-0.17073 -0.14927,-0.3449 -0.221692,-0.51832 -0.02045,0.0443 -0.05249,0.0746 -0.08837,0.0956 0.0063,0.025 0.01236,0.05 0.0186,0.0749 0.05269,0.20987 -0.01339,0.34525 -0.111622,0.39636 -0.07925,0.11828 -0.250894,0.11657 -0.383956,-0.0486 -0.04679,0.009 -0.101097,0.002 -0.157096,-0.0228 0.01077,0.21571 -0.173151,0.32037 -0.34313,0.20877 -0.10541,0.0457 -0.257273,0.004 -0.378272,-0.18707 -0.02016,-0.0318 -0.02365,-0.0383 -0.03049,-0.0491 -0.04015,0.0116 -0.09344,-0.0103 -0.126606,-0.0822 -0.0026,-0.006 -0.0052,-0.0111 -0.0078,-0.0171 -0.0013,-0.003 -0.0019,-0.007 -0.0031,-0.0103 -0.05373,0.0301 -0.123577,-0.0102 -0.116272,-0.12041 0.0013,-0.022 -0.0068,-0.0424 -0.01344,-0.063 -0.0076,-0.0238 -0.01871,-0.046 -0.02997,-0.0682 -0.01466,-0.0207 -0.02765,-0.0421 -0.03927,-0.0646 -0.0098,-0.0196 -0.005,-0.01 -0.01498,-0.0305 -0.01834,-0.0382 -0.01749,-0.0675 -0.01241,-0.0935 -0.0084,-0.0205 -0.01617,-0.0412 -0.02376,-0.062 -0.0016,-0.004 -0.003,-0.009 -0.0047,-0.0134 -0.0019,-0.005 -0.0034,-0.01 -0.0052,-0.0145 -0.0052,-0.0149 -0.01069,-0.0299 -0.0155,-0.045 -0.0013,-0.004 -0.0024,-0.008 -0.0036,-0.0119 -7.93e-4,-0.002 -0.0019,-0.004 -0.0026,-0.007 -0.0096,-0.0318 -0.0186,-0.064 -0.02739,-0.0961 -0.004,-0.012 -0.0051,-0.0173 -0.0098,-0.0289 -0.0049,-0.0122 -0.01151,-0.0239 -0.01757,-0.0357 -0.0016,-0.003 -0.0026,-0.006 -0.0041,-0.009 -5.29e-4,-7.9e-4 -0.0011,-0.002 -0.0016,-0.003 -0.01111,-0.0208 -0.02275,-0.0414 -0.0341,-0.062 -0.01286,-0.0233 -0.02617,-0.0464 -0.03876,-0.0698 -0.0077,-0.015 -0.01479,-0.0304 -0.02119,-0.046 -0.0052,-0.0127 -0.01042,-0.0254 -0.01344,-0.0388 l -5.29e-4,-5.3e-4 c -0.0067,-0.03 0.004,-0.0473 0.0186,-0.0496 0.0055,-8e-4 0.01164,2.4e-4 0.01757,0.004 2.65e-4,-0.008 -0.0016,-0.0151 -5.29e-4,-0.0227 h -5.29e-4 c 0.0065,-0.0465 0.02291,-0.0791 0.04341,-0.0987 -0.0026,-0.0167 -0.0088,-0.0327 -0.01085,-0.0496 -0.0076,-0.0764 -0.01,-0.15266 -0.0083,-0.22945 0.0057,-0.24548 0.132379,-0.36844 0.256315,-0.36844 0.0032,0 0.0061,2.1e-4 0.0093,5.3e-4 0.02774,-0.0283 0.06125,-0.0482 0.103351,-0.0481 0.106717,2.6e-4 0.247163,0.0931 0.357601,0.28629 0.0048,0.008 0.0097,0.0165 0.01447,0.0248 0.03306,0.0194 0.0626,0.0494 0.08578,0.0899 -0.003,-0.0422 0.0026,-0.0848 0,-0.12712 -0.01564,-0.24506 0.100084,-0.36794 0.223759,-0.36794 0.0326,2e-5 0.06569,0.009 0.09715,0.0264 -0.02751,-0.15078 -0.05466,-0.30188 -0.05633,-0.45475 -0.0026,-0.24554 0.119594,-0.36846 0.243395,-0.36846 0.07166,0 0.143973,0.0412 0.192755,0.12351 0.0019,-0.002 0.006,-0.0266 0.0078,-0.0269 0.02659,-0.004 0.05411,0.22007 0.27492,0.31057 -0.01042,-0.10215 -0.02678,-0.20373 -0.02429,-0.30696 0.0059,-0.24539 0.132805,-0.36794 0.256831,-0.36794 0.01659,0 0.03291,0.002 0.04909,0.007 -0.06589,-0.2333 0.03715,-0.38222 0.177766,-0.38138 0.06854,2.5e-4 0.139081,0.0507 0.203605,0.12661 0.04519,0.0103 0.110791,0.0626 0.205673,0.16692 0.02648,0.0291 0.05519,0.055 0.07907,0.0863 0.0543,0.0711 0.15676,0.24382 0.196371,0.31162 0.05767,0.0987 0.113316,0.19846 0.167947,0.29869 0.0097,-0.005 0.01926,-0.0105 0.02894,-0.015 0.01789,-0.0475 0.05729,-0.0917 0.11317,-0.12918 -0.01196,-0.0715 -0.02268,-0.14314 -0.03101,-0.21499 -0.0053,-0.0461 -0.0064,-0.0923 -0.0098,-0.13848 -0.01749,-0.23726 0.08383,-0.35532 0.199988,-0.35813 0.123653,-0.003 0.263919,0.12446 0.295589,0.37569 0.0069,0.0549 0.01455,0.10963 0.02273,0.16433 0.04578,-0.0227 0.09178,-0.0459 0.136425,-0.0708 0.07664,-0.0441 0.153781,-0.0869 0.229962,-0.13179 0.298019,-0.17559 0.58937,-0.36546 0.90692,-0.5054 0.158867,-0.0713 0.317511,-0.14268 0.48214,-0.19998 0.138745,-0.0483 0.189524,-0.0585 0.330213,-0.0925 0.05758,-0.0139 0.115417,-0.0269 0.173117,-0.0403 0.15884,-0.0318 0.317627,-0.0603 0.477491,-0.0863 0.01995,-0.003 0.03996,-0.007 0.05994,-0.0109 0.08054,-0.0887 0.122256,-0.14106 0.218075,-0.21911 0.09906,-0.0807 0.215119,-0.13908 0.334862,-0.1819 0.06503,-0.0233 0.123846,-0.0353 0.175183,-0.0367 z" /></clipPath><clipPath
       clipPathUnits="userSpaceOnUse"
       id="clipPath20978"><path
         id="path20980"
         style="fill:#ff0000;fill-opacity:1;fill-rule:nonzero;stroke:none;stroke-width:0.264583"
         d="M 110.7136,127.24619 9.2580034,102.65807 5.1939388,119.42686 c 0.4813237,-0.56838 1.0721154,-0.80765 1.6149019,-0.75714 0.4040544,-1.42969 1.4292948,-2.03835 2.3137709,-1.81977 0.4088193,0.10099 0.7864937,0.38045 1.0598534,0.83538 0.02273,-0.29039 0.04667,-0.58078 0.07231,-0.87098 0.183715,-2.0791 1.378738,-2.92155 2.408683,-2.66773 0.677,0.1668 1.282458,0.80783 1.48251,1.88215 0.275797,-1.67384 1.389437,-2.45923 2.352767,-2.21761 0.6518,0.16347 1.233199,0.79872 1.440344,1.94425 0.485966,-0.61171 1.152427,-0.83866 1.757582,-0.68108 0.846456,0.22042 1.572561,1.19223 1.515734,2.91005 -0.04915,1.48584 -0.131282,2.97021 -0.229116,4.4535 0.0376,4.8e-4 0.07518,0.005 0.112651,0.0135 0.0027,6.3e-4 0.0055,0.002 0.008,0.002 0.261617,-0.45283 0.606839,-0.60942 0.880703,-0.54478 0.151831,0.0357 0.278994,0.14073 0.359469,0.29608 0.06187,-0.16583 0.127562,-0.33016 0.199122,-0.4925 0.204008,-0.46282 0.501051,-0.67645 0.770145,-0.70293 0.333149,-0.67011 0.874938,-0.93218 1.330475,-0.83192 0.158799,0.035 0.304054,0.11913 0.42938,0.24018 0.02625,-0.1278 0.0478,-0.21485 0.08326,-0.36105 0.272648,-1.125 0.977307,-1.54973 1.545511,-1.41204 0.479811,0.1163 0.857214,0.63777 0.800487,1.47334 0.139079,-0.0417 0.280254,-0.0485 0.41573,-0.0194 0.427426,0.0916 0.796137,0.53666 0.866497,1.32823 0.211125,-0.10092 0.426218,-0.12638 0.623187,-0.0856 0.627331,0.12991 1.072065,0.93334 0.628541,2.11919 -0.187818,0.50216 -0.390581,0.99861 -0.589709,1.49637 -0.275084,0.6746 -0.551395,1.34828 -0.801551,2.03261 -0.159196,0.43966 -0.292013,0.88798 -0.417381,1.33823 -0.122459,0.44676 -0.23344,0.89659 -0.344879,1.34622 -0.108842,0.43977 -0.219572,0.8792 -0.314092,1.32231 -0.06435,0.31253 -0.130067,0.62444 -0.199186,0.93594 -0.07171,0.29994 -0.137456,0.6007 -0.192519,0.90406 -0.04125,0.2567 -0.02074,0.12705 -0.06137,0.38925 -0.107178,0.69166 -0.393319,1.14098 -0.730505,1.36868 l 77.967915,18.89622 z m -96.601969,-8.86861 c -0.108569,1.48633 -0.181466,2.97488 -0.234929,4.46431 0.0388,3.6e-4 0.07751,0.002 0.116103,0.006 0.06458,-1.48942 0.111076,-2.97927 0.118825,-4.47012 z" /></clipPath><clipPath
       clipPathUnits="userSpaceOnUse"
       id="clipPath22187"><path
         id="path22189"
         style="fill:#ff0000;fill-opacity:1;fill-rule:nonzero;stroke:none;stroke-width:0.264583"
         d="m -18.681241,99.47995 c -0.59427,0.06197 -1.189379,0.114726 -1.785938,0.152445 -0.07183,0.627585 -0.787569,1.223065 -2.484085,1.757515 -0.415817,0.13099 -0.822315,0.29676 -1.247471,0.39326 -0.151484,0.0344 -0.287165,0.063 -0.413927,0.0879 -0.707885,0.58937 -1.457899,1.12969 -2.250509,1.58388 -0.556464,0.31887 -1.122201,0.63224 -1.722374,0.85835 -0.654283,0.24648 -1.344737,0.38166 -2.020033,0.56379 v 5.17539 h 12.281937 c -0.0094,-0.44887 0.0047,-0.91944 0.04393,-1.41128 0.0659,-0.8257 0.114472,-1.24518 0.119372,-2.07998 0.0073,-1.24558 -0.09542,-2.48935 -0.190169,-3.73 -0.107281,-1.217 -0.108127,-1.28985 -0.235127,-2.48977 -0.03039,-0.28715 -0.06305,-0.574335 -0.0956,-0.86145 z" /></clipPath><clipPath
       clipPathUnits="userSpaceOnUse"
       id="clipPath22187-8"><path
         id="path22189-2"
         style="fill:#ff0000;fill-opacity:1;fill-rule:nonzero;stroke:none;stroke-width:0.264583"
         d="m -18.681241,99.47995 c -0.59427,0.06197 -1.189379,0.114726 -1.785938,0.152445 -0.07183,0.627585 -0.787569,1.223065 -2.484085,1.757515 -0.415817,0.13099 -0.822315,0.29676 -1.247471,0.39326 -0.151484,0.0344 -0.287165,0.063 -0.413927,0.0879 -0.707885,0.58937 -1.457899,1.12969 -2.250509,1.58388 -0.556464,0.31887 -1.122201,0.63224 -1.722374,0.85835 -0.654283,0.24648 -1.344737,0.38166 -2.020033,0.56379 v 5.17539 h 12.281937 c -0.0094,-0.44887 0.0047,-0.91944 0.04393,-1.41128 0.0659,-0.8257 0.114472,-1.24518 0.119372,-2.07998 0.0073,-1.24558 -0.09542,-2.48935 -0.190169,-3.73 -0.107281,-1.217 -0.108127,-1.28985 -0.235127,-2.48977 -0.03039,-0.28715 -0.06305,-0.574335 -0.0956,-0.86145 z" /></clipPath><clipPath
       clipPathUnits="userSpaceOnUse"
       id="clipPath3032"><path
         id="path3034"
         style="fill:#ff0000;fill-opacity:1;fill-rule:nonzero;stroke:none"
         d="m 952.88867,72.212891 c 0.87434,3.614404 1.77007,7.225216 2.64649,10.835937 3.56599,13.852479 5.40905,27.989922 6.48437,42.224612 0.88213,13.16708 0.78144,26.37221 1.79297,39.52929 1.88036,15.60263 2.87169,31.28397 4.01953,46.95118 1.67671,0.20561 3.35638,0.38854 5.03125,0.60937 34.54862,-17.44993 65.48552,-31.47225 52.89062,8.33594 9.1164,1.23395 18.2717,2.15801 27.4512,2.87109 17.6677,1.09326 35.3654,1.59663 53.0586,2.06446 0.4358,0.0198 0.8709,0.0536 1.3066,0.0742 0.1122,-0.12151 0.2494,-0.21832 0.3594,-0.34179 0.5931,-0.66574 0.9947,-1.49886 1.6426,-2.11133 0.1319,-0.1247 0.362,0.0284 0.5429,0.043 0.2865,-0.50375 0.5231,-1.03786 0.8594,-1.50977 0.1117,-0.15668 0.3789,-0.17243 0.4629,-0.3457 1.4259,-2.95253 0.3337,-6.3926 0.6445,-9.51758 1.7169,-17.26099 5.4277,-31.98875 10.4492,-44.35156 v -22.75781 c -10.6453,-2.05094 -22.1427,-5.82341 -34.3496,-11.64844 -3.8884,-1.85557 -7.9167,-3.39289 -11.7773,-5.31055 -16.9867,-8.43746 -24.8692,-15.30315 -26.4668,-21.13281 -9.4008,-2.4351 -18.4698,-5.91308 -26.6758,-11.306641 -2.8943,-1.886338 -5.7142,-3.868943 -8.4687,-5.9375 -6.3219,1.976251 -12.6698,4.30789 -17.61917,8.789062 -4.78705,4.596769 -9.64055,9.164539 -13.94922,14.222659 -2.12124,2.74279 -4.44297,5.33654 -6.57617,8.07031 -0.0229,0.2085 -0.0422,0.38489 -0.0664,0.60742 0.0607,-0.008 0.13641,-0.0183 0.1543,-0.0195 -0.0741,0.18484 -0.16368,0.65588 -0.25977,1.01172 -0.0181,0.17147 -0.0263,0.24028 -0.0449,0.41992 -1.00659,4.16354 -0.42917,1.33735 0.0449,-0.41992 0.0427,-0.40513 0.0659,-0.62881 0.10547,-0.99219 -0.18754,0.0236 -0.4792,0.0621 -0.47656,0.0586 0.17301,-0.22796 0.36689,-0.44037 0.54297,-0.66602 0.66482,-6.04404 0.79013,-6.75497 -0.96094,-16.53516 -0.38691,-2.16084 -1.35172,-4.176765 -2.02734,-6.265621 -3.25215,-10.054803 -6.44295,-17.089234 -9.58985,-21.669922 -3.70666,-1.118962 -7.13993,-2.443251 -10.44531,-3.855469 -0.2483,-0.005 -0.48869,-0.01777 -0.73633,-0.02344 z m 48.65043,0.02344 c -0.3939,0.01318 -0.9118,0.06129 -1.1817,0.05664 -0.3228,-0.0055 -0.64588,0.0011 -0.96873,0 0.25976,0.03 0.52493,0.09137 0.78323,0.115234 0.6001,-0.0067 1.2921,0.298949 1.8008,-0.01953 0.2287,-0.14321 -0.04,-0.165526 -0.4336,-0.152344 z M 860.20508,81.9375 c -0.79008,0.05403 -1.53135,0.158216 -2.33399,0.199219 -7.60109,3.483463 -15.75727,5.958433 -24.53125,7.919922 -9.96154,1.996842 -20.10486,2.705022 -30.23437,3.179687 -1.63174,2.62203 -4.41421,5.185329 -8.57031,7.294922 -3.92255,1.99102 -5.36464,2.78011 -9.40821,4.59961 -4.55799,2.05103 -9.23367,3.82636 -13.95507,5.46094 -2.75227,0.96051 -5.49555,1.9493 -8.24415,2.91992 -3.37337,1.15458 -6.73045,2.35925 -10.13867,3.41016 -3.67935,1.10675 -7.36102,2.22739 -11.12109,3.03124 -2.46893,0.48872 -4.96156,0.94582 -7.48438,1.00782 -1.49177,0.0332 -2.98293,0.0177 -4.47461,-0.0254 -1.53803,-0.0486 -3.07577,-0.14387 -4.60351,-0.33594 -1.34278,3.40015 -2.65444,6.81249 -3.87305,10.26172 -3.64195,10.56788 -6.03897,21.51361 -8.20703,32.46289 -2.7438,14.19055 -4.21048,28.56317 -4.80469,42.99219 0.029,1.04263 0.12388,2.07754 0.17969,3.11718 17.9312,9.49137 30.6982,21.02564 38.48828,33.11329 13.12746,-18.96269 40.4428,-33.0058 82.10156,-31.82032 5.22173,0.1486 10.42944,0.56415 15.625,1.12305 6.9947,-1.75988 14.06024,-3.20577 21.26563,-3.91016 5.50889,-0.53854 10.25357,-0.75793 14.36133,-0.71289 -0.79283,-10.86561 -1.64025,-21.7263 -2.83985,-32.55664 -4.9236,-3.64588 -10.02225,-11.54424 -15.33398,-25.05469 -1.62198,-4.12528 -3.76837,-8.08188 -4.86524,-12.37695 -4.18041,-16.36993 -3.29542,-17.09065 -2.66015,-31.52539 0.452,-2.71877 0.83022,-5.45068 1.35547,-8.156249 1.03006,-5.30574 2.52326,-10.511077 4.30664,-15.619141 z" /></clipPath><clipPath
       clipPathUnits="userSpaceOnUse"
       id="clipPath3599"><path
         id="path3601"
         style="fill:#ff0000;fill-opacity:1;fill-rule:nonzero;stroke:none;stroke-width:0.264583"
         d="m -54.61495,60.301292 v 1.26e-4 c -0.123121,0.298992 -0.289376,0.579673 -0.506907,0.821197 -0.08186,0.09088 -0.172712,0.173781 -0.259,0.260472 -0.09177,0.07011 -0.183645,0.140239 -0.275416,0.210347 -0.967966,0.739496 -1.227604,0.396724 -1.239206,-0.30961 -0.08275,0.133088 -0.165122,0.266368 -0.249572,0.398405 -0.236602,0.37995 -0.514677,0.730665 -0.817041,1.05987 -0.01929,0.02098 -0.03847,0.03961 -0.05779,0.05998 -0.003,0.0076 -0.0058,0.01528 -0.0088,0.02291 0.121099,-0.100404 0.254668,-0.157589 0.388555,-0.172539 0.02605,-0.0163 0.05148,-0.0234 0.0762,-0.02217 0.02199,0.0011 0.04347,0.0088 0.06456,0.02205 0.17115,0.01896 0.335834,0.107859 0.468418,0.265029 0.03302,-0.02255 0.06638,-0.04461 0.100827,-0.06429 0.08647,-0.04939 0.150096,-0.07938 0.213633,-0.104559 -0.316215,-0.369044 -0.487296,-0.672711 0.145084,-0.673409 h 1.14e-4 c 0.02488,-2.6e-5 0.05102,-1.89e-4 0.07842,0.0014 0.322095,0.01091 0.624832,0.144167 0.922971,0.267124 0.121234,0.05 0.401233,0.169147 0.523878,0.221186 0.0052,0.0022 0.0027,0.0012 0.0077,0.0033 0.180398,0.04235 0.332898,0.110497 0.457437,0.196555 0.0043,0.0018 0.0026,0.0011 0.0071,0.0031 0.288707,0.124283 0.506539,0.283759 0.660643,0.458259 -0.0045,-0.08228 -0.02011,-0.182144 -0.04869,-0.302345 -0.0015,-0.0064 -0.0074,-0.02306 -0.0062,-0.02303 1.7e-4,4e-6 5.11e-4,1.89e-4 9.99e-4,9.83e-4 0.0095,0.01459 0.01385,0.03266 0.02229,0.04803 0.03322,0.06029 0.07293,0.115941 0.112917,0.170939 0.07954,0.109392 0.191966,0.246001 0.27464,0.34865 0.187582,0.216734 0.095,0.114396 0.276636,0.307519 1.268891,1.349134 0.02817,2.776439 -1.23244,1.417757 -0.246716,-0.265922 -0.123368,-0.127724 -0.369809,-0.415155 -0.02069,-0.0259 -0.04136,-0.05207 -0.06212,-0.07808 -0.08675,-0.02437 -0.176941,-0.05619 -0.270425,-0.09643 -0.174052,-0.07493 -0.2185,-0.09398 -0.26632,-0.114534 -0.199368,-0.0035 -0.395088,0.04026 -0.587991,0.09138 -0.03174,0.01731 -0.102322,0.02744 -0.118574,0.0734 -0.144551,0.408773 -0.349158,0.600008 -0.562146,0.639789 -0.254736,1.15752 -1.551736,1.089981 -1.737018,-0.488924 -0.02959,0.190391 -0.05645,0.381224 -0.08186,0.572177 -0.05643,0.391205 -0.09715,0.784556 -0.12401,1.178837 -0.02929,0.436481 -0.09567,0.869132 -0.151406,1.302732 -0.03398,0.251283 -0.04689,0.504979 -0.05679,0.75814 5.11e-4,0.02294 -5.11e-4,0.04616 -0.0011,0.06921 0.194408,0.346322 0.413529,0.679971 0.62526,1.014426 0.36586,0.557376 0.711284,1.129379 1.109983,1.664436 0.167876,0.225309 0.284482,0.367839 0.460432,0.588065 0.463174,0.538723 0.909621,1.092891 1.394273,1.612833 0.03551,0.0381 0.06238,0.0654 0.0945,0.09926 0.680871,0.196767 1.36236,0.392143 2.040276,0.598901 1.119488,0.321576 0.01464,0.003 1.059847,0.306901 0.148441,0.04315 0.297708,0.08509 0.446012,0.128697 0.08691,0.02551 0.173106,0.05257 0.259887,0.07857 0.0405,0.0122 0.0872,0.01094 0.121458,0.03571 0.0231,0.0168 -0.0564,-0.0059 -0.08474,-0.0089 -0.580256,-0.06222 -0.897893,0.006 -1.03722,0.16121 0.459833,-0.01728 0.919469,-0.04455 1.378744,-0.07229 1.048521,-0.05534 2.087846,-0.210959 3.126411,-0.357642 0.625993,-0.08877 1.256296,-0.143241 1.883655,-0.220693 0.179798,-0.02341 0.357696,-0.05817 0.531199,-0.111085 0.06179,-0.01884 0.124986,-0.03424 0.184017,-0.06047 0.0781,-0.03471 0.239793,-0.172528 0.28673,-0.209733 0.444029,-0.373729 0.848816,-0.78877 1.196835,-1.253714 0.167467,-0.223754 0.362475,-0.523506 0.516335,-0.75494 0.344041,-0.544488 0.686106,-1.097466 0.94205,-1.690421 0.03954,-0.09159 0.07339,-0.185663 0.110033,-0.278452 0.01603,-0.04448 0.03023,-0.08926 0.04393,-0.134363 -0.426874,-0.466719 -0.710482,-1.235462 -0.669739,-2.300653 0.0132,-0.34609 0.0049,-0.692395 0.007,-1.038688 0.0018,-0.299522 0.02792,-0.574693 0.07409,-0.825751 -0.204642,0.158978 -0.476868,0.18924 -0.746053,0.05616 -0.154575,-0.01849 -0.322397,-0.07794 -0.496703,-0.186456 -0.250314,-0.0091 -0.543409,-0.110019 -0.860522,-0.33572 -0.110068,-0.07834 -0.219938,-0.156957 -0.329546,-0.236089 -0.351025,-0.25342 -0.561814,-0.537613 -0.659312,-0.809371 -0.09445,-5.05e-4 -0.188949,-9.71e-4 -0.283403,-0.0012 -0.02902,0.02397 -0.05932,0.04753 -0.09129,0.07044 0.700409,0.665568 0.21814,1.813991 -1.14326,1.543868 -0.505505,-0.1003 -1.014793,-0.209792 -1.492216,-0.426115 -1.303379,-0.590571 -1.115833,-1.816774 -0.139982,-1.939441 0.05464,-0.03916 0.112565,-0.0776 0.174811,-0.114903 0.02962,-0.01775 0.05857,-0.03687 0.08885,-0.0532 0.231289,-0.124808 0.472801,-0.225236 0.715105,-0.321927 0.128074,-0.392913 0.553248,-0.727526 1.276032,-0.729322 0.116599,-3.15e-4 0.233247,-4.41e-4 0.349844,-3.78e-4 0.349787,1.26e-4 0.699529,0.0018 1.049309,0.0055 0.05211,5.67e-4 0.102533,0.003 0.151518,0.0069 -0.09625,-0.06565 -0.189449,-0.135275 -0.2783,-0.210225 -0.43653,-0.03309 -0.868907,-0.105736 -1.301211,-0.173156 -0.850251,-0.140463 -1.684628,-0.363314 -2.520783,-0.568975 -0.788086,-0.20018 -1.585111,-0.361382 -2.377585,-0.54262 -0.507409,-0.122561 -1.013004,-0.25179 -1.518726,-0.380794 -0.360405,-0.0016 -0.72071,-0.0034 -1.081144,-0.0063 -0.09971,-7.94e-4 -0.199328,-0.0027 -0.299042,-0.0037 z m 11.574573,2.743396 c 0.01753,0.02243 0.03463,0.04616 0.05147,0.07081 0.258752,0.287485 0.36038,0.6027 0.336644,0.877354 10e-4,0.0024 0.0016,0.0037 0.0028,0.0064 0.105737,0.249869 0.163032,0.480849 0.181576,0.688189 0.05925,-0.107364 0.123652,-0.206067 0.192448,-0.295818 -0.164936,-0.434145 -0.325134,-0.869926 -0.48683,-1.305316 -0.0016,-0.0038 -0.0032,-0.0077 -0.005,-0.01145 -0.08879,-0.0068 -0.179936,-0.01696 -0.273087,-0.03017 z" /></clipPath><filter
       style="color-interpolation-filters:sRGB"
       inkscape:label="Drop Shadow"
       id="filter7464"
       x="-10.680581"
       y="-10.690203"
       width="23.537775"
       height="22.483156"><feFlood
         flood-opacity="0.529412"
         flood-color="rgb(16,16,16)"
         result="flood"
         id="feFlood7454" /><feComposite
         in="flood"
         in2="SourceGraphic"
         operator="in"
         result="composite1"
         id="feComposite7456" /><feGaussianBlur
         in="composite1"
         stdDeviation="88.8889"
         result="blur"
         id="feGaussianBlur7458" /><feOffset
         dx="23.5016"
         dy="2.05047"
         result="offset"
         id="feOffset7460" /><feComposite
         in="SourceGraphic"
         in2="offset"
         operator="over"
         result="composite2"
         id="feComposite7462" /></filter><clipPath
       clipPathUnits="userSpaceOnUse"
       id="clipPath3599-1"><path
         id="path3601-7"
         style="fill:#ff0000;fill-opacity:1;fill-rule:nonzero;stroke:none;stroke-width:0.264583"
         d="m -54.61495,60.301292 v 1.26e-4 c -0.123121,0.298992 -0.289376,0.579673 -0.506907,0.821197 -0.08186,0.09088 -0.172712,0.173781 -0.259,0.260472 -0.09177,0.07011 -0.183645,0.140239 -0.275416,0.210347 -0.967966,0.739496 -1.227604,0.396724 -1.239206,-0.30961 -0.08275,0.133088 -0.165122,0.266368 -0.249572,0.398405 -0.236602,0.37995 -0.514677,0.730665 -0.817041,1.05987 -0.01929,0.02098 -0.03847,0.03961 -0.05779,0.05998 -0.003,0.0076 -0.0058,0.01528 -0.0088,0.02291 0.121099,-0.100404 0.254668,-0.157589 0.388555,-0.172539 0.02605,-0.0163 0.05148,-0.0234 0.0762,-0.02217 0.02199,0.0011 0.04347,0.0088 0.06456,0.02205 0.17115,0.01896 0.335834,0.107859 0.468418,0.265029 0.03302,-0.02255 0.06638,-0.04461 0.100827,-0.06429 0.08647,-0.04939 0.150096,-0.07938 0.213633,-0.104559 -0.316215,-0.369044 -0.487296,-0.672711 0.145084,-0.673409 h 1.14e-4 c 0.02488,-2.6e-5 0.05102,-1.89e-4 0.07842,0.0014 0.322095,0.01091 0.624832,0.144167 0.922971,0.267124 0.121234,0.05 0.401233,0.169147 0.523878,0.221186 0.0052,0.0022 0.0027,0.0012 0.0077,0.0033 0.180398,0.04235 0.332898,0.110497 0.457437,0.196555 0.0043,0.0018 0.0026,0.0011 0.0071,0.0031 0.288707,0.124283 0.506539,0.283759 0.660643,0.458259 -0.0045,-0.08228 -0.02011,-0.182144 -0.04869,-0.302345 -0.0015,-0.0064 -0.0074,-0.02306 -0.0062,-0.02303 1.7e-4,4e-6 5.11e-4,1.89e-4 9.99e-4,9.83e-4 0.0095,0.01459 0.01385,0.03266 0.02229,0.04803 0.03322,0.06029 0.07293,0.115941 0.112917,0.170939 0.07954,0.109392 0.191966,0.246001 0.27464,0.34865 0.187582,0.216734 0.095,0.114396 0.276636,0.307519 1.268891,1.349134 0.02817,2.776439 -1.23244,1.417757 -0.246716,-0.265922 -0.123368,-0.127724 -0.369809,-0.415155 -0.02069,-0.0259 -0.04136,-0.05207 -0.06212,-0.07808 -0.08675,-0.02437 -0.176941,-0.05619 -0.270425,-0.09643 -0.174052,-0.07493 -0.2185,-0.09398 -0.26632,-0.114534 -0.199368,-0.0035 -0.395088,0.04026 -0.587991,0.09138 -0.03174,0.01731 -0.102322,0.02744 -0.118574,0.0734 -0.144551,0.408773 -0.349158,0.600008 -0.562146,0.639789 -0.254736,1.15752 -1.551736,1.089981 -1.737018,-0.488924 -0.02959,0.190391 -0.05645,0.381224 -0.08186,0.572177 -0.05643,0.391205 -0.09715,0.784556 -0.12401,1.178837 -0.02929,0.436481 -0.09567,0.869132 -0.151406,1.302732 -0.03398,0.251283 -0.04689,0.504979 -0.05679,0.75814 5.11e-4,0.02294 -5.11e-4,0.04616 -0.0011,0.06921 0.194408,0.346322 0.413529,0.679971 0.62526,1.014426 0.36586,0.557376 0.711284,1.129379 1.109983,1.664436 0.167876,0.225309 0.284482,0.367839 0.460432,0.588065 0.463174,0.538723 0.909621,1.092891 1.394273,1.612833 0.03551,0.0381 0.06238,0.0654 0.0945,0.09926 0.680871,0.196767 1.36236,0.392143 2.040276,0.598901 1.119488,0.321576 0.01464,0.003 1.059847,0.306901 0.148441,0.04315 0.297708,0.08509 0.446012,0.128697 0.08691,0.02551 0.173106,0.05257 0.259887,0.07857 0.0405,0.0122 0.0872,0.01094 0.121458,0.03571 0.0231,0.0168 -0.0564,-0.0059 -0.08474,-0.0089 -0.580256,-0.06222 -0.897893,0.006 -1.03722,0.16121 0.459833,-0.01728 0.919469,-0.04455 1.378744,-0.07229 1.048521,-0.05534 2.087846,-0.210959 3.126411,-0.357642 0.625993,-0.08877 1.256296,-0.143241 1.883655,-0.220693 0.179798,-0.02341 0.357696,-0.05817 0.531199,-0.111085 0.06179,-0.01884 0.124986,-0.03424 0.184017,-0.06047 0.0781,-0.03471 0.239793,-0.172528 0.28673,-0.209733 0.444029,-0.373729 0.848816,-0.78877 1.196835,-1.253714 0.167467,-0.223754 0.362475,-0.523506 0.516335,-0.75494 0.344041,-0.544488 0.686106,-1.097466 0.94205,-1.690421 0.03954,-0.09159 0.07339,-0.185663 0.110033,-0.278452 0.01603,-0.04448 0.03023,-0.08926 0.04393,-0.134363 -0.426874,-0.466719 -0.710482,-1.235462 -0.669739,-2.300653 0.0132,-0.34609 0.0049,-0.692395 0.007,-1.038688 0.0018,-0.299522 0.02792,-0.574693 0.07409,-0.825751 -0.204642,0.158978 -0.476868,0.18924 -0.746053,0.05616 -0.154575,-0.01849 -0.322397,-0.07794 -0.496703,-0.186456 -0.250314,-0.0091 -0.543409,-0.110019 -0.860522,-0.33572 -0.110068,-0.07834 -0.219938,-0.156957 -0.329546,-0.236089 -0.351025,-0.25342 -0.561814,-0.537613 -0.659312,-0.809371 -0.09445,-5.05e-4 -0.188949,-9.71e-4 -0.283403,-0.0012 -0.02902,0.02397 -0.05932,0.04753 -0.09129,0.07044 0.700409,0.665568 0.21814,1.813991 -1.14326,1.543868 -0.505505,-0.1003 -1.014793,-0.209792 -1.492216,-0.426115 -1.303379,-0.590571 -1.115833,-1.816774 -0.139982,-1.939441 0.05464,-0.03916 0.112565,-0.0776 0.174811,-0.114903 0.02962,-0.01775 0.05857,-0.03687 0.08885,-0.0532 0.231289,-0.124808 0.472801,-0.225236 0.715105,-0.321927 0.128074,-0.392913 0.553248,-0.727526 1.276032,-0.729322 0.116599,-3.15e-4 0.233247,-4.41e-4 0.349844,-3.78e-4 0.349787,1.26e-4 0.699529,0.0018 1.049309,0.0055 0.05211,5.67e-4 0.102533,0.003 0.151518,0.0069 -0.09625,-0.06565 -0.189449,-0.135275 -0.2783,-0.210225 -0.43653,-0.03309 -0.868907,-0.105736 -1.301211,-0.173156 -0.850251,-0.140463 -1.684628,-0.363314 -2.520783,-0.568975 -0.788086,-0.20018 -1.585111,-0.361382 -2.377585,-0.54262 -0.507409,-0.122561 -1.013004,-0.25179 -1.518726,-0.380794 -0.360405,-0.0016 -0.72071,-0.0034 -1.081144,-0.0063 -0.09971,-7.94e-4 -0.199328,-0.0027 -0.299042,-0.0037 z m 11.574573,2.743396 c 0.01753,0.02243 0.03463,0.04616 0.05147,0.07081 0.258752,0.287485 0.36038,0.6027 0.336644,0.877354 10e-4,0.0024 0.0016,0.0037 0.0028,0.0064 0.105737,0.249869 0.163032,0.480849 0.181576,0.688189 0.05925,-0.107364 0.123652,-0.206067 0.192448,-0.295818 -0.164936,-0.434145 -0.325134,-0.869926 -0.48683,-1.305316 -0.0016,-0.0038 -0.0032,-0.0077 -0.005,-0.01145 -0.08879,-0.0068 -0.179936,-0.01696 -0.273087,-0.03017 z" /></clipPath><filter
       style="color-interpolation-filters:sRGB"
       inkscape:label="Drop Shadow"
       id="filter7464-0"
       x="-0.0975549"
       y="-0.10501748"
       width="2.6486328"
       height="1.3465531"><feFlood
         flood-opacity="0.529412"
         flood-color="rgb(16,16,16)"
         result="flood"
         id="feFlood7454-5" /><feComposite
         in="flood"
         in2="SourceGraphic"
         operator="in"
         result="composite1"
         id="feComposite7456-6" /><feGaussianBlur
         in="composite1"
         stdDeviation="0.65722398"
         result="blur"
         id="feGaussianBlur7458-0" /><feOffset
         dx="23.5016"
         dy="2.05047"
         result="offset"
         id="feOffset7460-8" /><feComposite
         in="SourceGraphic"
         in2="offset"
         operator="over"
         result="composite2"
         id="feComposite7462-8" /></filter><clipPath
       clipPathUnits="userSpaceOnUse"
       id="clipPath3032-9"><path
         id="path3034-1"
         style="fill:#ff0000;fill-opacity:1;fill-rule:nonzero;stroke:none"
         d="m 952.88867,72.212891 c 0.87434,3.614404 1.77007,7.225216 2.64649,10.835937 3.56599,13.852479 5.40905,27.989922 6.48437,42.224612 0.88213,13.16708 0.78144,26.37221 1.79297,39.52929 1.88036,15.60263 2.87169,31.28397 4.01953,46.95118 1.67671,0.20561 3.35638,0.38854 5.03125,0.60937 34.54862,-17.44993 65.48552,-31.47225 52.89062,8.33594 9.1164,1.23395 18.2717,2.15801 27.4512,2.87109 17.6677,1.09326 35.3654,1.59663 53.0586,2.06446 0.4358,0.0198 0.8709,0.0536 1.3066,0.0742 0.1122,-0.12151 0.2494,-0.21832 0.3594,-0.34179 0.5931,-0.66574 0.9947,-1.49886 1.6426,-2.11133 0.1319,-0.1247 0.362,0.0284 0.5429,0.043 0.2865,-0.50375 0.5231,-1.03786 0.8594,-1.50977 0.1117,-0.15668 0.3789,-0.17243 0.4629,-0.3457 1.4259,-2.95253 0.3337,-6.3926 0.6445,-9.51758 1.7169,-17.26099 5.4277,-31.98875 10.4492,-44.35156 v -22.75781 c -10.6453,-2.05094 -22.1427,-5.82341 -34.3496,-11.64844 -3.8884,-1.85557 -7.9167,-3.39289 -11.7773,-5.31055 -16.9867,-8.43746 -24.8692,-15.30315 -26.4668,-21.13281 -9.4008,-2.4351 -18.4698,-5.91308 -26.6758,-11.306641 -2.8943,-1.886338 -5.7142,-3.868943 -8.4687,-5.9375 -6.3219,1.976251 -12.6698,4.30789 -17.61917,8.789062 -4.78705,4.596769 -9.64055,9.164539 -13.94922,14.222659 -2.12124,2.74279 -4.44297,5.33654 -6.57617,8.07031 -0.0229,0.2085 -0.0422,0.38489 -0.0664,0.60742 0.0607,-0.008 0.13641,-0.0183 0.1543,-0.0195 -0.0741,0.18484 -0.16368,0.65588 -0.25977,1.01172 -0.0181,0.17147 -0.0263,0.24028 -0.0449,0.41992 -1.00659,4.16354 -0.42917,1.33735 0.0449,-0.41992 0.0427,-0.40513 0.0659,-0.62881 0.10547,-0.99219 -0.18754,0.0236 -0.4792,0.0621 -0.47656,0.0586 0.17301,-0.22796 0.36689,-0.44037 0.54297,-0.66602 0.66482,-6.04404 0.79013,-6.75497 -0.96094,-16.53516 -0.38691,-2.16084 -1.35172,-4.176765 -2.02734,-6.265621 -3.25215,-10.054803 -6.44295,-17.089234 -9.58985,-21.669922 -3.70666,-1.118962 -7.13993,-2.443251 -10.44531,-3.855469 -0.2483,-0.005 -0.48869,-0.01777 -0.73633,-0.02344 z m 48.65043,0.02344 c -0.3939,0.01318 -0.9118,0.06129 -1.1817,0.05664 -0.3228,-0.0055 -0.64588,0.0011 -0.96873,0 0.25976,0.03 0.52493,0.09137 0.78323,0.115234 0.6001,-0.0067 1.2921,0.298949 1.8008,-0.01953 0.2287,-0.14321 -0.04,-0.165526 -0.4336,-0.152344 z M 860.20508,81.9375 c -0.79008,0.05403 -1.53135,0.158216 -2.33399,0.199219 -7.60109,3.483463 -15.75727,5.958433 -24.53125,7.919922 -9.96154,1.996842 -20.10486,2.705022 -30.23437,3.179687 -1.63174,2.62203 -4.41421,5.185329 -8.57031,7.294922 -3.92255,1.99102 -5.36464,2.78011 -9.40821,4.59961 -4.55799,2.05103 -9.23367,3.82636 -13.95507,5.46094 -2.75227,0.96051 -5.49555,1.9493 -8.24415,2.91992 -3.37337,1.15458 -6.73045,2.35925 -10.13867,3.41016 -3.67935,1.10675 -7.36102,2.22739 -11.12109,3.03124 -2.46893,0.48872 -4.96156,0.94582 -7.48438,1.00782 -1.49177,0.0332 -2.98293,0.0177 -4.47461,-0.0254 -1.53803,-0.0486 -3.07577,-0.14387 -4.60351,-0.33594 -1.34278,3.40015 -2.65444,6.81249 -3.87305,10.26172 -3.64195,10.56788 -6.03897,21.51361 -8.20703,32.46289 -2.7438,14.19055 -4.21048,28.56317 -4.80469,42.99219 0.029,1.04263 0.12388,2.07754 0.17969,3.11718 17.9312,9.49137 30.6982,21.02564 38.48828,33.11329 13.12746,-18.96269 40.4428,-33.0058 82.10156,-31.82032 5.22173,0.1486 10.42944,0.56415 15.625,1.12305 6.9947,-1.75988 14.06024,-3.20577 21.26563,-3.91016 5.50889,-0.53854 10.25357,-0.75793 14.36133,-0.71289 -0.79283,-10.86561 -1.64025,-21.7263 -2.83985,-32.55664 -4.9236,-3.64588 -10.02225,-11.54424 -15.33398,-25.05469 -1.62198,-4.12528 -3.76837,-8.08188 -4.86524,-12.37695 -4.18041,-16.36993 -3.29542,-17.09065 -2.66015,-31.52539 0.452,-2.71877 0.83022,-5.45068 1.35547,-8.156249 1.03006,-5.30574 2.52326,-10.511077 4.30664,-15.619141 z" /></clipPath></defs><g
     inkscape:label="Vrstva 1"
     inkscape:groupmode="layer"
     id="layer1"
     transform="translate(-32.801921,25.671068)"><g
       id="g1588"
       transform="matrix(1.4308403,0,0,1.5013107,-24.251571,14.266158)"><ellipse
         style="display:inline;fill:#ffb380;fill-opacity:1;stroke-width:0.167458"
         id="path2360"
         cx="131.97021"
         cy="25.852901"
         rx="51.936054"
         ry="49.362652" /><path
         id="path2360-4"
         style="display:inline;fill:#ff9955;fill-opacity:1;stroke-width:0.167458"
         d="m 131.69126,-23.275782 a 51.936056,49.362654 0 0 0 -51.935937,49.362688 51.936056,49.362654 0 0 0 51.935937,49.362685 51.936056,49.362654 0 0 0 9.53075,-0.87312 51.936056,49.362654 0 0 1 -45.5586,-48.957486 51.936056,49.362654 0 0 1 42.50928,-48.50822 51.936056,49.362654 0 0 0 -6.48143,-0.386547 z" /><path
         id="path5673"
         style="display:inline;fill:#ff6600;fill-opacity:1;stroke-width:0.229302"
         d="m 265.52061,91.380455 c -15.76335,0.124497 -28.22882,3.053996 -51.11689,9.534665 29.79873,-3.893796 34.90736,-6.716468 37.02164,-1.009749 3.52538,9.521479 -40.41595,28.860179 -98.14595,43.194259 -47.36993,11.76173 -94.966967,21.92194 -108.674176,18.22031 -2.997887,-0.80958 5.702392,-6.81692 5.069649,-8.52562 -0.592278,-1.64288 7.029542,-2.91173 10.000457,-5.20824 3.323668,-2.56918 7.481849,-3.91293 10.405788,-5.76293 -32.223407,13.88463 -68.2051449,25.33664 -65.9977885,33.00116 4.0743624,14.00986 71.4744005,8.07451 150.5432705,-13.25707 79.06886,-21.33159 139.8656,-49.98179 135.7943,-63.992477 -1.47547,-5.075943 -7.47684,-6.456167 -24.9003,-6.194308 z"
         sodipodi:nodetypes="cccsscsccscc"
         clip-path="url(#clipPath10073)"
         transform="matrix(0.65615216,0,0,0.65615216,41.199061,-52.519059)" /><path
         id="path5673-3"
         style="display:inline;fill:#ff7f2a;fill-opacity:1;stroke-width:0.16464"
         d="m 253.47023,95.220314 c -10.48621,-0.11624 -18.48423,1.465849 -40.04395,5.938856 9.63303,-0.79114 26.90246,-2.05817 28.87518,-0.11537 5.8565,5.78164 -46.20739,24.30997 -91.21724,38.1361 -45.01,13.82619 -100.534201,26.69804 -106.392989,20.91707 -2.414549,-2.40851 15.714371,-12.31284 25.628999,-17.80222 -32.038362,12.61548 -49.390378,22.3258 -46.646825,27.12775 4.5438,7.91635 62.118142,-1.65789 128.596285,-21.38474 66.47936,-19.72721 116.68805,-42.13697 112.14354,-50.053281 -1.00814,-1.755981 -4.7174,-2.692927 -10.943,-2.764165 z"
         sodipodi:nodetypes="cccscccscc"
         clip-path="url(#clipPath10361)"
         transform="matrix(0.65615216,0,0,0.65615216,41.199061,-52.519059)" /><ellipse
         style="display:inline;fill:#ffccaa;fill-opacity:1;stroke-width:0.17388"
         id="path9264"
         cx="80.11161"
         cy="51.019775"
         rx="8.2712479"
         ry="2.6467993"
         transform="rotate(-12.641572)" /><ellipse
         style="display:inline;fill:#ffccaa;fill-opacity:1;stroke-width:0.17388"
         id="path9266"
         cx="96.376854"
         cy="12.536394"
         rx="10.421772"
         ry="1.4888245"
         transform="rotate(-7.032165)" /><ellipse
         style="display:inline;fill:#ffccaa;fill-opacity:1;stroke-width:0.145323"
         id="path9268"
         cx="95.677299"
         cy="32.412521"
         rx="10.181331"
         ry="2.0952511"
         transform="matrix(0.97587946,-0.21831005,0.33650039,0.94168333,0,0)"
         inkscape:transform-center-x="-0.58342708"
         inkscape:transform-center-y="-0.06548539" /><ellipse
         style="display:inline;fill:#ffccaa;fill-opacity:1;stroke-width:0.17388"
         id="path9270"
         cx="121.53896"
         cy="43.975304"
         rx="10.090921"
         ry="2.481374"
         transform="rotate(-9.9610126)" /><ellipse
         style="display:inline;fill:#ffccaa;fill-opacity:1;stroke-width:0.17388"
         id="path9270-8"
         cx="127.77412"
         cy="89.832512"
         rx="10.090921"
         ry="2.481374"
         transform="rotate(-10.09306)" /><ellipse
         style="display:inline;fill:#ffccaa;fill-opacity:1;stroke-width:0.129988"
         id="path8589"
         cx="103.39169"
         cy="-95.81324"
         rx="20.30155"
         ry="4.95895"
         transform="matrix(0.82498976,0.56514768,-0.70977281,0.70443066,0,0)" /><ellipse
         style="display:inline;fill:#e28d54;fill-opacity:1;stroke-width:0.128734"
         id="path10488"
         cx="91.219696"
         cy="25.10285"
         rx="4.9732132"
         ry="0.94675058"
         transform="matrix(0.98069855,-0.19552586,0.06882674,0.99762863,0,0)" /><ellipse
         style="display:inline;fill:#e28d54;fill-opacity:1;stroke-width:0.128734"
         id="path10488-0"
         cx="108.81631"
         cy="14.09792"
         rx="4.9732132"
         ry="0.94675058"
         transform="matrix(0.98069855,-0.19552586,0.06882674,0.99762863,0,0)" /><path
         id="path10488-0-2"
         style="display:inline;fill:#e28d54;fill-opacity:1;stroke-width:0.351727"
         d="m 131.81318,61.750568 c -3.08899,0.0167 -8.12408,0.62759 -13.50167,1.63809 -6.41047,1.20464 -12.25439,2.77784 -15.00004,4.038053 0,0 0.92338,0.58312 1.39544,0.85734 0.56864,0.33031 1.72983,0.94858 1.72983,0.94858 3.10206,-0.17711 7.34724,-0.74625 11.78323,-1.57976 9.1401,-1.717493 16.57028,-4.064423 16.59606,-5.242113 0.009,-0.44018 -1.03991,-0.6708 -3.00285,-0.66019 z"
         sodipodi:nodetypes="sccscccs" /><ellipse
         style="display:inline;fill:#fc934d;fill-opacity:1;stroke-width:0.17481"
         id="path10490"
         cx="126.35228"
         cy="17.802509"
         rx="9.5539026"
         ry="1.3503449"
         transform="matrix(0.98937729,-0.14537046,0,1,0,0)" /><ellipse
         style="display:inline;fill:#fd8a3e;fill-opacity:1;stroke-width:0.153135"
         id="path10492"
         cx="97.898605"
         cy="49.888599"
         rx="5.2210684"
         ry="1.5402356"
         transform="matrix(0.98370102,-0.17981187,0.29445813,0.95566438,0,0)" /><ellipse
         style="display:inline;fill:#ffccaa;fill-opacity:1;stroke-width:0.295726"
         id="path10492-4"
         cx="34.265587"
         cy="86.381866"
         rx="15.108871"
         ry="1.9849037"
         transform="matrix(0.96508012,-0.26195488,0.80652895,0.5911946,0,0)" /><path
         id="path10486"
         clip-path="url(#clipPath20978)"
         style="display:inline;fill:#ea8847;fill-opacity:1;stroke-width:0.264999"
         d="m 106.72934,126.28323 c -8.108558,-1.85507 -27.899547,-3.07346 -49.923692,-3.07343 -9.116193,0.001 -18.079171,0.21247 -26.044366,0.61416 0,0 -0.973317,2.95621 -1.347117,4.35338 -0.373799,1.39717 -0.963864,4.01312 -0.963864,4.01312 8.493827,0.47754 18.358704,0.74731 28.355248,0.74775 29.654516,1e-5 53.694391,-2.17779 53.694671,-4.86426 -2e-5,-0.6131 -1.27944,-1.22068 -3.77088,-1.79072 z M 3.1109726,128.07407 c 23.2097444,-96.864473 11.6048724,-48.432236 0,0 z"
         transform="matrix(0.6376911,-0.15455008,0.15455008,0.6376911,41.199062,-52.519059)"
         sodipodi:nodetypes="cccscccccc" /><path
         id="path15691"
         style="display:inline;fill:#000000;fill-opacity:1;stroke-width:8.1298"
         d="m 718.46925,-48.739727 c -0.005,0.0064 -0.0102,0.01285 -0.0155,0.01965 0.006,-0.0045 0.0102,-0.0091 0.0155,-0.01361 z m -0.0155,0.01965 c -0.146,0.118413 -0.26702,0.23675 -0.41211,0.367181 0.002,0.06161 -0.002,0.09112 0,0.152353 0.14805,-0.177751 0.26888,-0.345222 0.41211,-0.519534 z m 75.9159,83.109257 c -4.7599,0.06161 -9.85266,7.443315 -16.5293,23.421873 -8.50705,20.360553 -20.3146,32.593206 -37.14063,38.458987 -13.56744,4.72946 -24.66016,11.89194 -24.66016,15.92578 0,11.53334 35.26155,8.58055 53.97266,-4.52539 22.94897,-16.073851 40.66952,-59.349975 29.05664,-70.962891 -1.56094,-1.560945 -3.1128,-2.336803 -4.69921,-2.318359 z m 249.83405,0.0155 c -1.5917,-0.03024 -3.1403,0.741789 -4.7013,2.302734 -11.6128,11.612878 6.1044,54.887124 29.0411,70.960936 17.9288,12.5581 53.9883,16.24851 53.9883,5.52539 0,-3.49118 -11.0411,-10.51639 -24.5332,-15.609373 C 1081.6184,91.40183 1069.279,78.292085 1060.8599,58.142959 1054.1104,41.978788 1048.9665,34.50238 1044.2037,34.40468 Z M 662.06886,57.254418 c -0.24582,0.639111 -0.46682,1.280803 -0.69727,1.919921 0.33184,-0.626835 0.63188,-1.264936 0.9668,-1.888672 -0.0902,-0.0021 -0.1793,-0.03024 -0.26952,-0.03137 z m -43.20508,52.398442 c -0.0272,0.12283 -0.0611,0.24748 -0.0918,0.38281 0.0306,-0.0922 0.0611,-0.21638 0.0918,-0.3086 5e-4,-4.9e-4 2.2e-4,-0.0427 0,-0.0742 z m 431.46482,7.43946 c -0.8688,-0.004 -1.732,0.0265 -2.5859,0.09 v -0.002 c -25.613,1.78526 -44.5215,31.55028 -25.7695,58.32226 13.231,18.9075 43.0071,22.71364 58.2734,7.44726 15.2663,-15.26627 11.4761,-45.03213 -7.4316,-58.27537 -6.59,-4.61578 -13.3726,-6.95005 -19.8633,-7.4629 -0.8788,-0.0767 -1.7542,-0.11527 -2.6231,-0.11905 z m -262.10153,0.0113 c -0.86877,0.008 -1.74411,0.0442 -2.62305,0.10544 -6.49073,0.51315 -13.25767,2.84833 -19.84766,7.46291 -18.90776,13.24327 -22.71359,43.00902 -7.44726,58.2754 15.26633,15.26627 45.03015,11.46017 58.27344,-7.44726 18.75167,-26.77206 -0.15209,-56.53795 -25.76954,-58.32226 v 0.002 c -0.85421,-0.0612 -1.71717,-0.0835 -2.58593,-0.0763 z m 130.23241,124.41992 v 0.002 c -41.14539,-0.0922 -121.12108,37.8243 -121.12108,57.41602 0,12.48309 15.47093,8.64498 40.95117,-10.19335 38.3551,-28.36551 107.44582,-29.57791 157.22851,-2.89259 45.55592,24.48227 60.23022,20.15445 27.40622,-8.09764 -23.64212,-20.3489 -69.21007,-36.17291 -104.46482,-36.23437 z m 3.22851,48.71876 c -1.76413,6e-4 -3.53193,0.034 -5.29296,0.0937 -23.48017,0.82042 -45.88866,6.96809 -45.88866,15.70314 0,3.24715 21.95076,5.9082 48.77928,5.9082 47.49263,0 61.96569,-6.75557 35.91602,-16.75196 -8.96187,-3.43896 -21.16468,-4.9575 -33.51368,-4.95311 z"
         clip-path="url(#clipPath3032)"
         transform="matrix(0.16242634,0,0,0.16423534,-16.982077,-28.863137)" /><ellipse
         style="display:inline;fill:#ffffff;fill-opacity:1;stroke-width:0.163585"
         id="path16098"
         cx="109.67265"
         cy="-1.4316047"
         rx="2.0303292"
         ry="1.8065888" /><ellipse
         style="display:inline;fill:#ffffff;fill-opacity:1;stroke-width:0.163585"
         id="path16098-0"
         cx="154.37869"
         cy="-0.81852764"
         rx="2.0303292"
         ry="1.8065888" /><path
         style="display:inline;fill:#000000;stroke-width:0.264583;filter:url(#filter7464)"
         d="m -54.151327,77.321714 c -2.94453,-1.091515 -5.34128,-3.596863 -6.29318,-6.578338 -0.66329,-2.077517 -0.4326,-5.274276 0.52546,-7.281418 0.92882,-1.945894 2.8183,-3.841848 4.81415,-4.830646 1.41824,-0.702636 1.80263,-0.771374 4.33438,-0.775102 2.55384,-0.0038 2.90218,0.05872 4.3148,0.773946 1.99902,1.012129 3.91699,2.922153 4.85648,4.836376 0.67965,1.384777 0.7506,1.791931 0.7506,4.307459 0,2.517368 -0.0707,2.922101 -0.75276,4.312034 -0.96341,1.96315 -2.8198,3.812487 -4.8178,4.799486 -2.09991,1.037339 -5.58074,1.233707 -7.73213,0.436203 z m 6.55581,-0.700421 c 4.03752,-1.335321 6.90418,-6.105012 6.13974,-10.215589 -0.40137,-2.158238 -1.25122,-3.819988 -2.68884,-5.257612 -5.25989,-5.259888 -13.98597,-2.71971 -15.79154,4.596947 -0.36977,1.498434 -0.39506,2.074638 -0.1491,3.39724 0.40137,2.158238 1.25122,3.819988 2.68884,5.257612 2.61826,2.618256 6.16816,3.422851 9.8009,2.221402 z m -5.15938,-3.666062 c -1.04359,-0.465814 -2.12165,-1.636387 -2.63179,-2.857637 -0.44819,-1.072925 -0.56565,-4.175686 -0.15808,-4.175686 0.13906,0 0.68895,0.295955 1.22198,0.657677 2.27643,1.544831 4.82811,1.544831 7.10454,0 0.53303,-0.361722 1.08292,-0.657677 1.22198,-0.657677 0.13906,0 0.25283,0.760309 0.25283,1.689579 0,3.357449 -2.08206,5.733288 -5.00255,5.708398 -0.66833,-0.0057 -1.57234,-0.169791 -2.00891,-0.364654 z m 3.0993,-0.430011 c 0.54044,-0.150098 1.05411,-0.388567 1.14148,-0.529931 0.23897,-0.386676 -0.98043,-0.746316 -1.66109,-0.489905 -0.32742,0.123343 -0.8632,0.123343 -1.19062,0 -0.68573,-0.258324 -1.89931,0.104452 -1.65762,0.495514 0.14707,0.237969 1.46447,0.71932 2.12064,0.774837 0.14552,0.0123 0.70676,-0.10042 1.24721,-0.250515 z m -1.11492,-1.802712 c 1.24497,0 2.19722,0.137176 2.5556,0.368144 0.51601,0.332555 0.61077,0.3078 0.98023,-0.256077 0.49284,-0.752168 0.86711,-2.117376 0.53641,-1.956647 -2.02867,0.985978 -2.50658,1.117074 -4.07224,1.117074 -1.56566,0 -2.04357,-0.131096 -4.07224,-1.117074 -0.3307,-0.160729 0.0436,1.204479 0.53641,1.956647 0.36946,0.563877 0.46422,0.588632 0.98023,0.256077 0.35838,-0.230968 1.31063,-0.368144 2.5556,-0.368144 z m 2.31392,-1.767983 c 1.12743,-0.471072 1.91941,-1.124008 1.91941,-1.58243 0,-0.206492 -0.43794,-0.09817 -1.23546,0.305591 -0.93099,0.471323 -1.66982,0.625472 -2.99787,0.625472 -1.32805,0 -2.06688,-0.154149 -2.99787,-0.625472 -1.27016,-0.643038 -1.69279,-0.399579 -0.76457,0.440444 1.33486,1.208031 4.23236,1.606864 6.07636,0.836395 z m -9.45767,-4.367559 c 0,-0.297656 0.29224,-0.833437 0.64943,-1.190625 0.88358,-0.883576 2.31548,-0.883576 3.19905,0 0.7225,0.722495 0.86969,1.731817 0.25256,1.731817 -0.21894,0 -0.39687,-0.234508 -0.39687,-0.523068 0,-0.287687 -0.30254,-0.721294 -0.6723,-0.963573 -0.83991,-0.55033 -1.85728,-0.176506 -2.23688,0.821931 -0.30439,0.800597 -0.79499,0.876821 -0.79499,0.123518 z m 9.78958,0 c 0,-0.887201 1.16461,-1.840058 2.24896,-1.840058 1.08436,0 2.24896,0.952857 2.24896,1.840058 0,0.745204 -0.4893,0.680487 -0.78763,-0.10418 -0.54803,-1.441426 -2.37003,-1.453512 -2.9153,-0.01934 -0.30439,0.8006 -0.79499,0.876824 -0.79499,0.12352 z"
         id="path21503"
         clip-path="url(#clipPath3599)"
         transform="matrix(4.6588635,0,0,4.1960572,369.52427,-269.21063)"
         sodipodi:nodetypes="sscscscscssssccccsccscsssscscssscsssccsscsssscscsssscssccsssssss" /></g></g></svg>
