<?xml version="1.0" encoding="UTF-8" standalone="no"?>
<!-- Created with Inkscape (http://www.inkscape.org/) -->

<svg
   width="210mm"
   height="160mm"
   viewBox="0 0 210 160"
   version="1.1"
   id="svg5"
   inkscape:version="1.2.2 (732a01da63, 2022-12-09)"
   sodipodi:docname="plenetk_zelena_ovaha.svg"
   xml:space="preserve"
   xmlns:inkscape="http://www.inkscape.org/namespaces/inkscape"
   xmlns:sodipodi="http://sodipodi.sourceforge.net/DTD/sodipodi-0.dtd"
   xmlns:xlink="http://www.w3.org/1999/xlink"
   xmlns="http://www.w3.org/2000/svg"
   xmlns:svg="http://www.w3.org/2000/svg"><sodipodi:namedview
     id="namedview7"
     pagecolor="#ffffff"
     bordercolor="#000000"
     borderopacity="0.25"
     inkscape:showpageshadow="2"
     inkscape:pageopacity="0.0"
     inkscape:pagecheckerboard="0"
     inkscape:deskcolor="#d1d1d1"
     inkscape:document-units="mm"
     showgrid="false"
     inkscape:zoom="0.5"
     inkscape:cx="586"
     inkscape:cy="317"
     inkscape:window-width="1920"
     inkscape:window-height="991"
     inkscape:window-x="2391"
     inkscape:window-y="594"
     inkscape:window-maximized="1"
     inkscape:current-layer="layer1" /><defs
     id="defs2"><inkscape:path-effect
       effect="bspline"
       id="path-effect95012"
       is_visible="true"
       lpeversion="1"
       weight="33.333333"
       steps="2"
       helper_size="0"
       apply_no_weight="true"
       apply_with_weight="true"
       only_selected="false" /><inkscape:path-effect
       effect="bspline"
       id="path-effect95008"
       is_visible="true"
       lpeversion="1"
       weight="33.333333"
       steps="2"
       helper_size="0"
       apply_no_weight="true"
       apply_with_weight="true"
       only_selected="false" /><linearGradient
       inkscape:collect="always"
       id="linearGradient2269"><stop
         style="stop-color:#5bff62;stop-opacity:1;"
         offset="0"
         id="stop2265" /><stop
         style="stop-color:#0b7700;stop-opacity:1;"
         offset="1"
         id="stop2267" /></linearGradient><linearGradient
       inkscape:collect="always"
       xlink:href="#linearGradient2269"
       id="linearGradient2271"
       x1="37.679108"
       y1="130.02985"
       x2="186.91791"
       y2="130.02985"
       gradientUnits="userSpaceOnUse" /><clipPath
       clipPathUnits="userSpaceOnUse"
       id="clipPath95332"><path
         id="path95334"
         style="fill:#ff0000;fill-opacity:1;fill-rule:nonzero;stroke:none;stroke-width:0.264583"
         d="m 327.9371,126.92145 -23.76858,5.3e-4 c -0.29594,0.40781 -0.62979,0.81178 -0.9834,1.21284 1.9191,0.49622 2.90742,2.24547 2.33214,4.17753 -0.10679,0.57235 -0.34859,1.16952 -0.74052,1.76371 0.17738,-0.006 0.35502,-0.0129 0.53227,-0.0139 0.14181,-8e-4 0.28371,0.001 0.42531,0.008 0.70512,0.0363 0.81878,0.0695 1.51927,0.17105 1.16472,0.18776 2.31896,0.43236 3.45768,0.74 0.81862,0.22464 1.61882,0.50506 2.40966,0.81184 1.12988,0.42985 2.25285,0.87535 3.36881,1.34049 1.08297,0.45774 0.53713,0.22563 1.63865,0.69608 5.10971,2.18235 2.90459,7.34402 -2.20504,5.16144 -1.07344,-0.45853 -0.54176,-0.23256 -1.59319,-0.67696 -1.07331,-0.44757 -2.15344,-0.87629 -3.24062,-1.28881 -0.60835,-0.23643 -1.222,-0.45575 -1.85208,-0.62838 -0.92832,-0.25524 -1.87259,-0.44722 -2.82205,-0.60565 -0.0874,-0.0141 -0.58261,-0.0995 -0.72863,-0.10852 -0.48734,-0.0314 -0.97811,0.0252 -1.46556,0.0202 -0.81166,0.027 -1.62382,0.063 -2.43136,0.15296 -0.65865,0.0741 -1.31593,0.15612 -1.95855,0.3235 -0.54134,0.14522 -1.05243,0.36244 -1.57356,0.5674 -0.59322,0.22579 -1.15858,0.50928 -1.71563,0.81339 -0.60381,0.31477 -1.20145,0.6441 -1.76993,1.01958 -0.39931,0.26426 -0.76661,0.57406 -1.13896,0.87436 -0.34636,0.3016 -0.68127,0.61677 -0.98909,0.95808 -0.55454,0.59274 -1.10712,1.18923 -1.72495,1.71773 -0.55213,0.48007 -1.09368,0.97247 -1.65105,1.44642 -0.43257,0.37175 -0.86225,0.74641 -1.30432,1.10691 -0.46741,0.38139 -0.92472,0.77725 -1.42626,1.11414 -0.52917,0.33868 -1.06302,0.67186 -1.61335,0.97514 -0.64617,0.32654 -1.31263,0.60976 -2.00763,0.81649 -0.16397,0.0444 -0.32679,0.0936 -0.49197,0.13332 -0.66974,0.16089 -1.36289,0.21667 -2.04999,0.19017 -0.12168,-0.005 -0.23236,-0.0123 -0.33798,-0.0212 -0.0608,0.0287 -0.1206,0.0596 -0.1819,0.0873 -0.28361,0.12328 -0.57198,0.23285 -0.86712,0.32556 -0.30771,0.0963 -0.62127,0.17459 -0.94258,0.20929 -0.30652,0.0384 -0.61396,0.0729 -0.92138,0.10335 -0.13703,0.0106 -0.27419,0.017 -0.41135,0.0196 -0.0308,0.022 -0.0632,0.0418 -0.0935,0.0646 -0.0306,0.023 -0.0609,0.0441 -0.091,0.0646 -0.0761,0.39613 -0.45604,0.60098 -0.92036,0.45785 -0.0421,0.0121 -0.0864,0.0194 -0.13176,0.0233 -0.23651,0.32235 -0.787,0.44353 -1.45833,0.0351 -0.30094,-0.18134 -0.56885,-0.40745 -0.83042,-0.64079 -0.25421,0.0983 -0.65104,0.14244 -1.23301,0.11627 -0.81286,-0.0366 -1.58668,-0.29398 -2.3554,-0.53847 -0.81624,-0.24661 -1.56091,-0.65593 -2.29082,-1.08727 -0.43979,-0.27828 -0.88172,-0.55245 -1.32395,-0.82682 -0.42558,-0.24852 -0.811,-0.55773 -1.20459,-0.85266 -0.53023,-0.4226 -1.02961,-0.88242 -1.53478,-1.33429 -0.46393,-0.38303 -0.91694,-0.77866 -1.36013,-1.18546 -0.28375,-0.26598 -0.59627,-0.49446 -0.91157,-0.72037 -0.36744,-0.26087 -0.7461,-0.50554 -1.12603,-0.74775 -0.40342,-0.25684 -0.80125,-0.52292 -1.2268,-0.74259 -0.32576,-0.11871 -0.62691,-0.30161 -0.95756,-0.40721 0.005,0.004 0.0205,0.0149 0.0145,0.0129 -0.40397,-0.10751 -0.80442,-0.22968 -1.20871,-0.33693 -0.66734,-0.18752 -1.34092,-0.35283 -2.01693,-0.50539 -0.4628,-0.0892 -0.91605,-0.22208 -1.38028,-0.30438 -0.23348,-0.0413 -0.46911,-0.072 -0.70332,-0.10903 -0.0791,-0.0121 -0.15843,-0.0215 -0.23771,-0.0315 -0.0381,1.2e-4 -0.0762,5.2e-4 -0.11421,0.001 -0.0408,10e-4 -0.0817,0.002 -0.12247,0.005 -0.025,0.002 -0.05,0.005 -0.0739,0.0134 -0.091,0.0267 -0.18228,0.0525 -0.27698,0.0625 -0.0875,0.009 -0.17553,0.0108 -0.26303,-5.3e-4 v -5.3e-4 c -0.0911,-0.0118 -0.17267,-0.0317 -0.24495,-0.0574 h -5.3e-4 c -0.0107,5.3e-4 -0.0214,0.002 -0.032,0.002 -0.25033,-0.003 -0.49111,0.0396 -0.73123,0.0966 -0.59137,0.15373 -1.18266,0.29603 -1.78645,0.39533 -1.82595,0.30038 -3.14243,-0.12233 -3.88452,-0.85008 -0.5252,0.005 -0.62498,0.007 -1.90428,0.0393 -1.94134,0.0489 -3.22061,-0.60474 -3.82715,-1.48208 -1.30324,0.13939 -2.61243,0.25034 -3.91966,0.13384 v -5.3e-4 c -0.9413,-0.0839 -1.75424,-0.2607 -2.44481,-0.50643 -0.98062,0.1957 -1.83966,0.37698 -3.03031,0.67128 -0.16527,0.0408 -0.32723,0.0937 -0.49092,0.14056 -2.21798,0.63518 -4.0314,0.46995 -5.29838,-0.14056 v 2.77244 c 0.11635,-0.0767 0.2347,-0.1508 0.35605,-0.22118 1.20162,-0.69683 2.04141,-0.977 2.60965,-0.94516 3.97771,0.22291 -5.35161,15.73726 2.96004,10.69134 0.0164,-0.01 0.018,-0.0105 0.0331,-0.0196 0.0761,-0.0557 0.20225,-0.14488 0.47387,-0.32918 0.0388,-0.0263 -0.0626,0.0697 -0.0941,0.10439 -0.18337,0.20197 -0.11665,0.11386 -0.20515,0.23719 -0.38874,0.49551 -0.80089,0.97139 -1.22111,1.44022 -0.14735,0.33699 -0.27967,0.68136 -0.35399,1.04232 -0.12149,0.76801 -0.28729,1.5255 -0.48317,2.27789 -0.21807,0.83035 -0.4691,1.65133 -0.71676,2.47324 -0.14845,0.43361 -0.2145,0.88608 -0.293,1.33583 -0.0723,0.48311 -0.10815,0.97033 -0.13385,1.4578 -0.0261,0.62526 -0.0339,1.25117 -0.0408,1.87688 0.002,0.002 0.008,0.0658 0.015,0.14418 0.006,-0.12717 0.0915,0.35228 0.12505,0.48731 0.20737,0.73071 0.45578,1.45107 0.69401,2.17299 0.21432,0.66931 0.44505,1.32708 0.75293,1.95853 0.36861,0.79908 0.80822,1.56246 1.24799,2.3239 0.50414,0.93276 0.98771,1.88295 1.58388,2.76159 0.65025,0.88522 1.33281,1.74574 2.02003,2.60241 3.87751,4.83361 2.86851,9.15479 0.0124,10.53012 0.65575,1.01021 1.11744,2.00934 1.39267,2.97036 3.14724,-5.23292 5.69395,-7.33625 7.8171,-7.29464 1.26462,0.0248 2.379,0.81208 3.3848,2.14612 0.13865,-0.0268 0.27503,-0.0543 0.42324,-0.0801 2.45769,-0.42762 4.96432,-0.46658 7.45225,-0.55139 0.0124,-5.3e-4 0.0243,2.6e-4 0.0367,-5.3e-4 -0.46499,-0.51884 -1.15136,-1.08227 -2.10168,-1.69706 -0.0349,-0.0226 -0.13547,-0.0726 -0.1292,-0.0775 8e-4,-8e-4 0.005,-8e-4 0.0119,5.3e-4 0.18323,0.0436 0.35716,0.12119 0.53692,0.17725 0.94166,0.29387 1.88748,0.57277 2.83135,0.85938 0.93914,0.2852 1.79534,0.61602 2.57453,0.98082 3.41064,0.59489 5.68907,2.18707 6.80267,4.12016 0.3101,-0.0217 0.62585,-0.0363 0.9524,-0.0367 1.47262,-0.002 3.11052,0.21916 4.89479,0.71573 2.5155,0.70041 4.92043,1.73217 7.30139,2.7931 0.51501,0.2449 1.03214,0.48459 1.54924,0.72503 1.38316,-1.08934 3.20887,-2.02985 5.51077,-2.69751 1.626,-0.47159 3.30216,-0.70921 4.97644,-0.92914 0.91813,-0.12056 1.78652,-0.17623 2.60398,-0.1726 3.52179,0.0157 6.09941,1.11757 7.66053,2.72025 3.23133,1.61281 4.53787,4.5705 3.76979,7.34322 0.9974,-0.47421 2.13669,-0.89431 3.42717,-1.24075 0.70416,-0.189 1.41687,-0.34327 2.13217,-0.48111 1.78993,-3.10644 2.13175,-5.71278 -3.50623,-5.50509 -0.0626,0.002 -0.24781,0.0172 -0.18812,0.007 3.36844,-1.07238 -0.0275,0.17274 4.00442,-1.25367 1.61705,-0.57255 4.08794,-1.53702 5.67356,-2.14767 0.0384,-0.0148 0.0755,-0.0264 0.11367,-0.0408 0.17772,-1.09126 0.62555,-2.14078 1.05161,-3.15742 0.13192,-0.28507 0.264,-0.56971 0.39587,-0.85473 0.24765,-0.53479 0.53332,-0.96879 0.83817,-1.31154 -0.61793,-0.45466 -1.38279,-0.88341 -2.32648,-1.27538 -0.0925,-0.0384 -0.90953,0.38181 -0.91157,0.38086 -0.0701,-0.043 0.11745,-0.11453 0.18087,-0.16692 0.86593,-0.69536 0.46019,-0.36284 1.2237,-0.99839 1.51974,-1.32472 3.1655,-2.48853 4.83484,-3.61425 0.59039,-0.38714 1.18724,-0.76515 1.78337,-1.14361 -1.30678,0.28221 -2.30061,0.33171 -1.22164,-1.33479 0.0535,-0.0826 0.11372,-0.15991 0.17053,-0.23978 -0.76266,-1.15773 -0.14399,-2.70388 1.85002,-3.175 -0.0612,-0.0974 -0.006,-0.28386 0.22945,-0.60874 0.0586,-0.0811 0.11181,-0.16744 0.17621,-0.24392 0.01,-0.0117 0.0347,-0.034 0.0491,-0.0491 0.0428,-0.19896 0.10245,-0.39507 0.16587,-0.58859 0.0249,-0.069 0.0496,-0.13769 0.0744,-0.20671 0.17198,-0.47762 0.41452,-0.79637 0.67696,-1.00202 -0.003,-0.003 0,-0.009 0,-0.0124 -0.0236,0.01 -0.0459,-0.014 -0.0249,-0.047 0.005,-0.007 0.003,-0.003 0.007,-0.0114 0.008,-0.0143 0.0151,-0.0283 0.0212,-0.0434 0.005,-0.0128 0.0114,-0.0262 0.0161,-0.0393 0.003,-0.004 0.003,-0.007 0.004,-0.0119 -0.0135,0.0133 -0.028,0.0336 -0.0289,0.002 0,-0.006 2.3e-4,-0.011 0.003,-0.016 0,-0.006 0.003,-0.0115 0.006,-0.0165 0,-0.002 0.003,-0.003 0.003,-0.004 0.003,-0.003 0.005,-0.006 0.008,-0.009 0.003,-0.003 0.005,-0.006 0.008,-0.009 0,-8e-4 0.003,0.001 0.003,-0.002 -0.003,-0.001 -0.003,-0.004 0,-0.008 0.003,-0.002 0.004,-0.004 0.006,-0.006 -0.003,-0.002 -0.003,-0.005 0,-0.009 0.003,-0.002 0.003,-0.002 0.003,-0.003 v -5.3e-4 -0.007 c 0,-0.002 0.003,-0.004 0.003,-0.006 0,-0.003 1.6e-4,-0.006 0.003,-0.009 0,-0.003 0.003,-0.005 0.003,-0.008 0,-0.004 0.003,-0.007 0.004,-0.0114 1.9e-4,-5.3e-4 -1.6e-4,-5.3e-4 0,-0.002 v -5.2e-4 c 0,-0.003 0.003,-0.004 0.005,-0.005 l 0.003,-0.003 v -0.0129 -5.3e-4 c 2e-5,-2.4e-4 0,-0.001 0,-0.002 v -5.3e-4 c 0,-0.002 0.003,-0.004 0.003,-0.004 v -0.001 -0.008 c 8e-5,-0.003 0,-0.005 0.003,-0.006 0,-2.6e-4 0.003,-0.001 0.003,-0.001 v -0.005 c 0,-0.003 2.2e-4,-0.006 0.003,-0.007 0,-2.6e-4 0.003,-5.3e-4 0.003,-5.3e-4 0,0 0.003,-2.6e-4 0.003,5.3e-4 0,5.3e-4 0.003,0.002 0.003,0.003 v 0.004 0.004 c 0,-0.005 0.003,-0.0105 0.003,-0.015 0,-0.007 8e-5,-0.0147 0.003,-0.0217 0,-0.008 0.003,-0.0168 0.004,-0.0248 0.003,-0.009 0.004,-0.0168 0.009,-0.0248 0.003,-0.002 0.003,-0.002 0.004,-0.004 v -0.009 -5.3e-4 c 0,-0.024 0.0116,-0.0362 0.0238,-0.0377 0.006,-7.9e-4 0.0127,0.004 0.018,0.009 v -0.0305 c 8e-5,-0.005 0.003,-0.008 0.005,-0.008 0.003,0 0.004,0.003 0.004,0.008 0,0.007 -2.1e-4,0.0143 0,0.0212 0,-0.001 2.1e-4,-0.003 0.003,-0.004 0.004,-0.008 0.007,-0.0162 0.0103,-0.0243 0.003,-0.003 0.005,-0.008 0.006,-0.0124 v -0.0367 c 0,-0.005 0.003,-0.008 0.005,-0.008 0.003,0 0.004,0.003 0.004,0.008 v 0.003 c 0.003,10e-4 0.004,0.004 0.004,0.008 0.003,-0.006 0.003,-0.0106 0.005,-0.016 v -0.004 c 0,-0.006 -0.003,-0.01 -0.003,-0.0155 0,-0.003 -0.003,-0.005 -0.003,-0.008 0,-0.005 0,-0.008 0.003,-0.009 0,-2.5e-4 0.003,-0.001 0.004,0.002 0,0.001 0.003,0.003 0.003,0.005 0,0.003 0.003,0.005 0.003,0.008 0.003,-0.008 0.006,-0.0165 0.009,-0.0248 0.006,-0.0144 0.0122,-0.0301 0.0212,-0.0429 0.007,-0.009 0.0169,-0.0188 0.0274,-0.0248 v -5.3e-4 c 0,-0.005 0.003,-0.0101 0.004,-0.015 v -0.001 c 0,-0.003 0.003,-0.005 0.005,-0.006 0.003,-7.9e-4 0.007,0.003 0.004,0.009 0,0.002 0,0.004 -0.003,0.006 0,-5.3e-4 0.003,-5.3e-4 0.004,-0.002 0,-0.003 2.1e-4,-0.006 0.003,-0.009 0.009,-0.0477 0.018,-0.0953 0.0295,-0.14263 0.006,-0.0253 0.0114,-0.0435 0.0161,-0.0677 0,-0.004 0.003,-0.009 0.004,-0.015 0.0191,-0.0508 0.0512,-0.0766 0.0801,-0.0801 0,-5e-5 0.003,4e-5 0.003,0 0.003,-0.01 0.003,-0.0183 0.004,-0.031 0.004,-0.0218 0.0111,-0.0556 0.0161,-0.077 0.004,-0.01 0.0114,-0.0189 0.0161,-0.0279 0.003,-0.005 0.007,-0.008 0.0103,-0.0124 0.006,-0.0527 0.0344,-0.0798 0.0641,-0.0832 0.006,-0.0488 0.0273,-0.0796 0.0558,-0.0832 0.009,-0.001 0.019,-7.9e-4 0.0279,0.003 0,-0.0255 6e-5,-0.0515 0,-0.077 0.0143,-0.2961 0.0302,-0.59338 0.0827,-0.88574 0.18341,-1.03289 0.72866,-1.50758 1.24489,-1.50378 0.54266,0.004 1.05209,0.53658 1.07175,1.5043 0.29628,0.24366 0.53554,0.68436 0.61084,1.34204 0.0424,0.37061 0.0495,0.74253 0.0367,1.11414 0.0416,-0.0158 0.0832,-0.0342 0.12454,-0.0496 z m -104.25515,0.001 v 0.97048 c 3.83871,-0.14784 7.67915,-0.2574 11.5192,-0.36742 -0.13738,-0.20062 -0.27018,-0.40158 -0.39223,-0.60306 z" /></clipPath></defs><g
     inkscape:label="Vrstva 1"
     inkscape:groupmode="layer"
     id="layer1"><g
       id="g100142"
       transform="translate(-1.5875,-52.3875)"><path
         d="m 51.898868,166.29921 -9.281853,-8.0103 C 31.16053,148.40209 24.614828,138.46431 18.575145,121.78834 16.015403,114.72064 11.651766,105.31728 8.8783677,100.89172 2.7902876,91.177366 2.5503686,84.998996 7.8373417,74.082005 16.632503,55.920878 32.56131,78.15972 24.851031,97.835598 c -3.298495,8.417252 -3.327896,10.305252 -0.312184,20.056052 3.269506,10.57163 12.713232,24.33151 22.486072,32.76287"
         style="fill:#13840a;fill-opacity:1;stroke-width:2.82557"
         id="path96674" /><path
         d="m 160.76907,184.93915 9.38457,-10.15228 c 11.58326,-12.53061 18.20139,-25.1258 24.30792,-46.261 2.58806,-8.95762 6.99999,-20.87548 9.80407,-26.48447 6.15545,-12.312014 6.39802,-20.142507 1.05255,-33.978752 -8.89249,-23.017493 -24.99756,5.168115 -17.20196,30.105418 3.335,10.668064 3.36472,13.060914 0.31563,25.419124 -3.30568,13.39853 -12.85391,30.83787 -22.73489,41.5238"
         style="fill:#13840a;fill-opacity:1;stroke-width:3.19854"
         id="path96674-3" /><ellipse
         style="fill:url(#linearGradient2271);fill-opacity:1;stroke-width:0.264999"
         id="path2240"
         cx="112.29851"
         cy="130.02985"
         rx="74.6194"
         ry="72.033577" /><path
         id="path2377"
         style="fill:#6bf26e;fill-opacity:1;stroke-width:0.279259"
         d="M 110.70894,58.010346 A 74.818172,72.037044 0 0 0 37.45139,129.99123 74.818172,72.037044 0 0 0 107.92578,201.87198 75.518586,74.697736 0 0 1 53.976567,130.30975 75.518586,74.697736 0 0 1 110.70894,58.010346 Z" /><ellipse
         style="fill:#2aff2a;fill-opacity:0;stroke-width:0.264999"
         id="path14970"
         cx="122.08768"
         cy="85.516792"
         rx="16.438433"
         ry="3.1399255" /><ellipse
         style="fill:#009b00;fill-opacity:0.584775;stroke-width:0.261151"
         id="path15180"
         cx="66.900093"
         cy="107.90593"
         rx="6.0951495"
         ry="9.0503731"
         transform="rotate(-17.404718)" /><path
         id="path15180-68"
         style="fill:#009b00;fill-opacity:0.584775;stroke-width:0.261151"
         d="m 77.684557,66.128879 -2.590611,1.381747 -3.122325,1.807458 -2.867886,1.853592 -1.945027,1.40183 c 1.77834,3.99048 4.947116,5.917264 7.777856,5.032851 3.212142,-1.006958 4.604026,-5.689764 3.108853,-10.45931 -0.122319,-0.388618 -0.204444,-0.644222 -0.36086,-1.018168 z"
         sodipodi:nodetypes="cccccccc" /><ellipse
         style="fill:#009b00;fill-opacity:0.584775;stroke-width:0.370654"
         id="path15180-2"
         cx="-30.920372"
         cy="180.32277"
         rx="7.8733001"
         ry="14.113903"
         transform="matrix(0.7257147,-0.68799576,0.58639148,0.81002779,0,0)" /><ellipse
         style="fill:#006100;fill-opacity:0.584775;stroke-width:0.273248"
         id="path15180-2-88"
         cx="77.369339"
         cy="173.33835"
         rx="5.8042283"
         ry="10.404825"
         transform="matrix(0.7257147,-0.68799576,0.58639148,0.81002779,0,0)" /><ellipse
         style="fill:#009b00;fill-opacity:0.584775;stroke-width:0.370654"
         id="path15180-2-8"
         cx="18.888796"
         cy="205.29869"
         rx="7.8733001"
         ry="14.113903"
         transform="matrix(0.7257147,-0.68799576,0.58639148,0.81002779,0,0)" /><ellipse
         style="fill:#009b00;fill-opacity:0.584775;stroke-width:0.0860334"
         id="path15180-6"
         cx="39.023586"
         cy="93.506454"
         rx="2.3507979"
         ry="2.5467291"
         transform="matrix(0.99939933,-0.03465525,0.25648557,0.96654806,0,0)" /><ellipse
         style="fill:#009b00;fill-opacity:0.584775;stroke-width:0.0860334"
         id="path15180-6-2"
         cx="16.367002"
         cy="182.50827"
         rx="2.3507979"
         ry="2.5467291"
         transform="matrix(0.99939933,-0.03465525,0.25648557,0.96654806,0,0)" /><ellipse
         style="fill:#009b00;fill-opacity:0.584775;stroke-width:0.0860334"
         id="path15180-6-2-3"
         cx="29.759783"
         cy="134.56938"
         rx="2.3507979"
         ry="2.5467291"
         transform="matrix(0.99939933,-0.03465525,0.25648557,0.96654806,0,0)" /><ellipse
         style="fill:#006800;fill-opacity:0.584775;stroke-width:0.0257557"
         id="path15180-6-2-3-7"
         cx="29.197424"
         cy="139.71562"
         rx="0.70375603"
         ry="0.76241171"
         transform="matrix(0.99939933,-0.03465525,0.25648557,0.96654806,0,0)" /><ellipse
         style="fill:#006800;fill-opacity:0.584775;stroke-width:0.0257557"
         id="path15180-6-2-3-7-5"
         cx="42.559479"
         cy="160.56671"
         rx="0.70375603"
         ry="0.76241171"
         transform="matrix(0.99939933,-0.03465525,0.25648557,0.96654806,0,0)" /><ellipse
         style="fill:#006800;fill-opacity:0.584775;stroke-width:0.0257557"
         id="path15180-6-2-3-7-0"
         cx="26.51366"
         cy="132.70993"
         rx="0.70375603"
         ry="0.76241171"
         transform="matrix(0.99939933,-0.03465525,0.25648557,0.96654806,0,0)"
         inkscape:transform-center-x="-0.092350718"
         inkscape:transform-center-y="0.046175352" /><ellipse
         style="fill:#006800;fill-opacity:0.584775;stroke-width:0.0151782"
         id="path15180-6-2-3-7-0-3"
         cx="98.538193"
         cy="78.025452"
         rx="0.49974066"
         ry="0.3728748"
         transform="matrix(0.84907243,0.52827644,-0.19647015,0.98050981,0,0)"
         inkscape:transform-center-x="-0.043016441"
         inkscape:transform-center-y="0.05406581" /><ellipse
         style="fill:#009b00;fill-opacity:0.584775;stroke-width:0.0764804"
         id="path15180-6-37"
         cx="104.41691"
         cy="74.591515"
         rx="2.172538"
         ry="2.1776934"
         transform="matrix(0.99949188,-0.0318744,0.27723067,0.96080339,0,0)" /><ellipse
         style="fill:#009b00;fill-opacity:0.584775;stroke-width:0.0860334"
         id="path15180-6-3"
         cx="102.07568"
         cy="91.945297"
         rx="2.3507979"
         ry="2.5467291"
         transform="matrix(0.99939933,-0.03465525,0.25648557,0.96654806,0,0)" /><ellipse
         style="fill:#025a02;fill-opacity:0.584775;stroke-width:0.0860334"
         id="path15180-6-3-6"
         cx="122.83665"
         cy="156.51506"
         rx="2.3507979"
         ry="2.5467291"
         transform="matrix(0.99939933,-0.03465525,0.25648557,0.96654806,0,0)" /><ellipse
         style="fill:#025a02;fill-opacity:0.584775;stroke-width:0.0860334"
         id="path15180-6-3-6-9"
         cx="125.49146"
         cy="131.76804"
         rx="2.3507979"
         ry="2.5467291"
         transform="matrix(0.99939933,-0.03465525,0.25648557,0.96654806,0,0)" /><ellipse
         style="fill:#00d400;fill-opacity:0.754325;stroke-width:0.19828"
         id="path15180-5"
         cx="11.974204"
         cy="144.55074"
         rx="4.6800709"
         ry="6.7947454"
         transform="matrix(0.95649838,-0.29173763,0.30665042,0.95182221,0,0)" /><path
         id="path15180-5-50"
         style="fill:#00d400;fill-opacity:0.754325;stroke-width:0.19828"
         d="m 15.249335,104.80363 -1.389433,1.31523 -1.519658,1.53615 -1.294245,1.37549 -1.4726306,1.67003 -0.9667843,1.13851 -0.6539362,0.82421 c 0.7251647,2.53394 2.1553991,3.83797 4.0453751,3.83971 2.584604,-2.3e-4 4.679763,-3.04223 4.679788,-6.79468 -10e-4,-1.86372 -0.496658,-3.62276 -1.428476,-4.90465 z"
         transform="matrix(0.95649838,-0.29173763,0.30665042,0.95182221,0,0)"
         sodipodi:nodetypes="cccccccccc" /><path
         id="path15180-5-3"
         style="fill:#00d400;fill-opacity:0.754325;stroke-width:0.19828"
         d="m 118.0899,202.73176 c -0.32678,-0.10312 -0.66023,-0.15509 -0.99464,-0.15502 -2.58476,-1.7e-4 -4.6802,3.04186 -4.68028,6.79453 7.3e-4,1.77023 -0.0617,3.37145 0.78923,4.63928 l 0.73618,-0.57092 1.24076,-0.98356 1.07508,-0.91235 1.18563,-1.02877 2.34687,-2.18466 1.58341,-1.5843 c -0.57693,-2.09198 -1.76579,-3.53388 -3.28224,-4.01423 z"
         transform="matrix(0.95649838,-0.29173763,0.30665042,0.95182221,0,0)"
         sodipodi:nodetypes="ccccccccccc" /><ellipse
         style="fill:#00d400;fill-opacity:0.598616;stroke-width:0.336999"
         id="path15180-5-5"
         cx="129.37119"
         cy="161.03937"
         rx="7.8527651"
         ry="11.697736"
         transform="matrix(0.95388006,-0.30018798,0.29805381,0.95454907,0,0)" /><ellipse
         style="fill:#00d400;fill-opacity:0.598616;stroke-width:0.21613"
         id="path15180-5-5-6"
         cx="94.856651"
         cy="126.8227"
         rx="4.9170637"
         ry="7.684063"
         transform="matrix(0.90963734,-0.41540331,0.38279372,0.92383384,0,0)"
         inkscape:transform-center-x="-6.6492537"
         inkscape:transform-center-y="2.5858209" /><ellipse
         style="fill:#00df00;fill-opacity:0.598616;stroke-width:0.21613"
         id="path15180-5-5-6-6"
         cx="36.45937"
         cy="206.72675"
         rx="4.9170637"
         ry="7.684063"
         transform="matrix(0.90963734,-0.41540331,0.38279372,0.92383384,0,0)"
         inkscape:transform-center-x="-6.6492537"
         inkscape:transform-center-y="2.5858209" /><path
         d="m 103.12784,158.72987 c -0.80037,-0.12599 -2.46363,-0.72436 -3.696125,-1.3297 -4.50099,-2.21066 -8.62486,-7.58979 -11.67842,-15.23321 -0.39754,-3.52687 -2.19653,-4.8297 -1.27331,-5.65109 1.19445,-1.0627 3.11118,0.1068 5.62837,1.06222 2.89931,1.10048 6.41189,2.11557 7.51375,2.38154 6.616095,1.57084 23.112135,2.98941 32.751015,-0.36188 2.32987,-0.81006 2.25736,0.1437 2.14163,0.91369 -0.17324,2.54994 -1.46261,4.36806 -2.29756,5.98028 -1.19413,2.31138 -2.68369,4.83198 -3.31015,5.60135 -3.32208,4.07996 -7.52839,5.76142 -15.96403,6.38157 -5.91921,0.43516 -8.28185,0.49659 -9.81515,0.25523 z m 7.01597,-2.09312 c 7.87547,-0.51248 11.50428,-1.30367 14.31681,-3.1215 1.36096,-0.87963 3.41435,-2.90063 3.1826,-3.13238 -0.0419,-0.0419 -0.815,0.0539 -1.71791,0.21292 -1.63505,0.28801 -4.01205,0.12392 -4.01205,-0.27696 0,-0.11588 0.70598,-0.28447 1.56885,-0.37466 1.88076,-0.19658 3.95917,-0.94818 5.16468,-1.86767 0.56788,-0.43314 1.37042,-1.62424 2.25597,-3.34823 0.75599,-1.47175 1.31862,-2.73183 1.25028,-2.80016 -0.0683,-0.0683 -1.4775,0.0591 -3.13149,0.28321 -7.3898,1.00123 -17.63282,1.29567 -23.38265,0.67215 -5.695555,-0.61763 -11.864685,-2.23965 -15.495595,-4.07418 l -1.73975,-0.87902 0.74945,2.14864 c 1.31071,3.75779 3.13346,7.26874 4.22072,8.12986 1.29237,1.02357 2.8961,1.7072 4.93191,2.10233 2.676505,0.51949 2.345215,0.87162 -0.68285,0.72581 -2.45261,-0.11811 -2.65219,-0.0918 -2.43166,0.32023 0.49288,0.92095 3.54076,3.48198 5.051515,4.2446 2.72747,1.37683 3.46446,1.45386 9.90117,1.03501 z"
         style="display:inline;fill:#000000;stroke-width:0.264583"
         id="path93172" /><path
         id="path15180-5-5-0"
         style="display:inline;fill:#00d400;fill-opacity:0.598616;stroke-width:0.336999"
         d="m 78.256319,218.14781 c -0.548507,-0.17775 -1.108227,-0.26739 -1.669563,-0.26736 -4.336859,1.6e-4 -7.852533,5.2373 -7.852572,11.69763 6.58e-4,0.15703 -0.0014,0.25204 0.0035,0.40891 0,0 0.760507,0.0421 1.74191,0.0372 0.981225,-0.005 2.183273,-0.0566 2.967729,-0.0819 1.061025,-0.0343 2.123638,-0.0692 3.179752,-0.17515 1.288179,-0.12927 3.212008,-0.3636 4.806042,-0.61135 1.568216,-0.24373 2.868977,-0.47364 2.868977,-0.47364 -0.231406,-5.20161 -2.626354,-9.42527 -6.04578,-10.53431 z"
         transform="matrix(0.95388006,-0.30018798,0.29805381,0.95454907,0,0)"
         sodipodi:nodetypes="csccssssccc" /><ellipse
         style="display:inline;fill:#000000;fill-opacity:1;stroke-width:0.341522"
         id="path95494"
         cx="79.63958"
         cy="96.176041"
         rx="10.31875"
         ry="10.451042" /><ellipse
         style="display:inline;fill:#000000;fill-opacity:1;stroke-width:0.341522"
         id="path95494-7"
         cx="143.40416"
         cy="96.043747"
         rx="10.31875"
         ry="10.451042" /><ellipse
         style="display:inline;fill:#dbe3db;fill-opacity:1;stroke-width:0.264999"
         id="path95882"
         cx="79.242706"
         cy="89.429169"
         rx="3.8364582"
         ry="3.7041667" /><ellipse
         style="fill:#dbe3db;fill-opacity:1;stroke-width:0.264999"
         id="path95882-9"
         cx="143.13959"
         cy="89.429161"
         rx="3.8364582"
         ry="3.7041667" /></g></g></svg>
