<?xml version="1.0" encoding="UTF-8" standalone="no"?>
<!-- Created with Inkscape (http://www.inkscape.org/) -->

<svg
   width="790"
   height="870.52002"
   viewBox="0 0 209.02083 230.32508"
   version="1.1"
   id="svg5"
   xml:space="preserve"
   inkscape:version="1.2.2 (732a01da63, 2022-12-09)"
   sodipodi:docname="planetla_hneda_v1.svg"
   xmlns:inkscape="http://www.inkscape.org/namespaces/inkscape"
   xmlns:sodipodi="http://sodipodi.sourceforge.net/DTD/sodipodi-0.dtd"
   xmlns="http://www.w3.org/2000/svg"
   xmlns:svg="http://www.w3.org/2000/svg"><sodipodi:namedview
     id="namedview7"
     pagecolor="#ffffff"
     bordercolor="#000000"
     borderopacity="0.25"
     inkscape:showpageshadow="2"
     inkscape:pageopacity="0.0"
     inkscape:pagecheckerboard="0"
     inkscape:deskcolor="#d1d1d1"
     inkscape:document-units="mm"
     showgrid="false"
     inkscape:zoom="0.3581229"
     inkscape:cx="1326.3603"
     inkscape:cy="336.47667"
     inkscape:window-width="1920"
     inkscape:window-height="991"
     inkscape:window-x="2391"
     inkscape:window-y="594"
     inkscape:window-maximized="1"
     inkscape:current-layer="layer1" /><defs
     id="defs2"><clipPath
       clipPathUnits="userSpaceOnUse"
       id="clipPath18104"><path
         id="path18106"
         style="fill:#ff0000;fill-opacity:1;fill-rule:nonzero;stroke:none;stroke-width:0.264583"
         d="m 28.958439,20.720182 v 95.431898 h 35.109484 c -7.447526,-10.4254 -1.505778,-27.181553 22.239986,-33.372636 0.704352,-0.183639 1.410322,-0.354626 2.11305,-0.542602 0.174672,-0.05672 0.349329,-0.113813 0.523999,-0.170532 -0.0351,0.03478 -0.154448,0.110585 -0.105418,0.104386 0.13502,-0.01707 0.262199,-0.08074 0.380336,-0.148312 0.226436,-0.129514 0.420111,-0.326007 0.667144,-0.409795 0.02331,-0.0079 0.03557,-0.0099 0.03927,-0.0078 0.02593,0.01542 -0.378664,0.252643 -0.518316,0.353467 -5.407507,3.904113 -7.560421,6.809216 -7.514786,9.038209 17.28879,0.868871 49.015912,9.336745 31.132992,-10.286711 -1.71268,-1.879373 -3.39115,-3.790929 -5.13819,-5.638414 -0.18921,-0.200099 -0.45929,-0.30806 -0.66146,-0.495062 -0.0627,-0.05801 -0.0514,-0.08028 0.005,-0.07958 0.17041,0.0021 0.75338,0.211055 0.99994,0.28112 1.66244,0.472429 2.35442,0.642307 4.18009,1.122412 4.11437,1.043877 8.28036,1.864704 12.42922,2.756422 28.30026,6.082577 32.49498,27.909658 18.61178,37.495378 h 18.79215 V 20.720182 Z" /></clipPath></defs><g
     inkscape:label="Vrstva 1"
     inkscape:groupmode="layer"
     id="layer1"><ellipse
       style="fill:#784421;stroke-width:0.601908"
       id="path10398"
       cx="105.87069"
       cy="115.49548"
       rx="100.89462"
       ry="103.04141" /><ellipse
       style="fill:#c9733b;fill-opacity:0.312757;stroke-width:0.669139"
       id="path10402"
       ry="80.582817"
       rx="82.41378"
       cy="94.63736"
       cx="99.647636" /><ellipse
       style="fill:#62371a;fill-opacity:0.889706;stroke-width:0.253309"
       id="path12644-6"
       cx="144.98697"
       cy="172.69009"
       rx="20.090919"
       ry="19.406206" /><ellipse
       style="fill:#d38d5f;fill-opacity:0.908088;stroke-width:0.210007"
       id="path11238-3"
       cx="144.987"
       cy="170.50092"
       rx="14.983059"
       ry="15.752392" /><path
       style="fill:#a05a2c;fill-opacity:0.312757;stroke-width:0.286271"
       id="path11182"
       sodipodi:type="arc"
       sodipodi:cx="108.83468"
       sodipodi:cy="235.96956"
       sodipodi:rx="14.418344"
       sodipodi:ry="8.7473297"
       sodipodi:start="0"
       sodipodi:end="0.30104317"
       sodipodi:open="true"
       sodipodi:arc-type="arc"
       d="m 123.25302,235.96956 a 14.418344,8.7473297 0 0 1 -0.64842,2.59373" /><ellipse
       style="fill:#62371a;fill-opacity:0.838235;stroke-width:0.382549"
       id="path12644"
       cx="56.638424"
       cy="152.54544"
       rx="30.341391"
       ry="29.307329" /><ellipse
       style="fill:#d38d5f;fill-opacity:0.768382;stroke-width:0.317153"
       id="path11238"
       cx="56.638439"
       cy="149.23933"
       rx="22.627478"
       ry="23.789326" /><ellipse
       style="fill:#62371a;fill-opacity:0.867647;stroke-width:0.211952"
       id="path12644-9"
       cx="174.60045"
       cy="105.75827"
       rx="16.81077"
       ry="16.237844" /><ellipse
       style="fill:#d38d5f;fill-opacity:0.911765;stroke-width:0.17572"
       id="path11238-8"
       cx="174.60045"
       cy="103.92648"
       rx="12.536845"
       ry="13.180573" /><path
       style="fill:#000000;stroke-width:0.96813"
       d="m 85.960818,95.678084 c 0,-0.722896 2.637064,-2.301639 5.971141,-3.574764 5.474219,-2.090385 7.012275,-2.280135 18.482061,-2.280135 11.50535,0 12.99696,0.18553 18.55767,2.307872 7.24322,2.764544 7.28092,4.462504 0.0863,3.881125 -8.09363,-0.654031 -33.025981,-0.478048 -38.263259,0.270067 -4.040016,0.577094 -4.833778,0.477898 -4.833778,-0.604186 z M 64.690589,69.666516 c -7.129167,-3.149597 -9.102129,-9.242623 -4.570492,-14.114921 4.7506,-5.107726 13.003584,-6.3761 19.736728,-3.03326 4.507479,2.237855 6.103993,4.594393 6.103993,9.009725 0,2.797857 -0.732702,3.885409 -4.415608,6.5539 -3.609957,2.615632 -5.21824,3.198797 -8.814507,3.1963 -2.419402,-0.0022 -6.037463,-0.726976 -8.040114,-1.611744 z m 73.622841,0.560572 c -1.5451,-0.566503 -4.02139,-2.322488 -5.50289,-3.902265 -4.01982,-4.286402 -3.00567,-9.285453 2.64485,-13.037445 3.2621,-2.166053 3.87058,-2.967475 2.67112,-3.51803 -0.85429,-0.392155 -1.88239,-0.718701 -2.28459,-0.725628 -1.20389,-0.02055 -2.08826,-2.395024 -1.38601,-3.720993 1.00238,-1.892669 4.72458,-1.482784 10.69126,1.177315 5.42315,2.417773 18.77701,5.827396 22.82324,5.827396 1.18517,0 2.1549,0.55625 2.1549,1.236114 0,1.371791 -0.4706,1.442097 -8.33346,1.24489 -5.17218,-0.129749 -5.41918,-0.04169 -4.2651,1.52074 0.67373,0.91218 1.22497,3.209832 1.22497,5.105935 0,2.905826 -0.6937,3.950077 -4.41561,6.646843 -3.61857,2.621853 -5.2097,3.197182 -8.81453,3.187226 -2.41938,-0.0054 -5.66306,-0.475638 -7.20815,-1.042098 z M 43.878599,50.047047 c 0,-3.651068 20.459996,-16.673512 26.196293,-16.673512 2.507254,0 4.735963,1.9281 3.927682,3.397879 -0.343154,0.624002 -4.062607,2.320667 -8.265462,3.770368 -4.202855,1.449671 -10.4565,4.496465 -13.896996,6.770633 -6.855235,4.53131 -7.961517,4.911311 -7.961517,2.734632 z"
       id="path4884"
       sodipodi:nodetypes="ccscsscccssssccccsccssssscssccssscss" /><ellipse
       style="fill:#ffffff;fill-opacity:0.867647;stroke-width:0.286271"
       id="path18684-9"
       cx="142.77274"
       cy="64.983284"
       rx="3.6816394"
       ry="4.2172475" /><ellipse
       style="fill:#ffffff;fill-opacity:0.867647;stroke-width:0.286271"
       id="path18684"
       cx="72.198257"
       cy="65.894951"
       rx="3.6816394"
       ry="4.2172475" /><path
       d="m 173.38993,38.511647 c -1.19431,-0.86536 -0.88454,-4.24128 0.44374,-4.8361 2.11333,-0.94635 6.75953,0.38713 6.75953,1.94005 0,2.62657 -4.87187,4.58529 -7.20327,2.89605 z m 4.6442,-6.93338 c -4.46091,-1.88257 -1.22154,-5.71473 9.61552,-11.37509 5.26792,-2.751548 6.63527,-3.958368 7.27223,-6.418378 0.65886,-2.54471 0.3739,-3.27057 -1.78003,-4.5343101 -3.82658,-2.2451 -5.87752,-1.88019 -10.28292,1.8296501 -2.882,2.42696 -4.53989,3.20683 -5.97114,2.8089 -3.33763,-0.92801 -2.44881,-4.8426501 1.8493,-8.1446901 3.2058,-2.46286 4.6066,-2.94296 8.58667,-2.94296 15.71301,0 21.64388,12.3325101 9.14253,19.0108281 -2.06253,1.10181 -6.43367,3.95016 -9.71372,6.32972 -3.28002,2.37952 -6.13566,4.31516 -6.34587,4.30137 -0.21024,-0.0147 -1.27788,-0.40305 -2.37257,-0.86504 z"
       style="fill:#a05a2c;stroke-width:0.96813"
       id="path2925" /></g></svg>
