<?xml version="1.0" encoding="UTF-8" standalone="no"?>
<svg
   width="790"
   height="870"
   viewBox="0 0 790 870"
   fill="none"
   version="1.1"
   id="svg18287"
   sodipodi:docname="planetla_žluta_v1.svg"
   xml:space="preserve"
   inkscape:version="1.2.2 (732a01da63, 2022-12-09)"
   xmlns:inkscape="http://www.inkscape.org/namespaces/inkscape"
   xmlns:sodipodi="http://sodipodi.sourceforge.net/DTD/sodipodi-0.dtd"
   xmlns="http://www.w3.org/2000/svg"
   xmlns:svg="http://www.w3.org/2000/svg"><defs
     id="defs18291"><clipPath
       clipPathUnits="userSpaceOnUse"
       id="clipPath3032"><path
         id="path3034"
         style="fill:#ff0000;fill-opacity:1;fill-rule:nonzero;stroke:none"
         d="m 952.88867,72.212891 c 0.87434,3.614404 1.77007,7.225216 2.64649,10.835937 3.56599,13.852479 5.40905,27.989922 6.48437,42.224612 0.88213,13.16708 0.78144,26.37221 1.79297,39.52929 1.88036,15.60263 2.87169,31.28397 4.01953,46.95118 1.67671,0.20561 3.35638,0.38854 5.03125,0.60937 34.54862,-17.44993 65.48552,-31.47225 52.89062,8.33594 9.1164,1.23395 18.2717,2.15801 27.4512,2.87109 17.6677,1.09326 35.3654,1.59663 53.0586,2.06446 0.4358,0.0198 0.8709,0.0536 1.3066,0.0742 0.1122,-0.12151 0.2494,-0.21832 0.3594,-0.34179 0.5931,-0.66574 0.9947,-1.49886 1.6426,-2.11133 0.1319,-0.1247 0.362,0.0284 0.5429,0.043 0.2865,-0.50375 0.5231,-1.03786 0.8594,-1.50977 0.1117,-0.15668 0.3789,-0.17243 0.4629,-0.3457 1.4259,-2.95253 0.3337,-6.3926 0.6445,-9.51758 1.7169,-17.26099 5.4277,-31.98875 10.4492,-44.35156 v -22.75781 c -10.6453,-2.05094 -22.1427,-5.82341 -34.3496,-11.64844 -3.8884,-1.85557 -7.9167,-3.39289 -11.7773,-5.31055 -16.9867,-8.43746 -24.8692,-15.30315 -26.4668,-21.13281 -9.4008,-2.4351 -18.4698,-5.91308 -26.6758,-11.306641 -2.8943,-1.886338 -5.7142,-3.868943 -8.4687,-5.9375 -6.3219,1.976251 -12.6698,4.30789 -17.61917,8.789062 -4.78705,4.596769 -9.64055,9.164539 -13.94922,14.222659 -2.12124,2.74279 -4.44297,5.33654 -6.57617,8.07031 -0.0229,0.2085 -0.0422,0.38489 -0.0664,0.60742 0.0607,-0.008 0.13641,-0.0183 0.1543,-0.0195 -0.0741,0.18484 -0.16368,0.65588 -0.25977,1.01172 -0.0181,0.17147 -0.0263,0.24028 -0.0449,0.41992 -1.00659,4.16354 -0.42917,1.33735 0.0449,-0.41992 0.0427,-0.40513 0.0659,-0.62881 0.10547,-0.99219 -0.18754,0.0236 -0.4792,0.0621 -0.47656,0.0586 0.17301,-0.22796 0.36689,-0.44037 0.54297,-0.66602 0.66482,-6.04404 0.79013,-6.75497 -0.96094,-16.53516 -0.38691,-2.16084 -1.35172,-4.176765 -2.02734,-6.265621 -3.25215,-10.054803 -6.44295,-17.089234 -9.58985,-21.669922 -3.70666,-1.118962 -7.13993,-2.443251 -10.44531,-3.855469 -0.2483,-0.005 -0.48869,-0.01777 -0.73633,-0.02344 z m 48.65043,0.02344 c -0.3939,0.01318 -0.9118,0.06129 -1.1817,0.05664 -0.3228,-0.0055 -0.64588,0.0011 -0.96873,0 0.25976,0.03 0.52493,0.09137 0.78323,0.115234 0.6001,-0.0067 1.2921,0.298949 1.8008,-0.01953 0.2287,-0.14321 -0.04,-0.165526 -0.4336,-0.152344 z M 860.20508,81.9375 c -0.79008,0.05403 -1.53135,0.158216 -2.33399,0.199219 -7.60109,3.483463 -15.75727,5.958433 -24.53125,7.919922 -9.96154,1.996842 -20.10486,2.705022 -30.23437,3.179687 -1.63174,2.62203 -4.41421,5.185329 -8.57031,7.294922 -3.92255,1.99102 -5.36464,2.78011 -9.40821,4.59961 -4.55799,2.05103 -9.23367,3.82636 -13.95507,5.46094 -2.75227,0.96051 -5.49555,1.9493 -8.24415,2.91992 -3.37337,1.15458 -6.73045,2.35925 -10.13867,3.41016 -3.67935,1.10675 -7.36102,2.22739 -11.12109,3.03124 -2.46893,0.48872 -4.96156,0.94582 -7.48438,1.00782 -1.49177,0.0332 -2.98293,0.0177 -4.47461,-0.0254 -1.53803,-0.0486 -3.07577,-0.14387 -4.60351,-0.33594 -1.34278,3.40015 -2.65444,6.81249 -3.87305,10.26172 -3.64195,10.56788 -6.03897,21.51361 -8.20703,32.46289 -2.7438,14.19055 -4.21048,28.56317 -4.80469,42.99219 0.029,1.04263 0.12388,2.07754 0.17969,3.11718 17.9312,9.49137 30.6982,21.02564 38.48828,33.11329 13.12746,-18.96269 40.4428,-33.0058 82.10156,-31.82032 5.22173,0.1486 10.42944,0.56415 15.625,1.12305 6.9947,-1.75988 14.06024,-3.20577 21.26563,-3.91016 5.50889,-0.53854 10.25357,-0.75793 14.36133,-0.71289 -0.79283,-10.86561 -1.64025,-21.7263 -2.83985,-32.55664 -4.9236,-3.64588 -10.02225,-11.54424 -15.33398,-25.05469 -1.62198,-4.12528 -3.76837,-8.08188 -4.86524,-12.37695 -4.18041,-16.36993 -3.29542,-17.09065 -2.66015,-31.52539 0.452,-2.71877 0.83022,-5.45068 1.35547,-8.156249 1.03006,-5.30574 2.52326,-10.511077 4.30664,-15.619141 z" /></clipPath><clipPath
       clipPathUnits="userSpaceOnUse"
       id="clipPath3544"><path
         id="path3546"
         style="fill:#ff0000;fill-opacity:1;fill-rule:nonzero;stroke:none"
         d="m 373.12109,156.46875 c 0.11438,0.28628 0.2222,0.55999 0.33008,0.83203 v -0.80859 c -0.10999,-0.008 -0.22007,-0.0154 -0.33008,-0.0234 z m -183.92968,13.41602 c -0.34345,0.38321 -0.69067,0.762 -1.0293,1.15039 -0.13752,0.1577 -0.27606,0.29712 -0.41406,0.44531 0.97736,0.0495 1.95586,0.07 2.93359,0.11328 -0.51123,-0.52712 -1.0103,-1.09129 -1.49023,-1.70898 z m 3.53711,32.56445 c -2.84449,1.53736 -6.49198,2.35465 -10.85352,2.04297 -4.48576,10.62419 -18.54967,11.9207 -26.20508,0.0957 v 107.2793 h 217.78125 v -86.01172 c -5.12827,-1.95518 -10.14982,-7.17007 -13.19336,-16.27344 -0.9963,-0.055 -1.87466,-0.0873 -2.95312,-0.15625 -9.10199,-0.58212 -18.17338,-1.53812 -27.23438,-2.5625 -4.3763,-0.49674 -11.28705,-1.28117 -16.22851,-1.76953 -0.50638,0.92649 -1.1823,1.80727 -1.9375,2.66016 17.84418,7.25214 13.23816,29.3917 -12.61133,28.49609 -14.15828,-0.49054 -6.97201,-0.045 -21.55664,-1.375 -8.35965,-1.43114 -12.33362,-1.80345 -20.37695,-4.37109 -8.0187,-2.55981 -15.74443,-6.48287 -22.26172,-11.84571 -0.37846,-0.31141 -0.74142,-0.64115 -1.10547,-0.96875 -4.95409,-1.90894 -4.80031,-1.84714 -14.8125,-5.9082 -6.65561,-2.93562 -11.98023,-5.03703 -18.22852,-8.71484 -0.16291,-0.0959 -0.31263,-0.21305 -0.47461,-0.31055 -2.58265,-0.0885 -5.16519,-0.20505 -7.74804,-0.30664 z" /></clipPath></defs><sodipodi:namedview
     id="namedview18289"
     pagecolor="#ffffff"
     bordercolor="#000000"
     borderopacity="0.25"
     inkscape:showpageshadow="2"
     inkscape:pageopacity="0.0"
     inkscape:pagecheckerboard="0"
     inkscape:deskcolor="#d1d1d1"
     showgrid="false"
     inkscape:zoom="0.45971304"
     inkscape:cx="247.98078"
     inkscape:cy="520.97717"
     inkscape:window-width="1920"
     inkscape:window-height="991"
     inkscape:window-x="2391"
     inkscape:window-y="594"
     inkscape:window-maximized="1"
     inkscape:current-layer="svg18287" /><g
     id="g1965"
     transform="matrix(1.5676494,0,0,1.5676494,-16.28446,18.133888)"><path
       d="m 262.57097,418.88162 c 125.12475,0 226.55873,-92.34237 226.55873,-206.25276 0,-113.910387 -101.43398,-206.253776 -226.55873,-206.253776 -125.12475,0 -226.557886,92.343389 -226.557886,206.253776 0,113.91039 101.433136,206.25276 226.557886,206.25276 z"
       fill="#ffdd55"
       id="path18049"
       style="stroke-width:1.13325" /><path
       id="path18049-3"
       style="fill:#ffd118;fill-opacity:1;stroke-width:1.13325"
       d="M 250.04238,6.6449994 C 130.27755,12.11252 35.016995,102.24454 35.016995,212.63327 c 0,111.81407 97.753085,202.78118 219.693355,206.09375 -90.55118,-32.54995 -154.65039,-112.87312 -154.65039,-206.8789 0,-92.39064 61.8924,-171.606601 149.98242,-205.2031206 z" /><path
       d="m 109.82612,116.92962 c 16.7446,-11.58466 26.43937,-26.945768 21.65346,-34.309105 -4.7849,-7.363325 -22.23875,-3.942021 -38.984072,7.641386 -16.744807,11.584659 -26.439591,26.945779 -21.653978,34.309109 4.785713,7.36332 22.239664,3.94202 38.98459,-7.64139 z"
       fill="#ffe680"
       id="path18051"
       style="stroke-width:1.13325" /><path
       d="m 315.56051,156.35742 c 19.81735,10.42318 42.63224,11.11577 50.95832,1.54573 8.32606,-9.5688 -0.98971,-25.77544 -20.80807,-36.19735 -19.81736,-10.42316 -42.63224,-11.11576 -50.9573,-1.54571 -8.32607,9.56879 0.98971,25.77543 20.80705,36.19733 z"
       fill="#ffe680"
       id="path18053"
       style="stroke-width:1.13325" /><path
       d="m 405.98686,139.12578 c 20.50324,-3.45922 36.47356,-13.22139 35.67185,-21.80435 -0.80173,-8.58297 -18.07269,-12.73605 -38.5759,-9.27683 -20.50324,3.45922 -36.47356,13.22138 -35.67184,21.80435 0.80171,8.58296 18.07267,12.73604 38.57589,9.27683 z"
       fill="#ffe680"
       id="path18055"
       style="stroke-width:1.13325" /><path
       d="m 288.82542,405.25328 c 9.93459,0 17.98835,-6.50896 17.98835,-14.53834 0,-8.02813 -8.05376,-14.53707 -17.98835,-14.53707 -9.93559,0 -17.98935,6.50894 -17.98935,14.53707 0,8.02938 8.05376,14.53834 17.98935,14.53834 z"
       fill="#ffeeaa"
       id="path18057"
       style="stroke-width:1.13325" /><path
       d="m 236.31754,89.058698 c 9.93459,0 17.98834,-6.508956 17.98834,-14.538344 0,-8.029389 -8.05375,-14.537069 -17.98834,-14.537069 -9.93458,0 -17.98834,6.50768 -17.98834,14.537069 0,8.029388 8.05376,14.538344 17.98834,14.538344 z"
       fill="#ffeeaa"
       id="path18059"
       style="stroke-width:1.13325" /><path
       d="m 300.90707,99.261936 c 14.19415,3.011814 29.21644,-1.351072 33.55222,-9.745717 4.33678,-8.394658 -3.65498,-17.642418 -17.85015,-20.655482 -14.19415,-3.013076 -29.21643,1.349805 -33.5522,9.744463 -4.33681,8.395899 3.65497,17.643672 17.85013,20.656736 z"
       fill="#ffeeaa"
       id="path18061"
       style="stroke-width:1.13325" /><path
       d="m 441.8101,251.53215 c 26.04514,-3.06236 45.70701,-14.82776 43.91661,-26.27719 -1.79141,-11.4507 -24.35634,-18.24907 -50.40148,-15.1867 -26.04613,3.06362 -45.70802,14.82902 -43.91762,26.27845 1.79142,11.45069 24.35736,18.24906 50.40249,15.18544 z"
       fill="#ffeeaa"
       id="path18063"
       style="stroke-width:1.13325" /><path
       d="m 440.01971,271.78192 c 20.50322,-3.45922 36.47354,-13.22137 35.67183,-21.80433 -0.80172,-8.58171 -18.07369,-12.73606 -38.5759,-9.27683 -20.50323,3.46048 -36.47457,13.22137 -35.67183,21.80433 0.80171,8.58297 18.07266,12.73606 38.5759,9.27683 z"
       fill="#ffe680"
       id="path18065"
       style="stroke-width:1.13325" /><path
       d="m 439.50656,196.46645 c 25.4131,-6.37751 43.41771,-20.58471 40.21389,-31.73081 -3.20382,-11.1461 -26.40282,-15.01229 -51.81592,-8.63352 -25.41311,6.37751 -43.4177,20.58471 -40.21286,31.7308 3.20382,11.14737 26.40179,15.01229 51.81489,8.63353 z"
       fill="#ffeeaa"
       id="path18067"
       style="stroke-width:1.13325" /><path
       d="m 405.98686,189.09934 c 20.50324,-3.45924 36.47458,-13.22139 35.67185,-21.80435 -0.80173,-8.58297 -18.07269,-12.73605 -38.5759,-9.27683 -20.50324,3.45922 -36.47356,13.22137 -35.67184,21.80435 0.80171,8.58169 18.0737,12.73604 38.57589,9.27683 z"
       fill="#ffe680"
       id="path18069"
       style="stroke-width:1.13325" /><path
       d="m 292.96001,173.59666 c 1.02323,2.07149 0.24793,4.81662 -2.15416,7.63254 -2.40312,2.81716 -6.23897,5.47762 -10.66823,7.39997 -4.42926,1.92235 -9.09323,2.94861 -12.96972,2.85635 -3.8775,-0.0922 -6.65253,-1.29547 -7.71946,-3.34927 -1.06793,-2.05253 -0.33937,-4.78627 2.02412,-7.60472 2.36449,-2.81844 6.17189,-5.49026 10.59099,-7.43283 4.4191,-1.94258 9.08917,-2.99666 12.99006,-2.93219 3.90086,0.0632 6.71451,1.24113 7.82613,3.2747"
       fill="#ffe680"
       id="path18075"
       style="stroke-width:1.13325" /><path
       d="m 149.5238,163.28345 c 0.87487,2.13089 -0.0905,4.82168 -2.68661,7.48466 -2.59517,2.66424 -6.60984,5.08329 -11.16512,6.72886 -4.55422,1.64683 -9.2802,2.38493 -13.14246,2.05507 -3.86226,-0.32988 -6.54684,-1.70244 -7.46745,-3.81565 -0.9206,-2.11319 -0.003,-4.79765 2.55554,-7.46443 2.55655,-2.66677 6.5438,-5.09973 11.08992,-6.76678 4.54611,-1.66705 9.2802,-2.43296 13.16785,-2.12963 3.88768,0.30333 6.61292,1.65063 7.57821,3.7474"
       fill="#ffe680"
       id="path18077"
       style="stroke-width:1.13325" /><path
       d="m 192.4436,258.02467 c 6.07639,-1.15898 10.83893,-3.30378 10.63571,-4.79008 -0.20221,-1.48632 -5.29397,-1.75174 -11.37036,-0.59276 -6.0774,1.15897 -10.83996,3.30376 -10.63672,4.79008 0.20323,1.48632 5.29397,1.75172 11.37137,0.59276 z"
       fill="#ffeeaa"
       id="path18085"
       style="stroke-width:1.13325" /><path
       d="m 175.08706,368.23257 c 19.67305,-4.01912 33.85603,-14.82777 31.67646,-24.14251 -2.17856,-9.31348 -19.89356,-13.60686 -39.56764,-9.58901 -19.67305,4.01912 -33.855,14.82776 -31.67645,24.14125 2.17856,9.31474 19.89356,13.60812 39.56763,9.59027 z"
       fill="#ffcc00"
       id="path18087"
       style="stroke-width:1.13325" /><path
       d="m 229.02487,40.902082 c 9.93458,0 17.98833,-6.508695 17.98833,-14.537577 0,-8.029008 -8.05375,-14.537703 -17.98833,-14.537703 -9.93459,0 -17.98834,6.508695 -17.98834,14.537703 0,8.028882 8.05375,14.537577 17.98834,14.537577 z"
       fill="#ffeeaa"
       id="path18089"
       style="stroke-width:1.13325" /><path
       d="m 175.86055,84.915712 c 16.27009,-5.902285 25.83583,-19.409295 21.36593,-30.168529 -4.47092,-10.759227 -21.28361,-14.696445 -37.5537,-8.793904 -16.27008,5.902415 -25.83479,19.409045 -21.36489,30.168406 4.4699,10.759347 21.2836,14.696325 37.55266,8.794027 z"
       fill="#ffeeaa"
       id="path18091"
       style="stroke-width:1.13325" /><path
       d="m 368.00236,91.125128 c 18.15294,0.423395 35.4056,-7.291285 38.53525,-17.230389 3.12963,-9.939105 -9.04854,-18.33994 -27.20148,-18.763085 -18.15194,-0.423144 -35.4046,7.290901 -38.53526,17.231272 -3.12963,9.939105 9.04854,18.34006 27.20149,18.762202 z"
       fill="#ffeeaa"
       id="path18093"
       style="stroke-width:1.13325" /><path
       d="m 306.63188,53.531843 c 25.88763,-2.673851 46.08399,-11.513002 45.11055,-19.742714 -0.97345,-8.229712 -22.74885,-12.73365 -48.63648,-10.059799 -25.88763,2.673976 -46.08399,11.513128 -45.11055,19.742839 0.97345,8.229711 22.74885,12.733651 48.63648,10.059674 z"
       fill="#ffeeaa"
       id="path18095"
       style="stroke-width:1.13325" /><path
       d="m 226.03849,144.47702 c 26.30527,0.61045 47.87948,-8.24678 48.18633,-19.78468 0.30688,-11.5379 -20.76944,-21.38726 -47.07469,-21.99899 -26.30527,-0.61044 -47.87948,8.24678 -48.18634,19.78468 -0.30688,11.5379 20.76842,21.38726 47.0747,21.99899 z"
       fill="#ffeeaa"
       id="path18097"
       style="stroke-width:1.13325" /><path
       d="m 238.74199,153.66285 c 20.50324,-3.45923 36.47458,-13.22138 35.67185,-21.80308 -0.80172,-8.58298 -18.07268,-12.73606 -38.5759,-9.27684 -20.50324,3.45923 -36.47356,13.22138 -35.67184,21.80308 0.80172,8.58296 18.0737,12.73606 38.57589,9.27684 z"
       fill="#ffe680"
       id="path18099"
       style="stroke-width:1.13325" /><path
       d="m 415.2305,336.19902 c 25.77687,0 46.67334,-16.27236 46.67334,-36.34394 0,-20.07284 -20.89647,-36.34393 -46.67334,-36.34393 -25.77587,0 -46.67234,16.27109 -46.67234,36.34393 0,20.07158 20.89647,36.34394 46.67234,36.34394 z"
       fill="#ffeeaa"
       id="path18101"
       style="stroke-width:1.13325" /><path
       d="m 354.45242,281.77664 c 20.50323,-3.45923 36.47355,-13.22138 35.67184,-21.80434 -0.80172,-8.58171 -18.0737,-12.73606 -38.5759,-9.27683 -20.50323,3.45922 -36.47457,13.22137 -35.67184,21.80433 0.80172,8.58298 18.07266,12.73606 38.5759,9.27684 z"
       fill="#ffe680"
       id="path18103"
       style="stroke-width:1.13325" /><path
       d="m 363.54566,385.93624 c 25.33182,-4.39702 45.06482,-16.80573 44.07411,-27.71548 -0.99071,-10.90977 -22.33021,-16.18896 -47.66304,-11.79194 -25.33181,4.39701 -45.06483,16.80572 -44.07411,27.71548 0.99071,10.90975 22.3302,16.19021 47.66304,11.79194 z"
       fill="#ffe680"
       id="path18105"
       style="stroke-width:1.13325" /><path
       d="m 185.26879,475.21499 c 0.26927,0 0.48672,-1.6266 0.48672,-3.63364 0,-2.00704 -0.21745,-3.6349 -0.48672,-3.6349 -0.26825,0 -0.4857,1.62786 -0.4857,3.6349 0,2.00704 0.21745,3.63364 0.4857,3.63364 z"
       fill="#ffd42a"
       id="path18107"
       style="stroke-width:1.13325" /><path
       d="m 106.9949,94.509771 c 2.6849,0 4.86141,-1.423112 4.86141,-3.179903 0,-1.756777 -2.17651,-3.179903 -4.86141,-3.179903 -2.68509,0 -4.86172,1.423126 -4.86172,3.179903 0,1.756791 2.17663,3.179903 4.86172,3.179903 z"
       fill="#ffd42a"
       id="path18109"
       style="stroke-width:1.13325" /><path
       d="m 386.54651,232.61829 c 11.54614,0 20.9056,-7.1194 20.9056,-15.9008 0,-8.78139 -9.35946,-15.90079 -20.9056,-15.90079 -11.54615,0 -20.90562,7.1194 -20.90562,15.90079 0,8.7814 9.35947,15.9008 20.90562,15.9008 z"
       fill="#ffd42a"
       id="path18111"
       style="stroke-width:1.13325" /><path
       d="m 459.47328,213.53759 c 9.93458,0 17.98833,-6.71243 17.98833,-14.99206 0,-8.28091 -8.05375,-14.99208 -17.98833,-14.99208 -9.93458,0 -17.98833,6.71117 -17.98833,14.99208 0,8.27963 8.05375,14.99206 17.98833,14.99206 z"
       fill="#ffd42a"
       id="path18113"
       style="stroke-width:1.13325" /><path
       d="m 223.67703,39.084759 c 3.75965,0 6.80697,-4.881458 6.80697,-10.903182 0,-6.021726 -3.04732,-10.903311 -6.80697,-10.903311 -3.75862,0 -6.80595,4.881585 -6.80595,10.903311 0,6.021724 3.04733,10.903182 6.80595,10.903182 z"
       fill="#ffd42a"
       id="path18115"
       style="stroke-width:1.13325" /><path
       d="m 246.04178,134.48862 c 13.96249,0 25.28101,-4.06841 25.28101,-9.08599 0,-5.01883 -11.31852,-9.08598 -25.28101,-9.08598 -13.96246,0 -25.28203,4.06715 -25.28203,9.08598 0,5.01758 11.31957,9.08599 25.28203,9.08599 z"
       fill="#ffd42a"
       id="path18117"
       style="stroke-width:1.13325" /><path
       d="m 363.69605,332.56412 c 11.8144,0 21.39232,-9.55866 21.39232,-21.35187 0,-11.79193 -9.57792,-21.35188 -21.39232,-21.35188 -11.81441,0 -21.39132,9.55995 -21.39132,21.35188 0,11.79321 9.57691,21.35187 21.39132,21.35187 z"
       fill="#ffd42a"
       id="path18119"
       style="stroke-width:1.13325" /><path
       d="m 286.88058,392.53239 c 7.51724,0 13.61293,-5.08457 13.61293,-11.35716 0,-6.27261 -6.09569,-11.35843 -13.61293,-11.35843 -7.51825,0 -13.61394,5.08582 -13.61394,11.35843 0,6.27259 6.09569,11.35716 13.61394,11.35716 z"
       fill="#ffd42a"
       id="path18121"
       style="stroke-width:1.13325" /><path
       d="m 383.14352,362.54826 c 17.18459,0 31.11455,-5.89849 31.11455,-13.17462 0,-7.27612 -13.92996,-13.17462 -31.11455,-13.17462 -17.18458,0 -31.11556,5.8985 -31.11556,13.17462 0,7.27613 13.93098,13.17462 31.11556,13.17462 z"
       fill="#ffd42a"
       id="path18123"
       style="stroke-width:1.13325" /><path
       d="m 361.7512,123.58518 c 5.37018,0 9.72423,-6.9159 9.72423,-15.4458 0,-8.531131 -4.35405,-15.447047 -9.72423,-15.447047 -5.37018,0 -9.72324,6.915916 -9.72324,15.447047 0,8.5299 4.35306,15.4458 9.72324,15.4458 z"
       fill="#ffd42a"
       id="path18125"
       style="stroke-width:1.13325" /><path
       d="m 334.52533,406.162 c 13.96248,0 25.28101,-7.52636 25.28101,-16.80952 0,-9.28315 -11.31853,-16.80951 -25.28101,-16.80951 -13.96247,0 -25.28101,7.52636 -25.28101,16.80951 0,9.28316 11.31854,16.80952 25.28101,16.80952 z"
       fill="#ffd42a"
       id="path18127"
       style="stroke-width:1.13325" /><path
       d="m 311.18916,362.54826 c 11.27688,0 20.4189,-7.32162 20.4189,-16.35453 0,-9.03289 -9.14202,-16.35451 -20.4189,-16.35451 -11.27788,0 -20.41989,7.32162 -20.41989,16.35451 0,9.03291 9.14201,16.35453 20.41989,16.35453 z"
       fill="#ffd42a"
       id="path18129"
       style="stroke-width:1.13325" /><path
       d="m 138.11077,92.692333 c 11.81338,0 21.39131,-8.949487 21.39131,-19.989431 0,-11.03993 -9.57793,-19.988912 -21.39131,-19.988912 -11.81441,0 -21.39233,8.948982 -21.39233,19.988912 0,11.039944 9.57792,19.989431 21.39233,19.989431 z"
       fill="#ffd42a"
       id="path18131"
       style="stroke-width:1.13325" /><path
       d="m 429.81585,299.85508 c 16.64807,0 30.14313,-9.15296 30.14313,-20.44442 0,-11.29018 -13.49506,-20.44315 -30.14313,-20.44315 -16.64706,0 -30.14314,9.15297 -30.14314,20.44315 0,11.29146 13.49608,20.44442 30.14314,20.44442 z"
       fill="#ffd42a"
       id="path18133"
       style="stroke-width:1.13325" /><path
       d="m 374.3917,172.65002 c 3.2221,0 5.83455,-3.66144 5.83455,-8.17726 0,-4.51708 -2.61245,-8.17727 -5.83455,-8.17727 -3.22211,0 -5.83354,3.66019 -5.83354,8.17727 0,4.51582 2.61143,8.17726 5.83354,8.17726 z"
       fill="#ffd42a"
       id="path18135"
       style="stroke-width:1.13325" /><path
       d="m 317.50942,386.17258 c 10.47212,0 18.96077,-7.1194 18.96077,-15.90079 0,-8.7814 -8.48865,-15.90079 -18.96077,-15.90079 -10.47211,0 -18.96075,7.11939 -18.96075,15.90079 0,8.78139 8.48864,15.90079 18.96075,15.90079 z"
       fill="#d4aa00"
       id="path18137"
       style="stroke-width:1.13325" /><path
       d="m 409.88266,356.18844 c 9.93459,0 17.98834,-9.15296 17.98834,-20.4444 0,-11.29019 -8.05375,-20.44317 -17.98834,-20.44317 -9.93458,0 -17.98834,9.15298 -17.98834,20.44317 0,11.29144 8.05376,20.4444 17.98834,20.4444 z"
       fill="#d4aa00"
       id="path18139"
       style="stroke-width:1.13325" /><path
       d="m 148.5692,252.64851 c 9.93458,0 17.98833,-9.15296 17.98833,-20.4444 0,-11.29019 -8.05375,-20.44316 -17.98833,-20.44316 -9.93459,0 -17.98834,9.15297 -17.98834,20.44316 0,11.29144 8.05375,20.4444 17.98834,20.4444 z"
       fill="#d4aa00"
       id="path18139-5"
       style="stroke-width:1.13325" /><path
       d="m 352.02796,341.65011 c 7.51826,0 13.61293,-3.45795 13.61293,-7.72227 0,-4.26556 -6.09467,-7.72352 -13.61293,-7.72352 -7.51825,0 -13.61292,3.45796 -13.61292,7.72352 0,4.26432 6.09467,7.72227 13.61292,7.72227 z"
       fill="#d4aa00"
       id="path18143"
       style="stroke-width:1.13325" /><path
       d="m 265.97498,43.627878 c 2.41632,0 4.37539,-2.440792 4.37539,-5.451591 0,-3.010925 -1.95907,-5.451591 -4.37539,-5.451591 -2.41735,0 -4.37643,2.440666 -4.37643,5.451591 0,3.010799 1.95908,5.451591 4.37643,5.451591 z"
       fill="#d4aa00"
       id="path18145"
       style="stroke-width:1.13325" /><path
       d="m 458.01414,248.06408 c 4.83367,0 8.75182,-3.05099 8.75182,-6.8148 0,-3.76382 -3.91815,-6.81354 -8.75182,-6.81354 -4.83267,0 -8.75081,3.04972 -8.75081,6.81354 0,3.76381 3.91814,6.8148 8.75081,6.8148 z"
       fill="#d4aa00"
       id="path18147"
       style="stroke-width:1.13325" /><path
       d="m 432.73312,144.48333 c 6.44422,0 11.66809,-5.49152 11.66809,-12.26589 0,-6.77436 -5.22387,-12.26715 -11.66809,-12.26715 -6.44422,0 -11.66807,5.49279 -11.66807,12.26715 0,6.77437 5.22385,12.26589 11.66807,12.26589 z"
       fill="#d4aa00"
       id="path18149"
       style="stroke-width:1.13325" /><path
       d="m 339.87316,120.85901 c 6.71247,0 12.1548,-4.88108 12.1548,-10.90343 0,-6.0211 -5.44233,-10.902174 -12.1548,-10.902174 -6.71247,0 -12.15379,4.881074 -12.15379,10.902174 0,6.02235 5.44132,10.90343 12.15379,10.90343 z"
       fill="#d4aa00"
       id="path18151"
       style="stroke-width:1.13325" /><path
       d="m 230.484,75.429086 c 4.83266,0 8.75082,-3.661451 8.75082,-8.177271 0,-4.515819 -3.91816,-8.177256 -8.75082,-8.177256 -4.83366,0 -8.75181,3.661437 -8.75181,8.177256 0,4.51582 3.91815,8.177271 8.75181,8.177271 z"
       fill="#d4aa00"
       id="path18153"
       style="stroke-width:1.13325" /><path
       d="m 244.58264,416.15671 c 8.86055,0 16.0445,-4.88235 16.0445,-10.90343 0,-6.02236 -7.18395,-10.90344 -16.0445,-10.90344 -8.86053,0 -16.04349,4.88108 -16.04349,10.90344 0,6.02108 7.18296,10.90343 16.04349,10.90343 z"
       fill="#d4aa00"
       id="path18155"
       style="stroke-width:1.13325" /><path
       d="m 467.73838,218.07994 c 5.9067,0 10.69567,-5.49152 10.69567,-12.26589 0,-6.77436 -4.78897,-12.26588 -10.69567,-12.26588 -5.9077,0 -10.69667,5.49152 -10.69667,12.26588 0,6.77437 4.78897,12.26589 10.69667,12.26589 z"
       fill="#d4aa00"
       id="path18157"
       style="stroke-width:1.13325" /><path
       d="m 434.67797,291.67782 c 8.05478,0 14.58536,-4.2719 14.58536,-9.54097 0,-5.2691 -6.53058,-9.53973 -14.58536,-9.53973 -8.05578,0 -14.58535,4.27063 -14.58535,9.53973 0,5.26907 6.52957,9.54097 14.58535,9.54097 z"
       fill="#d4aa00"
       id="path18159"
       style="stroke-width:1.13325" /><path
       d="m 425.92614,208.99397 c 10.74038,0 19.44749,-7.11814 19.44749,-15.9008 0,-8.78139 -8.70711,-15.90079 -19.44749,-15.90079 -10.74036,0 -19.44645,7.1194 -19.44645,15.90079 0,8.78266 8.70609,15.9008 19.44645,15.9008 z"
       fill="#ffd42a"
       id="path18161"
       style="stroke-width:1.13325" /><path
       d="m 388.00463,282.59058 c 12.35192,0 22.36475,-8.13556 22.36475,-18.17198 0,-10.03516 -10.01283,-18.17197 -22.36475,-18.17197 -12.35091,0 -22.36374,8.13681 -22.36374,18.17197 0,10.03642 10.01283,18.17198 22.36374,18.17198 z"
       fill="#ffd42a"
       id="path18163"
       style="stroke-width:1.13325" /><path
       d="m 343.76286,385.26385 c 11.00862,0 19.93319,-10.17038 19.93319,-22.71559 0,-12.54521 -8.92457,-22.71433 -19.93319,-22.71433 -11.00862,0 -19.93318,10.16912 -19.93318,22.71433 0,12.54521 8.92456,22.71559 19.93318,22.71559 z"
       fill="#ffd42a"
       id="path18165"
       style="stroke-width:1.13325" /><path
       d="m 398.70131,116.31665 c 15.57301,0 28.19828,-8.54252 28.19828,-19.080695 0,-10.538185 -12.62527,-19.080698 -28.19828,-19.080698 -15.57405,0 -28.1983,8.542513 -28.1983,19.080698 0,10.538175 12.62425,19.080695 28.1983,19.080695 z"
       fill="#ffd42a"
       id="path18167"
       style="stroke-width:1.13325" /><path
       d="m 219.30163,410.70437 c 20.67495,0 37.43582,-9.76342 37.43582,-21.80689 0,-12.04344 -16.76087,-21.8056 -37.43582,-21.8056 -20.67496,0 -37.43581,9.76216 -37.43581,21.8056 0,12.04347 16.76085,21.80689 37.43581,21.80689 z"
       fill="#ffd42a"
       id="path18169"
       style="stroke-width:1.13325" /><path
       d="m 346.19341,286.22547 c 6.98175,0 12.64153,-4.27062 12.64153,-9.53971 0,-5.26909 -5.65978,-9.54098 -12.64153,-9.54098 -6.98073,0 -12.6405,4.27189 -12.6405,9.54098 0,5.26909 5.65977,9.53971 12.6405,9.53971 z"
       fill="#ffd42a"
       id="path18171"
       style="stroke-width:1.13325" /><path
       d="m 467.25166,182.64473 c 9.93459,0 17.98833,-5.08456 17.98833,-11.35717 0,-6.27387 -8.05374,-11.35843 -17.98833,-11.35843 -9.93457,0 -17.98833,5.08456 -17.98833,11.35843 0,6.27261 8.05376,11.35717 17.98833,11.35717 z"
       fill="#ffd42a"
       id="path18173"
       style="stroke-width:1.13325" /><path
       d="m 288.82442,119.95029 c 14.5,0 26.25445,-6.50896 26.25445,-14.53708 0,-8.029386 -11.75445,-14.538328 -26.25445,-14.538328 -14.49898,0 -26.25345,6.508942 -26.25345,14.538328 0,8.02812 11.75447,14.53708 26.25345,14.53708 z"
       fill="#ffdd55"
       id="path18175"
       style="stroke-width:1.13325" /><path
       d="m 191.59006,88.149965 c 9.66531,0 17.50162,-4.882343 17.50162,-10.903428 0,-6.022364 -7.83631,-10.903441 -17.50162,-10.903441 -9.66633,0 -17.50262,4.881077 -17.50262,10.903441 0,6.021085 7.83629,10.903428 17.50262,10.903428 z"
       fill="#ffdd55"
       id="path18177"
       style="stroke-width:1.13325" /><path
       d="m 450.72145,160.83786 c 6.17597,0 11.18239,-4.88108 11.18239,-10.90344 0,-6.0211 -5.00642,-10.90343 -11.18239,-10.90343 -6.17595,0 -11.18237,4.88233 -11.18237,10.90343 0,6.02236 5.00642,10.90344 11.18237,10.90344 z"
       fill="#ffdd55"
       id="path18179"
       style="stroke-width:1.13325" /><path
       d="m 299.03436,129.03627 c 11.54616,0 20.90561,-6.10197 20.90561,-13.62835 0,-7.52763 -9.35945,-13.62961 -20.90561,-13.62961 -11.54512,0 -20.90559,6.10198 -20.90559,13.62961 0,7.52638 9.36047,13.62835 20.90559,13.62835 z"
       fill="#ffdd55"
       id="path18181"
       style="stroke-width:1.13325" /><path
       d="m 380.71195,289.86037 c 10.47212,0 18.96178,-4.88234 18.96178,-10.90343 0,-6.02236 -8.48966,-10.90344 -18.96178,-10.90344 -10.47109,0 -18.96075,4.88108 -18.96075,10.90344 0,6.02109 8.48966,10.90343 18.96075,10.90343 z"
       fill="#ffe680"
       id="path18183"
       style="stroke-width:1.13325" /><path
       d="m 346.19341,367.09188 c 11.81441,0 21.39233,-7.52636 21.39233,-16.80951 0,-9.28315 -9.57792,-16.80952 -21.39233,-16.80952 -11.81339,0 -21.39131,7.52637 -21.39131,16.80952 0,9.28315 9.57792,16.80951 21.39131,16.80951 z"
       fill="#ffe680"
       id="path18185"
       style="stroke-width:1.13325" /><path
       d="m 429.33015,213.53759 c 5.10193,0 9.23753,-4.47538 9.23753,-9.99471 0,-5.52061 -4.1356,-9.99471 -9.23753,-9.99471 -5.10194,0 -9.23753,4.4741 -9.23753,9.99471 0,5.51933 4.13559,9.99471 9.23753,9.99471 z"
       fill="#ffe680"
       id="path18187"
       style="stroke-width:1.13325" /><path
       d="m 198.88173,394.34984 c 6.71349,0 12.1548,-2.64402 12.1548,-5.90607 0,-3.26207 -5.44131,-5.90609 -12.1548,-5.90609 -6.71247,0 -12.15379,2.64402 -12.15379,5.90609 0,3.26205 5.44132,5.90607 12.15379,5.90607 z"
       fill="#ffe680"
       id="path18189"
       style="stroke-width:1.13325" /><path
       d="m 405.50726,338.01648 c 3.22211,0 5.83454,-3.051 5.83454,-6.81481 0,-3.76381 -2.61243,-6.81481 -5.83454,-6.81481 -3.22211,0 -5.83353,3.051 -5.83353,6.81481 0,3.76381 2.61142,6.81481 5.83353,6.81481 z"
       fill="#ffe680"
       id="path18191"
       style="stroke-width:1.13325" /><path
       d="m 362.23791,307.12362 c 5.10092,0 9.23652,-2.23706 9.23652,-4.99736 0,-2.76029 -4.1356,-4.99735 -9.23652,-4.99735 -5.10192,0 -9.23753,2.23706 -9.23753,4.99735 0,2.7603 4.13561,4.99736 9.23753,4.99736 z"
       fill="#ffe680"
       id="path18193"
       style="stroke-width:1.13325" /><path
       d="m 403.0767,93.601052 c 11.54515,0 20.90562,-6.915915 20.90562,-15.445795 0,-8.531148 -9.36047,-15.447063 -20.90562,-15.447063 -11.54614,0 -20.9056,6.915915 -20.9056,15.447063 0,8.52988 9.35946,15.445795 20.9056,15.445795 z"
       fill="#ffe680"
       id="path18195"
       style="stroke-width:1.13325" /><path
       d="m 280.56032,71.794183 c 15.30477,0 27.71157,-5.898496 27.71157,-13.174618 0,-7.275867 -12.4068,-13.174364 -27.71157,-13.174364 -15.30577,0 -27.71257,5.898497 -27.71257,13.174364 0,7.276122 12.4068,13.174618 27.71257,13.174618 z"
       fill="#ffe680"
       id="path18197"
       style="stroke-width:1.13325" /><path
       d="m 183.32497,50.896794 c 14.76723,0 26.73914,-6.508696 26.73914,-14.537704 0,-8.028883 -11.97191,-14.537704 -26.73914,-14.537704 -14.76827,0 -26.74017,6.508821 -26.74017,14.537704 0,8.029008 11.9719,14.537704 26.74017,14.537704 z"
       fill="#ffe680"
       id="path18199"
       style="stroke-width:1.13325" /><path
       d="m 343.27613,53.622589 c 8.5923,0 15.55779,-4.067903 15.55779,-9.085985 0,-5.01821 -6.96549,-9.086113 -15.55779,-9.086113 -8.59128,0 -15.55676,4.067903 -15.55676,9.086113 0,5.018082 6.96548,9.085985 15.55676,9.085985 z"
       fill="#ffe680"
       id="path18201"
       style="stroke-width:1.13325" /><path
       d="m 320.91241,89.058698 c 4.83366,0 8.75181,-4.882344 8.75181,-10.903441 0,-6.022352 -3.91815,-10.903442 -8.75181,-10.903442 -4.83267,0 -8.75082,4.88109 -8.75082,10.903442 0,6.021097 3.91815,10.903441 8.75082,10.903441 z"
       fill="#ffeeaa"
       id="path18203"
       style="stroke-width:1.13325" /><path
       d="m 332.58049,399.80093 c 8.59229,0 15.55777,-5.8985 15.55777,-13.17462 0,-7.27611 -6.96548,-13.17462 -15.55777,-13.17462 -8.59231,0 -15.55779,5.89851 -15.55779,13.17462 0,7.27612 6.96548,13.17462 15.55779,13.17462 z"
       fill="#ffeeaa"
       id="path18205"
       style="stroke-width:1.13325" /><path
       d="m 247.49992,393.44112 c 10.47211,0 18.96076,-5.49154 18.96076,-12.26589 0,-6.77437 -8.48865,-12.26716 -18.96076,-12.26716 -10.47211,0 -18.96077,5.49279 -18.96077,12.26716 0,6.77435 8.48866,12.26589 18.96077,12.26589 z"
       fill="#ffeeaa"
       id="path18207"
       style="stroke-width:1.13325" /><path
       d="m 397.24216,156.29549 c 8.32404,0 15.07208,-7.32287 15.07208,-16.35578 0,-9.03164 -6.74804,-16.35453 -15.07208,-16.35453 -8.32403,0 -15.07106,7.32289 -15.07106,16.35453 0,9.03291 6.74703,16.35578 15.07106,16.35578 z"
       fill="#ffeeaa"
       id="path18209"
       style="stroke-width:1.13325" /><path
       d="m 140.54132,108.13938 c 7.78651,0 14.09863,-6.71243 14.09863,-14.99206 0,-8.279635 -6.31212,-14.992063 -14.09863,-14.992063 -7.78753,0 -14.09966,6.712428 -14.09966,14.992063 0,8.27963 6.31213,14.99206 14.09966,14.99206 z"
       fill="#ffeeaa"
       id="path18211"
       style="stroke-width:1.13325" /><path
       d="m 444.88793,443.41466 c 8.32301,0 15.07105,-4.47537 15.07105,-9.99471 0,-5.52059 -6.74804,-9.9947 -15.07105,-9.9947 -8.32404,0 -15.07208,4.47411 -15.07208,9.9947 0,5.51934 6.74804,9.99471 15.07208,9.99471 z"
       fill="#ffeeaa"
       id="path18213"
       style="stroke-width:1.13325" /><path
       d="m 473.57191,378.90278 c 6.44422,0 11.66808,-3.86366 11.66808,-8.63099 0,-4.76734 -5.22386,-8.63226 -11.66808,-8.63226 -6.44421,0 -11.66807,3.86492 -11.66807,8.63226 0,4.76733 5.22386,8.63099 11.66807,8.63099 z"
       fill="#ffeeaa"
       id="path18215"
       style="stroke-width:1.13325" /><path
       d="m 470.16894,63.616926 c 9.39807,0 17.01591,-5.491535 17.01591,-12.265897 0,-6.77436 -7.61784,-12.266143 -17.01591,-12.266143 -9.39807,0 -17.01592,5.491783 -17.01592,12.266143 0,6.774362 7.61785,12.265897 17.01592,12.265897 z"
       fill="#ffeeaa"
       id="path18217"
       style="stroke-width:1.13325" /><path
       d="m 55.460052,79.972708 c 5.907196,0 10.69585,-3.661438 10.69585,-8.178525 0,-4.515819 -4.788654,-8.177257 -10.69585,-8.177257 -5.9072,0 -10.695866,3.661438 -10.695866,8.177257 0,4.517087 4.788666,8.178525 10.695866,8.178525 z"
       fill="#ffdd55"
       id="path18219"
       style="stroke-width:1.13325" /><path
       d="m 393.35347,434.32869 c 14.76725,0 26.73915,-8.94949 26.73915,-19.98943 0,-11.03993 -11.9719,-19.98942 -26.73915,-19.98942 -14.76825,0 -26.74015,8.94949 -26.74015,19.98942 0,11.03994 11.9719,19.98943 26.74015,19.98943 z"
       fill="#ffdd55"
       id="path18221"
       style="stroke-width:1.13325" /><path
       d="m 425.92614,49.079596 c 10.74038,0 19.44749,-6.915535 19.44749,-15.446301 0,-8.530768 -8.70711,-15.446303 -19.44749,-15.446303 -10.74036,0 -19.44645,6.915535 -19.44645,15.446303 0,8.530766 8.70609,15.446301 19.44645,15.446301 z"
       fill="#ffdd55"
       id="path18223"
       style="stroke-width:1.13325" /><path
       d="m 28.234189,124.49391 c 5.9072,0 10.695954,-3.45796 10.695954,-7.72352 0,-4.26558 -4.788754,-7.72227 -10.695954,-7.72227 -5.9071,0 -10.695867,3.45669 -10.695867,7.72227 0,4.26556 4.788767,7.72352 10.695867,7.72352 z"
       fill="#ffdd55"
       id="path18225"
       style="stroke-width:1.13325" /><path
       d="m 123.0387,35.450491 c 7.7865,0 14.09862,-4.474743 14.09862,-9.994711 0,-5.51984 -6.31212,-9.994584 -14.09862,-9.994584 -7.78652,0 -14.09865,4.474744 -14.09865,9.994584 0,5.519968 6.31213,9.994711 14.09865,9.994711 z"
       fill="#ffdd55"
       id="path18227"
       style="stroke-width:1.13325" /><path
       d="m 435.16367,53.622589 c 5.63845,0 10.20996,-4.067903 10.20996,-9.085985 0,-5.01821 -4.57151,-9.086113 -10.20996,-9.086113 -5.63844,0 -10.20995,4.067903 -10.20995,9.086113 0,5.018082 4.57151,9.085985 10.20995,9.085985 z"
       fill="#d4aa00"
       id="path18229"
       style="stroke-width:1.13325" /><path
       d="m 502.25692,309.84979 c 2.95284,0 5.34783,-2.4418 5.34783,-5.45234 0,-3.01055 -2.39499,-5.45109 -5.34783,-5.45109 -2.95385,0 -5.34884,2.44054 -5.34884,5.45109 0,3.01054 2.39499,5.45234 5.34884,5.45234 z"
       fill="#d4aa00"
       id="path18231"
       style="stroke-width:1.13325" /><path
       d="m 57.891105,22.729984 c 5.101627,0 9.23733,-2.847633 9.23733,-6.360315 0,-3.512558 -4.135703,-6.360191 -9.23733,-6.360191 -5.101611,0 -9.237415,2.847633 -9.237415,6.360191 0,3.512682 4.135804,6.360315 9.237415,6.360315 z"
       fill="#d4aa00"
       id="path18233"
       style="stroke-width:1.13325" /><path
       d="m 46.222621,91.783601 c 3.490669,0 6.320359,-2.033572 6.320359,-4.542355 0,-2.508796 -2.82969,-4.543635 -6.320359,-4.543635 -3.490569,0 -6.320247,2.034839 -6.320247,4.543635 0,2.508783 2.829678,4.542355 6.320247,4.542355 z"
       fill="#d4aa00"
       id="path18235"
       style="stroke-width:1.13325" /><path
       d="m 110.88389,41.810681 c 4.83367,0 8.75182,-3.457705 8.75182,-7.723151 0,-4.26532 -3.91815,-7.723151 -8.75182,-7.723151 -4.83276,0 -8.75071,3.457831 -8.75071,7.723151 0,4.265446 3.91795,7.723151 8.75071,7.723151 z"
       fill="#d4aa00"
       id="path18237"
       style="stroke-width:1.13325" /><path
       d="m 370.98873,425.2427 c 8.86053,0 16.04348,-4.67886 16.04348,-10.44971 0,-5.77084 -7.18295,-10.44844 -16.04348,-10.44844 -8.86055,0 -16.04349,4.6776 -16.04349,10.44844 0,5.77085 7.18294,10.44971 16.04349,10.44971 z"
       fill="#d4aa00"
       id="path18239"
       style="stroke-width:1.13325" /><path
       d="m 419.6059,223.5323 c 5.63945,0 10.20995,-4.06841 10.20995,-9.08599 0,-5.01883 -4.5705,-9.08725 -10.20995,-9.08725 -5.63844,0 -10.20894,4.06842 -10.20894,9.08725 0,5.01758 4.5705,9.08599 10.20894,9.08599 z"
       fill="#d4aa00"
       id="path18241"
       style="stroke-width:1.13325" /><path
       d="m 379.25383,127.22008 c 6.98174,0 12.64049,-4.67886 12.64049,-10.44969 0,-5.77086 -5.65875,-10.44844 -12.64049,-10.44844 -6.98074,0 -12.64051,4.67758 -12.64051,10.44844 0,5.77083 5.65977,10.44969 12.64051,10.44969 z"
       fill="#d4aa00"
       id="path18243"
       style="stroke-width:1.13325" /><path
       d="m 358.83392,67.251815 c 5.37018,0 9.72424,-3.864924 9.72424,-8.63225 0,-4.766825 -4.35406,-8.631497 -9.72424,-8.631497 -5.37018,0 -9.72324,3.864672 -9.72324,8.631497 0,4.767326 4.35306,8.63225 9.72324,8.63225 z"
       fill="#d4aa00"
       id="path18245"
       style="stroke-width:1.13325" /><path
       d="m 461.90384,425.2427 c 13.42494,0 24.30857,-9.35646 24.30857,-20.89815 0,-11.54169 -10.88363,-20.89814 -24.30857,-20.89814 -13.42596,0 -24.30859,9.35645 -24.30859,20.89814 0,11.54169 10.88263,20.89815 24.30859,20.89815 z"
       fill="#ffcc00"
       id="path18247"
       style="stroke-width:1.13325" /><path
       d="m 449.26333,411.61309 c 7.51826,0 13.61293,-5.28805 13.61293,-11.81216 0,-6.52285 -6.09467,-11.81216 -13.61293,-11.81216 -7.51826,0 -13.61292,5.28931 -13.61292,11.81216 0,6.52411 6.09466,11.81216 13.61292,11.81216 z"
       fill="#d4aa00"
       id="path18249"
       style="stroke-width:1.13325" /><path
       d="m 446.83277,73.611635 c 4.5644,0 8.26511,-3.050992 8.26511,-6.814806 0,-3.762561 -3.70071,-6.813544 -8.26511,-6.813544 -4.56542,0 -8.26509,3.050983 -8.26509,6.813544 0,3.763814 3.69967,6.814806 8.26509,6.814806 z"
       fill="#d4aa00"
       id="path18251"
       style="stroke-width:1.13325" /><path
       d="m 123.69714,164.12014 c -1.19292,2.24716 0.37495,5.24507 3.50154,6.69347 3.12761,1.44966 6.62914,0.80256 7.82206,-1.44587 1.19293,-2.24717 -0.37494,-5.24508 -3.50153,-6.69347 -3.12761,-1.44967 -6.62915,-0.80257 -7.82207,1.44587 z"
       fill="#ffeeaa"
       id="path18253"
       style="stroke-width:1.13325" /><path
       d="m 267.15875,177.81799 c -1.5567,3.19761 0.3526,7.13711 4.26262,8.7991 3.91104,1.66199 8.34233,0.41707 9.89901,-2.78052 1.55669,-3.19761 -0.35157,-7.13709 -4.26261,-8.7991 -3.91003,-1.66199 -8.34233,-0.41707 -9.89902,2.78052 z"
       fill="#ffeeaa"
       id="path18255"
       style="stroke-width:1.13325" /><path
       d="m 88.033939,293.49401 c 6.712673,0 12.154401,-2.03358 12.154401,-4.54236 0,-2.5088 -5.441728,-4.54362 -12.154401,-4.54362 -6.712672,0 -12.15439,2.03482 -12.15439,4.54362 0,2.50878 5.441718,4.54236 12.15439,4.54236 z"
       fill="#ffe680"
       id="path18257"
       style="stroke-width:1.13325" /><path
       d="m 97.757373,274.41331 c 9.934787,0 17.988647,-6.91465 17.988647,-15.4458 0,-8.53115 -8.05386,-15.44579 -17.988647,-15.44579 -9.934789,0 -17.988533,6.91464 -17.988533,15.44579 0,8.53115 8.053744,15.4458 17.988533,15.4458 z"
       fill="#ffe680"
       id="path18259"
       style="stroke-width:1.13325" /><path
       d="m 62.266712,234.43447 c 8.592297,0 15.557677,-3.25321 15.557677,-7.26854 0,-4.01406 -6.96538,-7.26853 -15.557677,-7.26853 -8.59228,0 -15.557674,3.25447 -15.557674,7.26853 0,4.01533 6.965394,7.26854 15.557674,7.26854 z"
       fill="#ffe680"
       id="path18261"
       style="stroke-width:1.13325" /><path
       d="m 58.37722,261.6937 c 9.666223,0 17.502329,-5.8985 17.502329,-13.17588 0,-7.27613 -7.836106,-13.17463 -17.502329,-13.17463 -9.666331,0 -17.502426,5.8985 -17.502426,13.17463 0,7.27738 7.836095,13.17588 17.502426,13.17588 z"
       fill="#ffd42a"
       id="path18263"
       style="stroke-width:1.13325" /><path
       d="m 85.603084,268.96222 c 4.296041,0 7.778782,-3.25446 7.778782,-7.26852 0,-4.01533 -3.482741,-7.26981 -7.778782,-7.26981 -4.296155,0 -7.778896,3.25448 -7.778896,7.26981 0,4.01406 3.482741,7.26852 7.778896,7.26852 z"
       fill="#ffd42a"
       id="path18265"
       style="stroke-width:1.13325" /><path
       d="m 60.321859,284.40803 c 6.981239,0 12.640619,-4.27063 12.640619,-9.53972 0,-5.2691 -5.65938,-9.54098 -12.640619,-9.54098 -6.981222,0 -12.640602,4.27188 -12.640602,9.54098 0,5.26909 5.65938,9.53972 12.640602,9.53972 z"
       fill="#ffd42a"
       id="path18267"
       style="stroke-width:1.13325" /><path
       d="m 293.68654,402.5271 c 0,2.64529 -1.42765,5.18188 -3.97099,7.05495 -2.54232,1.87305 -5.99306,2.93091 -9.5952,2.93977 -3.60214,0.009 -7.06303,-1.03007 -9.62264,-2.89049 -2.56061,-1.86168 -4.01162,-4.3907 -4.03703,-7.03598 -0.0244,-2.64402 1.37989,-5.1882 3.90494,-7.07517 2.52506,-1.88569 5.96563,-2.95999 9.56777,-2.98653 3.60213,-0.0277 7.07217,0.99468 9.65007,2.84245 2.57687,1.84652 4.05228,4.36922 4.10207,7.01451"
       fill="#d4aa00"
       id="path18269"
       style="stroke-width:1.13325" /><path
       d="m 77.824088,263.96487 c 0,1.08188 -0.407869,2.11952 -1.134392,2.88543 -0.726522,0.76716 -1.712463,1.19941 -2.741692,1.2032 -1.029117,0.004 -2.017809,-0.42213 -2.749307,-1.18299 -0.731511,-0.76085 -1.146279,-1.79596 -1.153291,-2.87783 -0.0075,-1.08188 0.394047,-2.12205 1.115594,-2.89428 0.721546,-0.77096 1.704534,-1.21079 2.733663,-1.22216 1.029216,-0.012 2.020548,0.40696 2.757035,1.16276 0.736474,0.7558 1.157964,1.78713 1.172088,2.86899"
       fill="#d4aa00"
       id="path18271"
       style="stroke-width:1.13325" /><path
       d="m 73.934797,277.59448 c 0,2.04368 -1.1218,4.00396 -3.119793,5.45108 -1.99788,1.44714 -4.708988,2.26486 -7.539381,2.27119 -2.830306,0.008 -5.549129,-0.79625 -7.56073,-2.23327 -2.011711,-1.43828 -3.152197,-3.39349 -3.171611,-5.43717 -0.01948,-2.04369 1.08379,-4.00902 3.067969,-5.46626 1.98407,-1.45725 4.687349,-2.28762 7.517642,-2.3091 2.830193,-0.0203 5.556543,0.76843 7.581866,2.19661 2.025222,1.42818 3.184205,3.37707 3.22302,5.42075"
       fill="#d4aa00"
       id="path18273"
       style="stroke-width:1.13325" /><path
       d="m 68.100654,251.24399 c 0,1.56341 -1.32583,3.06235 -3.686983,4.16952 -2.361254,1.10715 -5.565275,1.73149 -8.91023,1.73655 -3.344958,0.005 -6.558127,-0.60918 -8.93544,-1.70875 -2.377413,-1.09831 -3.725283,-2.59347 -3.748253,-4.15687 -0.02287,-1.56215 1.28092,-3.06616 3.625713,-4.1809 2.344893,-1.11348 5.539666,-1.7492 8.884524,-1.76437 3.344753,-0.0164 6.566856,0.5877 8.960329,1.67969 2.39356,1.09072 3.763294,2.58209 3.809121,4.14424"
       fill="#d4aa00"
       id="path18275"
       style="stroke-width:1.13325" /><path
       d="m 362.72362,383.44641 c 0,1.9236 -1.27421,3.76887 -3.54523,5.13132 -2.27002,1.36245 -5.35088,2.1309 -8.56689,2.13721 -3.21704,0.007 -6.30602,-0.74947 -8.5923,-2.10183 -2.28626,-1.3536 -3.58182,-3.1938 -3.60416,-5.11742 -0.0214,-1.92235 1.23152,-3.77266 3.48629,-5.14522 2.25476,-1.37131 5.32648,-2.15237 8.5425,-2.1726 3.21703,-0.0203 6.31517,0.72294 8.61668,2.0677 2.3015,1.34349 3.61841,3.17737 3.66209,5.10099"
       fill="#d4aa00"
       id="path18277"
       style="stroke-width:1.13325" /><path
       id="path19526"
       style="fill:#000000;stroke-width:4.60639"
       d="m 335.76242,136.94825 c -17.50915,0 -43.84655,37.15067 -36.76109,51.85838 4.11071,8.53055 5.69847,6.91492 11.93069,-12.21816 10.42463,-32.0137 39.29494,-31.79718 49.772,0.36679 4.36131,13.39072 7.36977,17.15217 10.49295,13.14545 7.25009,-9.3035 -4.00814,-35.74577 -19.14311,-44.95953 -7.39942,-4.50332 -14.73259,-8.19298 -16.29144,-8.19298 z m -142.07185,2.18073 c -4.45083,0.10852 -8.88153,1.38695 -13.01094,3.98439 -14.22244,8.94731 -27.68563,32.51786 -24.5524,42.99283 3.61638,12.08773 6.02103,10.25907 12.46289,-9.51773 10.42463,-32.0137 39.29494,-31.79718 49.772,0.36679 4.51533,13.86379 7.30507,17.23518 10.67564,12.91109 3.37058,-4.3241 2.83183,-10.50101 -2.05729,-23.65163 -6.37561,-17.15202 -19.93742,-27.41131 -33.2899,-27.08579 z m 2.43063,92.33417 c -1.06301,0.0783 -0.80212,2.37925 -0.1033,6.95994 2.09324,13.68483 19.97,29.24335 42.81376,37.2557 36.88225,12.93352 94.89723,-10.5547 94.89727,-38.42759 0,-6.44164 -1.45116,-6.29164 -9.15055,0.95787 -40.18475,37.84015 -79.78736,37.70633 -120.42666,-0.38713 -4.58243,-4.29572 -6.96755,-6.43684 -8.03056,-6.35874 z m 68.47027,64.61655 c -19.21135,0 -28.46838,2.00808 -28.46838,6.17534 0,3.39399 5.03281,7.23626 11.18401,8.52924 6.14933,1.29288 16.44557,1.45122 22.87638,0.34643 6.42893,-1.10233 14.20877,-2.0075 17.28437,-2.0075 3.07373,0 5.59196,-2.93481 5.592,-6.52178 0,-4.59629 -8.40683,-6.52178 -28.46838,-6.52178 z"
       clip-path="url(#clipPath3544)"
       transform="matrix(1.2565677,0,0,1.3340758,-70.100744,-73.228144)" /><path
       id="path15691"
       style="display:inline;fill:#000000;stroke-width:8.1298"
       d="m 718.46925,-48.739727 c -0.005,0.0064 -0.0102,0.01285 -0.0155,0.01965 0.006,-0.0045 0.0102,-0.0091 0.0155,-0.01361 z m -0.0155,0.01965 c -0.146,0.118413 -0.26702,0.23675 -0.41211,0.367181 0.002,0.06161 -0.002,0.09112 0,0.152353 0.14805,-0.177751 0.26888,-0.345222 0.41211,-0.519534 z m 75.9159,83.109257 c -4.7599,0.06161 -9.85266,7.443315 -16.5293,23.421873 -8.50705,20.360553 -20.3146,32.593206 -37.14063,38.458987 -13.56744,4.72946 -24.66016,11.89194 -24.66016,15.92578 0,11.53334 35.26155,8.58055 53.97266,-4.52539 22.94897,-16.073851 40.66952,-59.349975 29.05664,-70.962891 -1.56094,-1.560945 -3.1128,-2.336803 -4.69921,-2.318359 z m 249.83405,0.0155 c -1.5917,-0.03024 -3.1403,0.741789 -4.7013,2.302734 -11.6128,11.612878 6.1044,54.887124 29.0411,70.960936 17.9288,12.5581 53.9883,16.24851 53.9883,5.52539 0,-3.49118 -11.0411,-10.51639 -24.5332,-15.609373 C 1081.6184,91.40183 1069.279,78.292085 1060.8599,58.142959 1054.1104,41.978788 1048.9665,34.50238 1044.2037,34.40468 Z M 662.06886,57.254418 c -0.24582,0.639111 -0.46682,1.280803 -0.69727,1.919921 0.33184,-0.626835 0.63188,-1.264936 0.9668,-1.888672 -0.0902,-0.0021 -0.1793,-0.03024 -0.26952,-0.03137 z m -43.20508,52.398442 c -0.0272,0.12283 -0.0611,0.24748 -0.0918,0.38281 0.0306,-0.0922 0.0611,-0.21638 0.0918,-0.3086 5e-4,-4.9e-4 2.2e-4,-0.0427 0,-0.0742 z m 431.46482,7.43946 c -0.8688,-0.004 -1.732,0.0265 -2.5859,0.09 v -0.002 c -25.613,1.78526 -44.5215,31.55028 -25.7695,58.32226 13.231,18.9075 43.0071,22.71364 58.2734,7.44726 15.2663,-15.26627 11.4761,-45.03213 -7.4316,-58.27537 -6.59,-4.61578 -13.3726,-6.95005 -19.8633,-7.4629 -0.8788,-0.0767 -1.7542,-0.11527 -2.6231,-0.11905 z m -262.10153,0.0113 c -0.86877,0.008 -1.74411,0.0442 -2.62305,0.10544 -6.49073,0.51315 -13.25767,2.84833 -19.84766,7.46291 -18.90776,13.24327 -22.71359,43.00902 -7.44726,58.2754 15.26633,15.26627 45.03015,11.46017 58.27344,-7.44726 18.75167,-26.77206 -0.15209,-56.53795 -25.76954,-58.32226 v 0.002 c -0.85421,-0.0612 -1.71717,-0.0835 -2.58593,-0.0763 z m 130.23241,124.41992 v 0.002 c -41.14539,-0.0922 -121.12108,37.8243 -121.12108,57.41602 0,12.48309 15.47093,8.64498 40.95117,-10.19335 38.3551,-28.36551 107.44582,-29.57791 157.22851,-2.89259 45.55592,24.48227 60.23022,20.15445 27.40622,-8.09764 -23.64212,-20.3489 -69.21007,-36.17291 -104.46482,-36.23437 z m 3.22851,48.71876 c -1.76413,6e-4 -3.53193,0.034 -5.29296,0.0937 -23.48017,0.82042 -45.88866,6.96809 -45.88866,15.70314 0,3.24715 21.95076,5.9082 48.77928,5.9082 47.49263,0 61.96569,-6.75557 35.91602,-16.75196 -8.96187,-3.43896 -21.16468,-4.9575 -33.51368,-4.95311 z"
       clip-path="url(#clipPath3032)"
       transform="matrix(0.77140043,0,0,0.82810352,-445.39503,28.973769)" /><ellipse
       style="display:inline;fill:#ffffff;fill-opacity:1;stroke-width:0.800504"
       id="path16098"
       cx="156.11778"
       cy="167.28841"
       rx="9.6425056"
       ry="9.1091385" /><ellipse
       style="display:inline;fill:#ffffff;fill-opacity:1;stroke-width:0.800504"
       id="path16098-0"
       cx="368.43704"
       cy="170.37965"
       rx="9.6425056"
       ry="9.1091385" /><path
       d="m 397.72888,253.51517 c 4.83266,0 8.75081,-4.06714 8.75081,-9.08599 0,-5.01758 -3.91815,-9.08599 -8.75081,-9.08599 -4.83368,0 -8.75183,4.06841 -8.75183,9.08599 0,5.01885 3.91815,9.08599 8.75183,9.08599 z"
       fill="#d4aa00"
       id="path18141"
       style="stroke-width:1.13325" /><path
       d="m 372.02253,252.64851 c 9.93459,0 17.98833,-9.15296 17.98833,-20.4444 0,-11.29019 -8.05374,-20.44316 -17.98833,-20.44316 -9.93459,0 -17.98834,9.15297 -17.98834,20.44316 0,11.29144 8.05375,20.4444 17.98834,20.4444 z"
       fill="#d4aa00"
       id="path18139-5-5"
       style="stroke-width:1.13325" /></g></svg>
